<?xml version="1.0" standalone="no"?>
<!DOCTYPE svg PUBLIC "-//W3C//DTD SVG 20010904//EN"
 "http://www.w3.org/TR/2001/REC-SVG-20010904/DTD/svg10.dtd">
<svg version="1.0" xmlns="http://www.w3.org/2000/svg"
 width="502.000000pt" height="502.000000pt" viewBox="0 0 502.000000 502.000000"
 preserveAspectRatio="xMidYMid meet">
<metadata>
Created by potrace 1.16, written by Peter Selinger 2001-2019
</metadata>
<g transform="translate(0.000000,502.000000) scale(0.100000,-0.100000)"
fill="#000000" stroke="none">
<path fill="#000000" stroke="none" d="M0 2510 l0 -2510 2510 0 2510 0 0 2510
0 2510 -2510 0 -2510 0 0 -2510z"/>
<path fill="#ffffff" stroke="none" d="M5010 2510 l0 -2500 -2500 0 -2500 0 0
2500 0 2500 2500 0 2500 0 0 -2500z"/>
<path fill="#000000" stroke="none" d="M2678 4265 c-59 -7 -111 -16 -115 -18
-10 -6 -199 -32 -338 -47 -55 -5 -142 -15 -193 -22 -94 -12 -209 -3 -287 21
-235 75 -356 88 -476 52 -35 -10 -100 -28 -144 -41 -79 -22 -152 -57 -234
-113 -195 -133 -353 -286 -412 -400 -42 -81 -68 -127 -89 -157 -31 -46 -71
-163 -80 -234 -5 -39 -13 -100 -19 -136 -10 -72 -26 -443 -23 -530 3 -67 26
-193 45 -246 59 -161 71 -207 63 -246 -18 -86 -17 -100 3 -167 12 -38 21 -79
21 -90 0 -31 18 -26 22 7 2 15 8 -10 12 -55 5 -46 12 -83 16 -83 4 0 11 19 15
43 8 37 9 39 12 14 8 -56 23 -13 23 66 0 59 -5 89 -16 105 -11 16 -14 34 -9
60 16 99 -6 235 -50 303 -38 59 -69 207 -62 302 3 45 9 93 15 107 9 24 10 23
38 -30 15 -30 35 -82 44 -115 9 -33 24 -75 34 -93 15 -29 16 -45 5 -162 -8
-96 -8 -160 0 -243 14 -151 16 -479 2 -599 -10 -88 -29 -170 -50 -208 -4 -8
-20 -37 -34 -63 -15 -26 -27 -57 -27 -68 0 -95 144 -151 390 -151 140 -1 190
14 190 54 0 12 -23 55 -50 95 -67 99 -73 132 -67 377 4 182 7 208 30 278 33
98 46 123 59 110 5 -5 10 -16 11 -23 2 -8 6 -19 9 -25 10 -15 58 -153 68 -194
18 -71 28 -106 44 -150 10 -25 23 -67 30 -95 18 -69 40 -118 78 -173 28 -42
32 -57 39 -147 4 -55 8 -101 8 -102 1 -1 15 -18 32 -38 27 -31 37 -35 78 -35
98 0 317 146 337 224 6 25 2 33 -27 58 -19 17 -51 39 -71 49 -20 10 -52 37
-70 60 -102 127 -215 400 -224 544 -3 38 -7 84 -9 102 -3 28 -1 31 13 23 80
-45 162 -51 230 -18 31 14 75 23 146 29 55 4 119 12 141 17 22 6 54 13 71 17
l31 7 7 -64 c19 -174 5 -494 -27 -613 -3 -11 -12 -47 -20 -80 -23 -97 -40
-126 -120 -209 -83 -86 -91 -109 -64 -174 15 -36 79 -90 116 -98 14 -3 37 -10
51 -16 40 -17 182 -22 237 -9 111 27 167 108 111 161 -12 11 -25 20 -28 20 -4
0 -18 20 -31 44 -22 41 -22 48 -10 83 7 21 28 63 46 93 35 60 69 148 108 280
30 98 113 401 123 445 4 17 15 48 25 70 10 22 29 74 43 115 55 169 65 189 103
205 42 18 75 19 90 4 16 -16 43 -3 43 21 0 12 18 33 48 54 40 30 48 33 52 18
3 -9 15 -37 27 -62 31 -66 73 -170 73 -182 0 -5 11 -32 25 -60 14 -27 32 -75
41 -106 9 -31 25 -74 35 -95 10 -21 41 -112 69 -203 28 -90 64 -190 80 -222
44 -86 52 -112 57 -172 2 -30 9 -71 15 -90 6 -19 11 -64 10 -100 0 -55 -6 -78
-41 -149 -47 -97 -46 -120 4 -168 23 -22 46 -33 77 -37 23 -3 77 -10 118 -17
176 -27 207 -25 263 19 19 15 43 32 53 38 10 6 19 24 20 43 2 29 -2 34 -42 52
-38 19 -93 81 -87 100 1 3 -12 48 -28 100 -17 52 -33 105 -35 119 -3 14 -9 43
-14 65 -5 22 -14 155 -20 295 -6 140 -17 293 -25 340 -7 47 -19 119 -26 160
-7 41 -21 116 -32 165 -10 50 -23 111 -27 137 -5 26 -18 80 -29 120 -11 40
-23 93 -26 118 -4 25 -9 56 -11 70 -8 44 -25 134 -31 155 -4 14 9 6 41 -24 46
-45 46 -45 123 -47 44 0 99 -9 127 -19 27 -9 60 -19 74 -21 44 -8 123 -56 180
-110 46 -44 63 -54 87 -52 20 2 33 10 40 26 5 12 14 21 19 19 6 -2 22 -37 36
-78 15 -41 38 -96 52 -124 34 -64 112 -257 128 -315 14 -51 18 -63 55 -145 56
-125 63 -143 81 -215 27 -110 12 -204 -35 -230 -66 -35 -121 11 -162 133 -25
74 -32 178 -15 225 7 20 5 22 -21 22 -18 0 -38 -9 -52 -24 -30 -32 -50 -23
-57 25 -7 44 -18 49 -35 18 -12 -24 -9 -68 15 -179 8 -41 20 -112 25 -156 21
-196 122 -294 301 -294 61 0 84 5 126 26 86 44 104 64 157 184 36 82 42 204
17 350 -12 63 -34 221 -51 350 -16 129 -34 260 -39 290 -5 30 -12 88 -16 129
l-7 75 38 -23 c25 -14 62 -24 105 -28 64 -5 68 -4 94 23 l26 29 -52 10 c-67
13 -178 53 -206 74 -16 12 -27 45 -47 135 -24 112 -85 307 -127 404 -24 59
-23 135 3 190 19 38 20 49 10 83 -6 21 -20 44 -29 51 -55 40 -178 261 -188
336 -10 68 -72 194 -112 228 -82 68 -212 84 -282 34 -36 -26 -126 -49 -190
-50 -25 0 -61 -4 -80 -10 -28 -8 -45 -6 -95 14 -163 65 -480 97 -687 71z"/>
<path fill="#ffffff" stroke="none" d="M2990 4254 c36 -2 88 -9 115 -14 28 -5
88 -17 135 -25 47 -9 99 -25 117 -35 38 -22 59 -26 98 -17 17 4 60 9 97 11 36
3 75 9 86 15 12 6 32 11 46 11 13 0 38 11 55 26 26 21 40 25 99 26 74 0 128
-20 169 -64 27 -28 96 -159 88 -166 -3 -3 -5 0 -5 5 0 16 -69 86 -115 117 -36
23 -49 26 -132 26 -55 0 -93 -4 -93 -10 0 -6 27 -8 71 -5 120 8 205 -40 255
-144 15 -31 40 -81 56 -111 16 -30 42 -82 59 -116 16 -33 55 -92 84 -129 30
-38 55 -79 55 -91 0 -32 -10 -54 -25 -54 -19 0 -11 -159 9 -198 47 -90 127
-378 145 -517 6 -44 14 -90 17 -103 6 -21 4 -23 -22 -21 -63 5 -121 -2 -140
-16 -17 -13 -16 -14 16 -5 19 6 60 10 91 10 l57 0 4 -42 c3 -24 8 -52 13 -62
7 -17 5 -18 -16 -13 -27 7 -146 -11 -154 -23 -2 -4 25 -1 61 6 84 18 110 12
118 -28 12 -59 12 -58 -76 -58 -46 0 -105 -7 -133 -15 l-50 -15 45 8 c25 4 85
7 134 7 88 0 90 0 97 -26 7 -26 6 -27 -80 -43 -47 -8 -103 -18 -124 -22 -21
-4 -36 -9 -33 -11 4 -5 71 5 156 22 94 19 90 19 90 -7 0 -23 -7 -26 -77 -42
-43 -9 -98 -18 -123 -19 l-45 -4 52 -1 c28 -1 82 5 119 13 36 9 68 14 70 12 3
-2 11 -56 20 -118 8 -63 19 -139 24 -169 49 -282 50 -421 5 -511 -14 -27 -25
-53 -25 -59 0 -20 -61 -77 -113 -106 -46 -25 -62 -29 -132 -28 -190 3 -268 99
-294 363 -7 69 -19 137 -27 153 -15 30 -19 68 -6 68 5 0 14 -11 20 -25 7 -15
20 -25 32 -25 11 0 27 11 36 25 9 14 24 25 33 25 14 0 16 -11 12 -81 -3 -77
10 -149 31 -173 4 -6 8 -19 8 -30 0 -12 7 -30 16 -41 13 -18 13 -20 -3 -27
-17 -6 -17 -7 0 -7 10 -1 30 -10 46 -22 32 -23 86 -19 122 10 50 41 54 172 10
306 -8 22 -29 73 -48 114 -18 40 -47 112 -63 160 -37 111 -112 296 -138 341
-23 39 -67 159 -61 164 2 2 37 -3 78 -11 70 -15 75 -14 88 3 19 25 17 28 -23
47 -19 10 -56 40 -82 68 -52 56 -88 79 -126 79 -34 0 -76 -20 -76 -37 0 -23
-38 -14 -73 16 -36 32 -54 85 -62 182 -5 59 -22 116 -31 106 -3 -3 -1 -22 5
-44 6 -21 11 -48 11 -61 l0 -22 -38 25 c-22 14 -63 34 -93 45 -62 23 -59 22
-59 12 0 -4 28 -17 63 -30 87 -31 129 -73 147 -146 11 -48 20 -62 49 -82 20
-13 46 -24 59 -24 33 0 104 -77 96 -105 -15 -49 -41 -44 -105 18 -90 87 -112
98 -269 138 -25 6 -52 15 -61 20 -9 4 -42 5 -72 2 -55 -6 -56 -5 -96 36 -22
22 -44 41 -49 41 -28 0 -42 39 -47 135 -11 186 -46 328 -98 396 -32 43 -35 62
-18 121 11 40 11 53 0 80 -8 18 -12 58 -11 88 3 42 0 52 -8 44 -8 -8 -10 -31
-6 -70 9 -84 10 -133 2 -179 -6 -35 -3 -47 28 -94 43 -66 61 -118 80 -231 19
-105 23 -390 8 -445 -20 -71 -32 -80 -104 -79 -93 1 -162 23 -208 66 -21 20
-60 47 -87 59 -26 12 -77 43 -113 69 -36 26 -95 62 -133 79 -38 18 -83 49
-105 72 -20 22 -59 54 -87 72 -27 17 -58 39 -69 49 -10 9 -47 34 -83 54 -35
21 -90 63 -122 93 -32 31 -68 64 -79 73 -12 10 -22 28 -22 40 0 13 -13 48 -30
78 -35 65 -37 100 -10 125 22 20 28 51 8 39 -7 -4 -2 6 9 22 12 17 25 42 28
57 7 26 52 67 73 67 6 0 14 5 17 11 7 11 -61 -15 -81 -31 -6 -6 -14 -23 -18
-38 -3 -15 -14 -38 -25 -51 l-19 -25 -16 37 c-26 64 -29 102 -10 138 50 98
236 261 404 356 55 31 198 77 276 89 45 7 139 -16 180 -43 13 -8 33 -35 44
-59 26 -53 82 -103 156 -139 53 -26 84 -28 84 -4 0 8 -4 8 -13 1 -9 -8 -32 -1
-85 29 -71 39 -102 71 -144 148 -11 20 -35 40 -65 54 l-48 21 35 7 c34 6 74 5
210 -7z"/>
<path fill="#ffffff" stroke="none" d="M1593 4224 c43 -13 86 -24 95 -24 9 0
44 -9 78 -19 83 -26 188 -36 255 -22 30 5 81 13 114 16 109 10 239 26 265 31
20 4 18 1 -10 -13 -155 -82 -367 -257 -434 -358 -34 -51 -34 -106 -1 -187 17
-42 22 -65 15 -72 -18 -18 -11 -84 14 -128 13 -24 29 -62 35 -86 7 -23 16 -42
21 -42 5 0 31 -22 59 -49 75 -73 133 -119 172 -135 19 -8 43 -23 54 -33 11
-11 45 -35 75 -54 30 -20 69 -52 86 -71 18 -21 67 -53 112 -76 45 -22 101 -56
124 -75 24 -19 70 -48 104 -65 34 -17 77 -47 98 -66 20 -20 48 -38 63 -42 16
-3 44 -10 63 -15 47 -12 137 -11 161 1 32 18 51 78 52 167 1 46 4 83 7 83 6 0
48 -173 55 -225 10 -71 25 -143 40 -190 8 -27 27 -115 40 -194 14 -79 27 -147
29 -150 17 -28 47 -295 56 -511 8 -180 18 -283 32 -350 11 -52 22 -108 24
-125 12 -75 50 -168 86 -208 43 -45 38 -67 -15 -67 -21 0 -39 -10 -61 -33 -27
-29 -35 -32 -61 -25 -36 10 -73 2 -97 -19 -14 -12 -30 -14 -74 -9 -66 8 -105
26 -128 60 -23 37 -21 53 24 139 22 42 40 84 41 94 0 16 1 16 8 -1 14 -37 20
0 7 44 -24 81 -37 144 -42 200 -5 60 -4 56 -62 185 -22 50 -56 144 -77 210
-20 66 -50 154 -66 195 -16 41 -29 79 -29 84 0 5 -16 48 -36 95 -19 47 -42
104 -51 126 -8 22 -19 48 -24 57 -5 10 -9 22 -9 28 0 6 -11 33 -25 62 -14 28
-25 60 -25 69 0 10 -4 20 -10 24 -13 8 -102 -56 -116 -83 -16 -33 -22 -36 -39
-22 -11 9 -25 10 -57 2 -23 -6 -44 -9 -47 -6 -3 2 4 21 14 42 11 20 21 40 23
45 2 4 0 7 -5 7 -11 0 -93 -175 -93 -198 0 -5 -8 -31 -19 -58 -51 -134 -90
-245 -106 -304 -10 -36 -28 -101 -40 -145 -12 -44 -28 -102 -35 -130 -20 -80
-78 -266 -97 -310 -10 -22 -32 -62 -49 -90 -55 -88 -59 -112 -32 -172 12 -29
28 -53 34 -53 5 0 15 -5 22 -12 17 -17 -4 -38 -38 -38 -26 0 -62 -30 -72 -61
-2 -6 -42 -12 -88 -14 -47 -2 -101 -7 -121 -10 -23 -4 -39 -3 -43 4 -4 6 -14
11 -22 11 -23 0 -82 43 -94 68 -17 39 -11 83 16 121 26 35 94 101 104 101 5 0
16 22 41 85 17 41 48 175 61 260 6 39 12 145 13 237 2 156 8 218 22 254 4 11
0 15 -13 12 -21 -3 -22 19 -8 229 5 77 3 95 -11 115 -14 18 -16 19 -9 3 10
-23 10 -153 -1 -207 l-7 -36 -27 31 c-54 63 -65 101 -55 196 5 47 9 176 9 286
0 110 4 211 8 225 23 70 75 155 115 188 23 19 40 37 38 39 -11 11 -88 -65
-120 -119 -52 -86 -70 -185 -58 -324 6 -80 5 -139 -5 -224 -18 -147 -12 -186
37 -252 22 -29 36 -56 32 -60 -12 -12 -99 -28 -209 -38 -68 -6 -123 -18 -163
-34 -53 -22 -68 -24 -115 -16 -30 5 -69 16 -87 24 l-33 16 0 103 c0 94 -3 107
-31 168 -20 41 -52 86 -87 120 -30 30 -67 77 -81 104 -14 28 -26 42 -26 32 0
-32 38 -91 95 -147 99 -96 115 -145 115 -351 0 -175 3 -202 36 -319 28 -96 66
-194 91 -230 12 -19 23 -38 23 -43 0 -10 81 -133 109 -164 10 -13 23 -23 28
-23 5 0 25 -11 44 -25 29 -22 35 -33 39 -75 3 -28 3 -50 -1 -50 -4 0 -20 7
-35 15 -36 19 -58 19 -73 1 -13 -15 -18 -70 -10 -95 5 -19 -131 -91 -170 -91
-61 0 -114 82 -110 170 3 81 -1 97 -36 149 -20 28 -47 88 -62 134 -14 45 -31
96 -38 112 -7 17 -25 75 -40 130 -30 108 -56 186 -86 252 -10 24 -19 49 -19
56 0 23 -59 97 -72 92 -7 -3 -60 41 -118 97 -86 84 -117 122 -166 208 -89 154
-102 182 -115 255 -6 36 -15 65 -19 65 -4 0 -29 44 -56 98 -26 53 -49 92 -51
85 -2 -7 0 -21 6 -31 7 -13 7 -39 1 -78 -23 -136 -23 -179 -1 -270 12 -49 35
-116 51 -149 49 -98 80 -282 45 -269 -18 7 -20 -28 -5 -90 5 -24 5 -46 0 -55
-8 -14 -9 -13 -10 3 0 11 -5 16 -14 13 -11 -4 -20 12 -35 61 -21 64 -21 68 -4
114 16 46 16 48 -10 130 -14 46 -35 110 -47 143 -48 137 -55 224 -41 493 20
397 45 526 125 662 18 30 52 89 74 130 61 110 159 215 306 329 171 132 324
201 536 241 67 12 175 2 263 -26z"/>
<path fill="#ffffff" stroke="none" d="M4019 2755 c22 -13 54 -42 72 -65 18
-22 37 -40 43 -40 13 -1 56 -35 56 -45 0 -11 -88 1 -136 17 -46 16 -143 103
-140 125 6 38 52 42 105 8z"/>
<path fill="#ffffff" stroke="none" d="M4622 2709 c34 -10 72 -19 86 -19 21 0
22 -2 12 -15 -8 -10 -31 -15 -69 -15 -85 1 -171 46 -171 91 0 19 1 19 41 -2
23 -11 68 -29 101 -40z"/>
<path fill="#ffffff" stroke="none" d="M594 2340 c47 -79 79 -118 163 -197 58
-54 115 -102 128 -106 13 -4 28 -21 35 -37 10 -25 9 -33 -8 -57 -11 -15 -32
-67 -46 -115 -26 -83 -27 -94 -26 -321 l1 -235 32 -49 c53 -82 55 -87 39 -102
-8 -8 -12 -25 -10 -42 6 -38 -15 -44 -48 -14 -31 28 -84 34 -104 10 -11 -13
-14 -13 -27 0 -21 21 -102 20 -118 -2 -12 -16 -16 -16 -76 1 -68 18 -98 38
-118 75 -11 19 -7 34 32 114 72 148 79 191 80 497 1 146 -2 328 -7 405 -8 134
-2 275 12 275 4 0 34 -45 66 -100z"/>
<path fill="#ffffff" stroke="none" d="M477 1883 c-3 -10 -5 -4 -5 12 0 17 2
24 5 18 2 -7 2 -21 0 -30z"/>
<path fill="#ffffff" stroke="none" d="M1664 1189 c-8 -13 -24 -1 -24 18 0 13
3 13 15 3 8 -7 12 -16 9 -21z"/>
<path fill="#ffffff" stroke="none" d="M1596 1135 c18 -14 18 -16 -14 -46 -27
-24 -36 -28 -48 -18 -15 12 -18 37 -8 63 8 20 44 21 70 1z"/>
<path fill="#ffffff" stroke="none" d="M945 1085 c0 -26 -21 -30 -28 -6 -2 11
-2 22 1 26 11 10 27 -2 27 -20z"/>
<path fill="#ffffff" stroke="none" d="M708 1068 c20 -20 14 -26 -20 -22 -18
1 -44 3 -57 3 -20 1 -21 3 -11 16 15 18 71 20 88 3z"/>
<path fill="#ffffff" stroke="none" d="M835 1060 c18 -20 17 -20 -28 -20 -48
0 -56 7 -35 28 18 18 43 15 63 -8z"/>
<path fill="#ffffff" stroke="none" d="M2200 913 c0 -21 -3 -24 -9 -14 -5 8
-7 20 -4 28 8 21 13 15 13 -14z"/>
<path fill="#ffffff" stroke="none" d="M2154 914 c20 -8 21 -54 2 -54 -7 0
-19 -6 -25 -14 -6 -8 -22 -16 -35 -18 -22 -4 -22 -3 -12 26 6 17 20 39 30 49
22 20 19 19 40 11z"/>
<path fill="#ffffff" stroke="none" d="M3720 866 c0 -13 -7 -29 -15 -36 -13
-11 -18 -10 -30 6 -19 25 -18 31 3 43 28 17 42 13 42 -13z"/>
<path fill="#ffffff" stroke="none" d="M1978 833 c2 -9 -9 -13 -37 -13 -41 0
-56 14 -23 23 28 8 55 3 60 -10z"/>
<path fill="#ffffff" stroke="none" d="M3655 840 c11 -18 -7 -58 -31 -69 -26
-11 -94 -15 -94 -5 0 9 22 48 38 67 16 18 77 24 87 7z"/>
<path fill="#ffffff" stroke="none" d="M2060 830 c0 -5 -14 -10 -31 -10 -17 0
-28 4 -24 10 3 6 17 10 31 10 13 0 24 -4 24 -10z"/>
<path fill="#ffffff" stroke="none" d="M3510 785 c16 -20 -4 -28 -50 -20 -42
7 -50 18 -24 33 20 11 60 4 74 -13z"/>
<path fill="#000000" stroke="none" d="M2375 4091 c31 -13 93 -24 75 -12 -8 5
-33 12 -55 15 -27 4 -34 4 -20 -3z"/>
<path fill="#000000" stroke="none" d="M2241 3966 c7 -8 129 -10 136 -3 3 4
-27 7 -67 7 -40 0 -71 -2 -69 -4z"/>
<path fill="#000000" stroke="none" d="M2200 3891 c-68 -22 -112 -44 -131 -67
-8 -10 2 -7 26 9 23 15 65 34 95 43 30 9 59 20 65 25 12 12 11 11 -55 -10z"/>
<path fill="#000000" stroke="none" d="M3310 3724 l-25 -15 25 7 c14 4 49 9
77 11 57 5 92 -10 160 -70 18 -16 33 -24 33 -18 0 6 -28 31 -62 56 -58 42 -66
45 -123 45 -36 -1 -70 -7 -85 -16z"/>
<path fill="#000000" stroke="none" d="M2155 3560 c-65 -39 -44 -39 26 0 30
16 47 29 39 29 -8 0 -37 -13 -65 -29z"/>
<path fill="#000000" stroke="none" d="M3746 3492 c-3 -5 9 -6 26 -4 19 3 44
-3 69 -17 47 -27 52 -19 7 9 -33 20 -93 27 -102 12z"/>
<path fill="#000000" stroke="none" d="M3267 3463 c-17 -17 -2 -186 26 -298 8
-33 18 -78 21 -100 9 -56 38 -176 42 -172 2 2 -1 26 -6 53 -6 27 -15 78 -21
114 -6 36 -18 90 -26 120 -22 81 -35 178 -31 238 2 28 3 52 2 52 0 0 -4 -3 -7
-7z"/>
<path fill="#000000" stroke="none" d="M3671 3441 c-8 -5 4 -7 31 -4 28 3 48
1 52 -6 4 -6 12 -11 18 -11 7 0 6 6 -2 15 -14 16 -76 20 -99 6z"/>
<path fill="#000000" stroke="none" d="M3834 3414 c14 -15 26 -30 26 -34 0 -4
21 -25 48 -46 46 -38 45 -37 -18 34 -35 39 -68 72 -73 72 -6 0 2 -12 17 -26z"/>
<path fill="#000000" stroke="none" d="M3412 3367 c-2 -40 2 -52 24 -72 18
-16 38 -25 58 -24 l31 1 -35 10 c-52 15 -69 34 -73 87 l-3 46 -2 -48z"/>
<path fill="#000000" stroke="none" d="M3326 3345 c9 -117 16 -141 76 -263 33
-68 62 -121 65 -119 2 3 -17 45 -42 94 -55 104 -83 183 -84 238 -1 22 -5 56
-11 75 -8 30 -8 26 -4 -25z"/>
<path fill="#000000" stroke="none" d="M3670 3392 c0 -4 7 -18 16 -30 20 -29
83 -31 91 -3 3 13 11 18 21 14 13 -3 13 -1 -2 11 -20 16 -126 23 -126 8z"/>
<path fill="#ffffff" stroke="none" d="M3765 3370 c0 -19 -55 -26 -66 -8 -15
24 -9 29 29 26 25 -2 37 -8 37 -18z"/>
<path fill="#000000" stroke="none" d="M2215 3345 c-16 -13 -25 -24 -19 -25 6
0 21 11 34 25 30 32 24 32 -15 0z"/>
<path fill="#000000" stroke="none" d="M3640 3332 c0 -6 10 -18 23 -26 29 -18
87 -28 87 -16 0 6 -3 9 -7 9 -32 -5 -65 4 -83 23 -11 12 -20 17 -20 10z"/>
<path fill="#000000" stroke="none" d="M2333 3260 c-13 -15 -26 -36 -29 -46
-4 -13 0 -10 12 6 10 14 24 31 31 38 11 11 18 33 11 31 -2 0 -13 -13 -25 -29z"/>
<path fill="#000000" stroke="none" d="M2428 3199 c-4 -7 -13 -31 -22 -51 -9
-22 -12 -38 -6 -38 5 0 10 8 10 18 0 10 7 28 16 40 8 12 14 28 12 34 -3 8 -6
7 -10 -3z"/>
<path fill="#000000" stroke="none" d="M3411 3192 c-1 -24 87 -187 96 -178 3
3 -4 17 -15 33 -24 35 -63 110 -73 143 -7 24 -7 24 -8 2z"/>
<path fill="#000000" stroke="none" d="M3480 3187 c0 -15 51 -109 57 -104 3 3
-9 30 -26 59 -17 29 -31 49 -31 45z"/>
<path fill="#000000" stroke="none" d="M3531 3167 c2 -1 14 -11 27 -21 12 -11
22 -16 22 -13 0 10 -31 37 -42 37 -6 0 -9 -1 -7 -3z"/>
<path fill="#000000" stroke="none" d="M2527 3125 c-3 -16 -9 -41 -12 -55 -4
-17 -1 -14 10 10 9 19 14 43 13 55 -3 15 -5 13 -11 -10z"/>
<path fill="#000000" stroke="none" d="M2603 3005 c-6 -19 -7 -35 -3 -35 9 0
25 59 18 66 -3 2 -9 -12 -15 -31z"/>
<path fill="#000000" stroke="none" d="M2700 2966 c0 -13 -6 -27 -12 -29 -8
-3 -6 -6 5 -6 12 -1 17 7 17 29 0 17 -2 30 -5 30 -3 0 -5 -11 -5 -24z"/>
<path fill="#000000" stroke="none" d="M4313 2822 c-6 -4 21 -7 62 -7 40 0 71
3 68 8 -6 9 -114 9 -130 -1z"/>
<path fill="#000000" stroke="none" d="M4432 2242 c-91 -18 -88 -27 4 -11 64
11 123 30 84 27 -8 0 -48 -8 -88 -16z"/>
<path fill="#000000" stroke="none" d="M4410 1640 c-8 -5 -12 -12 -9 -15 4 -3
12 1 19 10 14 17 11 19 -10 5z"/>
<path fill="#000000" stroke="none" d="M4385 1530 c-3 -6 1 -7 9 -4 18 7 21
14 7 14 -6 0 -13 -4 -16 -10z"/>
<path fill="#000000" stroke="none" d="M4148 1513 c6 -2 18 -2 25 0 6 3 1 5
-13 5 -14 0 -19 -2 -12 -5z"/>
<path fill="#000000" stroke="none" d="M4174 1485 c-10 -8 -14 -15 -8 -15 5 0
19 7 30 15 10 8 14 15 8 15 -5 0 -19 -7 -30 -15z"/>
<path fill="#000000" stroke="none" d="M4348 1493 c7 -3 16 -2 19 1 4 3 -2 6
-13 5 -11 0 -14 -3 -6 -6z"/>
<path fill="#000000" stroke="none" d="M4267 1483 c-4 -3 -6 -31 -6 -62 l2
-56 7 60 c7 65 7 69 -3 58z"/>
<path fill="#000000" stroke="none" d="M4199 1459 l-24 -20 28 17 c15 9 27 18
27 20 0 8 -8 4 -31 -17z"/>
<path fill="#000000" stroke="none" d="M4324 1465 c11 -8 27 -15 35 -15 10 1
7 6 -9 15 -33 19 -50 18 -26 0z"/>
<path fill="#000000" stroke="none" d="M4227 1453 c-4 -3 -7 -11 -7 -17 0 -6
5 -5 12 2 6 6 9 14 7 17 -3 3 -9 2 -12 -2z"/>
<path fill="#000000" stroke="none" d="M1415 4175 c-46 -19 -80 -24 -147 -24
-48 -1 -90 -5 -93 -11 -8 -12 33 -13 145 -1 81 9 160 35 160 53 0 4 -1 8 -2 7
-2 0 -30 -11 -63 -24z"/>
<path fill="#000000" stroke="none" d="M1979 3218 c-6 -13 -33 -48 -59 -78
-77 -89 -97 -126 -109 -192 -6 -35 -14 -73 -17 -85 -4 -13 -2 -23 3 -23 5 0
15 28 22 63 22 102 32 134 55 158 81 90 144 179 128 179 -6 0 -17 -10 -23 -22z"/>
<path fill="#000000" stroke="none" d="M717 3184 c-3 -4 -1 -11 4 -18 5 -6 21
-24 35 -41 32 -38 77 -127 94 -187 8 -26 17 -45 21 -42 15 9 -41 146 -86 214
-48 72 -58 83 -68 74z"/>
<path fill="#000000" stroke="none" d="M725 2433 c17 -8 39 -23 50 -32 19 -15
19 -15 6 2 -15 18 -63 47 -78 47 -4 -1 6 -8 22 -17z"/>
<path fill="#000000" stroke="none" d="M720 2374 c19 -9 47 -25 63 -36 15 -11
31 -18 33 -15 9 9 -68 54 -101 60 -29 6 -29 6 5 -9z"/>
<path fill="#000000" stroke="none" d="M1080 2299 c0 -8 15 -28 32 -45 26 -23
28 -24 12 -4 -12 14 -26 34 -32 45 -9 15 -11 16 -12 4z"/>
<path fill="#000000" stroke="none" d="M1982 2265 c0 -16 3 -39 8 -50 l9 -20
-1 20 c0 11 -4 34 -8 50 l-8 30 0 -30z"/>
<path fill="#000000" stroke="none" d="M1020 2096 c17 -15 81 -38 88 -31 3 2
-8 9 -24 15 -16 5 -37 15 -46 20 -25 14 -35 12 -18 -4z"/>
<path fill="#000000" stroke="none" d="M1074 1935 c11 -8 25 -15 30 -15 6 0 2
7 -8 15 -11 8 -25 15 -30 15 -6 0 -2 -7 8 -15z"/>
<path fill="#000000" stroke="none" d="M3385 1392 c-3 -3 14 -14 37 -24 53
-24 61 -16 9 9 -22 11 -43 18 -46 15z"/>
<path fill="#000000" stroke="none" d="M3440 1271 c14 -11 32 -21 40 -21 13 0
5 5 -52 35 -7 4 -2 -3 12 -14z"/>
<path fill="#000000" stroke="none" d="M3435 1227 c22 -15 55 -28 55 -22 0 4
-60 35 -69 35 -3 0 3 -6 14 -13z"/>
<path fill="#000000" stroke="none" d="M2059 1177 c5 -5 19 -7 32 -5 20 3 19
5 -9 9 -20 3 -29 2 -23 -4z"/>
<path fill="#000000" stroke="none" d="M2030 1150 c0 -4 9 -10 20 -13 11 -3
20 -2 20 3 0 4 -9 10 -20 13 -11 3 -20 2 -20 -3z"/>
<path fill="#000000" stroke="none" d="M742 1898 c-5 -7 -17 -29 -26 -48 -15
-31 -15 -33 -1 -15 19 23 48 75 41 75 -2 0 -8 -6 -14 -12z"/>
</g>
</svg>
