<?xml version="1.0" standalone="no"?>
<!DOCTYPE svg PUBLIC "-//W3C//DTD SVG 20010904//EN"
 "http://www.w3.org/TR/2001/REC-SVG-20010904/DTD/svg10.dtd">
<svg version="1.0" xmlns="http://www.w3.org/2000/svg"
 width="642.000000pt" height="496.000000pt" viewBox="0 0 642.000000 496.000000"
 preserveAspectRatio="xMidYMid meet">
<metadata>
Created by potrace 1.16, written by Peter Selinger 2001-2019
</metadata>
<g transform="translate(0.000000,496.000000) scale(0.100000,-0.100000)"
fill="#000000" stroke="none">
<path fill="#000000" stroke="none" d="M0 2480 l0 -2480 3210 0 3210 0 0 2480
0 2480 -3210 0 -3210 0 0 -2480z"/>
<path fill="#ffffff" stroke="none" d="M6410 2480 l0 -2470 -3200 0 -3200 0 0
2470 0 2470 3200 0 3200 0 0 -2470z"/>
<path fill="#000000" stroke="none" d="M5018 4774 c-59 -14 -152 -56 -163 -73
-3 -6 -33 -15 -65 -22 -71 -14 -144 -57 -168 -99 -14 -25 -23 -30 -54 -30 -45
0 -65 -19 -80 -75 -9 -34 -20 -48 -49 -65 -46 -25 -79 -69 -79 -104 0 -21 11
-33 47 -56 26 -17 53 -30 60 -30 23 0 14 -17 -17 -30 -36 -15 -103 -87 -94
-101 3 -6 17 -9 29 -7 l23 5 -24 -71 c-14 -39 -22 -76 -20 -83 3 -7 20 -13 38
-14 l33 0 -29 -22 c-129 -96 -150 -156 -61 -173 34 -6 34 -6 28 -54 -5 -43 -3
-49 22 -66 15 -10 51 -43 80 -71 28 -29 58 -53 66 -53 8 0 32 9 54 20 39 20
39 20 57 0 20 -22 58 -26 75 -9 8 8 19 6 41 -5 23 -12 37 -13 57 -6 15 6 28
10 30 10 2 0 -5 -26 -15 -57 -36 -114 -80 -289 -91 -363 l-12 -76 -45 48 c-24
26 -75 68 -113 94 -56 39 -79 48 -123 52 -81 7 -141 -17 -209 -84 -31 -31 -57
-51 -57 -44 0 6 -4 8 -10 5 -5 -3 -10 -15 -10 -27 0 -17 -2 -18 -15 -8 -12 10
-15 9 -15 -8 0 -17 -10 -21 -71 -30 -39 -6 -74 -13 -77 -16 -7 -8 21 -29 75
-57 23 -12 54 -34 69 -50 l26 -28 -31 -67 c-17 -37 -29 -69 -27 -72 3 -2 42 0
88 4 46 5 89 9 97 9 7 0 27 -25 43 -55 85 -155 143 -257 155 -272 13 -14 8
-21 -39 -58 -59 -47 -225 -152 -348 -220 -100 -56 -323 -185 -370 -214 -246
-156 -654 -363 -800 -409 -185 -57 -236 -68 -330 -74 l-95 -5 -58 52 c-31 28
-55 56 -52 61 8 12 -21 66 -41 77 -17 9 64 24 204 37 101 10 183 40 236 86 86
76 93 122 27 182 l-38 34 19 36 c10 20 39 51 65 68 27 18 73 56 103 85 56 53
84 65 189 83 3 1 -8 15 -24 31 -28 29 -28 30 -9 45 10 8 38 22 61 32 24 10 43
23 43 29 0 11 -96 62 -139 73 -18 5 -27 18 -36 53 -21 83 -110 189 -190 228
-60 29 -158 36 -235 16 -71 -18 -101 -38 -175 -115 -59 -62 -89 -79 -130 -76
-88 9 -274 -18 -462 -66 -108 -28 -213 -57 -235 -66 -21 -8 -41 -13 -44 -11
-14 14 -87 229 -109 319 -14 57 -31 116 -37 132 -19 49 -53 29 -64 -39 -3 -21
-7 -40 -8 -41 -1 -2 -13 32 -26 75 -39 127 -102 295 -122 325 -24 34 -41 34
-67 1 -27 -34 -27 -96 -2 -194 11 -41 19 -76 17 -77 -2 -2 -20 25 -41 59 -21
34 -54 79 -73 100 -29 32 -41 38 -75 38 -79 0 -137 -75 -123 -161 18 -113 85
-227 214 -362 48 -50 76 -84 62 -74 -83 56 -204 125 -304 173 -94 45 -122 55
-158 52 -39 -3 -43 -6 -46 -32 -3 -24 7 -39 65 -95 117 -114 229 -178 617
-355 l50 -23 -66 0 c-179 -1 -182 -96 -4 -148 50 -15 54 -18 41 -31 -20 -20
-19 -58 1 -79 9 -9 43 -29 75 -46 33 -16 59 -33 59 -38 0 -21 87 -114 151
-161 38 -29 104 -87 147 -129 42 -42 104 -94 137 -116 126 -83 158 -115 116
-115 -10 0 -21 -9 -24 -20 -4 -14 -14 -20 -35 -20 -17 0 -58 -7 -91 -16 -34
-8 -69 -17 -78 -19 -10 -2 -31 -6 -46 -10 -23 -6 -34 -2 -60 23 -18 17 -44 34
-60 37 -16 4 -27 14 -27 24 0 24 -36 78 -62 92 -13 7 -49 14 -82 15 -46 2 -61
7 -73 23 -19 28 -65 51 -100 51 -27 0 -28 2 -29 47 -1 64 -26 83 -109 83 -45
0 -73 -6 -106 -23 l-43 -23 -24 28 c-20 24 -31 28 -75 28 -62 0 -105 -23 -136
-73 l-21 -35 -48 15 c-147 45 -392 -60 -380 -164 3 -23 0 -33 -9 -33 -22 0
-86 -36 -110 -62 -99 -106 -47 -288 84 -288 l45 0 -21 -34 c-25 -39 -26 -67
-6 -105 14 -29 39 -41 85 -41 19 0 28 -8 37 -30 12 -33 46 -50 98 -50 34 0 34
-1 24 -27 -12 -31 -4 -135 13 -166 20 -38 83 -99 122 -119 60 -31 139 -34 213
-9 34 12 64 21 67 21 2 0 7 -13 11 -29 3 -16 21 -46 39 -67 28 -33 38 -38 88
-42 35 -3 58 0 62 7 8 12 46 15 46 4 0 -17 69 -53 120 -63 97 -18 206 12 263
73 l28 30 27 -25 c85 -80 199 -78 288 3 17 16 26 18 48 9 45 -17 137 -12 172
9 42 26 67 81 62 142 -2 39 0 49 12 49 9 0 31 13 49 28 26 22 36 38 40 73 5
38 10 44 31 47 55 6 73 14 101 45 59 64 47 167 -28 242 -58 59 -124 79 -238
73 -72 -4 -84 -2 -94 14 -6 10 -11 20 -11 23 0 9 30 5 49 -7 15 -9 25 -7 53
10 42 26 154 35 167 14 6 -10 13 -11 34 -1 15 7 27 16 27 20 0 4 25 13 56 19
49 10 58 10 74 -5 25 -22 63 -13 77 18 12 26 63 43 75 24 5 -8 19 -7 50 3 47
14 402 157 563 225 55 24 111 46 125 50 14 4 54 22 90 40 36 17 131 60 211 94
81 34 202 94 269 132 206 117 287 159 349 184 59 23 60 23 77 4 20 -22 62 -25
70 -5 3 8 0 24 -6 36 -15 28 -6 61 19 77 20 13 21 11 15 -45 -5 -49 -3 -60 14
-75 27 -25 66 -19 70 10 3 19 8 21 35 17 87 -14 158 -37 168 -56 8 -14 19 -19
43 -17 21 2 39 -3 50 -14 10 -9 28 -17 41 -17 21 0 61 -19 198 -93 26 -15 61
-40 77 -57 27 -28 35 -30 98 -30 112 0 220 27 229 57 3 7 -18 16 -54 23 -107
22 -413 172 -413 202 0 9 -5 28 -11 42 -11 22 -8 32 25 79 38 55 117 146 279
320 130 139 201 237 258 354 27 56 49 106 50 110 0 4 46 47 102 96 168 145
335 310 342 340 8 32 -8 57 -37 57 -15 0 -3 18 51 78 63 70 101 131 101 162 0
6 -11 15 -24 22 -21 9 -35 5 -98 -27 -40 -21 -91 -51 -113 -67 l-40 -29 -3 26
c-2 14 -7 25 -12 23 -4 -2 -72 -64 -151 -139 -173 -162 -194 -182 -328 -293
-131 -108 -168 -126 -252 -126 -35 0 -104 -5 -153 -10 -49 -6 -90 -9 -91 -8
-2 2 32 40 75 86 91 96 107 126 152 280 33 113 33 114 71 127 46 16 71 37 87
74 9 22 16 27 38 23 20 -2 35 4 53 21 13 14 42 28 64 32 44 8 79 35 101 78 12
21 22 27 48 27 40 0 92 45 103 88 3 15 15 41 25 57 27 44 24 106 -6 135 -19
17 -24 29 -20 50 5 21 -1 35 -25 63 -17 19 -42 38 -55 41 -22 5 -24 10 -19 39
4 28 0 40 -27 71 -29 33 -32 40 -21 62 6 14 11 43 11 66 0 35 -6 47 -42 82
-25 25 -60 47 -83 53 -150 41 -195 44 -237 13 -26 -19 -26 -19 -41 3 -8 14
-12 37 -9 61 4 32 0 42 -17 55 -17 13 -20 22 -13 40 15 41 2 70 -39 91 -44 23
-36 23 -111 4z"/>
<path fill="#ffffff" stroke="none" d="M5125 4737 c15 -11 17 -22 12 -55 -6
-35 -4 -42 12 -47 34 -10 45 -32 33 -60 -10 -21 -8 -33 10 -70 l22 -45 22 23
c26 28 91 42 129 27 14 -5 43 -10 63 -10 42 0 109 -28 134 -56 34 -39 40 -72
18 -114 -11 -21 -25 -41 -32 -44 -10 -4 -8 -9 6 -18 79 -54 96 -91 56 -125
-29 -25 -25 -33 16 -33 77 0 134 -66 73 -85 -28 -9 -19 -27 22 -40 44 -15 63
-71 36 -113 -9 -15 -24 -44 -33 -65 -18 -42 -61 -77 -94 -77 -17 0 -20 4 -15
20 5 14 2 20 -9 20 -11 0 -16 -10 -16 -34 0 -32 -25 -76 -60 -103 -21 -17 -49
-16 -67 3 -15 15 -18 13 -33 -17 -15 -32 -19 -34 -63 -32 -42 1 -47 -1 -47
-21 0 -33 -44 -70 -88 -72 -48 -3 -90 13 -97 37 -7 22 -25 26 -25 5 0 -15 -21
-26 -51 -26 -23 0 -52 42 -43 64 9 24 -14 20 -48 -9 -31 -26 -49 -29 -83 -15
-14 5 -26 2 -41 -12 -30 -26 -73 -28 -88 -3 -6 11 -12 22 -13 24 -2 2 -12 -4
-22 -13 -26 -23 -63 -17 -78 14 -7 14 -13 20 -13 13 0 -18 -64 -53 -98 -53
-36 0 -62 34 -62 80 0 27 -3 30 -24 24 -28 -7 -56 18 -56 50 0 13 11 40 25 60
41 61 35 67 -32 35 -64 -31 -95 -11 -55 36 28 35 153 115 177 115 14 0 25 7
28 20 5 18 0 20 -48 20 -30 0 -66 -5 -80 -10 -24 -9 -26 -8 -19 12 10 35 34
80 60 115 28 37 31 58 8 49 -9 -3 -28 -9 -42 -12 -24 -6 -23 -4 13 26 22 18
55 39 73 48 17 9 32 19 32 22 0 3 -24 16 -54 29 -29 12 -64 33 -76 46 -20 21
-22 28 -12 49 11 26 65 58 115 70 23 5 26 9 17 26 -27 51 5 106 57 98 15 -3
36 -9 46 -13 14 -6 17 -2 17 18 0 59 97 127 183 129 25 1 50 9 62 19 22 20 58
35 125 54 60 17 92 18 115 2z"/>
<path fill="#ffffff" stroke="none" d="M6200 3569 c0 -6 -5 -20 -11 -32 -13
-24 -580 -597 -591 -597 -4 0 -5 7 -2 15 8 20 -13 45 -37 45 -21 0 62 100 275
331 125 136 275 248 334 249 17 0 32 -5 32 -11z"/>
<path fill="#ffffff" stroke="none" d="M5004 3485 c29 -29 62 -32 88 -8 10 9
21 14 24 10 12 -11 -50 -239 -76 -282 -29 -47 -194 -205 -214 -205 -24 0 13
214 58 333 21 56 85 177 93 177 1 0 13 -11 27 -25z"/>
<path fill="#ffffff" stroke="none" d="M4940 3495 c0 -2 -9 -20 -19 -39 -61
-108 -105 -252 -117 -384 -8 -85 2 -107 43 -91 37 14 61 35 150 131 l79 86 29
121 c16 66 32 125 35 131 4 6 15 6 31 -2 l26 -12 -38 -128 c-43 -145 -64 -180
-178 -292 -69 -68 -71 -70 -137 -78 -51 -6 -70 -5 -77 5 -13 20 1 144 33 272
46 184 75 268 96 276 22 9 44 11 44 4z"/>
<path fill="#ffffff" stroke="none" d="M5910 3464 c0 -3 -55 -65 -123 -137
-67 -73 -160 -176 -206 -229 -74 -85 -91 -99 -141 -117 -58 -21 -98 -51 -68
-51 8 0 18 4 24 9 13 14 132 40 155 34 44 -12 14 -63 -83 -144 l-60 -49 -30
25 c-16 14 -34 23 -39 19 -5 -3 1 -14 13 -24 19 -15 21 -21 10 -44 -6 -14 -34
-40 -61 -58 -65 -42 -69 -62 -8 -39 29 11 44 3 44 -24 1 -49 -104 -113 -200
-122 -135 -12 -353 42 -376 95 -14 29 -14 68 -1 93 13 23 3 25 -22 2 -17 -15
-18 -15 -18 8 0 51 60 138 115 167 18 9 25 17 17 20 -24 8 -91 -47 -121 -99
-44 -78 -46 -107 -14 -175 27 -57 30 -59 107 -91 70 -30 94 -34 200 -40 96 -5
133 -2 177 10 65 19 157 82 165 114 4 13 21 28 47 38 23 9 68 44 104 81 69 70
87 79 77 37 -21 -86 -143 -264 -234 -343 -77 -67 -97 -88 -159 -170 -31 -41
-81 -102 -111 -135 -100 -109 -94 -98 -71 -136 26 -42 26 -53 2 -39 -50 26
-91 3 -91 -53 0 -30 -10 -40 -26 -26 -17 14 -1 67 26 86 41 29 7 52 -40 28
-33 -17 -50 -43 -50 -74 0 -24 -25 -28 -34 -5 -12 32 29 81 74 89 3 0 14 6 25
12 11 6 35 14 53 18 17 3 32 10 32 13 0 4 17 25 37 47 20 22 55 67 78 100 22
33 52 75 65 92 31 43 21 51 -18 15 -35 -33 -158 -73 -242 -80 -124 -9 -261 43
-360 136 -48 46 -121 168 -180 302 -13 30 -34 67 -47 81 l-24 26 -52 -18 c-29
-10 -65 -18 -80 -19 -25 0 -27 3 -21 22 3 12 21 42 40 68 l33 46 -91 54 c-50
30 -87 55 -82 57 5 1 37 7 72 11 l63 9 29 -34 c16 -18 32 -43 34 -56 3 -12 7
-31 9 -42 3 -11 5 -2 6 21 1 33 -6 51 -34 87 l-35 45 59 60 c71 72 128 97 200
89 98 -12 204 -86 283 -198 31 -44 45 -57 61 -54 73 12 182 25 247 29 266 19
249 15 320 66 32 22 64 48 205 164 28 22 84 73 125 112 41 39 104 98 140 132
60 57 80 71 80 56z"/>
<path fill="#ffffff" stroke="none" d="M6073 3289 c-3 -11 -42 -59 -87 -106
-182 -193 -445 -410 -480 -397 -9 3 -16 10 -16 14 0 5 44 48 97 97 54 48 168
156 253 239 161 158 181 173 217 174 17 0 20 -4 16 -21z"/>
<path fill="#ffffff" stroke="none" d="M1194 3124 c8 -3 26 -36 40 -72 39
-104 133 -381 151 -447 10 -33 28 -85 40 -115 13 -30 30 -79 40 -107 9 -29 21
-53 26 -53 12 0 12 0 -48 185 -25 77 -47 163 -50 192 -7 61 4 126 19 121 6 -2
30 -76 54 -163 46 -171 81 -278 101 -310 11 -17 14 -18 22 -6 5 8 15 16 23 17
7 1 69 18 137 38 117 34 257 56 432 71 42 3 111 12 153 19 75 13 78 15 149 83
107 103 148 124 244 124 99 1 150 -21 220 -92 51 -53 92 -125 93 -162 0 -10
-11 -38 -25 -61 -28 -48 -45 -136 -26 -136 6 0 11 16 11 35 0 28 9 45 38 76
l37 40 47 -16 c69 -24 77 -39 30 -58 -21 -9 -55 -19 -75 -22 -48 -9 -47 -26 5
-55 47 -26 42 -31 -42 -45 -35 -5 -56 -18 -95 -55 -27 -26 -72 -63 -98 -83
-33 -24 -64 -62 -98 -119 -83 -139 -236 -257 -399 -308 -139 -44 -193 -53
-316 -54 l-111 -1 8 30 c12 39 11 65 0 65 -5 0 -13 -24 -16 -54 -7 -54 -7 -55
39 -112 34 -41 44 -59 35 -65 -21 -13 -82 19 -123 64 -21 23 -44 41 -51 39
-17 -3 -86 74 -80 90 3 8 -25 32 -68 60 -73 47 -187 143 -187 157 0 5 11 6 24
4 14 -3 23 -10 20 -17 -6 -16 135 -83 203 -95 29 -6 96 -10 150 -10 280 1 485
119 547 316 27 84 0 196 -62 261 -28 29 -35 44 -33 69 2 31 -25 93 -41 93 -14
0 -9 -27 7 -40 14 -12 22 -60 9 -60 -3 0 -20 11 -37 24 -55 40 -125 56 -184
40 -44 -12 -22 -21 49 -22 l72 0 44 -46 c24 -25 49 -46 56 -46 19 0 63 -50 80
-92 20 -47 21 -138 2 -183 -20 -46 -84 -132 -133 -176 -91 -83 -196 -112 -403
-113 -140 -1 -186 9 -264 55 -28 17 -26 17 72 12 55 -3 112 -3 126 1 51 13 15
25 -72 25 -149 -1 -315 44 -372 101 l-22 22 23 24 c20 21 31 24 101 24 45 0
78 4 78 10 0 6 -28 10 -64 10 -76 0 -183 23 -238 51 -30 15 -38 25 -36 41 9
59 148 44 388 -41 63 -22 125 -41 138 -41 18 0 22 -6 22 -32 0 -18 5 -40 10
-48 7 -11 10 -4 10 27 0 56 11 81 60 138 25 29 38 51 31 53 -17 6 -49 -26 -79
-78 -14 -25 -27 -47 -28 -48 -5 -7 -120 31 -169 56 -27 14 -77 33 -110 42
l-60 17 39 13 c61 20 137 8 218 -33 69 -36 104 -41 63 -10 -39 30 -121 63
-197 80 -43 10 -78 21 -78 25 0 4 98 4 218 1 197 -5 219 -4 225 10 6 15 -9 17
-151 20 -274 4 -305 2 -341 -16 -40 -20 -45 -21 -35 -5 4 7 3 8 -4 4 -6 -4
-22 -2 -34 5 -26 13 -17 3 26 -29 16 -12 26 -22 23 -22 -12 0 -188 79 -240
107 -296 164 -354 201 -434 276 -63 59 -67 77 -18 77 86 0 484 -226 617 -351
43 -41 46 -43 45 -19 -1 16 -14 33 -37 48 -63 42 -250 235 -307 316 -110 156
-144 265 -103 330 27 44 57 53 104 31 91 -43 147 -140 364 -632 33 -75 52
-101 52 -73 0 17 -87 223 -136 322 -25 51 -57 131 -69 178 -28 100 -49 243
-40 270 7 22 7 22 29 14z"/>
<path fill="#ffffff" stroke="none" d="M5438 2759 c53 28 73 -10 25 -46 -85
-62 -141 -64 -89 -3 14 17 26 39 26 48 0 13 2 14 9 3 6 -10 13 -11 29 -2z"/>
<path fill="#ffffff" stroke="none" d="M4525 2228 c-83 -110 -103 -127 -139
-122 -24 4 -39 -1 -68 -26 -35 -29 -51 -70 -28 -70 5 0 7 6 4 14 -7 17 54 69
73 62 8 -4 23 -6 34 -6 18 0 19 -2 4 -30 -8 -16 -15 -40 -15 -53 0 -15 -7 -27
-17 -30 -40 -12 -221 -99 -263 -126 -25 -16 -58 -35 -75 -42 -27 -12 -179 -93
-290 -154 -22 -12 -58 -28 -80 -35 -22 -7 -140 -57 -263 -112 -123 -54 -264
-115 -315 -134 -114 -44 -349 -125 -352 -122 -1 2 -8 19 -15 38 -7 19 -22 48
-33 63 -10 16 -17 30 -15 32 2 2 46 16 98 31 205 58 338 119 760 349 69 37
154 85 189 106 34 22 64 39 66 39 2 0 42 23 90 50 48 28 88 50 91 50 10 0 390
240 494 313 l54 38 29 -30 30 -29 -48 -64z"/>
<path fill="#ffffff" stroke="none" d="M4635 2250 c22 -11 46 -20 53 -20 23 0
-4 -28 -64 -66 -47 -30 -151 -58 -143 -38 7 17 104 144 109 144 3 0 23 -9 45
-20z"/>
<path fill="#ffffff" stroke="none" d="M1430 2235 c0 -2 -9 -9 -20 -15 -16 -9
-20 -8 -20 5 0 8 9 15 20 15 11 0 20 -2 20 -5z"/>
<path fill="#ffffff" stroke="none" d="M5035 2132 l-67 -90 -54 -7 c-85 -10
-291 43 -263 69 2 2 41 22 85 45 70 35 91 41 145 41 65 1 194 21 206 33 3 4 8
5 10 3 3 -2 -25 -45 -62 -94z"/>
<path fill="#ffffff" stroke="none" d="M4763 2204 c5 -6 -97 -74 -110 -74 -3
0 -18 -9 -33 -20 -27 -19 -128 -45 -138 -35 -7 6 41 23 75 27 15 2 31 7 35 12
9 13 141 94 154 95 6 1 14 -2 17 -5z"/>
<path fill="#ffffff" stroke="none" d="M4456 2048 c-19 -26 -20 -61 -5 -90 9
-17 8 -19 -8 -16 -28 5 -30 67 -3 101 26 32 38 36 16 5z"/>
<path fill="#ffffff" stroke="none" d="M4565 2028 c-4 -11 -7 -38 -7 -60 1
-40 -6 -46 -26 -26 -24 24 -6 108 23 108 12 0 15 -6 10 -22z"/>
<path fill="#ffffff" stroke="none" d="M4775 2029 c70 -17 70 -17 51 -37 -9
-9 -22 -25 -29 -34 -11 -15 -18 -15 -77 -2 -36 7 -80 14 -97 14 -31 0 -33 2
-33 33 0 19 3 37 8 41 8 9 118 -1 177 -15z"/>
<path fill="#ffffff" stroke="none" d="M5051 1905 c35 -19 93 -49 129 -65 156
-73 204 -99 190 -103 -8 -3 -41 -10 -72 -17 -54 -11 -59 -10 -116 18 -32 16
-88 48 -123 71 -35 23 -74 44 -86 47 -23 6 -30 34 -17 68 9 23 24 20 95 -19z"/>
<path fill="#ffffff" stroke="none" d="M2800 1893 c60 -35 55 -90 -13 -150
-64 -56 -146 -83 -297 -98 l-65 -6 60 30 c85 43 182 120 235 185 25 30 47 55
48 56 2 0 17 -7 32 -17z"/>
<path fill="#ffffff" stroke="none" d="M5450 1699 c-14 -6 -59 -13 -100 -15
-71 -4 -74 -3 -45 10 18 9 59 15 100 15 57 0 65 -2 45 -10z"/>
<path fill="#ffffff" stroke="none" d="M942 1623 c8 -10 18 -30 22 -45 8 -34
16 -35 54 -3 36 30 92 55 125 55 29 0 65 -32 73 -65 4 -17 -1 -33 -16 -52 -23
-29 -14 -41 19 -24 43 24 82 13 127 -33 40 -42 45 -44 76 -35 54 15 68 11 109
-30 45 -44 44 -63 -5 -88 -17 -9 -34 -21 -38 -27 -5 -7 -15 -3 -30 11 -13 12
-41 30 -63 39 -51 22 -228 31 -278 15 -47 -16 -117 -67 -117 -86 0 -10 12 -6
43 15 51 36 167 63 247 58 59 -4 131 -34 169 -70 23 -21 24 -21 40 -1 26 32
76 48 110 33 30 -12 71 -51 89 -84 7 -15 21 -20 57 -21 51 -1 85 -28 85 -66 0
-23 7 -23 52 -5 19 8 41 14 49 12 31 -5 59 -18 59 -27 0 -5 7 -9 15 -9 9 0 23
-12 32 -28 15 -26 18 -27 88 -24 41 2 105 -1 144 -8 58 -10 75 -17 96 -42 32
-38 39 -67 32 -134 -10 -97 -54 -131 -147 -112 -47 9 -51 1 -12 -30 18 -15 32
-36 32 -48 0 -38 -64 -78 -122 -76 -44 2 -49 -10 -13 -26 26 -12 28 -18 25
-67 -6 -103 -143 -164 -221 -98 -18 15 -34 23 -36 18 -28 -80 -102 -119 -196
-101 -35 7 -97 59 -97 82 0 6 -6 17 -13 23 -11 8 -21 1 -45 -33 -51 -71 -158
-108 -266 -92 -45 7 -97 45 -121 90 -10 18 -12 18 -50 -3 -53 -28 -90 -27
-120 4 -21 20 -25 34 -25 79 0 30 -5 58 -10 61 -6 4 -23 -5 -39 -18 -21 -18
-52 -28 -110 -37 l-81 -13 -65 32 c-35 17 -75 45 -89 62 -58 68 -55 198 4 222
8 3 -22 6 -66 6 -92 1 -108 11 -106 65 l1 33 -57 -1 -57 -1 -3 32 c-3 33 19
78 50 101 31 23 20 31 -40 29 -76 -2 -114 15 -141 63 -19 35 -20 43 -10 87 15
61 25 81 58 117 31 33 60 47 119 55 45 6 58 24 22 29 -16 3 -19 8 -14 25 32
104 110 143 273 135 69 -3 95 -8 111 -23 20 -18 20 -18 20 5 0 13 18 40 44 66
38 39 49 44 88 44 30 0 50 -6 60 -17z"/>
<path fill="#ffffff" stroke="none" d="M2343 1566 c25 -23 34 -36 25 -39 -8
-4 12 -30 57 -74 68 -66 72 -68 123 -70 76 -2 108 -18 131 -67 24 -49 30 -87
15 -93 -6 -2 -17 9 -23 24 -19 46 -78 103 -106 103 -30 0 -31 -13 -5 -68 23
-47 25 -73 8 -90 -21 -21 -28 -13 -28 27 0 30 -8 47 -39 82 -34 39 -42 43 -80
42 -49 -2 -46 13 4 23 19 3 35 9 35 12 0 15 -116 122 -131 122 -10 0 -19 3
-21 8 -1 4 -20 20 -41 36 -39 28 -39 40 -2 49 35 8 39 7 78 -27z"/>
<path fill="#ffffff" stroke="none" d="M2222 1528 c24 -19 57 -38 74 -42 17
-4 53 -26 80 -50 l48 -43 -31 -17 c-18 -9 -36 -22 -40 -30 -9 -16 -72 -24 -92
-11 -8 4 -34 7 -59 6 -37 -1 -55 5 -100 36 -32 22 -68 59 -87 89 -19 29 -38
55 -44 58 -6 4 -15 15 -20 24 -8 16 1 17 109 16 l119 -1 43 -35z"/>
<path fill="#ffffff" stroke="none" d="M2084 1365 c44 -33 69 -45 94 -45 72 0
185 -82 185 -135 0 -14 -3 -29 -7 -32 -8 -8 -36 17 -36 33 0 16 -88 104 -104
104 -24 0 -34 -17 -38 -72 -3 -32 -13 -68 -24 -85 l-19 -28 -5 75 c-6 85 -10
94 -54 122 -22 14 -25 18 -8 13 37 -11 26 17 -24 58 -66 52 -31 46 40 -8z"/>
<path fill="#ffffff" stroke="none" d="M2461 1310 c23 -13 62 -87 56 -105 -3
-6 -23 -15 -45 -19 -22 -3 -47 -9 -55 -12 -10 -3 -18 3 -22 18 -4 13 -25 44
-47 70 l-39 47 28 3 c65 8 106 7 124 -2z"/>
<path fill="#ffffff" stroke="none" d="M2630 1278 c23 -31 27 -44 18 -50 -27
-17 -45 -8 -51 25 -3 17 -8 40 -12 50 -13 32 15 17 45 -25z"/>
<path fill="#ffffff" stroke="none" d="M2094 1261 c13 -14 16 -32 14 -71 -3
-48 -6 -53 -27 -57 -14 -2 -27 -5 -29 -7 -2 -2 -24 5 -50 16 -36 16 -58 19
-103 14 -46 -4 -58 -2 -63 10 -8 21 -74 47 -102 40 -17 -5 -24 -2 -24 7 0 21
176 56 326 65 29 2 45 -2 58 -17z"/>
<path fill="#ffffff" stroke="none" d="M2274 1208 c14 -18 22 -36 18 -39 -4
-4 -28 -9 -54 -13 -43 -5 -48 -4 -48 14 0 25 17 26 23 3 3 -10 3 6 0 36 -6 51
-5 53 15 42 11 -6 32 -25 46 -43z"/>
<path fill="#000000" stroke="none" d="M4320 2991 c0 -5 5 -11 11 -13 7 -2 14
-21 16 -42 2 -21 11 -45 19 -53 13 -14 13 -17 -3 -30 -16 -13 -15 -14 12 -8
17 3 35 6 42 7 36 4 13 65 -44 116 -37 32 -53 40 -53 23z"/>
<path fill="#ffffff" stroke="none" d="M4412 2878 c-8 -8 -12 -9 -12 -1 0 6
-3 20 -6 30 -7 17 -6 17 12 1 14 -14 16 -20 6 -30z"/>
<path fill="#000000" stroke="none" d="M2840 2429 c-51 -35 -56 -36 -72 -22
-12 11 -18 12 -18 4 0 -7 -4 -9 -10 -6 -23 14 -8 -15 20 -38 26 -22 123 -47
135 -35 2 2 9 24 16 49 10 38 10 49 -2 65 -14 19 -16 19 -69 -17z"/>
<path fill="#ffffff" stroke="none" d="M2878 2382 c4 -36 -7 -40 -55 -21 l-28
11 30 24 c37 30 49 26 53 -14z"/>
<path fill="#000000" stroke="none" d="M2001 2263 c-79 -79 -59 -67 38 24 31
29 52 53 47 53 -5 0 -43 -35 -85 -77z"/>
<path fill="#000000" stroke="none" d="M4356 2054 c-9 -8 -16 -23 -16 -32 0
-15 2 -15 10 -2 33 48 35 64 6 34z"/>
<path fill="#000000" stroke="none" d="M973 1071 c-70 -25 -128 -75 -158 -135
-57 -112 -9 -196 111 -196 36 0 44 -3 37 -12 -49 -62 11 -188 89 -188 15 0 32
-11 46 -30 45 -60 107 -73 190 -39 32 13 30 14 -51 14 -91 0 -123 14 -129 58
-2 16 -12 22 -38 25 -67 7 -107 54 -94 110 4 15 20 44 37 66 l30 39 -49 -8
c-60 -10 -131 -7 -155 6 -41 21 -32 111 17 176 35 46 104 91 164 106 28 7 47
16 44 20 -11 11 -35 8 -91 -12z"/>
</g>
</svg>
