<?xml version="1.0" standalone="no"?>
<!DOCTYPE svg PUBLIC "-//W3C//DTD SVG 20010904//EN"
 "http://www.w3.org/TR/2001/REC-SVG-20010904/DTD/svg10.dtd">
<svg version="1.0" xmlns="http://www.w3.org/2000/svg"
 width="642.000000pt" height="496.000000pt" viewBox="0 0 642.000000 496.000000"
 preserveAspectRatio="xMidYMid meet">
<metadata>
Created by potrace 1.16, written by Peter Selinger 2001-2019
</metadata>
<g transform="translate(0.000000,496.000000) scale(0.100000,-0.100000)"
fill="#000000" stroke="none">
<path fill="#000000" stroke="none" d="M0 2480 l0 -2480 3210 0 3210 0 0 2480
0 2480 -3210 0 -3210 0 0 -2480z"/>
<path fill="#ffffff" stroke="none" d="M6410 2480 l0 -2470 -3200 0 -3200 0 0
2470 0 2470 3200 0 3200 0 0 -2470z"/>
<path fill="#000000" stroke="none" d="M5018 4774 c-59 -14 -152 -56 -163 -73
-3 -6 -33 -15 -65 -22 -71 -14 -144 -57 -168 -99 -14 -25 -23 -30 -54 -30 -45
0 -65 -19 -80 -75 -9 -34 -20 -48 -49 -65 -46 -25 -79 -69 -79 -104 0 -21 11
-33 47 -56 26 -17 53 -30 60 -30 23 0 14 -17 -17 -30 -36 -15 -103 -87 -94
-101 3 -6 17 -9 29 -7 l23 5 -24 -71 c-14 -39 -22 -76 -20 -83 3 -7 20 -13 38
-14 l33 0 -29 -22 c-129 -96 -150 -156 -61 -173 34 -6 34 -6 28 -54 -5 -43 -3
-49 22 -66 15 -10 51 -43 80 -71 28 -29 58 -53 66 -53 8 0 32 9 54 20 39 20
39 20 57 0 20 -22 58 -26 75 -9 8 8 19 6 41 -5 23 -12 37 -13 57 -6 15 6 28
10 30 10 2 0 -5 -26 -15 -57 -36 -114 -80 -289 -91 -363 l-12 -76 -45 48 c-24
26 -75 68 -113 94 -56 39 -79 48 -123 52 -81 7 -141 -17 -209 -84 -31 -31 -57
-51 -57 -44 0 6 -4 8 -10 5 -5 -3 -10 -15 -10 -27 0 -17 -2 -18 -15 -8 -12 10
-15 9 -15 -8 0 -17 -10 -21 -71 -30 -39 -6 -74 -13 -77 -16 -7 -8 21 -29 75
-57 23 -12 54 -34 69 -50 l26 -28 -31 -67 c-17 -37 -29 -69 -27 -72 3 -2 42 0
88 4 46 5 89 9 97 9 7 0 27 -25 43 -55 85 -155 143 -257 155 -272 13 -14 8
-21 -39 -58 -59 -47 -225 -152 -348 -220 -100 -56 -323 -185 -370 -214 -246
-156 -654 -363 -800 -409 -185 -57 -236 -68 -330 -74 l-95 -5 -58 52 c-31 28
-55 56 -52 61 8 12 -21 66 -41 77 -17 9 64 24 204 37 101 10 183 40 236 86 86
76 93 122 27 182 l-38 34 19 36 c10 20 39 51 65 68 27 18 73 56 103 85 56 53
84 65 189 83 3 1 -8 15 -24 31 -28 29 -28 30 -9 45 10 8 38 22 61 32 24 10 43
23 43 29 0 11 -96 62 -139 73 -18 5 -27 18 -36 53 -21 83 -110 189 -190 228
-60 29 -158 36 -235 16 -71 -18 -101 -38 -175 -115 -59 -62 -89 -79 -130 -76
-88 9 -274 -18 -462 -66 -108 -28 -213 -57 -235 -66 -21 -8 -41 -13 -44 -11
-14 14 -87 229 -109 319 -14 57 -31 116 -37 132 -19 49 -53 29 -64 -39 -3 -21
-7 -40 -8 -41 -1 -2 -13 32 -26 75 -39 127 -102 295 -122 325 -24 34 -41 34
-67 1 -27 -34 -27 -96 -2 -194 11 -41 19 -76 17 -77 -2 -2 -20 25 -41 59 -21
34 -54 79 -73 100 -29 32 -41 38 -75 38 -79 0 -137 -75 -123 -161 18 -113 85
-227 214 -362 48 -50 76 -84 62 -74 -83 56 -204 125 -304 173 -94 45 -122 55
-158 52 -39 -3 -43 -6 -46 -32 -3 -24 7 -39 65 -95 117 -114 229 -178 617
-355 l50 -23 -66 0 c-179 -1 -182 -96 -4 -148 50 -15 54 -18 41 -31 -20 -20
-19 -58 1 -79 9 -9 43 -29 75 -46 33 -16 59 -33 59 -38 0 -21 87 -114 151
-161 38 -29 104 -87 147 -129 42 -42 104 -94 137 -116 126 -83 158 -115 116
-115 -10 0 -21 -9 -24 -20 -4 -14 -14 -20 -35 -20 -17 0 -58 -7 -91 -16 -34
-8 -69 -17 -78 -19 -10 -2 -31 -6 -46 -10 -23 -6 -34 -2 -60 23 -18 17 -44 34
-60 37 -16 4 -27 14 -27 24 0 24 -36 78 -62 92 -13 7 -49 14 -82 15 -46 2 -61
7 -73 23 -19 28 -65 51 -100 51 -27 0 -28 2 -29 47 -1 64 -26 83 -109 83 -45
0 -73 -6 -106 -23 l-43 -23 -24 28 c-20 24 -31 28 -75 28 -62 0 -105 -23 -136
-73 l-21 -35 -48 15 c-147 45 -392 -60 -380 -164 3 -23 0 -33 -9 -33 -22 0
-86 -36 -110 -62 -99 -106 -47 -288 84 -288 l45 0 -21 -34 c-25 -39 -26 -67
-6 -105 14 -29 39 -41 85 -41 19 0 28 -8 37 -30 12 -33 46 -50 98 -50 34 0 34
-1 24 -27 -12 -31 -4 -135 13 -166 20 -38 83 -99 122 -119 60 -31 139 -34 213
-9 34 12 64 21 67 21 2 0 7 -13 11 -29 3 -16 21 -46 39 -67 28 -33 38 -38 88
-42 35 -3 58 0 62 7 8 12 46 15 46 4 0 -17 69 -53 120 -63 97 -18 206 12 263
73 l28 30 27 -25 c85 -80 199 -78 288 3 17 16 26 18 48 9 45 -17 137 -12 172
9 42 26 67 81 62 142 -2 39 0 49 12 49 9 0 31 13 49 28 26 22 36 38 40 73 5
38 10 44 31 47 55 6 73 14 101 45 36 39 45 82 29 147 -16 66 -81 134 -148 153
l-47 14 120 8 c156 9 226 24 424 91 293 98 677 282 801 382 24 20 87 55 140
77 100 43 119 53 341 178 l136 76 159 -9 c127 -7 183 -15 274 -40 153 -41 315
-91 425 -131 135 -48 321 -51 412 -7 45 22 38 36 -24 48 -107 22 -413 172
-413 202 0 9 -5 28 -11 42 -11 22 -8 32 25 79 38 55 117 146 279 320 130 139
201 237 258 354 27 56 49 106 50 110 0 4 46 47 102 96 168 145 335 310 342
340 8 32 -8 57 -37 57 -15 0 -3 18 51 78 63 70 101 131 101 162 0 6 -11 15
-24 22 -21 9 -35 5 -98 -27 -40 -21 -91 -51 -113 -67 l-40 -29 -3 26 c-2 14
-7 25 -12 23 -4 -2 -72 -64 -151 -139 -234 -220 -409 -368 -473 -398 -30 -14
-74 -20 -158 -25 -65 -3 -118 -2 -118 2 0 4 9 35 20 69 10 34 31 126 44 203
37 208 50 244 71 210 11 -17 88 -11 123 10 18 11 39 35 48 53 13 28 20 33 43
29 19 -2 34 4 52 21 13 14 42 28 64 32 44 8 79 35 101 78 12 21 22 27 48 27
40 0 92 45 103 88 3 15 15 41 25 57 27 44 24 106 -6 135 -19 17 -24 29 -20 50
5 21 -1 35 -25 63 -17 19 -42 38 -55 41 -22 5 -24 10 -19 39 4 28 0 40 -27 71
-29 33 -32 40 -21 62 6 14 11 43 11 66 0 35 -6 47 -42 82 -25 25 -60 47 -83
53 -150 41 -195 44 -237 13 -26 -19 -26 -19 -41 3 -8 14 -12 37 -9 61 4 32 0
42 -17 55 -17 13 -20 22 -13 40 15 41 2 70 -39 91 -44 23 -36 23 -111 4z"/>
<path fill="#ffffff" stroke="none" d="M5125 4737 c15 -11 17 -22 12 -55 -6
-35 -4 -42 12 -47 34 -10 45 -32 33 -60 -10 -21 -8 -33 10 -70 l22 -45 22 23
c26 28 91 42 129 27 14 -5 43 -10 63 -10 42 0 109 -28 134 -56 34 -39 40 -72
18 -114 -11 -21 -25 -41 -32 -44 -10 -4 -8 -9 6 -18 79 -54 96 -91 56 -125
-29 -25 -25 -33 16 -33 77 0 134 -66 73 -85 -28 -9 -19 -27 22 -40 44 -15 63
-71 36 -113 -9 -15 -24 -44 -33 -65 -18 -42 -61 -77 -94 -77 -17 0 -20 4 -15
20 5 14 2 20 -9 20 -11 0 -16 -10 -16 -34 0 -32 -25 -76 -60 -103 -21 -17 -49
-16 -67 3 -15 15 -18 13 -33 -17 -15 -32 -19 -34 -63 -32 -42 1 -47 -1 -47
-21 0 -33 -44 -70 -88 -72 -48 -3 -90 13 -97 37 -7 22 -25 26 -25 5 0 -15 -21
-26 -51 -26 -23 0 -52 42 -43 64 9 24 -14 20 -48 -9 -31 -26 -49 -29 -83 -15
-14 5 -26 2 -41 -12 -30 -26 -73 -28 -88 -3 -6 11 -12 22 -13 24 -2 2 -12 -4
-22 -13 -26 -23 -63 -17 -78 14 -7 14 -13 20 -13 13 0 -18 -64 -53 -98 -53
-36 0 -62 34 -62 80 0 27 -3 30 -24 24 -28 -7 -56 18 -56 50 0 13 11 40 25 60
41 61 35 67 -32 35 -64 -31 -95 -11 -55 36 28 35 153 115 177 115 14 0 25 7
28 20 5 18 0 20 -48 20 -30 0 -66 -5 -80 -10 -24 -9 -26 -8 -19 12 10 35 34
80 60 115 28 37 31 58 8 49 -9 -3 -28 -9 -42 -12 -24 -6 -23 -4 13 26 22 18
55 39 73 48 17 9 32 19 32 22 0 3 -24 16 -54 29 -29 12 -64 33 -76 46 -20 21
-22 28 -12 49 11 26 65 58 115 70 23 5 26 9 17 26 -27 51 5 106 57 98 15 -3
36 -9 46 -13 14 -6 17 -2 17 18 0 59 97 127 183 129 25 1 50 9 62 19 22 20 58
35 125 54 60 17 92 18 115 2z"/>
<path fill="#ffffff" stroke="none" d="M6200 3569 c0 -6 -5 -20 -11 -32 -13
-24 -580 -597 -591 -597 -4 0 -5 7 -2 15 8 20 -13 45 -37 45 -21 0 62 100 275
331 125 136 275 248 334 249 17 0 32 -5 32 -11z"/>
<path fill="#ffffff" stroke="none" d="M5004 3485 c29 -29 62 -32 88 -8 28 25
32 10 14 -64 -9 -37 -21 -99 -26 -138 -14 -92 -45 -230 -63 -280 l-14 -40
-114 -12 c-87 -9 -116 -9 -122 0 -19 28 38 350 79 444 8 17 17 45 20 62 8 37
11 39 66 50 24 5 44 9 45 10 1 1 13 -10 27 -24z"/>
<path fill="#ffffff" stroke="none" d="M5910 3464 c0 -3 -55 -65 -123 -137
-67 -73 -160 -176 -206 -229 -74 -85 -91 -99 -142 -118 -32 -11 -61 -25 -64
-30 -4 -6 -32 -10 -63 -10 l-57 1 35 17 c55 26 78 43 275 206 28 22 84 73 125
112 41 39 104 98 140 132 60 57 80 71 80 56z"/>
<path fill="#ffffff" stroke="none" d="M6073 3289 c-3 -11 -42 -59 -87 -106
-182 -193 -445 -410 -480 -397 -9 3 -16 10 -16 14 0 5 44 48 97 97 54 48 168
156 253 239 161 158 181 173 217 174 17 0 20 -4 16 -21z"/>
<path fill="#ffffff" stroke="none" d="M4549 3125 c66 -33 130 -92 182 -166
39 -55 41 -56 82 -52 l42 5 -47 -31 c-30 -19 -57 -48 -77 -82 -44 -78 -46
-107 -14 -175 27 -57 30 -59 107 -91 70 -30 94 -34 200 -40 96 -5 133 -2 177
10 65 19 157 82 165 114 4 13 21 28 47 38 23 9 68 44 104 81 69 70 87 79 77
37 -21 -86 -143 -264 -234 -343 -29 -25 -62 -55 -74 -66 -12 -12 -41 -28 -65
-35 -23 -7 -56 -25 -71 -39 -33 -31 -159 -72 -240 -78 -124 -9 -261 43 -360
136 -48 46 -121 168 -180 302 -24 56 -68 113 -80 105 -7 -4 -30 105 -30 142 0
11 -16 41 -35 66 l-34 45 54 56 c29 31 73 65 97 77 57 26 135 21 207 -16z"/>
<path fill="#ffffff" stroke="none" d="M1194 3124 c8 -3 26 -36 40 -72 39
-104 133 -381 151 -447 10 -33 28 -85 40 -115 13 -30 30 -79 40 -107 9 -29 21
-53 26 -53 12 0 12 0 -48 185 -25 77 -47 163 -50 192 -7 61 4 126 19 121 6 -2
28 -67 48 -144 42 -157 88 -303 103 -322 17 -22 -34 -58 -93 -65 -28 -3 -65
-13 -82 -22 -37 -18 -41 -19 -32 -3 4 7 3 8 -4 4 -6 -4 -22 -2 -34 5 -26 13
-17 3 26 -29 16 -12 26 -22 23 -22 -12 0 -188 79 -240 107 -296 164 -354 201
-434 276 -63 59 -67 77 -18 77 86 0 484 -226 617 -351 43 -41 46 -43 45 -19
-1 16 -14 33 -37 48 -63 42 -250 235 -307 316 -110 156 -144 265 -103 330 27
44 57 53 104 31 91 -43 147 -140 364 -632 33 -75 52 -101 52 -73 0 17 -87 223
-136 322 -25 51 -57 131 -69 178 -28 100 -49 243 -40 270 7 22 7 22 29 14z"/>
<path fill="#ffffff" stroke="none" d="M4233 2925 c9 -18 37 -145 37 -171 0
-12 -72 -34 -110 -34 -28 0 -20 26 26 90 l33 46 -91 54 c-50 30 -87 55 -82 57
5 2 36 7 69 11 53 7 63 6 83 -12 13 -12 29 -30 35 -41z"/>
<path fill="#ffffff" stroke="none" d="M5561 2970 c5 0 9 -10 9 -22 0 -15 -24
-45 -70 -89 -77 -73 -90 -102 -40 -92 25 5 30 2 30 -14 0 -20 -32 -48 -89 -77
-47 -25 -62 -7 -27 34 14 17 26 42 26 55 0 25 -46 69 -61 59 -5 -3 1 -14 13
-24 19 -15 21 -21 10 -44 -6 -14 -34 -40 -61 -58 -65 -42 -69 -62 -8 -39 29
11 44 3 44 -24 1 -49 -104 -113 -200 -122 -135 -12 -353 42 -376 95 -14 29
-14 68 -1 93 13 23 3 25 -22 2 -17 -15 -18 -15 -18 6 0 53 33 99 135 188 35
31 203 48 388 38 91 -5 142 -3 150 4 16 13 128 40 145 35 8 -2 18 -4 23 -4z"/>
<path fill="#ffffff" stroke="none" d="M2845 2683 c78 -28 195 -170 195 -236
0 -10 -12 -39 -27 -65 -24 -40 -28 -59 -28 -119 0 -66 -2 -74 -30 -103 -16
-18 -58 -54 -93 -80 -48 -37 -75 -68 -113 -132 -83 -139 -236 -257 -399 -308
-139 -44 -193 -53 -315 -54 l-111 -1 4 28 c4 23 1 27 -19 27 -13 0 -65 9 -116
19 -101 21 -153 50 -255 141 -64 57 -70 70 -34 63 14 -3 23 -10 20 -17 -6 -16
135 -83 203 -95 29 -6 96 -10 150 -10 280 1 485 119 547 316 27 84 0 196 -62
261 -28 29 -35 44 -33 69 2 31 -25 93 -41 93 -14 0 -9 -27 7 -40 14 -12 22
-60 9 -60 -3 0 -20 11 -37 24 -55 40 -125 56 -184 40 -44 -12 -22 -21 49 -22
l72 0 44 -46 c24 -25 49 -46 56 -46 19 0 63 -50 80 -92 20 -47 21 -138 2 -183
-20 -46 -84 -132 -133 -176 -91 -83 -196 -112 -403 -113 -140 -1 -186 9 -264
55 -28 17 -26 17 72 12 55 -3 112 -3 126 1 51 13 15 25 -72 25 -149 -1 -315
44 -372 101 l-22 22 23 24 c20 21 31 24 101 24 45 0 78 4 78 10 0 6 -28 10
-64 10 -76 0 -183 23 -238 51 -30 15 -38 25 -36 41 9 59 148 44 388 -41 63
-22 125 -41 138 -41 18 0 22 -6 22 -32 0 -18 5 -40 10 -48 7 -11 10 -4 10 27
0 56 11 81 60 138 25 29 38 51 31 53 -17 6 -49 -26 -79 -78 -14 -25 -27 -47
-28 -48 -5 -7 -120 31 -169 56 -27 14 -77 33 -110 42 l-60 17 39 13 c59 19
135 8 213 -31 37 -19 71 -35 76 -37 4 -2 7 1 7 7 0 16 -80 60 -151 82 -61 19
-71 19 -128 6 -56 -13 -62 -13 -59 1 7 36 44 41 268 35 196 -5 217 -4 223 10
6 15 -9 17 -147 17 -120 0 -156 3 -165 14 -9 11 -9 16 2 23 8 4 16 14 19 22 2
8 11 15 19 17 7 1 70 18 138 38 117 34 257 56 432 71 42 3 111 12 153 19 75
13 78 15 149 83 40 38 90 80 112 93 63 39 166 44 250 13z"/>
<path fill="#ffffff" stroke="none" d="M3146 2375 c17 -7 34 -17 38 -23 7 -11
-51 -37 -107 -47 -48 -9 -47 -26 5 -55 46 -26 42 -31 -39 -45 l-43 -7 0 61 c0
56 3 64 36 101 39 43 41 43 110 15z"/>
<path fill="#ffffff" stroke="none" d="M4630 2253 c25 -13 51 -23 59 -23 41 0
-99 -98 -164 -113 -22 -6 -70 -11 -107 -11 -59 -1 -73 -5 -103 -29 -32 -26
-48 -67 -25 -67 5 0 7 6 4 14 -7 17 54 69 73 62 8 -4 23 -6 34 -6 18 0 19 -2
4 -30 -33 -64 -10 -140 42 -140 29 0 39 21 23 50 -15 28 -6 61 19 77 20 13 21
11 15 -45 -5 -49 -3 -60 14 -75 11 -10 31 -17 44 -15 21 3 23 9 28 73 l5 70
65 -2 c59 -2 153 -19 173 -30 5 -3 -1 -14 -12 -24 -23 -22 -34 -56 -29 -90 2
-20 9 -24 39 -25 21 0 44 -8 54 -17 9 -9 27 -17 41 -17 21 0 24 5 24 34 0 43
9 66 25 66 6 0 41 -16 76 -35 35 -20 82 -44 104 -54 22 -10 78 -36 125 -59 47
-22 102 -45 123 -52 20 -6 37 -15 37 -20 0 -5 8 -10 18 -12 27 -6 -83 -28
-136 -27 l-47 1 30 13 c17 8 50 14 75 15 33 0 41 3 30 10 -8 5 -30 10 -49 10
-44 0 -154 -29 -163 -43 -5 -8 -35 -1 -100 21 -51 18 -124 42 -163 54 -38 11
-79 25 -90 31 -11 6 -30 12 -42 14 -12 1 -73 16 -135 33 -86 24 -140 33 -228
36 -63 3 -137 10 -163 16 -55 12 -83 4 -163 -48 -27 -19 -66 -40 -85 -48 -19
-8 -91 -46 -161 -84 -181 -99 -238 -124 -238 -103 0 5 5 13 10 16 6 3 10 11
10 18 0 6 -11 -5 -25 -25 -14 -20 -25 -41 -25 -47 0 -28 -273 -175 -518 -280
-261 -112 -476 -178 -601 -187 -41 -3 -82 -9 -92 -14 -10 -6 -67 -10 -127 -10
-60 0 -124 -5 -142 -11 -29 -10 -34 -10 -43 7 -6 10 -23 31 -39 46 l-29 27 43
4 c24 2 -14 3 -83 2 -109 -1 -128 1 -137 16 -9 14 -5 19 27 34 29 13 55 16
107 12 l69 -6 -73 11 c-68 10 -76 9 -112 -11 -31 -17 -43 -19 -66 -11 -16 6
-39 9 -51 5 -16 -4 -23 -1 -23 10 0 8 3 15 6 15 3 0 49 9 102 19 54 11 132 22
175 26 106 9 117 -1 117 -101 0 -40 4 -76 10 -79 5 -3 23 2 40 12 24 14 30 24
30 50 0 18 4 33 9 33 6 0 11 16 13 36 l3 36 27 -21 c14 -12 39 -41 55 -66 24
-40 32 -45 58 -43 27 3 30 7 33 41 3 32 -3 45 -38 87 -34 41 -38 50 -23 51 10
0 39 3 65 5 26 3 56 0 67 -6 30 -16 63 -85 55 -115 -12 -47 36 -73 70 -39 18
18 21 89 6 130 -6 15 -8 30 -4 33 9 9 62 -59 75 -96 10 -33 22 -39 53 -27 30
12 17 82 -27 147 -11 16 -17 30 -15 32 2 2 46 16 98 31 199 57 327 115 715
324 75 40 78 41 55 15 -14 -15 -43 -41 -64 -56 -21 -16 -34 -29 -28 -29 13 0
88 61 127 105 27 29 66 54 225 143 25 13 71 40 103 58 32 19 60 34 62 34 11 0
390 240 495 313 l55 38 35 -38 c19 -21 55 -48 80 -60z"/>
<path fill="#ffffff" stroke="none" d="M5230 2303 c0 -11 -101 -137 -154 -193
-82 -88 -80 -83 -57 -121 26 -42 26 -53 2 -39 -50 26 -91 3 -91 -53 0 -30 -10
-40 -26 -26 -17 14 -1 67 26 86 21 15 27 33 10 33 -12 0 -70 -59 -70 -71 0 -5
-7 -9 -15 -9 -8 0 -15 -4 -15 -10 0 -16 -27 -12 -34 6 -12 32 29 81 74 89 3 0
14 6 25 12 11 6 35 14 53 18 17 3 32 10 32 13 0 4 17 25 37 47 20 22 55 67 78
100 73 106 88 125 107 125 10 0 18 -3 18 -7z"/>
<path fill="#ffffff" stroke="none" d="M5035 2132 l-67 -90 -54 -7 c-85 -10
-291 43 -263 69 2 2 41 22 85 45 70 35 91 41 145 41 65 1 194 21 206 33 3 4 8
5 10 3 3 -2 -25 -45 -62 -94z"/>
<path fill="#ffffff" stroke="none" d="M4763 2204 c6 -6 -57 -47 -127 -84 -15
-8 -23 -16 -17 -18 17 -6 13 -32 -4 -32 -8 0 -15 5 -15 10 0 6 -6 10 -14 10
-14 0 -32 -91 -27 -137 3 -26 -11 -30 -29 -8 -8 9 -10 30 -7 53 2 20 2 48 -2
60 l-6 24 -28 -26 c-15 -14 -32 -26 -38 -26 -12 0 -12 -47 2 -72 9 -17 8 -19
-8 -16 -26 5 -24 103 3 123 24 17 124 46 135 39 5 -3 9 -1 9 5 0 10 138 99
156 100 6 1 14 -2 17 -5z"/>
<path fill="#ffffff" stroke="none" d="M2800 1893 c60 -35 55 -90 -13 -150
-64 -56 -146 -83 -297 -98 l-65 -6 60 30 c85 43 182 120 235 185 25 30 47 55
48 56 2 0 17 -7 32 -17z"/>
<path fill="#ffffff" stroke="none" d="M1855 1631 c40 -13 51 -21 53 -40 2
-14 24 -50 49 -80 25 -31 50 -66 56 -79 18 -39 126 -112 165 -112 72 0 185
-82 185 -135 0 -14 -3 -29 -7 -32 -8 -8 -36 17 -36 33 0 16 -88 104 -104 104
-24 0 -34 -17 -38 -72 -3 -32 -13 -68 -24 -85 l-19 -28 -5 75 c-6 85 -10 94
-54 122 -22 14 -25 18 -8 13 15 -4 22 -2 22 8 0 8 -10 22 -22 30 -13 8 -41 32
-63 54 -22 21 -56 45 -76 54 -20 9 -51 35 -69 57 -18 22 -38 38 -45 36 -17 -7
-86 72 -79 90 7 17 37 14 119 -13z"/>
<path fill="#ffffff" stroke="none" d="M942 1623 c8 -10 18 -30 22 -45 8 -34
16 -35 54 -3 36 30 92 55 125 55 29 0 65 -32 73 -65 4 -17 -1 -33 -16 -52 -23
-29 -14 -41 19 -24 43 24 82 13 127 -33 40 -42 45 -44 76 -35 54 15 68 11 109
-30 45 -44 44 -63 -5 -88 -17 -9 -34 -21 -38 -27 -5 -7 -15 -3 -30 11 -13 12
-41 30 -63 39 -51 22 -228 31 -278 15 -47 -16 -117 -67 -117 -86 0 -10 12 -6
43 15 51 36 167 63 247 58 59 -4 131 -34 169 -70 23 -21 24 -21 40 -1 26 32
76 48 110 33 30 -12 71 -51 89 -84 7 -15 21 -20 57 -21 51 -1 85 -28 85 -66 0
-23 7 -23 52 -5 19 8 41 14 49 12 31 -5 59 -18 59 -27 0 -5 7 -9 15 -9 9 0 23
-12 32 -28 15 -26 18 -27 88 -24 41 2 105 -1 144 -8 58 -10 75 -17 96 -42 32
-38 39 -67 32 -134 -10 -97 -54 -131 -147 -112 -47 9 -51 1 -12 -30 18 -15 32
-36 32 -48 0 -38 -64 -78 -122 -76 -44 2 -49 -10 -13 -26 26 -12 28 -18 25
-67 -6 -103 -143 -164 -221 -98 -18 15 -34 23 -36 18 -28 -80 -102 -119 -196
-101 -35 7 -97 59 -97 82 0 6 -6 17 -13 23 -11 8 -21 1 -45 -33 -51 -71 -158
-108 -266 -92 -45 7 -97 45 -121 90 -10 18 -12 18 -50 -3 -53 -28 -90 -27
-120 4 -21 20 -25 34 -25 79 0 30 -5 58 -10 61 -6 4 -23 -5 -39 -18 -21 -18
-52 -28 -110 -37 l-81 -13 -65 32 c-35 17 -75 45 -89 62 -58 68 -55 198 4 222
8 3 -22 6 -66 6 -92 1 -108 11 -106 65 l1 33 -57 -1 -57 -1 -3 32 c-3 33 19
78 50 101 31 23 20 31 -40 29 -76 -2 -114 15 -141 63 -19 35 -20 43 -10 87 15
61 25 81 58 117 31 33 60 47 119 55 45 6 58 24 22 29 -16 3 -19 8 -14 25 32
104 110 143 273 135 69 -3 95 -8 111 -23 20 -18 20 -18 20 5 0 13 18 40 44 66
38 39 49 44 88 44 30 0 50 -6 60 -17z"/>
<path fill="#ffffff" stroke="none" d="M2343 1566 c25 -23 34 -36 25 -39 -8
-4 12 -30 57 -74 68 -66 72 -68 123 -70 76 -2 108 -18 131 -67 24 -49 30 -87
15 -93 -6 -2 -17 9 -23 24 -19 46 -78 103 -106 103 -30 0 -31 -13 -5 -68 23
-47 25 -73 8 -90 -21 -21 -28 -13 -28 27 0 30 -8 47 -39 82 -34 39 -42 43 -80
42 -49 -2 -46 13 4 23 19 3 35 9 35 12 0 15 -116 122 -131 122 -10 0 -19 3
-21 8 -1 4 -20 20 -41 36 -39 28 -39 40 -2 49 35 8 39 7 78 -27z"/>
<path fill="#ffffff" stroke="none" d="M2222 1528 c24 -19 57 -38 74 -42 17
-4 53 -26 80 -50 l48 -43 -31 -17 c-18 -9 -36 -22 -40 -30 -9 -16 -72 -24 -92
-11 -8 4 -34 7 -59 6 -37 -1 -55 5 -100 36 -32 22 -68 59 -87 89 -19 29 -38
55 -44 58 -6 4 -15 15 -20 24 -8 16 1 17 109 16 l119 -1 43 -35z"/>
<path fill="#000000" stroke="none" d="M4927 3443 c-4 -3 -7 -19 -7 -34 0 -15
-4 -31 -10 -34 -5 -3 -9 -23 -9 -43 2 -33 2 -34 6 -7 2 17 8 39 13 50 10 24
22 75 17 75 -2 0 -7 -3 -10 -7z"/>
<path fill="#000000" stroke="none" d="M4956 3230 c-4 -27 -11 -52 -16 -55 -6
-3 -9 -39 -8 -78 l2 -72 3 70 c2 38 8 74 13 81 11 12 26 104 18 104 -3 0 -8
-22 -12 -50z"/>
<path fill="#000000" stroke="none" d="M4846 3173 c-2 -10 -7 -56 -10 -103 -4
-69 -3 -75 3 -30 18 115 21 181 7 133z"/>
<path fill="#000000" stroke="none" d="M4320 2991 c0 -5 5 -11 12 -13 11 -4
14 -16 19 -96 3 -41 4 -43 28 -37 14 3 31 6 38 7 36 4 13 65 -44 116 -37 32
-53 40 -53 23z"/>
<path fill="#ffffff" stroke="none" d="M4400 2915 c25 -26 20 -41 -14 -47 -17
-2 -20 3 -21 35 -2 44 3 46 35 12z"/>
<path fill="#000000" stroke="none" d="M2840 2429 c-51 -35 -56 -36 -72 -22
-12 11 -18 12 -18 4 0 -7 -4 -9 -10 -6 -23 14 -8 -15 20 -38 26 -22 123 -47
135 -35 2 2 9 24 16 49 10 38 10 49 -2 65 -14 19 -16 19 -69 -17z"/>
<path fill="#ffffff" stroke="none" d="M2900 2421 c0 -6 -4 -13 -10 -16 -5 -3
-10 -17 -10 -31 0 -27 -13 -30 -56 -14 -24 9 -26 13 -13 25 15 15 69 45 82 45
4 0 7 -4 7 -9z"/>
<path fill="#000000" stroke="none" d="M2001 2263 c-79 -79 -59 -67 38 24 31
29 52 53 47 53 -5 0 -43 -35 -85 -77z"/>
<path fill="#000000" stroke="none" d="M4431 2209 c-101 -45 -119 -55 -171
-99 -30 -26 -62 -50 -70 -53 -13 -5 -13 -6 0 -6 8 -1 35 17 60 40 25 22 90 62
145 89 99 49 122 67 36 29z"/>
<path fill="#000000" stroke="none" d="M4660 1933 c19 -7 98 -70 128 -102 13
-14 20 -18 17 -9 -8 21 -129 118 -146 117 -11 0 -10 -2 1 -6z"/>
<path fill="#000000" stroke="none" d="M3949 1888 c-52 -72 -125 -122 -194
-131 l-30 -4 33 -2 c18 0 52 8 75 20 40 20 128 104 148 141 18 33 0 19 -32
-24z"/>
<path fill="#000000" stroke="none" d="M5140 1813 c34 -5 80 -24 80 -32 0 -10
61 -44 67 -37 3 3 -5 10 -18 16 -13 6 -39 22 -58 35 -21 15 -46 24 -65 24 -27
-2 -27 -2 -6 -6z"/>
<path fill="#000000" stroke="none" d="M3319 1528 c-47 -29 -102 -62 -122 -72
-21 -11 -43 -26 -50 -35 -6 -8 2 -5 20 7 17 12 34 22 38 22 5 0 36 18 71 40
35 22 68 40 74 40 5 0 10 4 10 8 0 5 15 16 33 25 17 8 27 16 21 16 -5 1 -48
-23 -95 -51z"/>
<path fill="#000000" stroke="none" d="M3080 1475 c-30 -19 -92 -46 -138 -61
-45 -15 -81 -28 -79 -31 10 -9 163 49 218 83 52 32 67 44 56 44 -2 0 -27 -16
-57 -35z"/>
<path fill="#000000" stroke="none" d="M2990 1347 c0 -13 -71 -50 -140 -74
-22 -7 -28 -12 -15 -12 31 -1 165 67 165 84 0 8 -2 15 -5 15 -3 0 -5 -6 -5
-13z"/>
<path fill="#000000" stroke="none" d="M973 1071 c-70 -25 -128 -75 -158 -135
-57 -112 -9 -196 111 -196 36 0 44 -3 37 -12 -49 -62 11 -188 89 -188 15 0 32
-11 46 -30 45 -60 107 -73 190 -39 32 13 30 14 -51 14 -91 0 -123 14 -129 58
-2 16 -12 22 -38 25 -67 7 -107 54 -94 110 4 15 20 44 37 66 l30 39 -49 -8
c-60 -10 -131 -7 -155 6 -41 21 -32 111 17 176 35 46 104 91 164 106 28 7 47
16 44 20 -11 11 -35 8 -91 -12z"/>
</g>
</svg>
