<?xml version="1.0" standalone="no"?>
<!DOCTYPE svg PUBLIC "-//W3C//DTD SVG 20010904//EN"
 "http://www.w3.org/TR/2001/REC-SVG-20010904/DTD/svg10.dtd">
<svg version="1.0" xmlns="http://www.w3.org/2000/svg"
 width="901.000000pt" height="1202.000000pt" viewBox="0 0 901.000000 1202.000000"
 preserveAspectRatio="xMidYMid meet">
<metadata>
Created by potrace 1.16, written by Peter Selinger 2001-2019
</metadata>
<g transform="translate(0.000000,1202.000000) scale(0.100000,-0.100000)"
fill="#000000" stroke="none">
<path fill="#000000" stroke="none" d="M0 6010 l0 -6010 4505 0 4505 0 0 6010
0 6010 -4505 0 -4505 0 0 -6010z"/>
<path fill="#ffffff" stroke="none" d="M9000 6010 l0 -6000 -4495 0 -4495 0 0
6000 0 6000 4495 0 4495 0 0 -6000z"/>
<path fill="#000000" stroke="none" d="M4063 11556 c-51 -16 -196 -94 -278
-149 -98 -66 -210 -152 -385 -297 -301 -248 -432 -341 -563 -398 -147 -64
-249 -53 -326 35 -86 97 -110 245 -59 356 97 207 337 298 555 210 73 -29 96
-25 101 19 10 82 -194 178 -377 178 -171 -1 -289 -46 -397 -154 -109 -110
-174 -250 -174 -376 0 -149 159 -517 272 -627 32 -31 47 -38 95 -44 97 -11
268 17 463 76 18 6 12 -2 -20 -25 -152 -112 -322 -279 -380 -372 -34 -56 -39
-54 89 -38 46 6 86 8 89 6 3 -3 -3 -15 -13 -26 -10 -11 -15 -23 -11 -27 4 -4
18 7 32 25 20 25 33 32 59 32 29 0 33 -3 28 -22 l-5 -23 19 23 c15 19 27 23
59 20 39 -3 39 -3 36 -41 -4 -45 13 -42 23 4 8 34 12 34 123 3 l53 -15 -18
-23 c-68 -86 -146 -194 -158 -216 -12 -23 -23 -28 -67 -33 -44 -5 -58 -12 -81
-39 -45 -52 -100 -139 -101 -159 -1 -18 -76 -79 -98 -79 -6 0 -19 7 -28 15
-16 14 -19 12 -41 -20 -13 -19 -26 -35 -29 -35 -3 -1 -29 -2 -59 -3 -46 -2
-57 -7 -82 -35 -25 -28 -41 -35 -143 -56 -209 -44 -312 -117 -386 -270 -40
-83 -85 -239 -75 -256 4 -6 13 -10 21 -10 8 0 -12 -31 -47 -72 -192 -228 -262
-432 -230 -674 29 -216 107 -375 421 -855 69 -105 140 -216 158 -247 60 -105
172 -336 193 -400 19 -56 26 -66 58 -79 20 -9 69 -21 110 -27 60 -9 78 -16 92
-36 46 -66 277 -422 362 -557 116 -185 178 -310 227 -457 38 -113 96 -344 88
-351 -2 -3 -20 0 -39 5 -90 26 -117 1 -187 -175 -85 -216 -122 -366 -129 -526
-8 -178 -6 -183 62 -208 30 -11 69 -22 86 -23 17 -1 33 -8 36 -15 5 -11 -31
-180 -40 -189 -2 -2 -46 35 -98 82 -156 142 -272 199 -434 211 -70 6 -83 10
-109 35 -37 37 -88 63 -154 77 -51 11 -132 6 -132 -8 0 -4 24 -16 53 -26 l52
-20 -75 -6 c-119 -11 -220 -58 -279 -132 l-25 -30 39 7 38 7 -27 -31 c-37 -45
-66 -112 -77 -182 -11 -67 -6 -84 12 -44 7 14 15 26 19 26 4 0 6 -39 6 -88 -1
-103 19 -186 38 -160 10 14 14 7 23 -46 19 -111 94 -235 165 -272 35 -18 44
-14 28 16 -11 20 -40 108 -40 121 0 4 20 -14 45 -39 50 -50 66 -50 42 0 -24
52 -55 268 -38 268 5 0 13 -10 17 -22 7 -24 33 -58 43 -58 4 0 5 46 3 103 -3
84 0 113 18 162 20 59 78 155 93 155 4 0 7 -19 7 -42 1 -49 24 -112 33 -88 3
8 11 33 18 55 16 54 64 148 83 164 24 20 123 10 177 -18 69 -36 111 -74 212
-189 l94 -107 -19 -44 c-23 -54 -54 -206 -67 -333 -14 -124 -14 -352 -1 -400
12 -40 48 -72 96 -84 39 -10 44 -19 44 -94 0 -153 48 -478 126 -869 48 -234
56 -398 25 -488 -12 -34 -21 -65 -21 -67 0 -3 12 -12 27 -19 l26 -14 -54 -18
c-118 -38 -232 -106 -297 -175 -135 -145 -187 -526 -90 -663 19 -26 23 -27 67
-21 246 37 542 303 713 643 26 52 53 121 59 153 7 33 18 62 25 65 10 4 14 27
14 82 0 488 289 1164 640 1495 l71 67 31 -43 c177 -244 412 -650 527 -911 100
-227 188 -501 216 -676 5 -31 13 -45 26 -48 15 -4 19 -15 19 -55 0 -27 5 -58
10 -69 41 -75 534 -220 885 -259 99 -11 273 -11 320 -1 26 6 30 11 27 35 -10
92 -138 226 -283 300 -110 55 -207 78 -441 103 -87 9 -158 19 -158 23 0 4 9
15 19 24 20 18 20 19 -1 70 -25 62 -48 199 -48 283 0 96 27 270 71 458 66 282
79 369 79 546 l0 159 27 0 c15 0 42 5 60 12 52 19 58 55 57 323 -1 240 -14
382 -35 396 -7 4 -46 5 -87 2 -57 -5 -76 -3 -83 8 -5 8 -9 91 -9 184 l0 170
46 19 c57 23 68 41 93 146 39 171 103 573 117 736 l7 80 -30 25 c-17 13 -44
31 -61 41 l-30 16 42 129 c137 413 347 767 641 1086 l63 67 104 0 c108 0 263
18 386 44 l73 16 24 -28 c13 -15 25 -22 25 -15 0 6 -4 15 -10 18 -24 15 -7 32
42 44 45 10 54 10 64 -4 15 -20 23 -19 17 3 -4 16 8 22 84 41 117 30 133 37
133 59 0 10 3 22 8 26 4 4 7 20 8 34 0 15 9 102 19 194 17 154 20 166 35 153
29 -26 35 -16 8 13 -24 26 -26 34 -31 172 -3 80 -11 180 -17 224 l-11 78 33
28 33 28 -27 79 c-28 82 -151 376 -219 521 -22 46 -39 86 -39 88 0 10 -240
485 -285 564 -69 122 -140 223 -191 270 -102 94 -266 184 -508 280 -108 43
-121 51 -124 74 -4 29 -22 43 -166 121 -49 26 -99 48 -110 49 -24 1 -82 75
-131 167 l-35 67 20 57 c20 58 27 135 12 135 -4 0 -24 -13 -44 -30 l-36 -30
-32 88 c-17 48 -38 97 -46 109 -15 25 -7 60 20 82 21 18 34 7 61 -56 l25 -55
47 7 c27 3 77 14 112 22 42 11 66 13 68 6 2 -6 11 -19 19 -29 14 -18 15 -17 9
14 l-7 32 51 0 c28 0 51 -4 51 -8 0 -5 7 -17 15 -28 15 -18 16 -17 10 14 l-7
33 81 -7 c68 -6 81 -4 81 8 0 25 -73 130 -140 202 -65 69 -225 203 -293 245
-21 13 -36 25 -34 27 2 3 55 -4 117 -16 63 -11 153 -20 202 -20 l89 0 43 43
c62 62 126 161 159 247 27 67 30 87 29 180 -1 212 -80 350 -244 425 -103 47
-237 28 -246 -34 -4 -29 12 -41 56 -41 100 0 197 -109 226 -253 31 -150 -36
-257 -161 -257 -100 0 -175 54 -448 321 -379 370 -427 404 -570 402 -95 -1
-177 -26 -279 -84 l-68 -39 -34 29 c-47 42 -156 100 -226 122 -69 22 -173 24
-235 5z"/>
<path fill="#ffffff" stroke="none" d="M4303 11529 c75 -25 186 -89 230 -132
28 -29 104 -150 152 -245 9 -19 19 -32 22 -29 6 6 -62 143 -105 213 l-30 48
21 16 c114 89 339 132 432 83 79 -41 168 -118 407 -350 134 -130 274 -258 312
-285 121 -84 209 -95 289 -34 57 44 79 91 79 173 0 165 -116 329 -242 341 -56
5 -70 16 -48 39 63 62 250 14 342 -87 63 -70 87 -132 109 -283 14 -92 -29
-242 -98 -342 -33 -48 -43 -55 -87 -64 -159 -35 -341 11 -637 158 -53 27 -127
61 -166 76 -38 15 -78 34 -88 43 -23 21 -72 19 -144 -6 -32 -11 -73 -23 -90
-27 -30 -6 -33 -4 -33 17 0 34 -11 68 -21 68 -5 0 -9 -9 -9 -20 0 -38 -16 -19
-39 45 -30 86 -42 91 -35 16 3 -34 3 -61 1 -61 -3 0 -15 16 -26 36 -12 20 -24
34 -26 32 -6 -6 64 -148 72 -148 3 0 3 30 0 68 -7 74 3 67 24 -18 16 -70 29
-85 29 -35 0 42 16 38 22 -5 2 -16 9 -24 18 -22 8 2 -7 -15 -33 -38 -26 -23
-44 -46 -41 -51 3 -5 25 8 48 28 55 48 162 103 215 110 52 7 70 -7 105 -88 23
-49 27 -71 24 -132 -1 -53 3 -85 17 -119 l19 -48 -48 -49 -49 -49 5 -76 5 -76
-56 -32 c-75 -44 -137 -43 -290 2 -134 38 -199 42 -256 12 -57 -29 -89 -67
-125 -147 -45 -99 -77 -251 -97 -457 l-17 -176 -96 47 c-52 26 -160 76 -240
110 -80 34 -152 68 -161 75 -15 10 -16 25 -8 121 12 158 11 468 -1 460 -6 -4
-10 -58 -10 -128 0 -67 -5 -194 -11 -282 l-10 -160 28 -22 c15 -13 111 -60
213 -104 102 -45 211 -95 243 -111 53 -26 57 -31 57 -63 0 -21 -5 -35 -12 -35
-34 1 -145 33 -203 59 -119 54 -409 236 -523 328 -24 20 -45 33 -48 30 -15
-15 304 -235 487 -335 81 -45 189 -85 258 -97 35 -6 45 -12 53 -36 12 -34 44
-39 92 -14 15 8 51 16 80 16 28 1 42 3 31 6 -46 10 -51 14 -32 24 12 7 40 3
100 -15 159 -49 346 -62 485 -32 171 36 327 161 436 349 l28 49 44 -79 c25
-44 60 -96 78 -117 l34 -37 -52 -89 -51 -89 -110 -60 c-384 -208 -771 -267
-1195 -180 -310 63 -422 105 -858 323 -202 100 -398 196 -437 211 -38 16 -74
32 -79 36 -11 10 35 82 142 222 l74 99 37 -8 c20 -4 54 -8 75 -8 39 -1 39 -1
51 49 14 61 41 105 65 105 19 0 38 -39 60 -119 l11 -44 51 6 c94 11 171 76
223 185 14 30 41 115 60 190 19 76 44 149 55 165 11 15 16 27 11 27 -5 0 -18
-14 -29 -31 l-19 -31 -5 62 c-3 49 -9 67 -26 80 -14 12 -19 25 -16 41 2 13 -5
4 -16 -21 -33 -70 -96 -145 -138 -163 -20 -9 -108 -31 -196 -48 -384 -74 -629
-164 -762 -281 -69 -61 -31 -9 54 73 182 177 315 273 450 324 111 43 416 167
476 194 98 44 332 130 355 131 2 0 -17 -22 -43 -50 -51 -54 -58 -87 -31 -144
19 -40 73 -106 87 -106 5 0 -2 14 -17 31 -37 45 -65 103 -65 138 0 62 186 190
298 206 83 11 263 -31 428 -102 90 -38 102 -51 114 -134 l8 -54 1 61 c1 71
-19 105 -75 129 -19 8 -34 20 -34 28 0 7 -13 26 -30 42 -44 42 -28 42 35 0 31
-20 59 -35 61 -32 3 3 -9 35 -25 72 -17 37 -28 71 -25 76 5 9 -48 61 -55 54
-2 -2 13 -36 33 -75 40 -79 45 -101 18 -77 -24 21 -112 60 -120 53 -3 -4 14
-27 38 -51 l45 -45 -35 6 c-19 4 -80 20 -135 36 -80 24 -131 31 -254 39 -170
10 -227 4 -360 -36 -120 -35 -329 -121 -536 -220 -286 -136 -539 -227 -691
-250 -116 -17 -163 -19 -198 -5 -74 28 -258 417 -273 575 -12 126 44 267 153
383 126 137 296 187 515 150 129 -21 267 -112 239 -158 -7 -12 -21 -10 -87 13
-43 15 -101 30 -130 34 -66 7 -162 -11 -233 -45 -71 -35 -167 -131 -205 -206
-25 -52 -29 -70 -28 -143 0 -75 4 -90 37 -158 47 -94 98 -140 174 -156 167
-34 342 60 773 417 328 271 542 415 684 460 62 20 157 17 228 -7z"/>
<path fill="#ffffff" stroke="none" d="M4169 10863 c0 -14 -119 -65 -182 -78
-77 -17 -203 -65 -577 -219 -377 -156 -656 -236 -822 -236 -128 0 -126 16 4
23 189 9 344 63 868 300 285 128 395 170 520 197 88 19 190 26 189 13z"/>
<path fill="#ffffff" stroke="none" d="M5435 10735 c202 -98 227 -108 325
-140 96 -30 240 -43 308 -27 50 12 53 3 10 -34 -33 -27 -33 -27 -148 -21 -240
12 -650 130 -650 187 0 10 -9 42 -20 70 l-20 51 22 -7 c13 -3 91 -39 173 -79z"/>
<path fill="#ffffff" stroke="none" d="M5338 10636 c26 -13 92 -38 147 -56 90
-30 113 -43 230 -131 131 -98 290 -237 281 -246 -2 -3 -32 18 -66 46 -111 92
-202 128 -409 162 -139 22 -211 48 -211 76 0 10 -11 37 -24 60 -21 37 -23 47
-14 78 6 19 13 35 15 35 2 0 25 -11 51 -24z"/>
<path fill="#ffffff" stroke="none" d="M3816 10494 c4 -15 4 -72 1 -128 -16
-261 -123 -442 -278 -471 l-36 -7 -12 59 c-14 71 -44 123 -70 123 -28 0 -68
-57 -84 -121 -17 -63 -9 -62 -162 -19 -55 15 -115 31 -132 35 -25 5 -33 12
-34 28 -1 17 -2 18 -6 5 -3 -14 -15 -18 -49 -18 -45 0 -53 7 -32 28 7 7 8 12
2 12 -6 0 -19 -9 -29 -20 -21 -23 -75 -27 -75 -6 0 8 5 18 10 21 6 3 10 10 10
16 0 18 -15 9 -31 -20 -15 -26 -22 -29 -93 -35 -42 -4 -84 -10 -94 -13 -32
-11 40 56 108 101 105 70 130 83 239 125 129 50 236 79 461 126 96 19 191 43
212 51 41 18 84 61 117 117 26 43 48 48 57 11z"/>
<path fill="#ffffff" stroke="none" d="M5347 10430 c22 -10 104 -31 182 -45
238 -43 327 -85 475 -227 50 -47 89 -88 86 -90 -3 -3 -40 -3 -82 0 -65 3 -78
7 -83 23 -4 10 -11 19 -16 19 -6 0 -8 -8 -4 -19 5 -15 -1 -20 -32 -26 -32 -6
-40 -3 -56 17 l-19 23 3 -25 c4 -23 -1 -25 -91 -47 -52 -13 -100 -21 -106 -19
-6 2 -14 18 -17 34 -3 16 -17 43 -32 60 -32 38 -60 33 -83 -14 -18 -38 -20
-39 -58 -22 -24 11 -26 16 -20 56 3 24 1 52 -4 63 -16 29 -64 49 -120 49 l-50
0 0 61 c0 58 2 63 43 105 23 24 42 44 43 44 0 0 18 -9 41 -20z"/>
<path fill="#ffffff" stroke="none" d="M5362 10192 l20 -20 -28 -126 c-25
-114 -27 -132 -16 -183 6 -31 23 -74 38 -96 21 -32 23 -41 12 -48 -45 -30
-219 -59 -356 -59 -94 0 -184 -23 -278 -71 -42 -22 -77 -39 -79 -39 -1 0 -6
25 -10 56 -12 102 -35 167 -102 300 -77 153 -77 161 -5 233 76 76 130 80 318
25 49 -14 114 -28 144 -31 51 -5 61 -2 140 41 74 39 91 45 133 42 32 -2 56
-10 69 -24z"/>
<path fill="#ffffff" stroke="none" d="M5424 10049 c34 -20 69 -86 106 -203
13 -42 10 -48 -42 -77 -23 -12 -57 39 -98 145 -27 68 -29 83 -20 117 6 21 13
39 15 39 2 0 20 -9 39 -21z"/>
<path fill="#ffffff" stroke="none" d="M4532 9928 c62 -122 87 -185 104 -261
25 -121 24 -127 -57 -193 -62 -51 -139 -135 -139 -153 0 -3 40 32 89 79 87 84
195 155 297 198 64 27 157 42 260 42 204 0 382 64 513 184 l34 31 -7 -49 c-13
-106 -94 -246 -205 -357 -130 -129 -255 -179 -454 -179 -108 0 -272 26 -340
54 l-32 12 48 28 c26 15 47 30 47 33 0 11 -51 -13 -138 -64 -51 -30 -105 -55
-120 -56 -25 -2 -27 1 -33 48 -9 74 8 335 31 466 19 109 47 219 56 219 2 0 23
-37 46 -82z"/>
<path fill="#ffffff" stroke="none" d="M5426 9790 c23 -34 25 -43 14 -50 -21
-13 -40 7 -67 68 -14 32 -23 71 -23 100 l1 47 24 -61 c13 -34 36 -81 51 -104z"/>
<path fill="#ffffff" stroke="none" d="M2960 9612 c0 -4 -5 -13 -11 -19 -8 -8
29 -31 142 -85 344 -163 1073 -536 1839 -941 146 -77 267 -141 269 -143 2 -2
-10 -34 -27 -71 -44 -96 -82 -201 -90 -247 -7 -36 -11 -39 -72 -63 -210 -81
-507 -168 -641 -188 -40 -6 -50 -3 -104 34 -77 51 -79 53 -151 136 -33 39 -89
119 -125 179 -81 138 -102 160 -169 180 -110 33 -266 10 -408 -60 l-74 -36
-16 24 c-35 51 -171 183 -252 244 -100 76 -300 179 -386 199 -188 44 -418 20
-624 -65 -141 -58 -283 -159 -367 -263 -62 -75 -53 -81 13 -9 191 211 478 332
787 332 117 0 138 -3 218 -30 189 -63 371 -181 520 -336 97 -102 98 -104 42
-150 -51 -42 -152 -174 -187 -244 -25 -49 -51 -126 -60 -177 -5 -29 -2 -35 27
-49 75 -40 253 -75 432 -87 l40 -2 -68 -32 c-307 -145 -656 -448 -857 -743
-70 -103 -144 -263 -164 -355 -5 -24 -4 -26 4 -13 9 15 18 9 69 -50 32 -37 70
-78 85 -91 14 -14 26 -28 26 -33 0 -23 -229 6 -255 33 -7 8 -25 48 -39 89 -15
41 -58 136 -95 210 -68 135 -113 209 -318 525 -240 371 -315 532 -343 737 -25
182 22 375 133 538 17 25 60 79 95 121 l64 76 87 6 c47 3 94 9 104 12 9 4 34
44 56 90 61 130 124 167 356 209 50 10 118 30 153 46 64 30 154 107 184 157
l17 29 -75 49 c-40 27 -74 51 -74 54 0 3 23 22 51 41 l52 35 175 -180 c96 -99
294 -314 440 -478 l264 -297 113 109 c208 201 333 246 545 197 118 -27 361
-120 615 -235 39 -18 63 -26 55 -18 -19 18 -239 120 -400 186 -181 73 -305
105 -415 105 -81 1 -97 -2 -159 -32 -98 -46 -179 -107 -273 -205 l-81 -85 -32
40 c-49 60 -307 355 -453 516 -71 78 -192 202 -268 275 l-138 132 65 88 c60
80 67 87 99 87 19 0 35 -4 35 -8z"/>
<path fill="#ffffff" stroke="none" d="M5829 9408 c20 -12 37 -22 39 -23 1 -1
-3 -16 -9 -33 -9 -26 -17 -31 -46 -34 l-36 -3 27 -32 c22 -26 26 -39 21 -63
-7 -34 -6 -35 29 -18 21 9 29 8 44 -5 28 -25 35 -21 29 17 -4 26 -1 39 14 52
26 23 24 31 -10 39 -21 4 -33 15 -40 37 -6 17 -10 32 -9 34 2 1 36 -16 76 -38
l74 -41 -7 -46 c-7 -52 -38 -227 -60 -343 -8 -42 -18 -101 -21 -130 l-6 -53
-162 0 -161 0 -67 -33 c-72 -35 -144 -106 -244 -237 -57 -76 -124 -183 -124
-199 0 -5 23 24 51 65 28 41 57 81 66 89 13 13 14 12 9 -15 -8 -47 -26 -177
-29 -214 -2 -32 -5 -34 -87 -67 -46 -19 -88 -33 -92 -32 -13 5 52 181 116 313
122 250 557 1035 573 1035 3 0 22 -10 42 -22z"/>
<path fill="#ffffff" stroke="none" d="M2658 9321 c26 -21 69 -51 95 -66 l49
-28 -58 -58 c-82 -83 -145 -113 -300 -144 -71 -14 -149 -32 -174 -41 -90 -33
-153 -100 -191 -204 l-21 -57 -66 -7 c-89 -8 -172 -8 -172 1 0 4 12 45 26 92
71 233 171 332 392 387 119 29 139 30 147 4 11 -36 63 -70 106 -70 46 0 94 22
109 49 17 34 12 77 -14 102 l-24 23 21 28 c11 15 22 28 25 28 2 0 24 -17 50
-39z"/>
<path fill="#ffffff" stroke="none" d="M5910 9290 c24 0 27 -15 4 -24 -10 -4
-14 -14 -11 -26 6 -22 -3 -26 -20 -9 -8 8 -13 8 -17 0 -12 -19 -28 -12 -21 10
4 13 0 27 -11 40 -16 18 -16 19 5 19 12 0 24 7 28 17 5 14 8 13 14 -5 5 -13
17 -22 29 -22z"/>
<path fill="#ffffff" stroke="none" d="M2570 9274 c34 -35 34 -61 1 -94 -41
-42 -100 -42 -142 -1 -37 37 -37 55 1 93 28 27 36 30 77 25 25 -3 53 -13 63
-23z"/>
<path fill="#ffffff" stroke="none" d="M6172 9191 c312 -124 484 -236 584
-382 71 -102 163 -268 276 -499 96 -194 238 -503 263 -570 8 -19 30 -73 50
-120 20 -47 46 -111 58 -144 l22 -58 -39 -34 c-22 -19 -44 -34 -51 -34 -6 0
-17 28 -24 62 -19 92 -38 143 -78 206 -59 93 -157 214 -221 274 -68 62 -141
92 -302 124 -47 9 -86 18 -88 19 -5 4 17 152 39 270 26 143 39 257 39 355 0
134 -16 126 -23 -12 -7 -140 -25 -289 -37 -301 -4 -4 -10 25 -13 65 -18 192
-110 488 -182 582 -22 29 -18 12 9 -42 60 -121 114 -308 140 -485 16 -103 20
-343 7 -401 -6 -29 -7 -30 -71 -27 -36 1 -86 -2 -112 -7 -27 -5 -48 -8 -48 -6
0 3 14 29 31 60 29 51 31 60 26 122 -6 70 -40 209 -61 252 -10 21 -18 25 -46
22 -51 -4 -264 -34 -271 -38 -3 -2 5 -52 17 -111 13 -59 21 -109 19 -111 -2
-2 -30 18 -64 45 -71 58 -138 93 -175 93 -39 0 -152 -39 -362 -126 -100 -41
-183 -74 -185 -74 -8 0 33 285 44 308 6 13 48 61 92 106 65 67 91 87 140 105
70 27 230 39 313 23 29 -5 55 -6 57 -2 7 12 62 300 81 428 9 61 18 112 20 112
2 0 59 -22 126 -49z"/>
<path fill="#ffffff" stroke="none" d="M5508 8988 c-119 -212 -166 -299 -254
-465 -21 -40 -42 -73 -48 -73 -5 0 -117 58 -250 129 -336 180 -359 192 -651
341 -234 120 -318 167 -260 146 60 -22 274 -76 365 -92 81 -15 152 -19 315
-18 232 0 328 14 510 76 101 34 292 122 350 161 22 15 41 25 43 22 2 -2 -52
-104 -120 -227z"/>
<path fill="#ffffff" stroke="none" d="M6377 8355 c12 -55 25 -125 28 -155 6
-51 4 -59 -33 -120 -32 -52 -46 -66 -71 -71 -28 -6 -35 -2 -63 35 -18 22 -54
64 -80 93 -33 35 -48 60 -48 79 0 14 -9 67 -21 116 -12 49 -19 91 -17 93 7 7
204 33 243 31 l40 -1 22 -100z"/>
<path fill="#ffffff" stroke="none" d="M3805 8365 c32 -9 64 -20 71 -26 7 -6
52 -74 100 -152 96 -154 205 -277 283 -317 24 -12 41 -23 39 -26 -5 -4 -313
-54 -337 -54 -10 0 -12 10 -7 40 10 61 -11 127 -54 170 -41 41 -131 80 -185
80 -56 0 -48 16 18 36 34 9 54 19 45 21 -10 3 -51 -5 -93 -16 -41 -12 -77 -21
-79 -21 -2 0 -7 21 -11 47 -4 26 -13 60 -21 75 -19 36 -63 77 -91 84 -35 9
-27 21 25 38 107 36 212 43 297 21z"/>
<path fill="#ffffff" stroke="none" d="M5881 8329 c57 -20 150 -92 246 -193
102 -106 121 -134 101 -141 -7 -3 -46 -15 -86 -28 -44 -15 -79 -32 -88 -45
-12 -18 -19 -20 -34 -12 -31 17 -46 11 -20 -7 14 -9 26 -17 28 -19 6 -4 -50
-84 -59 -84 -4 0 -11 5 -14 10 -3 6 -11 10 -17 10 -6 0 -3 -9 7 -20 18 -20 18
-22 -3 -58 -12 -20 -29 -36 -37 -35 -11 0 -14 -4 -11 -13 5 -12 -10 -42 -51
-103 -1 -2 -14 11 -29 28 -36 43 -44 31 -10 -14 l27 -35 -76 -110 c-42 -61
-79 -110 -82 -110 -3 0 -12 8 -19 18 -16 21 -19 0 -4 -28 8 -15 -2 -34 -57
-107 -378 -499 -648 -742 -1320 -1188 -265 -176 -279 -184 -318 -180 -40 5
-40 5 -11 -8 l28 -14 -28 -22 c-15 -12 -34 -19 -43 -17 -43 12 -123 18 -117 8
3 -6 30 -13 58 -17 l53 -8 -34 -28 c-26 -21 -38 -26 -52 -19 -26 15 -33 12
-18 -6 12 -14 7 -22 -36 -60 -28 -24 -53 -44 -56 -44 -4 0 -19 18 -33 41 -15
22 -30 38 -33 35 -3 -3 6 -24 21 -46 31 -48 32 -52 6 -75 -19 -17 -22 -17 -59
-1 -34 16 -40 25 -56 77 -18 59 -35 85 -35 54 0 -8 7 -31 14 -50 16 -38 8 -44
-28 -20 -15 10 -26 30 -31 58 l-8 42 -6 -33 -6 -34 -41 30 c-37 27 -42 35 -47
83 -4 29 -12 57 -18 63 -9 8 -10 1 -5 -31 3 -23 9 -49 12 -58 6 -15 4 -16 -12
-7 -56 32 -134 104 -134 125 0 12 -5 29 -10 37 -8 12 -10 9 -10 -13 l0 -28
-35 26 c-28 22 -35 35 -40 73 -3 26 -10 61 -15 77 -7 23 -9 14 -5 -38 l4 -69
-72 64 c-233 203 -557 533 -557 567 0 27 104 231 155 306 206 299 528 579 840
730 164 80 323 123 600 165 542 81 713 132 1405 420 141 58 324 126 361 133
13 2 24 5 25 6 1 0 16 -4 35 -10z"/>
<path fill="#ffffff" stroke="none" d="M3480 8285 c16 -8 40 -30 54 -47 24
-33 51 -117 44 -138 -2 -6 -56 -33 -120 -59 -138 -57 -282 -134 -357 -190 -30
-23 -56 -39 -58 -37 -2 2 7 35 20 72 55 157 178 315 307 393 41 25 70 26 110
6z"/>
<path fill="#ffffff" stroke="none" d="M3734 8055 c150 -32 206 -100 198 -240
-2 -30 -4 -31 -86 -48 -46 -9 -123 -28 -170 -42 -101 -29 -167 -31 -335 -9
-128 16 -283 54 -287 70 -7 20 248 162 431 241 110 47 142 51 249 28z"/>
<path fill="#ffffff" stroke="none" d="M6770 7979 c164 -39 222 -78 344 -234
139 -177 162 -231 195 -455 28 -182 43 -237 34 -120 -11 137 -10 154 8 158 18
3 24 -43 36 -278 l6 -124 -29 19 -29 19 28 -33 c28 -34 31 -48 21 -100 l-7
-32 -38 42 c-22 23 -42 39 -46 35 -4 -3 14 -28 40 -54 39 -40 47 -54 47 -85 0
-20 -3 -37 -7 -37 -4 0 -31 26 -59 58 -29 31 -55 54 -58 51 -3 -3 21 -36 55
-73 l62 -67 -9 -62 -9 -62 -30 49 c-16 27 -31 44 -33 37 -2 -6 10 -33 27 -60
31 -48 36 -68 25 -107 -5 -18 -20 -25 -87 -39 -45 -9 -92 -19 -103 -22 -17 -3
-23 1 -28 21 -9 35 -24 33 -18 -3 5 -34 -27 -53 -43 -25 -18 31 -54 69 -55 57
0 -6 11 -25 25 -41 27 -32 26 -35 -16 -46 -22 -5 -31 0 -54 30 -15 19 -30 33
-33 30 -3 -4 4 -19 16 -36 12 -16 18 -31 13 -34 -5 -3 -66 -16 -137 -28 -188
-33 -513 -32 -664 1 -240 52 -524 173 -775 331 -71 44 -136 87 -142 93 -10 10
4 31 69 102 89 99 203 238 293 358 39 52 63 76 73 72 10 -4 12 0 8 11 -4 11 7
37 30 70 35 51 38 53 56 37 21 -18 23 -12 6 16 -10 16 -6 28 27 75 21 31 42
56 45 56 4 0 13 -7 20 -15 7 -8 17 -15 23 -15 6 0 1 10 -11 23 -28 29 -28 29
5 78 l27 41 18 -22 c25 -31 33 -20 12 17 -16 28 -16 30 10 72 27 41 28 42 51
27 36 -24 44 -18 11 8 l-28 23 28 42 c27 42 31 43 79 26 19 -6 19 -6 1 9 -10
8 -24 17 -29 19 -20 6 3 38 40 53 55 23 243 64 332 72 94 9 219 -2 331 -29z"/>
<path fill="#ffffff" stroke="none" d="M5296 6632 c8 -79 -2 -611 -17 -832
-17 -269 -40 -399 -129 -745 -44 -171 -157 -558 -193 -660 l-14 -40 -87 -14
c-47 -8 -89 -12 -91 -9 -3 2 15 65 39 139 120 364 197 638 245 874 48 236 81
684 81 1093 l0 226 41 42 42 43 38 -26 c36 -23 38 -28 45 -91z"/>
<path fill="#ffffff" stroke="none" d="M5455 6591 c258 -157 576 -273 831
-302 l102 -12 -96 -106 c-165 -183 -292 -366 -407 -584 -122 -233 -229 -535
-270 -760 l-18 -98 -42 7 c-37 5 -54 0 -146 -46 -57 -28 -115 -60 -131 -71
-32 -23 -48 -72 -48 -149 l0 -56 -57 -28 c-63 -31 -172 -76 -185 -76 -4 0 -8
6 -8 14 0 8 -5 16 -11 18 -6 2 6 51 31 128 60 180 163 544 205 722 20 84 41
161 46 172 10 18 18 79 40 300 16 169 27 537 23 790 l-4 228 27 -18 c16 -10
69 -42 118 -73z"/>
<path fill="#ffffff" stroke="none" d="M5114 6533 c-2 -60 -6 -202 -8 -318
-16 -630 -74 -964 -281 -1620 -32 -99 -63 -201 -71 -226 -11 -36 -20 -48 -40
-53 -14 -4 -33 -20 -42 -36 -16 -28 -18 -28 -83 -23 -37 2 -91 10 -121 17 -45
10 -53 15 -51 34 3 28 -30 46 -116 63 -62 12 -64 12 -82 -12 l-18 -24 -146 49
c-80 27 -147 52 -149 55 -2 3 4 40 12 82 22 106 16 114 -119 158 -57 18 -130
41 -162 52 -97 32 -171 20 -215 -36 l-22 -27 -47 34 c-46 33 -48 37 -55 94
-30 236 -75 425 -145 599 -59 149 -128 266 -380 648 -101 153 -183 280 -183
282 0 3 12 5 28 5 21 0 61 -32 182 -146 85 -81 188 -174 228 -207 43 -37 72
-69 72 -80 0 -15 3 -17 13 -9 17 14 72 -35 82 -74 6 -23 9 -25 14 -12 5 14 26
3 126 -68 76 -54 121 -94 123 -107 3 -16 6 -17 12 -6 8 12 15 11 42 -5 18 -11
36 -24 39 -29 7 -10 75 -37 95 -37 6 0 28 18 50 40 21 22 59 57 83 77 37 31
46 35 62 25 20 -13 26 -3 8 15 -18 18 67 73 115 74 23 1 31 4 19 6 -57 11 7
56 69 48 40 -4 41 -4 16 7 -16 7 -28 14 -27 17 0 3 106 76 235 161 354 233
602 417 754 558 36 34 70 61 76 62 7 0 10 -34 8 -107z"/>
<path fill="#ffffff" stroke="none" d="M5730 4939 l42 -31 -7 -56 c-27 -240
-107 -726 -135 -823 -8 -28 -19 -40 -50 -54 -53 -24 -61 -13 -22 28 18 18 36
48 41 65 6 18 10 170 11 340 2 286 4 316 28 435 15 77 30 127 37 127 7 0 31
-14 55 -31z"/>
<path fill="#ffffff" stroke="none" d="M3234 4914 c34 -17 35 -18 41 -100 6
-73 -6 -198 -22 -226 -2 -5 -18 -1 -34 8 -17 8 -51 18 -77 21 -65 7 -83 -11
-115 -122 -38 -127 -90 -346 -84 -352 6 -5 25 58 63 205 43 169 66 232 87 244
39 20 147 -11 147 -43 0 -40 -80 -389 -112 -488 l-10 -34 -59 6 c-32 3 -75 13
-96 24 l-38 18 -3 120 c-3 143 9 209 79 412 61 176 101 271 127 301 24 26 58
28 106 6z"/>
<path fill="#ffffff" stroke="none" d="M3711 4686 c198 -60 199 -60 199 -92 0
-14 -27 -162 -61 -328 -59 -296 -61 -302 -94 -333 -50 -48 -100 -52 -211 -15
-109 36 -233 97 -241 118 -6 16 14 204 22 213 3 2 16 -6 29 -18 44 -42 269
-106 321 -93 42 12 71 61 85 145 7 39 23 119 35 177 13 58 21 107 19 109 -8 8
-27 -62 -58 -212 -38 -183 -48 -201 -118 -199 -24 0 -81 12 -128 27 -152 48
-186 79 -169 155 74 320 85 351 142 375 49 22 72 19 228 -29z"/>
<path fill="#ffffff" stroke="none" d="M3386 4612 c-7 -20 -23 -82 -36 -137
-12 -55 -25 -112 -29 -127 l-6 -27 -43 27 c-33 21 -41 32 -37 47 3 11 17 83
31 160 14 77 27 146 30 153 2 8 20 1 53 -23 l50 -36 -13 -37z"/>
<path fill="#ffffff" stroke="none" d="M5564 4710 l26 -10 0 -214 0 -214 -39
-35 c-38 -34 -154 -107 -171 -107 -23 0 -30 49 -30 217 0 145 -3 183 -16 201
-8 12 -20 22 -25 22 -6 0 -3 -7 5 -16 13 -13 16 -45 16 -199 0 -191 7 -229 42
-241 20 -6 101 37 174 92 l44 34 0 -74 c0 -114 -8 -127 -127 -212 -91 -63
-111 -74 -147 -74 -23 0 -47 5 -54 12 -9 9 -12 98 -12 339 0 388 -12 354 153
435 118 58 122 59 161 44z"/>
<path fill="#ffffff" stroke="none" d="M4050 4361 c79 -27 146 -53 147 -58 4
-10 -54 -303 -61 -310 -2 -3 -70 16 -150 41 -126 40 -146 49 -146 67 0 34 55
309 62 309 2 0 68 -22 148 -49z"/>
<path fill="#ffffff" stroke="none" d="M5230 4205 c0 -213 10 -192 -115 -238
-106 -39 -229 -68 -321 -74 l-84 -6 0 55 c0 33 5 59 13 65 6 5 39 10 72 12 72
4 95 14 95 44 0 37 -19 47 -92 47 -75 0 -72 -3 -62 73 l7 46 71 11 c93 16 232
63 326 110 41 21 78 38 83 39 4 1 7 -82 7 -184z"/>
<path fill="#ffffff" stroke="none" d="M4352 4339 c20 -5 39 -13 42 -17 3 -5
-13 -102 -35 -217 -21 -115 -39 -211 -39 -213 0 -12 -149 24 -164 39 -2 2 4
47 15 99 11 52 28 143 39 202 10 59 22 112 25 118 7 11 45 7 117 -11z"/>
<path fill="#ffffff" stroke="none" d="M3273 4328 c18 -13 34 -24 35 -25 2 -1
-4 -56 -13 -122 -10 -66 -15 -131 -12 -143 4 -15 28 -36 66 -58 l59 -35 -16
-28 c-46 -79 -177 -160 -279 -173 -29 -4 -53 -4 -53 -1 0 35 53 254 65 267 20
22 46 103 76 232 13 60 28 108 32 108 4 0 22 -10 40 -22z"/>
<path fill="#ffffff" stroke="none" d="M4967 4314 c4 -12 -86 -40 -162 -50
-77 -10 -83 -16 -90 -89 -6 -55 -10 -65 -26 -65 -13 0 -19 7 -19 23 0 41 19
140 29 150 12 12 194 46 235 44 16 -1 31 -7 33 -13z"/>
<path fill="#ffffff" stroke="none" d="M4565 4236 l89 -11 -3 -50 c-4 -62 -6
-65 -41 -65 -29 0 -60 -22 -60 -42 0 -20 33 -48 57 -48 25 0 29 -19 16 -94
l-6 -38 -55 6 c-56 7 -204 35 -210 41 -1 1 8 58 22 126 13 68 27 141 31 162 6
37 7 38 38 31 18 -4 72 -12 122 -18z"/>
<path fill="#ffffff" stroke="none" d="M2284 4176 c36 -13 81 -35 99 -49 46
-35 45 -89 -2 -171 -19 -32 -40 -77 -47 -100 l-13 -41 0 63 c-1 34 -5 62 -11
62 -5 0 -24 -13 -43 -29 -71 -63 -125 -209 -112 -309 9 -73 -8 -60 -25 18 -7
33 -16 60 -21 60 -13 0 -22 -125 -14 -197 4 -36 13 -87 21 -112 7 -25 12 -47
10 -48 -4 -4 -63 74 -69 91 -2 6 -8 8 -12 4 -8 -7 13 -130 29 -173 14 -38 -64
58 -89 109 -40 84 -59 172 -59 281 l0 100 -13 -50 c-31 -114 -31 -114 -32 -20
-1 50 5 115 13 145 8 30 13 57 11 58 -2 2 -16 -15 -31 -37 -30 -45 -49 -54
-34 -17 24 64 66 133 108 179 26 28 39 48 30 44 -9 -3 -34 -9 -55 -12 l-38 -6
25 20 c34 28 120 68 176 82 26 7 79 9 125 6 70 -4 78 -3 68 10 -7 8 -30 23
-51 34 -72 37 -39 40 56 5z"/>
<path fill="#ffffff" stroke="none" d="M4865 4065 c0 -19 -8 -20 -128 -23
-130 -3 -179 7 -158 31 6 8 54 12 148 12 131 0 138 -1 138 -20z"/>
<path fill="#ffffff" stroke="none" d="M2643 4051 c119 -41 173 -78 361 -243
38 -33 39 -35 32 -81 -7 -47 -7 -47 -46 -47 -35 0 -44 6 -97 67 -192 223 -263
275 -385 281 -65 4 -68 5 -68 30 l0 25 73 -6 c39 -4 98 -15 130 -26z"/>
<path fill="#ffffff" stroke="none" d="M3965 4015 c61 -20 116 -38 124 -41 11
-3 10 -9 -7 -27 -54 -58 -52 -134 6 -190 43 -42 78 -57 132 -57 104 0 184 85
160 170 -5 17 -6 30 -3 30 3 0 45 -7 94 -16 73 -14 89 -20 85 -33 -3 -9 -10
-52 -16 -96 -28 -189 -111 -531 -162 -659 -26 -67 -14 -71 16 -5 60 137 145
495 172 722 5 46 10 57 25 57 10 0 24 -12 31 -27 11 -23 21 -29 61 -33 26 -3
48 -8 48 -13 4 -49 -83 -407 -129 -532 -52 -140 -71 -174 -110 -199 -41 -27
-117 -50 -132 -41 -6 3 -10 -1 -10 -10 0 -11 6 -15 18 -11 9 3 43 12 74 21 79
22 107 54 155 176 55 138 89 261 128 454 l31 160 80 12 c66 11 83 18 104 42
16 19 46 34 85 46 33 9 91 30 129 46 37 16 70 29 72 29 2 0 4 -19 4 -43 0 -66
20 -87 86 -87 l54 0 0 -43 c0 -104 57 -207 115 -207 14 0 27 -6 29 -12 2 -7
11 -110 20 -228 9 -118 24 -296 32 -395 10 -118 14 -240 11 -355 -5 -155 -10
-193 -41 -330 -100 -428 -116 -546 -98 -708 6 -54 18 -117 26 -140 l15 -42
-37 -19 c-99 -50 -244 -75 -329 -57 -29 7 -33 12 -43 64 -41 207 -145 481
-285 757 -117 231 -195 363 -353 599 -103 155 -111 170 -95 182 44 31 57 43
48 44 -25 0 -129 -81 -221 -175 -297 -302 -540 -843 -586 -1304 l-12 -121 -36
-11 c-64 -20 -218 -22 -294 -5 -89 21 -98 28 -84 68 21 60 3 248 -51 523 -58
293 -98 570 -107 739 l-7 114 96 3 c69 3 101 8 111 19 33 33 66 477 51 693
l-7 108 -34 14 c-19 8 -61 19 -94 26 -52 10 -60 15 -60 34 0 20 7 23 59 28 32
4 84 16 114 27 59 22 148 94 172 139 29 53 27 53 91 27 147 -59 235 -56 294
11 17 18 30 39 30 46 0 32 22 88 33 83 7 -2 62 -21 122 -41z"/>
<path fill="#ffffff" stroke="none" d="M4690 3946 c0 -41 5 -78 10 -81 10 -6
167 9 220 22 24 5 24 5 8 -12 -12 -13 -50 -22 -143 -33 -149 -18 -148 -19
-139 78 12 120 44 139 44 26z"/>
<path fill="#ffffff" stroke="none" d="M4125 3927 c-41 -58 -41 -98 2 -141 75
-75 197 -38 205 62 4 55 22 55 26 0 4 -54 -13 -85 -60 -109 -48 -25 -101 -24
-152 1 -54 27 -79 63 -80 116 -1 34 5 49 28 73 32 33 56 32 31 -2z"/>
<path fill="#ffffff" stroke="none" d="M5516 3944 c-3 -9 -6 -85 -6 -170 l0
-154 -32 13 c-46 19 -79 88 -86 175 l-4 68 53 41 c57 44 85 54 75 27z"/>
<path fill="#ffffff" stroke="none" d="M4225 3887 c68 -19 80 -26 83 -46 6
-36 -34 -71 -80 -71 -44 0 -93 22 -102 45 -10 27 -7 70 6 83 7 7 12 12 13 12
0 0 36 -11 80 -23z"/>
<path fill="#ffffff" stroke="none" d="M3135 3632 l79 -17 8 -40 c5 -22 7 -67
6 -100 -3 -52 -6 -61 -28 -72 -14 -7 -80 -42 -148 -79 -68 -36 -125 -64 -127
-63 -2 2 -15 43 -28 91 l-26 87 20 97 c28 136 25 133 101 122 35 -5 99 -16
143 -26z"/>
<path fill="#ffffff" stroke="none" d="M5711 3489 c12 -120 10 -259 -3 -259
-23 0 -117 72 -137 104 -13 21 -21 60 -26 123 l-6 92 73 3 c40 2 78 3 83 3 6
-1 13 -30 16 -66z"/>
<path fill="#ffffff" stroke="none" d="M3217 3193 c-8 -234 -21 -342 -45 -361
-35 -28 -252 1 -307 42 -19 14 -20 26 -18 218 0 112 5 223 10 248 l9 45 23
-73 c20 -62 23 -85 18 -165 l-6 -92 13 84 c8 46 21 90 29 98 17 17 257 153
271 153 5 0 6 -82 3 -197z"/>
<path fill="#ffffff" stroke="none" d="M5686 3216 l39 -13 -2 -119 c-4 -178
-8 -200 -42 -214 -16 -6 -42 -10 -57 -8 l-29 3 -12 150 c-6 83 -14 181 -18
219 l-6 69 44 -37 c24 -20 62 -42 83 -50z"/>
<path fill="#ffffff" stroke="none" d="M5494 1364 c4 -9 1 -22 -5 -30 -18 -22
-156 -74 -236 -90 -130 -25 -153 -19 -166 37 l-7 26 88 -5 c95 -5 202 18 265
57 40 24 53 25 61 5z"/>
<path fill="#ffffff" stroke="none" d="M3375 1325 c92 0 127 4 152 16 38 20
43 17 43 -32 l0 -37 -77 -8 c-91 -8 -277 10 -334 32 -21 9 -39 18 -39 19 0 2
4 15 10 29 l9 25 58 -22 c47 -17 80 -21 178 -22z"/>
<path fill="#ffffff" stroke="none" d="M5570 1266 c47 -8 129 -20 183 -27 54
-6 96 -14 95 -18 -31 -61 -43 -70 -83 -66 -22 2 -32 2 -22 -1 24 -8 21 -17
-12 -36 -33 -18 -96 -108 -107 -151 -8 -33 -10 -33 -172 14 -154 45 -258 87
-292 119 -26 24 -31 36 -28 67 l3 37 80 12 c88 12 176 36 215 59 14 8 32 12
40 10 8 -2 53 -11 100 -19z"/>
<path fill="#ffffff" stroke="none" d="M3265 1249 c36 -6 115 -10 175 -7 l109
3 -6 -25 c-16 -72 -133 -304 -172 -343 -4 -4 -34 10 -67 32 -71 47 -169 82
-235 83 -27 1 -49 4 -49 7 0 4 14 23 31 44 44 53 18 46 -28 -8 l-39 -46 -34
18 c-23 11 -57 17 -97 17 -35 0 -63 2 -63 6 0 13 98 99 144 126 73 42 239 114
254 109 7 -3 42 -10 77 -16z"/>
<path fill="#ffffff" stroke="none" d="M5983 1191 c134 -46 285 -160 342 -257
15 -25 25 -47 23 -49 -1 -2 -42 23 -90 55 -86 56 -293 156 -389 187 -44 15
-47 17 -37 37 27 50 63 57 151 27z"/>
<path fill="#ffffff" stroke="none" d="M5911 1090 c169 -68 429 -209 429 -232
0 -13 -228 -9 -340 7 -107 14 -360 61 -367 68 -2 2 5 25 16 50 25 59 109 147
140 147 13 0 68 -18 122 -40z"/>
<path fill="#ffffff" stroke="none" d="M2922 1000 c21 -6 40 -15 43 -20 3 -5
-15 -40 -39 -79 -83 -129 -143 -262 -180 -401 l-23 -84 -19 49 c-26 68 -26
261 0 355 28 103 65 178 90 183 41 8 91 7 128 -3z"/>
<path fill="#ffffff" stroke="none" d="M3197 943 c68 -27 153 -78 153 -91 0
-12 -124 -157 -185 -216 -139 -135 -339 -243 -403 -219 -19 8 -18 11 18 118
55 162 115 285 198 408 l26 39 66 -7 c36 -4 93 -18 127 -32z"/>
<path fill="#000000" stroke="none" d="M4291 11455 c0 -5 6 -19 14 -29 8 -11
15 -15 15 -10 0 6 -7 19 -15 30 -8 10 -14 15 -14 9z"/>
<path fill="#000000" stroke="none" d="M3985 11440 c-7 -12 12 -12 40 0 18 8
17 9 -7 9 -15 1 -30 -3 -33 -9z"/>
<path fill="#000000" stroke="none" d="M4190 11441 c0 -10 30 -24 37 -17 3 2
-5 9 -16 16 -12 6 -21 7 -21 1z"/>
<path fill="#000000" stroke="none" d="M4771 11419 c-18 -11 -31 -22 -28 -25
3 -3 23 6 44 20 45 31 33 35 -16 5z"/>
<path fill="#000000" stroke="none" d="M4950 11420 c0 -5 11 -10 25 -10 14 0
25 5 25 10 0 6 -11 10 -25 10 -14 0 -25 -4 -25 -10z"/>
<path fill="#000000" stroke="none" d="M4100 11400 c19 -13 30 -13 30 0 0 6
-10 10 -22 10 -19 0 -20 -2 -8 -10z"/>
<path fill="#000000" stroke="none" d="M4003 11373 c9 -2 25 -2 35 0 9 3 1 5
-18 5 -19 0 -27 -2 -17 -5z"/>
<path fill="#000000" stroke="none" d="M4763 11328 c-23 -30 -24 -41 -2 -21
12 12 20 25 17 28 -3 3 -10 0 -15 -7z"/>
<path fill="#000000" stroke="none" d="M4314 11315 c11 -8 22 -12 25 -9 6 6
-19 24 -34 24 -5 -1 -1 -7 9 -15z"/>
<path fill="#000000" stroke="none" d="M4419 11306 c14 -14 27 -26 29 -26 10
0 -26 44 -39 48 -8 3 -3 -7 10 -22z"/>
<path fill="#000000" stroke="none" d="M4881 11314 c-19 -8 -32 -17 -29 -20 7
-6 78 22 78 30 0 9 -12 7 -49 -10z"/>
<path fill="#000000" stroke="none" d="M4510 11281 c0 -5 7 -15 17 -22 15 -13
15 -12 4 9 -12 23 -21 28 -21 13z"/>
<path fill="#000000" stroke="none" d="M4320 11258 c87 -38 181 -85 217 -110
46 -31 62 -36 43 -12 -20 23 -137 88 -203 113 -59 21 -102 28 -57 9z"/>
<path fill="#000000" stroke="none" d="M2430 11239 c-22 -41 -55 -174 -42
-165 6 3 13 23 17 43 4 21 15 62 25 91 19 54 19 67 0 31z"/>
<path fill="#000000" stroke="none" d="M4870 11240 c-24 -8 -24 -8 5 -8 17 0
41 4 55 8 24 8 24 8 -5 8 -16 0 -41 -4 -55 -8z"/>
<path fill="#000000" stroke="none" d="M6102 11235 c9 -29 90 -176 94 -172 6
6 -58 134 -81 162 -9 11 -15 16 -13 10z"/>
<path fill="#000000" stroke="none" d="M5063 11176 c-82 -39 -188 -105 -181
-112 3 -2 36 14 74 37 38 23 100 57 138 75 39 19 64 34 55 34 -8 0 -47 -15
-86 -34z"/>
<path fill="#000000" stroke="none" d="M4131 11175 c-77 -14 -202 -56 -184
-62 6 -2 35 5 64 17 30 11 98 26 151 32 123 15 194 3 298 -49 96 -48 97 -49
83 -32 -22 27 -138 79 -208 94 -83 17 -107 17 -204 0z"/>
<path fill="#000000" stroke="none" d="M2351 11164 c0 -11 3 -14 6 -6 3 7 2
16 -1 19 -3 4 -6 -2 -5 -13z"/>
<path fill="#000000" stroke="none" d="M2341 11050 c0 -36 8 -108 19 -160 11
-52 20 -96 20 -98 0 -2 -4 0 -10 3 -17 11 -11 -3 35 -83 27 -45 75 -106 117
-147 78 -76 74 -64 -10 30 -30 33 -64 78 -77 100 -31 53 -63 180 -80 313 -12
101 -13 103 -14 42z"/>
<path fill="#000000" stroke="none" d="M6139 11012 c2 -47 7 -95 12 -107 6
-13 7 16 4 80 -3 55 -9 103 -13 107 -4 4 -5 -32 -3 -80z"/>
<path fill="#000000" stroke="none" d="M6214 10977 c0 -67 3 -108 7 -92 10 44
10 203 1 209 -4 3 -8 -50 -8 -117z"/>
<path fill="#000000" stroke="none" d="M5073 11074 c-63 -13 -156 -55 -168
-75 -4 -6 10 -2 31 9 51 26 169 62 203 62 14 0 33 5 41 10 22 14 -30 11 -107
-6z"/>
<path fill="#000000" stroke="none" d="M4065 11056 c-5 -2 -53 -14 -105 -26
-83 -20 -276 -97 -267 -107 2 -2 33 9 68 25 35 16 109 42 164 58 91 26 114 29
245 28 96 0 175 -6 234 -18 48 -9 90 -15 93 -12 2 2 -22 9 -54 15 -32 7 -78
16 -103 22 -46 11 -257 22 -275 15z"/>
<path fill="#000000" stroke="none" d="M4725 11020 c4 -6 15 -41 26 -77 l19
-67 -31 35 c-16 19 -29 30 -27 24 6 -19 83 -135 90 -135 4 0 -3 33 -14 73 -11
39 -21 81 -22 92 -2 26 -24 65 -37 65 -6 0 -7 -5 -4 -10z"/>
<path fill="#000000" stroke="none" d="M2225 10935 c4 -83 30 -193 56 -235 12
-18 10 -10 -22 105 -12 44 -26 112 -30 150 -7 67 -8 66 -4 -20z"/>
<path fill="#000000" stroke="none" d="M5170 11013 c-61 -10 -181 -46 -187
-56 -4 -7 2 -8 18 -2 52 16 196 45 234 46 22 1 54 5 70 9 22 6 11 8 -40 7 -38
0 -81 -2 -95 -4z"/>
<path fill="#000000" stroke="none" d="M2276 10960 c4 -25 15 -71 25 -104 27
-83 23 -91 -11 -21 -16 33 -29 57 -30 54 -1 -14 30 -91 73 -180 55 -115 86
-159 51 -72 -13 34 -45 131 -69 215 -25 84 -43 133 -39 108z"/>
<path fill="#000000" stroke="none" d="M6176 10888 c-4 -21 -14 -44 -22 -53
-10 -10 -14 -24 -10 -40 9 -35 -14 -82 -68 -142 -27 -29 -43 -53 -37 -53 5 0
25 18 42 40 22 28 35 36 40 28 5 -8 13 -5 28 13 27 32 94 159 84 159 -4 0 -26
-34 -47 -75 -22 -41 -41 -73 -43 -72 -1 2 9 50 23 106 14 57 23 108 21 114 -2
7 -7 -5 -11 -25z"/>
<path fill="#000000" stroke="none" d="M6080 10829 c-42 -85 -60 -102 -125
-123 -36 -11 -41 -14 -16 -11 34 5 34 5 16 -15 -29 -32 -2 -23 49 16 36 27 56
54 82 110 46 95 40 115 -6 23z"/>
<path fill="#000000" stroke="none" d="M2421 10797 c-1 -4 12 -33 28 -65 29
-57 81 -113 154 -167 65 -48 50 -21 -19 34 -38 31 -81 78 -102 111 -21 32 -42
66 -49 76 -6 11 -12 15 -12 11z"/>
<path fill="#000000" stroke="none" d="M6120 10782 c0 -4 -20 -36 -45 -70 -53
-72 -59 -91 -12 -39 40 46 81 117 67 117 -5 0 -10 -4 -10 -8z"/>
<path fill="#000000" stroke="none" d="M5120 10721 c-43 -14 -88 -40 -144 -86
l-55 -44 -16 55 c-9 31 -18 54 -21 51 -3 -3 -1 -22 5 -44 6 -21 11 -72 11
-114 0 -65 4 -81 28 -120 47 -72 58 -78 126 -69 104 15 150 69 149 179 0 36 1
60 4 53 9 -24 23 0 23 41 0 39 -19 82 -44 99 -13 9 -33 9 -66 -1z"/>
<path fill="#ffffff" stroke="none" d="M5190 10688 c11 -12 20 -33 20 -47 l0
-25 -16 22 c-8 12 -23 22 -32 22 -31 0 -126 -62 -184 -121 -56 -55 -58 -56
-59 -31 -2 46 2 56 29 78 15 12 38 32 52 44 36 32 123 74 162 79 4 1 16 -9 28
-21z"/>
<path fill="#ffffff" stroke="none" d="M5171 10598 c17 -41 16 -116 -2 -153
-39 -80 -154 -100 -212 -35 -26 29 -27 33 -13 49 9 10 16 23 16 29 0 18 14 14
28 -8 17 -28 58 -26 78 5 11 18 15 38 11 65 -5 40 5 55 17 24 29 -75 -35 -155
-99 -126 -14 7 -27 7 -30 2 -7 -11 52 -23 86 -18 37 5 72 65 64 108 -11 56
-11 73 1 77 11 4 34 -60 34 -97 0 -38 -30 -88 -61 -100 -28 -12 -67 -10 -101
5 -11 4 -18 3 -18 -4 0 -18 51 -33 94 -28 53 7 93 48 102 103 6 39 2 60 -21
117 -4 9 -3 17 3 17 5 0 15 -14 23 -32z"/>
<path fill="#000000" stroke="none" d="M4275 10691 c-48 -12 -77 -30 -127 -79
-52 -50 -59 -63 -30 -55 16 4 18 0 14 -26 -11 -75 40 -182 108 -227 53 -35
159 -45 224 -20 64 25 122 70 148 116 20 34 28 40 56 40 44 0 85 23 100 55 17
36 17 35 -33 35 -53 0 -124 27 -219 83 -129 76 -182 93 -241 78z"/>
<path fill="#ffffff" stroke="none" d="M4429 10636 c66 -42 196 -104 240 -116
24 -6 54 -9 67 -6 32 8 30 -8 -2 -33 -52 -41 -116 -26 -251 56 -41 25 -99 56
-129 70 -49 22 -59 24 -105 14 -28 -6 -59 -16 -70 -21 -36 -20 -19 7 22 34 74
49 152 50 228 2z"/>
<path fill="#ffffff" stroke="none" d="M4300 10597 c0 -7 -5 -18 -12 -25 -19
-19 -14 -96 11 -135 24 -40 91 -77 137 -77 35 0 104 30 123 53 18 23 3 21 -36
-2 -53 -33 -96 -36 -149 -11 -36 18 -51 32 -66 67 -17 40 -18 49 -6 85 14 44
25 53 47 39 12 -8 12 -14 1 -40 -16 -39 -6 -78 28 -113 36 -39 107 -40 142 -3
27 28 17 34 -13 8 -11 -11 -35 -18 -59 -18 -31 0 -45 6 -64 28 -33 39 -32 117
2 117 11 0 13 -9 8 -39 -5 -31 -2 -43 15 -60 27 -27 59 -27 87 0 21 19 24 20
53 5 17 -9 31 -21 31 -26 0 -5 6 -7 14 -4 32 12 23 -17 -19 -64 -62 -69 -133
-96 -225 -88 -109 10 -179 78 -196 192 -11 73 -1 89 58 107 67 19 88 20 88 4z"/>
<path fill="#000000" stroke="none" d="M4880 10340 c36 -34 74 -66 85 -72 33
-17 -82 96 -118 116 -23 13 -15 1 33 -44z"/>
<path fill="#000000" stroke="none" d="M4657 10326 c-64 -27 -119 -60 -185
-114 -63 -51 -45 -49 34 4 114 77 190 109 259 109 47 0 67 -5 94 -24 30 -22
32 -22 23 -4 -16 29 -73 53 -124 53 -23 0 -69 -11 -101 -24z"/>
<path fill="#000000" stroke="none" d="M4960 10342 c0 -5 14 -21 30 -37 35
-34 39 -26 8 15 -21 29 -38 39 -38 22z"/>
<path fill="#000000" stroke="none" d="M5029 10320 c13 -11 27 -20 32 -20 18
0 8 10 -23 25 l-33 16 24 -21z"/>
<path fill="#000000" stroke="none" d="M4375 10228 c-45 -15 -76 -18 -125 -15
-50 4 -59 3 -40 -5 43 -17 134 -12 184 10 25 12 46 23 46 26 0 3 -1 6 -2 5 -2
-1 -30 -10 -63 -21z"/>
<path fill="#000000" stroke="none" d="M3490 9589 c124 -110 467 -299 615
-339 213 -57 571 -79 740 -45 l70 14 -60 -4 c-33 -2 -100 -7 -150 -10 -182
-13 -528 31 -672 85 -89 33 -233 109 -353 186 -63 41 -140 90 -170 110 l-55
35 35 -32z"/>
<path fill="#000000" stroke="none" d="M3494 9481 c8 -13 154 -112 231 -156
200 -115 466 -218 645 -250 52 -9 174 -19 270 -22 265 -8 433 25 634 123 101
50 230 135 296 195 l45 41 -50 -36 c-249 -179 -410 -254 -619 -291 -104 -18
-369 -20 -496 -4 -81 10 -253 49 -302 68 -13 5 -61 24 -108 42 -154 61 -392
187 -495 263 -45 33 -59 41 -51 27z"/>
<path fill="#000000" stroke="none" d="M3767 10413 c-4 -3 -7 -17 -7 -30 0
-35 -26 -81 -51 -88 -11 -4 -42 -4 -67 -1 -47 5 -47 5 -17 -9 62 -29 129 -7
139 45 3 16 9 44 12 60 6 30 3 36 -9 23z"/>
<path fill="#000000" stroke="none" d="M5300 10370 c0 -44 74 -91 142 -89 43
1 43 1 -19 15 -48 12 -69 23 -92 50 -17 19 -31 30 -31 24z"/>
<path fill="#000000" stroke="none" d="M5210 10127 c-32 -15 -70 -90 -70 -137
0 -88 71 -145 128 -103 34 24 61 100 62 170 0 48 -2 54 -30 68 -35 18 -57 19
-90 2z"/>
<path fill="#ffffff" stroke="none" d="M5300 10085 c20 -61 -7 -162 -50 -185
-30 -16 -59 -3 -77 35 -35 73 17 185 85 185 26 0 32 -5 42 -35z"/>
<path fill="#000000" stroke="none" d="M4705 10076 c-37 -17 -80 -62 -67 -70
6 -3 10 -26 10 -51 0 -92 70 -165 159 -165 76 0 132 74 120 161 -13 101 -129
166 -222 125z"/>
<path fill="#ffffff" stroke="none" d="M4830 10055 c62 -32 92 -104 70 -169
-32 -99 -161 -101 -211 -4 -21 41 -25 118 -8 149 20 38 97 51 149 24z"/>
<path fill="#000000" stroke="none" d="M3129 9378 c-1 -5 -3 -12 -4 -18 -1 -5
-3 -20 -4 -33 0 -14 -11 -29 -26 -37 -32 -17 -31 -23 4 -37 20 -7 31 -20 36
-42 8 -38 18 -39 34 -5 10 22 16 25 41 19 34 -7 37 0 14 34 -13 18 -14 28 -5
47 20 44 15 54 -20 41 -27 -11 -32 -10 -49 13 -11 14 -20 22 -21 18z"/>
<path fill="#ffffff" stroke="none" d="M3188 9322 c18 18 25 3 10 -21 -10 -16
-10 -23 0 -33 17 -17 15 -29 -4 -21 -10 4 -20 0 -26 -10 -11 -21 -30 -23 -22
-3 3 9 -5 20 -22 29 -27 14 -27 15 -6 21 15 5 22 15 22 33 0 25 1 25 18 10 14
-13 21 -14 30 -5z"/>
<path fill="#000000" stroke="none" d="M3260 9185 c0 -26 -6 -39 -25 -51 -33
-21 -32 -31 4 -39 24 -5 30 -13 36 -43 l7 -37 20 28 c14 19 29 27 49 27 29 0
29 0 14 29 -11 22 -12 37 -5 56 15 40 12 45 -22 33 -28 -10 -33 -9 -46 10 -21
32 -32 27 -32 -13z"/>
<path fill="#ffffff" stroke="none" d="M3324 9166 c13 5 15 1 10 -24 -4 -17
-1 -32 5 -36 18 -12 12 -24 -9 -19 -12 3 -22 -1 -26 -11 -8 -21 -26 -21 -22 1
2 10 -7 22 -21 29 l-23 12 21 11 c11 7 21 21 21 33 0 16 3 18 14 9 7 -6 21 -9
30 -5z"/>
<path fill="#000000" stroke="none" d="M3410 9017 c0 -26 -6 -37 -25 -47 -32
-17 -32 -25 4 -40 20 -8 32 -21 36 -41 8 -35 12 -36 36 -5 13 17 25 22 44 19
29 -6 31 -1 9 32 -14 21 -14 30 -4 55 15 37 8 47 -24 32 -20 -9 -27 -7 -42 9
-25 27 -34 24 -34 -14z"/>
<path fill="#ffffff" stroke="none" d="M3479 9000 c24 12 26 8 9 -20 -10 -15
-10 -22 0 -32 18 -18 15 -30 -6 -24 -13 5 -22 -1 -30 -16 l-11 -23 0 23 c-1
15 -10 26 -28 33 l-28 11 23 11 c14 6 22 19 22 36 1 24 2 25 14 8 12 -15 18
-16 35 -7z"/>
<path fill="#000000" stroke="none" d="M3580 8837 c0 -30 -5 -39 -30 -52 -16
-9 -30 -18 -30 -20 0 -3 16 -11 35 -19 29 -13 35 -20 35 -45 0 -38 12 -40 30
-5 11 20 20 25 42 22 32 -5 32 -5 16 38 -9 26 -9 39 1 60 15 33 11 37 -24 24
-24 -9 -32 -7 -52 11 l-23 22 0 -36z"/>
<path fill="#ffffff" stroke="none" d="M3610 8819 c0 -7 10 -9 25 -5 27 7 32
-3 13 -22 -9 -9 -7 -16 6 -31 10 -11 13 -21 7 -25 -5 -4 -13 -1 -17 5 -5 8
-13 4 -25 -12 l-19 -24 0 23 c0 14 -8 26 -22 31 -20 8 -21 10 -5 16 9 4 17 18
17 31 0 13 5 24 10 24 6 0 10 -5 10 -11z"/>
<path fill="#000000" stroke="none" d="M2230 8337 c-194 -70 -396 -235 -484
-397 l-26 -48 83 -164 c112 -221 165 -302 217 -328 45 -23 204 -50 297 -50 55
0 64 3 83 27 36 46 118 220 146 308 26 83 26 84 9 137 -24 72 -113 299 -169
428 -52 122 -55 123 -156 87z"/>
<path fill="#ffffff" stroke="none" d="M2416 8130 c112 -284 134 -354 122
-399 -18 -69 -81 -222 -122 -294 l-41 -72 -60 3 c-88 4 -198 21 -257 40 -45
15 -58 25 -94 77 -23 33 -83 138 -134 233 l-92 174 18 34 c34 62 148 188 225
246 130 99 321 190 346 165 6 -7 46 -100 89 -207z"/>
<path fill="#000000" stroke="none" d="M2219 8245 c-78 -27 -96 -36 -170 -87
-65 -44 -200 -182 -224 -228 -16 -32 -16 -33 29 -127 64 -133 167 -303 193
-320 12 -8 40 -17 62 -20 36 -5 45 -1 89 35 40 33 151 103 242 151 8 4 23 33
33 64 19 55 19 56 -3 129 -48 154 -154 407 -177 421 -5 3 -38 -5 -74 -18z"/>
<path fill="#ffffff" stroke="none" d="M2303 8233 c3 -10 27 -70 53 -133 85
-210 116 -310 110 -358 -9 -64 -19 -77 -92 -111 -70 -33 -176 -104 -208 -140
-11 -11 -27 -21 -37 -21 -34 0 -84 31 -107 66 -30 46 -28 47 14 8 39 -37 60
-42 90 -19 18 13 16 14 -16 9 -32 -5 -40 -2 -72 34 -38 42 -102 164 -113 217
-5 21 5 10 34 -38 22 -37 56 -86 75 -108 33 -39 96 -92 103 -86 1 2 -28 34
-65 73 -48 48 -82 96 -115 161 -26 50 -47 98 -47 107 0 9 -4 16 -10 16 -5 0
-10 -6 -10 -13 0 -35 23 -131 41 -173 38 -86 12 -55 -50 61 l-63 115 51 64
c94 118 196 198 321 253 86 37 105 40 113 16z"/>
<path fill="#000000" stroke="none" d="M2207 8127 c79 -90 148 -235 164 -343
14 -94 31 -123 23 -40 -7 78 -46 200 -83 257 -16 26 -34 57 -41 70 -11 24 -11
24 10 -1 72 -86 131 -200 146 -280 9 -49 9 -47 -2 -75 -7 -18 -6 -19 10 -5 59
47 -74 332 -195 420 -55 39 -68 38 -32 -3z"/>
<path fill="#000000" stroke="none" d="M2170 8085 c-7 -8 -26 -15 -42 -15 -69
0 -121 -49 -153 -143 -19 -55 -13 -96 22 -170 68 -140 161 -189 263 -137 36
18 117 117 88 108 -7 -3 -25 -22 -39 -43 -32 -46 -62 -64 -111 -65 -37 0 -37
0 -31 33 8 43 10 44 34 14 11 -15 26 -27 32 -27 16 1 52 29 45 35 -3 3 -13 -2
-23 -12 -17 -16 -19 -16 -44 13 -15 16 -35 36 -45 44 -16 13 -18 12 -16 -5 4
-39 0 -75 -9 -75 -22 0 -112 96 -136 145 -25 50 -26 58 -17 119 11 67 38 118
72 136 25 13 30 13 30 -3 0 -8 10 -22 21 -33 19 -17 21 -27 16 -94 -5 -79 -22
-130 -43 -130 -7 0 -29 19 -48 42 -22 25 -36 35 -36 26 0 -23 76 -89 95 -82
30 12 45 60 45 145 0 71 -3 86 -21 106 -21 21 -21 23 -4 29 10 4 26 2 36 -4
26 -17 29 -15 29 14 0 19 4 25 18 22 13 -3 16 -12 14 -37 -2 -19 1 -31 6 -27
25 15 100 -106 109 -176 5 -39 1 -33 -47 60 -28 57 -54 101 -56 99 -3 -3 20
-58 50 -122 31 -65 56 -121 56 -126 0 -5 5 -9 10 -9 17 0 11 83 -11 147 -12
37 -37 80 -60 106 -21 25 -39 54 -39 66 0 11 -9 25 -19 31 -25 13 -26 13 -41
-5z"/>
<path fill="#000000" stroke="none" d="M2327 7548 c-64 -35 -135 -93 -126
-102 10 -10 122 -26 140 -21 16 5 41 51 65 118 12 33 11 37 -4 37 -9 0 -43
-15 -75 -32z"/>
<path fill="#ffffff" stroke="none" d="M2374 7503 c-14 -32 -29 -61 -32 -64
-4 -3 -34 0 -67 6 l-60 11 80 52 c43 29 85 52 91 52 9 0 5 -19 -12 -57z"/>
<path fill="#000000" stroke="none" d="M3000 7670 c-113 -9 -218 -29 -226 -42
-4 -6 1 -8 12 -4 52 15 209 26 389 26 116 0 194 4 185 9 -23 13 -252 20 -360
11z"/>
<path fill="#000000" stroke="none" d="M3055 7535 c-251 -46 -514 -147 -660
-255 -82 -61 -86 -78 -5 -23 171 115 373 194 675 264 123 28 116 37 -10 14z"/>
<path fill="#000000" stroke="none" d="M5790 9163 c0 -27 -20 -43 -53 -43
l-29 0 25 -30 c21 -25 25 -37 20 -67 l-6 -37 27 18 c25 16 29 16 45 2 28 -26
40 -20 34 18 -4 27 -1 36 18 50 20 14 22 18 9 26 -8 5 -22 10 -31 10 -9 0 -22
14 -29 30 -15 37 -30 48 -30 23z"/>
<path fill="#ffffff" stroke="none" d="M5810 9115 c0 -8 12 -18 27 -21 24 -6
25 -8 8 -20 -11 -8 -16 -21 -12 -34 6 -22 -3 -26 -21 -8 -8 8 -15 8 -28 -3
-16 -13 -17 -12 -11 12 5 18 2 31 -8 39 -21 18 -19 29 5 23 14 -4 20 0 20 11
0 9 5 16 10 16 6 0 10 -7 10 -15z"/>
<path fill="#000000" stroke="none" d="M5713 8951 c-8 -23 -18 -30 -43 -33
l-32 -3 22 -28 c12 -15 21 -39 20 -55 -3 -42 -2 -44 23 -27 22 14 26 14 50 -6
29 -22 30 -21 27 26 -1 20 6 37 19 49 24 22 19 36 -14 36 -19 0 -28 9 -39 35
-8 19 -16 35 -18 35 -2 0 -9 -13 -15 -29z"/>
<path fill="#ffffff" stroke="none" d="M5740 8916 c0 -16 27 -29 41 -20 5 3 9
1 9 -5 0 -5 -7 -14 -16 -19 -11 -6 -15 -17 -11 -31 6 -23 -3 -27 -21 -9 -8 8
-15 8 -28 -3 -16 -13 -17 -12 -11 11 5 18 0 31 -16 48 l-22 24 23 -6 c15 -5
24 -3 28 8 8 20 24 21 24 2z"/>
<path fill="#000000" stroke="none" d="M4040 6061 c24 -13 90 -23 90 -13 0 9
-56 22 -90 22 -13 -1 -13 -2 0 -9z"/>
<path fill="#000000" stroke="none" d="M3700 5985 c0 -16 49 -85 61 -85 12 0
-1 23 -36 65 -14 17 -25 25 -25 20z"/>
<path fill="#000000" stroke="none" d="M3965 5980 c3 -5 25 -10 48 -9 36 1 38
2 17 9 -36 12 -72 12 -65 0z"/>
<path fill="#000000" stroke="none" d="M3450 5962 c0 -17 60 -135 66 -129 6 5
-31 91 -51 120 -8 12 -15 16 -15 9z"/>
<path fill="#000000" stroke="none" d="M7314 7055 c22 -19 42 -32 45 -29 7 7
-59 64 -74 63 -5 0 8 -15 29 -34z"/>
<path fill="#000000" stroke="none" d="M7176 6658 c10 -18 19 -28 21 -21 5 15
-15 53 -28 53 -5 0 -2 -15 7 -32z"/>
<path fill="#000000" stroke="none" d="M6970 6633 c0 -5 9 -18 20 -28 11 -10
20 -14 20 -8 0 5 -9 18 -20 28 -11 10 -20 14 -20 8z"/>
<path fill="#000000" stroke="none" d="M2896 5893 c116 -201 342 -476 526
-639 59 -53 167 -129 173 -122 2 2 -26 26 -63 53 -179 132 -455 444 -616 698
-44 69 -59 76 -20 10z"/>
<path fill="#000000" stroke="none" d="M3170 5615 c109 -133 503 -425 722
-534 122 -61 115 -55 -57 47 -209 123 -383 252 -640 474 -37 32 -44 36 -25 13z"/>
<path fill="#000000" stroke="none" d="M5685 4880 c-13 -6 -15 -9 -5 -9 8 0
22 4 30 9 18 12 2 12 -25 0z"/>
<path fill="#000000" stroke="none" d="M3500 4402 c-55 -17 -69 -89 -24 -118
33 -22 72 -10 94 29 13 24 13 30 0 53 -16 29 -46 44 -70 36z"/>
<path fill="#ffffff" stroke="none" d="M3553 4369 c16 -26 0 -68 -29 -75 -29
-7 -64 18 -64 47 0 44 70 65 93 28z"/>
<path fill="#000000" stroke="none" d="M3705 4045 c-4 -25 -5 -48 -2 -51 3 -3
9 15 12 41 4 25 5 48 2 51 -3 3 -9 -15 -12 -41z"/>
<path fill="#000000" stroke="none" d="M5466 4387 c-23 -16 -27 -87 -7 -111
18 -22 48 -20 61 3 15 29 12 87 -6 105 -19 19 -25 20 -48 3z"/>
<path fill="#ffffff" stroke="none" d="M5514 4357 c13 -21 -4 -71 -26 -75 -21
-4 -34 49 -18 78 13 23 28 22 44 -3z"/>
<path fill="#000000" stroke="none" d="M5333 4015 c0 -38 2 -53 4 -32 2 20 2
52 0 70 -2 17 -4 1 -4 -38z"/>
<path fill="#000000" stroke="none" d="M4955 3209 c-35 -24 -206 -106 -288
-139 -32 -12 -55 -25 -53 -28 15 -15 327 131 362 169 21 23 17 23 -21 -2z"/>
<path fill="#000000" stroke="none" d="M3585 3153 c70 -36 302 -111 366 -117
46 -5 40 -2 -48 23 -133 38 -225 68 -295 97 -75 31 -86 30 -23 -3z"/>
<path fill="#000000" stroke="none" d="M4035 3020 c11 -5 29 -9 40 -9 17 -1
17 1 5 9 -8 5 -26 9 -40 9 -23 0 -23 -1 -5 -9z"/>
<path fill="#000000" stroke="none" d="M4625 2959 c43 -14 339 -23 405 -11 45
7 26 9 -105 9 -88 0 -198 3 -245 6 -63 5 -77 4 -55 -4z"/>
<path fill="#000000" stroke="none" d="M3810 2940 c-41 -4 -140 -9 -220 -10
-123 -2 -138 -4 -95 -12 63 -11 309 -1 395 17 72 15 44 16 -80 5z"/>
<path fill="#000000" stroke="none" d="M3120 2213 c0 -17 47 -145 90 -243 70
-159 179 -374 186 -367 3 2 -19 54 -49 114 -78 158 -144 304 -188 413 -21 52
-38 90 -39 83z"/>
<path fill="#000000" stroke="none" d="M5431 2114 c0 -11 3 -14 6 -6 3 7 2 16
-1 19 -3 4 -6 -2 -5 -13z"/>
<path fill="#000000" stroke="none" d="M5411 2035 c-41 -183 -91 -360 -142
-504 -36 -101 -33 -118 4 -24 65 167 162 519 155 566 -2 13 -8 -2 -17 -38z"/>
<path fill="#000000" stroke="none" d="M3406 1577 c3 -10 9 -15 12 -12 3 3 0
11 -7 18 -10 9 -11 8 -5 -6z"/>
</g>
</svg>
