<?xml version="1.0" standalone="no"?>
<!DOCTYPE svg PUBLIC "-//W3C//DTD SVG 20010904//EN"
 "http://www.w3.org/TR/2001/REC-SVG-20010904/DTD/svg10.dtd">
<svg version="1.0" xmlns="http://www.w3.org/2000/svg"
 width="642.000000pt" height="531.000000pt" viewBox="0 0 642.000000 531.000000"
 preserveAspectRatio="xMidYMid meet">
<metadata>
Created by potrace 1.16, written by Peter Selinger 2001-2019
</metadata>
<g transform="translate(0.000000,531.000000) scale(0.100000,-0.100000)"
fill="#000000" stroke="none">
<path fill="#000000" stroke="none" d="M0 2655 l0 -2655 3210 0 3210 0 0 2655
0 2655 -3210 0 -3210 0 0 -2655z"/>
<path fill="#ffffff" stroke="none" d="M6410 2655 l0 -2645 -3200 0 -3200 0 0
2645 0 2645 3200 0 3200 0 0 -2645z"/>
<path fill="#000000" stroke="none" d="M3176 5118 c-22 -5 -49 -16 -59 -26
-24 -21 -47 -73 -47 -107 0 -46 -32 -65 -107 -65 -45 0 -80 -6 -103 -18 -31
-15 -35 -21 -34 -55 2 -45 -17 -53 -104 -43 -52 6 -62 4 -103 -23 -39 -24 -48
-36 -58 -76 -22 -86 14 -126 127 -141 28 -3 52 -8 52 -10 0 -2 -13 -25 -30
-51 -66 -104 -9 -194 93 -144 23 11 43 19 44 17 2 -2 -5 -39 -16 -82 -14 -59
-19 -115 -20 -217 0 -142 -18 -263 -47 -319 -9 -17 -32 -55 -51 -86 -20 -30
-48 -83 -64 -117 -29 -64 -42 -75 -86 -75 -40 0 -232 -59 -294 -91 -31 -15
-66 -40 -78 -55 l-21 -26 -8 23 c-5 13 -12 51 -16 84 -25 208 -56 343 -108
466 -102 244 -169 325 -334 411 -125 64 -172 80 -304 103 -152 27 -381 4 -590
-61 -185 -56 -266 -107 -309 -192 -23 -46 -34 -92 -22 -92 4 0 44 20 88 45 81
46 184 78 283 90 90 10 209 12 223 3 8 -5 4 -8 -11 -8 -13 0 -28 -5 -35 -10
-7 -6 -48 -33 -92 -61 -96 -62 -185 -136 -283 -238 -178 -184 -282 -419 -284
-641 -1 -101 6 -151 20 -150 4 1 27 44 52 97 25 54 65 124 89 158 45 61 200
219 208 212 2 -3 -4 -20 -15 -38 -20 -38 -79 -183 -93 -232 -32 -110 -55 -352
-39 -402 6 -20 13 -47 15 -61 3 -30 15 -45 15 -18 -1 67 87 279 169 410 35 56
37 52 15 -26 -35 -127 -28 -463 13 -595 23 -73 61 -155 73 -155 5 0 10 17 10
38 0 70 68 342 86 342 2 0 3 -71 2 -157 -2 -164 7 -283 23 -283 5 0 9 12 9 28
1 74 133 435 167 455 5 3 9 -50 10 -118 1 -79 9 -162 23 -231 21 -112 72 -240
89 -229 6 3 8 12 4 20 -11 29 38 272 93 463 11 39 20 24 22 -40 5 -126 57
-314 107 -389 36 -55 46 -50 39 20 -4 33 -3 72 1 88 7 26 8 25 22 -27 31 -121
183 -332 183 -255 0 13 6 11 29 -6 16 -12 34 -18 40 -15 6 4 11 3 11 -3 0 -5
22 -34 49 -63 39 -43 59 -56 100 -67 43 -11 51 -16 51 -37 0 -29 28 -46 53
-33 9 6 17 16 17 23 0 30 73 35 107 8 46 -36 73 -110 88 -237 14 -115 44 -244
67 -289 19 -39 62 -76 85 -76 26 0 40 -27 50 -97 5 -36 2 -48 -20 -76 -43 -56
-44 -80 -6 -110 29 -22 31 -27 19 -42 -34 -41 -142 -80 -278 -100 -52 -8 -104
-21 -117 -29 -14 -9 -44 -16 -67 -16 -59 0 -88 -22 -88 -66 0 -28 5 -36 26
-45 22 -8 29 -6 41 11 24 34 62 44 86 23 31 -29 177 -23 294 10 119 35 137 34
165 -3 29 -40 112 -96 166 -111 23 -7 42 -16 42 -20 0 -29 62 -49 104 -33 24
9 19 41 -9 60 -14 9 -25 24 -25 33 0 9 -12 34 -26 54 -14 21 -24 40 -22 42 3
3 199 9 235 6 12 0 29 -8 37 -17 15 -14 17 -14 22 0 9 24 -2 44 -38 65 l-32
20 28 11 c15 5 37 10 48 10 11 0 37 10 58 21 l38 22 43 -22 c27 -14 45 -19 52
-12 14 14 -6 64 -31 76 -30 13 -28 24 11 40 17 8 27 14 20 15 -18 0 -63 -22
-63 -32 0 -12 -34 -10 -48 4 -9 9 -62 12 -195 10 -181 -3 -183 -3 -209 21 -54
50 -57 200 -5 225 12 6 16 11 10 11 -7 1 -13 6 -13 12 0 7 10 5 25 -5 35 -23
45 -13 33 32 -6 20 -8 69 -6 108 6 84 37 158 108 254 50 67 221 240 239 240 5
0 12 -24 15 -53 4 -29 10 -57 14 -63 4 -6 41 -14 82 -17 41 -3 93 -12 115 -20
38 -13 40 -16 47 -67 3 -28 11 -57 16 -62 20 -20 65 -18 80 3 17 25 32 24 32
-1 0 -30 40 -80 64 -80 24 1 48 17 62 43 9 15 17 9 61 -45 62 -77 210 -213
229 -212 7 1 12 -3 11 -10 -2 -13 116 -74 153 -78 23 -3 25 -6 22 -54 -3 -46
0 -55 32 -93 20 -24 36 -45 36 -48 0 -3 -11 -18 -25 -35 -20 -24 -23 -33 -14
-49 6 -11 17 -22 25 -25 47 -14 47 -17 -3 -29 -97 -22 -129 -63 -73 -92 17 -9
44 -11 82 -7 54 6 60 4 95 -25 49 -40 100 -43 109 -6 5 22 12 25 53 25 50 1
87 21 78 43 -3 8 -35 25 -72 38 -36 13 -83 38 -104 56 -46 39 -91 125 -70 132
8 2 29 20 48 38 26 26 45 36 77 38 39 3 44 0 74 -37 29 -36 31 -42 16 -50 -17
-10 -22 -48 -6 -48 19 0 10 -15 -19 -31 -39 -23 -46 -55 -15 -76 21 -13 35
-14 89 -5 44 7 75 7 102 0 21 -6 60 -13 87 -15 46 -5 49 -4 43 16 -5 19 -1 21
51 22 84 2 96 4 125 24 38 25 33 31 -6 7 l-33 -19 4 28 c5 36 -24 49 -111 49
-80 0 -123 13 -160 47 -35 34 -72 102 -60 113 4 4 40 18 78 30 150 48 406 193
488 276 75 76 162 217 198 323 17 50 39 241 36 316 0 17 0 75 1 131 l2 101 32
9 c37 11 47 37 25 62 -19 21 -31 84 -23 116 5 22 8 23 35 13 43 -16 102 13
130 64 21 37 22 41 7 96 -8 32 -10 59 -6 61 22 8 74 49 84 65 9 15 7 22 -11
36 l-22 18 40 22 c26 15 39 29 37 39 -3 18 -113 90 -139 91 -8 1 -24 8 -35 16
-19 14 -19 14 4 30 30 22 27 66 -6 80 -18 8 -22 16 -18 33 20 76 21 71 -20 88
-36 15 -72 15 -121 -1 -21 -7 -22 -6 -10 25 11 28 10 33 -7 46 -11 8 -34 14
-52 14 -32 0 -112 -39 -134 -65 -15 -19 -39 -19 -63 0 -24 18 -63 2 -82 -34
-11 -21 -10 -30 3 -58 13 -28 14 -39 4 -66 -11 -29 -10 -34 8 -49 l21 -17 -32
-56 c-25 -45 -42 -61 -83 -82 -28 -14 -79 -45 -113 -69 -81 -57 -181 -109
-246 -128 -29 -9 -99 -30 -157 -47 -58 -18 -152 -55 -210 -84 -104 -53 -281
-163 -294 -184 -26 -41 -97 25 -156 144 -45 91 -45 90 -12 190 11 33 25 79 32
103 6 24 20 51 31 60 46 38 109 140 124 201 21 79 9 145 -47 256 -46 90 -89
152 -167 240 -29 33 -62 72 -73 88 l-20 27 31 6 c19 4 40 19 53 38 13 17 33
39 45 49 64 51 45 191 -41 306 l-25 33 70 36 c39 19 93 55 120 80 67 60 59 68
-96 95 -15 3 -16 5 -5 9 138 51 168 64 162 69 -4 4 -46 23 -94 43 -86 35 -89
36 -130 21 -61 -22 -160 -30 -186 -16 -12 6 -28 25 -37 40 -14 28 -14 29 13
36 31 8 62 33 62 50 0 7 -9 20 -20 30 -38 34 -21 65 67 126 56 38 65 72 29
107 -39 39 -126 37 -217 -5 -37 -17 -69 -36 -73 -42 -17 -26 -34 -9 -40 41 -4
28 -13 63 -21 77 -36 70 -112 105 -189 89z"/>
<path fill="#ffffff" stroke="none" d="M3298 5086 c15 -8 38 -33 50 -55 19
-34 23 -53 20 -104 -3 -58 -1 -62 19 -65 13 -2 42 10 68 28 106 73 196 97 243
64 46 -32 23 -75 -66 -124 -25 -14 -50 -32 -55 -41 -15 -24 0 -64 28 -77 32
-15 25 -29 -23 -49 l-35 -14 -49 50 c-59 61 -116 81 -230 81 -86 0 -165 -22
-230 -65 -49 -32 -112 -131 -141 -219 -20 -62 -27 -72 -72 -102 -53 -36 -81
-42 -107 -21 -38 29 -16 102 44 151 57 45 59 48 55 52 -2 2 -46 7 -98 9 -57 4
-102 11 -116 20 -32 21 -41 79 -18 121 27 50 71 63 193 57 89 -5 102 -4 108
11 4 11 -2 26 -15 40 -47 50 -12 70 124 70 l100 1 5 60 c5 61 31 112 68 135
21 13 93 5 130 -14z"/>
<path fill="#ffffff" stroke="none" d="M3431 4738 c34 -19 134 -126 126 -135
-2 -1 -23 5 -47 14 -62 21 -167 22 -206 1 -78 -42 -132 -145 -121 -229 7 -54
73 -139 125 -163 34 -15 41 -24 46 -57 7 -45 42 -74 81 -67 21 4 26 1 31 -21
16 -72 32 -101 89 -161 34 -36 86 -96 116 -135 30 -38 89 -110 131 -158 126
-143 150 -185 183 -313 14 -58 14 -66 -5 -126 -12 -38 -38 -89 -67 -127 l-47
-64 -13 62 c-8 38 -34 103 -69 167 -56 106 -77 127 -54 58 7 -21 10 -58 7 -85
-6 -48 -31 -109 -45 -109 -5 0 -16 22 -26 49 -23 64 -96 133 -201 191 -157 86
-190 111 -232 176 -10 17 -12 15 -12 -15 -1 -28 8 -42 52 -84 141 -134 170
-164 183 -189 8 -16 13 -28 11 -28 -3 0 -29 11 -58 24 -65 28 -171 58 -322 90
-62 13 -129 31 -149 39 -48 20 -72 65 -65 124 2 24 1 45 -3 48 -15 9 -30 -57
-30 -129 0 -57 5 -80 25 -114 20 -36 22 -44 9 -49 -30 -11 -130 3 -157 22 -38
28 -67 92 -67 151 l-1 49 -14 -33 c-16 -38 -11 -79 17 -135 28 -56 88 -81 183
-75 90 6 103 13 76 42 -20 22 -51 86 -51 107 0 6 15 0 33 -14 36 -27 133 -60
210 -71 26 -4 45 -11 43 -15 -3 -4 10 -22 28 -39 45 -42 66 -90 78 -176 17
-120 6 -195 -46 -300 -48 -97 -83 -139 -213 -254 -85 -76 -181 -128 -316 -171
-222 -71 -459 -34 -673 104 -81 52 -119 95 -178 198 -15 27 -30 46 -32 44 -3
-3 14 -37 38 -77 37 -62 74 -103 163 -179 28 -25 134 -73 245 -112 83 -29 110
-33 220 -37 122 -4 127 -3 220 31 128 47 226 92 258 119 15 13 76 73 137 133
128 127 171 201 204 349 26 118 21 172 -26 266 -21 41 -39 78 -41 83 -7 15 40
6 135 -28 144 -52 153 -55 153 -44 0 28 -49 98 -108 156 -74 72 -73 72 48 -5
152 -97 201 -149 234 -246 5 -16 9 -14 29 16 28 41 47 91 47 127 1 23 2 24 11
8 6 -10 26 -64 46 -119 l35 -102 -22 -85 c-29 -112 -71 -216 -127 -321 -52
-97 -129 -210 -144 -210 -5 0 -9 -6 -9 -12 0 -34 -191 -237 -336 -358 -56 -47
-139 -112 -184 -145 -126 -92 -269 -269 -328 -407 -27 -62 -36 -65 -46 -18 -3
20 -10 29 -17 24 -11 -6 -8 -47 6 -92 7 -20 5 -21 -16 -14 -15 5 -33 28 -48
60 -14 29 -29 52 -34 52 -10 0 -4 -73 8 -104 7 -16 6 -17 -14 -6 -26 13 -51
66 -51 106 0 15 -3 25 -6 21 -3 -3 -6 -28 -6 -56 1 -54 -6 -61 -30 -33 -47 53
-80 169 -102 357 -10 89 -18 121 -41 159 -34 58 -56 73 -117 80 -42 5 -48 3
-67 -22 -18 -24 -20 -25 -21 -7 0 11 -8 33 -19 48 -15 24 -20 26 -30 13 -11
-13 -17 -13 -49 1 -51 20 -86 56 -119 119 -30 58 -43 67 -43 32 -1 -21 -3 -20
-33 13 -17 19 -38 44 -44 55 -11 16 -12 11 -7 -31 7 -54 6 -54 -44 12 -55 71
-90 160 -101 253 -5 47 -8 96 -6 110 19 125 33 177 71 258 23 50 40 92 37 92
-3 0 1 7 8 17 12 14 12 16 0 12 -26 -9 -78 -118 -111 -231 -23 -79 -35 -148
-44 -256 l-13 -147 -21 47 c-72 162 -100 390 -67 557 7 35 57 115 127 205 21
27 36 51 33 55 -7 6 -8 5 -97 -111 -98 -128 -224 -469 -235 -640 -3 -48 -9
-85 -13 -83 -19 12 -55 209 -65 360 -9 132 6 217 49 279 47 68 139 160 199
199 27 17 44 33 38 35 -33 11 -212 -161 -287 -275 -78 -118 -175 -327 -197
-428 -9 -39 -6 262 3 332 18 139 180 389 324 500 37 29 65 53 62 53 -20 0 -97
-49 -138 -88 -68 -64 -200 -237 -236 -307 -63 -126 -126 -360 -134 -495 -2
-25 -7 -45 -13 -45 -31 0 -88 376 -79 525 12 203 89 395 229 569 35 44 61 81
57 81 -10 0 -150 -151 -214 -230 -25 -30 -61 -82 -80 -115 -43 -75 -119 -257
-148 -353 -12 -39 -25 -74 -30 -77 -10 -6 -20 67 -15 109 30 235 41 283 95
401 58 127 126 222 234 329 74 73 89 92 58 72 -23 -14 -44 -26 -47 -26 -24 0
-208 -147 -200 -159 2 -5 -5 -17 -18 -27 l-22 -19 19 23 c11 12 14 22 8 22
-18 0 -104 -108 -96 -121 4 -7 3 -9 -4 -5 -22 13 -222 -310 -222 -360 0 -9 -5
-12 -11 -8 -8 5 -10 43 -6 128 7 145 26 216 104 373 60 122 127 204 277 341
160 146 260 204 390 224 73 12 96 28 59 42 -37 14 -234 19 -310 7 -96 -15
-237 -62 -320 -106 -35 -18 -63 -29 -63 -25 0 14 64 85 109 123 179 146 609
212 873 133 112 -33 261 -104 314 -149 87 -75 156 -186 222 -357 41 -107 66
-231 82 -405 8 -93 23 -140 46 -149 7 -3 33 11 56 31 80 67 256 133 355 133
24 0 25 -2 18 -37 -12 -59 -14 -116 -4 -141 14 -36 29 -16 28 36 -1 40 -2 43
-10 22 -6 -18 -8 -11 -4 27 5 61 36 140 81 203 48 67 101 179 119 250 10 38
20 135 24 244 10 216 41 353 113 503 46 95 92 137 180 163 40 13 82 26 93 31
38 17 170 3 216 -23z"/>
<path fill="#ffffff" stroke="none" d="M3474 4605 c15 -8 38 -15 51 -15 12 0
30 -9 40 -20 23 -25 44 -108 38 -146 -11 -65 -45 -151 -73 -183 -16 -19 -37
-49 -46 -67 -10 -17 -30 -39 -44 -48 -35 -20 -50 -6 -53 50 -3 35 -6 39 -45
52 -46 15 -104 68 -129 116 -31 59 8 195 68 239 50 36 145 47 193 22z"/>
<path fill="#ffffff" stroke="none" d="M3905 4553 c36 -15 65 -30 65 -33 0 -4
-48 -24 -107 -45 -60 -21 -121 -45 -138 -54 -16 -8 -33 -14 -37 -13 -5 1 -8
-2 -8 -7 0 -12 67 -19 187 -17 l102 1 -25 -26 c-31 -32 -158 -99 -188 -99 -12
0 -39 9 -61 20 -22 11 -50 20 -63 20 -21 0 -23 3 -17 23 13 41 17 146 7 175
l-10 29 62 11 c35 7 80 18 102 26 53 20 55 20 129 -11z"/>
<path fill="#ffffff" stroke="none" d="M3927 4413 c-2 -1 -38 -5 -80 -8 -53
-4 -77 -3 -77 5 0 19 40 26 100 16 33 -5 58 -11 57 -13z"/>
<path fill="#ffffff" stroke="none" d="M3696 4250 c92 -46 138 -131 139 -257
0 -55 -3 -66 -28 -90 -50 -50 -157 -31 -237 43 -62 57 -80 93 -80 155 0 70 27
119 90 161 35 24 48 22 116 -12z"/>
<path fill="#ffffff" stroke="none" d="M3704 3866 c63 -13 64 -20 6 -31 -30
-5 -39 -2 -59 19 -28 29 -28 29 53 12z"/>
<path fill="#ffffff" stroke="none" d="M5406 3385 c3 -8 -1 -24 -10 -37 -9
-12 -16 -25 -16 -29 0 -16 32 -17 84 -2 57 16 106 12 106 -10 0 -7 -11 -28
-25 -47 -13 -18 -22 -36 -20 -41 3 -4 23 -10 45 -14 45 -8 50 -19 18 -45 -22
-17 -23 -17 -63 16 -88 71 -185 84 -280 37 -30 -14 -62 -34 -70 -43 -10 -11
-25 -15 -46 -12 -24 4 -29 9 -27 26 2 16 11 22 36 24 39 4 43 29 7 38 -26 6
-55 39 -55 61 0 7 12 20 26 29 24 16 27 16 63 -5 l39 -21 33 31 c57 54 142 78
155 44z"/>
<path fill="#ffffff" stroke="none" d="M5418 3218 c37 -9 61 -26 116 -80 l69
-68 -6 -58 c-7 -75 -24 -112 -52 -112 -51 0 -114 -108 -101 -172 4 -18 10 -78
14 -133 5 -55 13 -110 20 -121 9 -18 9 -24 -4 -34 -21 -18 -59 1 -79 40 -9 17
-20 28 -25 25 -7 -4 -6 -13 0 -25 13 -23 13 -50 1 -50 -5 0 -13 9 -16 21 -4
11 -21 36 -37 55 -23 26 -33 32 -39 22 -9 -15 -1 -57 15 -77 8 -10 6 -13 -8
-10 -28 6 -59 53 -58 88 1 51 -15 44 -22 -10 -7 -52 -19 -57 -30 -13 -10 37
-57 105 -70 101 -6 -2 -11 -25 -10 -50 0 -26 -3 -47 -8 -47 -15 0 -42 53 -48
93 -3 22 -10 42 -16 44 -7 2 -12 -2 -11 -9 1 -38 -4 -69 -12 -64 -4 3 -16 30
-26 61 -13 42 -21 55 -34 53 -12 -3 -16 -15 -16 -56 1 -58 -11 -66 -45 -32
-25 25 -39 59 -42 105 -1 19 -5 35 -10 35 -10 0 -28 -69 -21 -86 9 -23 -25
-16 -38 7 -11 21 -7 75 8 116 5 14 1 13 -21 -7 -24 -21 -26 -22 -20 -5 11 33
65 84 139 134 73 49 160 101 169 101 3 0 -1 -17 -8 -37 -20 -57 -29 -130 -17
-138 6 -3 12 4 15 17 21 107 29 139 50 184 41 88 114 156 205 189 46 17 71 18
129 3z"/>
<path fill="#ffffff" stroke="none" d="M5672 3057 c29 -13 59 -31 66 -39 13
-16 1 -23 -115 -63 -32 -11 12 -55 54 -55 35 0 28 -14 -20 -37 l-43 -21 -29
24 c-17 13 -25 24 -19 24 19 0 44 77 44 135 0 30 2 55 5 55 2 0 28 -11 57 -23z"/>
<path fill="#ffffff" stroke="none" d="M5572 2847 c48 -43 62 -79 47 -124 -19
-58 -108 -95 -139 -58 -19 23 -24 100 -10 137 13 32 48 78 59 78 3 0 23 -15
43 -33z"/>
<path fill="#ffffff" stroke="none" d="M4725 2776 c-16 -37 -13 -76 6 -76 5 0
9 -8 9 -17 0 -23 39 -63 62 -63 11 0 39 -13 63 -30 24 -16 55 -30 69 -30 30 0
32 7 11 34 -17 23 -20 66 -5 66 15 0 30 -45 30 -91 0 -45 11 -49 38 -14 19 23
21 24 26 7 3 -10 24 -35 45 -56 29 -29 44 -37 58 -31 12 5 14 9 5 12 -27 10
-57 103 -33 103 15 0 30 -25 54 -90 23 -61 24 -62 39 -41 l16 22 30 -31 c18
-18 41 -30 56 -30 31 0 32 9 6 43 -11 14 -20 31 -20 39 0 20 48 -43 61 -81
l12 -35 17 22 c37 45 40 30 40 -196 0 -189 -3 -229 -21 -303 -45 -178 -143
-318 -299 -427 -64 -45 -99 -73 -71 -57 9 5 12 4 7 -3 -4 -6 -14 -8 -23 -5
-12 5 -14 3 -8 -7 5 -9 4 -11 -4 -6 -6 4 -23 -1 -39 -12 -94 -67 -284 -140
-424 -162 -65 -10 -118 -6 -118 9 0 15 47 51 93 71 42 19 87 63 75 75 -7 7
-161 -100 -188 -131 -14 -16 -31 -41 -37 -57 -21 -45 -97 -62 -141 -31 -17 11
-22 25 -22 58 0 51 34 108 110 184 29 29 51 55 48 58 -3 3 -38 -27 -78 -66
l-71 -72 -52 12 c-144 34 -365 209 -402 320 -15 46 -15 50 2 77 l18 27 5 -44
c7 -55 23 -86 49 -93 15 -3 23 3 32 24 6 16 15 31 19 34 4 2 29 -4 57 -15 73
-27 155 -34 277 -21 161 18 257 50 483 162 221 110 282 156 373 276 27 35 67
77 89 93 27 20 43 41 50 67 14 48 14 70 1 78 -6 4 -10 -6 -10 -23 0 -23 -53
-122 -65 -122 -2 0 3 20 12 46 8 25 12 48 9 51 -3 4 -7 4 -9 2 -23 -32 -77
-130 -76 -136 3 -17 -2 -29 -22 -53 -19 -23 -19 -21 2 15 l22 40 -36 -40 c-20
-22 -36 -43 -37 -47 0 -9 -163 -148 -173 -148 -5 0 -5 5 -2 10 4 6 -45 -23
-107 -64 -117 -77 -225 -129 -351 -168 -62 -20 -94 -23 -227 -23 -143 0 -159
2 -203 24 l-48 23 27 47 c51 87 141 187 208 230 36 24 64 47 61 51 -3 5 3 15
12 22 10 7 25 22 33 32 15 19 14 19 -16 3 -84 -43 -243 -195 -306 -292 -21
-32 -46 -83 -54 -112 -8 -29 -19 -53 -24 -53 -23 0 -41 50 -38 103 2 30 6 53
9 51 4 -2 10 7 13 21 7 29 83 126 134 173 21 18 71 56 112 84 83 56 108 77 70
58 -179 -90 -432 -358 -465 -492 -8 -32 -31 -37 -40 -8 -3 11 -12 19 -18 17
-8 -1 -13 17 -15 50 -3 47 3 64 52 160 33 65 87 148 135 208 79 99 90 115 72
115 -14 0 -122 -126 -176 -205 -44 -64 -123 -218 -139 -272 -9 -28 -29 -35
-52 -18 -43 31 -13 164 73 318 34 61 158 224 226 296 96 101 362 298 452 333
161 64 223 88 245 94 14 3 39 12 55 20 36 17 199 72 203 69 1 -1 -5 -19 -13
-39z"/>
<path fill="#ffffff" stroke="none" d="M3855 2524 c15 -23 38 -47 51 -55 13
-7 24 -15 24 -19 0 -4 -24 -27 -52 -51 -147 -121 -288 -279 -361 -404 -25 -43
-29 -46 -45 -32 -23 20 -76 46 -134 66 l-49 16 40 39 40 39 56 -15 c30 -8 55
-14 55 -12 0 2 -17 16 -39 32 l-38 28 33 39 32 39 46 -42 c25 -23 51 -42 57
-42 12 0 9 4 -38 63 -13 16 -23 36 -23 45 1 23 40 68 48 56 29 -42 42 -57 48
-51 3 3 -3 19 -15 35 -27 38 -26 42 6 92 l27 41 17 -34 c19 -36 49 -66 49 -49
0 6 -11 32 -25 57 l-24 46 21 45 c12 24 25 44 28 44 3 0 11 -19 18 -43 30
-101 47 -89 20 15 l-19 77 32 56 32 57 28 -68 c15 -38 39 -88 54 -110z"/>
<path fill="#ffffff" stroke="none" d="M5631 2682 c-21 -40 -101 -82 -101 -53
0 6 8 11 18 11 10 0 33 13 52 30 41 35 44 36 31 12z"/>
<path fill="#ffffff" stroke="none" d="M3398 1978 c84 -30 87 -35 65 -99 -10
-30 -18 -55 -18 -56 -1 -1 -30 7 -65 18 -38 12 -86 19 -115 18 -45 -3 -50 -1
-56 21 -13 46 -9 77 13 105 19 25 25 27 70 21 28 -4 75 -16 106 -28z"/>
<path fill="#ffffff" stroke="none" d="M4815 1900 c-3 -5 -16 -15 -28 -21 -21
-10 -21 -9 2 10 25 23 36 27 26 11z"/>
<path fill="#ffffff" stroke="none" d="M2904 1699 c-70 -105 -98 -194 -91
-292 5 -71 5 -71 -14 -48 -11 13 -19 32 -19 43 0 10 -4 16 -10 13 -5 -3 -10
-26 -10 -51 0 -41 -2 -44 -19 -35 -38 21 -42 62 -10 136 15 37 34 75 42 84 8
9 28 41 45 71 27 47 123 160 136 160 3 0 -20 -36 -50 -81z"/>
<path fill="#ffffff" stroke="none" d="M2640 1331 c12 -1 15 -21 16 -109 1
-86 5 -119 24 -166 19 -50 28 -60 64 -76 22 -10 85 -23 138 -28 102 -11 122
-17 113 -33 -4 -5 -1 -9 6 -9 23 0 -10 -26 -49 -39 -40 -13 -152 -11 -187 4
-15 6 -12 0 11 -26 110 -121 72 -177 -71 -107 -50 25 -125 96 -119 113 7 16
-40 28 -80 20 -17 -4 -76 -19 -131 -35 -132 -37 -157 -41 -194 -30 -34 9 -54
26 -64 52 -11 31 34 49 140 58 151 12 205 32 275 102 25 25 23 34 -12 65 -36
31 -36 33 -10 63 28 32 34 61 27 130 l-5 57 47 -2 c25 -1 53 -3 61 -4z"/>
<path fill="#ffffff" stroke="none" d="M2723 1257 c-3 -34 0 -88 7 -120 10
-52 15 -59 50 -77 35 -18 59 -20 213 -20 144 0 177 -3 187 -15 19 -23 -13 -52
-76 -71 -50 -14 -56 -14 -99 5 -37 17 -193 41 -260 41 -7 0 -23 16 -34 36 -30
51 -47 246 -24 281 26 39 42 13 36 -60z"/>
<path fill="#ffffff" stroke="none" d="M4621 1178 c46 -93 81 -114 207 -123
93 -8 131 -22 117 -44 -5 -9 -28 -12 -74 -9 -65 3 -66 2 -66 -22 -1 -22 -5
-25 -30 -22 -17 1 -46 10 -66 18 -30 13 -46 14 -88 5 -56 -12 -107 -6 -115 14
-8 21 22 39 73 45 54 6 60 20 12 33 -33 8 -33 22 2 29 14 2 10 11 -23 47 -45
49 -48 57 -22 64 42 11 52 6 73 -35z"/>
<path fill="#ffffff" stroke="none" d="M4324 1078 c39 -87 93 -132 189 -158
26 -7 50 -16 52 -21 8 -13 -33 -21 -88 -17 l-52 3 3 -32 c2 -30 -1 -33 -24
-33 -18 0 -38 12 -61 36 l-34 36 -67 -6 c-123 -12 -118 38 7 63 33 7 63 16 66
22 4 5 -16 19 -44 31 -55 22 -66 44 -26 54 19 5 25 13 25 34 0 24 6 33 28 39
1 1 13 -23 26 -51z"/>
<path fill="#ffffff" stroke="none" d="M3280 1005 c6 -8 10 -21 8 -30 -3 -13
-7 -13 -37 3 -19 10 -37 24 -39 30 -5 17 53 15 68 -3z"/>
<path fill="#ffffff" stroke="none" d="M3078 870 c3 -9 -1 -11 -12 -7 -10 4
-27 7 -38 7 -17 0 -18 3 -8 14 13 17 51 7 58 -14z"/>
<path fill="#ffffff" stroke="none" d="M2091 865 c16 -11 10 -23 -16 -29 -14
-4 -34 -15 -45 -26 -11 -11 -26 -17 -35 -14 -22 9 -19 50 5 67 19 13 70 14 91
2z"/>
<path fill="#ffffff" stroke="none" d="M2871 700 c30 -16 23 -30 -15 -30 -40
0 -54 14 -29 29 22 13 21 13 44 1z"/>
<path fill="#000000" stroke="none" d="M3105 2650 c-10 -11 -16 -22 -13 -25 3
-3 13 6 22 20 20 30 16 32 -9 5z"/>
<path fill="#000000" stroke="none" d="M3050 2597 c-14 -12 -37 -30 -50 -40
-24 -17 -24 -17 8 0 18 10 43 28 54 41 27 28 21 28 -12 -1z"/>
<path fill="#000000" stroke="none" d="M2070 2495 c0 -7 77 -45 91 -45 7 0
-10 11 -37 25 -53 27 -54 27 -54 20z"/>
<path fill="#000000" stroke="none" d="M2188 2443 c7 -3 16 -2 19 1 4 3 -2 6
-13 5 -11 0 -14 -3 -6 -6z"/>
<path fill="#000000" stroke="none" d="M3315 4588 c-78 -47 -71 -155 13 -196
45 -23 104 -14 133 21 30 34 21 110 -18 149 -34 33 -95 46 -128 26z"/>
<path fill="#ffffff" stroke="none" d="M3433 4555 c23 -24 41 -80 30 -98 -3
-5 -13 -1 -23 8 -33 30 -82 -15 -60 -56 10 -17 8 -18 -22 -12 -89 16 -119 135
-44 171 40 20 91 14 119 -13z"/>
<path fill="#000000" stroke="none" d="M3673 4503 c-22 -8 -14 -23 12 -23 16
0 25 6 25 15 0 15 -14 18 -37 8z"/>
<path fill="#000000" stroke="none" d="M5420 3088 c-48 -32 -62 -65 -49 -111
12 -44 42 -67 86 -67 72 0 111 46 100 117 -12 73 -77 102 -137 61z"/>
<path fill="#ffffff" stroke="none" d="M5518 3074 c30 -21 31 -88 0 -121 -26
-28 -98 -32 -118 -8 -14 17 -15 17 23 33 23 10 28 18 25 39 -2 19 -10 29 -27
33 -19 4 -21 7 -10 16 34 27 76 30 107 8z"/>
<path fill="#ffffff" stroke="none" d="M5430 3016 c0 -21 -20 -30 -33 -17 -9
9 -8 14 3 21 21 14 30 12 30 -4z"/>
<path fill="#000000" stroke="none" d="M4340 2374 c-19 -9 -46 -20 -59 -25
-13 -5 -22 -12 -19 -14 3 -3 34 8 69 24 35 17 60 30 54 30 -5 0 -26 -7 -45
-15z"/>
<path fill="#000000" stroke="none" d="M4208 2309 c-21 -11 -38 -22 -38 -24 0
-3 18 4 40 15 22 11 40 23 40 25 0 7 0 7 -42 -16z"/>
<path fill="#000000" stroke="none" d="M4400 2313 c-8 -3 -26 -10 -39 -15 -13
-5 -22 -11 -19 -13 3 -3 25 3 49 14 40 18 46 28 9 14z"/>
<path fill="#000000" stroke="none" d="M4134 2264 c-18 -14 -18 -15 4 -4 12 6
22 13 22 15 0 8 -5 6 -26 -11z"/>
<path fill="#000000" stroke="none" d="M4290 2265 c-14 -8 -20 -14 -15 -14 6
0 21 6 35 14 14 8 21 14 15 14 -5 0 -21 -6 -35 -14z"/>
<path fill="#000000" stroke="none" d="M4084 2234 c-18 -14 -18 -15 4 -4 12 6
22 13 22 15 0 8 -5 6 -26 -11z"/>
<path fill="#000000" stroke="none" d="M4185 2210 c-3 -6 1 -7 9 -4 18 7 21
14 7 14 -6 0 -13 -4 -16 -10z"/>
<path fill="#000000" stroke="none" d="M4353 2130 c-92 -38 -168 -79 -160 -86
2 -2 31 9 65 26 91 44 180 80 197 80 8 0 15 5 15 10 0 16 -19 11 -117 -30z"/>
<path fill="#000000" stroke="none" d="M5271 2160 c-2 -3 -4 -16 -5 -30 -2
-14 -6 -34 -10 -45 -4 -11 0 -7 9 8 9 16 14 38 12 50 -2 12 -5 20 -6 17z"/>
<path fill="#000000" stroke="none" d="M4900 1685 c-7 -9 -11 -18 -8 -20 3 -3
11 1 18 10 7 9 11 18 8 20 -3 3 -11 -1 -18 -10z"/>
<path fill="#000000" stroke="none" d="M5184 1678 l-19 -23 23 19 c21 18 27
26 19 26 -2 0 -12 -10 -23 -22z"/>
<path fill="#000000" stroke="none" d="M5014 1653 c-15 -20 -23 -33 -16 -29
13 8 56 66 49 66 -3 0 -17 -17 -33 -37z"/>
<path fill="#000000" stroke="none" d="M4616 1643 c-6 -14 -5 -15 5 -6 7 7 10
15 7 18 -3 3 -9 -2 -12 -12z"/>
<path fill="#000000" stroke="none" d="M4455 1630 c-3 -6 1 -7 9 -4 18 7 21
14 7 14 -6 0 -13 -4 -16 -10z"/>
<path fill="#000000" stroke="none" d="M3960 1520 c0 -5 15 -17 33 -26 l32
-17 -28 27 c-30 28 -37 31 -37 16z"/>
<path fill="#000000" stroke="none" d="M4160 1472 c0 -16 38 -39 75 -46 l30
-6 -30 11 c-16 6 -40 21 -52 32 -13 11 -23 15 -23 9z"/>
<path fill="#000000" stroke="none" d="M4615 1290 c-19 -8 -19 -9 3 -9 12 -1
22 4 22 9 0 6 -1 10 -2 9 -2 0 -12 -4 -23 -9z"/>
<path fill="#000000" stroke="none" d="M3113 1143 c15 -2 37 -2 50 0 12 2 0 4
-28 4 -27 0 -38 -2 -22 -4z"/>
<path fill="#000000" stroke="none" d="M3808 1143 c6 -2 18 -2 25 0 6 3 1 5
-13 5 -14 0 -19 -2 -12 -5z"/>
<path fill="#000000" stroke="none" d="M3058 1133 c7 -3 16 -2 19 1 4 3 -2 6
-13 5 -11 0 -14 -3 -6 -6z"/>
<path fill="#000000" stroke="none" d="M3858 1133 c7 -3 16 -2 19 1 4 3 -2 6
-13 5 -11 0 -14 -3 -6 -6z"/>
<path fill="#000000" stroke="none" d="M1870 1119 c0 -5 7 -9 16 -9 9 0 30
-10 47 -22 32 -22 32 -22 14 -1 -21 24 -77 48 -77 32z"/>
<path fill="#000000" stroke="none" d="M2900 1120 c-9 -6 -10 -10 -3 -10 6 0
15 5 18 10 8 12 4 12 -15 0z"/>
<path fill="#000000" stroke="none" d="M3020 1119 c0 -5 5 -7 10 -4 6 3 10 8
10 11 0 2 -4 4 -10 4 -5 0 -10 -5 -10 -11z"/>
<path fill="#000000" stroke="none" d="M3463 1123 c9 -2 25 -2 35 0 9 3 1 5
-18 5 -19 0 -27 -2 -17 -5z"/>
<path fill="#000000" stroke="none" d="M3520 1120 c0 -5 7 -7 15 -4 8 4 15 8
15 10 0 2 -7 4 -15 4 -8 0 -15 -4 -15 -10z"/>
<path fill="#000000" stroke="none" d="M3925 1111 c22 -10 63 -35 90 -56 28
-21 41 -28 31 -17 -25 28 -104 78 -136 86 -14 3 -7 -2 15 -13z"/>
<path fill="#000000" stroke="none" d="M2148 1113 c12 -2 30 -2 40 0 9 3 -1 5
-23 4 -22 0 -30 -2 -17 -4z"/>
<path fill="#000000" stroke="none" d="M3418 1113 c7 -3 16 -2 19 1 4 3 -2 6
-13 5 -11 0 -14 -3 -6 -6z"/>
<path fill="#000000" stroke="none" d="M4074 1102 c6 -8 13 -32 17 -55 l6 -42
2 36 c1 23 -6 44 -16 56 -10 10 -14 13 -9 5z"/>
<path fill="#000000" stroke="none" d="M2033 1100 c-32 -13 -28 -21 5 -10 15
5 36 11 47 13 16 4 15 5 -5 5 -14 0 -35 -3 -47 -8z"/>
<path fill="#000000" stroke="none" d="M2253 1103 c9 -2 23 -2 30 0 6 3 -1 5
-18 5 -16 0 -22 -2 -12 -5z"/>
<path fill="#000000" stroke="none" d="M3378 1103 c7 -3 16 -2 19 1 4 3 -2 6
-13 5 -11 0 -14 -3 -6 -6z"/>
<path fill="#000000" stroke="none" d="M3485 1100 c-11 -5 -46 -19 -78 -31
-76 -27 -68 -35 8 -9 32 11 66 20 75 20 9 0 17 7 17 15 0 8 -1 15 -1 14 -1 0
-10 -4 -21 -9z"/>
<path fill="#000000" stroke="none" d="M5253 1103 c9 -2 25 -2 35 0 9 3 1 5
-18 5 -19 0 -27 -2 -17 -5z"/>
<path fill="#000000" stroke="none" d="M5345 1100 c-3 -5 -32 -17 -63 -26 -85
-24 -86 -36 -1 -14 41 11 85 20 99 21 24 2 24 2 2 6 -12 2 -20 9 -17 14 4 5 2
9 -4 9 -5 0 -13 -4 -16 -10z"/>
<path fill="#000000" stroke="none" d="M1728 1093 c12 -2 30 -2 40 0 9 3 -1 5
-23 4 -22 0 -30 -2 -17 -4z"/>
<path fill="#000000" stroke="none" d="M1822 1091 c20 -4 44 -14 53 -21 8 -7
18 -10 21 -7 10 10 -54 37 -83 36 -24 -1 -23 -2 9 -8z"/>
<path fill="#000000" stroke="none" d="M3548 1093 c18 -2 45 -2 60 0 15 2 0 4
-33 4 -33 0 -45 -2 -27 -4z"/>
<path fill="#000000" stroke="none" d="M5208 1093 c7 -3 16 -2 19 1 4 3 -2 6
-13 5 -11 0 -14 -3 -6 -6z"/>
<path fill="#000000" stroke="none" d="M5438 1093 c12 -2 30 -2 40 0 9 3 -1 5
-23 4 -22 0 -30 -2 -17 -4z"/>
<path fill="#000000" stroke="none" d="M2344 1075 c8 -8 20 -15 27 -15 7 0 4
6 -7 15 -25 19 -40 19 -20 0z"/>
<path fill="#000000" stroke="none" d="M4149 1052 c5 -34 6 -35 9 -8 2 16 0
32 -5 37 -5 5 -7 -7 -4 -29z"/>
<path fill="#000000" stroke="none" d="M5107 1066 c-33 -14 -62 -28 -65 -32
-4 -4 2 -4 13 1 11 4 47 18 80 31 33 13 53 23 45 23 -8 0 -41 -10 -73 -23z"/>
<path fill="#000000" stroke="none" d="M993 1053 c15 -2 39 -2 55 0 15 2 2 4
-28 4 -30 0 -43 -2 -27 -4z"/>
<path fill="#000000" stroke="none" d="M1315 1046 c22 -8 51 -28 63 -43 14
-17 20 -20 14 -8 -16 33 -46 54 -83 60 -34 6 -34 6 6 -9z"/>
<path fill="#000000" stroke="none" d="M1803 1053 c9 -2 25 -2 35 0 9 3 1 5
-18 5 -19 0 -27 -2 -17 -5z"/>
<path fill="#000000" stroke="none" d="M2398 1053 c7 -3 16 -2 19 1 4 3 -2 6
-13 5 -11 0 -14 -3 -6 -6z"/>
<path fill="#000000" stroke="none" d="M5445 1050 c-13 -6 -2 -7 30 -3 28 3
52 7 54 9 9 8 -65 2 -84 -6z"/>
<path fill="#000000" stroke="none" d="M1103 1043 c9 -2 25 -2 35 0 9 3 1 5
-18 5 -19 0 -27 -2 -17 -5z"/>
<path fill="#000000" stroke="none" d="M1748 1043 c7 -3 16 -2 19 1 4 3 -2 6
-13 5 -11 0 -14 -3 -6 -6z"/>
<path fill="#000000" stroke="none" d="M3657 1043 c18 -2 50 -2 70 0 21 2 7 4
-32 4 -38 0 -55 -2 -38 -4z"/>
<path fill="#000000" stroke="none" d="M3788 1043 c12 -2 30 -2 40 0 9 3 -1 5
-23 4 -22 0 -30 -2 -17 -4z"/>
<path fill="#000000" stroke="none" d="M1178 1033 c7 -3 16 -2 19 1 4 3 -2 6
-13 5 -11 0 -14 -3 -6 -6z"/>
<path fill="#000000" stroke="none" d="M3568 1033 c6 -2 18 -2 25 0 6 3 1 5
-13 5 -14 0 -19 -2 -12 -5z"/>
<path fill="#000000" stroke="none" d="M1225 1020 c11 -5 27 -9 35 -9 9 0 8 4
-5 9 -11 5 -27 9 -35 9 -9 0 -8 -4 5 -9z"/>
<path fill="#000000" stroke="none" d="M1629 1015 c-81 -30 -124 -59 -113 -77
3 -4 15 3 27 17 12 14 51 36 87 49 36 14 58 25 50 25 -8 0 -31 -6 -51 -14z"/>
<path fill="#000000" stroke="none" d="M3528 1023 c7 -3 16 -2 19 1 4 3 -2 6
-13 5 -11 0 -14 -3 -6 -6z"/>
<path fill="#000000" stroke="none" d="M5570 1020 c-19 -4 19 -5 85 -2 66 3
122 6 124 8 8 7 -173 2 -209 -6z"/>
<path fill="#000000" stroke="none" d="M3470 1010 c-18 -12 -2 -12 25 0 13 6
15 9 5 9 -8 0 -22 -4 -30 -9z"/>
<path fill="#000000" stroke="none" d="M3843 1013 c20 -2 54 -2 75 0 20 2 3 4
-38 4 -41 0 -58 -2 -37 -4z"/>
<path fill="#000000" stroke="none" d="M1280 1006 c0 -2 7 -7 16 -10 8 -3 12
-2 9 4 -6 10 -25 14 -25 6z"/>
<path fill="#000000" stroke="none" d="M3768 1003 c6 -2 18 -2 25 0 6 3 1 5
-13 5 -14 0 -19 -2 -12 -5z"/>
<path fill="#000000" stroke="none" d="M1398 933 c12 -2 32 -2 45 0 12 2 2 4
-23 4 -25 0 -35 -2 -22 -4z"/>
<path fill="#000000" stroke="none" d="M1338 923 c6 -2 18 -2 25 0 6 3 1 5
-13 5 -14 0 -19 -2 -12 -5z"/>
<path fill="#000000" stroke="none" d="M1275 910 c-13 -5 -14 -9 -5 -9 8 0 24
4 35 9 13 5 14 9 5 9 -8 0 -24 -4 -35 -9z"/>
<path fill="#000000" stroke="none" d="M5553 913 c15 -2 37 -2 50 0 12 2 0 4
-28 4 -27 0 -38 -2 -22 -4z"/>
<path fill="#000000" stroke="none" d="M5478 903 c7 -3 16 -2 19 1 4 3 -2 6
-13 5 -11 0 -14 -3 -6 -6z"/>
<path fill="#000000" stroke="none" d="M5420 890 c-8 -5 -10 -10 -5 -10 6 0
17 5 25 10 8 5 11 10 5 10 -5 0 -17 -5 -25 -10z"/>
<path fill="#000000" stroke="none" d="M5778 880 c-4 -14 -77 -31 -102 -24
-11 4 -16 2 -12 -4 3 -5 45 -9 93 -9 49 1 71 3 50 5 -32 3 -36 6 -26 18 6 8 9
17 6 20 -2 3 -7 0 -9 -6z"/>
<path fill="#000000" stroke="none" d="M1160 870 c-8 -5 -10 -10 -5 -10 6 0
17 5 25 10 8 5 11 10 5 10 -5 0 -17 -5 -25 -10z"/>
<path fill="#000000" stroke="none" d="M1065 825 c-34 -18 -70 -44 -80 -57
-16 -18 -12 -17 19 7 22 16 62 41 90 57 28 15 47 28 41 28 -5 0 -37 -16 -70
-35z"/>
<path fill="#000000" stroke="none" d="M5858 833 c6 -2 18 -2 25 0 6 3 1 5
-13 5 -14 0 -19 -2 -12 -5z"/>
<path fill="#000000" stroke="none" d="M3728 813 c-10 -2 -18 -9 -18 -14 0 -6
5 -7 13 -2 6 4 44 11 82 14 l70 6 -65 0 c-36 0 -73 -1 -82 -4z"/>
<path fill="#000000" stroke="none" d="M3881 806 c2 -2 22 -6 44 -9 28 -5 34
-4 20 3 -19 8 -73 14 -64 6z"/>
<path fill="#000000" stroke="none" d="M5990 800 c8 -5 20 -10 25 -10 6 0 3 5
-5 10 -8 5 -19 10 -25 10 -5 0 -3 -5 5 -10z"/>
<path fill="#000000" stroke="none" d="M3980 780 c8 -5 20 -10 25 -10 6 0 3 5
-5 10 -8 5 -19 10 -25 10 -5 0 -3 -5 5 -10z"/>
<path fill="#000000" stroke="none" d="M3123 753 c9 -2 23 -2 30 0 6 3 -1 5
-18 5 -16 0 -22 -2 -12 -5z"/>
<path fill="#000000" stroke="none" d="M3232 746 c7 -8 17 -10 23 -6 6 5 33
10 60 13 41 3 36 4 -23 5 -62 2 -71 0 -60 -12z"/>
<path fill="#000000" stroke="none" d="M3078 743 c7 -3 16 -2 19 1 4 3 -2 6
-13 5 -11 0 -14 -3 -6 -6z"/>
<path fill="#000000" stroke="none" d="M3378 743 c7 -3 16 -2 19 1 4 3 -2 6
-13 5 -11 0 -14 -3 -6 -6z"/>
<path fill="#000000" stroke="none" d="M2008 733 c7 -3 16 -2 19 1 4 3 -2 6
-13 5 -11 0 -14 -3 -6 -6z"/>
<path fill="#000000" stroke="none" d="M3915 730 c-12 -5 2 -6 36 -3 33 3 65
1 80 -6 23 -11 23 -11 5 3 -21 17 -88 20 -121 6z"/>
<path fill="#000000" stroke="none" d="M2128 703 c7 -3 16 -2 19 1 4 3 -2 6
-13 5 -11 0 -14 -3 -6 -6z"/>
<path fill="#000000" stroke="none" d="M3980 670 c-10 -6 -2 -7 25 -3 49 7 58
13 19 13 -16 0 -36 -5 -44 -10z"/>
<path fill="#000000" stroke="none" d="M4088 663 c7 -3 16 -2 19 1 4 3 -2 6
-13 5 -11 0 -14 -3 -6 -6z"/>
<path fill="#000000" stroke="none" d="M2368 643 c12 -2 30 -2 40 0 9 3 -1 5
-23 4 -22 0 -30 -2 -17 -4z"/>
<path fill="#000000" stroke="none" d="M2458 633 c6 -2 18 -2 25 0 6 3 1 5
-13 5 -14 0 -19 -2 -12 -5z"/>
</g>
</svg>
