<?xml version="1.0" standalone="no"?>
<!DOCTYPE svg PUBLIC "-//W3C//DTD SVG 20010904//EN"
 "http://www.w3.org/TR/2001/REC-SVG-20010904/DTD/svg10.dtd">
<svg version="1.0" xmlns="http://www.w3.org/2000/svg"
 width="623.000000pt" height="476.000000pt" viewBox="0 0 623.000000 476.000000"
 preserveAspectRatio="xMidYMid meet">
<metadata>
Created by potrace 1.16, written by Peter Selinger 2001-2019
</metadata>
<g transform="translate(0.000000,476.000000) scale(0.100000,-0.100000)"
fill="#000000" stroke="none">
<path fill="#000000" stroke="none" d="M0 2380 l0 -2380 3115 0 3115 0 0 2380
0 2380 -3115 0 -3115 0 0 -2380z"/>
<path fill="#ffffff" stroke="none" d="M6220 2380 l0 -2370 -3105 0 -3105 0 0
2370 0 2370 3105 0 3105 0 0 -2370z"/>
<path fill="#000000" stroke="none" d="M5229 4627 c-115 -39 -184 -100 -237
-207 -23 -47 -26 -68 -26 -145 0 -77 3 -98 26 -145 36 -72 77 -121 135 -159
60 -40 160 -71 228 -71 68 0 168 31 228 71 58 38 99 87 135 159 23 47 26 68
26 145 0 77 -3 98 -26 145 -54 109 -130 174 -246 210 -84 26 -161 25 -243 -3z"/>
<path fill="#ffffff" stroke="none" d="M5502 4601 c80 -31 157 -104 194 -183
24 -53 29 -76 29 -143 0 -106 -35 -184 -112 -255 -75 -69 -144 -94 -258 -94
-109 0 -180 24 -250 86 -162 143 -166 377 -7 520 48 44 70 56 142 80 72 24
183 19 262 -11z"/>
<path fill="#000000" stroke="none" d="M2641 4610 c-102 -22 -180 -97 -202
-197 -27 -121 33 -287 141 -386 l60 -56 -109 -57 c-130 -68 -251 -153 -361
-253 -45 -40 -83 -72 -84 -70 -2 2 -20 32 -41 67 -176 302 -432 489 -622 452
-109 -20 -180 -71 -219 -155 -88 -188 74 -567 330 -772 l38 -31 -47 -21 c-145
-64 -279 -191 -348 -330 -42 -84 -42 -85 -42 -195 0 -96 3 -117 23 -153 34
-64 80 -111 136 -141 44 -23 62 -27 136 -26 156 1 299 75 473 245 l108 106 38
-56 c97 -142 259 -301 409 -403 70 -48 223 -127 311 -160 l43 -17 -46 -46
c-28 -27 -60 -73 -79 -113 -27 -57 -31 -78 -31 -142 1 -237 219 -310 503 -168
129 65 281 220 354 364 15 29 20 31 113 43 184 24 408 88 539 154 142 71 278
195 345 315 29 52 38 61 55 56 11 -4 45 -9 75 -11 43 -3 62 1 88 17 96 59 98
210 3 266 l-30 18 47 27 c126 72 177 170 138 262 -26 63 -116 116 -177 103
-28 -5 -29 -5 -29 37 0 66 -27 230 -49 293 l-19 58 38 43 c48 55 65 114 57
201 -11 117 -52 216 -120 290 -49 53 -89 72 -152 72 -77 0 -127 -37 -164 -121
l-21 -46 -92 48 c-51 27 -120 57 -153 69 -88 29 -287 60 -391 60 l-91 0 -27
40 c-43 65 -164 187 -249 251 -87 66 -211 129 -302 153 -73 20 -244 29 -304
16z"/>
<path fill="#ffffff" stroke="none" d="M2913 4584 c104 -23 257 -100 357 -181
72 -58 230 -225 230 -243 0 -4 -57 -11 -126 -16 l-127 -9 -39 58 c-83 122
-279 306 -278 260 0 -5 19 -19 41 -33 79 -48 283 -289 247 -291 -7 0 -35 -4
-63 -9 l-50 -9 -90 93 c-49 50 -108 118 -129 149 -22 31 -41 55 -43 53 -13
-12 56 -101 176 -228 41 -44 58 -69 50 -72 -33 -10 -120 -28 -123 -25 -111
159 -297 333 -324 303 -4 -4 -2 -9 5 -11 53 -19 200 -153 265 -241 22 -29 38
-55 36 -56 -1 -2 -27 -11 -57 -21 l-53 -17 -98 97 c-53 53 -112 121 -131 150
-33 53 -54 72 -42 38 13 -36 49 -81 151 -184 l104 -107 -72 -27 -71 -27 -47
39 c-101 85 -162 211 -162 333 0 117 56 196 167 236 52 18 209 17 296 -2z"/>
<path fill="#ffffff" stroke="none" d="M3745 4126 c125 -16 122 -6 30 -99
-208 -208 -331 -500 -352 -835 -6 -99 -7 -103 -27 -98 -70 17 -256 26 -349 16
-295 -33 -421 -171 -374 -411 29 -147 110 -274 203 -319 148 -72 381 86 486
328 11 26 30 88 42 137 l23 90 7 -50 c45 -316 173 -597 363 -796 40 -42 73
-79 73 -82 0 -8 -117 -33 -241 -53 -128 -20 -412 -23 -524 -5 -346 54 -630
195 -865 431 -188 188 -335 435 -400 674 l-22 79 40 81 c240 482 700 796 1307
891 172 27 453 38 580 21z"/>
<path fill="#ffffff" stroke="none" d="M4505 4111 c102 -46 185 -211 185 -368
0 -80 -18 -129 -62 -170 -51 -48 -137 -66 -188 -40 -19 9 -27 25 -36 72 -7 33
-20 80 -28 104 -20 54 -20 54 3 41 24 -12 51 -13 70 -1 12 8 13 12 1 26 -11
13 -11 18 0 28 10 9 13 9 17 0 10 -28 23 -10 23 32 0 76 -36 125 -92 125 -24
0 -74 -29 -51 -30 17 0 34 -35 27 -55 -5 -11 -15 -15 -30 -12 -15 3 -24 -1
-26 -11 -2 -10 -13 0 -31 27 -27 41 -28 45 -17 92 31 128 131 188 235 140z"/>
<path fill="#ffffff" stroke="none" d="M1582 4080 c152 -47 338 -230 466 -460
l31 -55 -29 -32 -29 -32 -37 61 c-82 135 -179 225 -268 249 -84 23 -173 -32
-197 -122 -29 -109 49 -327 176 -493 19 -26 35 -50 35 -54 0 -4 -16 -18 -35
-31 -66 -44 -171 -166 -206 -237 -28 -57 -34 -80 -34 -136 0 -52 5 -73 21 -95
85 -115 232 -96 392 53 39 35 72 61 75 57 2 -5 16 -29 31 -55 l27 -47 -71 -75
c-89 -93 -193 -174 -285 -219 -92 -46 -135 -57 -221 -57 -93 0 -162 34 -216
105 -96 127 -86 298 27 465 63 93 159 174 276 235 l89 46 -47 38 c-76 60 -180
178 -234 265 -164 268 -166 518 -4 604 87 45 170 52 267 22z"/>
<path fill="#ffffff" stroke="none" d="M3955 4089 c49 -13 187 -70 183 -75 -2
-2 -26 4 -53 12 -59 18 -138 12 -199 -15 -115 -51 -206 -243 -206 -435 1 -254
152 -476 341 -502 59 -8 159 18 221 57 110 71 167 170 176 305 4 71 7 84 21
80 53 -14 73 -14 115 -2 l46 14 19 -67 c26 -87 41 -181 41 -262 0 -62 -2 -67
-36 -100 -52 -50 -89 -114 -118 -201 -47 -138 -45 -272 5 -375 19 -40 19 -43
3 -75 -98 -191 -272 -326 -533 -413 l-83 -27 -55 53 c-134 132 -261 341 -327
541 -46 136 -64 232 -75 380 -28 417 93 781 346 1035 88 88 96 92 168 72z"/>
<path fill="#ffffff" stroke="none" d="M4135 3990 c158 -76 271 -310 263 -543
-4 -122 -25 -175 -100 -250 -93 -93 -227 -129 -339 -92 -105 35 -213 180 -250
335 -7 30 -12 98 -12 150 3 201 99 382 223 419 58 17 159 8 215 -19z"/>
<path fill="#ffffff" stroke="none" d="M4213 3973 c20 -13 37 -28 37 -33 0 -5
-21 6 -47 26 -74 56 -71 57 10 7z"/>
<path fill="#ffffff" stroke="none" d="M1746 3785 c52 -21 149 -119 210 -212
l55 -81 -62 -94 c-33 -51 -80 -131 -104 -178 l-43 -85 19 -72 c19 -73 66 -199
96 -257 l16 -31 -68 -62 c-127 -116 -242 -156 -319 -111 -150 87 -78 315 158
497 l55 42 -48 59 c-98 122 -181 318 -181 429 0 132 100 205 216 156z"/>
<path fill="#ffffff" stroke="none" d="M4794 3116 c64 -27 103 -105 84 -172
-14 -51 -78 -116 -154 -156 l-66 -35 45 -22 c80 -39 107 -113 67 -190 -41 -82
-159 -104 -221 -41 -36 36 -59 117 -59 210 0 140 54 285 139 370 44 44 55 50
91 50 22 0 55 -6 74 -14z"/>
<path fill="#ffffff" stroke="none" d="M3335 3087 l80 -12 -2 -68 c-6 -178
-88 -381 -200 -494 -73 -74 -164 -128 -231 -139 -34 -5 -52 -1 -97 20 -173 85
-267 411 -160 555 51 70 148 120 272 141 72 12 247 10 338 -3z"/>
<path fill="#ffffff" stroke="none" d="M2913 1973 c34 -9 64 -18 66 -19 1 -2
-24 -40 -57 -86 -65 -90 -97 -147 -88 -156 7 -7 7 -6 28 38 8 20 43 72 77 117
l62 82 47 -6 c26 -3 49 -7 51 -9 2 -2 -11 -29 -30 -60 -41 -67 -142 -180 -169
-189 -11 -4 -20 -11 -20 -16 0 -20 59 22 112 80 31 33 72 87 93 120 37 63 45
67 103 55 l30 -6 -62 -92 c-59 -86 -94 -156 -78 -156 4 0 17 21 29 48 12 26
47 82 78 125 l56 77 55 0 54 0 -24 -49 c-33 -65 -136 -192 -169 -210 -15 -8
-27 -18 -27 -23 0 -5 12 -2 28 6 47 25 124 117 181 219 l32 57 70 0 70 0 -23
-40 c-66 -117 -206 -263 -312 -325 -104 -61 -253 -93 -343 -75 -71 15 -135 74
-153 140 -18 65 -7 160 24 224 25 51 113 146 136 146 6 0 38 -8 73 -17z"/>
<path fill="#000000" stroke="none" d="M3038 3956 c-80 -29 -129 -80 -149
-157 -24 -90 10 -158 104 -203 168 -82 367 -3 367 146 0 132 -195 262 -322
214z"/>
<path fill="#ffffff" stroke="none" d="M3171 3938 c136 -46 209 -185 147 -278
-37 -54 -89 -75 -188 -75 -76 0 -91 3 -140 30 -100 54 -121 152 -54 247 53 75
148 106 235 76z"/>
<path fill="#000000" stroke="none" d="M2724 3786 c-3 -8 -4 -25 -2 -38 2 -18
9 -23 33 -23 28 0 30 3 30 35 0 31 -3 35 -28 38 -17 2 -29 -2 -33 -12z"/>
<path fill="#000000" stroke="none" d="M2435 3660 c-34 -17 -66 -41 -72 -53
-41 -76 -45 -93 -41 -154 3 -50 10 -71 35 -105 124 -173 416 -104 431 101 5
73 -9 118 -51 162 -64 67 -73 71 -172 76 -63 4 -76 2 -130 -27z"/>
<path fill="#ffffff" stroke="none" d="M2647 3665 c46 -19 101 -71 119 -112
17 -38 18 -120 3 -160 -29 -77 -119 -133 -214 -133 -71 0 -126 23 -172 71 -40
43 -53 77 -53 140 0 87 43 153 125 190 49 23 142 25 192 4z"/>
<path fill="#000000" stroke="none" d="M3044 3506 c-12 -31 0 -51 31 -51 27 0
30 3 30 30 0 25 -4 30 -28 33 -17 2 -29 -2 -33 -12z"/>
<path fill="#000000" stroke="none" d="M2172 3468 c-7 -7 -12 -24 -12 -38 0
-33 17 -50 50 -50 33 0 50 17 50 50 0 33 -17 50 -50 50 -14 0 -31 -5 -38 -12z"/>
<path fill="#000000" stroke="none" d="M3174 3436 c-10 -26 4 -48 28 -44 17 2
23 10 23 28 0 18 -6 26 -23 28 -13 2 -25 -3 -28 -12z"/>
<path fill="#000000" stroke="none" d="M2100 3338 c-67 -36 -103 -94 -108
-171 -4 -77 24 -138 87 -182 34 -24 54 -30 109 -33 83 -4 142 23 187 86 41 60
47 148 13 212 -37 69 -94 104 -176 108 -56 3 -74 0 -112 -20z"/>
<path fill="#ffffff" stroke="none" d="M2317 3318 c120 -79 107 -275 -22 -338
-64 -31 -156 -26 -213 12 -117 78 -106 273 20 337 61 31 159 26 215 -11z"/>
<path fill="#000000" stroke="none" d="M2464 3196 c-12 -31 0 -51 31 -51 27 0
30 3 30 30 0 25 -4 30 -28 33 -17 2 -29 -2 -33 -12z"/>
<path fill="#000000" stroke="none" d="M3810 3769 l-34 -21 27 -15 c24 -12 28
-19 25 -51 -2 -31 -7 -38 -27 -40 -15 -3 -30 3 -38 14 -11 16 -13 13 -13 -24
0 -116 119 -204 191 -142 22 19 23 21 7 30 -10 6 -18 17 -18 25 0 23 22 29 36
10 17 -23 23 -17 34 29 17 75 -24 166 -86 192 -45 19 -63 18 -104 -7z"/>
<path fill="#000000" stroke="none" d="M3165 3036 c-153 -39 -210 -103 -203
-229 3 -63 7 -72 36 -98 95 -85 275 24 372 225 58 119 59 116 -57 115 -54 0
-120 -6 -148 -13z"/>
<path fill="#ffffff" stroke="none" d="M3390 3026 c0 -7 -18 -50 -40 -95 -114
-227 -324 -318 -371 -160 -26 84 16 176 100 218 53 27 157 47 254 50 42 1 57
-2 57 -13z"/>
<path fill="#000000" stroke="none" d="M493 4576 c-103 -33 -179 -102 -225
-202 -34 -74 -33 -199 4 -276 34 -73 103 -142 176 -176 48 -23 71 -27 142 -27
71 0 94 4 142 27 73 34 142 103 176 176 39 82 39 202 0 284 -34 73 -104 143
-175 175 -69 32 -176 40 -240 19z"/>
<path fill="#ffffff" stroke="none" d="M722 4543 c65 -30 133 -95 165 -162 37
-75 40 -200 6 -273 -30 -66 -96 -133 -162 -165 -48 -24 -68 -28 -141 -28 -73
0 -93 4 -141 28 -223 109 -253 402 -57 560 85 68 227 85 330 40z"/>
<path fill="#000000" stroke="none" d="M5022 3709 c-122 -62 -133 -231 -21
-306 154 -102 348 59 269 222 -45 92 -157 130 -248 84z"/>
<path fill="#ffffff" stroke="none" d="M5180 3690 c58 -30 85 -74 85 -140 0
-42 -6 -63 -24 -89 -27 -37 -91 -71 -136 -71 -45 0 -109 34 -136 71 -33 47
-34 130 -1 177 49 67 138 90 212 52z"/>
<path fill="#000000" stroke="none" d="M367 3532 c-22 -25 -21 -75 1 -95 42
-38 102 -8 102 50 0 55 -67 85 -103 45z"/>
<path fill="#000000" stroke="none" d="M759 3517 c-24 -13 -57 -43 -74 -66
-26 -37 -30 -51 -30 -111 0 -60 4 -74 30 -111 37 -52 103 -89 160 -89 57 0
123 37 160 89 26 37 30 51 30 111 0 60 -4 74 -30 111 -37 52 -103 89 -160 89
-25 0 -60 -10 -86 -23z"/>
<path fill="#ffffff" stroke="none" d="M947 3484 c41 -31 73 -94 73 -144 0
-51 -32 -113 -76 -146 -32 -25 -47 -29 -99 -29 -52 0 -67 4 -99 29 -70 53 -93
143 -57 221 20 44 40 65 86 90 44 24 126 14 172 -21z"/>
<path fill="#000000" stroke="none" d="M5385 3241 c-155 -72 -151 -289 7 -356
92 -38 195 5 239 100 46 100 0 216 -103 260 -49 20 -94 19 -143 -4z"/>
<path fill="#ffffff" stroke="none" d="M5517 3229 c38 -14 83 -57 99 -96 54
-126 -57 -264 -191 -239 -43 8 -103 59 -121 103 -58 137 77 284 213 232z"/>
<path fill="#000000" stroke="none" d="M595 2846 c-58 -27 -88 -57 -110 -108
-28 -68 -13 -151 38 -207 32 -34 115 -71 162 -71 47 0 130 37 162 71 68 75 68
193 0 268 -32 34 -115 71 -162 71 -22 0 -62 -11 -90 -24z"/>
<path fill="#ffffff" stroke="none" d="M770 2828 c24 -13 58 -40 74 -61 27
-34 31 -47 31 -102 0 -55 -4 -68 -31 -102 -38 -48 -106 -83 -159 -83 -53 0
-121 35 -159 83 -27 34 -31 47 -31 102 0 55 4 68 31 102 38 48 106 83 159 83
23 0 60 -10 85 -22z"/>
<path fill="#000000" stroke="none" d="M5732 2810 c-47 -44 -14 -120 51 -120
42 0 70 29 70 70 0 63 -74 94 -121 50z"/>
<path fill="#000000" stroke="none" d="M5114 2801 c-70 -32 -114 -112 -100
-183 26 -140 193 -193 292 -94 84 84 62 219 -46 274 -54 27 -92 28 -146 3z"/>
<path fill="#ffffff" stroke="none" d="M5243 2786 c104 -43 127 -180 42 -255
-61 -53 -139 -53 -201 1 -128 112 2 320 159 254z"/>
<path fill="#000000" stroke="none" d="M207 2612 c-22 -25 -21 -75 1 -95 42
-38 102 -8 102 50 0 55 -67 85 -103 45z"/>
<path fill="#000000" stroke="none" d="M5519 2253 c-100 -229 -192 -537 -235
-778 -19 -110 -26 -433 -11 -538 7 -50 17 -68 69 -133 48 -60 59 -79 54 -99
-6 -23 -9 -24 -89 -23 -103 1 -146 -18 -147 -65 0 -25 50 -52 135 -72 72 -17
75 -19 75 -46 l0 -29 -77 0 c-133 0 -187 -49 -116 -107 26 -22 121 -53 161
-53 18 0 22 -8 28 -60 6 -58 9 -62 42 -76 19 -8 38 -12 41 -8 3 3 6 31 6 61
l0 55 73 4 c130 6 192 58 120 102 -33 20 -65 31 -145 52 -38 10 -43 14 -43 40
l0 30 88 -6 c181 -11 186 70 8 125 -56 17 -81 40 -58 55 4 2 48 -9 96 -25 97
-34 139 -35 144 -4 4 28 -38 65 -125 112 -66 36 -72 41 -59 58 12 17 16 17 89
-13 82 -35 124 -40 133 -17 10 24 -33 80 -91 120 -30 21 -52 43 -48 49 19 33
24 34 91 5 38 -15 87 -31 109 -35 35 -5 43 -3 52 14 9 18 6 27 -19 55 -16 19
-55 52 -85 72 -30 21 -55 39 -55 41 0 1 14 28 30 60 40 76 40 137 -2 142 -29
3 -58 -28 -97 -105 -12 -24 -23 -43 -25 -43 -3 0 -37 16 -77 35 -80 38 -119
44 -139 20 -20 -24 8 -74 74 -131 31 -26 56 -51 56 -55 0 -4 -18 -29 -40 -55
-22 -27 -46 -64 -52 -81 -14 -39 -20 -40 -47 -11 -56 59 -76 405 -37 643 25
157 96 428 151 580 53 145 59 178 32 183 -12 3 -23 -10 -38 -45z"/>
<path fill="#ffffff" stroke="none" d="M5549 2228 c-67 -167 -140 -423 -174
-605 -50 -267 -53 -475 -11 -641 19 -74 37 -105 71 -120 23 -10 25 -9 25 11 0
28 33 83 76 125 19 18 34 39 34 46 0 7 -20 27 -45 45 -51 36 -95 90 -95 114 0
28 59 20 133 -18 38 -19 71 -35 75 -35 4 0 20 25 36 55 40 77 72 110 91 95 23
-19 18 -41 -22 -121 -25 -47 -34 -74 -26 -76 15 -5 100 -69 136 -101 62 -58 5
-70 -108 -22 -38 17 -75 30 -82 30 -11 0 -59 -59 -52 -64 2 -1 17 -10 33 -20
51 -32 116 -98 116 -117 0 -24 -24 -20 -125 22 l-70 29 -17 -22 c-10 -13 -18
-29 -18 -35 0 -7 31 -28 68 -47 71 -36 132 -81 132 -97 0 -18 -66 -8 -150 21
-47 16 -88 26 -92 22 -4 -4 -8 -20 -10 -35 -3 -28 0 -30 80 -56 89 -29 118
-50 108 -76 -5 -15 -20 -17 -111 -13 l-104 3 -7 -38 c-3 -22 -2 -43 2 -47 5
-4 33 -13 62 -19 69 -14 149 -49 156 -67 10 -27 -40 -46 -134 -52 l-90 -5 0
-58 c0 -33 -2 -59 -5 -59 -2 0 -16 5 -30 12 -23 10 -25 17 -25 68 l0 58 -47 7
c-79 12 -153 44 -166 72 -18 41 10 53 119 53 l91 0 7 41 c4 22 4 44 1 48 -2 5
-24 11 -48 14 -24 4 -70 16 -101 28 -47 17 -57 24 -54 42 5 36 44 49 135 44
l82 -5 11 33 c10 30 8 35 -30 76 -86 94 -88 99 -98 260 -21 313 33 626 173
1013 59 164 91 236 104 236 6 0 2 -23 -10 -52z"/>
<path fill="#000000" stroke="none" d="M716 2228 c-25 -41 -124 -309 -165
-451 -52 -177 -87 -357 -102 -524 -15 -164 -1 -345 41 -545 17 -76 30 -145 30
-153 0 -8 -26 12 -57 45 -65 66 -100 81 -138 56 -53 -35 -16 -132 68 -179 23
-14 69 -32 102 -41 79 -23 110 -38 110 -56 0 -30 -54 -23 -108 14 -59 40 -77
44 -100 19 -43 -48 -26 -111 41 -155 109 -73 289 -76 342 -7 15 19 18 19 75 4
69 -17 116 -19 200 -5 50 8 66 7 95 -8 52 -25 197 -22 272 7 72 28 107 55 125
98 28 69 -4 90 -77 53 -45 -23 -80 -26 -80 -7 0 23 45 56 96 72 77 23 107 70
63 98 -17 11 -49 -5 -153 -79 -40 -29 -57 -34 -102 -34 -59 0 -60 2 -41 49 10
23 42 51 109 96 53 35 103 74 112 87 20 29 21 82 0 102 -33 34 -85 9 -135 -64
-9 -14 -20 -20 -27 -16 -21 13 -13 62 20 111 37 55 41 104 13 135 -65 72 -129
-46 -100 -185 19 -90 20 -85 -18 -85 -57 0 -72 -19 -72 -92 -1 -89 -31 -134
-64 -94 -28 34 -24 81 18 202 55 159 54 223 -7 287 -31 32 -41 33 -75 7 l-26
-21 -12 40 c-10 33 -9 51 5 105 21 83 21 174 0 204 -38 55 -92 46 -118 -20
-22 -53 -20 -71 14 -183 32 -104 39 -169 18 -163 -7 2 -33 35 -58 72 -48 71
-87 101 -120 91 -44 -14 -51 -84 -14 -140 25 -38 97 -85 177 -114 l69 -26 20
-75 c10 -41 20 -94 21 -117 4 -78 -43 -84 -70 -8 -16 48 -31 65 -53 65 -12 0
-22 12 -30 38 -7 20 -23 56 -37 80 -19 34 -29 42 -52 42 -16 0 -31 -7 -35 -15
-6 -18 13 -76 44 -128 33 -56 16 -58 -36 -4 -45 47 -70 57 -92 35 -18 -18 -14
-52 9 -82 27 -35 49 -45 113 -56 36 -6 62 -17 83 -37 16 -15 49 -43 72 -61 34
-27 40 -37 30 -48 -20 -24 -41 -16 -112 41 -71 57 -106 68 -137 40 -28 -26
-53 25 -93 190 -51 211 -59 269 -59 445 1 278 68 606 192 937 22 59 38 113 36
120 -8 21 -44 15 -60 -9z"/>
<path fill="#ffffff" stroke="none" d="M757 2218 c-3 -13 -30 -95 -61 -183
-83 -241 -133 -457 -157 -674 -13 -122 -8 -344 11 -446 16 -90 72 -318 82
-335 4 -8 18 -30 30 -48 l21 -34 24 26 c13 14 26 26 29 26 12 0 53 -26 102
-67 51 -41 81 -50 116 -37 29 11 17 42 -30 81 -26 21 -59 50 -74 66 -16 15
-39 27 -52 27 -71 0 -146 45 -150 90 -5 42 32 37 75 -10 25 -26 46 -40 62 -40
33 0 32 7 -10 83 -36 66 -42 91 -24 102 17 11 46 -23 74 -90 20 -46 34 -65 50
-69 16 -4 29 -20 41 -52 10 -25 28 -53 41 -61 21 -14 25 -14 43 2 26 24 26 67
-1 180 l-22 90 -71 27 c-137 52 -200 112 -194 185 2 31 7 39 26 41 29 4 55
-18 97 -83 18 -27 42 -59 54 -69 51 -46 60 48 17 173 -32 92 -34 158 -5 195
24 31 49 33 73 7 26 -28 30 -87 12 -164 -21 -88 -20 -144 3 -185 l17 -34 18
27 c23 35 54 30 82 -13 41 -60 40 -98 -5 -230 -46 -132 -52 -196 -23 -232 15
-18 25 -22 46 -16 33 8 46 39 46 110 0 33 5 58 14 65 16 13 54 16 79 6 22 -9
22 -2 0 100 -19 94 -13 143 22 182 l25 28 20 -24 c28 -33 25 -59 -15 -121 -38
-59 -44 -99 -19 -124 25 -26 42 -18 68 31 9 18 31 40 48 49 31 16 32 16 50 -6
22 -28 23 -39 1 -70 -24 -34 -46 -52 -131 -106 -61 -38 -77 -55 -97 -97 -14
-28 -25 -54 -25 -57 0 -10 102 -10 140 0 19 6 64 32 99 60 68 53 101 63 101
31 0 -25 -16 -36 -70 -52 -62 -18 -86 -35 -101 -70 -10 -26 -10 -32 2 -40 23
-14 45 -11 95 16 52 28 64 25 64 -12 0 -93 -267 -173 -380 -115 -26 13 -46 15
-75 10 -72 -13 -191 -9 -243 8 l-51 17 -26 -31 c-98 -116 -433 2 -365 129 15
27 40 24 88 -11 22 -16 52 -32 66 -36 34 -8 68 12 64 39 -4 26 -45 48 -143 76
-49 14 -81 30 -103 52 -66 65 -77 122 -26 135 38 10 70 -12 146 -100 65 -75
135 -139 98 -91 -7 11 -20 25 -28 32 -8 7 -21 45 -28 85 -7 40 -25 127 -39
193 -32 150 -44 388 -26 545 30 258 130 617 240 863 29 64 59 93 48 45z"/>
<path fill="#000000" stroke="none" d="M4957 2072 c-35 -38 -10 -92 42 -92 34
0 51 17 51 50 0 52 -60 78 -93 42z"/>
<path fill="#000000" stroke="none" d="M4594 2056 c-3 -7 20 -49 51 -92 203
-282 296 -562 280 -839 -8 -138 -20 -238 -47 -385 l-21 -116 -56 -11 c-31 -6
-64 -14 -73 -18 -17 -7 -16 -4 2 36 21 48 26 119 10 150 -7 12 -21 19 -40 19
-40 0 -58 -31 -78 -133 l-16 -84 -32 67 c-32 67 -58 90 -78 70 -9 -9 -5 -34
21 -113 5 -15 0 -14 -32 7 -21 15 -61 33 -88 41 -76 23 -185 16 -194 -12 -6
-18 36 -51 91 -72 56 -21 51 -26 -32 -35 -78 -8 -126 -34 -130 -70 l-4 -29 84
6 c46 3 99 9 118 12 22 4 6 -6 -46 -28 -151 -64 -274 -159 -274 -213 0 -50 61
-58 134 -19 26 14 102 67 169 118 154 118 165 124 96 51 -104 -110 -142 -194
-115 -258 16 -39 43 -57 88 -58 54 -2 89 49 138 198 23 71 44 131 46 133 2 2
1 -41 -3 -95 -6 -113 6 -174 42 -210 32 -32 96 -33 124 -3 43 46 36 181 -14
295 l-24 55 31 -18 c30 -17 73 -68 131 -153 69 -102 178 -105 177 -5 0 34 -32
110 -58 139 -40 44 -130 87 -225 106 l-42 8 57 1 c31 1 60 -3 63 -9 3 -5 16
-10 28 -10 12 0 35 -7 51 -15 28 -15 111 -20 140 -9 27 10 18 44 -21 84 -21
20 -44 39 -52 41 -11 4 -9 31 9 154 14 96 24 218 27 340 4 167 2 202 -17 294
-44 215 -157 445 -313 639 -50 61 -73 75 -83 48z"/>
<path fill="#ffffff" stroke="none" d="M4724 1920 c158 -225 243 -437 268
-667 12 -120 -1 -344 -32 -543 l-19 -125 22 -15 c12 -8 37 -29 56 -47 27 -28
31 -36 21 -48 -17 -21 -47 -19 -138 10 -107 34 -159 39 -206 22 -59 -20 -53
-32 17 -33 117 -3 237 -67 276 -146 38 -79 20 -158 -33 -142 -41 12 -66 35
-115 107 -53 78 -78 104 -131 136 -57 34 -63 26 -29 -34 60 -107 79 -257 38
-309 -36 -45 -100 -30 -125 29 -17 40 -19 187 -4 265 6 29 8 56 5 59 -14 13
-40 -37 -79 -155 -24 -71 -50 -144 -60 -161 -33 -65 -91 -78 -136 -33 -49 49
-5 156 112 273 43 42 83 77 88 77 6 0 10 5 10 10 0 36 -90 -15 -255 -145 -153
-119 -245 -153 -245 -89 0 61 206 191 367 232 40 10 76 21 80 25 12 12 -89 8
-205 -9 -85 -12 -116 -14 -125 -5 -29 29 52 60 178 67 50 3 97 8 105 11 8 2
-19 15 -60 27 -82 23 -144 55 -142 71 3 17 130 17 182 0 57 -19 128 -78 155
-129 11 -20 23 -36 28 -36 5 0 7 3 5 8 -71 138 -103 232 -80 232 12 0 66 -107
77 -153 7 -26 25 -48 25 -30 0 5 5 46 10 92 12 91 34 156 56 165 68 26 67
-106 -1 -207 -14 -20 -24 -37 -21 -37 2 0 30 14 61 30 38 20 72 30 100 30 l43
0 21 113 c38 206 42 241 48 412 5 138 3 186 -11 255 -42 208 -145 432 -277
606 -22 28 -39 55 -39 59 0 17 63 -52 114 -125z"/>
<path fill="#000000" stroke="none" d="M1015 2047 c-26 -20 -13 -67 18 -67 45
0 65 50 28 70 -25 13 -24 13 -46 -3z"/>
<path fill="#000000" stroke="none" d="M1305 1951 c-98 -45 -140 -152 -96
-246 70 -152 282 -152 352 0 72 156 -97 319 -256 246z"/>
<path fill="#ffffff" stroke="none" d="M1453 1936 c72 -30 117 -114 103 -191
-8 -43 -59 -103 -103 -121 -165 -69 -317 130 -200 263 53 60 129 79 200 49z"/>
<path fill="#000000" stroke="none" d="M815 1826 c-42 -18 -93 -79 -101 -121
-11 -60 4 -106 50 -151 72 -72 160 -72 232 0 67 67 72 154 11 223 -52 60 -125
78 -192 49z"/>
<path fill="#ffffff" stroke="none" d="M967 1792 c43 -30 66 -85 60 -138 -9
-84 -80 -141 -163 -131 -192 21 -166 310 27 294 26 -2 60 -13 76 -25z"/>
<path fill="#000000" stroke="none" d="M5760 1700 c-24 -24 -26 -67 -4 -98 20
-29 76 -30 104 -2 43 43 11 120 -50 120 -17 0 -39 -9 -50 -20z"/>
<path fill="#000000" stroke="none" d="M3917 1412 c-22 -24 -21 -55 1 -75 39
-36 92 -10 92 43 0 47 -61 68 -93 32z"/>
<path fill="#000000" stroke="none" d="M4590 1363 c-63 -23 -82 -109 -34 -154
37 -35 98 -33 130 4 41 48 29 113 -26 142 -30 16 -45 17 -70 8z"/>
<path fill="#000000" stroke="none" d="M1475 1311 c-155 -72 -151 -289 7 -356
155 -64 311 105 239 260 -45 98 -152 140 -246 96z"/>
<path fill="#ffffff" stroke="none" d="M1607 1299 c38 -14 83 -57 99 -96 54
-126 -57 -264 -191 -239 -43 8 -103 59 -121 103 -58 137 77 284 213 232z"/>
<path fill="#000000" stroke="none" d="M2005 1026 c-34 -15 -49 -37 -60 -84
-11 -52 12 -101 81 -174 62 -64 81 -107 54 -123 -17 -10 -66 22 -95 64 -42 62
-99 109 -140 117 -84 15 -163 -40 -172 -120 -11 -93 26 -130 166 -166 130 -33
180 -66 181 -117 0 -20 -5 -23 -38 -23 -21 0 -63 9 -95 20 -31 11 -68 20 -82
20 -63 0 -90 -93 -38 -127 24 -16 50 -18 198 -17 116 1 150 0 108 -6 -69 -8
-93 -22 -93 -54 0 -86 140 -134 320 -111 115 15 139 27 224 103 37 34 82 64
112 75 71 25 111 52 134 89 40 66 16 128 -49 128 -43 0 -58 -13 -91 -80 -36
-71 -84 -94 -96 -46 -8 32 1 59 44 129 48 78 46 111 -9 160 l-42 37 8 63 c13
106 11 144 -9 166 -11 12 -28 21 -38 21 -87 0 -119 -138 -63 -270 77 -183 81
-248 19 -295 -43 -33 -58 -21 -49 35 17 96 16 115 -5 148 -27 44 -70 42 -84
-3 -6 -16 -11 -31 -12 -33 -1 -2 -13 0 -26 3 -24 6 -25 11 -31 104 -9 133 -22
196 -55 261 -44 88 -117 132 -177 106z"/>
<path fill="#ffffff" stroke="none" d="M2089 1005 c76 -39 116 -140 130 -330
7 -97 6 -123 -5 -136 -27 -31 -17 -76 27 -119 47 -45 37 -53 -19 -15 -45 30
-75 32 -103 4 -20 -20 -20 -21 -3 -40 10 -11 41 -33 69 -49 61 -35 83 -58 95
-96 8 -28 8 -29 9 -4 1 38 -24 67 -100 116 -38 24 -69 49 -69 54 0 6 12 15 26
21 23 8 33 5 64 -16 33 -23 90 -35 90 -19 0 4 -20 29 -45 55 -60 65 -58 109 6
109 34 0 46 -16 55 -68 4 -23 11 -45 17 -49 6 -4 8 6 4 28 -18 98 -19 135 -5
147 11 9 19 9 34 -2 17 -13 19 -28 19 -119 0 -58 3 -108 7 -112 14 -14 64 12
86 45 36 53 30 122 -19 244 -64 159 -62 260 6 296 26 14 28 13 47 -10 16 -20
19 -34 14 -72 -20 -162 -23 -141 28 -191 26 -26 46 -54 46 -67 0 -11 -18 -51
-40 -87 -28 -46 -40 -78 -40 -104 0 -34 20 -70 38 -69 26 2 61 37 87 86 48 93
117 102 123 17 4 -58 -29 -93 -126 -132 -49 -20 -92 -45 -113 -67 -18 -19 -56
-50 -84 -69 -44 -29 -63 -35 -155 -46 -81 -9 -118 -9 -160 0 -96 20 -152 69
-128 114 7 13 22 17 71 17 71 0 99 12 79 32 -10 10 -54 12 -182 10 -106 -2
-176 1 -189 7 -28 16 -35 48 -17 76 20 31 59 32 136 5 96 -34 150 -20 136 35
-11 44 -57 82 -122 100 -32 9 -82 23 -111 31 -94 26 -133 80 -113 156 15 51
51 80 108 86 66 6 101 -14 163 -94 28 -35 59 -69 69 -74 30 -16 58 -12 70 10
15 29 -8 76 -65 130 -58 56 -75 88 -75 139 0 28 8 48 26 70 29 35 59 39 103
16z"/>
<path fill="#000000" stroke="none" d="M4025 945 c-14 -13 -25 -36 -25 -50 0
-33 42 -75 75 -75 33 0 75 42 75 75 0 33 -42 75 -75 75 -14 0 -37 -11 -50 -25z"/>
<path fill="#000000" stroke="none" d="M3375 938 c-37 -29 -57 -78 -46 -115 5
-16 29 -61 54 -99 25 -38 49 -81 53 -96 8 -35 -2 -78 -19 -78 -15 0 -67 51
-67 66 0 5 -14 26 -31 47 -35 42 -68 48 -99 17 -41 -41 -26 -68 93 -167 51
-42 96 -83 101 -92 5 -9 -9 1 -32 22 -48 43 -65 46 -86 15 -32 -45 -12 -110
53 -180 74 -81 199 -120 268 -84 76 39 122 104 76 107 -32 2 -38 4 -40 12 -7
19 0 29 38 54 61 41 90 110 53 131 -26 15 -52 3 -76 -35 -19 -32 -23 -34 -34
-19 -18 25 -9 44 55 124 99 126 125 176 129 253 4 65 3 70 -26 99 -35 35 -64
38 -108 11 -48 -29 -67 -79 -59 -157 6 -51 4 -69 -10 -90 -13 -20 -19 -23 -31
-13 -10 8 -14 35 -14 101 0 99 -12 134 -59 167 -39 28 -100 28 -136 -1z"/>
<path fill="#ffffff" stroke="none" d="M3483 936 c62 -26 72 -48 70 -145 -3
-102 9 -141 43 -141 34 0 44 28 44 122 0 110 29 157 97 158 44 0 68 -37 67
-105 -1 -63 -32 -126 -114 -229 -72 -91 -85 -116 -76 -150 9 -37 38 -33 70 9
34 44 56 46 56 4 0 -21 -8 -37 -26 -52 -61 -50 -84 -77 -84 -96 0 -17 6 -21
31 -21 44 0 35 -27 -21 -65 -36 -24 -55 -30 -95 -29 -90 1 -186 67 -231 160
-22 46 -25 59 -16 79 16 34 35 31 81 -10 21 -19 46 -35 55 -35 33 0 -11 56
-98 124 -47 37 -92 76 -101 88 -22 33 -19 63 10 78 23 12 28 11 51 -11 14 -13
32 -38 41 -56 20 -43 63 -85 82 -81 23 5 43 54 36 87 -3 16 -28 64 -56 107
-57 90 -66 116 -53 153 10 26 66 71 91 71 7 0 28 -6 46 -14z"/>
<path fill="#000000" stroke="none" d="M2944 780 c-49 -20 -70 -93 -39 -137 8
-12 30 -26 49 -33 63 -20 116 21 116 91 0 29 -7 43 -31 63 -31 27 -58 31 -95
16z"/>
</g>
</svg>
