<?xml version="1.0" standalone="no"?>
<!DOCTYPE svg PUBLIC "-//W3C//DTD SVG 20010904//EN"
 "http://www.w3.org/TR/2001/REC-SVG-20010904/DTD/svg10.dtd">
<svg version="1.0" xmlns="http://www.w3.org/2000/svg"
 width="309.000000pt" height="280.000000pt" viewBox="0 0 309.000000 280.000000"
 preserveAspectRatio="xMidYMid meet">
<metadata>
Created by potrace 1.16, written by Peter Selinger 2001-2019
</metadata>
<g transform="translate(0.000000,280.000000) scale(0.100000,-0.100000)"
fill="#000000" stroke="none">
<path fill="#000000" stroke="none" d="M0 1400 l0 -1400 1545 0 1545 0 0 1400
0 1400 -1545 0 -1545 0 0 -1400z"/>
<path fill="#ffffff" stroke="none" d="M3080 1400 l0 -1390 -1535 0 -1535 0 0
1390 0 1390 1535 0 1535 0 0 -1390z"/>
<path fill="#000000" stroke="none" d="M2475 2687 c-1 -65 -50 -175 -75 -168
-8 2 -44 6 -80 9 -56 3 -70 1 -100 -20 -20 -14 -42 -22 -50 -20 -30 10 -145
119 -188 179 -25 34 -49 60 -53 58 -4 -3 -12 -27 -18 -54 -14 -65 0 -146 38
-222 16 -32 28 -59 27 -59 -1 0 -21 9 -44 20 -58 28 -96 26 -122 -7 -17 -22
-21 -38 -18 -74 10 -100 92 -172 199 -173 l59 -1 0 -31 c0 -26 -6 -34 -30 -44
-17 -7 -36 -21 -43 -30 -28 -41 -161 -50 -419 -29 -212 17 -443 -6 -618 -62
-190 -60 -355 -184 -439 -330 -32 -55 -41 -63 -91 -82 -115 -42 -180 -128
-180 -239 0 -71 22 -130 89 -241 63 -104 96 -178 106 -234 6 -41 6 -43 -19
-43 -18 0 -45 -18 -85 -54 -69 -64 -108 -86 -151 -86 -23 0 -30 -4 -30 -20 0
-27 42 -52 93 -57 23 -2 63 -6 88 -9 32 -4 57 -1 85 12 21 9 44 16 51 15 36
-5 56 98 29 149 -10 18 -11 30 -4 43 19 37 -3 110 -79 256 -80 156 -93 206
-74 279 7 25 28 60 50 84 l38 40 0 -118 c0 -82 5 -139 17 -184 21 -76 82 -199
128 -254 33 -40 88 -161 115 -251 13 -44 20 -228 14 -355 -2 -28 5 -41 32 -67
43 -39 102 -50 167 -31 37 11 46 18 48 40 4 36 -22 83 -57 104 -38 22 -51 53
-51 119 0 65 7 86 26 78 12 -4 13 -18 8 -64 -7 -66 3 -89 42 -89 29 0 44 27
44 80 l0 41 58 -3 c53 -3 57 -5 54 -26 -2 -12 2 -38 8 -57 10 -29 16 -35 40
-35 41 0 54 21 46 80 -5 37 -3 50 6 50 21 0 138 58 168 84 22 18 49 26 118 35
50 6 134 24 188 40 71 22 101 26 106 18 18 -30 30 -160 26 -282 -6 -153 1
-177 65 -206 52 -23 80 -24 140 -3 35 12 47 21 47 35 0 32 -25 71 -69 111 -40
36 -41 38 -41 105 0 91 21 238 31 221 13 -20 11 -186 -2 -194 -14 -8 -4 -59
16 -91 33 -50 120 -69 198 -44 29 10 37 18 37 37 0 37 -24 78 -67 112 l-38 30
1 94 c3 150 14 194 110 443 7 16 9 13 12 -17 4 -48 35 -73 110 -89 81 -16 169
-5 241 32 111 57 114 91 27 274 -31 65 -56 118 -56 119 0 1 40 0 88 -2 114 -4
182 19 242 84 93 101 120 250 81 439 -31 149 -72 232 -197 402 -15 21 -14 24
20 57 54 54 69 130 40 192 -14 29 -21 34 -51 34 -30 0 -46 -11 -108 -71 l-73
-70 5 64 c7 81 -10 155 -48 207 -40 55 -54 52 -54 -13z"/>
<path fill="#ffffff" stroke="none" d="M2543 2650 c19 -44 30 -180 16 -195 -4
-3 -34 7 -67 24 l-61 31 25 54 c14 30 27 77 31 105 5 44 8 49 21 39 8 -7 24
-33 35 -58z"/>
<path fill="#ffffff" stroke="none" d="M1978 2650 c47 -69 128 -147 173 -167
22 -9 39 -24 40 -32 4 -59 -19 -116 -51 -126 -12 -4 -42 4 -75 19 -62 28 -105
84 -130 170 -21 71 -19 187 4 186 3 0 21 -23 39 -50z"/>
<path fill="#ffffff" stroke="none" d="M2784 2544 c11 -10 16 -34 16 -71 0
-62 -23 -109 -66 -138 -25 -16 -27 -16 -48 4 -11 12 -38 37 -58 55 l-37 33 68
67 c71 68 97 78 125 50z"/>
<path fill="#ffffff" stroke="none" d="M2421 2496 c25 -9 68 -28 94 -42 l48
-27 -34 -11 c-98 -32 -83 -210 24 -277 43 -27 92 -19 132 21 26 26 30 37 30
85 l0 54 23 -27 c80 -96 164 -251 175 -323 l5 -36 -96 -6 c-163 -11 -291 -56
-418 -150 -54 -40 -86 -73 -151 -155 l-19 -24 -36 54 c-89 132 -129 255 -131
415 -1 57 2 106 8 112 6 5 22 12 36 16 24 6 26 4 27 -34 4 -93 52 -147 128
-145 86 2 134 61 134 164 -1 109 -43 177 -119 187 -36 5 -44 2 -77 -31 -35
-35 -54 -39 -54 -12 0 7 9 21 20 31 20 18 34 58 45 126 3 24 13 40 28 48 28
14 118 8 178 -13z"/>
<path fill="#ffffff" stroke="none" d="M2002 2360 c55 -27 106 -50 113 -50 7
0 20 -11 29 -25 14 -22 15 -29 2 -58 -11 -28 -22 -36 -59 -46 -112 -28 -206
-2 -253 69 -52 78 -29 179 39 166 15 -3 73 -28 129 -56z"/>
<path fill="#ffffff" stroke="none" d="M2647 2357 c55 -59 71 -111 48 -160
-19 -41 -73 -72 -108 -61 -32 9 -77 54 -93 91 -8 18 -14 55 -14 83 0 41 5 56
26 77 38 38 86 27 141 -30z"/>
<path fill="#ffffff" stroke="none" d="M2342 2300 c46 -50 63 -162 33 -220
-34 -65 -119 -92 -174 -54 -68 48 -67 198 2 272 46 50 94 50 139 2z"/>
<path fill="#ffffff" stroke="none" d="M2080 1854 c40 -146 150 -317 254 -394
l47 -35 -30 -8 c-37 -9 -116 21 -173 66 -105 83 -200 299 -201 457 -1 82 7
106 41 124 l27 14 7 -75 c4 -41 16 -108 28 -149z"/>
<path fill="#ffffff" stroke="none" d="M1966 2004 c-3 -9 -6 -33 -6 -53 0 -31
-5 -40 -27 -51 -65 -29 -80 -29 -140 1 -32 15 -67 29 -79 29 -11 0 -92 -25
-180 -55 -204 -71 -237 -71 -199 -5 19 34 19 75 -2 95 -14 15 -30 16 -113 10
-64 -5 -100 -3 -104 3 -15 25 189 32 639 22 97 -3 159 0 175 7 35 16 43 15 36
-3z"/>
<path fill="#ffffff" stroke="none" d="M1119 1964 c27 -13 41 -14 99 -4 115
20 145 -6 102 -91 -12 -22 -18 -44 -15 -49 13 -21 84 -8 245 47 l169 57 61
-32 c71 -38 87 -39 141 -12 44 23 40 27 58 -58 27 -130 127 -314 189 -348 17
-9 32 -20 32 -23 0 -4 22 -15 50 -26 l50 -19 -24 -26 c-40 -42 -48 -69 -53
-172 -5 -90 -9 -103 -39 -151 -18 -29 -29 -53 -24 -55 5 -2 -6 -38 -25 -81
-18 -43 -39 -105 -46 -137 -12 -58 -19 -265 -9 -294 4 -12 -6 -15 -55 -15
l-60 0 -6 125 c-5 116 -3 129 19 185 13 33 30 64 38 68 8 4 14 13 14 18 0 6
-5 7 -10 4 -7 -4 -9 2 -4 19 4 16 2 26 -5 26 -6 0 -11 -12 -11 -26 0 -14 -16
-62 -35 -107 -56 -128 -87 -341 -62 -415 l15 -42 -64 0 -64 0 0 68 c0 129 -20
242 -57 327 -19 44 -41 102 -48 130 -8 27 -14 40 -14 28 -1 -12 12 -58 27
-102 25 -71 27 -81 13 -85 -75 -23 -195 -56 -201 -56 -4 0 -10 7 -13 15 -4 10
10 23 43 41 79 43 103 130 60 219 -42 88 -133 98 -189 22 -7 -11 -29 -25 -47
-33 -39 -16 -70 -6 -119 40 -56 53 -108 86 -134 86 -63 0 -121 -68 -121 -142
0 -24 -10 -42 -37 -70 -20 -21 -40 -38 -44 -38 -4 0 1 23 12 50 10 28 19 63
18 78 -1 22 -3 18 -14 -18 -7 -25 -29 -85 -48 -135 -51 -131 -73 -341 -43
-407 7 -16 1 -18 -56 -18 l-65 0 -6 137 c-4 103 -10 152 -25 193 -11 30 -34
92 -51 138 -35 95 -37 109 -16 148 33 63 17 140 -50 249 -51 83 -29 135 115
275 102 98 110 109 110 144 0 52 -24 98 -77 147 l-46 42 24 19 c54 42 158 93
253 124 117 38 132 39 175 18z"/>
<path fill="#ffffff" stroke="none" d="M2916 1892 c18 -12 25 -59 25 -157 -1
-225 -97 -350 -281 -363 -130 -9 -259 39 -355 134 -30 29 -55 57 -55 61 0 16
89 121 132 156 60 50 151 103 217 128 99 37 287 62 317 41z"/>
<path fill="#ffffff" stroke="none" d="M719 1735 c57 -63 72 -110 50 -155 -8
-15 -49 -57 -91 -94 -102 -88 -141 -144 -145 -210 -3 -41 1 -59 21 -91 68
-107 80 -162 51 -232 -8 -19 -15 -45 -15 -57 0 -19 -2 -18 -25 9 -32 38 -87
143 -111 215 -15 44 -19 83 -18 190 0 152 16 216 80 322 41 67 121 158 139
158 7 0 36 -25 64 -55z"/>
<path fill="#ffffff" stroke="none" d="M446 1512 c-6 -22 -30 -54 -58 -80 -63
-59 -83 -111 -75 -205 4 -53 13 -85 33 -122 15 -27 31 -52 35 -55 4 -3 26 -44
49 -91 42 -87 54 -159 32 -181 -7 -7 -4 -20 9 -42 23 -37 25 -85 4 -112 -9
-12 -14 -14 -15 -6 0 9 -11 5 -30 -12 -37 -31 -89 -42 -131 -27 -18 6 -48 11
-68 11 -34 0 -81 22 -81 38 0 4 13 8 30 9 43 3 84 27 151 89 38 35 67 54 84
54 20 0 25 5 25 26 0 53 -40 180 -60 194 -19 12 -112 179 -125 224 -20 66 -19
101 5 166 23 64 79 121 143 144 58 20 56 21 43 -22z"/>
<path fill="#ffffff" stroke="none" d="M2452 1393 c37 -13 56 -27 72 -53 30
-49 98 -201 93 -207 -3 -2 -14 0 -24 5 -33 18 -127 24 -188 13 -60 -11 -165
-56 -165 -70 0 -4 28 6 61 23 52 25 76 31 154 34 77 4 100 1 139 -16 36 -17
46 -26 46 -45 0 -34 -41 -74 -108 -104 -98 -45 -262 -33 -298 22 -9 13 -13 32
-10 42 3 10 8 73 10 140 6 153 28 200 102 223 44 13 62 12 116 -7z"/>
<path fill="#ffffff" stroke="none" d="M1163 1001 c16 -10 47 -36 70 -57 82
-77 126 -77 198 -2 40 42 78 49 117 22 52 -36 79 -146 49 -204 -7 -14 -35 -37
-62 -52 -37 -20 -50 -33 -50 -50 0 -19 -7 -24 -40 -29 -67 -11 -297 -11 -371
1 -113 17 -204 48 -203 68 1 32 14 50 72 97 51 42 57 51 57 85 0 108 86 172
163 121z"/>
<path fill="#ffffff" stroke="none" d="M964 639 c63 -17 205 -35 326 -42 l45
-2 -70 -37 c-38 -20 -86 -39 -106 -43 l-37 -7 16 -39 c18 -47 5 -89 -28 -89
-24 0 -35 36 -27 86 l6 34 -52 0 c-29 0 -62 3 -74 6 -22 6 -23 3 -23 -44 0
-65 -29 -99 -58 -70 -16 16 -15 57 3 88 20 35 19 40 -16 52 -30 10 -31 12 -24
57 10 72 15 83 33 76 10 -3 48 -15 86 -26z"/>
<path fill="#ffffff" stroke="none" d="M2137 448 c51 -56 55 -92 12 -107 -97
-34 -199 13 -199 91 0 27 1 27 78 31 42 1 80 4 83 5 3 1 15 -8 26 -20z"/>
<path fill="#ffffff" stroke="none" d="M910 277 c11 -18 20 -39 20 -48 0 -23
-43 -39 -103 -39 -77 0 -126 38 -127 98 l0 33 48 -6 c26 -3 61 -2 77 3 38 11
60 0 85 -41z"/>
<path fill="#ffffff" stroke="none" d="M1993 266 c18 -34 18 -39 4 -54 -10 -9
-39 -17 -75 -20 -74 -5 -118 15 -138 65 -23 53 -14 65 43 58 27 -3 62 -2 78 3
38 12 63 -2 88 -52z"/>
<path fill="#000000" stroke="none" d="M2691 2473 c-43 -53 -39 -66 5 -15 38
44 58 52 68 26 11 -28 6 -51 -15 -78 -12 -15 -19 -29 -16 -32 9 -10 47 54 47
79 0 68 -42 77 -89 20z"/>
<path fill="#000000" stroke="none" d="M1862 2358 c-6 -6 -12 -26 -12 -43 0
-35 37 -77 83 -94 52 -20 53 -10 2 13 -75 34 -103 107 -43 114 20 2 38 -8 74
-42 54 -52 61 -56 38 -22 -36 56 -117 99 -142 74z"/>
<path fill="#000000" stroke="none" d="M2552 2333 c-7 -3 -19 -18 -28 -35 -13
-25 -13 -35 -3 -59 32 -79 139 -59 139 26 0 57 -53 91 -108 68z"/>
<path fill="#000000" stroke="none" d="M2217 2212 c-24 -26 -22 -87 3 -112 45
-45 120 -11 120 55 0 22 -8 43 -20 55 -26 26 -81 26 -103 2z"/>
<path fill="#000000" stroke="none" d="M949 1783 c-12 -20 -24 -46 -26 -57
-17 -113 -17 -113 21 -151 73 -73 81 -112 33 -165 -21 -24 -41 -51 -79 -109
-22 -32 -23 -84 -3 -101 19 -16 75 -6 118 20 18 11 37 21 42 23 62 23 88 25
199 20 68 -3 136 -3 151 1 34 9 109 86 176 184 58 83 71 136 49 203 -15 46
-73 99 -107 99 -35 0 -78 -25 -103 -60 -19 -26 -27 -30 -70 -30 -61 0 -109 24
-146 73 -44 58 -101 87 -172 87 -59 0 -61 -1 -83 -37z"/>
<path fill="#ffffff" stroke="none" d="M1134 1784 c23 -14 52 -41 66 -60 53
-72 176 -100 220 -51 12 12 28 30 37 39 9 10 31 20 49 24 85 16 156 -125 108
-218 -23 -45 -84 -130 -126 -176 -66 -73 -71 -74 -230 -72 -156 3 -184 -1
-240 -36 -20 -13 -55 -26 -76 -30 -35 -5 -41 -3 -47 15 -8 26 2 76 18 94 39
41 107 144 107 163 0 20 -65 113 -90 129 -5 3 -10 18 -10 33 0 30 36 140 52
160 6 7 34 12 66 12 42 0 65 -6 96 -26z"/>
<path fill="#000000" stroke="none" d="M1915 1472 c-6 -4 -23 -27 -37 -52 -25
-43 -31 -47 -101 -68 -41 -13 -81 -29 -87 -38 -18 -21 -6 -106 22 -155 21 -38
23 -39 63 -34 52 8 69 -6 92 -75 l18 -55 52 -3 c67 -4 84 13 113 110 12 40 33
97 46 126 13 29 24 59 24 67 0 7 14 29 30 47 17 19 29 42 28 53 -2 11 -25 35
-52 53 -44 29 -55 32 -125 32 -42 0 -81 -4 -86 -8z"/>
<path fill="#ffffff" stroke="none" d="M2098 1456 c15 -8 38 -25 50 -39 19
-20 22 -29 13 -45 -6 -11 -17 -22 -25 -25 -8 -3 -17 -19 -21 -36 -3 -17 -16
-49 -27 -72 -11 -24 -31 -78 -43 -121 -29 -99 -45 -118 -100 -118 -49 0 -59 9
-74 66 -15 57 -40 77 -92 72 -39 -3 -44 0 -61 29 -10 17 -21 54 -25 81 -5 45
-3 51 18 65 13 9 49 23 79 33 55 17 100 48 100 69 0 6 7 21 16 33 13 19 24 22
90 22 45 0 86 -6 102 -14z"/>
<path fill="#000000" stroke="none" d="M2770 1831 c-14 -27 -13 -28 14 -46 27
-18 53 -11 61 16 14 43 -53 69 -75 30z"/>
<path fill="#000000" stroke="none" d="M2544 1776 c-13 -33 0 -51 36 -51 32 0
35 2 35 30 0 27 -4 30 -33 33 -22 2 -34 -2 -38 -12z"/>
<path fill="#000000" stroke="none" d="M2360 1649 c0 -110 48 -187 129 -209
39 -10 48 -9 97 15 29 14 70 45 89 68 l36 42 -33 8 c-113 29 -200 61 -252 92
-32 19 -60 35 -62 35 -2 0 -4 -23 -4 -51z"/>
<path fill="#ffffff" stroke="none" d="M2617 1574 l75 -16 -35 -36 -36 -35
-38 34 c-44 40 -117 64 -167 56 -39 -6 -46 3 -46 63 l0 39 86 -44 c47 -24 120
-52 161 -61z"/>
<path fill="#ffffff" stroke="none" d="M2495 1556 c43 -13 105 -59 105 -77 0
-15 -63 -31 -101 -26 -45 6 -73 27 -96 71 -12 24 -13 30 -1 37 19 12 38 11 93
-5z"/>
<path fill="#000000" stroke="none" d="M2365 1117 c-55 -18 -90 -42 -103 -72
-10 -21 -8 -29 12 -52 22 -26 31 -28 109 -31 70 -3 93 0 136 18 86 37 115 94
65 126 -34 23 -164 29 -219 11z"/>
<path fill="#ffffff" stroke="none" d="M2445 1102 c33 -61 37 -72 32 -86 -8
-21 -70 -21 -87 -1 -9 11 -9 20 3 44 8 16 12 32 9 36 -6 6 -32 -50 -32 -71 0
-7 11 -21 25 -30 32 -21 83 -10 97 22 9 20 7 29 -16 58 -14 19 -26 38 -26 42
0 9 95 -4 125 -18 29 -13 31 -25 9 -57 -27 -38 -110 -71 -182 -71 -110 0 -155
33 -117 87 18 25 97 58 120 50 8 -4 15 -2 15 3 0 16 15 11 25 -8z"/>
<path fill="#000000" stroke="none" d="M955 585 c-22 -8 -41 -15 -42 -15 -2 0
-3 -5 -3 -10 0 -6 14 -3 31 6 40 20 175 21 242 0 26 -8 47 -10 47 -5 0 28
-213 48 -275 24z"/>
</g>
</svg>
