<?xml version="1.0" standalone="no"?>
<!DOCTYPE svg PUBLIC "-//W3C//DTD SVG 20010904//EN"
 "http://www.w3.org/TR/2001/REC-SVG-20010904/DTD/svg10.dtd">
<svg version="1.0" xmlns="http://www.w3.org/2000/svg"
 width="628.000000pt" height="489.000000pt" viewBox="0 0 628.000000 489.000000"
 preserveAspectRatio="xMidYMid meet">
<metadata>
Created by potrace 1.16, written by Peter Selinger 2001-2019
</metadata>
<g transform="translate(0.000000,489.000000) scale(0.100000,-0.100000)"
fill="#000000" stroke="none">
<path fill="#000000" stroke="none" d="M0 2445 l0 -2445 3140 0 3140 0 0 2445
0 2445 -3140 0 -3140 0 0 -2445z"/>
<path fill="#ffffff" stroke="none" d="M6270 2445 l0 -2435 -3130 0 -3130 0 0
2435 0 2435 3130 0 3130 0 0 -2435z"/>
<path fill="#000000" stroke="none" d="M3185 4826 c-37 -17 -100 -75 -108 -98
-9 -25 -26 -22 -36 5 -5 12 -18 30 -29 40 -22 20 -117 57 -147 57 -37 0 -95
-26 -126 -56 -28 -27 -30 -33 -27 -91 l3 -63 -52 6 c-160 19 -273 -50 -273
-167 0 -36 6 -55 25 -77 30 -36 96 -72 131 -72 46 0 63 -16 62 -59 0 -46 25
-87 79 -129 34 -25 43 -27 133 -27 109 0 133 8 197 68 l42 40 43 -37 c24 -21
55 -40 71 -43 15 -3 30 -10 33 -14 7 -12 151 -12 158 0 3 5 21 12 40 15 123
23 206 110 206 216 0 20 9 29 44 43 26 11 57 34 73 55 25 33 28 45 27 106 0
45 -4 71 -12 74 -7 2 -12 10 -12 18 0 7 -19 23 -42 35 -34 18 -54 20 -106 16
-35 -3 -69 -10 -75 -16 -21 -21 -37 -11 -58 39 -21 48 -50 77 -109 108 -38 20
-120 25 -155 8z"/>
<path fill="#ffffff" stroke="none" d="M3333 4796 c47 -19 117 -102 117 -137
0 -33 14 -36 57 -15 55 27 104 39 116 27 6 -6 18 -11 26 -11 9 0 31 -14 50
-32 32 -30 33 -33 29 -94 -3 -56 -8 -68 -38 -99 -19 -19 -39 -35 -45 -35 -6 0
-23 -6 -38 -12 -23 -11 -27 -19 -27 -58 -1 -49 -33 -116 -65 -134 -11 -6 -31
-19 -44 -28 -13 -10 -34 -18 -47 -18 -12 0 -26 -4 -29 -10 -11 -17 -180 -12
-222 7 -50 22 -93 62 -93 85 0 27 -9 23 -51 -26 -42 -48 -106 -86 -144 -86
-13 0 -36 -5 -50 -12 -19 -9 -28 -9 -37 0 -7 7 -20 12 -30 12 -31 0 -95 38
-117 69 -22 30 -28 95 -11 106 23 14 7 25 -39 25 -28 0 -52 4 -55 9 -3 5 -21
12 -40 15 -37 7 -54 23 -84 77 -18 32 -19 41 -8 72 26 77 84 108 203 109 45 1
86 -2 90 -5 12 -13 43 -7 43 8 0 9 -7 32 -15 52 -21 51 -20 58 25 103 38 38
44 40 99 40 97 0 165 -48 185 -132 8 -34 22 -36 31 -5 14 51 71 126 108 140
25 11 119 6 150 -7z"/>
<path fill="#000000" stroke="none" d="M1125 4730 c-3 -5 -13 -10 -21 -10 -28
0 -83 -52 -106 -99 -12 -25 -24 -48 -25 -50 -2 -2 -27 19 -57 47 -30 29 -62
52 -70 52 -9 0 -16 5 -16 10 0 6 -31 10 -73 10 -93 0 -157 -29 -171 -78 -5
-18 -13 -32 -17 -32 -15 0 -10 -76 6 -106 l15 -29 -95 -3 c-52 -1 -95 -7 -95
-12 0 -6 -14 -10 -30 -10 -23 0 -44 -12 -80 -46 -28 -26 -50 -55 -50 -65 0
-10 -4 -21 -10 -24 -13 -8 -13 -95 -1 -95 5 0 12 -13 16 -29 4 -18 24 -44 52
-67 41 -34 52 -38 119 -42 l74 -5 0 -62 c0 -72 14 -96 88 -148 46 -31 50 -32
151 -32 73 1 106 4 109 13 2 7 10 12 17 12 8 0 44 28 80 62 l66 61 27 -29 c53
-56 94 -69 216 -68 76 0 111 4 114 12 2 7 11 12 19 12 31 0 109 45 146 85 53
57 77 109 77 171 0 46 3 54 23 60 52 16 117 96 117 144 0 11 5 20 10 20 6 0
10 20 10 44 0 25 -4 48 -10 51 -5 3 -10 14 -10 23 0 9 -18 37 -39 60 l-39 44
-72 0 c-40 0 -77 -5 -83 -11 -6 -6 -19 -11 -28 -11 -9 0 -22 -7 -29 -15 -18
-21 -30 -19 -30 7 0 11 -10 35 -23 52 -13 17 -26 39 -30 49 -3 9 -13 17 -22
17 -8 0 -15 4 -15 9 0 11 -56 41 -77 41 -7 0 -13 5 -13 10 0 6 -24 10 -54 10
-30 0 -58 -4 -61 -10z"/>
<path fill="#ffffff" stroke="none" d="M1214 4711 c3 -4 23 -11 45 -15 33 -5
47 -16 85 -63 25 -32 49 -73 52 -91 3 -18 10 -34 14 -37 4 -3 29 7 55 21 54
28 118 40 167 30 23 -5 43 -19 66 -50 28 -38 32 -50 32 -106 0 -57 -3 -67 -37
-111 -20 -27 -41 -49 -45 -49 -5 0 -23 -10 -41 -21 -31 -21 -32 -24 -33 -92 0
-45 -4 -72 -12 -75 -7 -2 -12 -9 -12 -15 -1 -26 -76 -94 -130 -118 -14 -6 -36
-17 -49 -23 -14 -6 -75 -11 -142 -11 -97 0 -120 3 -136 18 -11 9 -24 17 -30
17 -5 0 -18 17 -29 38 -36 71 -38 71 -73 -4 -13 -29 -102 -104 -123 -104 -9 0
-20 -4 -23 -10 -11 -18 -179 -12 -216 8 -42 22 -67 50 -75 82 -3 14 -11 35
-17 48 -8 17 -8 25 1 34 7 7 12 20 12 30 0 15 -8 18 -49 18 -28 0 -53 5 -56
10 -3 6 -14 10 -24 10 -31 0 -104 45 -122 76 -22 37 -24 112 -4 152 18 35 69
82 90 82 7 0 15 6 17 12 3 9 38 13 127 13 l122 0 -6 25 c-4 14 -11 27 -16 28
-5 2 -9 29 -9 60 1 51 4 61 35 94 26 28 45 38 80 43 122 19 209 -36 249 -157
9 -29 25 -20 32 17 3 19 10 38 15 41 5 3 9 12 9 20 0 31 70 103 106 110 19 3
34 10 34 15 0 12 57 12 64 0z"/>
<path fill="#000000" stroke="none" d="M4985 4453 c-36 -37 -42 -61 -36 -141
2 -35 -21 -54 -42 -33 -6 6 -23 11 -38 11 -15 0 -31 5 -34 10 -3 6 -17 10 -30
10 -13 0 -27 -4 -30 -10 -3 -5 -15 -10 -27 -10 -56 0 -120 -95 -121 -181 -1
-82 64 -184 125 -196 15 -3 28 -9 28 -14 0 -5 6 -9 13 -9 8 0 12 -23 12 -82 0
-77 2 -86 32 -129 46 -67 86 -82 191 -77 l86 5 42 46 c23 26 44 47 47 47 2 0
9 -18 16 -39 7 -25 23 -48 44 -63 17 -12 34 -25 37 -28 13 -14 52 -30 74 -30
14 0 28 -4 31 -10 3 -5 24 -10 46 -10 21 0 39 5 39 10 0 6 14 10 30 10 17 0
30 5 30 10 0 6 8 10 18 10 24 1 41 17 86 78 27 37 40 67 44 98 5 47 14 57 85
93 36 19 67 73 74 133 3 24 10 48 15 55 5 7 5 14 -2 18 -5 3 -10 19 -10 35 0
41 -16 77 -46 105 -23 21 -37 25 -93 25 -37 0 -72 -5 -78 -11 -9 -9 -13 -5
-18 17 -33 163 -89 224 -204 224 -55 0 -61 -3 -100 -40 -22 -22 -41 -49 -41
-60 0 -32 -18 -23 -26 12 -17 78 -104 148 -183 148 -44 0 -54 -4 -86 -37z"/>
<path fill="#ffffff" stroke="none" d="M5100 4460 c0 -5 11 -10 25 -10 33 0
93 -63 101 -106 3 -19 10 -37 15 -40 5 -3 9 -18 9 -34 0 -30 18 -51 24 -28 22
84 51 137 74 138 6 0 12 5 12 10 0 6 9 10 19 10 11 0 23 5 26 10 15 24 72 4
126 -44 16 -14 29 -31 29 -38 0 -6 7 -19 15 -28 9 -10 18 -46 22 -84 5 -61 21
-96 31 -68 2 7 14 12 27 12 13 0 27 5 30 10 11 17 64 11 98 -12 61 -39 86
-151 50 -225 -18 -38 -58 -83 -73 -83 -6 0 -10 -4 -10 -10 0 -5 -13 -10 -30
-10 -27 0 -30 -3 -30 -30 0 -16 -4 -39 -9 -52 -5 -13 -12 -35 -15 -49 -7 -33
-61 -88 -115 -116 -59 -31 -164 -32 -218 -2 -61 34 -113 98 -113 139 0 29 -22
24 -45 -10 -11 -17 -38 -43 -60 -58 -33 -23 -51 -27 -105 -27 -56 0 -71 4
-109 30 -29 19 -50 44 -62 73 -20 47 -25 127 -9 137 6 3 10 17 10 31 0 20 -5
24 -29 24 -17 0 -33 5 -36 10 -3 6 -13 10 -21 10 -23 0 -65 42 -86 88 -17 34
-20 55 -15 105 6 63 8 68 84 127 21 17 129 12 165 -8 72 -40 71 -40 63 42 -5
56 -4 80 8 101 22 44 127 97 127 65z"/>
<path fill="#000000" stroke="none" d="M3205 4005 c-33 -17 -105 -93 -105
-111 0 -7 -7 -14 -15 -18 -9 -3 -15 -18 -15 -36 0 -16 -4 -30 -10 -30 -18 0
-12 -143 7 -170 34 -49 48 -60 73 -60 22 0 30 10 57 68 17 37 38 74 47 81 9 7
16 22 16 33 0 10 7 21 15 24 8 4 15 11 15 16 0 15 33 82 43 89 18 13 9 90 -12
110 -24 23 -75 24 -116 4z"/>
<path fill="#ffffff" stroke="none" d="M3308 3991 c22 -20 32 -81 12 -81 -5 0
-10 -9 -10 -20 0 -11 -4 -20 -10 -20 -5 0 -10 -9 -10 -19 0 -11 -6 -26 -14
-34 -15 -14 -57 -88 -104 -179 -32 -65 -42 -63 -85 15 -28 49 -37 130 -17 142
6 3 10 17 10 30 0 13 4 25 8 27 4 2 18 20 31 41 12 20 27 37 32 37 5 0 9 6 9
14 0 13 93 66 115 66 6 -1 20 -9 33 -19z"/>
<path fill="#000000" stroke="none" d="M4154 3855 c-4 -8 -12 -15 -19 -15 -7
0 -18 -20 -24 -44 -18 -73 -15 -84 27 -104 20 -9 39 -20 40 -24 2 -5 12 -8 23
-8 11 0 22 -7 25 -15 4 -8 12 -15 20 -15 8 0 14 -7 14 -15 0 -9 9 -15 25 -15
14 0 25 -4 25 -10 0 -5 6 -10 13 -10 8 0 24 -9 37 -20 28 -24 78 -27 87 -4 4
10 0 20 -10 26 -10 5 -17 16 -17 24 0 8 -4 22 -8 32 -66 135 -91 175 -119 195
-18 12 -33 25 -33 30 0 4 -23 7 -50 7 -36 0 -52 -4 -56 -15z"/>
<path fill="#ffffff" stroke="none" d="M4281 3818 c22 -17 45 -43 53 -57 36
-70 60 -118 69 -141 5 -14 13 -33 18 -42 11 -22 -5 -32 -23 -15 -7 7 -39 25
-70 41 -32 15 -58 31 -58 34 0 4 -25 18 -55 32 -30 14 -55 28 -55 31 0 4 -9 9
-20 12 -16 4 -20 13 -20 44 0 91 84 123 161 61z"/>
<path fill="#000000" stroke="none" d="M2352 3800 c-15 -25 -14 -124 2 -169 7
-19 20 -39 30 -45 10 -6 28 -19 40 -30 31 -26 90 -44 170 -52 l69 -7 -5 44
c-8 66 -32 112 -100 195 -23 29 -49 53 -56 54 -7 0 -15 7 -18 15 -5 11 -22 15
-63 15 -45 0 -59 -4 -69 -20z"/>
<path fill="#ffffff" stroke="none" d="M2473 3783 c32 -17 107 -101 107 -121
0 -5 7 -15 15 -22 19 -15 55 -92 55 -114 0 -18 -45 -22 -55 -6 -3 6 -24 10
-45 10 -21 0 -42 5 -45 10 -3 6 -15 10 -26 10 -11 0 -31 11 -45 25 -14 14 -29
25 -34 25 -33 0 -59 150 -31 183 17 22 61 22 104 0z"/>
<path fill="#000000" stroke="none" d="M3610 3660 c-8 -5 -25 -10 -36 -10 -16
0 -33 -18 -61 -62 -60 -97 -63 -105 -63 -153 0 -25 -4 -45 -10 -45 -5 0 -10
-22 -10 -50 0 -44 3 -50 20 -50 11 0 35 13 53 29 17 16 50 42 72 56 22 15 63
48 91 74 28 25 63 56 77 67 46 38 44 64 -8 112 -47 43 -90 54 -125 32z"/>
<path fill="#ffffff" stroke="none" d="M3701 3633 c11 -10 32 -28 46 -39 l25
-21 -24 -24 c-14 -13 -39 -35 -58 -49 -18 -14 -41 -32 -50 -40 -22 -19 -66
-54 -104 -83 -16 -12 -40 -32 -55 -44 -14 -13 -29 -23 -33 -23 -15 0 -8 58 7
64 11 4 15 21 15 61 0 30 5 55 10 55 6 0 10 9 10 19 0 10 7 21 15 25 8 3 15
12 15 21 0 8 5 15 10 15 6 0 10 8 10 18 0 11 12 24 28 31 15 8 34 17 42 22 26
14 69 10 91 -8z"/>
<path fill="#000000" stroke="none" d="M945 3385 c-267 -59 -474 -236 -548
-470 -18 -59 -22 -93 -22 -210 0 -126 3 -147 27 -213 56 -156 160 -282 317
-387 l96 -64 13 -66 c13 -68 57 -166 111 -245 l30 -45 -42 -8 c-81 -15 -292
-57 -314 -63 l-22 -6 20 41 c31 64 43 195 29 315 -6 55 -14 111 -17 124 -5 22
-6 22 -29 -9 -13 -18 -34 -59 -46 -91 -21 -52 -38 -74 -38 -48 0 19 -72 110
-87 110 -13 0 -15 -21 -10 -157 5 -173 17 -223 69 -278 l28 -30 -53 -19 c-72
-25 -134 -62 -153 -92 -16 -23 -15 -26 2 -46 39 -43 170 -83 373 -113 154 -23
153 -24 -40 -71 -197 -47 -241 -60 -280 -87 -43 -29 -49 -60 -15 -82 44 -29
105 -37 276 -36 165 0 285 11 648 57 210 26 432 31 492 11 103 -35 -8 -128
-312 -260 -66 -30 -84 -54 -62 -86 21 -29 76 -55 159 -75 134 -31 201 -38 417
-43 347 -9 555 17 988 122 365 88 505 109 690 102 181 -6 279 -30 547 -133
360 -138 510 -170 753 -161 158 6 240 24 331 73 88 48 123 107 96 161 -19 35
-26 39 -208 106 -170 63 -265 111 -292 149 -19 26 -19 28 -3 53 26 40 95 79
222 125 63 23 132 55 154 71 130 94 29 193 -245 242 -207 37 -479 46 -858 27
l-188 -9 -54 41 c-68 50 -61 68 24 68 73 0 264 30 472 74 276 59 556 80 736
56 116 -16 177 -36 240 -81 106 -74 202 -85 290 -34 84 50 144 180 128 280 -7
47 -40 94 -67 96 -7 0 -27 19 -44 42 -28 40 -33 42 -80 42 -27 0 -65 6 -84 12
-19 7 -79 20 -133 28 -104 17 -240 56 -270 78 -17 11 -15 14 22 30 22 10 62
38 89 62 l49 44 51 -21 c44 -19 53 -28 78 -79 15 -33 38 -69 52 -81 l24 -23
23 27 c13 15 32 55 44 90 16 47 28 67 50 80 l29 16 34 -56 c18 -30 41 -60 51
-66 27 -16 51 19 82 117 15 47 34 86 46 95 26 18 57 80 65 130 7 48 -17 131
-46 157 -15 13 -20 31 -20 68 0 92 -51 155 -134 164 -46 6 -99 -16 -154 -61
l-30 -26 -48 21 c-88 39 -224 9 -276 -61 -19 -26 -27 -29 -54 -24 -42 8 -146
-20 -209 -55 l-50 -28 -45 20 c-28 13 -76 22 -130 25 l-86 5 -18 51 c-80 228
-281 388 -437 346 -54 -15 -105 -65 -114 -113 l-7 -36 -47 23 c-164 84 -330
69 -450 -39 -49 -45 -102 -147 -121 -233 -10 -49 -16 -61 -29 -58 -9 2 -30 7
-46 11 -25 5 -33 14 -47 53 -25 68 -72 122 -108 122 -32 0 -45 -17 -66 -85
-11 -39 -13 -40 -55 -39 -24 0 -74 4 -110 8 l-66 7 -24 51 c-13 27 -41 69 -64
93 -47 51 -87 65 -114 41 -20 -19 -41 -79 -41 -122 0 -48 -9 -53 -109 -55
l-94 -2 -41 61 c-68 102 -138 138 -170 89 -9 -12 -20 -56 -26 -97 -6 -40 -13
-76 -15 -79 -3 -3 -45 -10 -94 -16 l-88 -11 -28 44 c-53 84 -150 129 -175 83
-5 -11 -10 -51 -10 -89 l0 -69 -81 -8 c-45 -3 -87 -9 -94 -11 -7 -3 -24 14
-38 39 -29 49 -90 107 -112 107 -26 0 -45 -42 -45 -102 0 -66 10 -62 -130 -58
-83 2 -100 10 -100 47 0 33 -28 90 -47 97 -20 8 -40 -9 -62 -52 l-18 -35 -26
35 c-32 42 -33 49 -6 74 28 26 52 73 45 90 -3 8 -16 18 -28 23 -20 7 -15 10
30 20 66 14 112 14 112 1 0 -10 58 -50 72 -50 4 0 17 11 30 24 l23 24 95 -20
c64 -14 104 -28 123 -44 32 -27 69 -31 87 -9 10 12 28 14 94 9 172 -13 401 31
540 104 87 46 179 132 174 164 -3 20 -9 23 -43 22 -22 -1 -81 -17 -131 -37
-230 -91 -421 -72 -789 78 -72 29 -165 60 -207 69 -92 19 -240 20 -323 1z"/>
<path fill="#ffffff" stroke="none" d="M1270 3369 c30 -6 127 -39 215 -74 228
-91 323 -116 476 -122 143 -6 193 2 318 51 99 39 138 49 145 38 15 -24 -91
-125 -174 -167 -123 -61 -288 -95 -467 -95 -107 0 -123 2 -123 16 0 28 -32 43
-92 44 -50 0 -58 -3 -58 -18 0 -18 -4 -18 -95 2 -77 17 -95 24 -95 39 0 15 -9
17 -70 16 -48 -1 -70 -5 -70 -14 0 -8 -22 -14 -60 -18 -34 -3 -75 -14 -96 -26
-19 -12 -42 -21 -49 -21 -8 0 -18 -12 -21 -26 -6 -24 0 -45 28 -88 23 -35 27
-40 58 -77 16 -20 30 -42 30 -48 0 -6 6 -11 14 -11 8 0 30 -9 48 -19 27 -16
57 -20 163 -22 173 -4 308 1 315 10 3 5 30 11 60 15 30 3 74 9 98 12 36 5 42
4 42 -11 0 -15 6 -17 48 -11 127 17 173 29 168 41 -3 9 17 16 70 24 100 15
102 14 106 -11 3 -23 5 -23 133 -19 72 2 132 5 134 7 2 1 -1 17 -7 33 l-11 31
95 0 c92 0 94 0 94 -24 0 -21 6 -24 53 -30 28 -3 89 -6 135 -6 l82 0 -6 27 -7
26 78 -7 c130 -12 137 -14 130 -46 -7 -33 -2 -35 90 -44 33 -4 77 -9 98 -12
37 -6 38 -5 31 20 -7 28 5 32 54 18 21 -7 22 -14 26 -107 5 -110 25 -215 55
-295 l20 -51 -29 -42 c-46 -69 -63 -132 -64 -233 -1 -84 1 -95 35 -163 l36
-72 -66 -36 c-63 -36 -193 -94 -238 -108 -22 -6 -23 -4 -23 63 0 164 -72 266
-205 291 -71 13 -259 -4 -298 -27 -18 -10 -52 -22 -76 -26 -59 -9 -149 -56
-198 -105 -47 -45 -93 -127 -93 -166 0 -30 -6 -29 -140 17 -165 58 -367 160
-474 240 l-57 43 -2 105 c-2 86 -6 112 -24 146 -33 61 -83 101 -145 113 -70
14 -237 0 -272 -22 -14 -10 -34 -17 -45 -17 -91 0 -244 -120 -272 -213 l-14
-48 -80 52 c-89 58 -235 200 -235 228 0 11 -16 42 -35 71 -70 105 -99 268 -72
417 70 383 458 622 877 542z"/>
<path fill="#ffffff" stroke="none" d="M4337 3196 c102 -51 214 -199 254 -334
l13 -44 40 6 c52 8 148 -8 196 -32 36 -18 37 -18 71 4 67 42 155 67 213 61 49
-5 54 -3 64 18 37 82 222 115 303 56 l26 -20 34 36 c45 46 79 63 129 63 81 0
128 -50 137 -148 3 -31 12 -64 19 -72 39 -46 55 -139 33 -197 -23 -62 -109
-122 -174 -123 -18 0 -53 -16 -88 -39 -63 -43 -140 -65 -196 -55 -20 3 -62 18
-94 32 l-58 25 -35 -41 c-61 -72 -212 -130 -302 -116 -20 3 -56 12 -79 21 -59
22 -163 13 -234 -19 -30 -13 -80 -48 -113 -76 -77 -67 -135 -87 -251 -86 -69
1 -108 7 -166 27 -75 25 -77 26 -135 10 -82 -23 -206 -22 -272 0 -144 51 -235
230 -249 493 -10 184 31 317 127 413 112 112 299 124 457 31 19 -11 36 -20 38
-20 2 0 7 15 10 34 10 50 41 95 78 112 47 21 141 13 204 -20z"/>
<path fill="#ffffff" stroke="none" d="M2789 3000 c35 -36 77 -110 95 -167 7
-23 7 -23 -110 -23 l-117 0 5 78 c11 154 52 190 127 112z"/>
<path fill="#ffffff" stroke="none" d="M2345 2979 c40 -37 105 -147 105 -178
0 -7 -38 -11 -116 -11 l-117 0 6 88 c2 48 10 99 16 115 16 41 52 36 106 -14z"/>
<path fill="#ffffff" stroke="none" d="M3222 2941 c25 -20 70 -109 84 -165 l7
-29 -54 7 c-160 20 -150 11 -124 110 26 101 41 113 87 77z"/>
<path fill="#ffffff" stroke="none" d="M1878 2936 c42 -22 143 -139 130 -151
-8 -7 -179 -31 -182 -26 -11 18 -16 139 -7 164 12 31 21 33 59 13z"/>
<path fill="#ffffff" stroke="none" d="M1527 2858 c31 -33 63 -88 63 -108 0
-6 -29 -10 -75 -10 l-75 0 0 49 c0 102 32 127 87 69z"/>
<path fill="#ffffff" stroke="none" d="M5784 2458 c-13 -43 -44 -123 -53 -137
-15 -23 -39 -5 -66 50 -30 59 -27 79 12 80 15 0 44 6 63 13 49 19 52 19 44 -6z"/>
<path fill="#ffffff" stroke="none" d="M5519 2311 c-21 -62 -41 -87 -59 -76
-11 7 -70 105 -70 117 0 4 28 9 63 11 34 2 67 4 74 5 8 1 5 -17 -8 -57z"/>
<path fill="#ffffff" stroke="none" d="M1456 2331 c43 -20 85 -66 103 -114 6
-16 14 -59 17 -97 12 -120 -36 -198 -145 -236 l-48 -18 33 -68 c18 -38 35 -87
39 -109 5 -31 15 -45 48 -68 23 -16 50 -38 60 -48 17 -20 17 -21 -7 -37 -14
-9 -32 -16 -39 -16 -8 0 -25 -9 -39 -19 -14 -11 -45 -27 -69 -37 -24 -9 -54
-27 -66 -40 -26 -29 -43 -30 -69 -6 -11 10 -42 27 -69 38 -60 22 -92 55 -195
199 -114 157 -162 258 -168 350 -6 89 7 130 59 189 44 50 145 106 192 106 17
0 38 7 47 15 41 37 246 48 316 16z"/>
<path fill="#ffffff" stroke="none" d="M3553 2213 c71 -81 225 -113 379 -79
72 16 75 16 133 -5 41 -14 94 -23 165 -26 l105 -6 30 -51 c40 -68 70 -70 100
-8 18 40 23 43 50 39 17 -3 75 -22 130 -43 123 -46 160 -50 322 -35 159 15
241 5 334 -42 l66 -33 42 38 c58 51 137 88 204 95 127 13 163 -18 155 -136 -6
-80 -32 -134 -88 -185 -49 -44 -77 -56 -134 -56 -58 0 -99 15 -176 66 -36 24
-91 49 -125 58 -106 27 -266 37 -419 26 -201 -14 -217 -17 -461 -65 -370 -74
-548 -90 -686 -61 -88 19 -136 45 -188 101 -59 64 -83 124 -89 217 -5 92 9
156 50 228 l31 54 21 -30 c11 -16 34 -43 49 -61z"/>
<path fill="#ffffff" stroke="none" d="M4850 2279 c29 -9 41 -22 70 -76 19
-36 43 -71 52 -77 25 -15 53 15 77 84 10 30 23 54 27 53 5 -1 48 -16 97 -33
48 -17 139 -40 202 -50 63 -11 131 -26 149 -34 34 -14 34 -15 23 -51 -9 -29
-21 -42 -60 -62 -47 -23 -51 -24 -60 -8 -21 38 -80 95 -98 95 -29 0 -58 -35
-65 -80 l-7 -40 -36 7 c-20 5 -104 7 -187 7 l-150 -2 -26 47 c-33 57 -85 111
-108 111 -26 0 -47 -29 -61 -83 -7 -28 -16 -46 -23 -43 -6 2 -48 17 -92 32
l-81 27 13 51 c14 53 24 65 89 99 85 44 165 52 255 26z"/>
<path fill="#ffffff" stroke="none" d="M5045 2248 c-16 -54 -45 -108 -57 -108
-11 0 -78 97 -78 114 0 3 26 7 58 9 31 2 63 4 70 5 9 1 11 -5 7 -20z"/>
<path fill="#ffffff" stroke="none" d="M4481 2123 c-21 -69 -48 -123 -61 -123
-5 0 -23 23 -39 52 l-30 52 44 17 c24 9 57 26 72 38 15 11 29 21 30 21 0 0 -7
-26 -16 -57z"/>
<path fill="#ffffff" stroke="none" d="M4803 2118 c32 -43 60 -98 53 -106 -9
-8 -103 -3 -132 8 -24 10 -26 14 -22 55 3 25 11 52 18 60 21 25 57 18 83 -17z"/>
<path fill="#ffffff" stroke="none" d="M5651 2119 c16 -18 28 -33 27 -34 -2
-1 -29 -6 -62 -10 l-59 -7 7 29 c16 61 44 68 87 22z"/>
<path fill="#ffffff" stroke="none" d="M5367 2078 c11 -13 28 -36 38 -51 18
-28 18 -28 -10 -57 l-28 -29 -49 25 c-54 27 -55 34 -26 107 13 34 46 36 75 5z"/>
<path fill="#ffffff" stroke="none" d="M627 1900 c7 -148 -11 -237 -55 -283
l-27 -28 -12 28 c-18 41 -16 214 3 287 8 33 27 85 42 114 24 48 27 51 35 30 5
-13 11 -79 14 -148z"/>
<path fill="#ffffff" stroke="none" d="M495 1935 c5 -11 10 -83 10 -160 1 -77
5 -149 10 -160 8 -20 8 -20 -14 -1 -22 20 -41 55 -60 115 -15 45 -26 218 -17
265 l7 37 28 -38 c15 -21 31 -47 36 -58z"/>
<path fill="#ffffff" stroke="none" d="M2953 1999 c53 -14 110 -69 137 -130
27 -63 37 -178 21 -237 -16 -57 -82 -123 -147 -147 -27 -10 -52 -21 -57 -25
-4 -4 3 -26 17 -51 23 -41 48 -111 60 -170 4 -16 23 -37 56 -58 27 -18 56 -42
64 -53 14 -19 13 -23 -11 -41 -14 -11 -37 -22 -50 -23 -14 -2 -33 -10 -42 -18
-9 -8 -28 -17 -43 -21 -15 -4 -32 -13 -39 -21 -6 -8 -18 -14 -27 -14 -20 0
-52 -29 -52 -47 0 -21 -36 -15 -68 12 -17 14 -49 32 -73 40 -57 20 -105 59
-138 109 -14 22 -61 87 -103 144 -220 293 -243 463 -83 611 52 48 132 88 185
94 19 2 47 11 61 20 48 32 255 48 332 26z"/>
<path fill="#ffffff" stroke="none" d="M1619 1951 c121 -95 345 -205 551 -271
l85 -27 6 -49 c4 -27 12 -62 18 -78 6 -16 10 -30 9 -31 -6 -6 -227 62 -323 99
-194 75 -392 185 -459 254 l-28 30 48 50 c27 27 51 50 53 50 2 1 20 -11 40
-27z"/>
<path fill="#ffffff" stroke="none" d="M1515 1815 c35 -30 68 -55 73 -55 6 0
23 -11 39 -24 16 -13 61 -39 101 -56 50 -23 76 -41 85 -59 12 -26 67 -44 67
-22 0 7 10 7 30 0 l30 -11 -23 -28 c-27 -36 -38 -36 -74 -6 -16 14 -53 34 -83
45 -29 11 -69 35 -87 53 -29 28 -47 35 -119 48 l-85 15 -30 69 c-22 53 -26 72
-16 78 21 13 28 10 92 -47z"/>
<path fill="#ffffff" stroke="none" d="M3517 1761 c53 -47 114 -70 208 -78 39
-3 76 -9 83 -12 18 -10 -127 -93 -246 -141 -161 -65 -325 -100 -529 -115 -86
-6 -92 -5 -103 14 -9 18 -8 22 7 28 93 32 152 82 180 148 10 25 24 45 30 45
26 0 190 71 253 110 36 21 67 39 68 40 2 0 24 -18 49 -39z"/>
<path fill="#ffffff" stroke="none" d="M1578 1680 c30 -5 60 -19 75 -34 25
-25 84 -58 127 -71 14 -4 36 -17 50 -30 24 -21 97 -51 152 -62 23 -4 28 -1 33
20 4 14 4 31 0 36 -10 17 10 13 150 -28 l130 -38 50 -86 c58 -99 192 -283 250
-343 23 -24 61 -49 90 -59 28 -10 63 -29 78 -42 16 -13 41 -26 55 -29 15 -3
45 -14 66 -25 48 -22 66 -12 66 37 0 29 4 34 23 34 12 -1 33 -7 47 -15 52 -29
80 -15 80 40 0 20 5 23 33 21 31 -1 32 0 31 36 -2 46 -53 113 -119 154 -25 16
-45 36 -45 45 0 14 -25 91 -44 140 -6 14 8 17 101 22 113 7 183 17 295 43 l67
16 78 -38 c43 -21 87 -46 98 -56 21 -18 117 -55 167 -65 25 -5 27 -2 30 33 4
46 23 54 74 29 52 -25 68 -17 72 33 3 39 5 41 23 31 49 -26 66 27 28 88 -12
19 -20 36 -17 38 9 9 557 20 708 14 299 -12 499 -56 573 -127 66 -63 12 -121
-176 -188 -222 -81 -285 -150 -202 -223 49 -43 105 -69 285 -135 85 -32 165
-67 178 -78 50 -48 10 -117 -98 -169 -165 -79 -410 -88 -681 -23 l-107 25 54
54 c59 58 66 73 95 185 44 169 32 390 -30 564 l-28 79 -24 -39 c-52 -85 -119
-270 -119 -331 0 -35 -16 -27 -39 20 -27 55 -126 163 -136 147 -10 -16 4 -216
21 -319 25 -145 53 -231 91 -283 l35 -49 -53 22 c-176 69 -346 129 -419 148
-103 25 -254 42 -335 36 -33 -3 -94 -7 -135 -10 -97 -7 -318 -52 -540 -109
-317 -81 -532 -109 -845 -109 -373 -1 -650 54 -650 128 0 21 21 33 135 82 108
46 215 110 254 153 41 45 44 60 18 83 -52 47 -236 47 -622 -2 -317 -40 -511
-55 -644 -48 -138 6 -191 22 -191 56 0 38 44 57 261 111 108 27 202 54 207 59
21 21 -9 31 -157 56 -219 37 -346 80 -346 119 0 33 98 82 260 131 46 13 256
57 377 79 31 5 35 2 82 -62 87 -118 94 -125 156 -154 33 -16 76 -38 95 -48 63
-33 119 -53 134 -47 10 4 16 18 16 37 0 35 17 39 74 15 45 -19 56 -13 56 29 0
30 2 32 30 28 29 -4 30 -3 30 32 0 31 -8 45 -52 89 -29 28 -63 60 -75 69 -48
37 -16 47 85 28z"/>
<path fill="#ffffff" stroke="none" d="M3870 1613 c19 -12 48 -35 64 -52 29
-30 29 -31 10 -46 -10 -8 -34 -19 -53 -24 -18 -6 -41 -16 -50 -24 -9 -8 -30
-19 -47 -25 -48 -16 -114 -61 -114 -77 0 -22 -25 -18 -57 8 -15 13 -49 32 -74
41 -64 24 -107 54 -89 60 129 45 235 94 325 150 22 13 42 21 45 17 3 -4 21
-17 40 -28z"/>
<path fill="#ffffff" stroke="none" d="M4568 1413 c32 -117 42 -186 42 -298 0
-185 -39 -322 -113 -398 -26 -27 -53 -47 -60 -45 -42 14 -56 291 -23 474 24
134 101 344 126 344 4 0 17 -35 28 -77z"/>
<path fill="#ffffff" stroke="none" d="M4308 1226 c12 -14 22 -28 22 -31 0 -3
12 -24 27 -46 27 -40 27 -42 28 -227 0 -103 5 -198 9 -212 l9 -25 -31 29 c-36
34 -55 71 -78 152 -28 101 -44 204 -50 324 l-7 115 24 -26 c13 -14 34 -38 47
-53z"/>
<path fill="#000000" stroke="none" d="M1090 3210 c0 -18 48 -60 68 -60 25 0
42 19 42 47 0 21 -4 23 -55 23 -32 0 -55 -4 -55 -10z"/>
<path fill="#000000" stroke="none" d="M832 3143 c-23 -24 -40 -49 -37 -54 18
-28 125 3 125 36 0 23 -22 65 -34 64 -6 0 -30 -21 -54 -46z"/>
<path fill="#000000" stroke="none" d="M673 3013 c-9 -3 -13 -26 -13 -69 0
-56 2 -64 19 -64 25 0 77 44 84 69 3 11 0 27 -7 36 -12 17 -64 34 -83 28z"/>
<path fill="#000000" stroke="none" d="M414 2845 c-9 -35 3 -73 24 -77 22 -4
45 57 31 84 -14 27 -47 23 -55 -7z"/>
<path fill="#000000" stroke="none" d="M659 2723 c-10 -18 -8 -30 12 -72 13
-28 28 -51 33 -51 4 0 26 18 48 40 30 30 39 45 36 67 -3 26 -6 28 -60 33 -51
5 -58 3 -69 -17z"/>
<path fill="#000000" stroke="none" d="M865 2627 c-13 -29 -26 -68 -27 -87 -3
-31 1 -37 47 -67 76 -50 78 -48 73 60 -4 95 -23 147 -55 147 -8 0 -25 -24 -38
-53z"/>
<path fill="#000000" stroke="none" d="M420 2651 c-26 -49 -1 -143 41 -154 49
-13 76 26 58 82 -26 80 -75 116 -99 72z"/>
<path fill="#000000" stroke="none" d="M1198 2658 c-27 -21 -50 -193 -30 -225
4 -6 41 -13 89 -15 l82 -3 -3 45 c-5 55 -44 145 -79 183 -29 30 -36 32 -59 15z"/>
<path fill="#ffffff" stroke="none" d="M1247 2633 c30 -38 64 -115 70 -158 l6
-45 -71 0 c-42 0 -72 4 -74 11 -5 14 8 161 17 188 8 26 33 27 52 4z"/>
<path fill="#000000" stroke="none" d="M1993 2634 c-18 -28 -42 -137 -43 -195
l0 -36 61 -7 c34 -3 95 -6 135 -6 l73 0 -15 53 c-22 74 -62 143 -106 183 -46
41 -81 44 -105 8z"/>
<path fill="#ffffff" stroke="none" d="M2089 2614 c28 -23 91 -136 107 -193 6
-23 5 -24 -32 -18 -22 4 -74 7 -116 7 l-78 0 0 45 c0 48 17 140 32 168 13 25
52 21 87 -9z"/>
<path fill="#000000" stroke="none" d="M1560 2600 c-16 -30 -23 -103 -15 -155
l7 -47 91 6 c51 4 100 10 110 12 22 7 19 18 -26 93 -54 90 -142 139 -167 91z"/>
<path fill="#ffffff" stroke="none" d="M1667 2558 c23 -24 51 -61 62 -83 l21
-40 -32 -6 c-18 -4 -61 -9 -95 -13 l-63 -6 0 73 c0 99 6 117 39 117 18 0 40
-13 68 -42z"/>
<path fill="#000000" stroke="none" d="M2430 2568 c-19 -32 -33 -85 -46 -180
-6 -43 -4 -48 12 -48 11 0 70 -5 133 -11 62 -6 115 -8 117 -6 9 9 -40 145 -68
190 -57 89 -114 110 -148 55z"/>
<path fill="#ffffff" stroke="none" d="M2523 2560 c27 -21 90 -142 102 -193
l6 -29 -108 7 c-59 4 -112 11 -118 16 -11 11 8 134 30 184 17 41 48 46 88 15z"/>
<path fill="#000000" stroke="none" d="M2895 2458 c-27 -39 -68 -188 -51 -188
2 0 48 -9 101 -20 53 -11 101 -20 106 -20 29 0 -19 165 -62 215 -36 41 -71 45
-94 13z"/>
<path fill="#ffffff" stroke="none" d="M2988 2423 c36 -51 67 -173 45 -173 -5
0 -46 7 -92 17 l-83 16 6 41 c8 47 42 127 58 137 16 10 43 -5 66 -38z"/>
<path fill="#000000" stroke="none" d="M530 2397 c0 -43 26 -79 53 -75 30 4
34 47 7 81 -31 39 -60 36 -60 -6z"/>
<path fill="#000000" stroke="none" d="M695 2290 c-16 -18 -17 -21 -1 -44 16
-26 86 -52 112 -42 31 12 13 57 -36 90 -32 21 -53 20 -75 -4z"/>
<path fill="#000000" stroke="none" d="M1659 2024 c-11 -13 -11 -20 1 -41 8
-15 24 -31 35 -37 11 -6 23 -15 27 -21 16 -22 30 14 24 58 -5 35 -12 46 -29
51 -34 9 -43 7 -58 -10z"/>
<path fill="#000000" stroke="none" d="M1792 2007 c-18 -21 -3 -54 38 -81 87
-58 157 -70 220 -38 30 15 35 22 35 52 0 31 -5 37 -38 54 -49 24 -238 34 -255
13z"/>
<path fill="#ffffff" stroke="none" d="M2013 1981 c62 -27 69 -54 20 -80 -28
-14 -85 -14 -120 1 -45 20 -113 70 -113 85 0 22 158 18 213 -6z"/>
<path fill="#000000" stroke="none" d="M2083 1823 c-7 -2 -13 -16 -13 -29 0
-32 52 -64 103 -64 48 0 50 24 4 68 -31 30 -62 38 -94 25z"/>
<path fill="#000000" stroke="none" d="M4251 3127 c-48 -25 -66 -62 -66 -140
1 -59 6 -84 32 -139 37 -79 110 -163 128 -148 6 5 52 31 102 58 l91 48 -22 64
c-47 134 -107 222 -169 251 -49 22 -64 23 -96 6z"/>
<path fill="#ffffff" stroke="none" d="M4364 3094 c34 -26 99 -127 124 -194
11 -30 23 -63 27 -72 5 -14 -4 -23 -47 -42 -29 -13 -71 -36 -94 -50 l-41 -25
-25 27 c-14 15 -33 39 -43 55 l-18 28 27 -11 c15 -5 34 -10 41 -10 18 0 74 49
58 50 -7 0 -13 7 -13 16 0 11 5 14 16 10 27 -10 11 71 -20 102 -28 28 -75 34
-101 12 -15 -13 -15 -15 4 -22 25 -9 28 -46 5 -55 -11 -4 -22 1 -30 12 -13 18
-14 17 -15 -6 l0 -24 -10 25 c-6 14 -9 54 -7 89 4 55 8 67 33 88 23 20 36 24
66 20 21 -3 49 -13 63 -23z"/>
<path fill="#000000" stroke="none" d="M3753 3020 c-72 -17 -125 -69 -148
-144 -29 -97 -14 -232 40 -334 41 -79 36 -77 96 -47 104 53 256 95 345 95 57
0 62 12 41 105 -41 192 -149 311 -297 328 -25 3 -60 2 -77 -3z"/>
<path fill="#ffffff" stroke="none" d="M3925 2979 c58 -29 109 -86 142 -157
29 -61 53 -145 53 -183 0 -25 -4 -27 -61 -33 -88 -10 -201 -41 -290 -80 l-79
-34 -19 32 c-65 106 -84 276 -42 373 21 48 62 88 111 107 32 12 138 -2 185
-25z"/>
<path fill="#000000" stroke="none" d="M3730 2883 c-8 -3 -23 -12 -33 -21 -16
-14 -16 -16 3 -29 25 -18 27 -71 4 -80 -9 -3 -25 -1 -35 6 -17 10 -19 8 -19
-24 0 -109 121 -177 195 -109 25 23 26 27 12 42 -22 24 -6 52 17 33 14 -12 16
-8 16 30 0 99 -85 179 -160 152z"/>
<path fill="#000000" stroke="none" d="M5260 2751 c-15 -29 -12 -128 5 -161
22 -43 53 -60 111 -60 60 0 83 19 94 78 9 51 2 65 -46 100 -89 64 -144 79
-164 43z"/>
<path fill="#000000" stroke="none" d="M940 2193 c-24 -31 -22 -47 9 -51 29
-5 61 24 61 55 0 33 -42 31 -70 -4z"/>
<path fill="#000000" stroke="none" d="M861 2043 c-20 -50 10 -130 44 -117 31
12 47 108 23 132 -22 22 -55 14 -67 -15z"/>
<path fill="#000000" stroke="none" d="M950 1825 c-19 -49 34 -115 80 -100 28
9 26 50 -6 92 -30 40 -61 43 -74 8z"/>
<path fill="#000000" stroke="none" d="M1090 1609 c-16 -28 11 -69 45 -69 19
0 25 5 25 23 0 28 -26 67 -45 67 -8 0 -19 -9 -25 -21z"/>
<path fill="#000000" stroke="none" d="M1243 1493 c-8 -20 31 -55 52 -46 20 7
19 27 -3 46 -24 22 -41 22 -49 0z"/>
<path fill="#000000" stroke="none" d="M2401 1834 c-29 -36 -28 -64 3 -64 34
0 78 38 74 64 -5 33 -51 34 -77 0z"/>
<path fill="#000000" stroke="none" d="M2309 1663 c-14 -36 0 -112 23 -127 44
-27 91 92 53 134 -27 30 -63 26 -76 -7z"/>
<path fill="#000000" stroke="none" d="M2410 1419 c-17 -30 -2 -76 31 -100 67
-48 104 7 55 82 -30 45 -68 53 -86 18z"/>
<path fill="#000000" stroke="none" d="M2565 1170 c-9 -29 2 -55 29 -70 52
-27 74 14 35 64 -24 31 -55 34 -64 6z"/>
<path fill="#000000" stroke="none" d="M2743 1044 c-9 -23 9 -48 37 -52 35 -6
43 11 20 41 -24 31 -48 35 -57 11z"/>
<path fill="#000000" stroke="none" d="M3587 1473 c-20 -20 10 -63 44 -63 30
0 36 30 10 52 -24 19 -43 23 -54 11z"/>
<path fill="#000000" stroke="none" d="M5465 1031 c-3 -6 -1 -11 6 -11 6 0 73
-61 148 -136 173 -173 213 -195 275 -155 39 26 55 57 56 107 0 46 -31 81 -112
127 -89 51 -353 99 -373 68z"/>
<path fill="#ffffff" stroke="none" d="M5647 1006 c45 -8 101 -24 125 -34 24
-11 52 -22 63 -26 37 -12 95 -70 101 -102 5 -25 0 -38 -26 -68 -26 -30 -39
-36 -70 -36 -46 0 -87 32 -231 181 -109 112 -110 111 38 85z"/>
<path fill="#000000" stroke="none" d="M830 731 c0 -4 -26 -11 -57 -14 -32 -3
-59 -11 -61 -17 -2 -5 -12 -10 -22 -10 -10 0 -22 -4 -25 -10 -3 -5 -15 -10
-25 -10 -10 0 -25 -6 -32 -12 -7 -7 -25 -19 -40 -27 -23 -12 -69 -72 -106
-138 -6 -13 -12 -46 -12 -75 0 -42 5 -59 25 -82 22 -26 32 -30 77 -29 29 0 54
6 56 12 2 6 10 11 18 11 8 0 14 4 14 9 0 6 20 24 45 42 29 21 45 40 45 54 0
12 12 32 26 46 14 13 32 38 40 54 8 17 23 44 34 60 26 41 60 114 60 131 0 9
-11 14 -30 14 -16 0 -30 -4 -30 -9z"/>
<path fill="#ffffff" stroke="none" d="M878 723 c-8 -16 -26 -58 -32 -73 -4
-8 -15 -28 -26 -45 -11 -16 -25 -41 -32 -55 -7 -14 -25 -38 -40 -55 -16 -16
-28 -36 -28 -44 0 -15 -47 -62 -107 -108 -72 -56 -153 -16 -153 74 0 23 4 44
9 47 5 3 12 18 15 32 4 15 19 42 33 60 29 38 116 104 137 104 8 0 18 5 21 10
3 6 15 10 25 10 10 0 20 5 22 10 2 6 29 14 61 17 32 3 60 10 63 14 6 11 37 12
32 2z"/>
<path fill="#000000" stroke="none" d="M3460 535 c0 -20 7 -52 15 -72 8 -19
15 -44 15 -55 0 -10 9 -36 20 -58 11 -22 20 -48 20 -60 0 -11 4 -20 9 -20 5 0
12 -14 16 -30 4 -17 12 -36 19 -43 7 -7 19 -26 27 -42 8 -18 23 -31 37 -33 12
-2 22 -8 22 -13 0 -5 22 -9 49 -9 45 0 50 3 63 30 7 17 16 30 20 30 5 0 8 22
8 50 0 37 -8 62 -30 99 -49 84 -146 175 -232 221 l-78 40 0 -35z"/>
<path fill="#ffffff" stroke="none" d="M3527 510 c14 -11 31 -20 39 -20 25 0
169 -147 197 -202 27 -53 36 -118 17 -118 -5 0 -10 -5 -10 -12 0 -21 -33 -48
-59 -47 -36 1 -82 29 -103 65 -34 57 -68 131 -74 162 -4 18 -10 32 -14 32 -5
0 -11 19 -15 43 -3 23 -11 52 -17 64 -10 21 -6 53 8 53 3 0 17 -9 31 -20z"/>
</g>
</svg>
