<?xml version="1.0" standalone="no"?>
<!DOCTYPE svg PUBLIC "-//W3C//DTD SVG 20010904//EN"
 "http://www.w3.org/TR/2001/REC-SVG-20010904/DTD/svg10.dtd">
<svg version="1.0" xmlns="http://www.w3.org/2000/svg"
 width="654.000000pt" height="768.000000pt" viewBox="0 0 654.000000 768.000000"
 preserveAspectRatio="xMidYMid meet">
<metadata>
Created by potrace 1.16, written by Peter Selinger 2001-2019
</metadata>
<g transform="translate(0.000000,768.000000) scale(0.100000,-0.100000)"
fill="#000000" stroke="none">
<path fill="#000000" stroke="none" d="M0 3840 l0 -3840 3270 0 3270 0 0 3840
0 3840 -3270 0 -3270 0 0 -3840z"/>
<path fill="#ffffff" stroke="none" d="M6530 3840 l0 -3830 -3260 0 -3260 0 0
3830 0 3830 3260 0 3260 0 0 -3830z"/>
<path fill="#000000" stroke="none" d="M1280 7443 c-100 -41 -297 -497 -356
-825 -32 -174 -21 -480 22 -602 l15 -41 -50 56 c-52 59 -94 83 -132 77 -55 -8
-50 -67 16 -183 25 -43 45 -79 45 -80 0 -2 -14 -8 -31 -16 -28 -11 -59 -58
-59 -88 0 -24 63 -81 96 -87 18 -3 32 -10 29 -14 -2 -4 -14 -70 -25 -146 -28
-186 -44 -245 -91 -334 -46 -88 -258 -396 -313 -455 -33 -36 -96 -124 -96
-135 0 -12 116 -13 177 -1 l42 8 -50 -55 c-66 -72 -96 -117 -158 -236 -33 -63
-51 -108 -49 -125 3 -30 9 -30 105 -7 l63 14 -70 -70 c-63 -64 -89 -102 -77
-114 2 -3 32 -12 66 -20 35 -9 99 -31 144 -50 81 -33 82 -33 40 -34 -58 0 -64
-17 -17 -54 21 -17 72 -62 113 -99 41 -38 98 -81 128 -95 42 -21 53 -31 53
-50 0 -82 136 -205 252 -227 35 -7 35 -7 27 -43 -15 -63 -10 -125 11 -160 21
-34 74 -72 102 -72 22 0 34 -20 17 -30 -7 -5 -36 -12 -64 -15 -27 -4 -66 -11
-85 -16 -19 -4 -103 -17 -185 -28 -157 -20 -211 -35 -282 -77 -83 -48 -135
-190 -99 -265 15 -31 73 -79 94 -79 5 0 17 -18 27 -40 28 -63 86 -110 135
-110 33 0 42 -5 54 -27 22 -43 75 -88 143 -122 53 -26 78 -32 190 -41 122 -9
262 -27 292 -36 7 -2 -15 -19 -50 -37 -85 -43 -119 -88 -148 -203 -13 -49 -40
-120 -61 -159 -66 -124 -110 -199 -145 -248 -40 -56 -54 -122 -34 -168 12 -31
81 -89 104 -89 27 0 65 -27 79 -58 22 -45 82 -71 163 -72 58 0 66 3 100 34
l38 34 35 -19 c51 -28 109 -25 158 9 100 67 138 184 92 289 -26 61 -21 74 46
129 37 31 47 35 55 23 5 -8 19 -30 31 -49 60 -97 174 -232 251 -298 l38 -32
-32 -73 c-52 -119 -89 -147 -319 -237 -189 -74 -220 -101 -235 -200 -19 -131
-4 -194 51 -209 18 -5 48 -20 66 -34 41 -32 75 -45 157 -62 59 -13 69 -12 124
6 33 11 105 44 161 74 237 126 405 176 638 193 156 12 180 24 238 120 22 37
48 77 58 89 l17 22 55 -35 c30 -19 81 -44 113 -56 56 -20 57 -21 35 -36 -139
-92 -231 -305 -167 -386 28 -35 91 -70 164 -91 33 -10 86 -26 119 -37 34 -12
70 -18 87 -14 15 3 31 1 34 -4 3 -5 36 -19 73 -31 128 -40 396 -36 502 7 61
25 152 126 193 212 67 143 116 257 137 322 85 253 58 517 -61 625 -33 29 -47
35 -85 35 -40 0 -45 2 -39 18 20 50 47 142 52 180 3 23 7 42 9 42 2 0 24 -20
48 -45 25 -25 60 -54 78 -65 40 -24 98 -27 98 -4 0 8 -5 12 -10 9 -16 -10 -93
39 -153 98 l-54 52 -1 88 c-3 199 -75 419 -194 588 l-42 61 39 116 c52 156
182 407 193 373 2 -6 17 6 33 28 41 58 122 119 215 163 45 21 84 38 87 38 3 0
-8 -14 -24 -31 -42 -45 -96 -162 -114 -248 -19 -91 -19 -88 8 -63 38 36 107
60 248 87 226 43 298 63 350 94 27 17 49 29 49 26 0 -3 -15 -24 -33 -48 -46
-61 -121 -209 -151 -298 -13 -40 -27 -82 -32 -93 -4 -10 13 3 38 30 52 56 77
102 143 269 26 66 56 132 67 148 11 15 15 27 9 27 -5 0 -12 -4 -15 -8 -6 -10
-48 -20 -266 -62 -253 -50 -323 -73 -377 -123 -13 -11 -23 -19 -23 -16 0 2 30
65 66 139 41 84 79 147 101 167 42 40 27 43 -68 12 -89 -29 -149 -61 -216
-116 -62 -50 -60 -46 37 65 73 84 203 198 305 266 73 49 163 81 250 89 l50 5
-30 -21 c-60 -43 -111 -96 -142 -149 -52 -87 -50 -96 7 -39 119 117 273 156
535 136 97 -7 99 -8 75 -24 -39 -26 -150 -139 -150 -152 0 -7 15 1 33 18 50
48 148 75 297 80 112 5 137 2 240 -23 63 -15 141 -28 172 -28 31 -1 54 -3 50
-7 -146 -115 -233 -198 -287 -274 -44 -62 -140 -244 -132 -251 3 -3 20 17 40
44 43 61 90 98 157 123 69 26 73 25 51 -20 -11 -21 -43 -101 -72 -177 -63
-170 -122 -290 -182 -369 -111 -148 -294 -291 -447 -350 -41 -16 -77 -32 -80
-35 -3 -3 -17 -11 -32 -17 -37 -16 -37 -36 0 -29 15 3 67 13 115 21 103 19
182 45 246 81 l46 25 -60 -61 c-33 -33 -91 -83 -130 -109 -183 -126 -355 -177
-569 -169 l-107 4 79 -37 c79 -37 110 -65 146 -136 9 -18 16 -34 16 -36 0 -2
-17 0 -37 4 -21 5 -69 15 -106 23 -87 20 -172 62 -266 134 -90 69 -89 69 -124
110 -31 38 -33 33 -12 -30 15 -41 118 -171 141 -175 5 -1 36 -18 69 -38 104
-62 226 -88 324 -69 26 5 31 11 31 35 0 41 -17 80 -50 114 l-29 30 88 1 c237
3 485 154 595 364 20 38 36 72 36 75 0 3 -28 -9 -62 -26 -69 -35 -162 -69
-187 -69 -9 0 16 17 54 38 219 117 354 257 460 476 51 107 107 267 121 351 4
22 13 52 20 67 13 26 13 28 -9 33 -21 6 -59 -4 -122 -31 -30 -12 60 98 198
241 68 71 130 128 144 131 33 9 -321 101 -422 110 -63 6 -167 -4 -235 -23 -22
-6 -23 -4 -13 9 17 20 -8 43 -76 69 -77 29 -282 25 -365 -7 -14 -5 -17 -4 -12
4 12 20 -4 51 -34 67 -60 31 -181 13 -286 -44 -137 -73 -336 -253 -445 -401
-122 -165 -232 -406 -254 -553 -4 -26 -9 -47 -11 -47 -2 0 -37 27 -77 61 -127
107 -259 159 -557 219 -58 12 -144 24 -192 27 -47 3 -90 9 -95 12 -5 3 -24 27
-42 53 -17 26 -47 60 -66 75 l-34 27 20 22 c22 24 17 50 -13 60 -40 12 -8 14
80 4 111 -12 245 0 359 33 85 25 216 93 266 140 26 24 37 27 96 27 64 1 176
20 199 34 14 8 16 38 4 51 -5 6 -17 30 -26 55 l-18 45 35 -38 c65 -70 84 -43
73 107 -16 226 -58 350 -152 455 l-46 51 39 0 c100 1 251 51 298 100 38 40 31
69 -25 98 -42 22 -54 23 -186 20 l-141 -4 18 30 c11 17 19 42 19 56 0 19 26
51 101 125 189 188 263 297 369 545 66 154 90 230 121 385 19 93 23 140 22
310 -1 230 -19 372 -63 501 -47 140 -94 204 -164 228 -56 19 -323 20 -431 1
-294 -51 -556 -178 -763 -370 l-59 -54 -29 30 c-98 103 -319 256 -436 301 -52
21 -58 26 -79 76 -26 63 -126 219 -236 365 -263 353 -484 539 -744 628 -80 26
-257 40 -299 22z"/>
<path fill="#ffffff" stroke="none" d="M1507 7399 c114 -40 260 -116 348 -182
132 -97 294 -278 532 -592 54 -72 153 -218 153 -227 0 -2 -60 11 -132 29 -73
18 -160 36 -193 38 l-60 5 90 -24 c167 -45 447 -179 554 -265 74 -59 145 -141
199 -232 l21 -35 -40 -60 c-52 -77 -79 -129 -79 -151 0 -10 16 10 34 44 107
199 433 458 706 560 123 47 285 82 422 93 73 5 166 15 206 21 83 13 73 19 141
-82 43 -65 86 -185 101 -285 14 -91 18 -332 8 -468 -20 -272 -147 -605 -336
-884 -22 -32 -80 -101 -129 -153 -208 -223 -239 -256 -263 -271 -56 -38 1 -14
78 31 45 27 82 47 82 45 0 -30 -72 -109 -137 -151 -30 -19 -33 -23 -13 -19 85
20 126 27 220 34 279 22 353 -13 155 -73 -168 -51 -269 -56 -339 -19 -26 14
-50 23 -53 21 -2 -3 5 -11 17 -17 12 -6 19 -18 16 -25 -3 -8 4 -17 16 -21 32
-10 122 -99 158 -154 48 -75 79 -165 100 -295 11 -66 23 -131 26 -145 5 -22 0
-19 -38 20 -66 69 -240 221 -246 216 -3 -3 11 -23 30 -44 20 -22 53 -70 75
-108 82 -141 123 -217 123 -224 0 -10 -48 -22 -60 -15 -5 3 -62 10 -127 16
-138 11 -284 36 -332 55 -39 16 -41 17 -41 5 0 -15 128 -93 191 -115 l59 -22
-74 -43 c-161 -92 -290 -117 -566 -108 l-185 5 52 -18 c29 -10 63 -26 75 -34
22 -15 21 -16 -18 -32 -56 -24 -262 -14 -406 20 -110 25 -155 43 -177 70 -8 9
-20 16 -29 16 -12 0 -11 -4 5 -22 27 -30 85 -146 80 -161 -2 -7 -35 18 -73 54
-38 37 -87 76 -110 87 -53 27 -160 51 -256 59 l-77 6 -63 -60 c-83 -79 -112
-93 -194 -93 -56 0 -65 2 -60 16 3 9 6 32 6 52 1 35 5 39 62 72 59 34 132 110
164 172 14 26 19 28 77 28 34 0 80 5 102 11 47 13 105 68 105 99 0 16 4 21 16
16 35 -13 105 -28 110 -23 3 2 -9 15 -27 27 -24 18 -50 24 -107 28 -55 4 -73
2 -68 -7 4 -6 18 -11 32 -11 45 0 21 -32 -51 -68 -30 -15 -67 -21 -155 -24
-133 -6 -148 -11 -156 -47 -11 -53 -25 -71 -80 -108 -55 -37 -61 -38 -143 -38
-78 0 -93 3 -151 33 -60 30 -140 88 -129 94 2 2 27 15 54 29 94 49 125 144 68
206 -55 58 -219 99 -297 73 -45 -15 -66 -44 -66 -93 0 -47 21 -91 68 -140 l37
-38 -32 11 c-96 34 -212 146 -213 206 0 11 18 57 39 101 38 78 65 153 55 153
-3 0 -11 -15 -19 -34 -8 -19 -37 -64 -65 -101 -27 -36 -50 -70 -50 -76 0 -22
-27 -3 -118 84 -53 51 -110 103 -126 116 l-30 22 45 -7 c24 -4 65 -15 92 -25
26 -10 47 -15 47 -10 0 6 -9 12 -19 16 -10 3 -47 24 -80 45 -93 60 -156 90
-232 108 l-70 17 62 72 c34 39 74 77 90 83 43 18 35 27 -23 29 -49 1 -83 -5
-133 -25 -16 -6 -18 -5 -9 7 6 8 35 59 64 114 53 101 140 231 194 293 16 18
27 34 25 36 -2 2 -49 -3 -104 -10 -144 -19 -148 -19 -134 9 7 12 60 69 118
127 58 58 120 125 136 150 17 24 53 76 80 115 102 143 132 243 144 478 8 138
12 172 27 188 21 23 13 35 -14 20 -17 -9 -26 -6 -51 15 -37 31 -40 60 -7 75
20 9 31 7 70 -16 25 -14 53 -25 63 -23 13 2 8 13 -29 54 -44 50 -139 206 -153
252 -16 54 62 27 124 -44 17 -19 43 -58 57 -85 14 -28 27 -49 29 -47 3 2 -4
80 -15 173 -23 202 -25 413 -5 547 29 197 103 437 200 650 60 132 87 176 119
188 35 14 120 1 213 -31z"/>
<path fill="#ffffff" stroke="none" d="M1253 3604 c108 -28 147 -56 147 -108
0 -39 -34 -80 -85 -102 -47 -19 -72 -18 -130 10 -69 32 -115 86 -115 134 0 53
13 63 64 48 101 -31 94 -30 70 -13 -11 9 -33 19 -47 22 -15 4 -24 11 -21 16 8
13 49 11 117 -7z"/>
<path fill="#ffffff" stroke="none" d="M1405 3199 c22 -8 35 -20 35 -30 0 -10
11 -31 25 -46 l25 -28 -15 37 c-8 21 -15 39 -15 41 0 2 24 0 53 -5 28 -5 66
-6 84 -3 40 7 53 -13 53 -84 0 -38 -6 -56 -24 -78 -21 -24 -32 -28 -94 -31
-124 -7 -186 40 -244 182 -16 39 -32 94 -35 121 l-6 50 61 -57 c34 -31 77 -62
97 -69z"/>
<path fill="#ffffff" stroke="none" d="M1236 3296 c1 -1 -1 -19 -5 -41 l-7
-40 -16 25 c-9 14 -19 35 -23 48 -6 21 -4 22 22 16 15 -4 29 -7 29 -8z"/>
<path fill="#ffffff" stroke="none" d="M1215 3208 c14 -8 39 -78 30 -86 -9 -9
-55 29 -68 56 -17 33 -30 96 -21 105 4 3 15 -10 25 -30 11 -21 26 -41 34 -45z"/>
<path fill="#ffffff" stroke="none" d="M1743 3213 c3 -5 -6 -16 -19 -26 -26
-20 -30 -16 -14 14 11 20 25 25 33 12z"/>
<path fill="#ffffff" stroke="none" d="M2279 3100 c31 -17 89 -62 128 -100 57
-55 79 -70 103 -70 25 0 30 4 30 25 0 14 -11 48 -25 76 l-26 50 40 -20 c112
-58 354 -101 457 -82 32 6 58 11 59 11 8 0 83 -126 124 -209 28 -55 53 -101
56 -101 2 0 2 12 -1 28 -8 37 25 66 74 66 46 0 393 -92 494 -132 182 -70 333
-220 424 -418 81 -179 120 -358 111 -514 -5 -97 -32 -237 -48 -254 -5 -6 -9
-18 -9 -28 0 -9 -29 -81 -65 -159 -36 -79 -63 -144 -60 -147 5 -5 145 280 145
296 0 6 9 13 19 17 59 19 130 -50 163 -160 41 -133 21 -351 -52 -561 -40 -115
-49 -130 -50 -79 -1 36 -2 38 -14 22 -14 -18 -15 -14 -33 126 l-6 48 -35 -42
-36 -42 -13 64 c-7 35 -15 69 -17 76 -5 13 -35 1 -152 -58 l-71 -36 29 65 c32
70 32 90 0 45 -20 -28 -72 -128 -72 -138 0 -21 136 34 197 81 17 13 34 24 36
24 2 0 7 -37 10 -82 9 -124 11 -126 64 -70 l44 47 -5 -100 c-3 -55 -8 -111
-12 -125 -5 -22 -1 -20 29 15 l35 40 -8 -42 c-8 -47 -83 -153 -138 -196 -51
-39 -127 -52 -293 -51 -150 2 -233 17 -285 51 -22 14 -24 22 -24 91 0 104 24
185 70 233 36 38 50 43 114 41 21 0 25 2 15 9 -8 5 -33 9 -57 9 -126 0 -190
-93 -193 -281 -1 -98 -4 -101 -57 -69 -53 32 -75 95 -70 194 6 115 45 185 114
206 l29 8 -27 1 c-37 1 -102 -58 -134 -121 -32 -64 -41 -156 -20 -223 8 -27
14 -50 13 -52 -5 -5 -132 58 -149 74 -61 55 43 268 158 323 66 32 180 25 283
-19 86 -36 113 -36 55 0 l-39 24 78 6 c60 5 92 14 143 40 62 32 117 75 69 54
-158 -68 -298 -92 -358 -60 -15 8 -55 19 -89 25 -140 26 -243 76 -433 208
-231 162 -308 237 -365 357 -30 63 -70 208 -70 256 0 14 -9 53 -21 88 -20 57
-20 63 -5 80 9 10 16 19 16 22 0 2 -21 4 -48 5 -26 0 -60 7 -76 16 -27 14 -26
15 67 26 52 7 106 17 118 22 32 14 -151 6 -246 -11 -65 -11 -78 -10 -155 10
-119 33 -244 78 -321 117 -57 28 -71 41 -97 87 -40 71 -148 169 -235 212 l-69
35 71 34 71 34 -67 21 c-38 11 -116 45 -175 75 l-107 55 72 25 c40 14 91 30
115 36 23 6 42 15 42 19 0 12 -57 54 -107 80 -27 13 -61 21 -95 21 l-53 0 62
59 c50 47 71 60 105 65 47 7 105 38 114 60 4 11 11 11 42 0 20 -7 60 -13 87
-14 154 -1 275 -41 417 -137 94 -63 184 -113 204 -113 3 0 -86 83 -115 106 -7
6 23 36 54 56 l30 19 -35 -6 c-19 -4 -49 -13 -67 -20 -31 -13 -36 -11 -111 34
-86 52 -158 78 -238 87 -30 4 -54 9 -54 12 0 2 28 31 63 63 l62 58 114 1 c107
0 116 -2 170 -30z"/>
<path fill="#ffffff" stroke="none" d="M1338 2990 c25 -22 65 -46 90 -53 l45
-14 -38 -23 c-38 -24 -75 -73 -75 -101 0 -12 13 -18 55 -22 32 -3 76 -17 106
-34 l52 -28 -34 -8 c-56 -14 -127 -49 -149 -72 l-21 -22 38 -20 c21 -11 69
-37 108 -58 38 -22 92 -47 120 -56 27 -10 42 -18 32 -18 -20 -1 -114 -39 -134
-53 -22 -17 -2 -35 55 -51 31 -9 84 -33 117 -55 63 -41 205 -168 205 -183 0
-4 -53 17 -117 47 -65 31 -136 63 -158 71 -75 27 -306 53 -447 51 -160 -4
-196 8 -252 82 -42 55 -58 101 -50 139 19 82 124 182 205 196 53 9 50 27 -3
19 -133 -20 -248 -129 -248 -236 0 -26 -3 -48 -7 -48 -21 0 -76 44 -104 82
-27 38 -30 49 -27 96 4 45 10 59 44 93 37 39 98 76 174 105 l35 14 -38 -4
c-21 -3 -61 -16 -90 -29 -112 -52 -167 -114 -167 -186 0 -28 -2 -31 -20 -21
-30 16 -41 46 -41 104 0 56 20 117 49 149 42 46 146 79 307 97 105 11 218 39
288 70 23 10 44 19 45 19 2 1 24 -17 50 -39z"/>
<path fill="#ffffff" stroke="none" d="M1634 2160 c52 -20 56 -24 72 -73 9
-29 23 -65 32 -82 11 -22 12 -30 3 -33 -7 -2 -24 -14 -39 -27 l-26 -22 -40 81
c-22 44 -41 83 -43 85 -2 3 -16 -5 -32 -17 l-29 -21 -5 52 c-3 40 -1 54 12 64
22 17 32 16 95 -7z"/>
<path fill="#ffffff" stroke="none" d="M1497 2069 c3 -73 16 -84 56 -46 l32
30 27 -86 c14 -47 29 -91 33 -97 4 -6 25 6 54 30 26 22 51 40 57 40 5 0 34
-48 64 -105 l54 -105 -52 -48 c-50 -46 -52 -47 -52 -23 0 45 -20 100 -41 111
-12 7 -43 8 -80 4 -58 -6 -62 -5 -92 23 -41 39 -69 53 -105 53 -24 0 -32 -7
-50 -44 -56 -111 -49 -226 17 -294 80 -82 196 -76 286 13 19 19 38 35 42 35
16 0 53 -80 53 -112 0 -49 -19 -108 -35 -108 -41 0 -75 44 -75 97 0 22 -2 25
-10 13 -5 -8 -10 -35 -10 -58 0 -37 6 -50 34 -78 30 -30 32 -35 17 -47 -30
-26 -59 -37 -101 -37 -63 0 -81 13 -69 52 5 18 9 57 9 86 0 48 -2 52 -15 38
-9 -9 -15 -33 -15 -61 0 -38 -5 -52 -29 -76 -31 -31 -51 -35 -82 -19 -23 13
-25 56 -4 107 24 58 8 51 -20 -8 -30 -66 -31 -93 -4 -120 l22 -22 -52 5 c-39
4 -59 12 -81 33 -35 33 -38 45 -11 45 42 0 98 73 89 117 -3 14 -8 10 -27 -20
-34 -55 -64 -72 -100 -57 -36 15 -44 43 -25 88 8 19 12 37 10 39 -11 11 -38
-50 -39 -87 -1 -22 -4 -40 -7 -40 -15 0 -70 42 -80 61 -17 31 -8 121 16 151
10 14 50 63 87 109 80 99 107 152 143 284 35 126 72 171 154 184 3 0 6 -22 7
-50z"/>
<path fill="#ffffff" stroke="none" d="M1964 2005 c229 -109 357 -140 455
-110 l58 17 45 -26 c25 -14 55 -26 67 -26 18 0 22 -4 16 -17 -18 -43 -18 -63
1 -63 20 0 39 -54 94 -255 41 -153 102 -249 243 -381 68 -63 85 -84 67 -80
-14 3 -53 10 -87 16 -156 27 -455 149 -586 239 -42 29 -111 89 -154 134 -81
85 -231 299 -344 492 -36 61 -73 123 -84 138 l-18 28 54 -24 c30 -14 108 -50
173 -82z"/>
<path fill="#ffffff" stroke="none" d="M5397 2034 c-3 -3 -12 -4 -19 -1 -8 3
-5 6 6 6 11 1 17 -2 13 -5z"/>
<path fill="#ffffff" stroke="none" d="M1519 1781 c26 -49 64 -66 135 -57 45
5 56 3 71 -14 28 -31 4 -102 -52 -157 -48 -46 -88 -59 -155 -50 -81 11 -136
106 -125 214 8 74 28 103 72 103 30 0 37 -5 54 -39z"/>
<path fill="#ffffff" stroke="none" d="M2318 1227 c141 -95 295 -138 602 -167
142 -14 149 -15 178 -40 l23 -19 -23 -33 c-14 -18 -40 -59 -58 -90 -26 -43
-43 -61 -72 -73 -45 -18 -140 -20 -170 -4 -12 6 -59 14 -105 17 -45 2 -83 9
-83 13 0 11 76 66 102 75 15 4 -2 14 -64 35 -63 23 -97 29 -141 27 -31 -2 -57
-1 -57 1 0 12 67 84 84 90 27 11 -231 24 -281 15 -21 -4 -46 -11 -57 -16 -15
-8 -14 -4 6 23 33 44 48 91 48 146 0 49 -3 49 68 0z"/>
<path fill="#ffffff" stroke="none" d="M2379 1044 l62 -7 -19 -21 c-22 -24
-42 -60 -42 -75 0 -7 21 -9 58 -5 68 6 255 -28 210 -39 -29 -8 -88 -70 -88
-93 0 -10 7 -13 23 -9 12 3 40 -2 62 -11 32 -14 36 -18 20 -22 -162 -32 -256
-67 -478 -179 -81 -41 -161 -79 -179 -83 -66 -20 -238 43 -254 92 -8 28 22
109 58 152 17 21 50 47 72 57 36 16 38 19 15 19 -59 0 -163 -114 -176 -195 -5
-30 -8 -34 -19 -23 -27 28 -21 124 13 201 20 46 53 67 168 108 50 17 131 51
180 74 135 65 176 73 314 59z"/>
<path fill="#000000" stroke="none" d="M3973 6170 c-121 -29 -323 -135 -416
-218 l-41 -37 25 44 c13 23 39 61 57 82 55 64 20 45 -60 -33 -159 -154 -238
-348 -238 -588 0 -119 17 -215 56 -312 28 -70 50 -93 33 -36 -5 17 -12 84 -15
147 -6 109 -5 118 16 156 55 95 199 213 304 248 50 17 176 24 176 10 0 -5 -43
-52 -95 -106 -52 -54 -95 -102 -95 -107 0 -5 21 4 47 20 76 48 158 63 220 39
l28 -11 -50 -44 c-27 -25 -72 -56 -98 -70 -56 -29 -56 -42 -2 -24 44 14 154 5
182 -15 10 -7 16 -15 13 -17 -3 -2 -34 -28 -70 -59 -36 -30 -78 -66 -95 -79
-18 -14 -22 -20 -10 -15 39 15 153 34 174 28 65 -17 -27 -192 -171 -323 -63
-57 -179 -121 -288 -157 -52 -18 -85 -32 -73 -32 46 -2 237 41 289 64 30 13
54 20 54 16 0 -17 -44 -63 -103 -108 -90 -67 -90 -70 -8 -27 87 46 131 86 131
120 0 13 10 32 23 42 66 51 176 173 200 221 39 78 35 175 -7 203 -16 11 -90
10 -120 -2 -43 -16 -29 -4 27 23 90 45 118 85 82 120 -23 24 -83 40 -126 34
l-39 -5 60 44 c40 29 60 51 60 64 0 45 -129 66 -204 35 -34 -14 -31 -10 34 51
77 73 85 98 40 121 -55 28 -188 7 -284 -45 -70 -37 -167 -136 -200 -202 l-27
-55 5 85 c7 98 44 248 80 317 24 48 70 91 156 150 91 61 384 226 434 243 66
24 26 24 -71 0z"/>
<path fill="#000000" stroke="none" d="M4264 6073 c53 -177 81 -369 71 -487
-8 -91 -34 -185 -77 -271 -17 -33 -23 -53 -15 -45 27 26 85 154 108 236 18 67
21 95 16 184 -6 102 -45 278 -81 364 -15 37 -32 51 -22 19z"/>
<path fill="#000000" stroke="none" d="M1180 6000 c-105 -84 -170 -170 -170
-222 l1 -23 22 26 c12 15 49 61 82 104 67 87 66 87 114 138 19 20 33 37 30 37
-2 0 -38 -27 -79 -60z"/>
<path fill="#000000" stroke="none" d="M1200 5244 c-39 -17 -140 -92 -138
-102 1 -4 -4 -18 -11 -32 -10 -18 -2 -14 30 17 66 63 160 77 256 36 42 -17 79
-17 86 1 9 24 -30 63 -80 80 -57 20 -98 20 -143 0z"/>
<path fill="#000000" stroke="none" d="M2441 5051 c-53 -22 -91 -53 -91 -77 0
-14 7 -16 53 -10 144 18 194 17 306 -3 179 -32 247 -83 301 -228 11 -30 20
-75 20 -101 1 -39 3 -44 11 -28 17 29 6 115 -24 179 -48 104 -208 235 -335
274 -64 19 -187 16 -241 -6z"/>
<path fill="#000000" stroke="none" d="M1044 4851 c-89 -54 -107 -265 -39
-460 13 -36 42 -106 65 -154 23 -49 40 -91 37 -93 -2 -3 -28 16 -56 42 -73 66
-74 49 -1 -22 34 -33 82 -89 107 -126 24 -38 49 -68 54 -68 19 0 7 39 -25 81
-43 54 -117 228 -147 340 -32 119 -33 294 -2 361 23 51 53 73 84 63 14 -5 18
-12 13 -23 -45 -104 -49 -125 -48 -287 0 -156 1 -162 32 -238 17 -42 47 -101
65 -130 32 -49 47 -64 116 -116 l25 -18 -37 -79 c-37 -80 -27 -77 20 6 14 25
33 56 43 70 9 14 20 36 23 50 3 14 16 59 27 100 28 100 31 288 5 375 -24 83
-80 196 -122 245 -45 52 -127 100 -173 100 -19 0 -49 -9 -66 -19z"/>
<path fill="#ffffff" stroke="none" d="M1219 4755 c43 -39 118 -179 128 -237
6 -41 -8 -71 -42 -94 -51 -33 -134 25 -170 120 -30 77 -8 246 32 246 7 0 31
-16 52 -35z"/>
<path fill="#ffffff" stroke="none" d="M1356 4183 c-19 -138 -20 -139 -56
-103 -11 11 -20 31 -20 45 0 46 40 104 74 105 4 0 5 -21 2 -47z"/>
<path fill="#000000" stroke="none" d="M2266 4684 c-226 -55 -362 -272 -342
-548 7 -98 21 -170 37 -195 8 -12 9 -7 4 19 -31 178 10 415 91 525 20 28 34
43 31 34 -69 -210 -81 -300 -53 -409 42 -164 160 -276 301 -288 53 -4 72 0
121 22 l59 26 -50 -45 c-39 -36 -67 -51 -135 -71 -88 -27 -145 -52 -193 -86
-42 -30 -27 -31 34 -4 68 32 227 69 386 92 68 10 122 19 120 20 -5 6 -64 12
-112 13 l-49 1 41 43 c99 102 148 230 147 382 -1 122 -27 204 -103 323 -58 90
-101 128 -169 148 -55 17 -89 17 -166 -2z"/>
<path fill="#ffffff" stroke="none" d="M2417 4629 c51 -24 130 -117 169 -196
l26 -53 -23 -47 c-57 -112 -258 -180 -369 -123 -100 51 -150 202 -99 303 28
56 46 75 91 98 81 41 146 47 205 18z"/>
<path fill="#ffffff" stroke="none" d="M2525 4014 c44 -21 51 -41 23 -71 -53
-57 -197 -96 -212 -57 -18 46 4 92 58 125 38 23 87 24 131 3z"/>
<path fill="#000000" stroke="none" d="M2964 2111 c-18 -11 -35 -25 -39 -32
-5 -8 -11 -3 -19 15 l-11 27 -37 -31 c-20 -17 -42 -46 -48 -66 l-12 -36 -27
25 c-25 23 -61 42 -61 31 0 -12 30 -61 44 -73 14 -11 16 -11 16 4 0 17 1 17
18 2 27 -24 41 -21 48 11 10 48 25 80 46 99 21 18 21 18 14 -19 -9 -52 7 -49
69 12 52 52 52 63 -1 31z"/>
<path fill="#000000" stroke="none" d="M3268 598 c-2 -13 -1 -36 3 -53 7 -30
7 -30 8 7 0 20 4 43 7 52 3 9 2 16 -4 16 -5 0 -11 -10 -14 -22z"/>
<path fill="#000000" stroke="none" d="M3472 598 c-5 -7 -11 -20 -13 -28 -4
-22 11 -90 20 -90 11 0 34 83 29 105 -4 23 -22 29 -36 13z"/>
<path fill="#000000" stroke="none" d="M3659 548 c-7 -17 -8 -39 -2 -69 l10
-44 7 63 c9 69 3 88 -15 50z"/>
<path fill="#000000" stroke="none" d="M694 2831 c-40 -24 -74 -68 -67 -87 9
-25 32 -15 53 24 11 20 27 47 36 60 20 27 18 27 -22 3z"/>
<path fill="#000000" stroke="none" d="M803 2690 c-33 -20 -47 -50 -41 -91 6
-46 31 -25 53 44 12 37 22 67 21 67 -1 0 -16 -9 -33 -20z"/>
<path fill="#000000" stroke="none" d="M1009 2551 c-28 -28 -39 -47 -39 -69 0
-43 9 -62 31 -62 16 0 19 8 19 51 0 35 7 63 21 85 27 45 16 43 -32 -5z"/>
<path fill="#000000" stroke="none" d="M1807 678 c-11 -40 -8 -68 8 -68 10 0
15 10 15 33 0 44 -15 67 -23 35z"/>
<path fill="#000000" stroke="none" d="M5250 2529 c-102 -10 -207 -28 -235
-40 -32 -15 231 1 283 16 25 8 47 13 48 12 2 -1 -21 -15 -51 -31 -68 -35 -198
-143 -252 -209 -23 -28 -41 -53 -38 -55 5 -5 124 88 221 175 45 39 101 83 124
98 33 21 40 29 29 36 -8 5 -21 8 -29 7 -8 0 -53 -4 -100 -9z"/>
<path fill="#000000" stroke="none" d="M5318 2314 c-4 -3 -71 -27 -150 -54
-148 -51 -154 -61 -20 -34 45 9 97 27 125 44 54 33 53 26 -9 -56 -87 -116
-177 -189 -308 -249 -67 -31 -180 -68 -236 -78 -22 -4 -21 -4 6 -6 49 -2 232
38 304 66 129 51 186 106 252 243 42 87 59 148 36 124z"/>
</g>
</svg>
