<?xml version="1.0" standalone="no"?>
<!DOCTYPE svg PUBLIC "-//W3C//DTD SVG 20010904//EN"
 "http://www.w3.org/TR/2001/REC-SVG-20010904/DTD/svg10.dtd">
<svg version="1.0" xmlns="http://www.w3.org/2000/svg"
 width="638.000000pt" height="732.000000pt" viewBox="0 0 638.000000 732.000000"
 preserveAspectRatio="xMidYMid meet">
<metadata>
Created by potrace 1.16, written by Peter Selinger 2001-2019
</metadata>
<g transform="translate(0.000000,732.000000) scale(0.100000,-0.100000)"
fill="#000000" stroke="none">
<path fill="#000000" stroke="none" d="M0 3660 l0 -3660 3190 0 3190 0 0 3660
0 3660 -3190 0 -3190 0 0 -3660z"/>
<path fill="#ffffff" stroke="none" d="M6370 3660 l0 -3650 -3180 0 -3180 0 0
3650 0 3650 3180 0 3180 0 0 -3650z"/>
<path fill="#000000" stroke="none" d="M1260 7273 c-100 -41 -298 -501 -357
-828 -32 -174 -19 -477 24 -600 l14 -40 -50 56 c-52 59 -94 83 -132 77 -55 -8
-50 -67 16 -183 25 -43 44 -79 42 -80 -1 -2 -16 -10 -34 -19 -44 -22 -61 -74
-37 -116 18 -30 67 -60 99 -60 9 0 14 -4 11 -8 -3 -5 -15 -72 -26 -148 -27
-179 -44 -242 -85 -323 -32 -64 -279 -425 -318 -466 -32 -34 -97 -123 -97
-135 0 -12 116 -13 177 -1 l42 8 -50 -55 c-66 -72 -96 -117 -158 -236 -33 -63
-51 -108 -49 -125 3 -30 9 -30 106 -7 l62 14 -69 -68 c-63 -63 -91 -104 -78
-116 2 -3 32 -12 66 -20 35 -9 99 -31 144 -50 81 -33 82 -33 40 -34 -58 0 -64
-17 -17 -54 21 -17 73 -62 114 -101 42 -38 99 -81 128 -94 42 -20 52 -29 52
-49 0 -59 75 -149 163 -193 20 -11 37 -23 37 -28 0 -5 15 -26 34 -45 29 -31
34 -45 38 -97 4 -50 9 -65 34 -90 17 -17 48 -36 69 -44 46 -15 56 -32 23 -39
-96 -20 -204 -38 -328 -55 -151 -20 -243 -47 -296 -88 -70 -52 -112 -187 -80
-254 15 -31 72 -79 94 -79 5 0 17 -18 27 -40 28 -63 86 -110 135 -110 33 0 42
-5 54 -27 22 -43 75 -88 144 -122 55 -28 78 -33 190 -41 124 -9 262 -27 292
-37 9 -3 0 -10 -25 -20 -97 -38 -142 -96 -175 -223 -13 -47 -39 -116 -60 -155
-73 -138 -104 -191 -133 -228 -59 -75 -71 -153 -35 -207 23 -33 53 -53 118
-78 22 -9 41 -26 50 -45 18 -36 86 -75 135 -77 76 -5 95 0 132 34 l38 34 35
-19 c51 -28 109 -25 158 9 100 67 138 184 92 289 -26 61 -21 74 46 129 37 31
47 35 55 23 5 -8 19 -30 31 -49 47 -76 146 -198 210 -260 38 -36 68 -70 68
-76 0 -26 -54 -142 -78 -167 -39 -41 -109 -78 -266 -138 -205 -79 -235 -115
-238 -281 -1 -85 12 -114 59 -127 17 -5 47 -20 65 -34 41 -31 75 -45 156 -62
82 -17 97 -13 317 95 99 48 205 97 235 108 88 32 244 61 377 71 149 11 173 22
228 112 22 36 49 77 60 92 l20 26 55 -35 c30 -19 81 -44 113 -56 56 -20 57
-21 35 -36 -139 -92 -231 -305 -167 -386 28 -35 91 -70 164 -91 33 -10 86 -26
119 -37 34 -12 70 -18 87 -14 15 3 31 1 34 -4 3 -5 36 -19 73 -31 128 -40 396
-36 502 7 19 8 63 42 96 76 62 60 66 67 174 303 120 264 143 509 64 686 -44
96 -105 140 -183 129 -9 -1 -11 4 -6 17 20 51 47 143 52 181 3 23 7 42 9 42 2
0 24 -20 48 -45 25 -25 60 -54 78 -65 40 -24 98 -27 98 -5 0 20 -1 20 66 -20
103 -62 225 -88 323 -69 26 5 31 11 31 35 0 41 -17 80 -50 114 l-29 30 88 1
c237 3 485 154 595 364 20 38 36 72 36 75 0 3 -28 -9 -62 -26 -69 -35 -162
-69 -187 -69 -9 0 16 17 54 38 210 112 343 245 448 450 49 95 119 292 132 372
4 25 14 57 21 72 13 26 13 28 -9 33 -21 6 -59 -4 -122 -31 -45 -19 265 328
327 366 27 16 26 17 -155 63 -100 25 -214 49 -252 53 -63 6 -167 -4 -235 -23
-22 -6 -23 -4 -13 9 17 20 -8 43 -76 69 -78 29 -260 26 -360 -6 -16 -5 -21 -4
-17 4 12 19 -4 51 -34 66 -60 31 -181 13 -286 -44 -137 -73 -337 -253 -446
-401 -121 -165 -231 -405 -253 -553 -4 -26 -9 -47 -11 -47 -2 0 -37 27 -76 60
-80 68 -195 129 -296 159 -120 36 -355 82 -449 88 -50 3 -96 9 -100 12 -5 3
-24 27 -42 53 -17 26 -47 60 -66 75 l-34 27 20 22 c22 24 17 50 -13 60 -40 12
-8 14 84 4 113 -13 237 -1 355 33 85 25 216 94 266 140 26 24 37 27 96 27 64
1 176 20 199 34 14 8 16 38 4 51 -5 6 -17 30 -26 55 l-18 45 35 -38 c65 -70
84 -43 73 107 -16 226 -58 350 -152 455 l-46 51 39 0 c100 1 252 51 295 98 49
52 41 75 -36 107 -40 17 -189 22 -274 9 l-43 -6 20 33 c12 19 21 45 21 59 0
19 26 51 101 125 189 188 263 297 369 545 66 154 90 229 122 385 19 94 22 139
21 310 -1 292 -39 497 -116 628 -62 105 -96 116 -342 113 -163 -3 -205 -7
-295 -29 -262 -63 -481 -178 -668 -352 l-59 -54 -29 30 c-98 103 -318 256
-434 301 -54 21 -59 26 -81 76 -26 63 -126 219 -236 365 -263 353 -484 539
-744 628 -80 26 -257 40 -299 22z"/>
<path fill="#ffffff" stroke="none" d="M1487 7229 c114 -40 260 -116 348 -182
132 -97 294 -278 532 -592 55 -73 153 -218 153 -227 0 -2 -60 11 -132 29 -73
19 -162 36 -198 38 l-65 5 81 -19 c101 -24 316 -114 449 -189 78 -43 120 -76
190 -147 50 -49 104 -116 121 -147 l32 -56 -40 -59 c-51 -76 -78 -128 -78
-150 0 -10 16 10 34 44 107 199 433 458 706 560 123 47 285 82 422 93 73 5
166 15 206 21 83 13 73 19 141 -83 41 -61 84 -183 101 -288 14 -86 18 -328 8
-464 -26 -343 -218 -774 -460 -1031 -47 -49 -116 -125 -154 -168 -39 -42 -87
-89 -107 -103 -20 -13 -37 -27 -37 -30 0 -7 121 59 163 88 31 22 33 18 13 -20
-18 -34 -73 -87 -123 -118 -39 -24 -34 -31 12 -14 76 29 433 46 457 21 11 -10
9 -15 -7 -27 -28 -21 -166 -61 -255 -75 -89 -13 -145 -7 -194 22 -20 12 -39
19 -42 16 -3 -3 4 -11 16 -17 12 -6 19 -18 16 -25 -3 -8 4 -17 16 -21 32 -10
122 -99 158 -154 48 -75 79 -165 100 -295 11 -66 23 -131 26 -145 5 -22 0 -19
-38 20 -66 69 -240 221 -246 216 -3 -3 11 -23 30 -44 34 -37 60 -79 157 -252
40 -70 41 -75 24 -88 -10 -7 -27 -10 -38 -7 -11 3 -72 10 -135 16 -128 11
-309 42 -339 58 -24 13 -31 14 -31 2 0 -16 141 -100 196 -118 l53 -16 -47 -30
c-67 -43 -156 -81 -237 -103 -59 -16 -106 -19 -303 -19 l-234 1 51 -17 c28
-10 61 -25 73 -33 22 -15 21 -16 -18 -32 -56 -24 -262 -14 -406 20 -110 25
-155 43 -177 70 -8 9 -20 16 -29 16 -12 0 -11 -4 5 -22 27 -30 85 -146 80
-161 -2 -7 -35 18 -73 55 -83 80 -146 111 -268 133 -155 27 -168 24 -240 -45
-74 -71 -115 -90 -197 -90 -52 0 -60 2 -55 16 3 9 6 32 6 52 1 35 5 39 62 72
59 34 132 110 164 172 14 27 18 28 87 28 48 0 85 7 113 19 45 21 84 64 84 93
0 15 5 18 16 14 35 -13 105 -28 110 -23 3 2 -9 15 -27 27 -24 18 -50 24 -107
28 -55 4 -73 2 -68 -7 4 -6 18 -11 32 -11 45 0 21 -32 -51 -68 -30 -15 -67
-21 -155 -24 -133 -6 -148 -11 -156 -47 -11 -54 -25 -72 -81 -108 -56 -36 -62
-38 -143 -38 -77 0 -92 3 -150 33 -81 40 -155 102 -124 102 31 0 111 55 128
89 25 48 21 104 -11 138 -55 58 -219 99 -297 73 -88 -29 -90 -136 -3 -227 17
-18 37 -33 44 -33 7 0 13 -4 13 -10 0 -5 7 -10 15 -10 8 0 15 -4 15 -10 0 -5
6 -10 14 -10 24 0 30 -20 28 -89 -1 -36 2 -81 8 -100 12 -43 7 -48 -24 -27
-45 29 -78 124 -54 154 10 12 6 20 -25 44 -20 17 -37 37 -38 46 0 10 -34 39
-77 67 -78 50 -121 105 -122 151 0 11 18 57 39 101 38 78 65 153 55 153 -3 0
-11 -15 -19 -34 -8 -19 -37 -64 -65 -101 -27 -36 -50 -70 -50 -76 0 -23 -28
-3 -123 89 -56 54 -113 106 -127 116 -25 17 -25 17 20 10 25 -4 66 -15 93 -25
26 -10 47 -15 47 -10 0 6 -9 12 -19 16 -10 3 -47 24 -80 45 -92 60 -156 90
-232 109 l-69 17 61 71 c34 40 74 77 90 83 16 7 29 16 29 20 0 13 -108 11
-149 -4 -23 -7 -41 -11 -41 -9 0 3 25 53 56 112 55 103 151 248 202 303 14 15
24 30 21 32 -2 2 -49 -2 -104 -10 -145 -19 -148 -19 -134 9 7 12 60 69 118
127 58 58 120 125 136 150 17 24 53 76 80 115 102 143 132 243 144 478 8 138
12 172 27 188 21 23 13 35 -14 20 -17 -9 -26 -6 -51 15 -37 31 -40 60 -7 75
20 9 31 7 70 -16 25 -14 53 -25 63 -23 13 2 8 13 -29 54 -44 50 -139 206 -153
252 -16 55 63 27 125 -46 17 -20 43 -59 57 -85 13 -27 26 -47 28 -45 3 2 -4
80 -15 173 -22 189 -26 402 -9 522 26 196 106 460 204 675 60 132 87 176 119
188 35 14 120 1 213 -31z"/>
<path fill="#ffffff" stroke="none" d="M1233 3434 c108 -28 147 -56 147 -108
0 -39 -34 -80 -85 -102 -47 -19 -72 -18 -130 10 -69 32 -115 86 -115 134 0 57
12 63 83 41 33 -10 62 -17 64 -15 5 5 -62 36 -77 36 -6 0 -8 5 -5 10 9 14 48
12 118 -6z"/>
<path fill="#ffffff" stroke="none" d="M5069 3343 c-48 -32 -128 -122 -153
-172 -14 -28 -26 -53 -26 -56 0 -3 24 17 52 45 117 115 273 155 533 135 110
-8 108 -2 23 -64 -34 -25 -98 -101 -98 -116 0 -5 15 5 33 22 50 48 148 75 297
80 112 5 137 2 240 -23 63 -15 141 -28 172 -28 31 -1 54 -4 50 -7 -4 -3 -36
-28 -72 -56 -77 -61 -184 -170 -227 -233 -37 -54 -126 -230 -120 -236 3 -3 20
17 40 44 43 61 90 98 157 123 69 26 73 25 51 -20 -11 -21 -43 -101 -72 -177
-63 -170 -122 -290 -182 -369 -111 -148 -294 -291 -447 -350 -41 -16 -77 -32
-80 -35 -3 -3 -17 -11 -32 -17 -16 -7 -28 -18 -28 -24 0 -6 11 -8 28 -5 15 3
67 13 115 21 103 19 182 45 246 81 l46 25 -60 -61 c-65 -66 -167 -141 -255
-186 -54 -28 -59 -28 -205 -27 -152 1 -277 14 -343 37 -35 12 -35 13 79 35
182 36 291 87 359 168 32 39 120 212 120 237 0 10 -23 6 -92 -20 -196 -73
-251 -77 -161 -12 26 19 90 71 140 116 51 45 111 93 134 108 35 21 39 28 27
35 -17 10 -165 -2 -281 -23 -79 -13 -90 -6 -81 52 11 65 24 97 55 126 37 35
71 100 134 259 26 66 56 132 67 148 11 15 15 27 9 27 -5 0 -12 -4 -15 -8 -6
-10 -48 -20 -266 -62 -253 -50 -321 -72 -379 -124 -29 -25 -31 -32 47 128 39
81 76 142 98 163 43 40 28 43 -67 12 -89 -29 -148 -61 -216 -115 -32 -26 -49
-36 -37 -23 11 13 45 53 75 88 109 128 324 294 423 327 48 16 156 34 165 27 3
-2 -6 -11 -20 -20z"/>
<path fill="#ffffff" stroke="none" d="M1385 3029 c22 -8 35 -20 35 -30 0 -10
11 -31 25 -46 l25 -28 -15 37 c-8 21 -15 39 -15 41 0 2 27 -1 61 -6 50 -8 67
-7 95 7 62 29 76 21 49 -30 -8 -16 -15 -48 -15 -71 0 -30 -7 -50 -24 -70 -21
-24 -32 -28 -94 -31 -124 -7 -186 40 -244 182 -16 39 -32 94 -35 121 l-6 50
61 -57 c34 -31 77 -62 97 -69z"/>
<path fill="#ffffff" stroke="none" d="M4681 3021 c-56 -60 -99 -162 -126
-301 l-7 -35 23 22 c40 37 109 61 250 88 223 42 297 62 350 95 53 33 54 31 3
-40 -38 -53 -104 -185 -129 -255 -9 -27 -26 -68 -38 -90 -14 -26 -22 -65 -25
-118 l-5 -80 128 7 c70 4 148 14 174 22 63 19 64 18 5 -15 -64 -35 -99 -59
-166 -117 -49 -42 -138 -142 -138 -155 0 -12 75 -8 149 7 44 9 96 27 124 44
54 33 53 26 -9 -56 -81 -108 -164 -179 -282 -238 -69 -35 -225 -86 -263 -86
-16 0 -29 -4 -29 -9 0 -32 230 -73 460 -82 17 -1 10 -5 -25 -16 -35 -11 -96
-16 -203 -17 l-153 -1 61 -27 c88 -39 117 -63 150 -121 16 -29 30 -55 30 -58
0 -3 -17 -2 -37 2 -21 5 -69 15 -106 23 -87 20 -172 62 -266 134 -90 69 -89
69 -124 110 -31 38 -33 33 -12 -30 9 -26 41 -73 76 -112 33 -38 58 -71 55 -73
-10 -10 -98 49 -150 101 l-53 53 0 84 c-2 196 -77 422 -195 590 l-42 61 39
116 c52 156 182 407 193 373 2 -6 17 6 33 28 41 57 122 118 214 162 44 21 83
39 87 39 3 0 -6 -13 -21 -29z"/>
<path fill="#ffffff" stroke="none" d="M2259 2930 c31 -17 89 -62 128 -100 57
-55 79 -70 103 -70 25 0 30 4 30 25 0 14 -11 48 -25 76 l-26 50 40 -20 c112
-58 354 -101 457 -82 32 6 58 10 60 8 20 -20 83 -126 123 -206 28 -55 53 -101
56 -101 2 0 2 12 -1 28 -8 37 25 66 74 66 46 0 393 -92 494 -132 181 -70 334
-221 424 -418 111 -243 141 -490 84 -694 -11 -41 -24 -86 -27 -100 -3 -14 -35
-88 -69 -164 -35 -77 -62 -141 -59 -144 5 -5 145 280 145 296 0 6 9 13 19 17
59 19 130 -50 163 -160 41 -133 21 -351 -52 -561 -40 -115 -49 -130 -50 -79
-1 36 -2 38 -14 22 -14 -18 -15 -14 -33 126 l-6 48 -35 -42 -36 -42 -14 69
c-7 38 -16 72 -20 76 -4 4 -55 -17 -113 -45 l-105 -52 28 64 c16 35 27 65 25
67 -2 3 -25 -1 -50 -8 -27 -7 -42 -15 -35 -19 6 -4 -33 -21 -87 -38 -109 -34
-193 -40 -237 -17 -15 8 -60 21 -101 30 -153 31 -243 77 -474 241 -165 117
-259 211 -306 307 -35 71 -77 217 -77 269 0 14 -9 53 -21 88 -20 57 -20 63 -5
80 9 10 16 19 16 22 0 2 -21 4 -48 5 -26 0 -60 7 -76 16 -27 14 -26 15 67 26
52 7 106 17 118 22 33 14 -167 5 -240 -11 -29 -6 -71 -8 -92 -5 -75 12 -275
78 -365 120 -84 40 -93 47 -121 98 -41 72 -149 169 -236 213 l-69 35 71 34 71
34 -67 21 c-38 11 -116 45 -175 75 l-107 55 72 25 c40 14 91 30 115 36 23 6
42 15 42 19 0 12 -57 54 -107 80 -27 13 -61 21 -95 21 l-53 0 61 58 c52 49 69
59 120 69 42 9 66 21 84 40 24 26 27 27 60 16 19 -7 55 -12 80 -13 64 0 164
-17 241 -40 46 -14 103 -44 180 -96 95 -64 185 -114 205 -114 3 0 -86 83 -115
106 -7 6 23 36 54 56 l30 19 -35 -6 c-19 -4 -49 -13 -67 -20 -31 -13 -36 -11
-111 34 -86 52 -158 78 -238 87 -30 4 -54 9 -54 12 0 2 28 31 63 63 l62 58
114 1 c107 0 116 -2 170 -30z"/>
<path fill="#ffffff" stroke="none" d="M1318 2820 c25 -22 65 -46 90 -53 l45
-14 -38 -23 c-38 -24 -75 -73 -75 -101 0 -12 13 -18 55 -22 32 -3 76 -17 106
-34 l52 -28 -34 -8 c-56 -14 -127 -49 -149 -72 l-21 -22 38 -20 c21 -11 69
-37 108 -58 38 -22 92 -47 120 -56 27 -10 42 -18 32 -18 -20 -1 -114 -39 -134
-53 -22 -17 -2 -35 55 -51 31 -9 84 -33 117 -55 63 -41 205 -168 205 -183 0
-4 -53 17 -117 47 -161 76 -179 82 -330 104 -94 14 -175 19 -275 17 -156 -2
-184 5 -234 61 -56 62 -70 99 -65 168 4 63 125 176 204 190 51 9 47 26 -5 18
-133 -20 -248 -129 -248 -236 0 -26 -3 -48 -7 -48 -21 0 -76 44 -104 82 -27
38 -30 49 -27 96 7 83 63 132 228 200 l25 11 -25 0 c-34 1 -125 -38 -182 -77
-57 -39 -88 -87 -88 -136 0 -34 -2 -36 -20 -26 -60 32 -53 188 11 257 33 34
110 62 221 79 208 32 272 45 342 73 39 16 73 29 74 30 2 1 24 -17 50 -39z"/>
<path fill="#ffffff" stroke="none" d="M1613 1989 l55 -21 31 -87 c17 -47 31
-92 31 -98 0 -6 4 -13 8 -15 5 -1 33 -49 62 -105 l54 -103 -51 -47 -51 -48 -6
49 c-3 27 -13 60 -21 73 -16 23 -20 24 -88 18 -69 -7 -73 -6 -97 20 -32 35
-72 55 -108 55 -24 0 -32 -7 -50 -44 -56 -111 -49 -226 17 -294 80 -82 196
-76 286 13 19 19 38 35 42 35 16 0 53 -80 53 -112 0 -49 -19 -108 -35 -108
-41 0 -75 44 -75 97 0 22 -2 25 -10 13 -5 -8 -10 -35 -10 -58 0 -37 6 -50 34
-78 30 -30 32 -35 17 -47 -29 -26 -59 -37 -100 -37 -71 0 -71 1 -64 103 6 86
5 91 -10 75 -11 -11 -17 -33 -17 -63 0 -38 -5 -52 -29 -76 -31 -31 -51 -35
-82 -19 -23 13 -25 56 -4 107 24 58 8 51 -20 -8 -30 -66 -31 -93 -4 -120 l22
-22 -52 5 c-39 4 -59 12 -81 33 -35 33 -38 45 -11 45 42 0 98 73 89 116 -2 13
-10 7 -32 -25 -38 -55 -60 -66 -96 -51 -35 15 -43 43 -24 88 8 19 12 37 10 39
-11 11 -38 -50 -39 -87 -1 -22 -3 -40 -5 -40 -13 0 -64 34 -76 52 -35 49 -12
145 49 208 18 19 58 70 88 112 53 75 68 110 116 273 24 85 56 119 127 137 33
9 49 18 46 26 -4 14 25 41 45 42 6 0 36 -9 66 -21z"/>
<path fill="#ffffff" stroke="none" d="M1944 1835 c229 -109 357 -140 455
-110 l58 17 45 -26 c25 -14 55 -26 67 -26 18 0 22 -4 16 -17 -18 -43 -18 -63
1 -63 20 0 39 -54 94 -255 24 -89 65 -177 115 -245 44 -60 203 -211 251 -239
56 -32 58 -37 32 -73 -14 -18 -40 -59 -58 -90 -26 -43 -43 -61 -72 -73 -45
-18 -140 -20 -170 -4 -12 6 -59 14 -105 17 -45 2 -83 9 -83 13 0 11 76 66 102
75 15 4 -2 14 -64 35 -63 23 -97 29 -141 27 -31 -2 -57 -2 -57 0 0 12 58 75
78 86 23 12 11 14 -115 21 -77 4 -150 4 -162 1 -11 -3 -31 -9 -42 -12 l-22 -6
20 28 c28 41 35 61 42 127 l6 57 54 -36 c126 -85 267 -133 464 -159 138 -18
177 -19 177 -5 0 6 -11 10 -25 10 -40 0 -267 77 -388 131 -278 124 -431 284
-690 721 -40 68 -81 136 -92 151 l-18 28 54 -24 c30 -14 108 -50 173 -82z"/>
<path fill="#ffffff" stroke="none" d="M1499 1611 c26 -49 64 -66 135 -57 45
5 56 3 71 -14 28 -31 4 -102 -52 -157 -48 -46 -88 -59 -155 -50 -81 11 -136
106 -125 214 8 74 28 103 72 103 30 0 37 -5 54 -39z"/>
<path fill="#ffffff" stroke="none" d="M2359 874 l62 -7 -25 -26 c-13 -14 -28
-38 -31 -53 l-7 -28 58 6 c70 6 257 -28 212 -39 -29 -8 -88 -70 -88 -93 0 -10
7 -13 23 -9 12 3 40 -2 62 -11 31 -14 36 -18 20 -21 -155 -30 -256 -68 -494
-188 -123 -62 -164 -78 -197 -77 -68 1 -152 30 -192 66 l-36 34 17 53 c21 68
68 126 121 150 36 16 38 19 15 19 -59 0 -163 -114 -176 -195 -5 -30 -8 -34
-19 -23 -27 28 -21 124 13 201 20 45 50 65 168 107 50 18 131 52 180 76 135
64 176 72 314 58z"/>
<path fill="#ffffff" stroke="none" d="M3968 674 c-22 -41 -38 -78 -34 -81 12
-12 99 21 162 63 37 24 68 44 69 44 1 0 5 -37 8 -82 9 -124 11 -126 64 -70
l44 47 -5 -100 c-3 -55 -8 -111 -12 -125 -5 -22 -1 -20 29 14 l35 40 -8 -42
c-5 -28 -24 -64 -56 -105 -83 -106 -106 -119 -236 -138 -121 -18 -317 0 -393
35 l-55 25 0 77 c0 106 24 187 70 235 36 38 50 43 114 41 21 0 25 2 15 9 -8 5
-33 9 -57 9 -126 0 -190 -93 -193 -281 -1 -98 -4 -101 -57 -69 -53 32 -75 95
-70 194 6 115 45 185 114 206 l29 8 -27 1 c-37 1 -102 -58 -134 -121 -32 -64
-41 -156 -20 -223 8 -27 14 -50 13 -52 -5 -5 -132 58 -149 74 -61 55 43 268
158 323 66 32 180 25 283 -19 86 -36 113 -36 55 0 l-39 24 78 6 c60 5 92 14
143 40 36 19 72 42 81 51 9 10 17 18 19 18 2 0 -15 -34 -38 -76z"/>
<path fill="#000000" stroke="none" d="M3953 6000 c-121 -29 -323 -135 -416
-218 l-41 -37 25 44 c13 23 39 61 57 82 19 21 29 39 23 39 -19 0 -157 -144
-194 -201 -138 -217 -167 -529 -71 -771 28 -70 50 -93 33 -36 -5 17 -12 84
-15 148 l-7 117 35 54 c66 101 187 197 292 232 50 17 176 24 176 10 0 -5 -43
-52 -95 -105 -52 -54 -95 -102 -95 -108 0 -5 21 4 47 20 76 48 158 63 220 39
l28 -11 -50 -44 c-27 -25 -72 -56 -98 -70 -56 -29 -56 -42 -2 -24 44 14 154 5
182 -15 10 -7 16 -15 13 -17 -3 -2 -34 -28 -70 -59 -36 -30 -78 -66 -95 -79
-18 -14 -22 -20 -10 -15 11 4 44 12 74 17 30 5 58 11 62 14 4 2 20 2 34 -2 72
-18 -19 -191 -173 -327 -69 -62 -168 -116 -282 -154 -52 -18 -85 -32 -73 -32
46 -2 237 41 289 64 30 13 54 20 54 16 0 -17 -44 -63 -103 -108 -89 -67 -90
-70 -9 -28 84 44 132 87 132 118 0 28 6 36 52 70 114 84 198 211 198 298 0 92
-27 116 -118 106 l-47 -5 45 23 c83 43 109 84 75 118 -23 24 -83 40 -126 34
l-39 -5 60 44 c71 52 78 78 25 100 -40 16 -121 18 -162 4 -23 -9 -16 1 35 51
69 68 76 94 32 116 -55 28 -188 7 -284 -45 -70 -37 -167 -136 -200 -202 l-27
-55 5 85 c7 98 44 248 80 317 24 48 70 91 156 150 91 61 384 226 434 243 66
24 26 24 -71 0z"/>
<path fill="#000000" stroke="none" d="M4244 5903 c53 -177 81 -369 71 -488
-7 -85 -38 -192 -81 -278 -14 -29 -19 -45 -11 -37 27 26 85 154 108 236 18 67
21 95 16 184 -6 102 -44 276 -81 364 -15 37 -32 51 -22 19z"/>
<path fill="#000000" stroke="none" d="M1163 5832 c-84 -68 -158 -155 -169
-198 -13 -52 5 -44 59 28 31 41 88 112 127 157 39 44 69 81 68 81 -2 -1 -40
-31 -85 -68z"/>
<path fill="#000000" stroke="none" d="M1180 5074 c-41 -18 -141 -91 -138
-102 1 -4 -4 -18 -11 -32 -10 -19 -3 -15 30 16 67 64 161 77 256 37 42 -17 79
-17 86 1 9 24 -30 63 -80 80 -57 20 -98 20 -143 0z"/>
<path fill="#000000" stroke="none" d="M2423 4884 c-48 -17 -93 -56 -93 -80 0
-14 8 -16 53 -10 155 18 194 18 306 -3 179 -32 247 -83 301 -228 11 -30 20
-75 20 -101 1 -39 3 -44 11 -28 17 29 6 115 -24 179 -48 105 -207 235 -333
273 -60 18 -187 17 -241 -2z"/>
<path fill="#000000" stroke="none" d="M1024 4681 c-89 -54 -107 -265 -39
-460 13 -36 42 -106 65 -154 23 -49 40 -91 37 -93 -2 -3 -28 16 -56 42 -73 66
-74 49 -1 -22 34 -33 82 -89 107 -126 24 -38 49 -68 54 -68 19 0 7 39 -25 81
-43 55 -118 228 -147 340 -31 120 -32 295 -2 361 23 51 53 73 84 63 14 -5 18
-12 13 -23 -45 -104 -49 -126 -48 -287 0 -156 1 -162 32 -238 17 -42 47 -101
65 -130 32 -49 47 -64 116 -116 l25 -18 -37 -79 c-37 -80 -27 -77 20 6 14 25
33 56 43 70 9 14 20 36 23 50 3 14 16 59 27 100 28 100 31 288 6 375 -25 85
-78 193 -121 243 -47 54 -129 102 -175 102 -19 0 -49 -9 -66 -19z"/>
<path fill="#ffffff" stroke="none" d="M1199 4585 c43 -39 118 -179 128 -237
6 -41 -8 -71 -42 -94 -51 -33 -134 25 -170 120 -30 77 -8 246 32 246 7 0 31
-16 52 -35z"/>
<path fill="#000000" stroke="none" d="M2246 4514 c-75 -18 -159 -66 -213
-122 -113 -116 -160 -348 -112 -561 13 -57 33 -92 24 -41 -31 178 10 415 91
525 20 28 34 43 31 34 -46 -141 -60 -196 -64 -264 -15 -227 123 -417 313 -433
52 -4 71 0 120 22 l59 26 -50 -45 c-39 -36 -67 -51 -135 -71 -88 -27 -145 -52
-193 -86 -42 -30 -27 -31 34 -4 68 32 227 69 386 92 68 10 122 19 120 20 -5 6
-64 12 -112 13 l-49 1 41 43 c99 102 148 230 147 382 -1 116 -22 187 -88 300
-55 95 -114 151 -179 170 -61 18 -93 18 -171 -1z"/>
<path fill="#ffffff" stroke="none" d="M2421 4445 c42 -27 124 -132 151 -193
l20 -43 -24 -47 c-56 -111 -257 -178 -368 -122 -100 51 -150 202 -99 303 28
56 46 75 91 98 86 44 167 45 229 4z"/>
<path fill="#000000" stroke="none" d="M2944 1941 c-18 -11 -35 -25 -39 -32
-5 -8 -11 -3 -19 15 l-11 27 -37 -31 c-20 -17 -42 -46 -48 -66 l-12 -36 -27
25 c-25 23 -61 42 -61 31 0 -12 30 -61 44 -73 14 -11 16 -11 16 4 0 17 1 17
18 2 27 -24 41 -21 48 11 10 48 25 80 46 99 21 18 21 18 14 -19 -10 -53 8 -50
69 12 52 52 51 63 -1 31z"/>
<path fill="#000000" stroke="none" d="M674 2661 c-40 -24 -74 -68 -67 -87 9
-25 32 -15 53 24 11 20 27 47 36 60 20 27 18 27 -22 3z"/>
<path fill="#000000" stroke="none" d="M783 2520 c-33 -20 -47 -50 -41 -91 6
-46 31 -25 53 44 12 37 22 67 21 67 -1 0 -16 -9 -33 -20z"/>
<path fill="#000000" stroke="none" d="M989 2381 c-28 -28 -39 -47 -39 -69 0
-43 9 -62 31 -62 16 0 19 8 19 51 0 35 7 63 21 85 27 45 16 43 -32 -5z"/>
<path fill="#000000" stroke="none" d="M1786 507 c-10 -39 -7 -67 9 -67 11 0
15 11 15 39 0 45 -15 62 -24 28z"/>
<path fill="#000000" stroke="none" d="M3248 428 c-2 -13 -1 -36 3 -53 7 -30
7 -30 8 7 0 20 4 43 7 52 3 9 2 16 -4 16 -5 0 -11 -10 -14 -22z"/>
<path fill="#000000" stroke="none" d="M3452 428 c-15 -19 -17 -38 -9 -80 10
-48 20 -48 36 0 21 61 2 115 -27 80z"/>
<path fill="#000000" stroke="none" d="M3639 378 c-7 -17 -8 -39 -2 -69 l10
-44 7 63 c9 69 3 88 -15 50z"/>
</g>
</svg>
