<?xml version="1.0" standalone="no"?>
<!DOCTYPE svg PUBLIC "-//W3C//DTD SVG 20010904//EN"
 "http://www.w3.org/TR/2001/REC-SVG-20010904/DTD/svg10.dtd">
<svg version="1.0" xmlns="http://www.w3.org/2000/svg"
 width="628.000000pt" height="628.000000pt" viewBox="0 0 628.000000 628.000000"
 preserveAspectRatio="xMidYMid meet">
<metadata>
Created by potrace 1.16, written by Peter Selinger 2001-2019
</metadata>
<g transform="translate(0.000000,628.000000) scale(0.100000,-0.100000)"
fill="#000000" stroke="none">
<path fill="#000000" stroke="none" d="M0 3140 l0 -3140 3140 0 3140 0 0 3140
0 3140 -3140 0 -3140 0 0 -3140z"/>
<path fill="#ffffff" stroke="none" d="M6270 3419 l0 -2851 -42 6 c-69 10
-291 36 -313 36 -12 0 1 12 35 33 138 82 90 152 -90 131 -44 -5 -80 -6 -80 -2
0 3 -3 13 -6 21 -4 10 8 18 43 26 65 17 141 59 149 84 4 13 -1 27 -15 41 -19
19 -32 21 -116 20 -67 0 -95 3 -95 11 0 8 26 13 82 14 209 5 207 93 -3 123
-54 8 -79 15 -79 25 0 10 22 13 94 13 108 0 134 12 115 54 -14 30 -53 52 -124
71 -68 17 -67 17 -59 39 5 13 22 16 101 16 52 0 103 5 114 10 24 13 25 52 2
72 -19 17 -142 58 -173 58 -16 0 -18 8 -13 80 7 90 -9 130 -51 130 -34 0 -46
-19 -63 -107 l-15 -78 -99 0 c-108 0 -122 -7 -117 -54 4 -32 41 -58 119 -85
87 -30 83 -46 -11 -50 -86 -4 -145 -25 -155 -56 -14 -44 35 -71 158 -85 31 -4
57 -10 57 -14 -1 -19 -22 -26 -87 -27 -91 -2 -137 -25 -141 -71 -5 -47 29 -65
135 -72 56 -4 88 -10 91 -18 2 -7 -2 -15 -10 -18 -141 -49 -178 -75 -178 -124
0 -20 7 -34 19 -41 24 -12 122 -13 173 -1 32 8 38 6 43 -10 8 -23 -1 -39 -21
-39 -24 0 -131 -58 -146 -79 -13 -18 -29 -19 -208 -22 l-195 -3 -55 32 c-63
36 -119 47 -195 38 l-53 -6 14 38 c20 55 17 105 -7 136 -23 30 -45 33 -77 11
-20 -15 -36 -58 -57 -150 l-7 -30 -19 39 c-10 22 -26 48 -35 58 -38 41 -80 6
-68 -57 l6 -35 -47 27 c-94 52 -276 40 -283 -19 -2 -20 4 -28 31 -42 19 -9 41
-16 49 -16 28 -1 -17 -18 -66 -25 -37 -5 -58 -15 -82 -39 -31 -31 -40 -34
-141 -45 -141 -16 -543 -68 -613 -81 -31 -5 -70 -6 -90 -1 l-35 8 50 23 c115
51 136 63 156 91 50 70 25 159 -45 159 -45 0 -73 -24 -103 -86 -26 -55 -58
-78 -74 -53 -13 20 -2 57 37 121 48 80 47 125 -5 170 -49 42 -54 60 -36 128 8
30 15 66 15 79 0 34 -67 98 -114 106 -84 16 -116 -32 -116 -174 0 -94 2 -100
78 -234 50 -87 7 -260 -45 -181 -9 14 -17 47 -18 74 -1 30 -8 54 -18 65 -14
14 -17 39 -18 143 0 71 -5 143 -12 162 -11 33 -15 35 -59 38 -83 5 -102 -37
-78 -171 8 -42 8 -68 -1 -99 l-12 -43 -8 38 c-5 21 -19 51 -31 68 -21 27 -21
32 -8 62 11 22 15 68 15 149 0 114 -1 118 -27 144 -59 59 -196 37 -258 -41
-32 -40 -32 -41 -27 -125 7 -103 25 -147 107 -255 33 -44 63 -90 67 -103 11
-44 -17 -128 -50 -152 -24 -18 -31 -20 -38 -9 -11 18 -11 28 2 87 14 59 8 90
-25 125 -31 33 -40 34 -71 3 -21 -21 -24 -31 -19 -78 l5 -53 -24 26 c-21 24
-25 39 -31 145 -13 241 -64 352 -176 385 -70 21 -130 -35 -130 -121 0 -58 21
-97 85 -159 36 -35 55 -62 55 -77 0 -51 -38 -26 -124 80 -61 75 -138 96 -214
57 -48 -25 -76 -73 -76 -132 0 -85 43 -121 195 -159 89 -23 143 -55 152 -91 6
-21 4 -21 -54 -15 -32 4 -73 12 -90 18 -17 6 -50 8 -73 5 -29 -4 -332 14 -373
23 -1 0 -3 10 -5 22 -2 13 -15 29 -32 36 -25 12 -36 12 -92 -7 -67 -22 -104
-27 -104 -13 0 18 58 60 105 77 63 22 101 58 109 101 20 103 -95 121 -171 26
-21 -26 -57 -66 -79 -89 -37 -38 -46 -43 -88 -43 -25 0 -46 3 -46 8 1 4 9 23
18 42 12 25 46 55 122 105 141 94 177 154 134 220 -35 54 -131 17 -164 -62 -5
-13 -16 -23 -25 -23 -28 0 -18 61 20 117 44 66 51 93 31 132 -40 77 -156 29
-186 -77 -12 -46 -13 -117 -1 -160 9 -29 7 -33 -18 -47 -36 -18 -41 -32 -41
-105 0 -78 -13 -112 -42 -108 -32 4 -44 55 -30 118 6 27 30 93 53 147 68 158
63 260 -14 317 -24 17 -32 19 -67 9 -36 -9 -40 -8 -36 6 26 92 16 179 -27 228
-25 28 -36 34 -65 31 -25 -2 -41 -11 -56 -31 -31 -42 -26 -90 18 -180 30 -60
37 -83 30 -98 -9 -18 -16 -11 -62 60 -42 64 -59 82 -85 89 -41 11 -61 6 -91
-25 -33 -33 -42 -80 -23 -124 29 -67 64 -92 195 -134 71 -23 83 -30 88 -53 4
-15 15 -58 25 -97 23 -85 24 -128 3 -145 -20 -17 -38 0 -57 55 -8 24 -27 49
-46 62 -18 12 -45 40 -61 62 -33 44 -87 64 -115 41 -21 -17 -19 -32 10 -75 35
-51 25 -55 -14 -6 -35 44 -75 62 -109 50 -18 -7 -22 -16 -22 -48 0 -71 61
-119 172 -135 27 -4 53 -15 60 -24 7 -10 36 -34 64 -55 69 -50 82 -66 63 -78
-23 -15 -31 -11 -109 51 -84 67 -119 80 -155 56 -22 -15 -25 -14 -58 19 -38
38 -75 45 -101 19 -22 -22 -20 -33 14 -87 17 -26 30 -50 30 -52 0 -19 -30 8
-100 89 -123 143 -176 171 -234 125 -51 -40 -28 -122 55 -193 37 -31 39 -36
27 -55 -12 -19 -22 -21 -110 -21 l-98 0 0 2785 0 2785 3130 0 3130 0 0 -2851z"/>
<path fill="#ffffff" stroke="none" d="M5766 1624 c4 -14 4 -59 0 -99 l-7 -74
43 -11 c24 -6 66 -18 93 -25 115 -33 95 -55 -51 -55 l-101 0 -10 -45 c-12 -53
-7 -58 65 -69 53 -8 125 -43 117 -56 -4 -6 -50 -10 -104 -10 l-98 0 -7 -41
c-4 -23 -5 -43 -3 -45 2 -2 32 -6 68 -9 35 -4 88 -13 118 -21 78 -22 53 -36
-74 -42 -117 -5 -124 -9 -109 -65 l10 -31 103 -1 c75 0 105 -4 108 -13 5 -14
-59 -45 -138 -66 -59 -15 -64 -27 -40 -89 l11 -29 68 9 c81 10 131 10 156 0
18 -7 18 -9 -4 -32 -24 -25 -120 -75 -146 -75 -24 0 -27 -26 -9 -75 10 -25 15
-48 12 -51 -14 -14 -37 8 -58 56 -20 47 -24 51 -48 45 -14 -3 -60 -8 -101 -11
-57 -4 -80 -2 -95 9 -17 13 -17 17 -5 32 16 20 70 48 125 65 22 7 44 16 48 20
4 4 3 28 -4 54 l-12 48 -56 -8 c-31 -5 -81 -8 -111 -9 -47 0 -55 3 -55 19 0
27 44 56 116 76 l64 17 3 45 3 45 -98 6 c-107 6 -133 12 -133 33 0 30 43 44
132 44 96 0 92 -3 100 70 3 24 0 25 -82 36 -47 7 -98 17 -115 24 l-30 12 24
19 c19 16 39 19 116 19 101 0 105 2 105 60 0 25 -5 29 -71 50 -83 27 -133 64
-109 80 18 11 85 12 153 1 26 -4 50 -5 52 -1 3 4 9 40 15 80 15 103 41 143 56
84z"/>
<path fill="#ffffff" stroke="none" d="M885 1604 c47 -18 60 -153 26 -263 -22
-71 -11 -90 25 -43 51 64 116 59 141 -13 21 -59 10 -121 -43 -243 -35 -81 -48
-123 -52 -174 -4 -61 -3 -68 21 -92 61 -61 117 -11 117 105 0 67 10 89 42 89
27 0 31 20 18 90 -18 101 8 187 68 219 31 17 62 -2 62 -37 0 -15 -16 -52 -37
-82 -43 -65 -51 -132 -19 -156 36 -26 53 -16 99 56 29 45 73 62 93 35 8 -10
14 -27 14 -37 0 -28 -55 -83 -138 -137 -42 -28 -87 -58 -99 -68 -22 -18 -79
-130 -71 -138 2 -3 36 -6 75 -7 85 -2 103 8 165 88 66 88 87 105 122 102 27
-3 31 -7 34 -35 4 -42 -20 -65 -97 -94 -95 -34 -144 -111 -90 -140 17 -9 34
-6 85 11 84 28 118 24 122 -13 7 -55 -56 -96 -188 -123 -107 -21 -224 -14
-280 17 -35 20 -43 21 -102 10 -104 -18 -198 -14 -263 11 l-58 22 -20 -28
c-39 -54 -121 -69 -222 -42 -137 36 -220 115 -201 191 9 35 37 32 77 -10 65
-68 131 -94 158 -61 19 22 -15 50 -124 105 -102 51 -164 101 -191 154 -19 35
-11 73 16 82 32 10 74 -20 160 -117 90 -100 131 -133 155 -124 29 11 28 37 -4
87 -37 61 -38 69 -6 69 18 0 31 -11 51 -45 14 -25 29 -45 32 -45 3 0 17 14 32
31 24 29 28 31 51 19 13 -7 44 -29 69 -49 78 -65 96 -74 135 -67 70 13 59 68
-26 131 -33 24 -68 54 -77 65 -11 14 -37 24 -77 30 -82 13 -113 28 -130 61
-37 71 6 81 60 14 39 -47 63 -60 95 -50 27 9 25 25 -11 74 -16 23 -29 46 -27
51 6 18 53 -16 75 -55 12 -22 28 -41 35 -41 7 -1 18 -2 25 -3 6 0 18 -22 27
-48 20 -59 42 -83 77 -83 36 0 59 33 59 85 1 38 -34 202 -50 235 -3 8 -49 29
-102 46 -52 17 -107 39 -122 49 -55 36 -74 117 -36 155 38 38 75 22 120 -52
37 -61 79 -108 95 -108 15 0 35 43 35 73 0 13 -16 55 -35 96 -38 80 -44 125
-18 153 18 20 23 21 48 12z"/>
<path fill="#ffffff" stroke="none" d="M2751 1221 c22 -17 24 -29 27 -115 3
-75 1 -100 -12 -118 -23 -33 -20 -84 9 -126 16 -23 25 -51 25 -74 0 -24 8 -46
24 -65 16 -19 26 -45 28 -74 2 -35 7 -44 22 -44 16 0 20 9 22 57 3 50 0 59
-17 69 -19 9 -19 12 -6 27 30 34 40 106 27 192 -15 94 -11 110 28 110 38 0 42
-20 42 -185 0 -104 3 -126 19 -146 10 -13 22 -43 26 -66 4 -24 11 -43 15 -43
5 0 10 -10 12 -22 2 -14 14 -26 30 -32 36 -13 71 18 88 79 17 60 7 103 -48
209 -39 75 -47 100 -50 158 -6 92 4 135 33 154 22 14 27 14 69 -4 63 -28 71
-48 52 -130 -19 -86 -13 -111 35 -157 22 -20 39 -46 39 -58 0 -12 -16 -48 -36
-81 -47 -75 -55 -135 -25 -165 37 -37 89 -8 123 67 32 71 99 94 110 38 11 -58
-34 -106 -132 -143 -51 -19 -66 -29 -142 -95 -69 -60 -112 -78 -155 -66 -31 8
-33 12 -33 51 -1 73 1 72 -216 94 l-61 6 -7 -36 c-15 -80 -89 -144 -193 -168
-60 -13 -247 -13 -273 1 -24 13 -36 56 -21 74 7 8 35 20 62 26 56 14 72 35 43
57 -16 12 -46 14 -169 9 -176 -8 -215 0 -215 43 0 55 32 63 124 30 66 -23 134
-22 149 2 15 24 0 69 -35 101 -28 26 -83 47 -205 78 -23 6 -56 22 -73 36 -26
22 -30 33 -30 74 0 80 62 130 144 115 35 -7 100 -66 140 -127 24 -36 80 -62
105 -48 49 26 34 80 -49 166 -62 65 -76 95 -66 146 9 46 33 68 74 68 29 0 43
-8 76 -43 55 -56 74 -122 90 -312 13 -141 15 -150 40 -172 54 -46 91 -19 80
60 -7 50 8 69 33 44 17 -17 19 -44 8 -128 -5 -38 -4 -63 5 -78 10 -20 17 -22
53 -17 53 9 71 26 91 86 28 87 22 127 -29 192 -25 32 -45 62 -45 66 0 5 -9 17
-19 26 -31 28 -62 113 -68 186 -5 59 -3 72 16 98 38 54 148 79 192 43z"/>
<path fill="#ffffff" stroke="none" d="M4781 833 c13 -36 4 -76 -38 -152 -37
-69 -33 -95 10 -61 67 53 143 63 228 30 54 -20 109 -64 109 -87 0 -17 -7 -17
-76 8 -95 35 -274 30 -274 -6 0 -11 13 -15 56 -15 126 0 264 -119 264 -228 0
-16 -7 -35 -15 -42 -32 -26 -88 15 -150 110 -44 69 -96 115 -155 140 -39 16
-49 6 -27 -28 65 -99 96 -258 64 -322 -8 -16 -23 -26 -40 -28 -88 -10 -113 90
-81 321 6 39 4 47 -9 47 -26 0 -45 -38 -83 -160 -42 -133 -66 -185 -93 -200
-52 -27 -101 6 -101 68 0 64 74 171 175 251 54 43 70 71 40 71 -34 0 -87 -32
-216 -130 -73 -56 -156 -113 -183 -127 -96 -49 -130 0 -56 81 48 52 157 109
253 132 46 12 67 22 67 32 0 13 -20 14 -146 8 -134 -7 -145 -6 -142 10 5 29
75 46 208 49 160 3 167 19 23 51 -56 12 -114 29 -130 37 l-28 15 30 9 c17 4
59 8 95 8 85 0 151 -31 193 -92 41 -58 56 -43 33 34 -10 32 -16 72 -14 88 l3
30 24 -45 c13 -25 31 -67 41 -95 27 -79 46 -71 54 22 7 89 18 135 41 169 20
31 33 30 46 -3z"/>
<path fill="#ffffff" stroke="none" d="M199 632 c10 -37 60 -92 112 -125 116
-71 314 -76 361 -8 15 21 17 21 74 6 60 -16 199 -19 269 -7 30 6 49 2 79 -12
50 -25 187 -33 283 -17 89 16 178 56 205 94 l21 30 106 -7 c58 -4 129 -9 158
-13 50 -5 52 -7 47 -33 -4 -19 1 -35 19 -56 l25 -29 163 2 c102 1 158 -2 149
-7 -8 -6 -21 -10 -29 -10 -47 0 -69 -86 -33 -130 48 -60 301 -50 422 16 50 27
104 93 117 142 5 20 10 23 42 18 20 -3 65 -8 101 -12 36 -3 68 -11 72 -18 4
-6 8 -27 8 -47 0 -43 23 -68 72 -75 43 -7 94 14 146 60 56 51 87 49 171 -13
316 -233 575 -321 941 -321 189 0 524 15 685 31 301 28 649 84 780 125 28 8
97 24 155 34 104 19 212 45 303 74 l47 15 0 -164 0 -165 -3130 0 -3130 0 0
324 0 325 27 4 c16 2 56 5 90 6 l62 1 10 -38z"/>
<path fill="#ffffff" stroke="none" d="M410 650 c13 -8 13 -10 -2 -10 -9 0
-20 5 -23 10 -8 13 5 13 25 0z"/>
<path fill="#ffffff" stroke="none" d="M5510 579 c31 -24 96 -29 182 -15 l47
7 22 -50 21 -51 49 0 c26 0 50 4 53 9 4 5 -3 30 -14 55 l-19 46 27 0 c65 -1
355 -39 364 -48 6 -6 9 -42 6 -81 -3 -56 -8 -74 -23 -85 -28 -21 -148 -53
-290 -77 -66 -12 -128 -25 -137 -30 -46 -23 -291 -73 -508 -104 -277 -38 -682
-65 -989 -65 -189 0 -337 22 -489 74 -98 34 -278 129 -381 202 l-84 59 69 6
c38 4 116 14 174 23 245 39 505 64 593 59 l89 -6 -59 -31 c-69 -37 -149 -113
-159 -151 -10 -40 23 -79 70 -83 37 -3 142 44 176 79 18 18 109 92 128 103 7
4 -5 -16 -28 -46 -46 -60 -72 -135 -63 -179 13 -68 103 -101 157 -58 29 23 66
88 66 117 0 10 3 22 8 26 4 4 15 28 24 54 l16 47 1 -70 c2 -135 37 -195 114
-195 80 0 112 58 97 178 -5 38 -18 93 -29 121 -10 28 -16 51 -12 51 13 0 63
-58 105 -121 48 -73 78 -97 128 -105 49 -8 78 20 78 76 0 77 -50 158 -128 210
-54 36 -48 37 39 9 84 -28 119 -21 119 21 0 29 0 29 68 33 37 2 118 4 180 5
101 2 116 0 142 -19z"/>
<path fill="#000000" stroke="none" d="M329 6147 c-141 -53 -229 -178 -229
-327 0 -129 67 -242 182 -305 49 -28 61 -30 153 -30 92 0 104 2 153 30 115 63
182 176 182 305 0 130 -67 243 -182 305 -44 24 -67 30 -138 32 -54 2 -98 -2
-121 -10z"/>
<path fill="#ffffff" stroke="none" d="M546 6113 c67 -23 154 -110 177 -177
22 -63 22 -169 0 -232 -23 -67 -110 -154 -177 -177 -27 -9 -77 -17 -111 -17
-34 0 -84 8 -111 17 -67 23 -154 110 -177 177 -22 63 -22 169 0 232 22 64 110
154 173 177 60 21 165 21 226 0z"/>
<path fill="#000000" stroke="none" d="M4566 5984 c-36 -36 -9 -94 44 -94 35
0 60 23 60 55 0 32 -25 55 -60 55 -16 0 -36 -7 -44 -16z"/>
<path fill="#000000" stroke="none" d="M5253 5971 c-74 -35 -132 -91 -170
-163 -25 -48 -28 -62 -28 -158 0 -96 3 -110 28 -158 38 -72 96 -128 170 -163
52 -24 74 -29 142 -29 68 0 90 5 142 29 74 35 132 91 170 163 25 48 28 62 28
158 0 96 -3 110 -28 158 -38 72 -96 128 -170 163 -52 24 -74 29 -142 29 -68 0
-90 -5 -142 -29z"/>
<path fill="#ffffff" stroke="none" d="M5539 5941 c24 -12 63 -43 87 -67 114
-117 114 -331 0 -448 -73 -75 -114 -91 -231 -91 -86 0 -106 3 -144 23 -108 58
-171 165 -171 292 0 144 77 258 207 306 58 22 196 14 252 -15z"/>
<path fill="#000000" stroke="none" d="M3185 5955 c-263 -36 -516 -144 -715
-306 -54 -44 -57 -45 -180 -62 -365 -51 -642 -180 -777 -360 -49 -65 -63 -98
-63 -145 0 -75 52 -112 157 -112 91 0 188 -22 260 -58 84 -43 85 -46 68 -128
-38 -184 -42 -403 -10 -599 7 -44 12 -81 10 -83 -3 -4 -127 49 -263 112 -184
85 -260 91 -303 23 -67 -105 56 -337 304 -573 160 -153 313 -250 544 -344 17
-7 65 -95 183 -330 88 -176 188 -385 221 -463 62 -144 131 -341 144 -409 6
-34 5 -38 -13 -38 -35 0 -212 -65 -302 -110 -226 -114 -378 -261 -440 -426
-23 -62 -25 -92 -9 -128 26 -56 105 -58 237 -6 64 26 106 34 267 51 284 29
388 61 486 148 l46 40 23 -24 c100 -107 287 -165 532 -165 40 0 102 -7 138
-15 168 -39 187 -41 211 -19 30 27 24 119 -15 199 -34 68 -134 173 -221 232
-135 91 -334 175 -490 206 l-70 14 3 54 c16 257 168 630 379 927 l44 63 29
-25 c34 -28 93 -42 216 -52 241 -18 575 86 827 259 95 64 145 117 177 182 34
70 26 116 -24 143 -27 15 -63 17 -256 17 -210 0 -370 15 -393 35 -5 4 13 10
40 14 61 8 139 45 177 82 16 16 39 52 52 79 31 65 33 180 4 281 l-19 71 39 92
c22 50 48 119 57 153 16 56 21 63 55 76 47 19 53 47 7 37 l-31 -7 7 49 c3 26
11 71 17 99 17 82 4 352 -22 449 -27 103 -114 282 -178 365 -249 327 -709 499
-1167 435z"/>
<path fill="#ffffff" stroke="none" d="M3615 5913 c286 -49 547 -197 698 -396
160 -209 227 -433 213 -706 -11 -198 -11 -203 -26 -233 -11 -24 -19 -28 -54
-28 -54 0 -86 19 -36 21 55 2 82 13 91 37 5 13 4 22 -1 22 -6 0 -10 -7 -10
-15 0 -12 -13 -15 -55 -15 -61 0 -70 11 -25 30 34 14 90 73 90 95 0 22 -28 18
-35 -5 -8 -24 -52 -60 -74 -60 -11 0 -20 15 -28 51 -58 241 -315 235 -427 -12
-14 -30 -31 -79 -39 -109 -9 -35 -20 -56 -31 -58 -9 -2 -16 -9 -16 -16 0 -10
22 -13 88 -12 100 1 140 -15 179 -74 28 -41 29 -75 3 -118 -63 -102 -269 -93
-548 25 l-82 36 -63 -29 c-58 -27 -70 -29 -187 -29 -115 0 -131 3 -195 29 -38
16 -86 40 -105 52 -24 17 -37 21 -45 13 -7 -7 -2 -17 15 -31 60 -49 169 -88
287 -102 56 -7 180 9 229 29 l32 13 4 -77 c6 -92 35 -156 100 -217 55 -51 84
-70 137 -84 79 -21 142 7 165 74 l13 39 16 -24 c49 -76 21 -169 -67 -219 -43
-25 -62 -30 -121 -30 -89 0 -129 11 -237 65 -58 29 -90 40 -94 33 -16 -25 140
-103 253 -125 128 -25 216 2 286 89 53 66 45 179 -18 238 -30 28 -31 39 -5 90
21 42 46 52 57 23 13 -37 57 -86 89 -99 58 -24 164 -16 164 13 0 12 -9 14 -50
8 -62 -9 -112 7 -145 46 -33 40 -32 47 13 55 54 9 110 43 133 81 11 18 24 33
28 33 4 0 40 -27 79 -60 40 -33 74 -60 77 -60 11 0 4 38 -9 49 -11 9 -10 21 9
74 13 35 26 85 30 112 12 86 9 84 63 73 26 -6 48 -11 49 -12 5 -4 -55 -174
-82 -234 l-27 -60 21 -83 c63 -247 -27 -394 -249 -407 l-78 -4 -119 -122
c-316 -322 -486 -550 -638 -851 -114 -225 -172 -414 -191 -618 -8 -86 -20 -74
101 -98 77 -15 241 -72 319 -111 164 -82 318 -213 364 -310 11 -25 24 -68 28
-95 10 -76 -2 -80 -133 -50 -71 17 -155 27 -243 32 -230 11 -351 49 -450 141
-48 45 -50 48 -44 88 4 22 17 68 30 102 26 65 29 84 15 84 -23 0 -67 -104 -77
-182 -6 -40 -14 -55 -56 -93 -88 -83 -186 -113 -458 -140 -180 -18 -223 -26
-288 -56 -99 -45 -182 -45 -197 0 -11 35 22 123 74 203 109 168 342 318 611
394 52 15 97 28 99 30 5 4 -22 105 -61 224 -50 154 -130 335 -299 679 -87 177
-159 324 -159 326 0 1 30 -4 67 -12 80 -16 118 -10 156 26 45 41 59 85 59 186
1 104 -24 209 -74 311 -59 121 -123 167 -298 213 -162 43 -218 63 -224 78 -21
53 -38 271 -33 418 10 302 80 534 233 768 88 136 270 317 412 411 308 204 667
281 1027 219z"/>
<path fill="#ffffff" stroke="none" d="M2308 5503 c-127 -130 -251 -330 -312
-503 -15 -41 -29 -81 -31 -88 -4 -10 -16 -6 -48 12 -78 46 -156 67 -274 75
-99 6 -116 10 -138 31 -48 45 -27 118 62 212 112 117 234 187 433 249 102 31
274 67 335 68 29 1 29 1 -27 -56z"/>
<path fill="#ffffff" stroke="none" d="M4252 4832 c30 -18 72 -89 83 -142 11
-51 8 -191 -5 -257 -14 -66 -40 -135 -49 -131 -36 17 -111 76 -111 88 0 8 -9
32 -20 53 -20 37 -20 39 -2 65 89 128 27 323 -90 283 l-33 -12 26 26 c53 53
137 65 201 27z"/>
<path fill="#ffffff" stroke="none" d="M4135 4714 c19 -21 25 -38 25 -74 0
-62 -32 -100 -85 -100 -53 0 -85 38 -85 100 0 62 32 100 85 100 26 0 43 -7 60
-26z"/>
<path fill="#ffffff" stroke="none" d="M3613 4286 c62 -24 139 -50 172 -56 91
-18 86 -15 70 -54 -8 -20 -15 -62 -15 -95 0 -42 -5 -65 -18 -81 l-19 -23 -21
36 c-41 64 -151 147 -197 147 -31 0 -13 -26 33 -47 48 -22 142 -111 142 -134
0 -14 -47 -6 -95 17 -58 27 -145 119 -145 153 0 11 -5 21 -11 23 -13 4 -26
158 -14 158 4 0 57 -20 118 -44z"/>
<path fill="#ffffff" stroke="none" d="M1551 4231 c30 -10 90 -36 134 -58 129
-65 300 -129 459 -173 231 -63 269 -90 332 -225 83 -182 85 -412 3 -455 -53
-29 -248 19 -406 98 -263 133 -533 386 -650 610 -27 52 -33 74 -33 127 0 44 5
68 16 79 21 21 79 20 145 -3z"/>
<path fill="#ffffff" stroke="none" d="M4170 3638 c82 -18 128 -21 341 -22
220 -1 249 -3 273 -20 24 -15 28 -23 23 -52 -29 -179 -478 -426 -839 -463
-158 -16 -320 8 -357 53 -12 14 -10 21 13 54 76 109 415 472 441 472 5 0 53
-10 105 -22z"/>
<path fill="#000000" stroke="none" d="M3013 5498 c-46 -15 -101 -64 -88 -77
8 -8 21 -3 47 15 71 51 167 50 235 -2 38 -29 43 -30 43 -4 0 50 -157 96 -237
68z"/>
<path fill="#000000" stroke="none" d="M3022 5219 c-18 -6 -59 -34 -90 -64
-31 -30 -59 -55 -63 -55 -15 0 -79 68 -79 84 0 9 -7 16 -15 16 -41 0 7 -83 70
-121 30 -19 30 -19 5 -19 -31 0 -73 27 -110 71 -24 29 -29 31 -35 17 -13 -32
79 -118 125 -118 39 0 15 -25 -28 -28 -28 -2 -56 5 -91 22 -35 18 -52 22 -57
14 -15 -23 73 -68 135 -68 l39 0 -5 -104 c-4 -64 -1 -129 6 -167 14 -70 12
-73 -50 -83 -25 -4 -39 -12 -39 -21 0 -18 12 -18 77 -5 166 34 437 0 602 -76
39 -18 57 -21 65 -14 12 12 -17 40 -40 40 -9 0 -12 32 -13 118 0 91 -6 138
-25 215 -44 171 -107 274 -200 327 -55 32 -117 38 -184 19z"/>
<path fill="#ffffff" stroke="none" d="M3175 5181 c80 -36 159 -157 200 -306
17 -61 32 -272 22 -298 -5 -13 -17 -12 -82 9 -41 13 -107 29 -145 35 -39 7
-70 15 -70 19 0 4 7 14 17 21 50 42 69 179 37 273 -21 62 -81 126 -120 127
-71 3 -99 -13 -136 -76 -19 -34 -23 -54 -23 -130 0 -96 18 -147 64 -189 29
-27 27 -31 -19 -31 -39 0 -41 1 -53 40 -19 64 -15 250 7 314 36 105 71 152
138 185 61 30 108 33 163 7z"/>
<path fill="#ffffff" stroke="none" d="M3071 4980 c58 -32 79 -179 36 -255
-63 -111 -176 -45 -177 103 0 120 66 192 141 152z"/>
<path fill="#000000" stroke="none" d="M4153 5100 c-40 -17 -25 -29 35 -28 82
1 148 -39 167 -100 9 -30 31 -22 27 9 -9 80 -150 153 -229 119z"/>
<path fill="#000000" stroke="none" d="M2531 4503 c-103 -105 -131 -214 -81
-319 73 -152 311 -279 536 -286 65 -3 79 0 79 12 0 12 -20 16 -95 21 -161 11
-305 70 -416 171 -70 65 -94 111 -94 183 0 73 31 134 104 203 31 29 56 57 56
63 0 24 -37 4 -89 -48z"/>
<path fill="#000000" stroke="none" d="M952 5848 c-16 -16 -16 -70 0 -86 7 -7
24 -12 38 -12 34 0 50 17 50 55 0 38 -16 55 -50 55 -14 0 -31 -5 -38 -12z"/>
<path fill="#000000" stroke="none" d="M1747 5822 c-22 -25 -21 -75 1 -95 25
-22 75 -21 95 1 22 25 21 75 -1 95 -25 22 -75 21 -95 -1z"/>
<path fill="#000000" stroke="none" d="M1302 5578 c-28 -28 -7 -78 33 -78 27
0 45 18 45 45 0 27 -18 45 -45 45 -12 0 -26 -5 -33 -12z"/>
<path fill="#000000" stroke="none" d="M722 5448 c-16 -16 -16 -70 0 -86 7 -7
21 -12 33 -12 30 0 45 19 45 55 0 36 -15 55 -45 55 -12 0 -26 -5 -33 -12z"/>
<path fill="#000000" stroke="none" d="M4842 5308 c-7 -7 -12 -21 -12 -33 0
-12 5 -26 12 -33 7 -7 21 -12 33 -12 12 0 26 5 33 12 7 7 12 21 12 33 0 12 -5
26 -12 33 -7 7 -21 12 -33 12 -12 0 -26 -5 -33 -12z"/>
<path fill="#000000" stroke="none" d="M875 5276 c-57 -26 -118 -89 -146 -150
-26 -56 -26 -176 0 -232 105 -231 417 -231 522 0 26 56 26 176 0 232 -49 107
-149 174 -261 174 -47 0 -79 -7 -115 -24z"/>
<path fill="#ffffff" stroke="none" d="M1088 5254 c168 -70 206 -321 67 -443
-53 -46 -94 -61 -165 -61 -71 0 -112 15 -165 61 -138 121 -101 371 65 443 46
20 151 20 198 0z"/>
<path fill="#000000" stroke="none" d="M6007 5202 c-40 -44 -8 -102 55 -102
60 0 92 65 50 103 -25 23 -85 22 -105 -1z"/>
<path fill="#000000" stroke="none" d="M172 5148 c-15 -15 -15 -61 0 -76 7 -7
26 -12 43 -12 38 0 55 16 55 50 0 34 -17 50 -55 50 -17 0 -36 -5 -43 -12z"/>
<path fill="#000000" stroke="none" d="M5512 5088 c-7 -7 -12 -21 -12 -33 0
-12 5 -26 12 -33 7 -7 21 -12 33 -12 12 0 26 5 33 12 7 7 12 21 12 33 0 12 -5
26 -12 33 -7 7 -21 12 -33 12 -12 0 -26 -5 -33 -12z"/>
<path fill="#000000" stroke="none" d="M5649 4927 c-84 -32 -148 -88 -191
-170 -20 -36 -23 -57 -23 -142 0 -92 2 -104 29 -153 34 -60 85 -111 148 -144
37 -20 58 -23 143 -23 85 0 106 3 143 23 63 33 114 84 148 144 27 49 29 61 29
153 0 85 -3 106 -23 143 -34 63 -84 114 -144 147 -44 24 -67 30 -138 32 -54 2
-98 -2 -121 -10z"/>
<path fill="#ffffff" stroke="none" d="M5866 4893 c66 -22 145 -101 167 -167
22 -63 22 -159 0 -222 -22 -66 -101 -145 -167 -167 -27 -9 -77 -17 -111 -17
-90 0 -151 24 -211 84 -60 60 -84 121 -84 211 0 34 8 84 17 111 21 63 102 145
163 167 60 21 165 21 226 0z"/>
<path fill="#000000" stroke="none" d="M412 4888 c-7 -7 -12 -24 -12 -38 0
-33 17 -50 50 -50 33 0 50 17 50 50 0 33 -17 50 -50 50 -14 0 -31 -5 -38 -12z"/>
<path fill="#000000" stroke="none" d="M4876 4744 c-34 -34 -9 -94 39 -94 30
0 55 25 55 55 0 13 -7 31 -16 39 -8 9 -26 16 -39 16 -13 0 -31 -7 -39 -16z"/>
<path fill="#000000" stroke="none" d="M305 4708 c-75 -27 -150 -106 -175
-181 -16 -51 -9 -162 14 -209 23 -48 85 -110 134 -134 27 -14 59 -19 122 -19
98 0 138 15 199 76 61 61 76 101 76 199 0 63 -5 95 -19 122 -24 49 -86 111
-134 134 -44 22 -172 29 -217 12z"/>
<path fill="#ffffff" stroke="none" d="M505 4671 c92 -41 145 -126 145 -231 0
-148 -102 -250 -250 -250 -148 0 -250 102 -250 250 0 148 102 250 250 250 42
0 79 -7 105 -19z"/>
<path fill="#000000" stroke="none" d="M862 4398 c-15 -15 -15 -51 0 -66 28
-28 78 -7 78 33 0 27 -18 45 -45 45 -12 0 -26 -5 -33 -12z"/>
<path fill="#000000" stroke="none" d="M5772 4134 c-50 -35 -17 -114 48 -114
42 0 70 26 70 65 0 39 -28 65 -70 65 -14 0 -36 -7 -48 -16z"/>
<path fill="#000000" stroke="none" d="M444 4036 c-12 -31 0 -51 31 -51 27 0
30 3 30 30 0 25 -4 30 -28 33 -17 2 -29 -2 -33 -12z"/>
<path fill="#000000" stroke="none" d="M1140 4036 c-28 -35 11 -93 48 -70 35
22 22 84 -18 84 -10 0 -23 -7 -30 -14z"/>
<path fill="#000000" stroke="none" d="M713 3971 c-53 -25 -119 -91 -144 -144
-25 -57 -25 -167 0 -224 25 -53 91 -119 144 -144 28 -12 65 -19 112 -19 85 0
136 21 195 80 59 59 80 110 80 195 0 85 -21 136 -80 195 -59 59 -110 80 -195
80 -47 0 -84 -7 -112 -19z"/>
<path fill="#ffffff" stroke="none" d="M933 3939 c92 -47 137 -119 137 -224 0
-146 -99 -245 -245 -245 -146 0 -245 99 -245 245 0 146 97 244 243 245 50 0
79 -6 110 -21z"/>
<path fill="#000000" stroke="none" d="M4767 3972 c-22 -25 -21 -75 1 -95 40
-36 92 -7 92 50 0 54 -59 83 -93 45z"/>
<path fill="#000000" stroke="none" d="M5180 3684 c-186 -81 -185 -380 2 -458
77 -33 182 -14 242 42 125 118 88 352 -66 416 -47 20 -132 20 -178 0z"/>
<path fill="#ffffff" stroke="none" d="M5387 3634 c112 -89 112 -269 0 -358
-36 -29 -45 -31 -117 -31 -72 0 -81 2 -117 31 -101 81 -113 257 -22 341 47 43
80 54 151 51 57 -3 73 -8 105 -34z"/>
<path fill="#000000" stroke="none" d="M192 3648 c-7 -7 -12 -26 -12 -43 0
-38 16 -55 50 -55 34 0 50 17 50 55 0 38 -16 55 -50 55 -14 0 -31 -5 -38 -12z"/>
<path fill="#000000" stroke="none" d="M285 3341 c-147 -67 -181 -251 -69
-365 43 -43 100 -66 169 -66 135 0 235 96 235 225 0 129 -100 225 -235 225
-37 0 -75 -7 -100 -19z"/>
<path fill="#ffffff" stroke="none" d="M502 3301 c62 -43 83 -85 83 -166 0
-81 -21 -123 -83 -166 -30 -21 -47 -24 -117 -24 -92 0 -132 19 -175 82 -28 41
-38 124 -21 175 14 41 64 95 106 115 49 22 164 13 207 -16z"/>
<path fill="#000000" stroke="none" d="M1330 3236 c-28 -35 11 -93 48 -70 35
22 22 84 -18 84 -10 0 -23 -7 -30 -14z"/>
<path fill="#000000" stroke="none" d="M5972 3238 c-7 -7 -12 -26 -12 -43 0
-38 16 -55 50 -55 34 0 50 17 50 55 0 38 -16 55 -50 55 -14 0 -31 -5 -38 -12z"/>
<path fill="#000000" stroke="none" d="M1096 2914 c-148 -54 -220 -232 -150
-372 47 -95 143 -152 254 -152 111 0 207 57 254 152 71 142 -3 320 -154 373
-53 19 -152 18 -204 -1z"/>
<path fill="#ffffff" stroke="none" d="M1336 2865 c27 -17 62 -51 79 -75 28
-41 30 -52 30 -130 0 -78 -2 -89 -30 -130 -17 -24 -52 -58 -79 -75 -45 -27
-57 -30 -136 -30 -79 0 -91 3 -136 30 -27 17 -62 51 -79 75 -25 37 -30 57 -33
117 -4 60 0 79 19 118 47 93 126 137 240 133 64 -3 83 -8 125 -33z"/>
<path fill="#000000" stroke="none" d="M4551 2851 c-27 -50 -3 -105 44 -99 36
4 54 43 39 86 -12 35 -67 44 -83 13z"/>
<path fill="#000000" stroke="none" d="M5727 2672 c-22 -24 -21 -65 1 -85 40
-36 102 -9 102 45 0 51 -69 78 -103 40z"/>
<path fill="#000000" stroke="none" d="M1834 2396 c-10 -26 4 -48 28 -44 17 2
23 10 23 28 0 18 -6 26 -23 28 -13 2 -25 -3 -28 -12z"/>
<path fill="#000000" stroke="none" d="M3897 2269 c-50 -38 -24 -111 40 -111
29 0 63 33 63 62 0 23 -29 57 -56 64 -13 4 -30 -1 -47 -15z"/>
<path fill="#000000" stroke="none" d="M662 2194 c-50 -35 -17 -114 48 -114
42 0 70 26 70 65 0 39 -28 65 -70 65 -14 0 -36 -7 -48 -16z"/>
<path fill="#000000" stroke="none" d="M5008 2164 c-73 -38 -15 -147 60 -112
46 22 42 99 -6 116 -20 7 -35 6 -54 -4z"/>
<path fill="#000000" stroke="none" d="M5962 1948 c-7 -7 -12 -21 -12 -33 0
-28 19 -45 50 -45 31 0 50 17 50 45 0 28 -19 45 -50 45 -14 0 -31 -5 -38 -12z"/>
<path fill="#000000" stroke="none" d="M1380 1766 c-28 -35 11 -93 48 -70 35
22 22 84 -18 84 -10 0 -23 -7 -30 -14z"/>
<path fill="#000000" stroke="none" d="M230 1630 c-26 -26 -25 -51 1 -84 38
-48 109 -20 109 42 0 57 -69 83 -110 42z"/>
<path fill="#000000" stroke="none" d="M4271 1584 c-26 -33 -27 -58 -1 -84 43
-43 110 -14 110 48 0 59 -72 83 -109 36z"/>
<path fill="#000000" stroke="none" d="M4843 1365 c-29 -20 -31 -75 -5 -98 57
-51 140 21 95 82 -24 31 -60 38 -90 16z"/>
<path fill="#000000" stroke="none" d="M1674 1226 c-12 -31 0 -51 31 -51 27 0
30 3 30 30 0 25 -4 30 -28 33 -17 2 -29 -2 -33 -12z"/>
<path fill="#000000" stroke="none" d="M3904 1126 c-10 -26 0 -51 21 -51 16 0
20 7 20 30 0 33 -30 49 -41 21z"/>
<path fill="#000000" stroke="none" d="M5120 1075 c0 -20 5 -25 25 -25 20 0
25 5 25 25 0 20 -5 25 -25 25 -20 0 -25 -5 -25 -25z"/>
</g>
</svg>
