<?xml version="1.0" standalone="no"?>
<!DOCTYPE svg PUBLIC "-//W3C//DTD SVG 20010904//EN"
 "http://www.w3.org/TR/2001/REC-SVG-20010904/DTD/svg10.dtd">
<svg version="1.0" xmlns="http://www.w3.org/2000/svg"
 width="628.000000pt" height="486.000000pt" viewBox="0 0 628.000000 486.000000"
 preserveAspectRatio="xMidYMid meet">
<metadata>
Created by potrace 1.16, written by Peter Selinger 2001-2019
</metadata>
<g transform="translate(0.000000,486.000000) scale(0.100000,-0.100000)"
fill="#000000" stroke="none">
<path fill="#000000" stroke="none" d="M0 2430 l0 -2430 3140 0 3140 0 0 2430
0 2430 -3140 0 -3140 0 0 -2430z"/>
<path fill="#ffffff" stroke="none" d="M6270 2430 l0 -2420 -3130 0 -3130 0 0
2420 0 2420 3130 0 3130 0 0 -2420z"/>
<path fill="#000000" stroke="none" d="M1579 4818 c-30 -6 -57 -21 -75 -39
-24 -25 -28 -37 -28 -83 2 -82 34 -138 133 -231 188 -177 241 -234 266 -287
14 -29 25 -63 25 -75 0 -43 20 -33 49 24 93 185 96 382 8 519 -82 129 -242
201 -378 172z"/>
<path fill="#ffffff" stroke="none" d="M1783 4777 c136 -62 227 -211 227 -370
0 -57 -25 -159 -56 -234 -26 -62 -44 -80 -44 -45 0 23 -58 122 -95 164 -17 18
-73 71 -125 117 -120 105 -145 134 -176 196 -36 75 -30 152 15 180 52 33 173
29 254 -8z"/>
<path fill="#000000" stroke="none" d="M5190 4773 c-14 -2 -29 -9 -34 -14 -6
-5 -17 -9 -26 -9 -9 0 -22 -15 -30 -35 -8 -19 -17 -35 -22 -35 -12 0 -10 -34
3 -47 18 -18 -38 -28 -76 -14 -39 14 -102 14 -110 1 -3 -5 -21 -10 -39 -10
-19 0 -39 -7 -46 -15 -7 -8 -18 -15 -24 -15 -15 0 -56 -75 -56 -103 0 -41 49
-106 95 -127 24 -11 52 -20 63 -20 32 0 52 -32 52 -84 0 -41 4 -50 36 -78 45
-40 72 -54 115 -61 19 -3 47 -9 62 -13 16 -3 38 -2 50 4 12 6 43 16 69 23 27
7 59 24 72 36 14 13 28 23 31 23 4 0 25 -15 48 -33 76 -61 125 -77 236 -77 77
0 108 4 138 19 21 11 55 26 75 35 47 21 76 61 80 111 3 37 5 40 43 48 25 5 58
24 90 51 l50 44 0 65 c0 72 -14 96 -71 123 -34 16 -151 16 -186 0 -14 -7 -18
-3 -18 15 0 13 -9 35 -20 49 -11 14 -20 29 -20 34 0 15 -53 55 -82 61 -15 4
-30 11 -33 16 -9 14 -109 11 -147 -5 -19 -8 -41 -22 -48 -31 -7 -9 -26 -25
-41 -35 l-27 -20 -17 36 c-9 19 -24 38 -33 41 -9 4 -29 14 -43 24 -27 19 -115
31 -159 22z"/>
<path fill="#ffffff" stroke="none" d="M5311 4738 c58 -31 109 -81 109 -108 0
-15 7 -33 15 -40 13 -10 17 -7 30 23 30 73 126 122 210 108 47 -8 144 -87 144
-118 1 -12 6 -25 11 -28 6 -3 10 -15 10 -26 0 -22 15 -24 50 -4 29 17 117 20
154 5 35 -13 66 -66 66 -112 0 -30 -8 -46 -43 -82 -31 -33 -51 -46 -71 -46
-42 0 -66 -17 -66 -48 -1 -37 -31 -90 -61 -107 -40 -23 -82 -41 -120 -53 -42
-14 -152 -16 -177 -3 -9 5 -37 15 -60 22 -42 12 -92 60 -92 88 0 6 -7 14 -15
17 -15 6 -32 -8 -51 -41 -29 -51 -216 -73 -297 -35 -50 23 -68 38 -84 68 -16
26 -17 68 -3 77 23 14 10 43 -22 48 -82 15 -99 21 -137 54 -37 31 -41 39 -41
82 0 52 9 64 73 100 58 32 176 27 251 -11 24 -13 46 6 28 24 -7 7 -12 30 -12
52 0 31 7 47 32 73 29 30 38 33 89 33 31 0 67 -6 80 -12z"/>
<path fill="#000000" stroke="none" d="M2745 4583 c-248 -53 -511 -266 -672
-545 -52 -91 -64 -98 -163 -98 -38 0 -81 -5 -95 -12 -54 -24 -73 -116 -35
-173 35 -53 37 -58 58 -148 72 -299 346 -597 662 -717 48 -18 78 -47 106 -102
13 -26 24 -50 24 -53 0 -3 -22 6 -50 20 -43 22 -141 93 -343 250 -59 45 -135
75 -192 75 -43 0 -116 -50 -160 -110 -109 -149 -155 -375 -99 -493 28 -58 212
-170 331 -203 68 -18 279 -20 392 -4 41 6 75 9 76 8 2 -2 -26 -61 -61 -133
-75 -154 -108 -263 -131 -433 -14 -107 -15 -143 -5 -242 6 -63 23 -155 37
-205 17 -62 25 -115 25 -172 0 -79 -13 -166 -28 -189 -5 -7 -74 -7 -236 2
-126 7 -337 15 -468 19 -131 4 -238 9 -238 11 0 2 15 34 34 71 19 38 41 84 50
103 9 19 28 55 42 80 14 25 37 65 51 90 13 25 36 61 49 80 13 19 30 44 37 54
6 11 45 59 85 107 39 48 72 90 72 93 0 10 -89 7 -108 -3 -9 -5 -32 -16 -49
-23 -18 -7 -33 -16 -33 -20 0 -5 -6 -8 -12 -8 -21 0 -160 -140 -180 -180 -7
-14 -18 -32 -24 -40 -7 -8 -28 -43 -47 -78 -19 -35 -38 -62 -43 -60 -5 2 -7
10 -5 18 12 41 -5 360 -20 374 -5 6 -9 27 -9 47 0 21 -4 41 -10 44 -5 3 -10
18 -10 32 0 23 -35 111 -61 153 -5 8 -14 26 -21 40 -14 29 -100 135 -137 168
-35 32 -83 62 -98 62 -15 0 -17 -36 -3 -45 11 -7 45 -81 66 -145 9 -25 22 -59
30 -77 8 -17 14 -37 14 -44 0 -13 16 -66 31 -104 4 -11 10 -45 14 -75 3 -30
10 -59 14 -65 5 -5 11 -26 14 -45 3 -19 11 -57 17 -85 6 -27 17 -88 24 -135
14 -89 28 -134 45 -145 13 -7 15 -45 3 -45 -5 0 -15 12 -23 28 -24 47 -74 115
-120 163 -37 39 -92 74 -191 121 -10 4 -42 8 -72 8 -71 0 -81 -20 -26 -55 22
-14 40 -30 40 -35 0 -6 13 -18 29 -28 32 -19 151 -157 151 -175 0 -6 9 -20 19
-31 10 -12 33 -48 50 -81 18 -33 36 -64 42 -70 5 -5 9 -17 9 -27 0 -10 5 -18
10 -18 6 0 10 -6 10 -13 0 -9 -25 -17 -73 -25 -139 -22 -231 -61 -212 -91 16
-26 81 -42 251 -61 277 -32 464 -82 464 -125 0 -34 -112 -58 -325 -70 -212
-12 -425 -68 -480 -125 -70 -73 28 -117 315 -141 148 -12 485 -9 1140 11 386
12 1020 12 1000 1 -8 -5 -86 -18 -173 -30 -176 -24 -232 -39 -232 -61 0 -73
915 -79 1538 -10 494 54 874 144 993 235 41 32 48 46 40 80 -12 49 -111 82
-341 115 -207 29 -262 49 -239 87 27 45 198 111 312 120 64 5 76 9 97 34 19
23 23 36 18 64 -4 23 -1 42 8 53 8 9 23 35 34 57 10 22 29 54 42 72 13 17 23
36 23 41 0 5 27 43 60 85 33 41 60 80 60 85 0 6 6 15 14 19 8 4 33 31 55 59
39 50 50 73 34 75 -63 6 -94 1 -133 -19 -78 -40 -224 -189 -249 -255 -6 -15
-17 -27 -25 -27 -12 0 -16 23 -19 123 -3 67 -12 160 -20 207 -31 163 -42 215
-49 225 -3 6 -9 32 -13 59 -16 105 -75 184 -67 90 2 -21 7 -138 12 -259 5
-121 12 -258 15 -304 5 -64 4 -82 -6 -79 -14 5 -17 10 -57 98 -36 80 -89 125
-169 146 -51 13 -58 13 -72 -1 -15 -15 -14 -18 7 -33 20 -16 39 -45 73 -112 7
-14 18 -32 24 -40 6 -8 27 -55 45 -105 18 -49 36 -94 40 -100 9 -14 37 -94 44
-127 4 -16 13 -28 22 -28 10 0 14 -7 12 -22 -4 -27 -2 -27 -188 -5 -207 25
-512 39 -759 35 l-223 -3 -19 45 c-22 55 -24 102 -5 138 8 15 20 55 26 90 12
57 15 62 39 62 43 0 123 44 172 94 28 28 68 89 102 154 61 117 77 137 120 147
26 7 27 6 27 -30 0 -79 44 -131 136 -158 77 -23 111 -43 126 -77 7 -16 16 -30
20 -30 14 0 32 77 31 133 -1 73 -42 149 -102 192 -41 29 -48 30 -157 32 -84 2
-123 -1 -143 -11 -41 -21 -103 -93 -150 -173 -49 -85 -86 -115 -152 -121 l-49
-5 0 44 0 44 77 40 c145 74 273 224 273 320 0 73 -68 173 -143 211 -84 43
-227 148 -294 216 -56 58 -133 162 -133 180 0 5 11 8 24 8 13 0 54 9 91 21 37
11 68 19 69 17 28 -52 94 -133 141 -171 284 -237 635 -126 830 263 86 172 125
348 125 568 0 150 -16 247 -61 362 -138 358 -543 553 -771 370 -31 -25 -38
-28 -38 -14 0 10 -19 56 -41 103 -35 72 -56 101 -135 178 -52 51 -94 99 -94
106 0 23 23 37 60 37 20 0 41 -5 48 -12 9 -9 12 -8 12 5 0 26 -35 55 -73 62
-40 8 -109 -9 -127 -30 -16 -20 -30 -19 -30 2 0 33 -42 104 -71 118 -35 18
-88 19 -111 1 -26 -19 -22 -34 6 -29 16 3 31 -2 46 -17 34 -34 13 -43 -61 -26
-36 9 -95 17 -131 19 -63 3 -69 6 -118 50 -130 117 -342 164 -545 120z"/>
<path fill="#ffffff" stroke="none" d="M3065 4563 c77 -19 183 -74 224 -117
l33 -34 -44 -7 c-64 -11 -160 -49 -223 -89 -30 -20 -59 -36 -64 -36 -5 0 -31
11 -58 25 -87 45 -230 49 -348 10 -122 -41 -297 -168 -389 -284 -47 -58 -51
-61 -93 -61 -23 0 -43 4 -43 8 0 15 70 126 126 198 243 319 572 464 879 387z"/>
<path fill="#ffffff" stroke="none" d="M3672 4433 c16 -15 33 -45 39 -68 18
-71 17 -70 42 -48 12 11 32 26 44 32 27 13 93 14 113 1 12 -8 9 -10 -11 -10
-33 0 -79 -35 -79 -61 0 -10 12 -29 27 -42 165 -137 236 -252 268 -433 17 -98
18 -184 5 -294 -26 -212 -27 -205 23 -356 56 -173 64 -223 43 -304 -31 -120
-112 -214 -242 -282 -228 -119 -555 -110 -813 22 -36 18 -41 18 -87 4 -149
-47 -348 42 -415 185 -12 25 -29 55 -38 65 -15 18 -14 19 24 12 22 -4 40 -9
41 -9 0 -1 8 -23 18 -49 29 -78 103 -112 201 -94 46 9 106 63 130 118 11 24
20 45 21 47 2 1 20 -11 41 -27 21 -17 52 -33 68 -37 25 -5 21 -1 -18 20 -54
29 -104 91 -113 141 -7 36 -24 57 -24 29 0 -8 7 -32 15 -52 8 -20 14 -38 12
-40 -2 -1 -39 -12 -82 -23 -93 -24 -220 -26 -316 -6 -267 57 -555 292 -694
566 -35 70 -75 188 -75 224 0 19 4 21 40 18 22 -2 40 0 40 5 0 5 -16 9 -35 9
-42 0 -72 25 -97 82 -23 52 -18 90 18 123 22 21 34 24 92 22 45 -1 86 4 125
17 75 26 93 25 124 -6 22 -22 25 -31 19 -70 -9 -72 -39 -119 -87 -138 -48 -19
-46 -34 2 -17 44 15 49 14 49 -9 0 -11 7 -37 15 -57 23 -55 5 -77 -89 -107
-10 -4 -16 -9 -13 -12 9 -9 73 15 102 38 l26 21 41 -41 c43 -44 103 -76 161
-87 29 -6 37 -12 37 -29 0 -39 -21 -95 -45 -125 -32 -37 -32 -51 -1 -22 33 31
56 82 56 124 l0 34 68 7 c37 4 84 11 106 17 37 10 40 9 78 -28 51 -49 78 -102
78 -153 0 -22 5 -40 10 -40 19 0 10 77 -16 128 -14 29 -41 65 -60 80 l-34 29
67 25 c151 58 200 65 253 38 94 -48 160 -138 160 -219 0 -22 5 -43 12 -47 16
-10 4 95 -16 134 -22 43 -65 91 -111 124 l-40 30 40 -7 c68 -12 144 -55 211
-117 35 -33 64 -56 64 -51 0 21 -123 125 -177 151 -80 37 -221 39 -334 3 l-76
-23 -48 36 c-82 63 -168 87 -242 67 -55 -15 -78 -43 -78 -97 0 -24 -1 -44 -3
-44 -12 0 -81 42 -96 59 -41 46 19 188 124 291 64 63 151 115 301 178 25 11
75 44 110 73 197 165 253 205 346 252 139 69 301 84 442 42 38 -12 57 -13 64
-6 16 16 -3 63 -31 77 -12 6 -19 14 -15 18 14 14 67 -4 95 -31z"/>
<path fill="#ffffff" stroke="none" d="M2900 4305 c81 -32 82 -31 -58 -146
-120 -100 -153 -122 -212 -147 -152 -64 -238 -119 -311 -200 -49 -54 -98 -145
-106 -198 -3 -19 -9 -34 -13 -34 -11 0 -47 77 -55 117 -4 22 0 51 14 88 22 59
28 140 11 150 -22 13 -7 37 77 125 129 136 261 222 391 255 72 18 201 13 262
-10z"/>
<path fill="#ffffff" stroke="none" d="M4420 3959 c37 -6 101 -27 150 -51 69
-33 101 -57 171 -127 71 -71 94 -102 133 -181 58 -119 85 -225 93 -360 23
-425 -172 -840 -455 -966 -81 -37 -80 -29 5 29 163 111 274 293 314 517 16 91
14 291 -4 375 -47 220 -167 373 -333 425 -109 33 -205 23 -336 -34 -16 -7 -18
0 -18 90 0 55 -5 117 -10 138 -5 23 -5 47 0 56 15 28 83 69 140 84 68 18 70
18 150 5z"/>
<path fill="#ffffff" stroke="none" d="M4506 3598 c150 -55 248 -177 300 -373
28 -106 26 -340 -4 -459 -42 -169 -137 -330 -245 -417 -77 -62 -181 -109 -240
-109 -95 0 -225 61 -313 147 -40 39 -109 132 -102 137 1 1 35 21 73 43 87 51
167 134 203 210 24 52 27 69 26 158 -1 88 -5 112 -36 200 -60 167 -61 171 -42
297 9 62 18 116 21 121 11 19 109 59 161 65 73 10 134 4 198 -20z"/>
<path fill="#ffffff" stroke="none" d="M2585 3583 c22 -12 53 -33 70 -49 l30
-27 -55 -20 c-41 -15 -82 -20 -158 -21 -113 -1 -122 3 -122 60 0 33 14 55 45
73 30 18 143 8 190 -16z"/>
<path fill="#ffffff" stroke="none" d="M2084 3060 c67 -25 60 -231 -14 -385
-74 -156 -195 -243 -266 -191 -16 12 -20 29 -22 104 -5 107 13 185 65 290 38
77 132 177 175 185 13 2 26 5 30 6 4 0 18 -3 32 -9z"/>
<path fill="#ffffff" stroke="none" d="M2220 2995 c21 -22 22 -28 10 -35 -8
-5 -27 -10 -42 -10 -16 0 -28 -4 -28 -10 0 -5 11 -10 24 -10 30 0 96 -60 96
-88 0 -24 -31 -34 -82 -25 -36 5 -38 4 -38 -21 0 -19 5 -26 19 -26 30 0 81
-48 81 -76 0 -32 -33 -48 -89 -41 l-47 6 -28 -55 c-16 -31 -49 -77 -72 -103
-70 -78 -138 -100 -185 -62 -23 20 -24 20 -2 14 69 -17 179 78 242 209 52 110
66 173 64 290 l-1 98 26 -14 c15 -8 38 -26 52 -41z"/>
<path fill="#ffffff" stroke="none" d="M2372 2880 c57 -45 135 -100 175 -123
106 -63 123 -73 180 -115 l51 -39 -42 -79 c-55 -102 -126 -217 -139 -225 -20
-13 -273 -32 -356 -26 -47 3 -114 14 -148 25 -65 21 -193 87 -193 101 0 5 14
11 30 15 43 8 131 95 169 165 l31 58 54 -1 c58 0 96 21 96 54 0 23 -36 68 -74
91 l-31 19 43 0 c89 0 106 38 44 100 -32 32 -35 39 -22 48 8 6 18 11 22 11 4
1 53 -35 110 -79z"/>
<path fill="#ffffff" stroke="none" d="M2989 2822 c-54 -117 -212 -142 -288
-46 -12 15 -21 37 -21 49 0 21 4 22 103 22 73 0 119 6 162 20 33 11 61 16 63
12 2 -5 -7 -30 -19 -57z"/>
<path fill="#ffffff" stroke="none" d="M2835 2585 c48 -17 179 -19 224 -4 28
10 41 7 110 -24 122 -56 226 -79 382 -85 l136 -4 15 -32 c48 -100 174 -222
325 -318 59 -37 75 -59 54 -72 -5 -3 -14 0 -20 8 -6 7 -29 21 -52 32 l-41 18
-20 -24 c-10 -13 -17 -29 -14 -37 7 -16 6 -16 -39 3 -73 30 -113 -19 -83 -103
l16 -43 -48 -35 c-91 -67 -151 -148 -173 -234 l-14 -53 -55 61 c-122 135 -155
234 -207 620 -5 40 -15 79 -22 85 -9 8 -10 5 -5 -14 3 -14 13 -79 21 -145 31
-248 63 -359 134 -467 56 -86 195 -224 235 -234 31 -7 162 0 189 11 15 7 17
-1 17 -91 0 -120 -14 -212 -41 -272 -28 -60 -19 -111 33 -210 23 -43 50 -94
61 -115 60 -115 -6 -248 -160 -326 -52 -25 -164 -65 -168 -58 -1 1 -7 22 -14
46 -14 50 -59 101 -89 101 -10 0 -27 -9 -37 -20 -19 -21 -19 -20 -38 30 -13
35 -29 58 -50 71 -43 26 -54 24 -92 -14 l-33 -33 -7 34 c-3 19 -18 46 -31 59
l-25 25 3 222 c2 160 -1 233 -10 264 -7 23 -17 42 -21 42 -5 0 -3 -21 5 -47 8
-25 14 -65 14 -89 l0 -42 -82 -4 c-225 -9 -428 81 -514 228 -30 50 -53 60 -28
12 26 -50 112 -135 173 -172 73 -44 132 -65 206 -74 l60 -7 7 -78 c5 -56 17
-99 42 -155 19 -43 38 -96 42 -119 16 -100 -54 -176 -182 -198 l-41 -6 -7 39
c-4 29 -17 49 -46 76 -46 41 -67 44 -103 16 l-25 -20 -7 27 c-15 61 -75 113
-129 113 -13 0 -38 -11 -54 -25 -36 -30 -42 -31 -42 -4 0 11 -14 34 -30 51
l-30 30 25 86 c14 48 29 125 32 172 5 75 2 100 -27 210 -28 106 -34 148 -37
270 -4 126 -2 161 20 265 33 162 89 299 197 485 49 85 109 190 133 232 23 43
42 78 42 78 0 0 18 -7 40 -15z"/>
<path fill="#ffffff" stroke="none" d="M1108 2078 c23 -18 41 -36 41 -40 1 -4
24 -30 51 -59 28 -29 50 -60 50 -69 0 -9 9 -26 20 -38 11 -12 20 -28 20 -37 0
-17 20 -56 33 -66 5 -3 11 -26 14 -50 3 -24 9 -48 13 -54 4 -5 12 -50 18 -100
6 -49 14 -112 18 -140 10 -77 6 -265 -6 -265 -6 0 -31 -62 -27 -66 5 -5 96
124 117 165 58 115 207 278 276 303 18 6 34 15 34 19 0 4 10 9 23 12 12 2 30
8 40 12 32 14 18 -24 -27 -73 -25 -26 -56 -63 -70 -82 -86 -123 -121 -181
-187 -311 -91 -180 -100 -199 -93 -211 4 -6 -17 -9 -54 -7 -33 2 -64 1 -68 -4
-4 -4 -27 -7 -51 -7 l-43 0 -37 71 c-21 40 -46 86 -55 103 -9 18 -23 38 -32
45 -9 8 -16 22 -16 32 0 14 -103 148 -131 169 -4 3 -24 20 -45 38 -22 17 -48
38 -59 46 -11 8 -17 18 -13 22 18 17 208 -45 208 -68 0 -4 7 -8 15 -8 29 0
132 -123 175 -208 15 -28 28 -42 39 -40 20 4 19 44 -4 118 -9 30 -18 65 -18
77 -1 12 -5 25 -9 29 -5 4 -8 29 -8 56 0 27 -7 65 -15 84 -8 20 -13 40 -10 44
3 5 -1 28 -9 52 -7 24 -23 86 -36 138 -19 84 -54 187 -96 288 -8 18 -14 39
-14 47 0 7 -4 15 -9 17 -12 5 -24 48 -13 48 6 0 28 -15 50 -32z"/>
<path fill="#ffffff" stroke="none" d="M4033 2054 c21 -14 42 -36 47 -50 13
-34 31 -30 24 6 -4 16 -4 37 0 45 5 15 9 14 37 -2 27 -16 79 -73 79 -87 0 -3
-29 -6 -63 -6 -168 0 -393 -142 -468 -296 -25 -51 -31 -72 -26 -104 6 -45 -4
-51 -27 -18 -47 67 19 207 141 299 32 23 62 46 67 50 4 4 1 18 -8 30 -20 29
-21 93 -1 109 23 19 66 3 107 -42 39 -43 48 -42 23 2 -15 26 -20 72 -8 83 13
13 39 7 76 -19z"/>
<path fill="#ffffff" stroke="none" d="M4233 1932 c30 -33 31 -76 4 -136 -67
-146 -272 -284 -450 -302 -57 -6 -67 -4 -86 15 -27 27 -28 90 -2 146 39 85
165 197 279 248 110 48 226 62 255 29z"/>
<path fill="#ffffff" stroke="none" d="M5105 1881 c6 -10 23 -86 30 -136 3
-16 9 -39 14 -50 10 -21 23 -82 48 -225 17 -95 22 -249 11 -355 -5 -44 -4 -63
1 -50 5 11 10 35 10 53 1 28 5 33 31 38 17 4 30 11 30 16 0 15 76 118 125 168
56 58 100 92 139 107 36 13 96 17 96 5 0 -5 -22 -32 -50 -61 -27 -29 -50 -58
-50 -65 0 -7 -13 -25 -28 -42 -45 -48 -92 -111 -92 -125 0 -7 -9 -22 -19 -33
-39 -43 -94 -157 -97 -203 -4 -63 -24 -80 -101 -85 -35 -2 -63 -1 -63 3 0 3
-14 12 -30 19 -22 9 -30 19 -29 34 4 47 -1 65 -16 60 -8 -3 -16 0 -19 7 -11
41 -42 127 -53 149 -7 14 -13 33 -13 42 0 10 -9 33 -20 53 -11 20 -20 42 -20
49 0 7 -9 25 -20 39 -11 14 -20 31 -20 37 0 7 -11 25 -25 42 -14 16 -25 36
-25 43 0 8 -10 21 -22 29 -30 21 -17 29 31 21 27 -4 60 -22 96 -52 54 -45 70
-68 97 -147 7 -21 21 -44 31 -50 9 -6 17 -18 17 -26 0 -22 38 -138 39 -119 1
9 -4 41 -10 70 -6 30 -10 102 -9 161 1 67 -3 108 -10 113 -7 4 -10 72 -9 210
0 130 -3 210 -10 223 -6 11 -11 25 -11 31 0 13 17 14 25 2z"/>
<path fill="#ffffff" stroke="none" d="M4413 1686 c89 -41 132 -76 158 -128
22 -43 36 -47 20 -5 -17 45 -74 100 -134 127 -40 20 -52 30 -41 34 31 12 71 6
122 -20 88 -44 134 -140 118 -249 l-7 -45 -32 33 c-23 24 -52 40 -103 55 -42
13 -82 32 -97 48 -28 28 -51 84 -45 111 3 14 8 11 20 -13 19 -35 82 -94 101
-94 6 0 -5 14 -25 30 -20 17 -47 47 -59 68 -30 48 -35 51 -76 42 -51 -12 -76
-41 -129 -147 -75 -152 -173 -242 -263 -243 -32 0 -33 1 -27 31 3 17 6 42 6
55 0 20 5 24 33 24 41 0 106 30 133 61 11 13 42 59 68 101 26 43 65 93 88 112
35 30 50 38 91 45 4 0 41 -14 80 -33z"/>
<path fill="#ffffff" stroke="none" d="M3199 971 c-2 -44 -6 -81 -9 -84 -3 -2
-33 -7 -68 -10 -73 -8 -75 -6 -86 106 l-8 67 87 0 87 0 -3 -79z"/>
<path fill="#ffffff" stroke="none" d="M4640 910 c257 -18 449 -45 472 -68 6
-6 -20 -19 -69 -37 -140 -49 -194 -93 -161 -132 23 -29 76 -43 248 -69 198
-29 287 -54 320 -89 l24 -25 -20 -27 c-72 -96 -506 -206 -1019 -258 -318 -32
-412 -37 -807 -42 -406 -6 -624 4 -686 29 l-27 11 40 12 c22 7 113 22 202 34
173 22 223 35 206 52 -18 18 -315 22 -833 9 -283 -6 -643 -15 -800 -19 -685
-15 -993 34 -841 136 74 50 248 89 463 103 234 16 328 39 328 80 0 60 -170
111 -483 145 -243 27 -288 51 -167 92 199 66 630 79 1283 36 114 -7 114 -8 65
-99 -54 -101 -39 -172 47 -221 56 -31 155 -61 262 -80 88 -14 103 -14 195 1
55 9 117 25 138 36 43 22 87 70 96 106 11 42 -1 127 -24 173 -12 25 -22 48
-22 53 0 4 27 8 60 8 l59 0 3 -72 c2 -52 -2 -87 -15 -123 -39 -105 -8 -181 93
-224 172 -74 337 -66 526 24 126 61 193 148 194 252 0 42 -8 67 -40 128 l-39
75 292 0 c160 0 357 -5 437 -10z"/>
<path fill="#ffffff" stroke="none" d="M2434 761 c10 -11 21 -43 25 -72 l6
-53 28 42 c15 23 38 44 52 48 59 15 116 -27 137 -100 15 -54 14 -53 39 -23 26
34 59 34 98 2 37 -32 60 -93 40 -107 -22 -15 -197 -1 -278 22 -194 55 -254
121 -204 225 19 40 32 43 57 16z"/>
<path fill="#ffffff" stroke="none" d="M3240 661 c6 -16 11 -54 11 -85 0 -59
13 -67 24 -16 4 17 18 44 32 60 51 61 111 24 136 -83 13 -58 15 -60 24 -37 16
37 39 53 67 46 31 -8 66 -64 66 -104 0 -28 -4 -32 -36 -38 -54 -10 -144 2
-236 33 -139 46 -177 100 -143 202 19 57 37 65 55 22z"/>
<path fill="#000000" stroke="none" d="M2912 4090 c-30 -19 -76 -79 -67 -88 2
-3 21 4 42 14 21 10 69 20 107 23 76 7 89 18 57 50 -28 28 -95 28 -139 1z"/>
<path fill="#ffffff" stroke="none" d="M3042 4078 c15 -24 8 -31 -23 -24 -28
5 -91 -4 -135 -21 -17 -6 -18 -5 -5 11 40 49 140 69 163 34z"/>
<path fill="#000000" stroke="none" d="M2646 3949 c13 -26 14 -33 2 -40 -19
-12 -23 -11 -43 11 -10 11 -23 20 -28 20 -6 0 0 -11 12 -24 22 -24 22 -25 4
-35 -15 -7 -27 -5 -52 10 -45 27 -52 23 -13 -9 l33 -27 -16 -37 c-20 -50 -19
-91 4 -136 64 -124 224 -151 316 -53 24 26 30 41 33 94 2 49 -1 69 -17 93 -34
56 -117 104 -177 104 -15 0 -29 11 -41 30 -23 40 -38 39 -17 -1z"/>
<path fill="#ffffff" stroke="none" d="M2786 3881 c95 -43 132 -161 73 -235
-72 -92 -239 -72 -295 36 -24 46 -23 111 2 145 53 72 136 92 220 54z"/>
<path fill="#000000" stroke="none" d="M2720 3863 c-39 -12 -63 -30 -76 -55
-42 -80 18 -168 115 -168 36 0 49 6 77 34 24 24 34 43 34 65 0 38 -23 87 -48
100 -15 8 -18 6 -18 -11 1 -32 -29 -47 -51 -25 -14 14 -15 21 -6 36 17 26 6
35 -27 24z"/>
<path fill="#000000" stroke="none" d="M2035 3903 c-22 -9 -73 -16 -115 -17
-69 -1 -75 -3 -78 -23 -8 -56 121 -78 205 -35 45 23 68 54 59 78 -7 17 -20 17
-71 -3z"/>
<path fill="#ffffff" stroke="none" d="M2090 3886 c0 -8 -17 -25 -37 -38 -51
-31 -167 -34 -189 -4 -7 11 -11 22 -9 25 3 3 36 4 73 3 43 -2 81 3 103 12 43
19 59 20 59 2z"/>
<path fill="#000000" stroke="none" d="M3783 3653 c-20 -8 -15 -40 13 -83 14
-21 34 -64 44 -96 17 -56 18 -57 31 -33 18 33 16 127 -5 166 -22 43 -51 59
-83 46z"/>
<path fill="#ffffff" stroke="none" d="M3853 3598 c12 -24 17 -53 15 -84 l-3
-47 -41 81 c-23 45 -39 84 -36 87 16 16 49 -3 65 -37z"/>
<path fill="#000000" stroke="none" d="M3421 3489 c-52 -16 -80 -38 -103 -82
-44 -88 -2 -204 92 -255 64 -34 152 -28 205 13 21 15 43 41 49 57 7 19 15 27
26 22 33 -12 108 -16 126 -6 15 9 8 11 -39 12 -68 0 -97 13 -97 42 0 16 5 19
22 15 27 -8 108 12 108 25 0 6 -8 7 -17 3 -37 -15 -93 -17 -108 -5 -25 21 -17
37 23 44 21 3 47 15 57 26 21 23 9 26 -19 5 -11 -8 -36 -15 -56 -15 -29 0 -41
6 -58 30 -43 57 -142 90 -211 69z"/>
<path fill="#ffffff" stroke="none" d="M3561 3457 c115 -61 137 -226 37 -287
-98 -59 -230 -9 -274 105 -52 139 99 255 237 182z"/>
<path fill="#000000" stroke="none" d="M3441 3424 c-32 -23 -52 -75 -44 -115
8 -42 62 -95 107 -103 43 -8 97 12 120 45 32 46 7 155 -39 173 -12 4 -13 2 -3
-13 6 -10 8 -26 5 -35 -9 -22 -46 -17 -61 7 -9 15 -7 22 13 38 l23 19 -49 0
c-29 0 -58 -7 -72 -16z"/>
<path fill="#000000" stroke="none" d="M3294 3140 c-50 -20 -68 -88 -40 -153
17 -41 80 -103 129 -129 78 -39 183 -33 207 13 16 29 11 87 -10 128 -51 102
-201 175 -286 141z"/>
<path fill="#ffffff" stroke="none" d="M3436 3111 c83 -38 154 -123 154 -184
0 -36 -36 -75 -75 -83 -143 -26 -335 198 -232 271 29 21 103 18 153 -4z"/>
<path fill="#000000" stroke="none" d="M2150 2991 c0 -5 5 -13 10 -16 6 -3 10
-2 10 4 0 5 -4 13 -10 16 -5 3 -10 2 -10 -4z"/>
<path fill="#000000" stroke="none" d="M2173 2875 c0 -22 2 -30 4 -17 2 12 2
30 0 40 -3 9 -5 -1 -4 -23z"/>
<path fill="#000000" stroke="none" d="M2142 2720 c-5 -22 -6 -40 -2 -40 9 0
24 69 17 76 -2 3 -9 -13 -15 -36z"/>
<path fill="#000000" stroke="none" d="M2433 2800 c27 -73 28 -86 14 -127 -17
-49 -6 -59 13 -13 16 39 8 117 -15 139 -14 13 -16 13 -12 1z"/>
<path fill="#000000" stroke="none" d="M3713 2240 c-50 -30 -39 -40 14 -13 34
17 56 22 77 17 19 -4 26 -3 22 5 -11 18 -78 13 -113 -9z"/>
<path fill="#000000" stroke="none" d="M2852 1440 c8 -25 53 -42 82 -30 14 5
26 14 26 20 0 7 -6 8 -19 0 -28 -15 -52 -12 -74 8 -16 13 -19 14 -15 2z"/>
<path fill="#000000" stroke="none" d="M2501 1023 c32 -38 136 -65 183 -47 28
11 17 23 -13 14 -37 -10 -107 4 -143 30 -33 24 -45 26 -27 3z"/>
<path fill="#000000" stroke="none" d="M3281 953 c35 -42 161 -69 199 -42 11
7 4 8 -26 4 -50 -8 -112 7 -147 35 -31 24 -44 26 -26 3z"/>
<path fill="#000000" stroke="none" d="M2503 927 c10 -31 117 -51 133 -26 5 8
-3 10 -27 5 -25 -4 -46 0 -72 13 -22 11 -37 15 -34 8z"/>
<path fill="#000000" stroke="none" d="M3299 840 c16 -14 38 -20 72 -20 27 0
49 4 49 8 0 4 -15 6 -34 4 -18 -2 -47 3 -64 12 -42 22 -52 20 -23 -4z"/>
<path fill="#000000" stroke="none" d="M4018 1983 c-10 -2 -18 -9 -18 -15 0
-5 7 -7 16 -4 9 3 24 6 35 6 10 0 19 5 19 10 0 10 -21 11 -52 3z"/>
<path fill="#000000" stroke="none" d="M4143 1983 c9 -2 23 -2 30 0 6 3 -1 5
-18 5 -16 0 -22 -2 -12 -5z"/>
<path fill="#000000" stroke="none" d="M3908 1943 c-21 -8 -38 -19 -38 -24 0
-12 4 -12 45 8 19 9 35 20 35 25 0 10 3 10 -42 -9z"/>
<path fill="#000000" stroke="none" d="M1308 859 c-10 -5 -18 -16 -18 -24 0
-24 35 -35 110 -35 75 0 110 11 110 35 0 8 -9 19 -19 25 -25 13 -161 13 -183
-1z"/>
<path fill="#000000" stroke="none" d="M1768 826 c-70 -25 -90 -44 -86 -79 2
-26 11 -36 48 -57 41 -23 55 -25 170 -25 115 0 129 2 170 25 40 22 45 29 45
60 0 31 -5 37 -45 60 -39 21 -59 25 -155 27 -75 2 -122 -1 -147 -11z"/>
<path fill="#ffffff" stroke="none" d="M2058 787 c19 -11 32 -25 32 -37 0 -40
-53 -55 -190 -55 -101 0 -131 3 -157 18 -55 29 -41 63 36 88 47 15 242 5 279
-14z"/>
<path fill="#000000" stroke="none" d="M4184 804 c-115 -42 -111 -120 8 -160
73 -24 228 -17 290 14 78 39 78 95 1 134 -40 19 -66 23 -153 25 -73 2 -117 -2
-146 -13z"/>
<path fill="#ffffff" stroke="none" d="M4478 767 c23 -12 32 -25 32 -42 0 -45
-47 -60 -190 -60 -143 0 -190 15 -190 60 0 46 62 65 205 62 81 -2 118 -7 143
-20z"/>
<path fill="#000000" stroke="none" d="M4358 546 c-70 -25 -90 -44 -86 -79 2
-26 11 -36 48 -57 41 -23 55 -25 170 -25 115 0 129 2 170 25 40 22 45 29 45
60 0 31 -5 37 -45 60 -39 21 -59 25 -155 27 -75 2 -122 -1 -147 -11z"/>
<path fill="#ffffff" stroke="none" d="M4648 507 c19 -11 32 -25 32 -37 0 -40
-53 -55 -190 -55 -101 0 -131 3 -157 18 -55 29 -41 63 36 88 47 15 242 5 279
-14z"/>
<path fill="#000000" stroke="none" d="M1777 516 c-77 -29 -87 -65 -27 -100
30 -18 52 -21 160 -21 108 0 130 3 160 21 24 14 35 27 35 44 0 17 -10 30 -35
44 -45 27 -233 34 -293 12z"/>
<path fill="#ffffff" stroke="none" d="M2040 487 c19 -7 35 -19 35 -27 0 -24
-63 -39 -165 -39 -102 0 -165 15 -165 39 0 8 16 20 35 27 45 15 215 15 260 0z"/>
<path fill="#000000" stroke="none" d="M1374 460 c-29 -12 -40 -30 -23 -41 30
-19 225 -6 247 16 4 4 -2 13 -12 21 -22 16 -176 19 -212 4z"/>
<path fill="#000000" stroke="none" d="M1082 440 c-102 -25 -34 -80 99 -80 54
0 79 12 79 37 0 33 -110 60 -178 43z"/>
<path fill="#000000" stroke="none" d="M3008 438 c-35 -12 -36 -36 -2 -44 39
-10 204 2 217 15 9 10 7 16 -7 27 -23 16 -165 18 -208 2z"/>
<path fill="#000000" stroke="none" d="M4870 391 c-45 -9 -60 -18 -60 -36 0
-22 43 -28 134 -22 92 6 116 13 116 33 0 22 -125 38 -190 25z"/>
<path fill="#000000" stroke="none" d="M3662 345 c-39 -17 -38 -34 3 -54 39
-19 146 -26 173 -12 83 45 -85 108 -176 66z"/>
<path fill="#000000" stroke="none" d="M4131 330 c-18 -4 -43 -17 -54 -28 -17
-18 -18 -23 -7 -36 15 -20 156 -21 210 -3 44 15 50 41 13 55 -40 16 -123 22
-162 12z"/>
<path fill="#000000" stroke="none" d="M1165 4430 c-65 -10 -94 -22 -132 -54
-62 -52 -49 -127 30 -168 39 -22 54 -23 227 -23 172 0 188 -2 231 -22 25 -13
48 -23 52 -23 11 0 -20 88 -47 134 -44 75 -141 140 -228 151 -24 4 -52 8 -63
9 -11 2 -42 0 -70 -4z"/>
<path fill="#ffffff" stroke="none" d="M1355 4396 c61 -26 109 -62 142 -109
32 -45 59 -105 51 -112 -3 -3 -22 3 -44 12 -33 15 -66 17 -210 15 -184 -3
-211 2 -256 46 -85 80 33 178 202 168 42 -2 93 -11 115 -20z"/>
<path fill="#000000" stroke="none" d="M917 3888 c-33 -35 -66 -78 -74 -97
-16 -37 -18 -36 -41 11 -10 18 -28 38 -41 44 -13 7 -26 16 -30 21 -16 21 -56
33 -116 33 -36 0 -65 -3 -65 -8 0 -7 -30 -25 -62 -38 -10 -3 -18 -13 -18 -20
0 -14 -4 -25 -28 -71 -15 -28 -16 -83 -2 -83 6 0 10 -16 10 -35 0 -19 -4 -35
-10 -35 -5 0 -10 5 -10 10 0 6 -22 10 -49 10 -28 0 -53 -4 -56 -10 -3 -5 -26
-10 -50 -10 -41 0 -49 -5 -100 -55 -30 -31 -55 -64 -55 -75 0 -10 -4 -22 -10
-25 -13 -8 -13 -89 0 -115 5 -11 14 -29 20 -40 5 -11 10 -27 10 -35 0 -9 11
-20 24 -25 14 -5 30 -18 36 -30 6 -11 21 -20 33 -20 13 0 27 -4 33 -9 5 -6 29
-11 54 -13 l45 -3 5 -70 c4 -64 9 -76 45 -122 31 -40 46 -52 68 -53 15 0 27
-4 27 -10 0 -6 33 -10 79 -10 44 0 83 5 86 10 3 6 17 10 31 10 17 0 44 20 89
66 36 37 65 71 65 77 0 6 16 -8 36 -31 19 -23 42 -42 50 -42 8 0 14 -4 14 -10
0 -5 15 -10 34 -10 19 0 38 -4 41 -10 3 -5 28 -10 56 -10 27 0 49 5 49 10 0 6
18 10 40 10 22 0 40 5 40 10 0 6 11 10 24 10 13 0 29 7 36 15 7 8 19 15 26 15
7 0 21 11 29 24 9 13 25 26 35 29 11 3 23 13 26 24 9 27 25 65 40 95 8 14 14
52 14 85 0 56 1 59 33 72 34 15 86 68 87 89 0 7 5 21 10 32 6 11 15 29 20 40
13 26 13 120 0 120 -5 0 -10 7 -10 15 0 8 -4 23 -9 33 -5 9 -14 29 -22 45 -7
15 -26 34 -42 42 -34 17 -143 20 -152 5 -3 -5 -15 -10 -25 -10 -10 0 -25 -7
-33 -15 -13 -12 -17 -12 -31 4 -9 10 -16 24 -16 32 0 8 -9 25 -20 39 -11 14
-20 31 -20 38 0 7 -8 16 -17 19 -10 4 -26 17 -36 30 -10 13 -29 23 -43 23 -13
0 -24 5 -24 10 0 6 -27 10 -61 10 l-61 0 -61 -62z"/>
<path fill="#ffffff" stroke="none" d="M1120 3890 c0 -5 6 -10 14 -10 7 0 33
-23 57 -51 34 -40 45 -62 49 -98 4 -39 9 -47 29 -49 13 -2 26 0 30 5 12 17 61
43 81 43 11 0 23 7 26 15 4 8 14 15 24 15 10 0 23 -7 30 -15 7 -8 18 -15 25
-15 7 0 29 -20 49 -44 33 -41 36 -49 36 -110 0 -78 -30 -153 -66 -166 -12 -5
-28 -18 -33 -29 -6 -11 -23 -21 -38 -23 -22 -2 -27 -7 -24 -23 6 -31 4 -96 -4
-132 -8 -37 -109 -163 -130 -163 -8 0 -15 -4 -15 -10 0 -5 -15 -10 -34 -10
-18 0 -39 -7 -46 -15 -9 -11 -33 -15 -90 -15 -57 0 -81 4 -90 15 -7 8 -19 15
-26 15 -8 0 -14 5 -14 10 0 6 -5 10 -12 10 -18 0 -48 31 -48 50 0 9 -8 24 -19
34 -17 16 -20 15 -45 -18 -14 -19 -26 -41 -26 -48 0 -18 -45 -61 -93 -87 -30
-17 -55 -21 -127 -21 -54 0 -99 5 -112 13 -32 18 -67 60 -68 79 0 9 -4 20 -10
23 -13 8 -13 88 0 101 7 7 3 17 -10 32 -16 17 -32 22 -74 22 -66 0 -100 17
-143 71 -28 35 -33 50 -33 94 0 86 61 175 119 175 11 0 23 5 26 10 3 6 51 10
109 10 56 0 105 3 109 6 3 3 2 15 -4 25 -5 10 -13 28 -19 39 -5 11 -10 43 -10
70 0 43 5 56 30 83 16 18 30 35 30 40 0 4 15 7 34 7 18 0 39 7 47 16 11 14 13
14 21 0 6 -10 23 -16 43 -16 26 0 39 -6 51 -25 9 -14 23 -25 30 -25 8 0 14 -6
14 -14 0 -7 9 -24 19 -38 11 -13 21 -36 23 -51 6 -55 31 -30 58 58 7 22 30 64
52 93 l40 52 79 0 c46 0 79 -4 79 -10z"/>
<path fill="#000000" stroke="none" d="M5463 3176 c-33 -16 -56 -71 -50 -117
4 -33 2 -39 -13 -39 -11 0 -22 5 -25 10 -3 6 -26 10 -50 10 -24 0 -47 -4 -50
-10 -3 -5 -14 -10 -24 -10 -32 0 -91 -81 -91 -125 0 -41 58 -125 87 -125 7 0
13 -4 13 -9 0 -6 15 -11 33 -13 31 -3 32 -5 35 -52 4 -61 49 -126 88 -126 13
0 24 -4 24 -10 0 -5 23 -10 50 -10 46 0 65 6 110 32 8 5 22 11 32 14 9 3 19
15 22 27 5 20 7 18 37 -16 17 -20 38 -37 45 -37 8 0 14 -4 14 -10 0 -6 40 -10
100 -10 60 0 100 4 100 10 0 6 11 10 25 10 14 0 28 7 31 15 4 8 13 15 20 15 8
0 19 11 24 24 5 13 14 27 19 31 6 3 11 14 11 24 0 32 25 68 78 116 51 46 52
48 52 105 0 67 -17 106 -55 126 -31 16 -125 19 -125 4 0 -5 -7 -10 -15 -10 -8
0 -15 9 -15 20 0 11 -4 20 -10 20 -5 0 -10 7 -10 15 0 20 -68 95 -86 95 -8 0
-14 5 -14 10 0 6 -20 10 -44 10 -38 0 -51 -6 -94 -45 -52 -47 -72 -55 -72 -31
0 8 -17 28 -37 45 -33 27 -45 31 -93 30 -30 -1 -65 -6 -77 -13z"/>
<path fill="#ffffff" stroke="none" d="M5570 3162 c0 -5 16 -15 35 -22 22 -9
38 -23 41 -37 4 -13 10 -23 15 -23 5 0 9 -13 9 -30 0 -40 21 -39 39 3 8 17 25
47 39 65 22 28 30 32 73 32 27 0 59 -6 71 -12 40 -24 76 -73 82 -111 6 -38 7
-38 44 -31 20 4 39 11 40 15 5 12 49 11 57 -1 3 -5 14 -10 24 -10 31 0 44 -28
44 -89 0 -49 -4 -62 -27 -89 -18 -20 -40 -32 -60 -34 -30 -3 -31 -5 -36 -60
-5 -50 -10 -61 -47 -97 -27 -27 -51 -41 -67 -41 -14 0 -26 -4 -26 -10 0 -6
-26 -10 -59 -10 -33 0 -63 5 -66 10 -3 6 -15 10 -25 10 -29 0 -80 48 -80 76 0
35 -14 30 -59 -23 l-41 -48 -82 -3 c-73 -3 -86 -1 -110 18 -40 31 -63 83 -47
108 18 29 5 52 -31 52 -16 0 -30 5 -30 10 0 6 -10 10 -22 10 -14 0 -34 14 -50
34 -37 46 -38 100 -2 141 26 30 26 30 135 30 80 -1 109 3 109 12 0 6 -4 15
-10 18 -5 3 -10 23 -10 43 1 37 19 67 55 89 23 14 75 17 75 5z"/>
</g>
</svg>
