<?xml version="1.0" standalone="no"?>
<!DOCTYPE svg PUBLIC "-//W3C//DTD SVG 20010904//EN"
 "http://www.w3.org/TR/2001/REC-SVG-20010904/DTD/svg10.dtd">
<svg version="1.0" xmlns="http://www.w3.org/2000/svg"
 width="882.000000pt" height="542.000000pt" viewBox="0 0 882.000000 542.000000"
 preserveAspectRatio="xMidYMid meet">
<metadata>
Created by potrace 1.16, written by Peter Selinger 2001-2019
</metadata>
<g transform="translate(0.000000,542.000000) scale(0.100000,-0.100000)"
fill="#000000" stroke="none">
<path fill="#000000" stroke="none" d="M0 2710 l0 -2710 4410 0 4410 0 0 2710
0 2710 -4410 0 -4410 0 0 -2710z"/>
<path fill="#ffffff" stroke="none" d="M8810 2710 l0 -2700 -4400 0 -4400 0 0
2700 0 2700 4400 0 4400 0 0 -2700z"/>
<path fill="#000000" stroke="none" d="M3259 5183 c-22 -26 -15 -144 14 -258
40 -156 58 -295 64 -489 l6 -179 -24 6 c-13 3 -52 17 -87 32 -81 34 -212 44
-287 22 -194 -57 -286 -119 -384 -257 -18 -25 -59 -66 -91 -93 -107 -86 -133
-153 -155 -399 -8 -92 -25 -212 -37 -265 -29 -125 -30 -243 -4 -296 43 -86
168 -144 330 -152 81 -5 93 -8 118 -32 20 -19 25 -29 16 -34 -8 -5 -4 -11 13
-18 24 -9 59 -70 59 -104 0 -6 7 -25 15 -41 15 -28 14 -29 -31 -80 -65 -72
-81 -108 -66 -148 11 -29 9 -35 -13 -58 -35 -37 -55 -92 -55 -155 0 -70 17
-112 64 -153 32 -28 44 -32 91 -32 l55 0 0 -63 c0 -110 20 -327 47 -502 16
-107 26 -215 27 -292 1 -119 1 -122 -29 -165 -25 -36 -49 -52 -141 -98 -61
-30 -137 -75 -169 -100 -115 -90 -120 -93 -207 -100 -62 -6 -85 -12 -95 -26
-22 -30 -15 -57 25 -90 46 -38 66 -46 94 -35 18 6 26 3 41 -15 10 -13 29 -24
42 -24 13 0 27 -5 30 -11 4 -5 30 -10 58 -9 29 1 83 -4 121 -10 57 -9 77 -9
110 3 23 8 61 15 85 15 52 1 90 15 146 52 54 36 98 50 159 50 61 0 130 31 160
73 l20 28 -27 78 c-52 145 -45 234 29 390 41 87 102 191 113 191 4 0 24 -53
45 -118 58 -181 124 -308 207 -396 l69 -74 0 -58 c0 -102 61 -175 187 -226 49
-19 76 -23 168 -23 106 0 113 1 187 37 82 39 111 70 106 113 -3 25 1 28 52 41
110 29 223 134 283 264 17 36 32 67 33 69 2 2 22 -12 46 -32 106 -85 221 -116
294 -79 50 25 100 81 128 141 29 63 28 189 -2 286 -47 155 -174 306 -319 382
-29 16 -53 30 -53 33 0 3 21 16 48 30 26 13 92 70 148 125 208 207 346 479
428 847 24 107 32 154 71 393 18 114 42 213 109 439 89 302 125 527 133 816 8
326 -27 559 -109 713 -34 62 -88 117 -117 117 -26 0 -40 -21 -114 -163 -74
-142 -184 -311 -324 -495 -293 -386 -528 -811 -684 -1237 -26 -71 -50 -123
-52 -115 -3 8 -29 89 -57 180 -119 382 -226 652 -380 965 -205 415 -416 696
-625 833 -84 55 -131 66 -156 35z"/>
<path fill="#ffffff" stroke="none" d="M3375 5154 c159 -95 314 -265 469 -514
71 -114 75 -136 29 -177 -51 -48 -158 -18 -233 64 -36 38 -82 122 -104 186 -3
9 -10 17 -15 17 -36 0 -52 -269 -27 -439 9 -62 16 -115 14 -116 -4 -4 -141 86
-149 98 -4 5 -7 71 -7 147 -2 161 -14 281 -47 439 -14 63 -22 118 -19 122 7
12 41 11 67 -2 39 -20 87 -72 124 -134 44 -72 42 -70 49 -63 10 11 -75 134
-121 177 -38 35 -51 41 -89 41 -51 0 -56 9 -56 106 0 95 22 104 115 48z"/>
<path fill="#ffffff" stroke="none" d="M5697 5138 c38 -42 73 -107 73 -135 -1
-40 -33 -106 -89 -182 -99 -135 -201 -343 -217 -441 -6 -36 -13 -45 -60 -75
-29 -19 -72 -51 -95 -72 l-42 -38 7 35 c17 86 27 184 21 213 -3 18 -11 53 -17
78 -11 45 -10 47 29 101 84 113 186 275 254 404 77 145 93 159 136 112z"/>
<path fill="#ffffff" stroke="none" d="M5831 4825 c18 -90 39 -303 39 -394 0
-60 -12 -65 -108 -45 -78 17 -151 11 -230 -18 -29 -11 -55 -18 -57 -16 -1 1 4
28 12 58 20 78 102 245 170 347 32 47 70 105 85 127 15 23 30 55 34 71 l7 30
15 -35 c8 -19 23 -75 33 -125z"/>
<path fill="#ffffff" stroke="none" d="M3627 4520 c97 -108 214 -128 277 -47
l24 31 28 -57 28 -57 -31 -32 c-74 -78 -99 -185 -90 -378 4 -69 9 -143 13
-165 l7 -40 -36 48 c-20 26 -41 65 -46 88 -12 54 -97 140 -171 173 -84 38 -95
55 -115 171 -23 134 -21 397 2 438 3 4 20 -23 38 -62 18 -38 51 -88 72 -111z"/>
<path fill="#ffffff" stroke="none" d="M5267 4513 c5 -16 8 -73 8 -128 -1
-115 -11 -152 -92 -359 -71 -182 -127 -351 -165 -501 -25 -100 -31 -147 -35
-280 -4 -124 -9 -164 -21 -177 -8 -10 -19 -18 -24 -18 -10 0 -4 96 18 248 8
56 14 105 14 107 0 10 -32 4 -60 -10 -17 -9 -53 -36 -82 -61 -28 -26 -66 -53
-84 -60 -43 -18 -116 -18 -160 1 -42 18 -45 7 38 202 66 157 168 363 260 523
104 181 350 539 370 540 4 0 11 -12 15 -27z"/>
<path fill="#ffffff" stroke="none" d="M5818 4364 c59 -7 57 -2 42 -109 -16
-113 -68 -243 -144 -363 l-26 -42 -33 20 c-41 26 -116 26 -188 1 -59 -20 -174
-79 -205 -104 -74 -61 -204 -156 -204 -149 0 22 69 225 128 375 63 161 68 170
122 220 70 64 153 115 239 145 68 23 99 24 269 6z"/>
<path fill="#ffffff" stroke="none" d="M4065 4228 c37 -78 87 -188 111 -245
l44 -104 -29 21 c-66 47 -144 30 -177 -38 -25 -53 -29 -170 -11 -308 24 -179
28 -234 18 -234 -13 0 -61 99 -61 126 0 12 -16 101 -35 198 -61 306 -65 486
-16 616 18 48 64 110 81 110 4 0 37 -64 75 -142z"/>
<path fill="#ffffff" stroke="none" d="M3191 4294 c83 -25 167 -80 200 -132
76 -121 5 -177 -302 -240 -96 -20 -170 -41 -215 -62 -79 -38 -161 -114 -190
-177 -10 -23 -23 -43 -28 -43 -17 0 6 97 40 167 39 82 114 157 213 214 79 45
79 60 0 18 -88 -47 -191 -147 -228 -221 -17 -34 -31 -70 -31 -80 0 -11 -4 -16
-10 -13 -5 3 -10 42 -10 86 0 85 20 159 67 253 94 187 178 245 354 246 50 0
108 -7 140 -16z"/>
<path fill="#ffffff" stroke="none" d="M2761 4199 c-82 -109 -150 -282 -151
-383 0 -21 7 -70 16 -110 9 -39 18 -81 20 -93 5 -26 24 -31 24 -8 0 25 45 107
85 152 47 55 167 115 271 137 270 55 340 80 387 135 42 50 33 93 -35 175 -37
43 -39 48 -17 41 58 -17 110 -100 124 -197 4 -27 11 -48 17 -48 11 0 1 59 -23
128 -11 33 -13 50 -6 45 40 -24 87 -69 106 -104 42 -74 8 -135 -111 -195 -76
-38 -253 -94 -301 -94 -98 -1 -244 -46 -343 -106 -32 -20 -68 -37 -79 -36 -30
1 80 -99 139 -126 26 -12 84 -29 129 -36 74 -13 78 -14 37 -17 -133 -7 -244
18 -329 75 l-51 35 -1 -52 c-1 -29 -3 -43 -6 -32 -9 37 -21 38 -38 4 -10 -19
-42 -67 -72 -108 -80 -107 -108 -171 -108 -253 0 -39 5 -72 12 -79 9 -9 11 1
6 44 -3 30 -2 72 2 94 l8 38 13 -66 c16 -88 55 -161 122 -231 l55 -58 -56 0
c-148 0 -274 60 -325 155 -11 20 -16 54 -16 100 0 111 43 173 194 280 82 57
140 116 140 143 0 13 -3 12 -16 -6 -16 -23 -17 -23 -36 -5 -11 10 -33 41 -49
68 -36 62 -38 135 -9 249 30 120 75 201 155 282 55 56 126 109 152 114 2 0
-15 -23 -36 -51z"/>
<path fill="#ffffff" stroke="none" d="M5830 3982 c-25 -152 -52 -274 -92
-420 -28 -101 -37 -119 -85 -177 -127 -154 -286 -223 -380 -165 -59 36 -54 54
48 160 248 256 428 501 499 675 13 31 24 54 26 52 2 -2 -5 -58 -16 -125z"/>
<path fill="#ffffff" stroke="none" d="M3657 4055 c104 -61 97 -180 -14 -256
-68 -47 -100 -51 -241 -32 l-123 17 73 26 c86 32 175 74 203 98 51 42 70 106
45 153 -15 27 3 25 57 -6z"/>
<path fill="#ffffff" stroke="none" d="M2491 3917 c-26 -76 -44 -193 -37 -239
8 -51 28 -89 72 -138 l35 -38 -43 -35 c-24 -18 -65 -49 -93 -68 -27 -18 -69
-53 -93 -77 -24 -24 -41 -35 -38 -25 12 38 36 221 36 278 1 85 25 207 51 263
22 44 101 132 119 132 5 0 1 -24 -9 -53z"/>
<path fill="#ffffff" stroke="none" d="M3787 3898 c9 -76 -38 -134 -154 -191
-24 -12 -43 -25 -43 -30 0 -4 32 8 70 29 64 33 106 70 137 120 11 18 13 18 37
-11 37 -44 62 -117 80 -235 30 -208 85 -302 257 -441 53 -43 115 -102 139
-131 156 -196 175 -456 34 -484 -25 -4 -35 1 -70 38 -58 60 -63 81 -21 96 87
31 113 105 78 221 -31 100 -99 173 -218 231 -116 56 -163 100 -163 155 0 53
-25 156 -50 204 -18 37 -72 91 -90 91 -4 0 -14 -32 -21 -70 -7 -39 -16 -73
-21 -76 -23 -14 7 -194 45 -269 11 -22 36 -55 56 -74 l35 -34 -31 17 c-59 30
-113 125 -152 265 -40 145 -105 223 -242 289 -136 67 -220 73 -424 31 -50 -10
-132 -19 -184 -19 -106 0 -108 6 -21 54 133 73 306 104 470 86 187 -21 208
-23 243 -16 86 16 187 121 187 195 0 32 1 34 16 19 9 -9 18 -36 21 -60z"/>
<path fill="#ffffff" stroke="none" d="M4184 3879 c19 -17 44 -45 55 -62 18
-30 100 -259 154 -432 14 -44 37 -117 51 -162 14 -45 26 -93 26 -106 0 -12 4
-27 9 -32 9 -11 45 -150 44 -175 0 -8 3 -19 7 -25 5 -5 20 -82 35 -170 42
-244 38 -547 -8 -680 l-13 -37 -13 54 c-12 46 -52 138 -89 203 -6 11 -23 52
-36 92 -14 40 -37 90 -51 112 -30 48 -30 51 -6 51 21 0 70 43 96 84 36 59 -2
241 -73 352 -55 84 -94 127 -197 212 -130 107 -131 108 -138 232 -4 58 -12
132 -18 165 -15 82 -16 232 0 277 27 80 103 102 165 47z"/>
<path fill="#ffffff" stroke="none" d="M5655 3856 c25 -17 25 -17 8 -47 -70
-118 -328 -404 -520 -575 -113 -101 -139 -120 -147 -107 -25 45 26 416 62 457
9 10 67 56 128 102 227 171 382 227 469 170z"/>
<path fill="#ffffff" stroke="none" d="M3423 3620 c146 -55 248 -163 281 -295
19 -74 77 -208 102 -237 35 -38 -15 -189 -113 -345 -70 -113 -123 -166 -200
-205 -61 -30 -66 -30 -170 -26 -101 4 -114 7 -198 46 -100 46 -168 63 -235 59
l-45 -2 -26 77 c-30 90 -22 101 34 52 20 -19 42 -34 49 -34 6 0 3 -7 -8 -15
-25 -19 -14 -19 47 1 48 16 121 16 189 -1 22 -6 23 -5 7 5 -18 11 -18 13 6 39
62 66 61 99 -2 145 -67 49 -120 66 -209 66 -96 0 -86 20 15 29 61 6 64 7 33
14 -22 4 -57 1 -94 -8 -32 -8 -62 -13 -67 -10 -5 4 -8 -4 -6 -17 1 -18 -3 -23
-20 -22 -29 1 -29 -13 -1 -43 l21 -23 -41 0 c-51 0 -54 -14 -7 -31 38 -14 44
-24 20 -33 -9 -3 -32 9 -57 32 -181 162 -220 223 -226 360 l-4 82 60 83 c99
134 94 129 86 77 -3 -25 -15 -67 -26 -94 -10 -27 -16 -51 -14 -54 10 -10 74
140 81 189 4 27 10 49 14 47 3 -2 30 -16 58 -31 140 -73 319 -76 438 -6 52 31
42 40 -17 17 -69 -26 -200 -21 -271 10 -47 21 -117 69 -117 81 0 3 46 7 103 8
62 1 136 10 187 22 114 27 260 23 343 -9z"/>
<path fill="#ffffff" stroke="none" d="M3859 3503 c35 -42 55 -97 71 -194 13
-77 2 -137 -32 -169 -34 -32 -57 -25 -78 23 -21 45 -25 77 -11 77 11 0 21 -25
21 -51 0 -10 5 -19 11 -19 16 0 3 59 -17 82 -21 22 -14 81 15 140 11 23 19 44
16 46 -8 9 -45 -64 -51 -101 -9 -52 -24 -57 -24 -6 0 50 32 209 42 209 3 0 20
-17 37 -37z"/>
<path fill="#ffffff" stroke="none" d="M4936 3270 c-9 -67 -16 -150 -16 -184
l0 -62 -56 -54 c-75 -74 -202 -218 -238 -269 -15 -23 -30 -40 -32 -38 -2 2
-13 53 -24 113 -11 60 -33 162 -49 228 l-30 118 25 79 25 79 31 -16 c16 -9 54
-18 82 -21 63 -7 125 21 201 89 50 45 87 70 93 63 2 -2 -4 -58 -12 -125z"/>
<path fill="#ffffff" stroke="none" d="M5655 3274 c-15 -60 -35 -169 -46 -244
-25 -168 -56 -324 -73 -370 -7 -19 -16 -56 -20 -82 -6 -42 -13 -52 -52 -79
-54 -37 -122 -67 -189 -85 -69 -19 -72 -18 -90 16 -60 116 -23 276 95 415 107
124 146 203 133 266 -7 35 -45 59 -93 59 -18 0 -47 7 -66 16 -40 19 -71 68
-52 80 7 4 14 1 17 -7 2 -7 17 -27 33 -42 27 -28 32 -29 106 -25 102 4 157 32
247 123 39 38 71 70 73 69 1 -1 -9 -50 -23 -110z"/>
<path fill="#ffffff" stroke="none" d="M5239 3176 c14 -7 48 -16 74 -19 72
-10 87 -21 87 -65 -1 -65 -43 -139 -142 -246 -16 -17 -47 -68 -70 -113 -59
-120 -63 -199 -13 -315 6 -16 1 -18 -51 -18 -75 0 -116 12 -184 52 -73 45 -98
94 -105 208 -7 120 -14 156 -35 183 l-19 23 132 130 c73 72 161 156 196 188
l65 58 19 -26 c10 -15 31 -33 46 -40z"/>
<path fill="#ffffff" stroke="none" d="M4112 3091 c139 -66 218 -175 218 -301
0 -56 -30 -101 -81 -119 -28 -10 -31 -8 -47 21 -47 87 -109 130 -202 142 -69
9 -127 35 -161 72 -26 28 -26 31 -16 87 10 52 27 72 41 48 9 -15 96 -32 113
-23 12 8 10 11 -13 16 -32 8 -104 52 -104 64 1 4 17 15 37 24 35 17 38 17 56
0 36 -32 140 -177 160 -222 11 -25 22 -39 24 -32 7 19 -60 130 -124 206 -78
92 -77 91 -69 111 5 15 11 13 45 -18 22 -20 77 -54 123 -76z"/>
<path fill="#ffffff" stroke="none" d="M2850 2920 c0 -5 -4 -10 -9 -10 -6 0
-13 5 -16 10 -3 6 1 10 9 10 9 0 16 -4 16 -10z"/>
<path fill="#ffffff" stroke="none" d="M2960 2911 c0 -6 -4 -13 -10 -16 -20
-12 -11 -75 15 -100 50 -51 156 -18 154 47 0 21 -2 20 -16 -9 -9 -17 -28 -37
-43 -43 -74 -31 -139 45 -88 104 20 23 27 26 48 17 24 -9 24 -10 3 -10 -27 -1
-40 -20 -22 -32 11 -7 12 -12 2 -28 -16 -26 7 -46 42 -37 34 9 48 44 29 73
-13 20 -12 22 3 16 10 -4 20 -9 23 -12 3 -3 19 -13 35 -21 41 -21 44 -56 7
-100 -29 -34 -31 -34 -113 -38 -46 -1 -92 -3 -102 -3 -10 0 -34 12 -53 26 -60
46 -42 118 41 163 25 14 45 15 45 3z"/>
<path fill="#ffffff" stroke="none" d="M3908 2839 c24 -11 62 -19 85 -19 91
-1 168 -63 207 -167 23 -62 50 -187 50 -234 0 -16 5 -29 10 -29 6 0 8 21 4 58
-8 68 1 64 45 -22 73 -138 19 -246 -125 -247 -39 -1 -69 6 -107 25 -56 27
-157 110 -157 129 0 6 17 28 37 49 29 30 45 38 73 38 29 1 32 2 17 11 -32 19
-64 1 -124 -68 -77 -87 -247 -223 -346 -274 -56 -29 -96 -43 -136 -46 -51 -4
-64 -1 -140 37 -70 36 -106 64 -225 179 -135 131 -190 171 -235 171 -11 0 -24
-6 -28 -14 -11 -18 -51 -38 -63 -31 -33 20 8 112 79 179 67 64 189 41 378 -71
56 -33 136 -73 177 -89 42 -16 76 -33 76 -37 0 -4 -25 -20 -56 -34 -58 -26
-67 -43 -14 -24 64 22 161 104 272 228 130 146 224 243 253 259 11 7 17 15 14
18 -11 12 -106 -68 -172 -146 -104 -124 -199 -226 -238 -258 l-37 -29 -58 23
c-33 12 -90 38 -127 57 l-68 35 109 0 c97 0 113 2 162 27 100 49 180 146 266
320 l37 75 31 -30 c16 -17 50 -39 74 -49z"/>
<path fill="#ffffff" stroke="none" d="M4798 2816 c8 -15 17 -78 21 -140 8
-108 22 -156 57 -197 11 -13 11 -23 -6 -66 -79 -207 -59 -445 50 -621 l40 -63
-25 -11 c-18 -8 -39 -8 -81 1 -67 13 -154 14 -206 2 -43 -10 -40 -16 -78 146
-20 87 -20 95 -5 138 36 109 48 222 42 432 l-5 203 50 67 c78 105 112 143 123
140 6 -2 16 -16 23 -31z"/>
<path fill="#ffffff" stroke="none" d="M4361 2418 c32 -60 34 -68 34 -165 0
-106 7 -120 22 -43 l9 45 31 -60 c39 -75 65 -160 93 -300 25 -124 79 -309 115
-395 13 -32 47 -95 75 -141 63 -105 89 -175 97 -256 19 -199 -162 -438 -348
-460 -40 -5 -60 -1 -110 22 -73 32 -139 36 -188 11 -20 -11 -47 -16 -67 -14
-21 2 -33 0 -31 -6 6 -20 55 -17 106 5 63 26 100 23 194 -20 57 -26 67 -34 67
-56 0 -33 -30 -61 -97 -92 -123 -57 -258 -53 -383 10 -117 59 -152 132 -125
261 20 95 60 193 135 326 122 217 176 367 187 521 7 108 2 130 -48 183 -32 36
-37 45 -23 50 45 17 114 -60 139 -159 8 -32 15 -104 16 -160 1 -85 2 -95 11
-65 6 19 8 65 5 103 -2 37 -1 67 3 67 4 0 36 -31 72 -68 78 -83 145 -195 195
-327 21 -54 39 -92 41 -83 4 21 -40 135 -88 226 -22 42 -38 78 -36 80 12 12
71 -36 103 -83 42 -64 57 -66 20 -3 -32 55 -64 84 -108 100 -37 14 -219 195
-219 219 0 30 -49 116 -81 143 -28 24 -39 27 -73 23 -42 -6 -32 -12 -203 139
-22 19 -36 44 -42 72 l-9 44 35 -42 c37 -43 75 -51 81 -18 5 27 -41 121 -83
167 l-38 42 28 29 28 29 56 -51 c31 -28 84 -65 119 -81 55 -26 72 -29 123 -24
176 16 207 155 78 344 -16 23 -29 45 -29 50 1 18 78 -79 111 -139z"/>
<path fill="#ffffff" stroke="none" d="M5465 2408 c-31 -93 -120 -267 -141
-275 -8 -3 -14 -13 -14 -22 0 -22 -67 -122 -137 -201 -48 -56 -144 -138 -189
-163 -17 -10 -81 93 -112 180 -24 71 -27 91 -27 218 0 120 3 151 24 218 13 43
28 80 32 82 4 3 23 -4 41 -14 87 -52 242 -63 359 -27 56 17 165 71 174 86 19
31 14 -8 -10 -82z"/>
<path fill="#ffffff" stroke="none" d="M2920 2384 c14 -9 57 -48 96 -87 l72
-69 -33 -37 c-18 -20 -54 -59 -80 -88 -79 -87 -157 -113 -223 -73 -64 39 -93
127 -71 213 27 110 165 190 239 141z"/>
<path fill="#ffffff" stroke="none" d="M3925 2135 c14 -29 25 -64 23 -77 -3
-22 -5 -22 -38 14 -19 20 -51 56 -70 81 -46 60 -56 59 -25 -3 35 -69 52 -210
25 -210 -5 0 -14 26 -20 57 -13 58 -58 163 -72 163 -4 0 7 -29 23 -64 48 -102
52 -227 5 -153 -7 12 -29 57 -47 99 -19 43 -37 78 -41 78 -13 0 -9 -53 7 -106
19 -62 19 -74 0 -74 -18 0 -41 34 -65 98 l-19 50 67 43 c37 23 69 46 72 50 3
4 23 21 44 38 l39 32 32 -31 c18 -18 45 -56 60 -85z"/>
<path fill="#ffffff" stroke="none" d="M3144 2172 c22 -20 54 -46 70 -58 l28
-21 -25 -74 c-30 -86 -52 -235 -67 -441 -18 -259 -88 -611 -134 -670 -7 -10
-46 -40 -87 -67 -41 -27 -101 -72 -134 -100 -89 -77 -148 -102 -255 -110 -96
-7 -114 -16 -116 -59 -1 -34 -36 -42 -65 -16 -30 27 -21 57 19 65 34 7 49 16
41 24 -12 11 -82 -18 -86 -36 -3 -10 -9 -19 -13 -19 -12 0 -20 28 -14 45 7 17
24 22 105 29 68 5 100 21 182 87 70 57 141 98 208 124 63 23 118 70 140 119
27 59 25 206 -6 413 -34 234 -45 356 -45 493 0 109 2 119 20 125 10 3 56 46
101 96 45 49 84 89 87 89 3 0 23 -17 46 -38z"/>
<path fill="#ffffff" stroke="none" d="M3425 2027 c31 0 73 9 112 25 l61 25
18 -46 c37 -100 104 -150 104 -77 0 18 -5 47 -11 65 -6 18 -9 34 -6 37 3 3 15
-21 27 -55 29 -78 49 -97 92 -85 23 7 36 18 42 39 6 17 11 32 13 34 5 7 137
-107 212 -182 l74 -75 -5 -114 c-8 -170 -42 -266 -203 -562 l-48 -89 -24 29
c-47 57 -135 213 -193 344 -33 73 -65 139 -72 147 -20 25 -20 5 1 -34 11 -21
53 -108 95 -193 41 -85 99 -190 128 -233 l55 -78 -29 -82 c-16 -45 -31 -83
-34 -86 -9 -9 -86 74 -129 140 -54 80 -73 124 -136 307 l-49 144 19 27 c30 42
92 177 107 234 16 61 18 166 3 187 -7 11 -8 -1 -4 -40 13 -110 -36 -245 -159
-438 -164 -256 -198 -397 -141 -569 14 -42 25 -85 23 -97 -2 -11 -21 -33 -43
-48 -32 -22 -58 -29 -127 -36 -59 -7 -97 -16 -120 -31 -80 -51 -136 -72 -188
-70 -28 2 -56 -3 -62 -9 -7 -7 -29 -12 -49 -12 -64 0 -73 43 -13 59 16 4 29
14 29 21 0 8 11 17 25 21 23 7 23 7 -7 8 -20 1 -35 -5 -41 -15 -5 -8 -20 -21
-33 -27 -13 -7 -25 -23 -27 -35 -6 -37 -72 -24 -72 15 0 7 24 24 53 37 56 26
42 36 -16 11 -37 -15 -58 -41 -50 -61 5 -14 -42 -27 -68 -19 -36 12 -22 44 26
65 25 11 45 24 45 30 0 18 -98 -38 -105 -60 -8 -24 -14 -25 -44 -3 l-24 16 23
19 c12 10 28 18 35 18 7 0 26 7 41 15 41 21 8 18 -56 -5 -66 -24 -60 -24 -60
0 0 28 33 39 113 38 86 0 164 35 267 122 41 35 104 82 140 105 56 36 70 51 88
93 51 118 105 425 123 692 13 208 39 350 75 422 l14 28 58 -27 c36 -16 75 -26
107 -26z"/>
<path fill="#ffffff" stroke="none" d="M4870 1698 c146 -40 300 -163 380 -303
45 -79 43 -85 -37 -85 -38 1 -85 7 -105 14 -40 14 -144 87 -195 135 -18 17
-37 31 -42 31 -6 0 -11 4 -11 8 0 10 -123 91 -182 120 -33 15 -50 31 -54 48
-8 32 -5 35 58 44 58 8 133 4 188 -12z"/>
<path fill="#ffffff" stroke="none" d="M4711 1580 c33 -17 67 -38 77 -48 10
-9 29 -23 42 -30 14 -7 47 -33 74 -57 27 -25 51 -45 53 -45 3 0 22 -13 42 -29
73 -58 120 -75 211 -77 l85 -2 12 -43 c15 -57 15 -185 0 -226 -16 -44 -73
-122 -95 -130 -9 -4 -20 -11 -23 -15 -3 -5 -23 -13 -44 -18 -66 -15 -176 27
-259 100 -31 28 -33 32 -33 103 0 41 -9 100 -19 133 -9 32 -18 70 -18 84 -1
14 -25 60 -54 102 -28 42 -52 82 -52 87 0 6 -6 14 -14 18 -13 8 -61 123 -51
123 3 0 33 -14 66 -30z"/>
<path fill="#000000" stroke="none" d="M3230 3434 c-40 -17 -90 -62 -90 -80 0
-6 6 -17 13 -23 11 -8 20 -3 43 20 40 44 102 69 184 76 39 3 70 10 70 14 0 16
-182 10 -220 -7z"/>
<path fill="#000000" stroke="none" d="M3545 3351 c-7 -34 -34 -42 -55 -16
-17 20 -30 19 -30 -3 0 -10 -15 -26 -36 -37 -38 -20 -89 -74 -79 -83 3 -4 16
6 28 20 27 32 75 63 84 54 4 -3 -3 -19 -15 -34 -71 -88 -98 -158 -88 -228 12
-93 46 -119 131 -103 75 14 123 52 156 124 20 42 26 149 10 174 -5 8 -3 24 5
40 21 40 17 61 -5 34 -27 -32 -34 -29 -16 7 28 53 18 64 -22 23 l-37 -38 -6
42 c-8 55 -16 62 -25 24z"/>
<path fill="#ffffff" stroke="none" d="M3520 3300 c0 -5 -5 -10 -11 -10 -5 0
-7 5 -4 10 3 6 8 10 11 10 2 0 4 -4 4 -10z"/>
<path fill="#ffffff" stroke="none" d="M3594 3246 c110 -46 44 -268 -92 -306
-92 -25 -123 -1 -123 94 0 55 38 168 40 118 2 -56 48 -102 101 -102 55 0 100
47 100 104 0 25 -69 114 -70 90 0 -6 11 -21 25 -34 34 -32 34 -88 0 -120 -53
-49 -135 -13 -135 60 0 39 20 65 75 93 37 20 38 20 79 3z"/>
<path fill="#000000" stroke="none" d="M3495 3198 c-29 -16 -29 -16 -12 -33
17 -16 13 -45 -5 -45 -6 0 -5 -6 2 -15 29 -35 100 -5 100 41 0 43 -48 73 -85
52z"/>
<path fill="#000000" stroke="none" d="M2663 3170 c-17 -10 -37 -29 -44 -41
-13 -24 -7 -108 10 -137 9 -14 10 -11 11 18 0 61 19 110 46 120 79 31 77 30
64 45 -17 20 -49 19 -87 -5z"/>
<path fill="#000000" stroke="none" d="M3521 2871 c-11 -7 -11 -10 4 -12 15
-4 15 -6 -4 -30 -11 -14 -43 -36 -70 -48 -28 -12 -55 -30 -61 -41 -6 -11 -21
-22 -34 -26 -13 -3 -34 -17 -47 -30 -24 -26 -59 -32 -59 -11 0 6 -12 -1 -26
-17 -25 -28 -27 -47 -7 -53 7 -3 9 4 6 16 -5 19 -1 21 33 21 22 -1 50 -7 64
-15 34 -20 64 -18 110 5 44 23 72 58 90 115 33 104 36 109 60 115 22 5 23 7 7
13 -25 9 -49 9 -66 -2z"/>
<path fill="#ffffff" stroke="none" d="M3494 2720 c-32 -58 -76 -90 -126 -90
-55 0 -52 11 9 41 32 15 76 47 98 70 26 26 32 37 18 30 -12 -6 -25 -16 -28
-21 -11 -18 -92 -69 -121 -76 -26 -7 -28 -6 -15 9 7 10 22 17 32 17 9 0 27 14
39 30 12 17 28 30 35 30 8 0 29 9 47 20 45 27 48 7 12 -60z"/>
<path fill="#000000" stroke="none" d="M3240 2864 c0 -3 5 -14 10 -24 7 -14 7
-25 -1 -38 -19 -30 -4 -52 35 -52 44 0 66 9 66 26 0 8 6 14 14 14 17 0 41 28
32 37 -4 4 -10 3 -14 -3 -4 -6 -17 -15 -30 -19 -15 -4 -21 -12 -18 -21 3 -9
-3 -16 -19 -20 -60 -15 -83 19 -30 46 28 13 28 15 8 18 -12 2 -25 12 -28 23
-6 17 -25 28 -25 13z"/>
<path fill="#000000" stroke="none" d="M4059 922 c-57 -89 -80 -139 -86 -192
-6 -53 2 -100 17 -100 6 0 5 11 -1 28 -6 15 -8 46 -4 70 7 46 59 154 100 208
26 34 30 44 18 44 -5 0 -24 -26 -44 -58z"/>
<path fill="#000000" stroke="none" d="M4210 620 c-10 -6 2 -9 37 -8 50 1 83
-13 83 -35 0 -10 -94 -6 -245 9 -33 4 -57 3 -53 -1 4 -4 45 -11 90 -15 46 -4
108 -11 138 -15 42 -5 60 -3 75 9 20 16 20 16 -8 41 -29 26 -88 34 -117 15z"/>
<path fill="#000000" stroke="none" d="M3257 922 c-5 -7 -6 -30 -2 -51 7 -45
-16 -111 -39 -111 -8 0 -22 10 -30 22 -19 27 -32 18 -16 -11 7 -14 21 -21 40
-21 45 0 62 33 58 116 -2 42 -6 64 -11 56z"/>
<path fill="#000000" stroke="none" d="M610 5115 c0 -5 9 -122 20 -260 11
-137 16 -252 12 -256 -4 -4 -108 -51 -232 -104 -212 -92 -282 -124 -270 -125
21 -1 522 -109 526 -112 2 -3 13 -119 24 -258 11 -140 22 -255 24 -257 2 -3
138 202 301 454 1 2 120 -20 265 -47 145 -27 265 -48 267 -46 2 2 -234 271
-323 366 l-23 25 144 229 c80 126 143 231 142 233 -2 2 -118 -46 -257 -107
l-253 -109 -111 117 c-196 207 -256 267 -256 257z"/>
<path fill="#ffffff" stroke="none" d="M905 4802 l70 -73 244 106 c134 58 245
105 247 105 2 0 -55 -93 -126 -206 -72 -114 -135 -214 -140 -224 -8 -14 21
-51 155 -201 91 -101 161 -185 155 -187 -7 -3 -407 68 -476 84 -18 5 -41 -26
-164 -215 -79 -121 -146 -218 -148 -216 -2 2 -13 113 -23 246 -11 134 -21 244
-23 246 -2 2 -116 27 -254 56 -138 28 -248 55 -244 58 4 4 108 50 232 103 124
53 231 100 238 105 10 6 10 46 -3 207 -8 109 -18 223 -21 253 l-6 54 108 -114
c60 -63 140 -147 179 -187z"/>
<path fill="#000000" stroke="none" d="M6830 4968 c0 -2 44 -118 99 -258 l99
-255 -24 -20 c-13 -11 -111 -76 -219 -145 -107 -68 -195 -130 -195 -136 0 -14
43 -18 350 -34 112 -6 205 -12 206 -13 0 -1 43 -112 95 -246 52 -135 99 -246
105 -248 7 -2 36 93 75 243 35 135 66 250 69 254 3 5 124 4 269 -1 154 -6 268
-6 273 -1 7 7 -179 142 -449 327 -2 1 31 116 72 255 41 139 73 255 72 257 -2
2 -100 -66 -217 -151 l-214 -154 -31 21 c-16 12 -115 82 -220 157 -192 138
-215 154 -215 148z"/>
<path fill="#ffffff" stroke="none" d="M7073 4788 c115 -83 216 -151 222 -151
6 0 100 64 209 142 108 79 199 141 202 138 3 -2 -27 -112 -66 -243 -38 -131
-67 -241 -62 -245 4 -4 99 -71 212 -149 113 -79 210 -147 215 -152 6 -6 -25
-7 -85 -4 -52 3 -177 8 -276 11 l-181 6 -1 -23 c0 -20 -110 -459 -117 -466 -1
-1 -44 107 -94 241 l-93 244 -36 -1 c-71 -2 -417 16 -450 22 -33 7 -29 10 170
141 112 74 205 136 207 137 2 2 -1 9 -7 16 -9 11 -64 151 -168 426 -13 34 -21
62 -18 62 3 0 101 -68 217 -152z"/>
<path fill="#000000" stroke="none" d="M1785 4026 c-22 -8 -57 -34 -77 -56
-65 -73 -64 -153 5 -224 49 -51 107 -71 176 -62 56 8 96 31 135 79 27 34 31
47 31 97 0 50 -4 63 -31 97 -17 21 -45 46 -62 56 -42 25 -127 31 -177 13z"/>
<path fill="#ffffff" stroke="none" d="M1963 3991 c40 -25 77 -88 77 -131 0
-44 -37 -107 -80 -133 -27 -17 -50 -22 -100 -22 -79 0 -125 24 -158 83 -28 50
-28 94 0 143 23 41 53 66 97 80 40 13 128 3 164 -20z"/>
<path fill="#000000" stroke="none" d="M7902 3663 c-11 -38 -33 -111 -48 -163
-15 -52 -32 -100 -38 -106 -6 -6 -85 -33 -176 -59 -91 -26 -171 -51 -178 -55
-9 -4 27 -42 109 -116 67 -60 129 -113 136 -119 11 -8 4 -43 -37 -184 -27 -96
-48 -176 -47 -178 2 -1 86 22 187 52 l183 54 115 -102 c63 -56 127 -112 143
-125 l28 -23 10 38 c6 21 24 95 42 165 17 70 36 134 43 141 6 8 85 36 176 62
91 26 171 51 178 55 9 4 -27 42 -109 116 -67 60 -129 114 -136 119 -11 8 -4
43 37 184 27 96 48 176 47 178 -2 1 -86 -22 -187 -52 l-183 -54 -115 102 c-62
56 -124 110 -137 120 l-23 17 -20 -67z"/>
<path fill="#ffffff" stroke="none" d="M8064 3595 c82 -74 135 -114 145 -111
241 72 333 97 338 92 5 -4 -30 -137 -83 -317 -3 -11 36 -52 125 -130 71 -63
130 -116 130 -119 1 -3 -76 -28 -170 -55 -94 -27 -175 -53 -181 -56 -5 -3 -27
-78 -49 -165 -22 -87 -43 -162 -47 -166 -4 -4 -68 47 -142 113 -82 73 -140
117 -150 114 -248 -73 -332 -96 -337 -91 -5 4 30 137 83 317 3 11 -36 52 -125
130 -71 63 -130 116 -130 119 -1 3 76 28 171 55 94 28 176 55 182 61 6 6 31
81 56 167 25 87 47 157 50 157 3 0 63 -52 134 -115z"/>
<path fill="#000000" stroke="none" d="M1490 3701 c-144 -47 -217 -194 -159
-321 44 -97 117 -144 224 -144 107 0 180 47 224 144 50 110 -1 244 -113 302
-43 22 -136 32 -176 19z"/>
<path fill="#ffffff" stroke="none" d="M1656 3667 c163 -84 162 -307 -1 -395
-41 -22 -159 -22 -200 0 -147 79 -166 262 -38 371 55 47 172 59 239 24z"/>
<path fill="#000000" stroke="none" d="M6631 3269 c-85 -118 -155 -215 -156
-216 0 -1 -122 34 -270 77 -148 44 -270 78 -272 77 -1 -2 76 -97 171 -212
l175 -209 -47 -66 c-26 -36 -95 -132 -154 -214 -60 -82 -107 -151 -105 -152 2
-2 120 35 262 81 143 46 262 81 265 76 29 -41 344 -420 347 -417 2 2 -1 120
-7 262 -6 141 -7 260 -3 264 4 4 116 40 248 80 132 40 247 76 255 81 10 5 -5
13 -45 25 -33 9 -154 45 -270 79 l-210 62 -7 129 c-4 71 -11 192 -15 268 l-8
140 -154 -215z"/>
<path fill="#ffffff" stroke="none" d="M6796 3088 l6 -148 47 -14 c343 -101
471 -140 468 -142 -2 -2 -113 -37 -246 -78 -134 -42 -246 -77 -248 -80 -2 -2
1 -115 6 -252 6 -136 9 -249 7 -251 -2 -3 -79 88 -171 201 -92 113 -168 206
-169 206 0 0 -111 -36 -246 -80 -134 -43 -246 -77 -248 -75 -2 2 58 91 135
197 77 106 142 198 146 204 3 6 -68 100 -159 209 -90 109 -163 199 -161 201 3
3 135 -34 498 -142 12 -3 57 52 165 202 l149 207 7 -109 c4 -60 11 -175 14
-256z"/>
<path fill="#000000" stroke="none" d="M1455 3177 c-64 -21 -97 -42 -141 -89
-69 -71 -88 -119 -88 -218 0 -72 4 -92 26 -135 34 -65 100 -128 163 -157 70
-32 190 -32 260 0 63 29 129 92 163 157 22 43 26 63 26 135 0 72 -4 92 -26
135 -34 65 -100 128 -163 156 -61 27 -164 34 -220 16z"/>
<path fill="#ffffff" stroke="none" d="M1684 3136 c105 -51 161 -144 161 -266
0 -123 -56 -214 -163 -267 -48 -24 -70 -28 -137 -28 -67 0 -89 4 -137 28 -160
79 -215 278 -118 430 80 127 253 172 394 103z"/>
<path fill="#000000" stroke="none" d="M775 2695 c-70 -124 -130 -227 -134
-229 -3 -2 -116 18 -251 45 -135 27 -258 52 -275 55 -25 5 3 -28 167 -193
l197 -198 -134 -229 c-74 -126 -133 -231 -132 -233 2 -2 118 46 258 107 l254
110 192 -192 c106 -106 193 -188 193 -183 0 6 -16 123 -35 260 -18 138 -31
253 -27 257 4 3 116 55 250 113 134 59 241 109 239 111 -2 3 -124 26 -271 53
-147 27 -269 51 -272 54 -3 3 -23 119 -45 258 -22 139 -41 254 -43 256 -2 2
-61 -98 -131 -222z"/>
<path fill="#ffffff" stroke="none" d="M944 2636 c20 -132 38 -241 39 -243 2
-2 123 -25 268 -52 l264 -48 -60 -27 c-33 -15 -142 -63 -243 -108 l-182 -80 6
-52 c4 -28 19 -139 34 -246 15 -107 25 -197 23 -200 -2 -2 -86 78 -186 178
l-183 182 -243 -105 c-134 -58 -245 -104 -246 -103 -2 2 55 102 126 223 l129
219 -187 188 c-103 104 -181 188 -172 188 8 0 127 -22 264 -50 137 -27 250
-50 251 -50 1 0 58 99 126 219 67 121 126 216 129 213 3 -4 23 -115 43 -246z"/>
<path fill="#000000" stroke="none" d="M7920 2059 c0 -25 -70 -512 -74 -516
-3 -3 -103 -25 -223 -49 -367 -74 -331 -64 -303 -79 14 -7 124 -54 245 -105
121 -50 223 -95 227 -98 4 -4 -9 -121 -28 -261 -19 -140 -32 -256 -30 -258 2
-2 89 84 193 191 l189 196 254 -110 c139 -61 255 -109 257 -107 1 2 -58 107
-132 233 l-134 229 197 198 c164 165 192 198 167 193 -16 -3 -140 -28 -275
-55 -135 -27 -248 -47 -252 -45 -4 3 -64 100 -134 217 -120 200 -144 238 -144
226z"/>
<path fill="#ffffff" stroke="none" d="M8070 1805 c62 -104 116 -193 119 -198
4 -4 119 15 256 43 137 27 256 50 264 50 9 0 -69 -84 -172 -188 l-187 -188
129 -219 c71 -121 128 -221 126 -223 -1 -1 -112 45 -246 104 l-244 105 -183
-187 c-100 -103 -184 -185 -185 -183 -2 2 11 114 30 248 18 134 31 246 29 249
-4 3 -137 60 -456 194 -21 9 17 19 239 64 145 30 266 55 268 57 1 2 17 109 34
238 17 129 33 240 35 248 6 18 3 23 144 -214z"/>
<path fill="#000000" stroke="none" d="M6681 1969 c-20 -52 -143 -314 -150
-322 -4 -4 -97 -19 -206 -33 -110 -14 -201 -26 -202 -28 -2 -2 49 -27 114 -56
65 -29 150 -68 190 -86 53 -24 74 -39 78 -56 3 -13 19 -94 35 -182 16 -87 32
-161 34 -164 3 -3 10 6 15 19 5 13 41 90 79 171 67 140 72 147 104 153 18 3
109 17 203 31 93 13 171 26 173 28 1 2 -79 38 -180 81 -101 42 -187 81 -192
85 -4 4 -23 90 -42 191 -19 100 -36 184 -39 187 -2 3 -9 -6 -14 -19z"/>
<path fill="#ffffff" stroke="none" d="M6755 1633 c5 -30 12 -34 180 -105 96
-40 175 -75 175 -78 0 -3 -75 -16 -167 -30 -93 -13 -178 -26 -191 -29 -17 -5
-38 -39 -93 -156 -39 -83 -74 -153 -78 -157 -4 -4 -21 69 -38 164 -19 98 -38
175 -45 179 -7 5 -86 41 -175 81 -90 40 -160 75 -155 78 4 4 88 17 187 29 99
12 182 25 186 29 3 4 19 39 37 77 17 39 50 111 73 160 l41 90 29 -150 c15 -82
31 -164 34 -182z"/>
<path fill="#000000" stroke="none" d="M2004 1749 l-120 -79 -139 60 c-76 33
-140 58 -142 57 -2 -2 4 -68 12 -147 8 -80 11 -146 6 -149 -120 -78 -230 -155
-227 -159 3 -2 63 -31 133 -64 70 -32 132 -63 136 -67 4 -4 15 -70 23 -146 8
-76 16 -140 17 -142 2 -1 57 34 123 78 65 44 122 83 125 85 4 2 66 -26 139
-61 73 -36 134 -64 136 -62 2 2 -3 68 -11 147 -8 79 -14 144 -13 145 2 1 56
39 121 85 89 63 115 85 104 92 -8 4 -68 31 -134 59 -65 27 -122 54 -126 58 -4
4 -15 70 -23 146 -8 76 -15 140 -17 141 -2 2 -57 -33 -123 -77z"/>
<path fill="#ffffff" stroke="none" d="M2124 1783 c2 -16 7 -59 11 -98 3 -38
8 -89 11 -112 l6 -42 122 -51 c66 -29 127 -56 135 -60 10 -5 -21 -32 -103 -90
-64 -45 -116 -85 -116 -89 0 -3 7 -64 14 -136 8 -71 12 -132 10 -135 -3 -2
-62 24 -131 59 l-126 62 -120 -80 c-66 -45 -122 -79 -125 -77 -2 3 -11 65 -18
137 -8 73 -16 134 -18 137 -3 2 -62 31 -132 63 -71 33 -130 61 -132 64 -2 2
45 36 105 76 59 39 111 75 116 78 4 4 1 68 -7 142 -8 73 -12 136 -10 138 2 2
64 -21 136 -52 l133 -57 110 74 c60 41 113 75 117 75 3 1 9 -11 12 -26z"/>
<path fill="#000000" stroke="none" d="M260 1368 c0 -2 47 -114 105 -248 l105
-243 -145 -230 c-80 -127 -143 -232 -141 -234 1 -2 110 47 242 108 131 61 246
111 254 111 8 1 114 -62 234 -140 121 -78 221 -141 223 -139 1 2 -44 113 -102
247 l-105 243 145 230 c80 127 143 232 141 234 -1 2 -115 -46 -251 -107 l-249
-110 -215 134 c-242 149 -241 149 -241 144z"/>
<path fill="#ffffff" stroke="none" d="M560 1175 c68 -42 131 -80 140 -85 14
-7 75 16 255 95 131 58 239 105 241 105 2 0 -55 -93 -126 -206 -72 -114 -135
-214 -140 -224 -7 -13 15 -74 90 -249 55 -128 100 -234 100 -236 0 -3 -78 46
-172 107 -95 61 -193 124 -219 140 l-45 29 -238 -111 c-132 -60 -240 -110
-242 -110 -2 0 55 93 126 206 72 114 135 214 140 224 7 13 -15 74 -90 249 -55
128 -100 234 -100 237 0 2 36 -18 79 -45 44 -28 134 -84 201 -126z"/>
<path fill="#000000" stroke="none" d="M5740 1183 c-33 -158 -49 -226 -57
-233 -4 -4 -70 -28 -145 -55 -76 -26 -138 -48 -138 -50 0 -2 203 -163 222
-176 5 -3 -5 -70 -22 -149 -17 -78 -29 -145 -27 -147 2 -2 66 19 142 47 81 29
143 46 149 41 6 -4 58 -45 115 -90 57 -45 106 -80 108 -78 2 2 16 64 32 136
16 73 33 136 38 140 4 5 70 29 146 56 75 26 137 48 137 50 0 1 -48 42 -107 90
-60 49 -111 91 -116 95 -4 3 7 68 23 144 17 77 29 141 27 143 -2 2 -66 -19
-142 -47 -117 -42 -141 -48 -154 -37 -32 27 -186 153 -203 165 -15 12 -18 7
-28 -45z"/>
<path fill="#ffffff" stroke="none" d="M5875 1130 c44 -36 87 -71 96 -78 13
-10 39 -4 140 33 68 24 129 45 135 45 7 0 0 -48 -18 -132 l-29 -133 38 -32
c21 -18 70 -59 110 -90 40 -32 72 -60 72 -63 1 -3 -62 -27 -138 -53 l-140 -49
-15 -66 c-8 -37 -20 -94 -27 -127 -7 -33 -15 -63 -19 -68 -3 -4 -55 31 -115
78 -59 47 -109 85 -110 85 -2 0 -58 -20 -126 -45 -68 -25 -129 -45 -135 -45
-8 0 -2 44 17 133 16 72 29 135 29 138 0 3 -50 46 -112 94 l-111 88 138 48
c76 27 140 50 141 52 2 2 15 59 29 127 15 69 28 131 31 139 5 15 -4 21 119
-79z"/>
</g>
</svg>
