<?xml version="1.0" standalone="no"?>
<!DOCTYPE svg PUBLIC "-//W3C//DTD SVG 20010904//EN"
 "http://www.w3.org/TR/2001/REC-SVG-20010904/DTD/svg10.dtd">
<svg version="1.0" xmlns="http://www.w3.org/2000/svg"
 width="1010.000000pt" height="770.000000pt" viewBox="0 0 1010.000000 770.000000"
 preserveAspectRatio="xMidYMid meet">
<metadata>
Created by potrace 1.16, written by Peter Selinger 2001-2019
</metadata>
<g transform="translate(0.000000,770.000000) scale(0.100000,-0.100000)"
fill="#000000" stroke="none">
<path fill="#000000" stroke="none" d="M0 3850 l0 -3850 5050 0 5050 0 0 3850
0 3850 -5050 0 -5050 0 0 -3850z"/>
<path fill="#ffffff" stroke="none" d="M10090 4294 l0 -3396 -35 31 c-52 45
-106 70 -211 96 -51 13 -139 37 -196 54 -298 86 -678 131 -1096 131 -316 -1
-555 -17 -1247 -85 -546 -54 -615 -59 -865 -58 -171 0 -261 4 -330 16 -146 25
-281 71 -330 112 -37 32 -58 28 -140 -24 -285 -183 -659 -216 -1277 -110 -200
34 -590 115 -998 208 -127 29 -454 89 -605 111 -41 6 -87 13 -101 16 l-25 5
63 186 c127 376 172 580 180 823 10 280 -38 497 -150 685 -182 307 -363 494
-642 665 -220 135 -577 259 -910 315 -136 23 -150 24 -172 10 -19 -13 -24 -23
-21 -53 3 -36 5 -37 127 -100 69 -35 159 -87 200 -115 106 -72 250 -221 355
-368 101 -140 215 -259 302 -316 68 -43 296 -243 350 -306 126 -148 160 -393
128 -932 -6 -105 -32 -395 -40 -443 l-5 -32 -87 6 c-48 4 -88 7 -89 8 -1 0 7
64 17 141 67 509 41 782 -102 1058 -73 141 -151 184 -410 227 -220 37 -304 65
-417 143 -118 81 -271 258 -376 435 -26 46 -57 88 -68 93 -29 16 -63 3 -77
-31 -20 -49 -15 -316 8 -425 52 -245 185 -431 369 -519 43 -21 104 -51 136
-67 31 -16 118 -52 193 -79 75 -27 155 -60 179 -74 57 -34 130 -117 167 -190
33 -66 81 -187 76 -192 -2 -2 -24 31 -48 73 -25 41 -68 99 -95 128 -74 76
-115 87 -318 86 -190 -2 -246 7 -344 53 -98 47 -171 102 -280 213 -105 105
-131 115 -161 57 -15 -29 6 -159 44 -273 50 -152 160 -288 279 -347 62 -30
256 -80 365 -93 157 -20 208 -47 286 -154 47 -63 151 -264 142 -273 -3 -2 -47
-11 -99 -19 -52 -8 -128 -21 -169 -30 -333 -70 -699 -258 -945 -486 -33 -30
-91 -78 -130 -105 -191 -134 -346 -273 -404 -361 l-31 -46 0 3656 0 3657 5040
0 5040 0 0 -3396z"/>
<path fill="#ffffff" stroke="none" d="M1263 3980 c184 -42 237 -56 347 -91
508 -166 850 -446 1085 -891 107 -205 140 -515 86 -828 -33 -191 -169 -632
-298 -962 -24 -60 -36 -73 -29 -28 7 40 29 264 46 455 53 626 35 965 -62 1147
-48 90 -291 325 -431 418 -94 62 -171 143 -302 320 -156 209 -244 291 -444
417 -86 54 -86 63 2 43z"/>
<path fill="#ffffff" stroke="none" d="M897 3357 c101 -167 261 -341 391 -427
125 -82 210 -110 462 -150 132 -22 215 -52 263 -98 63 -60 146 -266 173 -432
23 -135 14 -425 -21 -675 -14 -104 -29 -212 -32 -239 -7 -56 -18 -44 -27 29
-57 503 -154 811 -301 961 -70 71 -123 101 -284 156 -64 21 -138 52 -166 67
-27 15 -76 38 -108 50 -179 72 -309 232 -367 451 -23 89 -41 360 -24 360 5 0
23 -24 41 -53z"/>
<path fill="#ffffff" stroke="none" d="M952 2300 c63 -46 165 -96 239 -116 50
-14 105 -18 254 -18 244 -1 237 2 346 -156 99 -144 149 -353 164 -685 l6 -130
-36 95 c-108 288 -192 443 -289 533 -53 49 -142 85 -241 97 -49 6 -115 18
-145 27 -30 8 -83 21 -118 29 -173 37 -314 190 -367 399 -29 114 -25 117 64
32 44 -42 99 -90 123 -107z"/>
<path fill="#ffffff" stroke="none" d="M2082 1295 c4 -32 9 -82 11 -110 4 -59
14 -82 29 -67 6 6 18 61 27 124 l17 113 130 -3 c71 -2 133 -7 137 -12 5 -4 3
-52 -3 -106 -34 -277 -34 -264 -17 -264 15 0 25 21 112 258 23 63 43 102 52
102 30 0 357 -52 503 -80 85 -16 270 -55 410 -85 441 -97 530 -115 715 -150
360 -67 526 -86 748 -85 320 0 555 58 732 180 33 23 49 29 58 21 29 -23 137
-70 209 -90 259 -73 554 -70 1393 14 760 75 1109 94 1445 76 245 -13 407 -31
571 -61 124 -23 379 -90 379 -101 0 -3 -165 -9 -367 -13 -449 -8 -1461 -34
-1598 -41 -55 -2 -255 -7 -445 -10 -190 -4 -372 -8 -405 -10 -33 -2 -204 -7
-380 -10 -308 -6 -783 -17 -2160 -50 -110 -3 -432 -9 -715 -15 -283 -5 -567
-12 -630 -15 -63 -3 -288 -7 -500 -10 -212 -3 -398 -8 -415 -10 -16 -2 -354
-7 -750 -10 -396 -3 -741 -8 -768 -11 -26 -2 -47 -2 -47 1 0 20 160 156 272
233 278 188 567 294 936 343 79 10 95 10 103 -2 5 -8 30 -80 56 -162 36 -111
52 -147 63 -144 8 2 14 7 14 13 -1 5 -5 78 -9 162 l-7 153 44 -3 43 -3 7 -60z"/>
<path fill="#ffffff" stroke="none" d="M9962 934 c17 -9 53 -37 80 -61 l48
-46 0 -408 0 -409 -5041 0 -5041 0 4 132 c3 126 5 136 35 193 54 106 151 205
327 336 l79 59 23 -21 c23 -21 29 -22 156 -16 73 4 287 7 474 7 318 1 985 12
1534 25 129 3 451 10 715 15 264 5 588 12 720 15 132 3 530 12 885 20 707 16
1355 32 1665 40 110 3 391 10 625 15 234 6 697 17 1030 25 333 8 709 17 835
20 730 16 750 17 773 31 12 8 22 21 22 29 0 19 13 19 52 -1z"/>
<path fill="#000000" stroke="none" d="M7540 7530 c-13 -13 -20 -33 -20 -60 0
-49 27 -80 70 -80 43 0 70 31 70 80 0 49 -27 80 -70 80 -17 0 -39 -9 -50 -20z"/>
<path fill="#000000" stroke="none" d="M2730 7470 c-13 -13 -20 -33 -20 -60 0
-49 27 -80 70 -80 43 0 70 31 70 80 0 49 -27 80 -70 80 -17 0 -39 -9 -50 -20z"/>
<path fill="#000000" stroke="none" d="M4766 7448 c-36 -51 -8 -118 49 -118
24 0 39 7 49 22 36 51 8 118 -49 118 -24 0 -39 -7 -49 -22z"/>
<path fill="#000000" stroke="none" d="M3375 7405 c-19 -18 -25 -35 -25 -65 0
-56 34 -90 90 -90 56 0 90 34 90 90 0 56 -34 90 -90 90 -30 0 -47 -6 -65 -25z"/>
<path fill="#000000" stroke="none" d="M9620 7416 c-28 -35 11 -93 48 -70 35
22 22 84 -18 84 -10 0 -23 -7 -30 -14z"/>
<path fill="#000000" stroke="none" d="M3867 7382 c-23 -25 -22 -85 1 -105 25
-23 85 -22 105 1 23 25 22 85 -1 105 -25 23 -85 22 -105 -1z"/>
<path fill="#000000" stroke="none" d="M6892 7388 c-28 -28 -3 -72 39 -66 30
4 47 33 33 56 -14 21 -55 27 -72 10z"/>
<path fill="#000000" stroke="none" d="M4291 7369 c-41 -18 -43 -21 -37 -52 3
-17 8 -108 12 -202 12 -314 -29 -594 -163 -1092 -25 -95 -49 -173 -52 -173 -4
0 -13 17 -20 38 -34 96 -167 350 -249 472 -307 462 -762 783 -1209 854 -435
69 -767 -80 -857 -383 -9 -30 -16 -71 -16 -92 0 -51 -8 -69 -32 -69 -11 0 -68
-16 -125 -35 -565 -189 -993 -737 -993 -1270 0 -177 31 -307 111 -470 102
-210 265 -382 527 -558 163 -110 422 -231 559 -262 308 -69 320 -71 503 -86
275 -22 528 27 805 156 44 20 111 46 150 57 96 27 177 72 230 129 24 26 86 76
137 111 293 199 677 547 851 769 36 46 61 69 81 73 22 5 27 10 23 26 -11 42
218 204 395 279 94 40 255 91 288 91 42 0 35 -339 -10 -572 -76 -383 -262
-680 -468 -747 -422 -138 -757 -425 -1023 -876 -143 -242 -290 -602 -378 -923
-28 -102 -21 -115 80 -147 189 -60 400 -104 597 -125 138 -15 393 -8 516 14
49 9 91 15 93 13 9 -10 -252 -112 -356 -140 -109 -29 -127 -30 -306 -31 -149
-1 -210 3 -283 18 -90 18 -93 18 -113 0 -13 -12 -19 -28 -17 -48 3 -26 11 -35
58 -58 56 -27 292 -115 500 -186 446 -153 732 -213 1123 -237 137 -8 260 -22
322 -35 55 -11 195 -41 310 -66 116 -25 329 -70 475 -99 146 -30 343 -70 439
-90 160 -33 176 -34 197 -20 31 20 32 65 2 92 -13 11 -108 77 -213 148 -104
70 -194 132 -200 137 -7 7 61 9 192 6 229 -5 243 -2 243 57 0 40 6 36 -234
175 l-178 104 28 20 c170 125 439 249 640 296 311 73 701 50 1111 -66 68 -19
129 -34 137 -34 32 0 191 -132 346 -288 219 -219 273 -264 313 -260 21 2 36
11 46 29 14 25 10 34 -82 217 -54 106 -97 195 -97 200 0 4 100 -7 223 -25 122
-18 232 -31 245 -28 26 6 43 43 35 73 -3 13 -60 54 -154 113 -83 50 -148 93
-147 95 2 2 118 -1 257 -6 164 -6 261 -6 272 1 22 11 34 49 24 78 -6 19 -68
47 -397 184 -43 18 -77 36 -75 40 1 4 72 40 158 80 86 40 164 78 173 86 24 20
20 67 -6 85 -18 13 -58 16 -208 17 -102 1 -197 4 -212 8 -27 6 -23 11 127 168
131 136 155 166 155 192 0 21 -7 35 -24 47 -24 15 -34 13 -198 -35 -95 -27
-174 -48 -176 -46 -2 1 35 64 82 138 47 74 88 146 91 160 8 29 -23 67 -54 67
-19 0 -24 -4 -218 -161 -226 -184 -427 -316 -593 -391 -72 -33 -229 -68 -420
-95 -176 -24 -527 -24 -665 1 -173 31 -370 103 -490 179 -122 76 -288 222
-386 338 l-38 46 57 -9 c68 -11 201 -56 372 -128 152 -63 245 -95 341 -115 63
-13 75 -14 94 -1 28 18 36 48 21 76 -6 11 -94 71 -196 133 -298 180 -429 262
-430 267 0 3 86 50 191 105 265 138 251 128 247 173 -2 28 -9 40 -28 48 -14 7
-142 20 -285 29 -143 10 -261 18 -262 20 -2 1 103 86 232 189 129 103 237 196
240 206 3 10 0 30 -7 45 l-12 28 -86 -6 c-47 -3 -197 -20 -334 -37 -137 -17
-250 -29 -252 -28 -1 2 20 113 47 247 28 136 48 254 44 268 -8 32 -45 49 -75
33 -19 -10 -247 -198 -288 -237 -26 -25 -83 -66 -86 -62 -1 2 -13 60 -26 129
-82 443 -110 574 -128 588 -18 14 -51 16 -70 4 -7 -5 -46 -89 -88 -188 -41
-98 -79 -183 -83 -187 -5 -5 -41 81 -81 190 -40 109 -86 231 -101 272 -16 41
-26 77 -23 80 8 9 142 20 250 20 l100 1 22 51 21 52 -118 117 c-134 133 -251
229 -320 265 -117 59 -261 74 -387 41 -88 -23 -85 -25 -78 52 9 94 -13 298
-42 401 -33 114 -88 226 -173 351 -81 120 -260 340 -275 339 -6 0 -31 -9 -55
-20z"/>
<path fill="#ffffff" stroke="none" d="M4442 7166 c132 -167 142 -185 139
-263 -8 -256 -81 -555 -186 -763 -34 -67 -40 -111 -14 -94 13 7 79 147 115
243 55 145 114 441 114 574 0 65 13 54 60 -47 71 -154 84 -224 85 -451 l0
-200 -99 -128 c-75 -99 -96 -131 -86 -140 9 -9 15 -7 26 8 8 11 46 61 84 110
66 86 74 92 140 118 212 82 339 72 510 -39 36 -23 76 -54 89 -68 l24 -26 -24
0 c-13 0 -62 7 -109 15 -183 34 -293 17 -431 -65 -126 -75 -266 -201 -221
-200 4 0 39 26 77 57 168 135 287 192 400 193 33 0 116 -9 185 -20 69 -12 134
-19 145 -16 15 4 39 -14 98 -72 42 -42 77 -81 77 -87 0 -6 -48 -11 -123 -13
-390 -9 -733 -137 -1010 -375 -61 -53 -70 -57 -85 -45 -178 151 -332 293 -332
307 0 10 11 55 25 102 38 125 100 366 134 514 74 327 95 511 90 794 -4 172 -2
198 10 188 8 -7 50 -57 93 -111z"/>
<path fill="#ffffff" stroke="none" d="M2434 7083 c3 -42 6 -136 6 -210 l0
-133 -68 0 c-38 0 -110 -3 -160 -6 l-92 -7 0 201 0 200 73 12 c39 6 79 13 87
15 8 1 45 3 81 4 l66 1 7 -77z"/>
<path fill="#ffffff" stroke="none" d="M2588 7134 c102 -20 235 -62 243 -76 4
-7 8 -97 9 -201 1 -177 0 -188 -17 -183 -58 18 -171 40 -253 50 l-95 11 -5
200 c-3 110 -4 203 -2 208 5 11 35 9 120 -9z"/>
<path fill="#ffffff" stroke="none" d="M2088 6724 c-4 -3 -301 -64 -314 -64
-11 0 -2 95 16 151 36 118 116 211 232 271 l53 27 8 -190 c5 -105 7 -192 5
-195z"/>
<path fill="#ffffff" stroke="none" d="M2993 6988 c55 -29 137 -78 181 -108
l81 -55 3 -172 c1 -95 0 -173 -3 -173 -3 0 -22 11 -43 24 -58 36 -168 90 -252
122 -41 15 -78 33 -82 39 -13 17 -10 375 3 375 6 0 57 -24 112 -52z"/>
<path fill="#ffffff" stroke="none" d="M3358 6738 c97 -88 221 -222 259 -281
13 -21 32 -46 41 -55 56 -56 208 -319 270 -467 50 -119 48 -122 -29 -34 -128
149 -361 372 -481 463 l-118 89 0 81 c0 45 -3 118 -7 164 -4 60 -3 82 6 82 6
0 33 -19 59 -42z"/>
<path fill="#ffffff" stroke="none" d="M2617 6684 c272 -39 548 -165 810 -369
56 -43 170 -148 255 -234 178 -181 216 -223 310 -347 50 -67 114 -131 243
-243 96 -84 175 -158 175 -164 0 -43 -350 -404 -560 -578 -146 -121 -357 -279
-372 -279 -2 0 -4 46 -4 103 -1 107 -25 203 -77 306 -22 44 -23 45 -147 87
-143 50 -344 102 -409 106 l-44 3 -3 -80 c-4 -126 -62 -338 -122 -449 l-27
-48 40 -35 c80 -69 169 -127 273 -179 l106 -53 -67 -30 c-99 -44 -233 -88
-344 -113 -163 -37 -457 -29 -705 19 -49 9 -88 19 -88 23 0 4 30 12 67 19 552
102 870 759 722 1492 -53 267 -183 523 -352 697 -114 117 -228 193 -382 255
l-88 35 39 11 c75 21 259 53 348 61 111 10 266 4 403 -16z"/>
<path fill="#ffffff" stroke="none" d="M1865 6578 c311 -102 576 -385 699
-748 100 -295 117 -596 51 -891 -93 -418 -360 -701 -720 -764 -165 -29 -190
-23 -430 95 -265 130 -492 304 -629 483 -31 40 -56 76 -56 80 0 3 23 -17 51
-44 60 -59 135 -109 211 -141 45 -19 72 -22 173 -23 113 0 124 2 192 31 193
84 347 236 476 472 37 67 43 84 31 89 -18 7 -16 10 -49 -57 -75 -149 -226
-329 -342 -406 -120 -80 -264 -116 -380 -97 -83 15 -192 68 -259 127 -104 92
-218 279 -244 401 -28 129 -6 398 42 514 l14 34 2 -69 c3 -84 15 -124 47 -154
20 -18 31 -22 62 -17 51 9 83 34 115 93 88 162 33 392 -87 370 l-35 -7 19 32
c42 68 149 195 229 270 182 170 415 297 632 344 70 15 93 13 185 -17z"/>
<path fill="#ffffff" stroke="none" d="M902 5890 c23 -32 37 -117 28 -167 -5
-25 -8 -30 -9 -14 -1 23 -2 23 -20 7 -10 -9 -25 -14 -35 -10 -35 14 -32 102 5
111 25 7 20 24 -14 43 -21 12 -32 12 -57 3 -34 -13 -33 -6 4 35 27 30 72 26
98 -8z"/>
<path fill="#ffffff" stroke="none" d="M5379 5375 c120 -331 148 -400 163
-403 11 -2 40 57 108 218 52 121 97 217 100 213 4 -5 21 -84 39 -178 59 -316
107 -539 118 -542 8 -3 119 80 143 107 28 32 255 210 258 202 1 -5 -20 -121
-48 -257 -27 -135 -50 -248 -50 -251 0 -9 80 -2 360 31 161 20 294 34 296 32
2 -2 -24 -26 -58 -53 -35 -27 -70 -54 -78 -61 -60 -50 -349 -279 -367 -290
-36 -24 -28 -41 20 -47 23 -3 159 -13 302 -22 143 -8 267 -18 275 -20 16 -6
-11 -22 -267 -156 -95 -49 -173 -96 -173 -103 0 -7 135 -95 300 -196 164 -101
298 -185 296 -187 -8 -7 -129 34 -276 95 -85 36 -189 76 -230 89 -76 25 -229
54 -286 54 -27 0 -38 10 -90 83 -255 356 -524 557 -850 633 -63 15 -119 19
-271 19 l-192 0 29 25 c194 172 355 627 361 1018 1 57 5 100 9 95 5 -4 31 -71
59 -148z"/>
<path fill="#ffffff" stroke="none" d="M2954 5019 c50 -11 160 -43 244 -71
147 -48 153 -51 171 -86 27 -53 75 -201 68 -208 -4 -4 -555 182 -623 210 -1 1
3 40 9 89 8 64 15 87 25 87 8 0 56 -9 106 -21z"/>
<path fill="#ffffff" stroke="none" d="M3133 4719 l317 -112 0 -47 c0 -60 -23
-126 -59 -169 l-28 -34 -114 50 c-63 28 -199 88 -304 133 -104 46 -192 84
-194 86 -5 4 53 204 59 204 3 0 148 -50 323 -111z"/>
<path fill="#ffffff" stroke="none" d="M3028 4469 c152 -66 281 -125 286 -129
11 -11 -56 -45 -127 -63 -50 -13 -65 -13 -119 -1 -73 17 -164 65 -270 141
-113 82 -114 82 -88 132 11 23 25 41 31 41 6 0 135 -54 287 -121z"/>
<path fill="#ffffff" stroke="none" d="M5305 4324 c131 -21 281 -74 380 -132
155 -91 290 -221 500 -482 236 -292 342 -403 491 -517 188 -142 411 -232 664
-268 215 -30 598 -14 840 35 168 34 261 23 352 -45 156 -115 197 -369 81 -504
-20 -24 -55 -52 -76 -61 -36 -16 -45 -17 -86 -4 -90 28 -287 76 -387 94 -242
45 -557 51 -744 15 -232 -44 -486 -153 -762 -328 -137 -87 -137 -87 -465 -198
-180 -61 -393 -134 -473 -162 l-145 -52 -195 0 c-107 1 -242 7 -300 14 -285
35 -692 146 -1084 295 l-89 33 164 6 c151 6 206 14 329 46 274 73 588 258 838
495 74 71 82 74 82 36 0 -17 -7 -44 -15 -59 -13 -27 -11 -41 6 -41 16 0 39 59
39 99 0 22 -5 52 -12 66 -21 47 -92 68 -152 45 -43 -16 -32 -34 17 -27 50 7
87 0 87 -17 0 -24 -190 -151 -311 -209 -286 -138 -648 -177 -1024 -111 -90 16
-320 71 -405 98 -44 13 -45 15 -43 52 2 46 96 334 160 489 194 470 431 801
745 1038 157 118 443 241 623 267 64 9 303 6 370 -6z"/>
<path fill="#ffffff" stroke="none" d="M9104 3453 c-15 -27 -40 -66 -54 -88
-15 -22 -39 -60 -55 -85 -15 -25 -37 -58 -48 -73 -36 -54 -11 -52 209 12 115
33 209 59 211 58 3 -3 -90 -102 -233 -249 -63 -64 -114 -124 -114 -132 0 -14
29 -16 240 -16 132 0 240 -4 240 -8 0 -4 -28 -21 -62 -36 -213 -97 -318 -151
-315 -160 2 -6 91 -47 198 -91 107 -45 219 -93 249 -108 l55 -26 -45 4 c-25 2
-172 7 -327 11 -238 6 -283 4 -283 -7 0 -8 15 -23 34 -34 138 -82 375 -229
372 -232 -3 -3 -398 52 -441 62 -55 12 -50 -8 54 -210 56 -109 99 -200 96
-203 -2 -3 -87 77 -187 178 -162 161 -232 223 -318 282 l-25 17 25 17 c81 58
120 134 127 244 9 134 -35 248 -127 334 -50 47 -119 85 -152 86 -31 0 -19 19
25 38 135 60 380 221 565 373 59 48 108 88 110 88 2 1 -9 -20 -24 -46z"/>
<path fill="#ffffff" stroke="none" d="M6642 1918 c97 -57 186 -111 199 -120
23 -15 8 -16 -243 -11 -242 6 -268 5 -268 -10 0 -18 26 -37 308 -227 111 -74
199 -136 197 -138 -4 -4 -246 45 -640 128 -469 100 -663 140 -679 140 -42 0
-3 19 127 63 78 26 149 50 157 52 8 2 159 54 335 114 176 60 323 110 326 110
3 1 85 -45 181 -101z"/>
<path fill="#000000" stroke="none" d="M1339 5921 c-84 -46 -150 -169 -157
-293 -10 -173 74 -250 205 -187 53 26 88 66 126 147 52 112 48 241 -11 311
-23 28 -36 34 -77 37 -36 3 -60 -1 -86 -15z"/>
<path fill="#ffffff" stroke="none" d="M1469 5884 c39 -32 55 -91 47 -168 -6
-55 -47 -166 -62 -166 -3 0 -3 8 1 18 15 36 23 82 14 82 -5 0 -12 -7 -15 -15
-4 -9 -15 -20 -25 -26 -26 -14 -59 21 -59 64 0 74 65 105 85 40 5 -18 13 -33
18 -33 5 0 6 15 2 33 -20 92 -72 135 -139 115 -20 -6 -45 -20 -56 -30 -32 -30
-23 -2 12 38 68 77 125 92 177 48z"/>
<path fill="#000000" stroke="none" d="M4256 3975 c-66 -23 -133 -102 -108
-127 6 -6 17 3 32 27 32 52 74 75 138 75 46 0 58 -4 84 -30 27 -28 30 -36 25
-78 -2 -26 -8 -55 -12 -64 -12 -29 20 -22 33 7 17 36 15 101 -4 136 -17 33
-82 69 -124 68 -14 0 -42 -6 -64 -14z"/>
<path fill="#000000" stroke="none" d="M4055 3732 c-160 -76 -275 -265 -263
-433 9 -118 69 -181 173 -182 186 -3 385 252 361 461 -8 64 -23 97 -65 137
-28 26 -40 30 -99 33 -50 2 -77 -2 -107 -16z"/>
<path fill="#ffffff" stroke="none" d="M4207 3709 l28 -11 -40 -12 c-22 -7
-51 -19 -65 -26 l-25 -14 25 -6 c37 -9 41 -70 6 -105 -45 -45 -93 -24 -84 37
l5 33 -43 -50 c-55 -61 -109 -172 -124 -250 -10 -49 -9 -68 3 -103 18 -51 6
-51 -36 0 -73 90 -32 281 87 407 89 94 185 131 263 100z"/>
<path fill="#000000" stroke="none" d="M4805 3692 c-52 -24 -111 -90 -95 -106
8 -8 18 -2 36 22 34 43 73 62 127 62 118 0 185 -134 128 -253 -25 -51 -26 -57
-7 -57 25 0 61 89 61 150 -1 139 -134 236 -250 182z"/>
<path fill="#000000" stroke="none" d="M4641 3479 c-155 -29 -320 -248 -321
-425 0 -52 24 -121 53 -152 34 -37 71 -52 129 -52 175 0 357 215 358 423 0
153 -83 231 -219 206z"/>
<path fill="#ffffff" stroke="none" d="M4756 3435 c19 -14 18 -14 -3 -15 -13
0 -41 -7 -63 -16 l-40 -16 25 -20 c14 -11 25 -30 25 -43 0 -26 -50 -85 -73
-85 -29 0 -49 31 -43 64 l5 31 -40 -45 c-95 -106 -154 -293 -116 -369 20 -39
7 -40 -32 -1 -33 33 -46 78 -44 153 4 135 105 286 238 355 48 25 132 29 161 7z"/>
<path fill="#000000" stroke="none" d="M1042 7298 c-15 -15 -15 -51 0 -66 7
-7 24 -12 38 -12 31 0 50 17 50 45 0 28 -19 45 -50 45 -14 0 -31 -5 -38 -12z"/>
<path fill="#000000" stroke="none" d="M7960 7254 c-14 -2 -58 -9 -98 -15
-309 -45 -609 -229 -762 -467 -25 -39 -56 -76 -70 -82 -14 -7 -35 -17 -46 -24
-35 -18 -208 -186 -270 -261 -127 -154 -249 -370 -304 -538 l-22 -68 27 -42
c45 -68 160 -200 245 -280 81 -77 307 -245 338 -252 9 -2 57 -20 106 -40 48
-20 137 -49 197 -64 98 -25 113 -32 156 -73 62 -58 119 -90 218 -124 75 -26
90 -28 243 -28 98 0 167 5 173 11 7 7 -5 41 -40 111 -28 55 -51 104 -51 109 0
5 24 17 53 27 189 67 407 222 532 379 20 26 41 47 44 47 4 0 18 -25 31 -57 86
-208 255 -349 472 -394 145 -29 143 -30 167 44 55 166 65 293 32 410 -22 81
-56 133 -139 213 l-63 60 22 20 c42 37 109 141 138 215 40 99 55 201 48 319
-5 85 -31 237 -42 248 -6 7 -104 -28 -193 -69 -165 -76 -314 -202 -399 -337
-23 -37 -45 -66 -49 -65 -3 1 -19 29 -34 62 -37 77 -84 151 -145 226 -49 60
-49 60 -53 145 -4 72 -1 94 18 137 12 28 31 60 43 71 36 34 122 72 209 93 125
31 241 70 231 79 -4 5 -71 40 -148 79 -236 119 -417 167 -655 175 -74 3 -146
3 -160 0z"/>
<path fill="#ffffff" stroke="none" d="M8380 7146 c200 -47 417 -146 320 -146
-33 0 -173 -50 -215 -77 -105 -68 -157 -187 -140 -322 l7 -54 -49 40 c-75 61
-138 102 -216 138 -266 122 -547 121 -874 -5 l-73 -28 13 23 c38 74 171 205
284 284 93 64 283 139 408 160 33 6 71 13 85 15 14 3 97 3 185 1 125 -3 183
-9 265 -29z"/>
<path fill="#ffffff" stroke="none" d="M7885 6755 c223 -60 417 -182 546 -345
73 -92 152 -247 182 -357 17 -64 26 -83 40 -83 9 0 17 6 17 13 1 30 69 187
103 239 76 114 199 217 338 286 110 53 125 57 134 35 4 -10 9 -74 12 -143 5
-107 3 -138 -16 -209 -27 -109 -80 -198 -169 -284 l-70 -67 66 -44 c83 -54
132 -105 168 -176 27 -52 29 -63 29 -175 0 -88 -5 -138 -19 -188 l-19 -68 -41
6 c-198 30 -351 144 -439 325 -25 52 -54 124 -63 160 -10 36 -20 68 -24 73 -3
4 -33 -32 -65 -80 -72 -106 -193 -230 -295 -302 -206 -145 -420 -212 -675
-212 -194 0 -369 37 -531 112 l-65 30 98 103 c207 217 292 400 280 601 -5 88
-44 209 -92 285 -44 71 -150 194 -215 250 -33 29 -60 55 -60 59 0 14 168 89
275 123 131 42 243 58 380 53 74 -2 156 -11 190 -20z"/>
<path fill="#ffffff" stroke="none" d="M7106 6488 c110 -106 169 -183 218
-289 118 -253 41 -511 -238 -788 l-94 -93 -48 33 c-68 45 -242 189 -284 234
l-35 37 35 -7 c100 -22 198 0 268 60 40 33 92 107 92 130 0 25 -12 16 -62 -45
-24 -30 -63 -68 -87 -85 -40 -28 -49 -30 -129 -30 -113 0 -168 25 -231 107
l-43 57 36 93 c47 120 115 245 194 358 66 93 278 320 299 320 7 0 56 -41 109
-92z"/>
<path fill="#ffffff" stroke="none" d="M7940 5070 c22 -44 40 -85 40 -91 0 -8
-31 -10 -107 -7 -136 7 -244 40 -325 100 l-57 43 167 6 c92 4 181 12 197 17
17 6 33 11 37 11 4 1 26 -35 48 -79z"/>
<path fill="#000000" stroke="none" d="M6844 6251 c-37 -23 -66 -80 -72 -143
-4 -37 1 -59 22 -101 28 -58 58 -80 106 -80 120 0 164 211 65 310 -38 38 -74
43 -121 14z"/>
<path fill="#ffffff" stroke="none" d="M6930 6225 c36 -19 39 -34 6 -28 -26 5
-66 -12 -66 -27 0 -6 6 -10 14 -10 17 0 28 -24 20 -45 -9 -22 -42 -18 -49 5
-10 31 -23 24 -31 -15 -7 -42 -24 -47 -24 -7 1 38 33 106 61 126 29 20 33 20
69 1z"/>
<path fill="#000000" stroke="none" d="M5654 7226 c-10 -26 4 -48 28 -44 17 2
23 10 23 28 0 18 -6 26 -23 28 -13 2 -25 -3 -28 -12z"/>
<path fill="#000000" stroke="none" d="M574 7196 c-29 -29 -34 -41 -34 -81 0
-40 5 -52 34 -81 30 -30 40 -34 86 -34 46 0 56 4 86 34 29 29 34 41 34 81 0
40 -5 52 -34 81 -30 30 -40 34 -86 34 -46 0 -56 -4 -86 -34z"/>
<path fill="#000000" stroke="none" d="M9252 7088 c-28 -28 -3 -72 39 -66 30
4 47 33 33 56 -14 21 -55 27 -72 10z"/>
<path fill="#000000" stroke="none" d="M6502 7054 c-50 -35 -17 -114 48 -114
42 0 70 26 70 65 0 39 -28 65 -70 65 -14 0 -36 -7 -48 -16z"/>
<path fill="#000000" stroke="none" d="M3740 7016 c-28 -35 11 -93 48 -70 35
22 22 84 -18 84 -10 0 -23 -7 -30 -14z"/>
<path fill="#000000" stroke="none" d="M5856 6969 c-20 -16 -26 -29 -26 -59 0
-49 35 -80 90 -80 55 0 90 31 90 80 0 49 -35 80 -90 80 -23 0 -48 -8 -64 -21z"/>
<path fill="#000000" stroke="none" d="M1184 6786 c-11 -29 0 -51 26 -51 21 0
25 5 25 30 0 24 -5 31 -23 33 -13 2 -24 -3 -28 -12z"/>
<path fill="#000000" stroke="none" d="M624 6766 c-3 -8 -4 -25 -2 -38 2 -19
9 -23 38 -23 33 0 35 2 35 35 0 32 -3 35 -33 38 -21 2 -34 -2 -38 -12z"/>
<path fill="#000000" stroke="none" d="M204 6736 c-12 -31 0 -51 31 -51 27 0
30 3 30 30 0 25 -4 30 -28 33 -17 2 -29 -2 -33 -12z"/>
<path fill="#000000" stroke="none" d="M9657 6712 c-22 -25 -21 -75 1 -95 25
-22 75 -21 95 1 22 25 21 75 -1 95 -25 22 -75 21 -95 -1z"/>
<path fill="#000000" stroke="none" d="M6496 6674 c-36 -35 -10 -104 39 -104
32 0 55 25 55 60 0 35 -23 60 -55 60 -13 0 -31 -7 -39 -16z"/>
<path fill="#000000" stroke="none" d="M5492 6618 c-7 -7 -12 -21 -12 -33 0
-12 5 -26 12 -33 7 -7 21 -12 33 -12 12 0 26 5 33 12 7 7 12 21 12 33 0 12 -5
26 -12 33 -7 7 -21 12 -33 12 -12 0 -26 -5 -33 -12z"/>
<path fill="#000000" stroke="none" d="M6047 6452 c-23 -25 -22 -85 1 -105 25
-23 85 -22 105 1 23 25 22 85 -1 105 -25 23 -85 22 -105 -1z"/>
<path fill="#000000" stroke="none" d="M350 6424 c-43 -37 -60 -74 -60 -134 0
-60 17 -97 60 -134 64 -53 163 -27 205 55 19 36 19 122 0 158 -42 82 -141 108
-205 55z"/>
<path fill="#000000" stroke="none" d="M5952 6018 c-28 -28 -3 -72 39 -66 30
4 47 33 33 56 -14 21 -55 27 -72 10z"/>
<path fill="#000000" stroke="none" d="M9696 5914 c-36 -35 -10 -104 39 -104
32 0 55 25 55 60 0 35 -23 60 -55 60 -13 0 -31 -7 -39 -16z"/>
<path fill="#000000" stroke="none" d="M9710 5530 c-45 -45 -13 -130 50 -130
41 0 70 31 70 75 0 44 -29 75 -70 75 -17 0 -39 -9 -50 -20z"/>
<path fill="#000000" stroke="none" d="M6486 5288 c-36 -51 -8 -118 49 -118
24 0 39 7 49 22 36 51 8 118 -49 118 -24 0 -39 -7 -49 -22z"/>
<path fill="#000000" stroke="none" d="M9597 5142 c-23 -25 -22 -85 1 -105 44
-40 102 -8 102 55 0 60 -65 92 -103 50z"/>
<path fill="#000000" stroke="none" d="M4435 5085 c-54 -53 -16 -145 60 -145
49 0 85 36 85 85 0 76 -92 114 -145 60z"/>
<path fill="#000000" stroke="none" d="M4792 5067 c-30 -32 -29 -87 1 -115 51
-48 127 -12 127 59 0 70 -82 105 -128 56z"/>
<path fill="#000000" stroke="none" d="M222 5038 c-28 -28 -3 -72 39 -66 30 4
47 33 33 56 -14 21 -55 27 -72 10z"/>
<path fill="#000000" stroke="none" d="M8377 4752 c-23 -25 -22 -85 1 -105 25
-23 85 -22 105 1 23 25 22 85 -1 105 -25 23 -85 22 -105 -1z"/>
<path fill="#000000" stroke="none" d="M9362 4714 c-15 -10 -22 -25 -22 -49 0
-41 29 -65 80 -65 51 0 80 24 80 65 0 41 -29 65 -80 65 -20 0 -46 -7 -58 -16z"/>
<path fill="#000000" stroke="none" d="M4222 4697 c-30 -32 -29 -87 1 -115 51
-48 127 -12 127 59 0 70 -82 105 -128 56z"/>
<path fill="#000000" stroke="none" d="M4496 4678 c-9 -12 -16 -38 -16 -58 0
-51 24 -80 65 -80 41 0 65 29 65 80 0 51 -24 80 -65 80 -24 0 -39 -7 -49 -22z"/>
<path fill="#000000" stroke="none" d="M8144 4646 c-11 -29 0 -51 26 -51 21 0
25 5 25 30 0 24 -5 31 -23 33 -13 2 -24 -3 -28 -12z"/>
<path fill="#000000" stroke="none" d="M237 4562 c-22 -25 -21 -75 1 -95 25
-22 75 -21 95 1 22 25 21 75 -1 95 -25 22 -75 21 -95 -1z"/>
<path fill="#000000" stroke="none" d="M7564 4536 c-12 -31 0 -51 31 -51 27 0
30 3 30 30 0 25 -4 30 -28 33 -17 2 -29 -2 -33 -12z"/>
<path fill="#000000" stroke="none" d="M8856 4508 c-38 -53 -9 -128 49 -128
40 0 65 29 65 75 0 46 -25 75 -65 75 -24 0 -39 -7 -49 -22z"/>
<path fill="#000000" stroke="none" d="M7832 4478 c-7 -7 -12 -24 -12 -38 0
-31 17 -50 45 -50 28 0 45 19 45 50 0 31 -17 50 -45 50 -12 0 -26 -5 -33 -12z"/>
<path fill="#000000" stroke="none" d="M7302 4367 c-30 -32 -29 -87 1 -115 51
-48 127 -12 127 59 0 70 -82 105 -128 56z"/>
<path fill="#000000" stroke="none" d="M3972 4358 c-7 -7 -12 -26 -12 -43 0
-38 16 -55 50 -55 34 0 50 17 50 55 0 38 -16 55 -50 55 -14 0 -31 -5 -38 -12z"/>
<path fill="#000000" stroke="none" d="M8321 4334 c-12 -15 -21 -41 -21 -59 0
-50 33 -85 80 -85 47 0 80 35 80 85 0 50 -33 85 -80 85 -30 0 -43 -6 -59 -26z"/>
<path fill="#000000" stroke="none" d="M8044 4296 c-3 -8 -4 -25 -2 -38 2 -18
9 -23 33 -23 28 0 30 3 30 35 0 31 -3 35 -28 38 -17 2 -29 -2 -33 -12z"/>
<path fill="#000000" stroke="none" d="M7690 4260 c0 -13 7 -20 20 -20 13 0
20 7 20 20 0 13 -7 20 -20 20 -13 0 -20 -7 -20 -20z"/>
<path fill="#000000" stroke="none" d="M8992 4108 c-28 -28 -3 -72 39 -66 30
4 47 33 33 56 -14 21 -55 27 -72 10z"/>
<path fill="#000000" stroke="none" d="M8674 4076 c-12 -31 0 -51 31 -51 27 0
30 3 30 30 0 25 -4 30 -28 33 -17 2 -29 -2 -33 -12z"/>
<path fill="#000000" stroke="none" d="M3566 4014 c-34 -34 -9 -94 39 -94 30
0 55 25 55 55 0 13 -7 31 -16 39 -8 9 -26 16 -39 16 -13 0 -31 -7 -39 -16z"/>
<path fill="#000000" stroke="none" d="M7995 4005 c-56 -55 -18 -155 60 -155
51 0 85 36 85 90 0 81 -89 121 -145 65z"/>
<path fill="#000000" stroke="none" d="M8426 3934 c-34 -34 -9 -94 39 -94 30
0 55 25 55 55 0 30 -25 55 -55 55 -13 0 -31 -7 -39 -16z"/>
<path fill="#000000" stroke="none" d="M7646 3924 c-34 -34 -9 -94 39 -94 30
0 55 25 55 55 0 30 -25 55 -55 55 -13 0 -31 -7 -39 -16z"/>
<path fill="#000000" stroke="none" d="M3347 3909 c-44 -25 -61 -114 -32 -169
18 -35 43 -50 85 -50 42 0 67 15 85 50 29 56 11 145 -34 170 -25 13 -81 12
-104 -1z"/>
<path fill="#000000" stroke="none" d="M8760 3870 c-47 -47 -11 -120 60 -120
49 0 80 27 80 70 0 43 -31 70 -80 70 -27 0 -47 -7 -60 -20z"/>
<path fill="#000000" stroke="none" d="M8004 3736 c-3 -8 -4 -25 -2 -38 2 -19
9 -23 38 -23 33 0 35 2 35 35 0 32 -3 35 -33 38 -21 2 -34 -2 -38 -12z"/>
<path fill="#000000" stroke="none" d="M292 3684 c-69 -48 -69 -180 0 -228 12
-9 41 -16 63 -16 70 0 115 51 115 130 0 79 -45 130 -115 130 -22 0 -51 -7 -63
-16z"/>
<path fill="#000000" stroke="none" d="M8366 3644 c-36 -35 -10 -104 39 -104
32 0 55 25 55 60 0 35 -23 60 -55 60 -13 0 -31 -7 -39 -16z"/>
<path fill="#000000" stroke="none" d="M7797 3492 c-23 -25 -22 -85 1 -105 25
-23 85 -22 105 1 23 25 22 85 -1 105 -25 23 -85 22 -105 -1z"/>
<path fill="#000000" stroke="none" d="M3198 3267 c-34 -29 -48 -58 -48 -102
0 -74 49 -125 120 -125 48 0 85 22 106 61 30 58 11 139 -40 173 -37 24 -105
21 -138 -7z"/>
<path fill="#000000" stroke="none" d="M322 2917 c-30 -32 -29 -87 1 -115 51
-48 127 -12 127 59 0 70 -82 105 -128 56z"/>
<path fill="#000000" stroke="none" d="M196 2399 c-58 -46 -19 -139 59 -139
50 0 85 33 85 80 0 47 -35 80 -85 80 -18 0 -44 -9 -59 -21z"/>
<path fill="#000000" stroke="none" d="M7356 2038 c-9 -12 -16 -38 -16 -58 0
-51 24 -80 65 -80 41 0 65 29 65 80 0 51 -24 80 -65 80 -24 0 -39 -7 -49 -22z"/>
<path fill="#000000" stroke="none" d="M8276 1968 c-36 -51 -9 -128 44 -128
35 0 60 31 60 75 0 44 -25 75 -60 75 -18 0 -34 -8 -44 -22z"/>
<path fill="#000000" stroke="none" d="M724 1916 c-3 -8 -4 -25 -2 -38 2 -19
9 -23 38 -23 33 0 35 2 35 35 0 32 -3 35 -33 38 -21 2 -34 -2 -38 -12z"/>
<path fill="#000000" stroke="none" d="M3142 1828 c-7 -7 -12 -24 -12 -38 0
-34 17 -50 55 -50 38 0 55 16 55 50 0 34 -17 50 -55 50 -17 0 -36 -5 -43 -12z"/>
<path fill="#000000" stroke="none" d="M176 1758 c-36 -51 -8 -118 49 -118 57
0 85 67 49 118 -10 15 -25 22 -49 22 -24 0 -39 -7 -49 -22z"/>
<path fill="#000000" stroke="none" d="M7817 1682 c-23 -25 -22 -85 1 -105 41
-37 92 -7 92 55 0 59 -57 90 -93 50z"/>
<path fill="#000000" stroke="none" d="M3516 1554 c-36 -35 -10 -104 39 -104
32 0 55 25 55 60 0 35 -23 60 -55 60 -13 0 -31 -7 -39 -16z"/>
<path fill="#000000" stroke="none" d="M3927 1552 c-23 -25 -22 -85 1 -105 25
-23 85 -22 105 1 23 25 22 85 -1 105 -25 23 -85 22 -105 -1z"/>
<path fill="#000000" stroke="none" d="M4414 1496 c-3 -8 -4 -25 -2 -38 2 -18
9 -23 33 -23 28 0 30 3 30 35 0 31 -3 35 -28 38 -17 2 -29 -2 -33 -12z"/>
<path fill="#000000" stroke="none" d="M677 1469 c-44 -25 -61 -114 -32 -169
18 -35 43 -50 85 -50 42 0 67 15 85 50 29 56 11 145 -34 170 -25 13 -81 12
-104 -1z"/>
<path fill="#000000" stroke="none" d="M7391 1451 c-27 -50 -3 -105 44 -99 36
4 54 43 39 86 -12 35 -67 44 -83 13z"/>
<path fill="#000000" stroke="none" d="M4906 1298 c-36 -51 -9 -128 44 -128
35 0 60 31 60 75 0 44 -25 75 -60 75 -18 0 -34 -8 -44 -22z"/>
<path fill="#000000" stroke="none" d="M4201 1246 c-31 -37 9 -103 47 -80 36
23 23 94 -18 94 -10 0 -23 -6 -29 -14z"/>
</g>
</svg>
