<?xml version="1.0" standalone="no"?>
<!DOCTYPE svg PUBLIC "-//W3C//DTD SVG 20010904//EN"
 "http://www.w3.org/TR/2001/REC-SVG-20010904/DTD/svg10.dtd">
<svg version="1.0" xmlns="http://www.w3.org/2000/svg"
 width="502.000000pt" height="439.000000pt" viewBox="0 0 502.000000 439.000000"
 preserveAspectRatio="xMidYMid meet">
<metadata>
Created by potrace 1.16, written by Peter Selinger 2001-2019
</metadata>
<g transform="translate(0.000000,439.000000) scale(0.100000,-0.100000)"
fill="#000000" stroke="none">
<path fill="#000000" stroke="none" d="M0 2195 l0 -2195 2510 0 2510 0 0 2195
0 2195 -2510 0 -2510 0 0 -2195z"/>
<path fill="#ffffff" stroke="none" d="M5010 2195 l0 -2185 -2500 0 -2500 0 0
2185 0 2185 2500 0 2500 0 0 -2185z"/>
<path fill="#000000" stroke="none" d="M1400 4249 c-48 -19 -70 -49 -70 -95
l0 -43 -31 11 c-46 16 -123 5 -168 -25 -51 -34 -68 -81 -47 -131 l15 -36 -34
-14 c-55 -24 -77 -68 -73 -152 3 -60 8 -77 32 -109 16 -21 43 -45 59 -54 17
-9 48 -34 69 -56 l38 -40 -36 -15 -35 -15 -92 91 c-71 69 -110 99 -167 127
-147 72 -297 70 -335 -4 -38 -72 -3 -182 70 -225 61 -35 94 -43 230 -54 66 -6
134 -15 151 -20 l31 -11 -4 -92 c-5 -87 -3 -95 24 -147 17 -32 47 -68 72 -87
l43 -33 -264 2 c-241 2 -270 0 -350 -20 -118 -29 -197 -71 -266 -141 -96 -97
-142 -217 -142 -367 0 -101 22 -218 51 -275 55 -109 204 -215 359 -256 72 -19
339 -25 461 -10 l66 8 18 -46 c26 -69 108 -187 168 -241 107 -97 249 -140 432
-131 119 6 225 31 306 73 l50 25 59 -40 c33 -21 78 -42 100 -46 l40 -7 0 -62
c0 -121 54 -212 155 -262 45 -22 65 -26 109 -22 l55 5 53 -96 c67 -122 117
-247 131 -327 14 -80 -3 -122 -58 -148 -40 -19 -51 -18 -135 13 -64 24 -166
27 -213 7 -18 -7 -45 -27 -62 -43 -20 -21 -51 -37 -93 -49 -68 -18 -122 -61
-122 -95 0 -51 67 -125 143 -159 139 -62 392 -64 506 -6 30 16 31 16 70 -23
51 -51 108 -83 206 -117 72 -25 93 -28 205 -28 105 1 134 5 185 24 70 27 135
86 135 122 0 24 4 25 65 31 36 4 75 12 87 18 39 20 98 83 98 104 0 25 -35 84
-55 91 -27 11 -17 277 21 537 5 34 11 47 21 45 27 -6 135 -290 153 -403 13
-84 1 -139 -39 -175 -89 -82 -25 -199 145 -262 51 -20 79 -23 210 -23 148 0
151 1 209 30 42 22 63 40 77 67 28 53 13 90 -75 181 -60 63 -81 78 -126 91
-61 18 -108 20 -164 7 -31 -7 -43 -5 -70 13 -70 47 -105 152 -114 342 l-6 131
80 5 c101 6 171 38 236 107 59 63 78 125 76 244 -2 89 -2 89 28 107 20 12 37
35 49 65 17 46 17 50 0 98 -17 48 -17 50 1 60 10 5 39 32 65 58 61 62 83 132
75 234 -8 92 -32 159 -69 190 l-29 25 27 55 c25 52 26 63 22 147 -5 78 -10
100 -41 159 l-35 68 24 47 c13 26 24 56 24 66 0 21 7 22 40 3 14 -8 44 -14 68
-15 60 0 98 38 107 106 l7 49 43 1 c59 1 104 31 133 86 29 56 39 151 22 202
-14 43 -72 90 -123 100 -29 5 -34 12 -45 50 -14 56 -65 100 -136 121 -48 14
-58 14 -89 1 -20 -8 -40 -24 -47 -35 -11 -21 -11 -21 -41 9 -37 36 -65 44
-130 37 -102 -12 -184 -86 -215 -194 -38 -131 41 -293 145 -293 l38 0 -5 -48
c-4 -41 0 -52 23 -80 23 -28 33 -32 76 -32 27 0 49 -2 49 -5 0 -3 -6 -21 -14
-39 -22 -52 -39 -56 -101 -25 -91 46 -147 47 -247 4 -15 -6 -18 -2 -18 20 0
41 -36 92 -74 106 -27 10 -35 20 -45 58 -35 132 -164 235 -311 248 -80 8 -120
-2 -180 -42 l-52 -35 -40 34 c-73 63 -182 67 -228 9 -11 -14 -20 -35 -20 -47
0 -17 -10 -10 -49 34 -89 102 -223 145 -326 105 -83 -31 -155 -126 -155 -202
0 -17 -6 -20 -44 -19 -47 1 -86 -23 -86 -54 0 -16 -4 -16 -55 2 -104 35 -169
-9 -205 -137 l-13 -46 -43 42 c-43 42 -43 43 -37 99 5 53 4 58 -23 79 -16 12
-41 25 -56 28 -16 3 -28 12 -28 21 0 8 -8 24 -17 35 -16 17 -16 21 -3 25 8 3
28 19 43 35 28 31 29 31 130 28 283 -6 457 78 457 221 0 69 -63 127 -156 142
-51 9 -161 -14 -252 -52 l-69 -29 5 49 c3 34 0 54 -10 66 -27 30 -28 81 -2
109 30 33 47 113 34 162 -25 95 -154 191 -256 191 -14 0 -38 10 -53 21 -22 16
-39 20 -68 17 -33 -4 -43 0 -79 33 -23 20 -59 42 -80 48 -48 13 -130 13 -164
0z"/>
<path fill="#ffffff" stroke="none" d="M1583 4226 c18 -7 45 -28 61 -46 28
-33 29 -49 11 -105 -7 -20 -6 -20 9 -1 9 11 16 28 16 38 0 26 43 50 74 42 33
-8 46 -31 47 -86 l1 -43 11 43 c9 40 12 42 46 42 75 0 194 -82 220 -153 22
-58 6 -144 -33 -176 -14 -12 -20 -11 -41 9 -35 33 -31 15 6 -27 40 -46 34 -59
-30 -55 -30 1 -51 -2 -51 -8 0 -5 16 -10 35 -10 45 0 92 -23 100 -49 3 -11 1
-38 -5 -60 -9 -36 -18 -44 -83 -78 -44 -23 -102 -67 -150 -113 -73 -69 -80
-73 -90 -55 -21 40 -76 82 -121 94 -61 15 -123 -1 -174 -45 l-39 -33 -11 24
c-22 47 -83 105 -126 117 -42 12 -106 52 -106 68 0 4 13 11 30 15 51 11 43 24
-12 18 -47 -4 -57 -2 -94 25 -74 54 -103 153 -68 228 29 60 82 75 173 48 16
-5 22 -4 18 3 -4 6 -27 16 -51 22 -36 9 -46 16 -55 42 -17 50 -13 69 22 104
55 55 127 65 200 28 36 -18 40 -14 26 26 -26 76 24 121 134 121 37 0 82 -6
100 -14z"/>
<path fill="#ffffff" stroke="none" d="M765 3715 c86 -23 158 -69 253 -162 76
-76 92 -103 58 -103 -6 0 -46 26 -88 59 -42 32 -98 68 -125 81 -56 27 -160 38
-191 21 -29 -16 -29 -62 1 -97 21 -25 32 -28 123 -35 97 -8 150 -21 214 -54
22 -11 29 -20 22 -27 -7 -7 -17 -6 -31 1 -11 7 -89 18 -171 26 -164 16 -217
32 -261 81 -66 73 -63 180 6 210 41 18 118 17 190 -1z"/>
<path fill="#ffffff" stroke="none" d="M2472 3592 c84 -52 81 -161 -6 -227
-76 -58 -129 -68 -396 -75 -155 -4 -255 -10 -273 -18 -37 -16 -37 -16 -37 9 0
29 93 124 170 174 96 62 245 129 355 158 44 12 153 0 187 -21z"/>
<path fill="#ffffff" stroke="none" d="M865 3569 c62 -30 185 -122 185 -139 0
-5 -29 5 -65 22 -53 24 -86 32 -165 38 -105 8 -143 23 -155 60 -20 63 88 73
200 19z"/>
<path fill="#ffffff" stroke="none" d="M4389 3517 c13 -12 29 -35 37 -52 11
-27 13 -28 19 -10 24 76 58 96 132 77 76 -21 115 -57 137 -129 6 -17 3 -23 -8
-23 -9 0 -16 -4 -16 -10 0 -5 18 -10 40 -10 54 0 116 -33 137 -73 36 -68 10
-201 -51 -257 -23 -21 -38 -25 -87 -25 l-59 0 0 -43 c0 -105 -82 -152 -167
-96 -28 18 -32 64 -5 64 30 0 58 27 72 70 15 45 6 90 -20 98 -12 4 -13 2 -2
-9 15 -16 16 -70 1 -103 -29 -64 -125 -52 -150 18 -7 20 -17 36 -22 36 -5 0
-6 -8 -2 -17 16 -36 18 -85 4 -94 -25 -16 -67 -9 -95 14 -37 32 -39 95 -5 131
27 29 23 31 -30 16 -136 -38 -229 169 -147 326 32 61 83 103 145 120 59 16
110 9 142 -19z"/>
<path fill="#ffffff" stroke="none" d="M1289 3465 c35 -18 73 -62 91 -104 10
-25 10 -40 1 -70 -14 -49 -14 -99 1 -141 10 -31 9 -35 -20 -61 -31 -28 -115
-59 -159 -59 -29 0 -91 25 -115 47 -59 53 -91 169 -69 251 14 49 72 119 116
138 40 18 120 17 154 -1z"/>
<path fill="#ffffff" stroke="none" d="M1633 3406 c39 -17 92 -71 106 -109 16
-42 13 -134 -5 -173 -21 -44 -65 -80 -115 -96 -79 -23 -180 28 -215 109 -31
72 -10 187 43 235 49 44 128 59 186 34z"/>
<path fill="#ffffff" stroke="none" d="M2836 3325 c109 -32 190 -110 236 -227
13 -32 27 -58 31 -58 10 0 1 33 -19 72 -18 35 -18 72 1 109 27 51 97 63 171
30 49 -22 80 -62 93 -120 5 -24 12 -45 15 -48 10 -10 7 43 -4 71 -8 23 -5 29
37 61 25 19 64 40 87 46 87 24 217 -16 300 -92 69 -62 97 -126 106 -239 4 -47
8 -69 10 -50 2 19 2 45 1 58 -4 52 65 11 89 -53 7 -18 9 -50 5 -80 -4 -32 -3
-46 3 -40 6 6 12 19 14 30 5 29 82 65 139 65 33 0 67 -10 118 -36 69 -35 73
-35 87 -18 26 33 42 69 49 106 7 34 8 36 31 26 19 -9 24 -19 24 -46 0 -51 -20
-110 -46 -135 l-22 -21 28 -41 c77 -112 89 -279 24 -366 -28 -38 -30 -49 -9
-49 78 0 126 -230 74 -350 -20 -47 -98 -130 -121 -130 -6 0 -24 11 -40 25 -44
37 -48 21 -6 -23 46 -48 58 -72 58 -119 0 -38 -19 -76 -50 -100 -25 -20 -34
-15 -52 27 -9 22 -21 40 -27 40 -5 0 2 -26 17 -57 21 -47 26 -73 27 -138 0
-118 -18 -169 -84 -236 -67 -67 -133 -94 -231 -93 -95 1 -155 40 -189 123 -18
43 -31 39 -31 -9 0 -22 -7 -56 -14 -75 -12 -28 -20 -35 -43 -35 -33 0 -76 27
-67 41 3 5 2 29 -2 52 l-8 42 -6 -68 c-8 -82 -28 -113 -95 -147 -40 -20 -64
-24 -135 -24 -105 -1 -167 25 -207 86 l-26 39 -28 -30 c-27 -30 -64 -46 -93
-39 -13 3 -13 9 5 48 29 64 47 82 71 69 10 -6 29 -9 41 -7 17 3 13 7 -18 16
-40 11 -83 48 -103 87 -5 11 -13 50 -17 88 -4 37 -10 67 -14 67 -3 0 -6 -36
-6 -81 0 -68 -3 -83 -19 -95 -27 -19 -90 -18 -133 3 -35 16 -115 113 -128 153
-4 11 -11 20 -16 20 -6 0 3 -26 20 -57 28 -53 87 -270 77 -280 -2 -3 -31 1
-63 7 -45 10 -66 21 -95 50 -21 21 -38 47 -38 59 0 26 3 25 -68 2 -138 -47
-280 49 -307 207 -11 69 1 114 37 135 39 22 30 34 -11 13 -16 -9 -44 -16 -61
-16 -34 0 -103 31 -136 61 l-21 19 71 73 c106 108 166 240 166 368 0 83 -34
202 -88 311 -40 80 -45 95 -28 86 41 -22 112 -72 153 -110 24 -21 51 -38 60
-38 10 0 28 -3 41 -6 13 -4 22 -2 22 5 0 6 -9 11 -20 11 -73 0 -132 65 -128
140 3 39 6 45 23 42 76 -11 117 -13 132 -6 12 5 -5 10 -53 14 -83 7 -124 31
-154 90 -44 86 -13 177 68 198 33 9 34 10 9 11 -32 1 -83 -22 -89 -41 -3 -7
-22 3 -52 27 -54 46 -54 51 -6 151 51 105 133 113 243 22 52 -43 64 -38 17 7
-35 34 -37 48 -10 75 25 25 65 25 115 0 41 -21 61 -20 26 2 -16 10 -21 23 -21
56 0 51 11 75 54 120 43 46 108 79 162 81 11 1 43 -6 70 -14z"/>
<path fill="#ffffff" stroke="none" d="M1960 3266 c0 -20 -39 -46 -69 -46
l-25 0 27 -28 c15 -15 27 -33 27 -39 0 -5 -30 -13 -67 -16 -38 -3 -76 -9 -85
-12 -15 -6 -16 -3 -8 27 6 18 10 45 10 60 0 31 20 45 83 58 69 13 107 12 107
-4z"/>
<path fill="#ffffff" stroke="none" d="M1973 3109 c46 -12 72 -48 62 -86 -3
-15 -22 -60 -42 -99 -33 -69 -34 -75 -24 -124 14 -63 34 -103 115 -227 71
-109 134 -230 162 -313 14 -41 19 -84 19 -171 l0 -116 -43 -86 c-74 -150 -173
-236 -337 -293 -74 -26 -91 -28 -240 -29 -142 0 -168 3 -228 23 -129 45 -234
147 -313 304 -19 37 -34 69 -34 72 0 2 13 6 29 9 16 3 40 9 55 13 17 4 26 2
26 -5 0 -22 61 -135 96 -178 117 -143 318 -182 574 -112 220 60 310 172 297
369 -9 134 -72 304 -175 474 -27 44 -42 80 -42 102 0 48 -27 122 -64 173 -58
81 -66 96 -66 128 0 26 5 33 31 42 18 6 49 11 70 11 22 0 39 5 39 10 0 15 -49
12 -108 -5 -56 -17 -145 -91 -183 -151 -28 -45 -18 -55 11 -12 27 39 101 118
111 118 4 0 10 -15 13 -33 4 -19 26 -59 50 -91 64 -81 79 -128 74 -223 -5 -93
-28 -147 -104 -241 -191 -238 -609 -404 -1024 -406 -171 -1 -267 17 -378 71
-87 43 -179 127 -214 198 -75 148 -68 403 15 539 40 65 128 145 193 176 119
58 160 63 494 65 356 3 399 10 497 81 20 14 22 14 32 -5 20 -36 92 -71 149
-71 67 0 98 13 147 60 22 21 49 40 60 43 38 9 160 7 198 -4z"/>
<path fill="#ffffff" stroke="none" d="M2130 2858 c87 -82 92 -88 85 -118 -10
-45 12 -112 50 -158 26 -30 31 -42 23 -56 -6 -10 -8 -34 -5 -53 3 -19 3 -33
-1 -31 -4 2 -40 23 -79 47 -56 33 -82 57 -114 104 -57 83 -109 195 -109 234 0
33 39 125 51 121 3 -2 48 -42 99 -90z"/>
<path fill="#ffffff" stroke="none" d="M2061 2325 c50 -116 69 -200 69 -301 0
-81 -3 -98 -28 -145 -27 -53 -115 -133 -137 -126 -5 2 -56 119 -113 261 l-102
257 44 52 c56 67 102 140 116 186 7 20 14 43 16 51 6 17 91 -131 135 -235z"/>
<path fill="#ffffff" stroke="none" d="M1839 2002 c56 -139 101 -256 101 -261
0 -20 -227 -71 -317 -71 l-42 0 -126 181 c-70 99 -125 182 -123 183 2 1 39 17
83 35 91 37 187 91 265 150 30 22 55 39 56 38 1 -1 48 -116 103 -255z"/>
<path fill="#ffffff" stroke="none" d="M1430 1860 c61 -88 113 -166 116 -174
5 -13 -2 -13 -48 -2 -75 17 -153 62 -199 115 -37 41 -117 187 -108 194 9 7
114 33 121 30 4 -2 57 -75 118 -163z"/>
<path fill="#ffffff" stroke="none" d="M2856 1262 c11 -6 43 -14 72 -18 46 -6
53 -4 77 20 l26 26 27 -32 c15 -17 27 -34 27 -37 0 -3 -12 -31 -27 -61 -15
-30 -37 -91 -48 -135 -23 -91 -50 -300 -50 -392 0 -48 -4 -64 -17 -71 -11 -6
22 -8 93 -5 158 7 282 -26 357 -96 25 -23 57 -71 57 -85 0 -2 -25 10 -55 29
-83 50 -177 70 -320 69 -129 -1 -227 -19 -296 -55 -23 -11 -43 -18 -46 -15
-15 14 14 65 62 108 89 82 108 166 81 358 -25 168 -59 347 -83 425 -5 19 -5
19 18 -1 13 -12 33 -26 45 -32z"/>
<path fill="#ffffff" stroke="none" d="M2616 1195 c21 -45 83 -82 155 -92 l54
-8 22 -135 c42 -263 27 -354 -74 -447 l-57 -53 -81 39 c-100 50 -175 70 -288
78 -86 6 -87 6 -70 26 27 30 93 57 139 57 53 0 153 -31 222 -69 28 -16 52 -25
52 -20 0 4 -10 14 -22 20 -21 11 -21 12 15 31 52 26 71 60 70 122 -2 77 -37
176 -114 325 -38 74 -67 141 -65 148 9 23 24 14 42 -22z"/>
<path fill="#ffffff" stroke="none" d="M3823 1190 c10 -16 38 -41 62 -56 l45
-26 0 -116 c0 -184 27 -280 98 -354 27 -28 32 -38 19 -38 -9 0 -17 -4 -17 -9
0 -5 24 -3 53 5 63 17 156 18 208 3 35 -11 115 -67 107 -75 -2 -2 -28 3 -58
11 -148 40 -384 -8 -479 -96 -28 -26 -31 -24 -31 15 0 26 8 41 36 66 20 17 47
36 60 42 13 6 24 15 24 20 0 5 -9 4 -19 -2 -11 -5 -21 -10 -23 -10 -2 0 -3 39
-4 88 -1 96 -32 208 -105 374 -35 82 -37 90 -23 116 7 15 14 37 14 50 0 30 12
28 33 -8z"/>
<path fill="#ffffff" stroke="none" d="M3705 1090 c-11 -35 -35 -273 -41 -401
-6 -109 -10 -136 -20 -132 -8 3 -14 0 -14 -5 0 -6 9 -13 19 -17 38 -12 81 -61
81 -93 0 -47 -18 -48 -57 -3 -41 48 -140 102 -230 125 -72 19 -175 21 -202 4
-10 -6 -26 -8 -35 -5 -22 9 -4 38 38 63 34 20 132 23 179 5 77 -29 139 1 153
74 11 61 -2 195 -25 253 -24 60 -26 72 -9 72 20 0 77 50 93 81 l16 30 29 -18
c19 -11 28 -23 25 -33z"/>
<path fill="#ffffff" stroke="none" d="M3258 1042 c43 -25 56 -27 149 -27
l103 0 20 -50 c30 -75 43 -152 36 -211 -13 -109 -44 -134 -136 -109 -109 29
-206 12 -238 -44 -14 -25 -17 -26 -118 -26 -86 0 -104 3 -104 15 1 89 27 309
51 421 10 46 11 47 55 54 25 3 56 17 72 30 l27 24 18 -25 c11 -13 40 -37 65
-52z"/>
<path fill="#000000" stroke="none" d="M2165 3506 c-74 -17 -174 -57 -217 -87
-60 -42 -128 -101 -128 -111 0 -6 8 -4 18 5 40 37 73 41 288 42 196 0 213 1
233 19 31 28 26 92 -9 118 -34 25 -111 31 -185 14z"/>
<path fill="#ffffff" stroke="none" d="M2329 3485 c32 -16 44 -46 31 -81 -15
-39 -43 -42 -300 -34 -63 2 -126 0 -140 -4 l-25 -7 25 21 c38 31 158 88 220
104 72 19 154 20 189 1z"/>
<path fill="#000000" stroke="none" d="M1159 3347 c-22 -15 -39 -38 -49 -65
-13 -37 -13 -47 0 -84 17 -48 67 -88 110 -88 43 0 93 40 110 88 13 37 13 47 0
84 -17 48 -67 88 -110 88 -15 0 -42 -10 -61 -23z"/>
<path fill="#000000" stroke="none" d="M1509 3327 c-22 -15 -39 -38 -49 -65
-13 -37 -13 -47 0 -84 18 -50 67 -88 115 -88 48 0 97 38 115 88 13 37 13 47 0
84 -18 50 -67 88 -115 88 -18 0 -47 -10 -66 -23z"/>
<path fill="#000000" stroke="none" d="M362 2788 c-47 -47 53 -192 162 -233
57 -22 153 -16 191 12 26 18 28 18 108 -2 70 -17 89 -27 123 -61 56 -56 139
-79 261 -72 138 9 233 53 233 108 0 54 -37 63 -122 29 -71 -28 -160 -34 -298
-20 -131 13 -270 47 -362 89 -35 16 -103 59 -152 95 -87 66 -120 79 -144 55z"/>
</g>
</svg>
