<?xml version="1.0" standalone="no"?>
<!DOCTYPE svg PUBLIC "-//W3C//DTD SVG 20010904//EN"
 "http://www.w3.org/TR/2001/REC-SVG-20010904/DTD/svg10.dtd">
<svg version="1.0" xmlns="http://www.w3.org/2000/svg"
 width="628.000000pt" height="628.000000pt" viewBox="0 0 628.000000 628.000000"
 preserveAspectRatio="xMidYMid meet">
<metadata>
Created by potrace 1.16, written by Peter Selinger 2001-2019
</metadata>
<g transform="translate(0.000000,628.000000) scale(0.100000,-0.100000)"
fill="#000000" stroke="none">
<path fill="#000000" stroke="none" d="M0 3140 l0 -3140 3140 0 3140 0 0 3140
0 3140 -3140 0 -3140 0 0 -3140z"/>
<path fill="#ffffff" stroke="none" d="M6270 3140 l0 -3130 -3130 0 -3130 0 0
3130 0 3130 3130 0 3130 0 0 -3130z"/>
<path fill="#000000" stroke="none" d="M3618 5813 c6 -2 18 -2 25 0 6 3 1 5
-13 5 -14 0 -19 -2 -12 -5z"/>
<path fill="#000000" stroke="none" d="M1027 5308 c-18 -24 -44 -56 -56 -73
-23 -30 -24 -30 -124 -30 -99 0 -101 0 -116 -27 -15 -26 -14 -29 37 -103 28
-43 52 -82 52 -89 0 -6 -14 -47 -30 -90 -50 -128 -27 -151 110 -111 l89 26 69
-55 c113 -91 152 -73 152 71 l0 82 78 53 c66 45 77 58 80 85 4 36 -7 44 -120
83 l-66 23 -17 65 c-27 110 -40 132 -74 132 -23 0 -37 -10 -64 -42z"/>
<path fill="#ffffff" stroke="none" d="M1108 5332 c7 -5 23 -48 37 -97 13 -48
30 -92 37 -96 7 -5 48 -20 90 -35 75 -25 100 -47 83 -74 -3 -6 -42 -33 -86
-61 l-79 -51 0 -92 c0 -138 -14 -144 -123 -57 l-75 59 -83 -24 c-91 -27 -129
-25 -129 6 0 10 14 55 31 99 l32 80 -52 80 c-73 111 -71 115 61 121 l107 5 46
60 c44 57 72 85 84 85 3 0 12 -4 19 -8z"/>
<path fill="#000000" stroke="none" d="M3105 5333 c-97 -8 -260 -37 -380 -68
-391 -98 -736 -292 -1032 -578 -325 -315 -541 -693 -648 -1131 -14 -54 -26
-101 -29 -103 -8 -8 -111 43 -178 88 -87 59 -163 141 -197 213 -46 95 -47 106
-16 106 37 0 75 41 75 82 0 27 9 41 51 77 40 34 50 48 47 70 -3 23 -7 26 -40
26 -33 0 -37 2 -31 20 34 103 33 147 -6 153 -26 4 -47 -12 -73 -53 l-18 -30 0
37 c0 106 -75 132 -101 35 -6 -23 -13 -48 -15 -56 -4 -11 -9 -9 -20 8 -10 14
-24 21 -37 19 -19 -3 -22 -11 -25 -55 -2 -29 2 -69 7 -90 8 -29 7 -47 -6 -84
-22 -61 -11 -97 38 -123 31 -17 38 -28 48 -70 18 -79 69 -171 135 -243 66 -72
203 -167 293 -204 l55 -22 -6 -56 c-68 -608 95 -1209 458 -1686 210 -277 484
-506 798 -665 135 -70 134 -65 23 -116 -40 -19 -63 -23 -89 -19 -24 5 -42 2
-60 -10 -24 -16 -29 -16 -74 -1 -39 13 -55 14 -75 5 -29 -13 -37 -34 -37 -104
0 -103 78 -344 116 -359 18 -7 56 8 73 28 7 9 24 16 36 16 14 0 34 13 49 31
30 35 34 81 11 136 -19 45 -19 102 -1 139 11 20 29 34 63 46 27 10 79 37 117
61 l69 45 86 -29 c484 -165 1008 -165 1494 0 l87 30 19 -37 c33 -64 44 -121
31 -153 -10 -24 -10 -33 5 -55 12 -18 15 -36 10 -58 -24 -115 -8 -129 140
-123 157 7 295 61 304 117 1 14 -4 38 -12 55 -8 16 -20 45 -27 63 -22 58 -87
77 -158 46 -47 -21 -121 -24 -148 -7 -13 8 -25 29 -29 49 -3 19 -15 55 -26 80
-10 25 -19 49 -19 54 0 4 24 18 53 31 40 17 67 22 118 20 l66 -2 76 76 c43 42
77 81 78 88 0 7 44 44 96 82 199 145 432 405 579 645 150 247 281 605 272 746
-8 124 -98 214 -223 222 -91 6 -139 -19 -233 -119 -82 -87 -190 -178 -278
-234 -30 -19 -56 -35 -57 -35 -2 0 -16 28 -32 63 -41 88 -149 196 -230 227
-87 34 -208 38 -300 10 -38 -12 -99 -23 -135 -24 -65 -2 -237 -42 -306 -71
-47 -19 -44 -20 -44 18 0 45 -35 185 -64 257 -99 243 -287 389 -503 390 l-82
0 6 33 c3 24 0 37 -12 47 -15 13 -20 12 -39 -11 l-21 -25 -20 31 c-12 16 -29
32 -40 34 -23 4 -45 -24 -45 -58 l0 -26 -110 -1 -109 -2 -6 42 c-4 22 -6 45
-6 50 0 5 51 20 113 32 334 68 561 222 643 437 16 43 20 47 52 47 49 0 83 37
83 90 0 31 10 54 40 99 46 67 59 111 38 129 -11 8 -20 8 -41 -3 -31 -16 -30
-17 -16 38 27 110 -51 135 -103 33 l-15 -29 -11 45 c-13 52 -33 72 -60 64 -25
-8 -39 -40 -47 -110 -7 -54 -8 -56 -25 -41 -25 23 -64 16 -68 -12 -2 -13 8
-49 23 -81 21 -48 24 -63 15 -86 -19 -52 -7 -84 45 -113 15 -9 16 -15 5 -47
-19 -58 -95 -152 -162 -202 -78 -57 -154 -96 -255 -130 -71 -24 -264 -67 -270
-60 -11 11 -13 180 -4 271 50 465 304 863 703 1098 106 63 128 84 157 147 25
54 27 120 5 183 -19 57 -93 128 -152 145 -36 11 -170 14 -267 5z"/>
<path fill="#ffffff" stroke="none" d="M3395 5303 c167 -84 172 -317 8 -409
-393 -220 -644 -554 -738 -984 -17 -78 -32 -379 -21 -423 l6 -25 77 15 c247
45 414 121 533 242 41 42 76 90 94 129 25 53 33 61 50 56 29 -9 29 -9 16 -48
-50 -152 -235 -304 -463 -381 -98 -33 -265 -67 -289 -59 -16 5 -18 2 -13 -20
3 -14 7 -38 10 -53 3 -16 8 -35 11 -44 3 -13 -8 -21 -48 -34 -223 -72 -403
-250 -462 -456 -14 -46 -16 -94 -13 -275 4 -202 6 -226 31 -307 83 -276 244
-454 471 -523 43 -13 93 -18 180 -18 133 -1 222 20 323 74 47 26 52 26 52 9 0
-32 30 -109 99 -254 54 -114 66 -149 66 -190 0 -27 -4 -60 -8 -72 -11 -31 7
-30 38 1 53 53 57 171 10 285 -14 35 -29 87 -31 115 l-5 51 26 -73 c14 -40 37
-97 52 -125 24 -49 25 -56 18 -142 -15 -165 -13 -230 11 -262 22 -30 101 -79
111 -69 3 3 -8 21 -25 40 -36 41 -50 107 -34 164 6 20 18 64 27 96 10 37 15
85 13 128 -2 37 -1 68 2 68 10 0 62 -72 76 -105 21 -52 17 -127 -10 -195 -14
-33 -21 -60 -16 -60 4 0 27 21 49 46 l41 47 0 -35 c0 -28 -9 -44 -41 -77 -44
-44 -47 -66 -8 -66 23 0 24 -3 24 -55 0 -52 2 -55 24 -55 14 0 26 -6 29 -13 6
-18 39 -15 46 4 5 14 9 14 22 3 13 -10 17 -10 25 2 5 8 9 24 9 36 0 13 5 22
13 20 34 -6 8 121 -33 158 -14 13 -20 31 -20 62 0 47 0 47 48 34 54 -16 58 9
29 185 -14 82 -33 170 -41 194 -9 25 -16 56 -16 70 0 15 -4 30 -9 35 -5 6 -12
20 -16 33 -6 21 -3 22 42 22 60 0 181 -33 249 -67 65 -33 100 -27 112 20 8 30
9 28 15 -28 9 -82 38 -186 75 -272 18 -39 32 -80 32 -91 0 -11 7 -36 16 -57
14 -35 17 -37 51 -32 19 3 48 3 64 0 29 -5 29 -7 29 -73 0 -64 -2 -70 -31 -95
-39 -32 -142 -85 -167 -85 -21 0 -42 -18 -42 -38 0 -7 16 -20 35 -28 19 -8 35
-18 35 -23 0 -4 -35 -24 -77 -42 -59 -26 -72 -35 -55 -37 31 -5 73 -94 75
-160 2 -41 -1 -47 -20 -50 -18 -3 -23 4 -32 46 -6 28 -22 75 -36 105 l-25 56
-113 -38 c-454 -153 -951 -160 -1400 -20 -164 50 -158 34 -53 141 50 52 120
135 156 186 74 105 160 256 160 281 0 9 -24 -27 -53 -79 -168 -304 -372 -511
-581 -589 -60 -22 -72 -20 -78 12 -2 15 10 24 58 41 169 62 368 254 511 494
102 170 98 162 85 162 -6 0 -28 -33 -51 -74 -96 -176 -246 -365 -362 -456
l-38 -31 -112 57 c-222 111 -393 232 -572 404 -390 375 -630 858 -697 1403
-13 98 -8 502 5 558 l7 26 86 -27 c189 -59 418 -86 430 -50 5 13 3 13 -11 1
-36 -29 -346 31 -519 101 -211 84 -363 207 -431 348 -20 41 -39 93 -43 114 -6
34 -5 38 10 33 10 -4 24 -7 32 -7 8 0 14 -8 14 -17 0 -30 55 -135 99 -191 73
-92 219 -185 386 -245 83 -29 274 -73 360 -82 33 -3 71 -8 85 -11 16 -3 21 -2
15 4 -5 5 -71 18 -145 30 -74 12 -183 35 -242 53 -126 37 -120 25 -82 174 252
995 1105 1692 2139 1748 84 5 155 -3 190 -20z"/>
<path fill="#ffffff" stroke="none" d="M3440 4324 c6 -14 10 -47 10 -74 0 -27
4 -51 8 -54 4 -2 18 22 30 53 28 71 55 100 77 81 19 -16 19 -56 0 -110 -21
-61 -19 -64 22 -35 21 14 41 25 45 25 20 0 5 -53 -29 -101 -25 -37 -39 -71
-44 -108 -4 -30 -15 -61 -24 -70 -23 -23 -118 -19 -177 7 -45 20 -48 23 -48
59 0 48 13 71 32 56 20 -17 117 -43 160 -43 64 0 42 17 -29 22 -94 7 -139 31
-169 90 -24 48 -32 98 -15 98 5 0 23 -11 39 -25 17 -14 32 -25 35 -25 2 0 7
34 9 75 5 74 18 105 44 105 8 0 19 -12 24 -26z"/>
<path fill="#ffffff" stroke="none" d="M609 4289 c6 -18 8 -55 5 -85 -4 -30
-4 -54 -1 -54 3 0 19 25 36 55 33 59 66 84 84 66 13 -13 0 -84 -27 -145 l-17
-38 28 7 c82 22 92 -1 28 -61 -45 -42 -51 -44 -106 -44 -34 0 -80 8 -109 19
-27 11 -50 15 -50 11 0 -15 85 -42 146 -47 l60 -5 -5 -36 c-11 -65 -85 -77
-189 -32 -55 24 -68 55 -45 111 14 36 14 49 3 109 -13 71 -8 124 13 117 7 -2
22 -21 34 -42 24 -43 23 -45 38 50 9 53 22 75 44 75 12 0 23 -11 30 -31z"/>
<path fill="#ffffff" stroke="none" d="M2996 3301 c10 -56 16 -58 33 -11 9 24
22 45 29 48 17 5 15 -43 -3 -58 -28 -23 -15 -28 58 -23 211 15 404 -109 511
-329 71 -146 89 -226 90 -398 0 -153 -9 -205 -69 -379 -34 -100 -33 -160 4
-236 16 -33 42 -73 58 -90 16 -16 35 -45 41 -62 l11 -33 -35 0 c-68 0 -134 59
-134 120 0 20 -2 22 -10 10 -17 -26 -11 -108 9 -149 11 -21 51 -74 89 -118 77
-89 89 -122 72 -198 -11 -47 -46 -123 -74 -160 -14 -18 -14 -15 0 30 20 65 12
132 -22 194 -26 49 -99 129 -108 120 -3 -3 2 -27 10 -54 18 -58 14 -113 -16
-229 -24 -95 -25 -156 -4 -197 15 -30 15 -30 -5 -19 -54 28 -67 88 -46 214 21
134 20 152 -20 234 -41 86 -65 163 -65 209 0 38 -15 44 -26 11 -17 -49 -6
-134 26 -214 37 -92 42 -181 14 -239 -20 -44 -28 -45 -21 -2 7 47 -16 124 -69
229 -120 239 -122 293 -16 457 23 35 47 79 54 97 10 29 17 34 44 34 69 0 135
71 142 155 10 120 -67 187 -160 139 -29 -15 -32 -15 -40 1 -38 67 -121 123
-229 152 -54 15 -101 18 -303 16 -223 -2 -241 -1 -288 19 -56 24 -112 84 -128
137 -7 20 -13 42 -15 48 -3 8 -29 -11 -62 -45 -32 -31 -79 -76 -105 -99 -44
-39 -46 -40 -52 -20 -19 72 8 198 67 311 77 148 216 263 392 323 69 24 96 28
192 28 l113 0 0 42 c0 24 5 43 13 46 20 7 46 -23 53 -62z"/>
<path fill="#ffffff" stroke="none" d="M5442 2742 c55 -29 92 -78 110 -144 15
-59 4 -118 -57 -305 -124 -375 -363 -741 -652 -996 -90 -78 -203 -167 -214
-167 -4 0 -14 37 -22 83 -19 100 -10 118 53 110 31 -4 40 -2 49 15 9 17 5 41
-23 124 -40 118 -61 249 -52 315 3 24 31 104 62 176 73 173 98 270 92 362 l-5
70 85 55 c49 32 139 106 211 176 69 67 137 127 151 134 63 34 140 31 212 -8z"/>
<path fill="#ffffff" stroke="none" d="M2391 2705 c11 -24 39 -61 61 -81 73
-66 84 -68 373 -69 222 0 268 -3 315 -19 75 -25 142 -69 175 -116 27 -38 28
-54 9 -104 -14 -36 12 -13 28 24 12 29 27 45 52 55 50 21 64 19 96 -13 74 -74
32 -223 -71 -253 -36 -11 -43 -10 -69 9 -39 29 -49 28 -21 -2 21 -22 21 -25 7
-60 -8 -20 -28 -55 -44 -78 -37 -53 -82 -143 -82 -161 0 -20 -27 -42 -95 -75
-88 -43 -176 -62 -291 -62 -114 0 -190 17 -284 62 -88 42 -221 176 -272 274
-83 157 -129 366 -109 482 10 55 15 61 103 144 51 48 94 87 95 88 2 0 12 -20
24 -45z"/>
<path fill="#ffffff" stroke="none" d="M4426 2699 c82 -15 166 -62 225 -126
27 -30 49 -58 49 -63 0 -4 -9 -10 -20 -13 -11 -3 -23 -12 -26 -21 -10 -26 15
-46 57 -46 36 0 39 -3 48 -37 6 -21 11 -54 11 -74 0 -30 -4 -38 -24 -43 -13
-3 -27 -13 -30 -22 -7 -19 10 -44 30 -44 28 0 12 -67 -48 -211 l-41 -96 -41 4
c-31 4 -47 1 -59 -12 -26 -26 -6 -55 39 -55 29 0 35 -3 30 -16 -3 -9 -6 -39
-6 -68 0 -53 0 -53 -39 -65 -68 -20 -62 -71 8 -71 l37 0 18 -77 c10 -42 27
-95 37 -117 32 -70 17 -112 -32 -86 -15 8 -25 6 -48 -11 -23 -17 -32 -19 -50
-10 -16 9 -26 8 -46 -5 -21 -14 -30 -14 -55 -4 -24 10 -33 10 -45 0 -12 -10
-18 -10 -30 0 -13 11 -41 89 -33 94 2 1 55 8 118 14 134 13 190 27 190 47 0
24 -34 36 -69 24 -29 -10 -34 -17 -29 -36 3 -12 -50 -21 -138 -22 -77 -1 -81
0 -92 24 -11 23 -10 24 13 15 37 -14 85 6 85 35 0 39 -78 51 -103 15 -14 -20
-15 -19 -31 19 -8 23 -25 87 -37 144 -18 90 -19 112 -9 173 7 38 13 87 14 109
1 22 8 53 14 68 16 37 15 48 -3 74 -10 14 -12 24 -5 28 14 9 12 48 -4 70 -8
11 -11 34 -9 60 4 28 1 45 -10 53 -10 9 -13 25 -10 56 4 34 1 48 -13 62 -11
11 -18 29 -16 43 2 13 -6 36 -17 52 -12 15 -21 39 -21 53 0 14 -10 34 -22 45
l-21 21 39 16 c43 18 145 42 185 43 14 1 52 -4 85 -10z"/>
<path fill="#ffffff" stroke="none" d="M4116 2633 c25 -28 34 -45 30 -63 -3
-17 3 -31 21 -48 14 -12 23 -28 20 -35 -3 -7 -8 -19 -12 -29 -4 -11 0 -18 14
-23 26 -8 37 -46 21 -74 -9 -18 -7 -26 9 -48 25 -31 26 -46 6 -67 -14 -14 -14
-17 5 -36 23 -23 26 -60 8 -79 -11 -10 -10 -14 5 -22 21 -12 22 -57 2 -86 -12
-17 -13 -28 -5 -49 8 -21 7 -31 -5 -44 -10 -11 -13 -27 -9 -47 5 -23 1 -36
-14 -51 -11 -11 -22 -33 -24 -49 -4 -33 -37 -43 -72 -20 -27 18 -179 67 -207
67 -12 0 -32 9 -46 20 -14 11 -38 20 -54 20 -24 0 -32 8 -63 73 -19 39 -49 93
-66 119 l-31 47 31 98 c32 100 60 256 60 329 l0 42 83 26 c45 14 105 30 132
35 28 5 61 14 75 20 40 16 49 13 86 -26z"/>
<path fill="#ffffff" stroke="none" d="M3716 1967 c19 -37 44 -91 55 -120 12
-28 26 -63 32 -77 6 -14 12 -34 13 -45 1 -11 5 -29 9 -40 5 -17 0 -23 -29 -33
-43 -16 -63 -46 -45 -68 15 -18 49 -18 76 1 21 14 21 13 36 -73 9 -48 19 -118
23 -155 l6 -68 -28 7 c-16 4 -50 8 -77 8 -35 1 -46 4 -42 14 3 8 8 25 11 39 6
24 9 25 60 18 36 -4 54 -3 54 4 0 6 -21 11 -50 11 l-50 0 0 50 c0 62 -18 100
-80 166 -44 46 -110 158 -110 184 0 7 12 -2 26 -20 36 -42 74 -60 129 -60 32
0 45 4 45 14 0 30 -22 71 -61 114 -62 66 -103 180 -84 229 6 16 8 16 27 -7 11
-14 36 -55 54 -93z"/>
<path fill="#ffffff" stroke="none" d="M3838 1843 c-10 -2 -26 -2 -35 0 -10 3
-2 5 17 5 19 0 27 -2 18 -5z"/>
<path fill="#ffffff" stroke="none" d="M4571 1291 c3 -3 14 -45 23 -93 19
-100 18 -105 -46 -163 -24 -22 -53 -53 -65 -70 -12 -16 -25 -27 -29 -23 -4 4
-1 14 6 23 7 9 9 19 5 23 -4 4 -10 2 -12 -4 -2 -6 -11 -20 -19 -30 -15 -18
-15 -18 -11 9 2 15 0 27 -4 27 -5 0 -9 -4 -9 -8 0 -5 -7 -17 -16 -28 -15 -18
-15 -18 -9 11 6 28 6 29 -13 12 -27 -24 -50 -23 -28 2 16 18 16 18 -29 14 -38
-5 -45 -3 -45 12 0 14 3 15 15 5 16 -14 50 -6 40 10 -3 5 25 25 62 44 37 19
78 44 90 55 26 24 38 77 30 128 -8 44 7 66 37 57 12 -3 24 -9 27 -13z"/>
<path fill="#ffffff" stroke="none" d="M3798 1240 c2 -27 11 -53 22 -65 32
-34 69 -158 38 -127 -21 21 -28 13 -28 -29 0 -45 -15 -45 -25 1 -4 17 -11 30
-17 30 -6 0 -8 -10 -5 -22 2 -13 1 -34 -3 -48 l-7 -25 -12 28 c-6 16 -11 38
-12 50 0 18 -3 16 -15 -10 -8 -18 -17 -33 -20 -33 -4 0 -4 29 -2 65 2 36 2 65
1 65 -2 0 -15 -7 -28 -16 -43 -28 -31 10 15 47 38 31 40 35 40 86 0 53 1 54
28 51 24 -3 27 -7 30 -48z"/>
<path fill="#ffffff" stroke="none" d="M2172 771 c-3 -22 1 -33 17 -43 12 -7
21 -18 21 -25 0 -17 -6 -16 -35 3 -18 12 -28 13 -44 4 -12 -6 -21 -16 -21 -22
0 -9 3 -9 12 0 29 29 78 -5 78 -55 0 -29 -9 -29 -54 2 -25 17 -36 20 -36 11 0
-8 17 -23 38 -33 50 -24 87 -96 75 -144 -10 -38 -54 -75 -78 -65 -38 14 -95
189 -96 296 0 54 -2 61 -10 40 -20 -48 10 -198 59 -299 26 -52 26 -53 7 -67
-31 -23 -48 -13 -77 46 -56 112 -90 334 -56 368 14 14 68 16 68 2 0 -15 71
-12 100 4 32 18 38 14 32 -23z"/>
<path fill="#ffffff" stroke="none" d="M4574 679 c16 -12 26 -30 26 -45 0 -42
-136 -96 -285 -113 l-70 -8 65 -2 c80 -1 160 18 241 60 67 33 79 30 79 -23 0
-33 -23 -50 -102 -77 -123 -42 -278 -49 -313 -14 -18 18 -19 28 -2 45 16 16
16 74 -1 105 -19 34 -15 46 13 39 17 -4 31 0 45 14 21 21 40 26 40 11 0 -6 -4
-13 -10 -16 -14 -9 -13 -48 2 -63 19 -19 33 -14 15 6 -10 10 -17 24 -17 30 0
17 42 42 72 42 l27 0 -17 -32 c-9 -18 -21 -36 -26 -39 -4 -4 -3 -9 3 -13 6 -4
19 11 31 34 38 74 128 103 184 59z"/>
<path fill="#000000" stroke="none" d="M3074 5201 c-58 -26 -89 -74 -89 -136
0 -117 126 -188 241 -136 58 26 89 74 89 136 0 86 -73 155 -165 155 -19 0 -53
-9 -76 -19z"/>
<path fill="#ffffff" stroke="none" d="M3220 5182 c43 -21 80 -75 80 -117 0
-68 -75 -135 -150 -135 -75 0 -150 67 -150 135 0 68 75 135 150 135 19 0 51
-8 70 -18z"/>
<path fill="#000000" stroke="none" d="M2631 4617 c-47 -18 -106 -71 -135
-120 -28 -47 -46 -125 -27 -113 6 4 11 16 11 27 0 27 37 98 69 132 39 43 93
67 150 67 83 0 128 -52 144 -165 3 -24 4 -21 6 12 1 56 -24 118 -60 144 -35
25 -113 33 -158 16z"/>
<path fill="#000000" stroke="none" d="M1785 4531 c-78 -35 -155 -143 -154
-216 0 -23 5 -15 20 34 16 50 32 75 72 116 131 130 297 79 297 -91 0 -35 3
-45 11 -37 16 16 2 102 -22 142 -42 69 -138 91 -224 52z"/>
<path fill="#000000" stroke="none" d="M2274 4286 c-32 -14 -74 -64 -74 -87 0
-8 12 3 26 23 48 68 114 74 158 15 42 -57 23 -124 -49 -168 -16 -11 -24 -19
-16 -19 26 0 79 40 91 70 19 45 7 108 -27 141 -35 35 -69 43 -109 25z"/>
<path fill="#000000" stroke="none" d="M1860 3864 c0 -200 43 -331 134 -411
90 -79 242 -96 352 -40 128 65 226 259 250 496 6 57 5 64 -9 58 -117 -45 -432
-55 -597 -20 -52 12 -103 24 -112 28 -17 7 -18 -2 -18 -111z"/>
<path fill="#ffffff" stroke="none" d="M2240 3916 c155 0 222 4 274 16 l69 16
-6 -61 c-14 -139 -73 -302 -138 -377 -23 -27 -32 -31 -36 -20 -14 38 -100 106
-157 124 -79 25 -201 19 -269 -14 -28 -13 -52 -19 -57 -14 -27 28 -62 285 -47
346 l7 25 77 -20 c66 -17 110 -20 283 -21z"/>
<path fill="#ffffff" stroke="none" d="M2280 3582 c33 -17 67 -44 88 -72 32
-42 33 -45 15 -58 -75 -58 -216 -74 -304 -35 -53 24 -107 69 -132 112 l-18 30
42 21 c92 48 217 48 309 2z"/>
<path fill="#000000" stroke="none" d="M1443 3680 c-49 -29 -80 -101 -63 -146
35 -92 170 -18 170 93 0 32 -5 46 -22 57 -29 21 -46 20 -85 -4z"/>
<path fill="#000000" stroke="none" d="M1195 3156 c-33 -33 -41 -84 -21 -144
47 -140 196 -142 196 -3 0 85 -64 171 -128 171 -13 0 -34 -11 -47 -24z"/>
<path fill="#000000" stroke="none" d="M1692 3087 c-19 -6 -55 -30 -82 -54
-119 -107 -119 -289 0 -396 99 -89 211 -89 310 0 119 107 119 289 0 396 -69
62 -146 81 -228 54z"/>
<path fill="#ffffff" stroke="none" d="M1855 3056 c178 -82 178 -360 0 -442
-27 -13 -68 -24 -90 -24 -54 0 -137 40 -168 82 -100 130 -61 320 77 384 64 30
117 30 181 0z"/>
<path fill="#000000" stroke="none" d="M1231 2506 c-86 -48 -59 -210 49 -295
151 -119 309 -43 257 123 -33 103 -136 186 -232 186 -27 -1 -61 -7 -74 -14z"/>
<path fill="#ffffff" stroke="none" d="M1366 2495 c93 -39 164 -135 164 -223
0 -122 -152 -139 -263 -28 -46 46 -71 102 -72 159 0 42 4 52 33 78 37 33 81
38 138 14z"/>
<path fill="#000000" stroke="none" d="M1751 2336 c-86 -31 -161 -136 -161
-226 0 -121 117 -240 235 -240 118 0 235 119 235 240 0 61 -38 138 -89 181
-64 56 -145 72 -220 45z"/>
<path fill="#ffffff" stroke="none" d="M1921 2303 c149 -76 158 -289 16 -377
-103 -64 -229 -34 -292 68 -25 42 -30 60 -30 116 0 56 5 74 30 116 36 59 114
104 180 104 25 0 62 -11 96 -27z"/>
<path fill="#000000" stroke="none" d="M1743 1716 c-37 -17 -73 -69 -73 -107
0 -64 50 -153 114 -200 165 -121 333 -22 255 151 -53 117 -205 197 -296 156z"/>
<path fill="#ffffff" stroke="none" d="M1885 1691 c94 -42 159 -130 159 -213
0 -59 -30 -95 -87 -105 -83 -13 -201 57 -247 148 -37 71 -20 157 34 179 35 15
99 11 141 -9z"/>
<path fill="#000000" stroke="none" d="M2370 1580 c-19 -5 -48 -23 -63 -41
-25 -27 -29 -38 -24 -75 6 -57 41 -102 108 -139 70 -38 171 -42 216 -9 66 49
68 116 7 184 -59 65 -164 100 -244 80z"/>
<path fill="#ffffff" stroke="none" d="M2548 1533 c89 -55 120 -143 67 -193
-34 -32 -127 -40 -189 -16 -86 33 -149 121 -127 180 28 72 155 87 249 29z"/>
<path fill="#000000" stroke="none" d="M3005 1171 c-72 -33 -125 -111 -125
-183 1 -99 103 -198 205 -198 103 0 205 99 205 200 0 19 -9 53 -19 75 -49 105
-167 152 -266 106z"/>
<path fill="#ffffff" stroke="none" d="M3190 1136 c105 -69 104 -223 -1 -293
-35 -23 -53 -28 -104 -28 -51 0 -69 5 -104 28 -122 81 -100 257 40 317 42 18
124 6 169 -24z"/>
<path fill="#000000" stroke="none" d="M4052 1130 c-56 -34 -62 -93 -12 -120
82 -44 207 64 142 123 -25 23 -90 21 -130 -3z"/>
<path fill="#000000" stroke="none" d="M5194 2561 c-23 -10 -54 -36 -70 -57
-24 -31 -29 -47 -29 -94 0 -47 5 -63 29 -94 34 -45 95 -76 151 -76 56 0 117
31 151 76 24 31 29 47 29 94 0 47 -5 63 -29 94 -34 45 -95 76 -151 76 -22 0
-59 -9 -81 -19z"/>
<path fill="#ffffff" stroke="none" d="M5368 2533 c94 -70 94 -177 -1 -247
-22 -16 -43 -21 -92 -21 -71 0 -103 17 -142 75 -49 70 -11 172 77 209 38 16
127 7 158 -16z"/>
<path fill="#000000" stroke="none" d="M4984 2201 c-23 -10 -54 -36 -70 -57
-24 -31 -29 -47 -29 -94 0 -47 5 -63 29 -94 34 -45 95 -76 151 -76 56 0 117
31 151 76 24 31 29 47 29 94 0 47 -5 63 -29 94 -53 71 -150 94 -232 57z"/>
<path fill="#ffffff" stroke="none" d="M5158 2173 c94 -70 94 -177 -1 -247
-22 -16 -43 -21 -92 -21 -71 0 -103 17 -142 75 -49 70 -11 172 77 209 38 16
127 7 158 -16z"/>
<path fill="#000000" stroke="none" d="M4911 1721 c-52 -48 -38 -101 27 -101
37 0 92 45 92 75 0 61 -66 75 -119 26z"/>
<path fill="#000000" stroke="none" d="M2314 2516 c-19 -19 -34 -43 -34 -55 0
-26 -4 -26 74 0 71 23 82 36 60 68 -22 31 -60 27 -100 -13z"/>
<path fill="#000000" stroke="none" d="M2930 2515 c-23 -27 -6 -47 60 -71 36
-13 66 -24 68 -24 1 0 2 11 2 24 0 39 -46 86 -85 86 -18 0 -38 -7 -45 -15z"/>
<path fill="#000000" stroke="none" d="M2314 2364 c20 -79 116 -124 166 -79
24 21 36 73 21 88 -8 8 -11 2 -11 -21 0 -38 -30 -72 -64 -72 -32 0 -75 36 -92
77 -17 39 -29 44 -20 7z"/>
<path fill="#000000" stroke="none" d="M3427 2362 c-25 -28 -22 -62 6 -63 l22
0 -22 -9 c-28 -11 -32 -66 -7 -96 15 -19 16 -19 9 1 -22 67 -12 102 21 74 19
-15 28 -6 19 20 -3 11 -17 23 -31 28 l-25 8 21 28 c24 30 13 38 -13 9z"/>
<path fill="#000000" stroke="none" d="M2845 2333 c21 -49 41 -70 80 -83 39
-13 76 -1 99 32 18 25 22 78 6 78 -5 0 -10 -15 -10 -33 0 -90 -115 -88 -157 3
-23 50 -39 53 -18 3z"/>
<path fill="#000000" stroke="none" d="M2610 2260 c-11 -11 -20 -28 -20 -38 0
-26 28 -62 48 -61 14 0 13 3 -5 16 -44 30 -20 108 25 84 11 -6 22 -16 25 -23
2 -7 8 -9 13 -5 10 10 -31 47 -52 47 -8 0 -23 -9 -34 -20z"/>
<path fill="#000000" stroke="none" d="M2644 2029 c-3 -6 -1 -16 5 -22 8 -8
11 -6 11 6 0 9 3 17 6 17 14 0 45 -23 54 -41 16 -28 -13 -73 -41 -66 -13 3
-19 1 -16 -6 13 -40 77 3 77 51 0 49 -74 96 -96 61z"/>
<path fill="#000000" stroke="none" d="M2652 1965 c0 -16 2 -22 5 -12 2 9 2
23 0 30 -3 6 -5 -1 -5 -18z"/>
<path fill="#000000" stroke="none" d="M4198 2669 c-44 -25 -8 -77 44 -63 61
18 65 74 6 74 -18 0 -41 -5 -50 -11z"/>
<path fill="#000000" stroke="none" d="M4441 2616 c-16 -19 -3 -45 24 -52 56
-14 103 17 76 50 -17 20 -84 21 -100 2z"/>
<path fill="#000000" stroke="none" d="M4279 2452 c-27 -23 -20 -49 16 -58 53
-13 107 35 70 62 -26 19 -59 17 -86 -4z"/>
<path fill="#000000" stroke="none" d="M4504 2349 c-19 -21 -18 -21 5 -40 28
-23 49 -24 79 -3 27 19 28 40 3 54 -31 16 -66 12 -87 -11z"/>
<path fill="#000000" stroke="none" d="M4318 2219 c-36 -20 -15 -69 30 -69 51
0 80 38 50 68 -15 15 -57 15 -80 1z"/>
<path fill="#000000" stroke="none" d="M4581 2141 c-13 -4 -29 -14 -34 -23
-25 -39 55 -66 99 -34 36 27 -13 70 -65 57z"/>
<path fill="#000000" stroke="none" d="M4328 1999 c-24 -13 -23 -46 1 -59 26
-14 64 -13 79 2 40 40 -27 88 -80 57z"/>
<path fill="#000000" stroke="none" d="M4296 1744 c-22 -21 -20 -31 8 -49 22
-14 28 -15 60 -1 37 15 45 33 24 54 -17 17 -74 15 -92 -4z"/>
<path fill="#000000" stroke="none" d="M4020 2636 c0 -3 14 -27 30 -54 101
-162 127 -455 62 -710 -10 -40 -15 -75 -11 -77 7 -5 31 87 49 189 5 33 10 118
10 188 0 186 -28 306 -99 426 -22 36 -41 53 -41 38z"/>
<path fill="#000000" stroke="none" d="M3843 2588 c-48 -24 -34 -68 22 -68 41
0 74 33 59 58 -13 20 -51 25 -81 10z"/>
<path fill="#000000" stroke="none" d="M3998 2499 c-53 -20 -42 -69 17 -69 31
0 65 25 65 48 0 11 -32 33 -47 31 -4 0 -20 -5 -35 -10z"/>
<path fill="#000000" stroke="none" d="M3822 2314 c-7 -3 -17 -15 -23 -26 -24
-44 47 -66 92 -29 20 16 22 23 13 38 -11 18 -57 27 -82 17z"/>
<path fill="#000000" stroke="none" d="M4029 2221 c-20 -16 -22 -23 -13 -38
16 -26 66 -28 95 -4 20 16 22 23 13 38 -16 26 -66 28 -95 4z"/>
<path fill="#000000" stroke="none" d="M3780 2060 c-24 -24 -17 -48 18 -57 56
-14 107 34 66 64 -26 19 -61 16 -84 -7z"/>
<path fill="#000000" stroke="none" d="M4002 1948 c-17 -17 -15 -45 4 -52 53
-20 113 8 94 45 -12 22 -78 27 -98 7z"/>
<path fill="#000000" stroke="none" d="M4497 5326 c-8 -8 -17 -41 -21 -74 l-7
-59 -60 -28 c-52 -25 -60 -32 -57 -55 2 -19 16 -32 60 -55 l58 -30 6 -58 c6
-55 23 -87 45 -87 5 0 30 19 56 43 46 42 46 42 122 42 71 0 76 1 79 22 2 13
-9 45 -24 73 l-27 50 26 49 c49 89 33 113 -64 98 l-60 -10 -47 47 c-51 50 -63
54 -85 32z"/>
<path fill="#ffffff" stroke="none" d="M4580 5275 l45 -45 64 11 c84 15 90 7
52 -70 l-31 -61 29 -58 c40 -78 32 -89 -49 -73 l-63 13 -48 -48 c-57 -57 -75
-54 -84 13 -11 78 -14 82 -76 114 -33 16 -59 35 -56 42 3 10 81 59 111 70 4 1
13 29 18 61 14 94 22 96 88 31z"/>
<path fill="#000000" stroke="none" d="M5213 4720 c-24 -10 -64 -61 -172 -222
l-71 -108 -186 0 c-205 0 -232 -6 -254 -60 -7 -16 -10 -44 -6 -61 3 -17 54
-92 116 -171 60 -78 110 -148 110 -156 0 -8 -22 -85 -50 -171 -27 -86 -50
-173 -50 -192 1 -51 48 -99 97 -99 10 0 92 27 183 60 90 33 171 60 178 60 8 0
77 -45 154 -101 77 -55 152 -105 166 -110 34 -13 86 5 113 39 20 26 21 33 14
219 l-7 191 154 115 c85 63 158 122 161 132 14 35 7 84 -15 110 -19 21 -59 37
-203 79 l-180 52 -47 139 c-75 219 -77 225 -112 246 -33 20 -58 23 -93 9z"/>
<path fill="#ffffff" stroke="none" d="M5307 4695 c15 -11 39 -68 82 -198 l62
-184 167 -48 c198 -57 217 -65 231 -105 19 -56 -1 -80 -164 -200 l-150 -111 4
-199 3 -199 -25 -25 c-16 -16 -37 -26 -55 -26 -31 0 -46 9 -224 136 -64 46
-120 84 -126 84 -5 0 -84 -27 -175 -60 -92 -33 -180 -60 -196 -60 -32 0 -81
48 -81 78 0 9 25 94 55 188 30 95 55 176 55 181 0 5 -52 76 -115 158 -99 127
-115 154 -115 185 0 26 7 43 26 61 25 23 31 24 222 29 l197 5 97 145 c54 80
107 153 119 163 26 21 77 22 106 2z"/>
<path fill="#000000" stroke="none" d="M4963 4318 c-16 -21 -23 -48 -13 -48 6
0 10 6 10 14 0 7 7 19 15 26 23 19 63 -2 80 -43 11 -25 14 -27 15 -11 0 34
-37 74 -70 74 -15 0 -32 -6 -37 -12z"/>
<path fill="#000000" stroke="none" d="M5280 4251 c-5 -11 -10 -28 -10 -38 0
-13 6 -8 20 15 11 17 26 32 33 32 24 0 57 -31 66 -63 9 -30 9 -30 10 -6 2 41
-34 79 -74 79 -24 0 -38 -6 -45 -19z"/>
<path fill="#000000" stroke="none" d="M5104 4195 c-6 -26 9 -55 29 -55 7 0 7
4 -1 12 -15 15 -15 45 0 54 6 4 17 -1 24 -11 8 -10 17 -16 20 -12 12 11 -18
37 -42 37 -17 0 -25 -7 -30 -25z"/>
<path fill="#000000" stroke="none" d="M5020 4081 c0 -98 39 -151 110 -151 20
0 46 7 59 16 28 20 60 88 61 127 0 25 -3 27 -38 27 -33 0 -75 9 -169 36 -22 6
-23 4 -23 -55z"/>
<path fill="#ffffff" stroke="none" d="M5094 4105 c27 -8 68 -15 92 -15 24 0
45 -3 47 -8 7 -10 -20 -86 -33 -90 -5 -2 -10 -10 -10 -17 0 -19 -50 -33 -86
-23 -18 4 -39 20 -49 34 -18 28 -33 134 -19 134 5 0 31 -7 58 -15z"/>
<path fill="#000000" stroke="none" d="M5088 4013 c-35 -9 -17 -18 37 -18 61
0 72 9 24 19 -33 6 -34 6 -61 -1z"/>
<path fill="#000000" stroke="none" d="M4151 3709 c-16 -46 -15 -47 32 -60
l42 -11 -56 -29 c-42 -21 -60 -36 -67 -58 -7 -20 -7 -33 -1 -37 12 -7 212 -65
214 -61 9 11 24 71 20 77 -3 5 -19 11 -35 15 -17 4 -30 10 -30 14 0 5 20 19
45 32 43 23 76 73 58 89 -7 6 -191 60 -205 60 -3 0 -11 -14 -17 -31z"/>
<path fill="#000000" stroke="none" d="M3870 3347 c-74 -17 -136 -31 -138 -33
-5 -3 9 -89 17 -102 4 -7 23 -6 66 3 32 8 60 13 62 12 1 -2 -22 -38 -52 -80
-30 -42 -53 -82 -51 -89 3 -7 7 -25 10 -40 4 -18 13 -28 24 -28 21 0 294 59
300 65 2 2 -2 29 -8 60 -9 45 -15 55 -28 51 -9 -3 -30 -8 -47 -11 -16 -4 -38
-9 -48 -12 -15 -4 -11 7 19 54 64 100 62 95 52 141 -11 50 0 49 -178 9z"/>
<path fill="#000000" stroke="none" d="M852 1424 c-22 -15 -23 -22 -21 -112
l2 -97 -69 -53 c-81 -63 -93 -82 -72 -114 11 -16 41 -30 103 -48 l88 -25 26
-76 c31 -91 44 -109 82 -109 24 0 35 11 80 80 l52 80 92 0 c76 0 95 3 108 18
28 30 20 55 -40 127 l-56 68 18 66 c46 165 27 188 -111 136 -36 -14 -73 -25
-81 -25 -9 0 -44 20 -78 44 -78 55 -95 60 -123 40z"/>
<path fill="#ffffff" stroke="none" d="M969 1369 c81 -58 66 -57 199 -8 58 22
63 22 79 6 15 -15 15 -23 -11 -111 l-28 -95 56 -68 c41 -49 56 -75 54 -93 -3
-24 -6 -25 -105 -34 l-102 -8 -48 -74 c-74 -114 -96 -111 -140 22 -27 83 -28
85 -68 95 -185 47 -192 60 -80 146 l76 58 -4 91 c-6 143 9 152 122 73z"/>
<path fill="#000000" stroke="none" d="M5458 1355 l-67 -44 -68 29 c-81 35
-107 37 -126 10 -12 -18 -12 -31 6 -104 l21 -84 -52 -62 c-83 -99 -70 -129 61
-137 l82 -6 47 -73 c37 -58 52 -74 71 -74 32 0 50 23 78 102 l23 67 71 17
c139 33 150 65 50 146 l-65 52 0 91 c0 132 -21 143 -132 70z"/>
<path fill="#ffffff" stroke="none" d="M5570 1375 c9 -11 10 -38 5 -99 l-7
-84 66 -52 c36 -29 67 -58 70 -65 9 -26 -20 -44 -99 -62 l-79 -18 -29 -75
c-47 -125 -64 -128 -127 -22 -46 78 -53 82 -150 82 -63 0 -90 10 -90 35 0 6
25 41 56 78 l57 68 -23 85 c-21 77 -22 87 -7 101 14 14 22 13 90 -16 42 -17
82 -31 89 -31 7 0 44 21 82 45 38 25 72 45 76 45 4 0 13 -7 20 -15z"/>
</g>
</svg>
