<?xml version="1.0" standalone="no"?>
<!DOCTYPE svg PUBLIC "-//W3C//DTD SVG 20010904//EN"
 "http://www.w3.org/TR/2001/REC-SVG-20010904/DTD/svg10.dtd">
<svg version="1.0" xmlns="http://www.w3.org/2000/svg"
 width="903.000000pt" height="620.000000pt" viewBox="0 0 903.000000 620.000000"
 preserveAspectRatio="xMidYMid meet">
<metadata>
Created by potrace 1.16, written by Peter Selinger 2001-2019
</metadata>
<g transform="translate(0.000000,620.000000) scale(0.100000,-0.100000)"
fill="#000000" stroke="none">
<path fill="#000000" stroke="none" d="M0 3100 l0 -3100 4515 0 4515 0 0 3100
0 3100 -4515 0 -4515 0 0 -3100z"/>
<path fill="#ffffff" stroke="none" d="M9020 3100 l0 -3090 -4505 0 -4505 0 0
3090 0 3090 4505 0 4505 0 0 -3090z"/>
<path fill="#000000" stroke="none" d="M4295 6029 c-322 -26 -748 -106 -1050
-198 -106 -32 -132 -52 -165 -124 -28 -59 -42 -115 -145 -565 -136 -591 -246
-1294 -386 -2444 l-11 -97 -157 -52 c-513 -171 -939 -441 -1090 -693 -193
-322 -110 -606 259 -886 429 -326 1017 -559 1805 -715 454 -90 453 -90 1045
-90 492 0 535 1 690 23 995 137 2018 486 2620 893 362 245 526 534 466 820
-43 199 -208 394 -458 540 -218 127 -608 244 -889 265 l-87 7 -7 51 c-28 218
-162 763 -290 1186 -191 628 -591 1781 -638 1838 -17 21 -91 61 -150 82 -155
55 -457 122 -653 145 -159 20 -547 27 -709 14z"/>
<path fill="#ffffff" stroke="none" d="M4913 5915 c75 -8 179 -22 230 -30 183
-32 530 -128 568 -158 29 -23 371 -971 550 -1527 180 -556 326 -1145 384
-1549 l17 -113 -24 -25 c-133 -146 -676 -328 -1258 -423 -69 -11 -139 -22
-156 -25 -31 -5 -31 -5 -37 42 -3 27 -12 52 -22 59 -22 16 -158 52 -270 72
-139 25 -465 21 -685 -7 -96 -12 -192 -27 -213 -33 -50 -15 -113 -71 -129
-115 l-13 -36 -115 6 c-326 17 -822 114 -993 194 -43 20 -90 50 -104 67 -30
36 -32 13 33 496 184 1372 349 2326 471 2730 45 151 51 161 98 177 78 28 382
102 535 132 145 28 422 66 535 74 142 10 473 5 598 -8z"/>
<path fill="#ffffff" stroke="none" d="M6969 2584 c315 -46 619 -165 829 -324
102 -78 170 -158 217 -255 46 -97 59 -161 53 -266 -5 -75 -11 -100 -41 -164
-115 -241 -389 -452 -914 -702 -558 -265 -1273 -470 -2013 -577 -286 -42 -683
-57 -965 -37 -949 67 -1962 385 -2507 788 -383 283 -428 603 -127 904 167 167
531 362 922 495 71 24 135 44 143 44 22 0 17 -31 -10 -59 -36 -38 -73 -118
-86 -188 -21 -109 -8 -343 29 -518 18 -82 40 -168 50 -191 46 -103 247 -265
428 -343 231 -100 406 -138 861 -187 46 -5 52 -8 52 -29 0 -68 35 -95 204
-154 221 -78 469 -88 791 -31 200 35 321 74 352 112 6 7 15 44 20 83 l8 70 60
7 c33 3 114 11 180 18 156 15 433 62 560 94 234 59 475 159 646 266 117 74
155 113 168 169 29 128 42 497 20 617 -14 81 -47 181 -76 231 -26 46 -76 93
-98 93 -7 0 -15 11 -17 25 -5 25 -5 25 75 25 44 0 127 -7 186 -16z"/>
<path fill="#ffffff" stroke="none" d="M6799 2395 c52 -109 56 -147 54 -437
-1 -158 -6 -283 -13 -308 -21 -77 -101 -145 -284 -241 -301 -158 -695 -254
-1202 -294 l-81 -7 -6 144 c-7 148 -40 538 -57 666 -6 40 -10 77 -10 82 0 5
15 12 33 15 695 119 1132 248 1362 400 30 21 58 41 61 46 3 5 18 9 35 9 20 0
29 5 29 17 0 30 49 -26 79 -92z"/>
<path fill="#ffffff" stroke="none" d="M2563 2331 c-3 -14 9 -27 54 -55 178
-113 417 -193 703 -235 148 -23 356 -41 458 -41 53 0 63 -3 58 -15 -14 -38
-27 -249 -21 -345 5 -91 31 -356 51 -530 l6 -56 -98 8 c-225 17 -498 73 -671
137 -166 61 -321 155 -430 259 -56 54 -64 66 -87 144 -57 185 -93 424 -81 531
10 86 26 160 41 190 17 31 24 35 17 8z"/>
<path fill="#ffffff" stroke="none" d="M4840 2194 c164 -18 270 -39 286 -56
13 -14 56 -363 74 -593 5 -77 10 -207 10 -290 0 -82 0 -179 0 -213 2 -93 -9
-104 -139 -146 -204 -66 -343 -89 -541 -90 -224 -1 -354 25 -525 105 -62 28
-67 35 -61 81 2 21 -2 45 -9 55 -34 48 -81 519 -70 703 7 116 38 309 56 342
15 29 57 44 179 66 284 52 507 63 740 36z"/>
<path fill="#000000" stroke="none" d="M5118 5641 c-83 -27 -138 -62 -201
-130 -70 -77 -97 -144 -97 -246 0 -102 27 -169 97 -246 96 -103 202 -149 348
-149 146 0 252 46 348 149 70 77 97 144 97 246 0 102 -27 169 -97 246 -64 69
-118 103 -204 130 -80 25 -213 25 -291 0z"/>
<path fill="#ffffff" stroke="none" d="M5450 5574 c84 -41 138 -89 175 -155
28 -50 30 -62 30 -154 0 -92 -2 -104 -30 -154 -37 -66 -91 -114 -175 -155 -62
-29 -71 -31 -185 -31 -114 0 -123 2 -185 31 -84 41 -138 89 -175 155 -28 50
-30 62 -30 154 0 85 3 106 23 142 47 89 118 147 227 186 39 13 74 17 155 14
93 -2 112 -6 170 -33z"/>
<path fill="#000000" stroke="none" d="M3783 5355 c-86 -24 -169 -71 -241
-140 -110 -103 -162 -222 -162 -370 0 -148 52 -267 162 -370 114 -108 232
-155 388 -155 156 0 274 47 388 155 110 103 162 222 162 370 0 148 -52 267
-162 370 -74 70 -155 117 -245 140 -71 19 -221 18 -290 0z"/>
<path fill="#ffffff" stroke="none" d="M4060 5309 c138 -32 265 -135 327 -265
37 -78 38 -81 38 -199 0 -118 -1 -121 -38 -199 -62 -130 -189 -233 -327 -265
-58 -13 -202 -13 -260 0 -138 32 -265 135 -327 265 -37 78 -38 81 -38 199 0
118 1 121 38 199 61 128 190 234 323 265 54 12 210 13 264 0z"/>
<path fill="#000000" stroke="none" d="M5547 4649 c-111 -38 -200 -108 -268
-213 -56 -85 -79 -168 -79 -281 0 -153 54 -280 161 -381 161 -152 401 -180
582 -67 102 62 193 179 227 291 27 87 27 227 0 314 -34 112 -125 229 -227 291
-110 68 -276 88 -396 46z"/>
<path fill="#ffffff" stroke="none" d="M5883 4581 c91 -44 165 -119 214 -217
l38 -78 0 -131 0 -131 -38 -78 c-49 -98 -122 -173 -214 -218 -66 -32 -72 -33
-188 -33 -116 0 -122 1 -188 33 -92 45 -165 120 -214 218 l-38 78 0 130 c0
122 2 135 28 191 59 126 148 211 267 255 45 17 74 20 160 17 95 -2 112 -6 173
-36z"/>
<path fill="#000000" stroke="none" d="M4420 4208 c-108 -41 -201 -126 -248
-226 -24 -51 -27 -69 -27 -167 0 -98 3 -116 27 -167 71 -153 222 -248 393
-248 171 0 322 95 393 248 24 51 27 69 27 167 0 98 -3 116 -27 167 -47 101
-140 186 -251 227 -79 29 -209 29 -287 -1z"/>
<path fill="#ffffff" stroke="none" d="M4735 4146 c75 -37 139 -102 173 -174
24 -50 27 -70 27 -157 0 -87 -3 -107 -27 -157 -34 -73 -98 -137 -174 -174 -54
-27 -68 -29 -169 -29 -101 0 -115 2 -169 29 -73 36 -135 96 -173 168 -26 49
-28 62 -28 163 0 97 3 115 24 155 37 69 76 115 131 150 76 49 122 60 230 57
82 -2 104 -7 155 -31z"/>
<path fill="#000000" stroke="none" d="M3395 3832 c-229 -77 -375 -277 -375
-512 0 -181 80 -333 232 -440 276 -194 672 -98 823 199 75 149 75 333 0 482
-122 241 -420 360 -680 271z"/>
<path fill="#ffffff" stroke="none" d="M3721 3794 c117 -35 225 -115 287 -212
98 -152 98 -372 0 -524 -38 -60 -127 -142 -187 -172 -150 -76 -342 -76 -492 0
-60 30 -149 112 -187 172 -98 152 -98 372 0 524 36 58 126 141 182 170 113 58
281 76 397 42z"/>
<path fill="#000000" stroke="none" d="M5151 3354 c-196 -53 -365 -220 -416
-414 -19 -70 -19 -210 0 -280 52 -196 221 -363 421 -415 76 -20 220 -19 298 1
201 52 369 217 421 414 19 70 19 210 0 280 -52 196 -221 363 -421 415 -73 19
-231 19 -303 -1z"/>
<path fill="#ffffff" stroke="none" d="M5495 3292 c159 -59 281 -189 329 -351
9 -32 16 -91 16 -141 0 -185 -84 -338 -240 -439 -92 -60 -156 -76 -295 -76
-139 0 -203 16 -295 76 -156 101 -240 254 -240 439 0 242 150 437 390 506 72
21 261 13 335 -14z"/>
<path fill="#000000" stroke="none" d="M4470 1979 c-164 -10 -342 -28 -347
-33 -2 -2 -14 -53 -25 -112 -35 -184 -29 -515 13 -650 21 -67 114 -121 259
-150 69 -14 116 -16 250 -10 151 5 312 24 325 38 16 16 28 155 28 323 0 173
-8 269 -40 467 -9 61 -41 100 -93 115 -61 18 -208 23 -370 12z"/>
<path fill="#ffffff" stroke="none" d="M4847 1908 c16 -17 37 -97 60 -227 13
-73 17 -152 17 -333 0 -131 -2 -240 -5 -242 -5 -5 -176 -24 -274 -30 -165 -10
-388 27 -448 74 -71 56 -98 392 -52 656 9 49 19 92 23 96 28 27 652 32 679 6z"/>
</g>
</svg>
