<?xml version="1.0" standalone="no"?>
<!DOCTYPE svg PUBLIC "-//W3C//DTD SVG 20010904//EN"
 "http://www.w3.org/TR/2001/REC-SVG-20010904/DTD/svg10.dtd">
<svg version="1.0" xmlns="http://www.w3.org/2000/svg"
 width="702.000000pt" height="592.000000pt" viewBox="0 0 702.000000 592.000000"
 preserveAspectRatio="xMidYMid meet">
<metadata>
Created by potrace 1.16, written by Peter Selinger 2001-2019
</metadata>
<g transform="translate(0.000000,592.000000) scale(0.100000,-0.100000)"
fill="#000000" stroke="none">
<path fill="#000000" stroke="none" d="M0 2960 l0 -2960 3510 0 3510 0 0 2960
0 2960 -3510 0 -3510 0 0 -2960z"/>
<path fill="#ffffff" stroke="none" d="M3115 5898 c-311 -23 -745 -104 -1050
-197 -106 -32 -132 -52 -165 -124 -28 -59 -42 -115 -145 -565 -136 -593 -242
-1263 -386 -2444 l-11 -97 -157 -52 c-345 -115 -614 -253 -847 -435 -180 -140
-301 -314 -334 -477 -4 -23 -8 958 -9 2181 l-1 2222 1613 -1 c1031 -1 1569 -5
1492 -11z"/>
<path fill="#ffffff" stroke="none" d="M7009 3813 c-1 -1154 -3 -2089 -5
-2078 -50 236 -199 420 -466 576 -218 127 -608 244 -889 265 l-85 7 -18 106
c-44 263 -164 745 -282 1133 -190 626 -590 1779 -637 1836 -36 45 -144 87
-366 143 -232 59 -395 85 -641 102 -25 2 728 4 1673 5 l1717 2 -1 -2097z"/>
<path fill="#ffffff" stroke="none" d="M3733 5785 c75 -8 179 -22 230 -30 183
-32 530 -128 568 -158 29 -23 371 -971 550 -1527 180 -556 326 -1145 384
-1549 l17 -113 -24 -25 c-64 -70 -252 -162 -498 -243 -227 -76 -463 -131 -760
-180 -69 -11 -139 -22 -156 -25 -31 -5 -31 -5 -37 42 -3 27 -12 52 -22 59 -22
16 -158 52 -270 72 -139 25 -465 21 -685 -7 -96 -12 -192 -27 -213 -33 -50
-15 -113 -71 -129 -115 l-13 -36 -115 6 c-216 11 -538 62 -780 123 -150 38
-292 102 -324 146 -19 27 -19 30 -2 170 41 337 178 1296 247 1728 112 700 245
1321 312 1459 14 29 41 39 262 96 274 71 631 132 860 148 142 10 473 5 598 -8z"/>
<path fill="#ffffff" stroke="none" d="M5794 2454 c319 -50 616 -166 824 -324
102 -78 170 -158 217 -255 46 -97 59 -161 53 -266 -5 -75 -11 -100 -41 -164
-108 -227 -329 -405 -792 -640 -218 -111 -336 -163 -565 -248 -519 -194 -1213
-357 -1775 -417 -169 -18 -575 -24 -760 -11 -948 67 -1962 385 -2507 788 -383
283 -428 603 -127 904 167 167 531 362 922 495 71 24 135 44 143 44 22 0 17
-31 -10 -59 -36 -38 -73 -118 -86 -188 -21 -109 -8 -343 29 -518 18 -82 40
-168 50 -191 46 -103 247 -265 428 -343 231 -100 406 -138 861 -187 46 -5 52
-8 52 -29 0 -68 35 -95 204 -154 138 -49 247 -65 431 -64 280 1 657 78 712
145 6 7 15 44 20 83 l8 70 60 7 c33 3 114 11 180 18 156 15 433 62 560 94 234
59 475 159 646 266 117 74 155 113 168 169 29 128 42 497 20 617 -14 81 -47
181 -76 231 -26 46 -76 93 -98 93 -7 0 -15 11 -17 25 l-5 25 85 0 c46 0 130
-7 186 -16z"/>
<path fill="#ffffff" stroke="none" d="M5619 2265 c52 -109 56 -147 54 -437
-1 -158 -6 -283 -13 -308 -21 -78 -102 -146 -295 -247 -291 -152 -696 -250
-1186 -288 l-86 -7 -6 149 c-7 140 -49 627 -63 712 -6 39 -6 40 27 45 719 124
1150 253 1376 411 35 25 75 45 88 45 17 0 25 6 25 17 0 30 49 -26 79 -92z"/>
<path fill="#ffffff" stroke="none" d="M1383 2201 c-3 -14 9 -27 54 -55 178
-113 417 -193 703 -235 148 -23 356 -41 458 -41 53 0 63 -3 58 -15 -14 -38
-27 -249 -21 -345 5 -91 31 -356 51 -530 l6 -56 -98 8 c-225 17 -498 73 -671
137 -166 61 -321 155 -430 259 -56 54 -64 66 -87 144 -57 185 -93 424 -81 531
10 86 26 160 41 190 17 31 24 35 17 8z"/>
<path fill="#ffffff" stroke="none" d="M3660 2064 c164 -18 270 -39 286 -56
24 -26 82 -610 85 -858 2 -253 -1 -308 -19 -330 -21 -25 -152 -70 -305 -104
-335 -76 -628 -54 -882 65 -62 28 -67 35 -61 81 2 21 -2 45 -9 55 -17 24 -52
260 -66 446 -15 200 0 416 41 566 14 53 40 70 149 92 274 56 541 71 781 43z"/>
<path fill="#ffffff" stroke="none" d="M7010 800 l0 -790 -1767 0 c-971 0
-1764 3 -1761 6 3 3 66 10 139 15 989 71 2239 466 2909 920 259 175 426 384
463 578 6 34 13 61 14 61 2 0 3 -355 3 -790z"/>
<path fill="#ffffff" stroke="none" d="M60 1185 c159 -332 781 -706 1540 -924
386 -111 888 -206 1219 -231 74 -5 137 -12 139 -15 3 -3 -659 -5 -1471 -5
l-1477 0 1 663 c1 386 5 644 10 620 4 -24 22 -72 39 -108z"/>
<path fill="#000000" stroke="none" d="M3290 1849 c-164 -10 -342 -28 -347
-33 -2 -2 -13 -53 -25 -112 -35 -185 -29 -515 13 -650 21 -67 114 -121 259
-150 69 -14 116 -16 250 -10 151 5 312 24 325 38 16 16 28 155 28 323 0 173
-8 269 -40 467 -9 61 -41 100 -93 115 -61 18 -208 23 -370 12z"/>
<path fill="#ffffff" stroke="none" d="M3667 1778 c16 -16 37 -97 60 -227 13
-73 17 -152 17 -333 0 -131 -2 -240 -5 -242 -5 -5 -171 -23 -274 -30 -162 -11
-387 27 -448 74 -71 56 -98 392 -52 656 9 49 19 92 23 96 29 27 652 33 679 6z"/>
</g>
</svg>
