<?xml version="1.0" standalone="no"?>
<!DOCTYPE svg PUBLIC "-//W3C//DTD SVG 20010904//EN"
 "http://www.w3.org/TR/2001/REC-SVG-20010904/DTD/svg10.dtd">
<svg version="1.0" xmlns="http://www.w3.org/2000/svg"
 width="1202.000000pt" height="1476.000000pt" viewBox="0 0 1202.000000 1476.000000"
 preserveAspectRatio="xMidYMid meet">
<metadata>
Created by potrace 1.16, written by Peter Selinger 2001-2019
</metadata>
<g transform="translate(0.000000,1476.000000) scale(0.100000,-0.100000)"
fill="#000000" stroke="none">
<path fill="#000000" stroke="none" d="M0 7380 l0 -7380 6010 0 6010 0 0 7380
0 7380 -6010 0 -6010 0 0 -7380z"/>
<path fill="#ffffff" stroke="none" d="M12010 7380 l0 -7370 -6000 0 -6000 0
0 7370 0 7370 6000 0 6000 0 0 -7370z"/>
<path fill="#000000" stroke="none" d="M3900 14298 c-10 -17 -28 -66 -40 -110
-47 -174 -60 -397 -40 -663 5 -71 14 -248 20 -392 18 -444 44 -619 158 -1070
l49 -192 -24 -73 c-34 -103 -61 -229 -69 -326 -6 -72 -5 -82 10 -82 18 0 19
-29 8 -130 l-7 -55 -33 80 c-57 137 -224 420 -339 575 -73 97 -210 233 -297
293 -198 138 -509 236 -660 208 -93 -17 -169 -57 -229 -120 -64 -67 -80 -95
-106 -189 -40 -146 -36 -348 10 -527 12 -44 48 -136 81 -205 164 -345 280
-499 758 -1011 107 -114 156 -177 234 -299 55 -85 119 -192 144 -238 33 -62
192 -407 248 -538 3 -8 -30 -13 -103 -17 l-108 -5 -85 57 c-280 191 -573 327
-1060 492 -356 121 -534 149 -955 149 -296 0 -435 -10 -595 -41 -211 -41 -336
-88 -498 -186 -179 -109 -302 -238 -337 -357 -24 -80 -19 -191 10 -254 36 -78
133 -170 225 -215 184 -90 405 -96 764 -22 186 38 295 52 742 92 323 29 593
33 974 16 l195 -8 -56 -37 c-91 -60 -121 -102 -168 -242 -24 -69 -48 -157 -55
-197 l-12 -73 -48 -17 c-26 -10 -54 -23 -62 -29 -25 -22 -17 -74 20 -122 l35
-45 -16 -54 c-9 -30 -38 -99 -64 -154 -70 -146 -93 -236 -92 -370 0 -210 75
-337 248 -422 53 -27 248 -93 420 -143 159 -46 247 -86 289 -129 l28 -29 -43
-23 c-60 -30 -97 -57 -109 -79 -8 -15 -2 -24 40 -55 28 -20 50 -40 50 -43 0
-4 -23 -20 -51 -37 -55 -33 -358 -336 -425 -425 -103 -138 -184 -250 -220
-304 l-38 -58 -9 28 c-4 16 -9 102 -10 191 l-2 161 60 18 c86 26 173 79 181
110 10 41 -137 327 -325 633 -95 156 -127 191 -172 191 -33 0 -35 2 -79 102
-58 132 -93 180 -123 173 -21 -6 -26 3 -66 115 l-44 122 29 23 c25 20 27 25
15 39 -7 9 -22 16 -32 16 -25 0 -99 -30 -100 -41 -5 -28 -1 -34 25 -39 26 -5
31 -14 70 -120 23 -63 45 -120 49 -127 5 -7 0 -16 -12 -22 -37 -20 -35 -48 10
-157 23 -57 41 -105 38 -107 -2 -1 -43 -15 -92 -31 -100 -31 -130 -54 -146
-112 -10 -38 -8 -51 24 -145 20 -57 50 -139 67 -183 30 -75 30 -79 15 -106
-56 -94 21 -240 197 -372 98 -74 166 -137 166 -156 0 -7 -38 -95 -83 -195 -46
-100 -89 -201 -95 -223 -16 -54 -1 -231 23 -294 24 -59 70 -108 117 -120 83
-23 240 41 434 175 49 35 96 70 103 79 15 18 36 22 26 6 -4 -6 -2 -16 3 -23 7
-8 3 -58 -13 -157 -12 -80 -33 -209 -45 -288 -17 -113 -79 -377 -105 -449 -3
-9 -15 -5 -41 12 -72 49 -137 27 -219 -72 -98 -120 -195 -384 -195 -532 0 -44
30 -77 78 -87 18 -4 32 -10 32 -13 0 -4 -20 -62 -44 -128 -76 -208 -180 -661
-192 -833 -6 -82 -8 -87 -45 -125 -57 -60 -82 -124 -87 -225 -5 -103 14 -177
64 -251 40 -60 44 -110 19 -250 -33 -192 -78 -321 -166 -476 -75 -132 -236
-278 -366 -330 -49 -20 -55 -21 -100 -6 -26 8 -101 17 -165 20 -135 7 -221 -9
-325 -58 -96 -45 -186 -165 -200 -264 -7 -55 2 -67 76 -102 44 -22 74 -28 141
-30 47 -1 105 -10 130 -19 37 -13 71 -15 190 -11 207 7 325 43 490 149 30 19
93 55 140 78 138 69 294 167 339 211 l41 42 -6 161 c-6 144 -5 169 14 241 36
139 107 319 157 401 26 43 81 140 122 214 41 74 173 286 293 470 119 184 246
382 281 439 64 104 109 161 127 161 23 0 102 -149 245 -465 125 -274 275 -569
345 -675 30 -47 69 -107 85 -135 40 -66 237 -445 237 -455 0 -4 -17 -4 -37 1
-81 19 -350 41 -430 35 -90 -7 -216 -42 -285 -81 -102 -57 -193 -166 -216
-257 -41 -167 -46 -198 -34 -210 10 -10 17 -10 33 0 17 11 24 10 48 -7 25 -18
68 -28 208 -47 25 -4 33 -10 38 -34 8 -38 37 -40 51 -5 l9 26 160 2 c132 2
162 -1 172 -13 10 -13 15 -13 40 1 15 9 48 20 73 24 44 6 210 48 240 59 13 5
15 -7 15 -76 1 -100 23 -154 95 -228 29 -29 51 -63 55 -82 13 -60 58 -138 106
-183 35 -33 65 -49 120 -67 66 -20 91 -23 228 -21 339 5 541 69 541 170 0 30
-55 135 -94 179 -53 62 -134 111 -254 155 -166 60 -288 126 -353 189 -30 30
-61 65 -68 77 -10 21 -8 23 31 33 109 28 368 115 419 141 47 23 59 35 69 65 7
20 9 50 6 67 -4 20 -1 36 9 47 11 12 19 53 26 116 5 55 23 171 40 259 37 198
129 585 139 585 4 0 27 -11 51 -24 165 -92 431 -140 741 -134 l187 3 5 -25 c3
-14 9 -77 12 -140 6 -96 3 -134 -15 -230 -14 -70 -22 -145 -20 -195 1 -44 -4
-96 -10 -115 -18 -56 -13 -94 17 -133 38 -51 182 -107 378 -146 328 -66 1019
-141 1435 -157 164 -6 190 -5 210 10 13 9 43 16 69 16 25 0 76 9 114 19 38 11
75 17 82 14 26 -10 26 27 0 119 -34 116 -75 188 -145 257 -64 61 -121 93 -212
116 -101 27 -313 16 -573 -29 -286 -49 -480 -48 -642 5 l-60 19 9 53 c14 76
122 503 160 637 l34 115 44 6 c49 8 234 78 349 132 161 77 268 156 856 634 66
54 181 153 255 220 73 67 167 149 207 183 110 91 709 485 847 557 301 155 631
252 965 283 74 7 139 16 144 21 13 12 -121 46 -210 54 -52 4 -131 0 -219 -10
-76 -9 -139 -14 -142 -12 -6 7 221 67 367 98 203 42 340 58 611 73 241 14 460
9 620 -13 32 -4 61 -5 64 -3 30 30 -46 357 -134 579 -19 48 -83 187 -118 258
-9 17 -13 28 -10 25 10 -11 159 -203 170 -221 50 -80 1 103 -61 226 -85 172
-280 420 -453 578 -192 176 -523 335 -824 396 -227 45 -318 54 -550 48 -293
-6 -391 -25 -684 -127 -151 -53 -238 -89 -355 -146 -38 -19 -71 -33 -73 -30
-8 8 64 67 169 138 59 40 102 74 94 76 -7 2 -57 -13 -111 -32 -71 -26 -117
-50 -170 -91 -132 -101 -567 -531 -667 -660 -26 -33 -111 -141 -190 -240 -79
-99 -181 -230 -227 -290 -47 -61 -115 -146 -151 -190 -37 -44 -102 -127 -146
-185 -43 -58 -117 -152 -164 -210 -47 -58 -92 -117 -101 -130 -15 -23 -16 -21
-47 91 -95 350 -159 829 -177 1324 -13 347 -129 1965 -145 2024 -9 31 -6 39
25 77 l35 42 73 -28 c105 -40 268 -77 393 -90 60 -5 165 -17 233 -26 100 -13
131 -14 164 -4 l40 12 -6 86 c-8 113 -37 213 -96 337 -59 122 -96 174 -201
281 -45 46 -79 88 -76 93 4 5 -67 83 -157 173 -150 149 -233 245 -479 554 -47
60 -124 151 -171 202 l-84 93 -63 175 c-62 173 -64 177 -153 291 l-90 115 11
66 c6 37 19 77 29 91 30 39 81 61 143 61 261 1 523 84 662 209 69 62 134 156
144 206 4 22 14 36 32 45 53 23 125 86 178 154 47 59 54 74 54 112 0 34 -6 51
-28 75 -35 39 -92 50 -207 39 -93 -8 -112 1 -170 77 -40 52 -55 114 -80 328
-9 77 -32 230 -50 340 -19 110 -39 256 -45 325 -15 174 -18 186 -46 219 -23
28 -50 41 -116 55 l-28 6 0 183 c0 266 -32 567 -91 857 -42 212 -52 244 -70
248 -23 4 -148 -123 -254 -258 -157 -202 -302 -462 -356 -640 l-23 -75 -141 0
-141 0 -70 80 c-85 96 -158 164 -273 253 -47 36 -111 87 -141 112 -30 25 -67
55 -81 66 -430 324 -589 425 -854 539 -60 26 -136 60 -168 76 -31 16 -80 38
-107 49 l-50 20 -20 -32z"/>
<path fill="#ffffff" stroke="none" d="M4160 14186 c160 -72 338 -161 409
-207 227 -144 335 -223 652 -476 131 -105 261 -218 313 -274 l88 -94 -114 -11
c-150 -15 -324 -53 -501 -111 -43 -14 -80 -23 -81 -22 -2 2 -22 49 -46 104
-193 456 -498 848 -763 980 -116 59 -123 58 -136 -7 -14 -70 -29 -231 -37
-403 -11 -253 31 -701 96 -1020 16 -77 41 -207 55 -290 43 -247 80 -360 110
-335 7 6 16 23 20 37 12 48 132 282 178 345 24 35 92 109 151 165 58 56 106
107 106 112 0 21 -21 20 -85 -3 l-67 -24 24 25 c67 72 215 166 346 218 86 35
120 55 91 55 -26 0 7 18 71 38 89 29 300 78 385 91 80 12 377 25 479 22 93 -3
201 -23 332 -61 129 -38 133 -40 298 -143 111 -70 126 -83 110 -92 -10 -5 -35
-26 -55 -45 l-37 -35 -7 -180 c-12 -281 0 -787 20 -855 23 -75 112 -163 188
-184 105 -30 167 -30 247 -2 l74 25 32 -37 32 -37 -90 -17 c-102 -19 -154 -42
-181 -79 -25 -35 -26 -106 0 -157 l20 -41 -56 -8 c-31 -4 -168 -8 -306 -7
-230 0 -260 3 -375 27 -141 29 -285 72 -379 112 -191 80 -277 100 -426 100
-198 -1 -356 -46 -409 -117 -13 -18 -21 -49 -24 -87 -4 -51 0 -67 24 -113 47
-87 124 -155 256 -226 97 -52 142 -85 260 -191 188 -167 253 -240 355 -393 76
-116 167 -287 158 -297 -2 -2 -26 17 -52 42 -42 41 -104 71 -568 277 -286 127
-528 230 -537 230 -9 0 -39 26 -67 57 -48 54 -63 83 -42 83 21 0 21 44 2 103
-41 122 -162 295 -266 378 -96 77 -228 115 -346 101 -41 -5 -76 -8 -79 -7 -3
2 -1 58 4 126 8 110 7 123 -8 134 -15 11 -16 21 -7 74 13 78 59 247 77 283 10
19 11 34 4 50 -13 32 -104 400 -129 523 -52 254 -60 346 -86 965 -3 69 -10
177 -16 240 -19 203 12 494 70 642 l10 28 53 -24 c29 -13 109 -49 178 -80z"/>
<path fill="#ffffff" stroke="none" d="M4094 14050 c165 -80 379 -299 535
-548 94 -151 261 -487 261 -527 0 -2 -20 -13 -44 -23 -24 -11 -61 -35 -82 -54
-22 -19 -79 -60 -127 -93 -49 -32 -119 -91 -157 -132 -97 -104 -95 -110 19
-64 39 17 71 28 71 26 0 -2 -32 -34 -71 -72 -103 -99 -152 -169 -234 -336
l-74 -148 -10 38 c-22 76 -134 665 -155 813 -32 217 -49 515 -43 740 7 246 24
410 43 410 3 0 34 -13 68 -30z"/>
<path fill="#ffffff" stroke="none" d="M6598 13945 c41 -195 72 -397 93 -600
11 -117 21 -493 13 -506 -2 -5 -56 25 -119 66 -62 41 -144 90 -182 110 -68 35
-233 85 -352 106 l-63 11 6 37 c12 79 115 297 211 449 117 187 344 459 363
437 5 -6 18 -55 30 -110z"/>
<path fill="#ffffff" stroke="none" d="M6837 12754 c38 -28 43 -47 8 -34 -57
22 -122 9 -207 -41 -45 -27 -47 -27 -53 -8 -8 25 17 64 58 90 43 27 153 23
194 -7z"/>
<path fill="#ffffff" stroke="none" d="M6835 12686 c45 -19 52 -35 60 -146 4
-52 22 -185 40 -295 19 -110 45 -290 59 -400 14 -110 32 -220 40 -243 l15 -42
-37 -16 c-40 -18 -174 -32 -157 -17 6 5 26 21 47 36 27 20 43 44 62 94 31 81
32 98 8 115 -14 9 -21 32 -26 83 -9 93 -57 273 -96 358 -34 76 -97 150 -138
165 -44 15 -68 -2 -107 -75 l-36 -68 6 180 c4 99 11 185 17 192 15 18 111 70
149 81 47 14 55 14 94 -2z"/>
<path fill="#ffffff" stroke="none" d="M6717 12337 c48 -26 105 -128 144 -252
33 -109 64 -278 54 -295 -3 -4 -33 1 -67 12 -48 15 -82 18 -143 15 -44 -3 -90
-8 -102 -12 l-23 -7 0 167 c0 152 2 173 26 243 28 85 59 142 77 142 7 -1 22
-6 34 -13z"/>
<path fill="#ffffff" stroke="none" d="M2955 12285 c347 -119 532 -286 788
-712 104 -171 120 -202 189 -368 52 -123 107 -295 178 -555 17 -63 53 -185 80
-270 26 -85 65 -209 84 -275 42 -137 136 -562 172 -770 13 -77 30 -165 38
-195 9 -30 27 -109 42 -175 57 -259 137 -434 310 -683 82 -118 117 -232 118
-382 0 -73 -5 -111 -23 -164 -62 -190 -157 -305 -343 -415 -254 -152 -296
-181 -377 -258 -48 -44 -93 -93 -100 -107 -14 -26 -15 -26 -134 -26 -180 0
-207 -20 -311 -224 l-60 -116 -48 0 c-63 0 -74 18 -82 136 -3 51 -10 103 -16
118 -10 26 -10 26 43 26 110 0 247 51 371 139 86 61 140 120 203 222 59 94 76
150 77 244 0 100 -22 154 -94 226 -101 101 -261 149 -498 149 -108 0 -132 3
-170 21 -63 31 -186 31 -261 0 -29 -12 -54 -20 -55 -19 -1 2 2 71 8 153 17
272 -17 640 -72 781 -21 51 -21 52 -1 70 24 22 24 38 -1 62 -21 19 -20 19 60
72 122 80 340 160 523 191 73 12 398 8 430 -6 12 -5 17 -3 17 8 0 22 -25 29
-131 34 l-97 6 -72 166 c-157 359 -202 443 -356 676 -65 98 -130 179 -216 271
-336 356 -479 527 -592 704 -76 119 -214 407 -237 495 -31 114 -39 387 -14
489 33 136 95 217 210 273 70 34 70 34 190 30 107 -4 132 -8 230 -42z"/>
<path fill="#ffffff" stroke="none" d="M6853 11756 c18 -8 45 -26 60 -39 l28
-24 -17 -41 c-9 -23 -29 -51 -44 -62 l-27 -19 -12 40 c-16 52 -63 105 -108
120 -21 7 -57 9 -89 5 -33 -4 -54 -2 -54 4 0 29 206 41 263 16z"/>
<path fill="#ffffff" stroke="none" d="M6765 11669 c40 -36 66 -106 43 -120
-24 -16 -48 -10 -48 11 0 59 -66 117 -121 106 -29 -5 -45 6 -34 24 3 6 33 10
65 10 52 0 64 -4 95 -31z"/>
<path fill="#ffffff" stroke="none" d="M7451 11411 c16 -17 29 -40 29 -54 0
-34 -75 -134 -139 -184 -73 -59 -104 -67 -203 -54 -168 21 -239 59 -254 136
-15 82 21 116 151 144 127 27 196 35 170 20 -97 -56 -147 -186 -85 -219 44
-23 147 7 170 50 15 29 5 38 -19 16 -24 -21 -106 -47 -126 -40 -21 8 -19 52 4
94 26 50 157 120 224 120 40 0 53 -5 78 -29z"/>
<path fill="#ffffff" stroke="none" d="M5517 11335 c65 -14 180 -52 219 -73
77 -41 307 -106 489 -138 123 -21 474 -24 611 -5 86 12 96 11 165 -10 41 -12
75 -23 77 -24 6 -5 -26 -62 -53 -93 -23 -27 -29 -29 -58 -22 -67 18 -272 30
-527 30 -454 0 -660 32 -872 133 -132 63 -185 102 -167 123 7 8 9 17 6 20 -7
7 -75 -14 -104 -32 -33 -21 -28 -37 5 -20 27 14 30 13 78 -26 61 -50 247 -141
334 -163 194 -50 245 -56 620 -65 201 -6 421 -14 490 -20 114 -9 250 -37 268
-55 11 -12 -72 -79 -145 -118 -92 -48 -226 -84 -380 -102 -152 -18 -241 -19
-351 -4 -45 6 -87 9 -94 6 -20 -7 51 -35 105 -42 l48 -6 -22 -37 c-78 -129
-93 -225 -87 -569 3 -205 1 -253 -9 -253 -8 0 -42 30 -76 66 -48 52 -68 83
-88 138 -43 117 -108 232 -227 396 -69 95 -115 144 -277 289 -161 144 -177
157 -294 217 -116 61 -188 124 -230 205 -37 67 -38 116 -6 165 21 33 105 71
192 89 93 18 276 18 360 0z"/>
<path fill="#ffffff" stroke="none" d="M4325 11155 c120 -57 244 -194 316
-348 16 -34 31 -77 35 -94 6 -29 4 -33 -15 -33 -46 0 -14 -69 74 -156 l53 -53
-41 -187 -41 -186 26 -19 c26 -19 26 -20 12 -72 -87 -324 -67 -675 76 -1317
26 -116 60 -332 60 -380 l0 -35 -20 25 c-40 51 -176 286 -207 356 -60 136 -97
282 -178 694 -81 415 -144 681 -218 915 -41 132 -110 362 -152 510 -41 149
-87 298 -100 333 -14 34 -25 66 -25 72 0 12 82 18 187 15 70 -2 91 -8 158 -40z"/>
<path fill="#ffffff" stroke="none" d="M7215 11058 c-10 -32 -56 -116 -70
-128 -7 -6 -28 -3 -57 7 l-46 17 34 49 c19 27 34 55 34 63 0 10 15 14 56 14
53 0 55 -1 49 -22z"/>
<path fill="#ffffff" stroke="none" d="M5443 10200 c213 -95 387 -177 387
-182 0 -5 -9 -44 -19 -86 -21 -82 -51 -291 -51 -354 0 -21 -4 -38 -9 -38 -4 0
-102 55 -217 123 -115 68 -341 197 -502 286 -228 128 -291 167 -287 180 2 9
20 85 39 170 19 85 40 157 47 161 6 5 59 -13 118 -40 58 -26 280 -125 494
-220z"/>
<path fill="#ffffff" stroke="none" d="M6222 9968 c2 -103 0 -184 -4 -180 -13
13 -22 380 -12 477 l9 90 2 -100 c2 -55 4 -184 5 -287z"/>
<path fill="#ffffff" stroke="none" d="M6344 10247 l59 -77 -38 -41 c-38 -42
-95 -151 -95 -181 0 -9 -4 -20 -10 -23 -11 -7 -14 285 -3 374 5 42 9 51 17 39
6 -8 37 -49 70 -91z"/>
<path fill="#ffffff" stroke="none" d="M6460 10022 c18 -51 30 -95 28 -98 -3
-2 -28 22 -57 54 -35 41 -51 68 -51 88 0 29 29 70 40 57 4 -5 22 -50 40 -101z"/>
<path fill="#ffffff" stroke="none" d="M5073 9888 c150 -83 366 -207 481 -275
115 -68 215 -122 221 -119 8 3 15 36 19 88 4 46 9 95 12 111 l6 27 100 -52
c92 -49 103 -58 144 -119 48 -73 154 -179 178 -179 20 0 23 -13 41 -210 9 -91
22 -219 30 -285 8 -66 15 -131 15 -145 -1 -25 -1 -25 -31 10 -16 19 -68 89
-116 155 -129 181 -147 201 -211 232 -53 26 -65 28 -172 27 -219 -2 -416 -78
-536 -208 -68 -73 -82 -113 -44 -123 11 -3 20 -9 20 -14 0 -19 91 -61 144 -66
l55 -6 -15 -28 c-8 -16 -23 -33 -33 -39 -23 -12 -71 -105 -71 -137 0 -27 30
-32 50 -8 18 22 25 19 80 -24 64 -51 126 -65 249 -58 53 3 109 10 125 16 22 9
27 9 23 -1 -49 -116 -58 -145 -56 -178 3 -30 -3 -45 -28 -73 -87 -99 -136
-197 -191 -377 -22 -74 -43 -144 -45 -155 -3 -17 -6 -16 -16 10 -22 55 -423
849 -463 918 -22 38 -53 83 -69 100 -46 51 -36 10 22 -89 29 -48 158 -299 288
-558 197 -392 240 -472 258 -474 17 -3 40 15 90 66 l68 70 35 -30 c60 -51 168
-118 263 -164 78 -38 100 -44 142 -42 43 3 50 6 53 25 2 17 17 26 65 42 33 12
65 21 69 21 14 0 1 -820 -16 -1000 -17 -186 -17 -180 -52 -464 -14 -116 -23
-225 -19 -243 8 -46 85 -189 167 -311 83 -123 134 -182 158 -182 10 0 36 21
58 46 49 58 162 273 196 375 l25 75 -9 315 c-5 173 -12 377 -15 454 -3 77 -12
300 -20 495 -8 195 -20 409 -25 475 -6 66 -14 167 -19 225 l-8 105 41 46 c23
26 44 47 48 48 11 2 16 -54 48 -484 47 -627 90 -1280 100 -1520 11 -282 25
-451 55 -701 31 -257 79 -497 140 -713 19 -69 35 -136 35 -149 0 -31 -67 -164
-130 -256 -56 -84 -148 -178 -169 -174 -24 5 -135 237 -184 386 -81 242 -123
425 -158 692 -19 148 -26 146 -33 -10 -13 -258 -40 -428 -101 -620 -18 -58
-52 -172 -74 -253 -23 -81 -48 -163 -55 -182 l-15 -35 -52 31 c-97 57 -173
122 -370 319 -169 168 -208 212 -275 315 -138 213 -222 390 -343 725 -37 100
-62 156 -72 158 -11 2 -30 -35 -72 -139 -31 -77 -82 -183 -112 -235 -55 -92
-212 -300 -221 -291 -5 4 21 166 49 315 12 62 13 63 86 120 96 74 125 124 116
200 -4 30 -20 83 -35 118 l-29 64 41 203 c64 318 62 301 49 622 -7 160 -16
439 -21 620 -9 325 -18 438 -41 526 -6 24 -11 58 -11 74 0 17 2 77 3 135 3
100 -16 221 -42 272 -5 9 -16 79 -24 155 -19 166 -28 220 -99 568 -90 441
-110 701 -72 947 17 107 42 208 52 208 3 0 128 -68 277 -152z"/>
<path fill="#ffffff" stroke="none" d="M6332 9900 c-7 -109 -8 -115 -29 -118
-20 -3 -23 1 -23 30 0 55 43 218 55 206 2 -2 1 -56 -3 -118z"/>
<path fill="#ffffff" stroke="none" d="M6007 9866 c51 -50 93 -92 93 -95 0 -4
-16 -11 -35 -17 -32 -10 -41 -7 -135 43 -55 30 -100 59 -100 64 0 5 7 39 16
75 l17 65 26 -23 c14 -13 68 -63 118 -112z"/>
<path fill="#ffffff" stroke="none" d="M6569 9771 c78 -84 180 -203 229 -263
210 -265 325 -401 445 -524 l127 -131 -31 -7 c-17 -3 -78 -6 -134 -6 -143 0
-190 -22 -350 -165 -120 -106 -195 -168 -199 -164 -2 2 -16 51 -31 109 -15 58
-53 193 -85 300 -33 107 -66 229 -75 270 -9 41 -26 105 -36 142 -15 52 -17 73
-9 88 13 24 14 260 2 305 -5 18 -19 35 -35 43 -30 15 -30 18 -20 136 l6 78 27
-29 c15 -15 91 -97 169 -182z"/>
<path fill="#ffffff" stroke="none" d="M1880 9859 c74 -11 164 -24 199 -30 66
-10 363 -104 596 -189 179 -66 408 -169 545 -247 124 -71 302 -185 296 -190
-1 -2 -42 -15 -89 -28 -47 -14 -106 -34 -131 -45 -25 -10 -48 -15 -51 -10 -3
4 -24 11 -48 15 -248 38 -452 103 -762 243 -210 95 -421 156 -695 203 -181 30
-482 33 -610 6 -191 -41 -409 -118 -508 -181 -106 -66 -164 -156 -165 -251 -1
-99 45 -168 142 -214 52 -24 66 -26 191 -26 131 0 141 2 325 51 234 64 270 70
470 86 315 25 1247 13 1448 -19 l38 -6 -46 -31 -47 -31 -216 9 c-350 14 -659
11 -867 -7 -104 -9 -244 -21 -310 -27 -250 -22 -405 -43 -555 -75 -278 -60
-424 -67 -609 -29 -153 31 -292 130 -346 245 -29 64 -33 157 -10 235 33 111
142 229 305 331 159 99 283 147 487 188 174 36 260 42 593 44 251 1 315 -2
430 -20z"/>
<path fill="#ffffff" stroke="none" d="M5921 9764 c86 -45 89 -47 89 -81 l0
-35 -32 20 c-18 11 -63 36 -99 56 -59 32 -66 39 -61 61 2 14 6 25 9 25 3 0 45
-21 94 -46z"/>
<path fill="#ffffff" stroke="none" d="M6381 9734 c4 -2 10 -24 13 -49 8 -50
5 -55 -113 -195 -31 -36 -56 -67 -58 -69 -3 -6 -53 36 -75 64 -27 34 -20 49
80 172 76 93 77 94 112 88 19 -4 38 -9 41 -11z"/>
<path fill="#ffffff" stroke="none" d="M6118 9675 c-29 -36 -56 -61 -60 -57
-16 16 -19 67 -5 86 11 16 55 30 104 35 7 0 -11 -28 -39 -64z"/>
<path fill="#ffffff" stroke="none" d="M6228 9712 c-78 -96 -109 -136 -117
-150 -17 -30 -25 -2 -9 31 21 43 116 147 135 147 11 0 9 -7 -9 -28z"/>
<path fill="#ffffff" stroke="none" d="M1740 9550 c288 -48 500 -115 800 -250
152 -69 378 -143 520 -171 63 -12 121 -24 129 -26 9 -2 -4 -13 -30 -27 -43
-21 -48 -22 -139 -9 -119 16 -867 35 -1100 28 -444 -14 -588 -33 -855 -110
-121 -36 -140 -38 -265 -39 -131 -1 -137 0 -195 29 -96 48 -135 127 -114 226
10 45 21 63 73 115 34 34 88 75 121 92 135 67 377 142 526 161 110 15 391 5
529 -19z"/>
<path fill="#ffffff" stroke="none" d="M6376 9521 c-41 -58 -96 -121 -108
-121 -16 0 -6 16 61 95 67 79 93 93 47 26z"/>
<path fill="#ffffff" stroke="none" d="M6400 9470 c0 -22 -41 -70 -60 -70 -6
0 3 20 21 45 18 25 34 45 36 45 2 0 3 -9 3 -20z"/>
<path fill="#ffffff" stroke="none" d="M6387 9343 c-3 -3 -15 2 -27 10 -20 14
-20 15 -3 19 17 4 40 -18 30 -29z"/>
<path fill="#ffffff" stroke="none" d="M6358 9316 c28 -16 52 -35 52 -43 0 -8
-22 0 -60 24 -33 21 -60 42 -60 46 0 10 1 10 68 -27z"/>
<path fill="#ffffff" stroke="none" d="M6436 9158 c6 -29 18 -77 27 -106 11
-37 12 -50 4 -46 -7 4 -45 29 -84 56 -69 46 -73 51 -73 86 0 20 -3 61 -7 91
l-6 53 64 -40 c61 -39 65 -44 75 -94z"/>
<path fill="#ffffff" stroke="none" d="M5921 9109 c59 -20 94 -55 192 -191 86
-121 176 -235 331 -420 31 -37 53 -69 49 -71 -21 -13 -264 -111 -303 -123 -65
-19 -226 -44 -288 -44 l-53 0 20 26 c27 34 26 40 -5 69 l-26 24 20 43 c33 76
76 115 149 138 36 11 93 20 128 20 74 0 91 13 39 30 -64 21 -212 -14 -271 -65
-56 -47 -129 -68 -247 -69 -86 -1 -108 2 -147 22 -25 12 -56 33 -69 47 l-22
24 27 23 c26 23 27 25 12 59 -13 32 -13 38 2 66 54 101 238 171 428 161 82 -4
92 9 22 30 -103 30 -352 -31 -419 -104 -20 -21 -32 -24 -88 -24 -48 0 -74 6
-103 22 -37 20 -50 38 -30 38 31 0 48 55 27 88 -19 32 154 129 295 166 105 27
270 35 330 15z"/>
<path fill="#ffffff" stroke="none" d="M6438 8985 c53 -34 81 -69 67 -83 -2
-2 -44 24 -94 58 -63 43 -91 68 -91 82 0 23 -13 29 118 -57z"/>
<path fill="#ffffff" stroke="none" d="M6407 8923 c103 -71 122 -91 142 -158
43 -140 48 -138 -83 -40 -70 53 -118 96 -121 109 -8 42 -16 136 -11 136 3 0
36 -21 73 -47z"/>
<path fill="#ffffff" stroke="none" d="M2989 8883 c-1 -4 -37 -22 -81 -39 -47
-19 -74 -26 -66 -17 20 24 135 77 146 67 2 -1 3 -6 1 -11z"/>
<path fill="#ffffff" stroke="none" d="M5270 8885 c0 -8 -7 -15 -16 -15 -14 0
-14 3 -4 15 7 8 14 15 16 15 2 0 4 -7 4 -15z"/>
<path fill="#ffffff" stroke="none" d="M2992 8744 c37 -109 56 -257 63 -469
l5 -180 -24 90 c-38 143 -63 201 -110 248 -70 72 -125 71 -189 -4 -20 -23 -40
-39 -44 -36 -10 10 14 128 48 233 26 82 35 98 72 128 45 37 125 78 142 73 6
-2 22 -39 37 -83z"/>
<path fill="#ffffff" stroke="none" d="M7433 8764 c185 -153 319 -389 357
-627 18 -109 17 -111 -83 -104 -168 12 -435 46 -517 66 -100 24 -230 70 -230
82 0 13 122 156 264 309 43 47 99 111 123 143 l45 58 -17 45 c-9 24 -21 46
-26 49 -14 9 -11 35 4 35 7 0 43 -25 80 -56z"/>
<path fill="#ffffff" stroke="none" d="M7298 8793 c10 -10 29 -34 41 -54 l21
-36 -78 -91 c-42 -50 -117 -135 -166 -189 -49 -54 -127 -145 -174 -203 -159
-198 -413 -463 -517 -540 -85 -63 -97 -69 -205 -106 -47 -16 -87 -30 -89 -31
-2 -1 2 -10 10 -19 13 -16 11 -17 -26 -10 -55 10 -203 86 -294 151 -42 29
-107 85 -145 123 l-68 70 17 58 c21 73 46 123 101 199 75 105 74 105 219 115
130 10 261 37 338 70 23 10 98 41 167 70 207 87 227 100 446 295 133 119 187
144 305 145 59 0 81 -4 97 -17z"/>
<path fill="#ffffff" stroke="none" d="M6518 8645 c67 -50 101 -89 89 -102 -4
-4 -252 209 -256 220 -2 6 16 -4 42 -23 25 -19 81 -62 125 -95z"/>
<path fill="#ffffff" stroke="none" d="M6491 8593 c128 -110 127 -108 90 -127
-16 -9 -34 -16 -40 -16 -5 0 -48 45 -95 101 -59 69 -86 109 -86 126 0 24 2 25
18 11 9 -8 60 -51 113 -95z"/>
<path fill="#ffffff" stroke="none" d="M5426 8638 c7 -10 -56 -71 -65 -63 -5
6 40 75 49 75 5 0 12 -5 16 -12z"/>
<path fill="#ffffff" stroke="none" d="M2853 8451 c14 -6 37 -22 52 -38 27
-27 78 -123 70 -131 -2 -2 -23 9 -47 26 -53 36 -114 67 -150 76 -36 8 -35 18
3 50 34 29 38 30 72 17z"/>
<path fill="#ffffff" stroke="none" d="M5850 8321 c0 -11 -29 -35 -35 -29 -10
9 7 38 21 38 8 0 14 -4 14 -9z"/>
<path fill="#ffffff" stroke="none" d="M2941 8253 c44 -40 63 -71 74 -121 l7
-34 -32 17 c-40 21 -119 21 -157 2 -57 -30 -103 -104 -103 -164 1 -41 33 -105
69 -135 17 -15 31 -30 31 -33 0 -12 -104 7 -148 27 -71 34 -87 67 -87 178 1
76 5 105 24 146 43 98 123 152 228 153 47 1 57 -3 94 -36z"/>
<path fill="#ffffff" stroke="none" d="M2987 8073 c29 -19 38 -39 48 -110 11
-86 -39 -143 -127 -143 -87 0 -144 63 -136 152 11 105 126 159 215 101z"/>
<path fill="#ffffff" stroke="none" d="M2597 7842 c10 -15 45 -40 77 -56 50
-25 70 -30 135 -29 42 0 93 5 114 11 28 8 37 7 36 -1 -2 -32 -20 -49 -87 -82
-115 -58 -166 -143 -167 -280 0 -72 4 -88 38 -159 20 -43 37 -80 37 -82 0 -5
-35 9 -94 36 -60 29 -149 109 -182 165 -75 129 -64 354 28 561 l21 49 12 -53
c7 -30 21 -66 32 -80z"/>
<path fill="#ffffff" stroke="none" d="M6718 7809 l-3 -30 -34 29 -34 28 29
33 29 32 8 -31 c4 -18 7 -45 5 -61z"/>
<path fill="#ffffff" stroke="none" d="M3325 7861 l40 -7 -62 -32 c-83 -43
-167 -64 -221 -56 -23 3 -45 10 -47 15 -8 11 83 56 148 74 59 16 86 17 142 6z"/>
<path fill="#ffffff" stroke="none" d="M3400 7820 c0 -21 -85 -102 -130 -124
-66 -34 -93 -38 -164 -25 -75 13 -129 42 -124 67 4 18 7 18 84 1 67 -15 138 0
241 51 86 42 93 45 93 30z"/>
<path fill="#ffffff" stroke="none" d="M3830 7795 c132 -41 233 -116 274 -205
26 -57 28 -164 3 -236 -21 -62 -99 -180 -158 -241 -126 -130 -324 -221 -459
-211 -44 3 -67 12 -115 45 -68 45 -152 81 -270 113 -44 12 -122 35 -172 51
-104 34 -112 42 -165 154 -39 84 -44 134 -24 216 24 93 55 131 140 175 l73 37
44 -21 c25 -12 69 -26 99 -32 29 -6 54 -11 56 -13 1 -1 4 -24 5 -52 l4 -50
-40 -13 c-103 -34 -166 -6 -209 93 -3 6 -12 1 -20 -9 -18 -22 -21 -40 -6 -31
5 3 15 -5 21 -19 14 -29 72 -72 111 -81 32 -8 79 -57 138 -146 77 -115 119
-149 183 -149 105 0 185 89 301 333 35 73 81 159 102 192 32 49 43 60 64 58
24 -2 23 -2 -5 12 -34 16 -85 20 -85 6 0 -5 6 -11 13 -14 20 -7 -124 -119
-200 -154 -65 -30 -232 -65 -293 -61 -45 3 -45 3 -51 45 l-5 42 60 22 c63 23
169 111 182 152 6 19 12 20 178 14 118 -4 188 -11 226 -22z"/>
<path fill="#ffffff" stroke="none" d="M5660 7744 c0 -14 -76 -101 -100 -114
-17 -9 -17 -7 -4 53 8 34 19 79 25 101 l10 39 35 -34 c19 -18 34 -38 34 -45z"/>
<path fill="#ffffff" stroke="none" d="M6670 7774 c49 -39 58 -54 59 -97 l1
-29 -52 42 c-29 23 -63 50 -76 61 -22 17 -23 18 -5 38 10 10 20 20 23 20 3 0
25 -15 50 -35z"/>
<path fill="#ffffff" stroke="none" d="M6649 7670 l88 -70 7 -116 c4 -64 5
-118 3 -120 -2 -3 -75 57 -162 133 l-157 137 24 20 c58 49 103 86 106 86 1 0
42 -31 91 -70z"/>
<path fill="#ffffff" stroke="none" d="M4969 7613 c6 -38 16 -201 21 -363 6
-162 14 -401 20 -530 19 -435 16 -495 -32 -742 l-42 -216 -72 136 c-78 152
-173 309 -254 423 -88 123 -197 256 -232 282 -34 26 -143 67 -178 67 -31 0
-25 13 31 66 122 117 130 126 127 148 -3 19 -13 22 -107 33 -57 7 -108 14
-114 16 -6 2 20 35 58 75 71 76 180 153 380 270 66 38 148 95 182 126 66 61
153 182 173 240 6 20 15 36 19 36 5 0 13 -30 20 -67z"/>
<path fill="#ffffff" stroke="none" d="M3629 7542 l-56 -118 -52 -13 c-64 -16
-153 -74 -209 -135 -24 -25 -47 -44 -53 -41 -5 4 -30 37 -54 73 l-45 67 47 6
c130 17 173 44 173 109 0 33 4 40 19 40 44 0 154 44 213 84 35 24 65 44 68 45
3 0 -20 -52 -51 -117z"/>
<path fill="#ffffff" stroke="none" d="M6576 7461 c128 -112 173 -157 177
-178 3 -15 4 -29 3 -30 -1 -2 -89 74 -194 168 -174 154 -205 189 -169 189 7 0
89 -67 183 -149z"/>
<path fill="#ffffff" stroke="none" d="M6593 7350 l163 -145 7 -154 c4 -85 6
-155 4 -157 -2 -2 -94 80 -205 181 l-202 185 0 146 0 146 35 -29 c19 -15 108
-93 198 -173z"/>
<path fill="#ffffff" stroke="none" d="M3350 7493 c0 -42 -9 -50 -76 -67 -89
-23 -113 -21 -124 10 -6 14 -10 31 -10 38 0 15 64 34 130 39 25 2 53 4 63 5
12 2 17 -5 17 -25z"/>
<path fill="#ffffff" stroke="none" d="M3110 7460 c0 -5 -4 -10 -9 -10 -6 0
-13 5 -16 10 -3 6 1 10 9 10 9 0 16 -4 16 -10z"/>
<path fill="#ffffff" stroke="none" d="M2207 7310 c63 -127 65 -140 19 -140
-19 0 -41 -3 -49 -6 -11 -4 -24 18 -51 83 -52 123 -53 134 -19 155 15 10 33
16 38 15 6 -2 33 -50 62 -107z"/>
<path fill="#ffffff" stroke="none" d="M3512 7323 c-47 -69 -77 -98 -115 -112
-36 -14 -97 -14 -97 -1 0 18 70 88 121 121 47 30 120 61 127 54 2 -2 -14 -30
-36 -62z"/>
<path fill="#ffffff" stroke="none" d="M6598 6996 c151 -138 172 -161 172
-188 l0 -31 -47 44 c-27 24 -119 109 -205 188 -139 126 -158 147 -158 174 l0
31 33 -30 c17 -17 110 -101 205 -188z"/>
<path fill="#ffffff" stroke="none" d="M2382 7123 c22 -25 148 -225 148 -235
0 -4 -17 2 -37 14 -67 37 -88 48 -98 48 -6 0 -25 29 -43 65 -17 36 -37 65 -44
65 -23 0 -368 -69 -378 -75 -22 -13 -9 36 13 50 100 65 401 111 439 68z"/>
<path fill="#ffffff" stroke="none" d="M6592 6896 l185 -169 6 -146 c4 -79 6
-146 4 -147 -1 -1 -98 90 -215 203 l-212 205 0 130 0 130 24 -19 c13 -10 107
-94 208 -187z"/>
<path fill="#ffffff" stroke="none" d="M2320 7000 c11 -21 20 -41 20 -43 0 -2
-24 -9 -52 -16 -142 -32 -202 -111 -234 -306 l-6 -40 -24 53 c-29 65 -116 314
-111 318 5 6 331 71 359 73 23 1 31 -6 48 -39z"/>
<path fill="#ffffff" stroke="none" d="M2398 6914 c29 -8 28 -20 -1 -28 -63
-15 -167 -129 -167 -183 0 -35 12 -27 53 38 46 71 86 104 150 120 46 13 47 12
78 -16 33 -32 73 -111 63 -126 -3 -5 -12 -9 -20 -9 -55 0 -147 -86 -159 -148
-9 -47 9 -63 24 -21 25 73 104 139 166 139 33 0 53 -45 62 -135 7 -77 -11
-135 -63 -206 -33 -46 -36 -54 -30 -97 20 -147 20 -169 -3 -182 -16 -8 -40 -9
-88 -1 -60 9 -72 15 -117 59 -28 27 -88 76 -132 110 -97 73 -158 139 -190 207
-26 55 -30 86 -13 116 10 20 12 20 29 4 34 -30 46 -13 53 72 13 165 66 244
188 277 61 17 84 18 117 10z"/>
<path fill="#ffffff" stroke="none" d="M4290 6883 l44 -8 -38 -35 c-21 -19
-69 -65 -105 -101 -61 -61 -72 -67 -121 -74 -29 -4 -94 -21 -144 -37 -103 -33
-276 -51 -276 -29 0 18 86 183 120 229 50 69 69 74 285 68 105 -3 210 -9 235
-13z"/>
<path fill="#ffffff" stroke="none" d="M3435 6813 c4 -16 11 -70 15 -122 6
-86 9 -96 34 -118 28 -23 31 -24 186 -19 151 5 159 5 165 -14 3 -10 28 -39 56
-64 l49 -44 -11 -53 c-15 -71 -5 -201 20 -270 22 -57 75 -120 123 -145 15 -8
28 -21 28 -30 0 -33 -129 -312 -217 -471 l-35 -63 -42 35 c-94 77 -179 92
-302 54 -80 -25 -121 -44 -150 -70 -20 -19 -22 -19 -125 5 -109 25 -220 45
-279 49 l-35 2 -3 55 c-8 124 30 390 77 541 82 266 209 469 340 543 l45 25 19
-32 c12 -19 22 -27 24 -19 9 23 -39 102 -83 139 -25 20 -41 40 -37 44 10 10
116 69 124 69 4 0 10 -12 14 -27z"/>
<path fill="#ffffff" stroke="none" d="M6703 6462 c69 -69 88 -94 85 -112 -3
-20 -32 4 -218 180 -118 112 -215 207 -214 212 1 4 2 18 3 29 1 17 26 -2 129
-99 70 -66 167 -161 215 -210z"/>
<path fill="#ffffff" stroke="none" d="M2630 6720 c6 -11 8 -20 6 -20 -3 0
-10 9 -16 20 -6 11 -8 20 -6 20 3 0 10 -9 16 -20z"/>
<path fill="#ffffff" stroke="none" d="M6645 6413 l151 -142 1 -166 2 -167
-62 58 c-34 32 -140 133 -234 225 l-173 166 0 51 c0 28 5 97 11 152 l12 101
71 -68 c39 -38 139 -132 221 -210z"/>
<path fill="#ffffff" stroke="none" d="M10443 6646 c141 -24 267 -56 377 -94
51 -18 86 -34 242 -106 200 -92 477 -351 648 -606 64 -96 130 -212 130 -230 0
-7 -20 14 -44 47 -66 86 -163 189 -171 181 -4 -4 38 -100 93 -215 55 -114 109
-233 120 -263 60 -156 145 -490 130 -506 -3 -3 -35 0 -69 7 -85 16 -574 16
-749 0 -490 -44 -983 -179 -1288 -353 -40 -23 -69 -44 -64 -46 6 -2 52 14 103
34 241 95 537 155 754 153 l100 -1 -115 -15 c-318 -40 -737 -188 -1004 -355
-168 -105 -623 -412 -686 -463 -36 -28 -132 -112 -214 -186 -150 -135 -232
-203 -601 -502 -272 -220 -361 -282 -495 -349 -148 -74 -390 -164 -390 -145 0
1 23 71 50 156 56 171 85 281 95 356 8 68 -10 237 -40 365 -36 155 -110 525
-135 683 l-23 138 27 58 c20 45 25 68 20 102 -5 42 -2 47 63 130 37 48 111
142 163 209 52 67 128 163 168 214 40 50 110 138 154 196 45 58 143 182 218
275 75 94 174 220 222 280 91 117 363 398 540 558 59 53 110 97 113 97 2 0
-11 -21 -30 -46 -68 -89 -52 -87 203 30 150 68 424 165 550 195 243 57 559 63
835 17z"/>
<path fill="#ffffff" stroke="none" d="M2756 6487 c56 -111 56 -130 4 -157
-21 -11 -43 -20 -48 -20 -19 0 -36 96 -37 204 0 61 -4 120 -9 131 -15 36 45
-69 90 -158z"/>
<path fill="#ffffff" stroke="none" d="M4256 6622 c12 -6 1 -9 -37 -9 -80 -1
-163 -36 -222 -95 l-49 -50 -35 34 c-60 58 -60 63 5 87 93 35 182 51 254 46
37 -2 75 -8 84 -13z"/>
<path fill="#ffffff" stroke="none" d="M4355 6559 c32 -11 55 -34 118 -114 43
-55 102 -134 131 -175 104 -148 326 -555 372 -684 20 -55 17 -115 -6 -153 -23
-38 -160 -142 -266 -203 -97 -55 -107 -57 -124 -24 -19 35 -116 109 -184 140
l-55 25 121 117 120 118 -68 66 c-117 113 -317 280 -354 295 -135 56 -170 97
-196 228 -14 65 -15 90 -5 148 20 123 55 170 157 213 49 21 71 24 129 21 39
-3 88 -11 110 -18z"/>
<path fill="#ffffff" stroke="none" d="M3041 6302 c-82 -164 -142 -404 -156
-627 -3 -55 -8 -110 -11 -123 -3 -14 -39 -48 -97 -90 -238 -176 -406 -243
-486 -196 -36 21 -65 76 -82 152 -15 71 -9 83 33 72 152 -38 330 -2 388 80 18
25 18 32 5 125 l-14 99 74 108 c121 175 237 328 309 406 37 39 70 72 72 72 2
0 -13 -35 -35 -78z"/>
<path fill="#ffffff" stroke="none" d="M2663 6315 c2 -24 -3 -29 -37 -41 -22
-8 -41 -12 -44 -10 -2 3 11 25 29 51 34 47 48 48 52 0z"/>
<path fill="#ffffff" stroke="none" d="M6570 6110 c189 -183 237 -235 233
-251 -3 -11 -9 -19 -13 -17 -4 2 -114 107 -244 233 -180 175 -235 235 -230
248 3 9 8 17 11 17 3 0 112 -104 243 -230z"/>
<path fill="#ffffff" stroke="none" d="M6549 6028 c124 -123 227 -226 229
-230 5 -10 -71 -177 -80 -178 -5 0 -319 280 -397 355 -23 23 -23 23 -11 131
12 116 18 144 28 144 3 0 107 -100 231 -222z"/>
<path fill="#ffffff" stroke="none" d="M2506 6020 l51 0 7 -67 c3 -38 15 -122
26 -188 29 -171 29 -170 -27 -205 -67 -43 -114 -53 -218 -47 -90 5 -140 19
-149 42 -11 31 27 135 133 357 l60 127 33 -10 c18 -5 56 -9 84 -9z"/>
<path fill="#ffffff" stroke="none" d="M6480 5768 c110 -100 200 -184 200
-187 0 -3 -4 -12 -9 -20 -7 -10 -56 29 -204 160 -161 144 -195 179 -196 202
-1 15 1 27 4 27 3 0 96 -82 205 -182z"/>
<path fill="#ffffff" stroke="none" d="M4298 5818 c64 -55 144 -125 176 -156
l59 -56 -244 -238 c-134 -131 -247 -238 -250 -238 -3 0 -25 28 -48 63 -22 34
-59 87 -82 119 l-41 56 43 74 c69 117 190 379 223 481 8 25 26 14 164 -105z"/>
<path fill="#ffffff" stroke="none" d="M6470 5676 c80 -71 151 -135 159 -142
12 -11 12 -19 -3 -58 -9 -24 -28 -51 -41 -60 -22 -14 -25 -14 -49 11 -50 50
-256 379 -256 408 0 9 2 8 190 -159z"/>
<path fill="#ffffff" stroke="none" d="M5200 5435 c63 -203 231 -569 340 -741
94 -147 142 -204 334 -391 171 -167 256 -240 326 -278 19 -11 45 -28 57 -38
52 -45 73 -6 147 264 25 90 52 184 61 209 27 76 63 230 76 325 7 50 16 94 19
98 4 5 13 -22 20 -60 30 -174 134 -494 211 -653 70 -145 94 -180 121 -180 29
0 141 112 200 202 28 43 54 78 58 78 4 0 11 -28 14 -62 12 -109 103 -574 146
-750 12 -46 24 -135 27 -199 7 -138 -4 -194 -83 -438 -102 -312 -240 -817
-259 -954 -9 -56 -24 -67 -129 -91 -36 -9 -85 -26 -109 -37 -23 -12 -82 -35
-130 -50 -81 -27 -186 -83 -201 -108 -4 -6 -16 -11 -27 -11 -28 0 -40 39 -27
86 6 22 14 98 18 169 4 72 15 173 24 225 26 150 12 258 -84 640 -43 170 -54
210 -140 500 -57 190 -67 226 -100 340 -11 41 -51 139 -88 218 l-67 142 -34
-2 c-33 -3 -34 -4 -75 -113 -23 -60 -61 -148 -85 -195 -37 -72 -92 -208 -121
-300 -4 -14 -53 -146 -108 -295 -154 -415 -162 -437 -204 -604 -66 -264 -138
-653 -138 -748 0 -8 -22 -2 -65 17 -36 16 -95 38 -131 50 -67 20 -82 20 -211
-2 -129 -21 -136 -9 -134 242 2 184 -14 400 -45 607 -22 151 -29 480 -15 665
6 84 16 286 21 448 16 502 52 828 116 1060 22 77 34 102 65 135 140 148 266
343 339 528 24 59 46 104 50 100 4 -4 13 -26 20 -48z"/>
<path fill="#ffffff" stroke="none" d="M3715 5452 c57 -29 87 -57 154 -147
113 -149 191 -283 191 -327 0 -21 -37 -23 -124 -7 -47 8 -71 7 -131 -7 -71
-17 -74 -17 -106 2 -44 26 -72 74 -63 109 10 39 68 93 109 101 19 3 32 10 29
15 -10 17 -75 9 -105 -13 -32 -23 -69 -85 -69 -113 0 -11 -10 -15 -35 -15 -68
0 -105 68 -90 165 11 80 100 154 183 155 43 0 41 17 -3 26 -52 9 -115 -18
-165 -72 -45 -48 -57 -50 -104 -13 -73 57 5 120 199 163 30 6 96 -5 130 -22z"/>
<path fill="#ffffff" stroke="none" d="M3110 5414 c202 -40 203 -41 222 -84
12 -30 27 -45 62 -62 l46 -22 0 -63 c0 -113 37 -163 120 -163 40 0 48 -4 63
-29 38 -65 114 -86 210 -57 26 8 49 11 51 8 2 -4 14 -25 26 -47 12 -22 42 -75
66 -117 24 -43 44 -81 44 -85 0 -5 -12 -14 -27 -20 -16 -6 -73 -30 -128 -53
-149 -62 -217 -84 -350 -116 -113 -27 -132 -29 -335 -29 -223 1 -300 11 -393
52 -30 13 -38 21 -34 37 2 12 18 73 36 136 41 156 66 280 86 432 9 70 22 165
30 210 8 46 15 87 15 92 0 10 84 1 190 -20z"/>
<path fill="#ffffff" stroke="none" d="M4379 5315 c68 -32 145 -88 171 -125
l21 -29 -58 -29 c-136 -69 -400 -160 -414 -144 -3 4 -14 29 -23 57 l-16 50
122 122 c68 68 128 123 133 123 6 0 34 -11 64 -25z"/>
<path fill="#ffffff" stroke="none" d="M4771 5113 c-11 -59 -25 -141 -31 -181
-11 -70 -13 -73 -50 -92 -21 -11 -65 -44 -98 -75 -59 -54 -59 -54 -70 -31 -32
70 -127 139 -211 152 -90 14 -182 -73 -197 -189 -6 -45 -8 -47 -25 -31 -15 13
-159 253 -159 265 0 2 36 3 80 1 46 -3 86 0 93 6 6 6 55 22 107 37 143 41 407
159 535 239 22 13 41 21 43 16 2 -4 -6 -57 -17 -117z"/>
<path fill="#ffffff" stroke="none" d="M4375 4829 c57 -27 100 -76 139 -159
29 -60 31 -73 31 -170 -1 -119 -21 -194 -80 -285 -31 -50 -90 -103 -101 -92
-3 3 -16 59 -29 124 -22 113 -60 224 -111 326 -21 41 -28 47 -56 47 l-31 0 6
51 c18 149 113 214 232 158z"/>
<path fill="#ffffff" stroke="none" d="M4687 4703 c-64 -246 -98 -573 -117
-1118 -6 -165 -15 -334 -20 -375 -5 -41 -9 -99 -10 -128 l0 -53 -29 15 -28 15
-7 193 c-11 296 -33 525 -67 687 l-31 145 23 15 c78 49 134 144 169 286 24 96
23 176 -4 253 l-14 39 46 45 c57 54 103 90 110 84 2 -3 -7 -49 -21 -103z"/>
<path fill="#ffffff" stroke="none" d="M4081 4619 c7 -14 4 -21 -18 -31 -30
-15 -30 -15 -19 -94 l6 -51 -53 -20 -54 -20 -23 45 c-46 86 -95 91 -243 26
-129 -56 -146 -83 -112 -179 8 -21 13 -40 11 -42 -5 -5 -152 -32 -208 -37 -56
-6 -57 -6 -60 21 -3 27 -3 28 -126 41 -132 14 -144 12 -162 -33 -7 -17 -9 -15
-9 12 -2 58 -73 98 -198 110 -60 6 -63 5 -74 -21 -14 -29 -27 -32 -54 -12 -18
13 -18 16 17 92 23 50 42 78 50 75 187 -58 327 -76 507 -67 109 6 293 39 406
73 59 18 249 92 325 127 57 26 70 24 91 -15z"/>
<path fill="#ffffff" stroke="none" d="M4214 4510 c20 -43 36 -86 36 -94 0
-14 -59 -41 -69 -31 -3 3 -24 44 -47 92 l-41 85 31 14 c17 7 36 13 42 14 6 0
28 -36 48 -80z"/>
<path fill="#ffffff" stroke="none" d="M2668 4538 c26 -16 31 -24 26 -42 -11
-34 -49 -106 -107 -202 -30 -49 -66 -120 -81 -159 -14 -38 -44 -107 -66 -153
-36 -75 -43 -83 -63 -76 -91 28 -93 33 -73 147 32 171 97 328 182 431 70 87
109 98 182 54z"/>
<path fill="#ffffff" stroke="none" d="M4120 4430 c31 -77 38 -83 80 -76 79
13 73 17 91 -59 10 -38 18 -87 18 -107 1 -35 -1 -37 -51 -56 -29 -11 -56 -17
-60 -14 -6 7 -80 239 -98 307 -4 17 -13 44 -19 60 -22 56 14 5 39 -55z"/>
<path fill="#ffffff" stroke="none" d="M3890 4428 c30 -53 65 -138 72 -173 2
-14 -9 -26 -40 -43 -45 -25 -127 -56 -178 -66 -31 -7 -32 -6 -59 61 -14 37
-40 92 -56 122 -16 30 -29 58 -29 63 0 9 84 53 140 74 19 7 54 13 77 13 41 1
44 -1 73 -51z"/>
<path fill="#ffffff" stroke="none" d="M4099 4311 c17 -55 31 -104 31 -109 0
-8 -97 -62 -113 -62 -8 0 -21 61 -18 91 1 14 -7 50 -18 80 -12 30 -21 55 -21
57 0 5 84 41 97 41 6 1 25 -44 42 -98z"/>
<path fill="#ffffff" stroke="none" d="M2892 4319 c21 -5 49 -20 63 -32 l24
-22 -49 -194 c-27 -106 -52 -196 -55 -199 -3 -4 -44 7 -91 22 l-85 29 6 56 c8
74 43 276 56 324 10 39 10 39 52 32 23 -4 59 -11 79 -16z"/>
<path fill="#ffffff" stroke="none" d="M2688 4290 c22 -14 32 -26 28 -36 -3
-8 -13 -62 -23 -118 l-16 -104 -70 34 c-38 18 -71 35 -73 37 -12 12 93 207
111 207 5 0 25 -9 43 -20z"/>
<path fill="#ffffff" stroke="none" d="M3669 4158 c18 -44 23 -48 54 -48 35 0
151 36 205 64 25 13 33 14 37 4 2 -7 18 -56 34 -108 l30 -95 -32 -34 c-56 -58
-178 -103 -241 -87 -30 7 -54 66 -101 248 -48 186 -45 197 14 56z"/>
<path fill="#ffffff" stroke="none" d="M3265 4228 c7 -7 -17 -9 -77 -5 -101 7
-107 3 -110 -68 -3 -49 -3 -49 35 -58 47 -11 48 -27 2 -27 -43 0 -55 -20 -55
-93 0 -36 5 -59 15 -67 8 -6 50 -14 94 -17 80 -6 112 -15 97 -30 -12 -12 -187
-8 -218 5 -26 11 -28 16 -28 69 0 53 26 270 36 302 3 11 23 12 102 6 53 -4
102 -11 107 -17z"/>
<path fill="#ffffff" stroke="none" d="M3599 4183 c5 -21 19 -73 30 -116 l19
-78 -24 -9 c-77 -30 -236 -53 -369 -53 -77 -1 -145 2 -151 5 -6 4 -8 26 -5 54
6 44 8 48 36 51 48 6 55 11 55 37 0 27 -33 56 -62 56 -13 0 -18 8 -18 29 l0
29 148 -5 c120 -3 163 0 232 15 47 11 88 20 92 21 4 0 12 -16 17 -36z"/>
<path fill="#ffffff" stroke="none" d="M3001 4104 c-6 -32 -11 -79 -11 -106 0
-45 -2 -48 -25 -48 -14 0 -25 5 -25 11 0 16 51 212 58 224 12 19 13 -23 3 -81z"/>
<path fill="#ffffff" stroke="none" d="M4160 4115 c14 -42 34 -45 112 -15 28
11 53 18 55 16 2 -2 17 -55 32 -117 61 -244 77 -469 86 -1209 5 -457 17 -761
34 -893 l8 -58 -39 -20 c-63 -32 -159 -59 -214 -59 l-51 0 -93 173 c-51 94
-116 208 -144 252 -29 44 -62 96 -73 115 -39 67 -210 405 -263 520 -174 383
-228 488 -278 550 -19 24 -21 24 -54 8 -20 -9 -49 -38 -70 -69 -36 -54 -182
-278 -285 -439 -30 -47 -100 -155 -155 -240 -56 -85 -138 -220 -183 -300 -45
-80 -104 -183 -132 -230 -27 -47 -63 -119 -79 -160 l-31 -75 -49 2 c-51 3
-171 28 -191 41 -9 6 -8 28 7 92 10 47 22 119 25 161 6 73 7 76 42 94 45 24
115 103 142 158 33 69 43 143 27 209 -23 100 -108 208 -163 208 l-26 0 7 68
c10 92 91 490 127 621 42 150 108 330 136 367 12 17 39 65 58 107 l36 78 72
-38 72 -38 3 -46 c3 -45 5 -48 50 -67 74 -31 159 -55 174 -50 8 3 20 25 27 48
9 30 16 40 27 36 9 -3 22 -6 29 -6 8 0 15 -12 17 -27 5 -45 44 -58 183 -58
l120 0 9 32 c9 30 14 32 65 38 71 8 196 31 241 45 19 5 38 10 41 10 4 0 16
-24 29 -52 12 -29 29 -59 38 -65 25 -20 124 -16 189 8 67 26 153 100 153 134
0 12 -7 42 -15 65 -8 23 -15 46 -15 51 0 11 102 69 111 63 4 -2 13 -20 19 -39z"/>
<path fill="#ffffff" stroke="none" d="M5993 3725 c51 -112 81 -199 157 -455
17 -58 43 -143 57 -190 83 -275 175 -648 162 -656 -5 -3 -62 -8 -127 -11 -275
-14 -628 50 -774 139 l-47 29 36 102 c20 56 72 197 115 312 44 116 86 228 93
250 40 120 88 241 127 320 25 50 57 122 72 160 42 110 56 139 65 129 5 -5 33
-63 64 -129z"/>
<path fill="#ffffff" stroke="none" d="M4544 2847 c3 -82 17 -234 31 -336 34
-258 48 -483 40 -626 -7 -120 -4 -140 32 -206 5 -8 -88 -41 -95 -34 -16 16
-49 345 -62 621 -5 122 -10 341 -10 487 l0 265 29 -10 28 -11 7 -150z"/>
<path fill="#ffffff" stroke="none" d="M2217 2776 c15 -13 43 -49 62 -80 71
-118 49 -250 -60 -358 -31 -32 -64 -58 -73 -58 -21 0 -51 34 -74 84 -67 144
-46 315 49 401 46 41 58 43 96 11z"/>
<path fill="#ffffff" stroke="none" d="M2195 1846 c39 -9 85 -16 104 -16 27 0
32 -3 27 -16 -55 -144 -71 -280 -53 -456 l8 -77 -35 -34 c-33 -34 -262 -176
-338 -210 -40 -19 -138 -74 -179 -100 l-26 -18 -18 53 c-24 75 -70 159 -110
200 l-35 35 73 36 c90 44 210 146 275 234 62 82 131 213 168 316 24 69 30 78
48 74 12 -3 53 -12 91 -21z"/>
<path fill="#ffffff" stroke="none" d="M4505 1689 c18 -122 64 -308 99 -396
45 -116 115 -193 228 -256 32 -18 58 -35 58 -39 0 -5 -17 -8 -39 -8 -45 0
-170 -39 -241 -75 -27 -14 -75 -46 -106 -72 l-58 -46 -37 42 c-76 85 -79 99
-77 351 l3 225 -29 75 c-16 41 -45 110 -66 153 l-38 77 27 0 c41 0 174 36 218
58 21 11 39 19 41 18 1 -2 9 -50 17 -107z"/>
<path fill="#ffffff" stroke="none" d="M8308 1760 c86 -24 133 -52 199 -118
65 -65 154 -232 95 -179 -10 10 -28 17 -40 17 -19 0 -22 -5 -22 -45 0 -45 13
-66 56 -91 16 -10 7 -14 -58 -29 -105 -23 -112 -21 -118 40 -6 58 -45 146 -85
193 -62 73 -157 118 -225 107 -46 -8 -54 -25 -12 -25 54 0 129 -30 174 -69 56
-50 107 -144 115 -213 l5 -53 -69 68 c-63 61 -71 66 -83 52 -8 -9 -14 -37 -14
-62 -1 -44 1 -47 34 -59 35 -12 35 -12 -30 -13 -139 -1 -421 19 -815 60 -163
16 -532 68 -640 90 -119 24 -177 40 -267 75 l-67 27 41 34 c55 45 75 55 193
93 55 18 111 39 124 47 13 8 62 26 110 38 l86 23 85 -28 c103 -34 279 -55 394
-47 44 3 162 20 260 37 324 56 455 63 574 30z"/>
<path fill="#ffffff" stroke="none" d="M4991 1665 c24 -9 72 -27 107 -42 l62
-26 0 -68 0 -69 -58 -29 c-50 -25 -236 -88 -400 -135 l-53 -15 -20 45 c-21 50
-69 231 -69 261 0 15 16 24 71 42 144 46 289 61 360 36z"/>
<path fill="#ffffff" stroke="none" d="M3940 1615 c47 -3 131 -13 187 -22
l101 -17 22 -44 c37 -73 50 -141 50 -262 l0 -116 -102 -27 c-172 -45 -158 -45
-158 1 0 57 -8 72 -39 72 -29 0 -64 -43 -76 -92 -7 -26 -11 -28 -60 -28 l-54
0 5 38 c16 119 75 236 144 287 24 18 29 25 16 25 -76 0 -155 -114 -185 -270
l-17 -85 -63 -3 c-92 -4 -97 -1 -66 49 16 24 25 51 23 67 -3 24 -7 27 -49 30
-40 3 -50 -1 -67 -23 -11 -14 -23 -44 -27 -66 l-7 -41 -61 7 c-34 3 -65 9 -70
12 -25 16 29 199 85 287 33 51 134 126 170 126 10 0 18 5 18 10 0 16 -59 12
-98 -7 -20 -10 -53 -34 -74 -55 -65 -65 -138 -234 -138 -320 0 -42 -5 -45 -37
-23 -19 14 -20 17 -7 52 7 21 13 55 14 76 0 33 -3 37 -26 37 -22 0 -24 3 -18
23 24 79 93 165 173 217 91 58 266 103 366 94 22 -2 78 -6 125 -9z"/>
<path fill="#ffffff" stroke="none" d="M8640 1368 c0 -5 -13 -2 -30 7 -16 9
-30 20 -30 24 0 5 -3 18 -7 28 -4 11 7 6 30 -16 21 -19 37 -39 37 -43z"/>
<path fill="#ffffff" stroke="none" d="M8298 1340 l23 -29 -31 10 c-19 7 -30
18 -30 30 0 26 11 23 38 -11z"/>
<path fill="#ffffff" stroke="none" d="M1364 1230 c138 -20 194 -63 256 -195
58 -124 59 -130 6 -154 -110 -48 -289 -78 -415 -68 -109 9 -131 20 -131 68 0
66 36 142 91 194 28 26 49 49 47 50 -10 11 -89 -38 -113 -69 -28 -37 -65 -140
-65 -182 0 -23 -3 -24 -65 -24 -62 0 -126 17 -138 37 -9 14 46 169 68 194 11
12 38 35 60 51 22 16 40 37 40 46 0 13 21 22 85 39 94 24 170 28 274 13z"/>
<path fill="#ffffff" stroke="none" d="M3264 1172 c-24 -36 -29 -13 -8 35 16
34 18 36 21 15 3 -13 -3 -35 -13 -50z"/>
<path fill="#ffffff" stroke="none" d="M3634 1182 c2 -4 -12 -34 -32 -66 l-37
-60 -3 43 c-4 49 18 91 48 91 10 0 21 -3 24 -8z"/>
<path fill="#ffffff" stroke="none" d="M4002 1114 c-2 -14 -13 -29 -23 -35
-16 -8 -19 -6 -19 13 0 31 30 74 40 58 4 -6 5 -22 2 -36z"/>
<path fill="#ffffff" stroke="none" d="M822 977 c-10 -31 -21 -59 -24 -62 -9
-9 10 83 23 106 18 35 19 16 1 -44z"/>
<path fill="#ffffff" stroke="none" d="M5073 931 c109 -37 194 -88 246 -147
65 -74 96 -155 73 -191 -8 -12 -96 -55 -141 -68 -23 -7 -24 -6 -15 26 14 56
11 181 -6 214 -14 28 -72 75 -93 75 -5 0 7 -18 26 -39 52 -57 66 -129 42 -216
-16 -61 -19 -65 -54 -75 -20 -6 -74 -13 -121 -17 l-85 -6 0 89 c0 75 -4 98
-27 146 -23 50 -61 88 -75 75 -2 -3 7 -22 21 -44 13 -21 32 -65 41 -97 31
-107 4 -176 -69 -176 -40 0 -177 35 -214 54 -66 34 -141 147 -142 213 0 42 58
93 165 144 164 78 283 89 428 40z"/>
<path fill="#000000" stroke="none" d="M5688 12840 c-185 -22 -336 -72 -444
-149 -102 -72 -154 -137 -125 -156 6 -3 -26 -49 -71 -102 -147 -175 -298 -433
-284 -486 11 -46 112 -182 168 -227 112 -90 284 -159 503 -201 110 -22 406
-16 525 10 108 24 240 84 284 130 39 40 45 83 46 301 0 206 -33 510 -75 675
-20 80 -21 92 -8 112 17 26 9 60 -15 67 -96 30 -354 43 -504 26z"/>
<path fill="#ffffff" stroke="none" d="M6099 12797 c42 -7 76 -18 79 -25 2 -7
-13 -19 -35 -29 -30 -13 -93 -18 -313 -24 -187 -5 -294 -13 -335 -23 -63 -15
-200 -62 -282 -96 l-48 -20 50 45 c142 128 413 201 705 188 58 -2 138 -10 179
-16z"/>
<path fill="#ffffff" stroke="none" d="M6174 12658 c37 -130 86 -511 85 -661
0 -62 -4 -151 -7 -199 -8 -103 -24 -125 -126 -176 -107 -53 -208 -73 -404 -79
-199 -6 -270 2 -451 53 -233 66 -369 160 -448 311 l-28 52 18 47 c44 120 207
354 341 491 65 68 131 102 286 148 104 31 157 36 422 40 130 2 244 8 258 13
38 16 38 16 54 -40z"/>
<path fill="#000000" stroke="none" d="M5640 12497 c-100 -35 -204 -101 -289
-185 -85 -86 -184 -227 -220 -315 -21 -52 -22 -61 -11 -103 55 -197 268 -308
590 -308 189 0 286 32 377 126 l42 43 -9 98 c-11 117 -37 229 -80 352 -56 158
-106 239 -179 290 -48 33 -129 34 -221 2z"/>
<path fill="#ffffff" stroke="none" d="M5830 12475 c37 -19 103 -101 131 -163
59 -131 129 -393 129 -484 0 -29 -1 -30 -18 -15 -54 49 -328 148 -477 173
-118 19 -313 14 -387 -9 -27 -8 -48 -11 -48 -6 0 34 108 201 185 287 148 163
385 269 485 217z"/>
<path fill="#ffffff" stroke="none" d="M5689 11919 c116 -30 247 -85 334 -141
l48 -31 -23 -24 c-57 -61 -176 -103 -295 -103 -60 0 -63 1 -69 28 -22 103 -80
177 -173 221 -48 22 -69 26 -151 26 -80 0 -102 -4 -139 -23 -35 -19 -46 -21
-53 -10 -26 40 42 73 181 87 117 12 205 4 340 -30z"/>
<path fill="#ffffff" stroke="none" d="M5506 11830 c81 -39 144 -124 144 -191
0 -21 -3 -22 -58 -16 -84 9 -91 13 -83 45 33 118 -126 186 -221 95 l-29 -28
-30 33 c-35 39 -36 47 -5 67 65 43 189 40 282 -5z"/>
<path fill="#000000" stroke="none" d="M6115 11300 c-7 -12 2 -30 16 -30 5 0
9 9 9 20 0 21 -15 27 -25 10z"/>
<path fill="#000000" stroke="none" d="M6375 11271 c-3 -5 -1 -12 5 -16 12 -7
30 2 30 16 0 12 -27 12 -35 0z"/>
<path fill="#000000" stroke="none" d="M6285 11200 c-4 -6 -3 -16 3 -22 6 -6
12 -6 17 2 4 6 3 16 -3 22 -6 6 -12 6 -17 -2z"/>
<path fill="#000000" stroke="none" d="M2823 11879 c-58 -22 -124 -83 -156
-143 -35 -67 -30 -209 12 -361 93 -342 200 -533 470 -846 93 -109 435 -454
531 -536 83 -72 197 -197 280 -308 97 -129 304 -439 356 -531 20 -35 40 -64
46 -64 6 0 7 8 3 18 -13 35 -35 155 -55 304 -11 84 -27 205 -35 268 -37 276
-83 479 -172 760 -85 265 -145 414 -273 675 -142 288 -183 354 -296 474 -136
145 -298 261 -413 295 -79 23 -231 21 -298 -5z"/>
<path fill="#ffffff" stroke="none" d="M3070 11865 c101 -12 264 -119 417
-272 124 -125 167 -192 318 -498 124 -251 184 -396 240 -580 21 -66 50 -154
65 -195 48 -129 105 -412 145 -725 14 -110 30 -231 36 -269 5 -38 8 -70 7 -72
-2 -1 -58 80 -126 181 -159 238 -310 430 -418 530 -453 419 -750 752 -877 985
-118 215 -217 548 -204 681 14 129 98 216 229 238 52 8 75 8 168 -4z"/>
<path fill="#000000" stroke="none" d="M3723 8995 c-108 -16 -133 -27 -133
-58 0 -29 18 -47 45 -47 12 0 24 -3 27 -6 3 -3 -15 -46 -41 -97 -59 -116 -88
-204 -107 -326 -18 -114 -29 -407 -17 -470 7 -38 13 -46 38 -53 127 -36 379
-23 625 34 123 28 312 122 388 193 72 67 92 105 92 180 0 145 -173 425 -334
540 -35 24 -98 61 -142 82 -78 38 -80 38 -214 40 -75 1 -176 -4 -227 -12z"/>
<path fill="#ffffff" stroke="none" d="M4091 8964 c55 -16 173 -76 184 -94 7
-11 -9 -6 -105 36 -60 26 -75 28 -190 29 -69 0 -169 -5 -222 -12 -96 -11 -138
-9 -138 8 0 40 360 65 471 33z"/>
<path fill="#ffffff" stroke="none" d="M4111 8894 c103 -30 272 -118 308 -159
53 -61 120 -170 157 -255 38 -87 45 -169 19 -219 -20 -39 -101 -110 -164 -145
l-53 -29 25 44 c14 24 42 93 62 153 31 94 35 113 25 137 -16 39 -100 114 -152
138 -245 112 -300 127 -411 116 -93 -9 -189 -39 -228 -73 -19 -15 -48 -61 -71
-108 -37 -80 -54 -154 -93 -409 l-12 -80 -2 118 c-3 261 39 477 123 644 56
111 62 116 158 129 127 17 247 16 309 -2z"/>
<path fill="#ffffff" stroke="none" d="M4100 8629 c34 -12 32 -13 -67 -29
-164 -28 -304 -111 -396 -235 l-30 -40 6 40 c4 22 26 78 49 125 40 79 47 87
98 112 30 15 80 32 110 37 66 12 182 6 230 -10z"/>
<path fill="#ffffff" stroke="none" d="M4110 8489 c100 -16 180 -61 256 -142
72 -78 71 -73 23 -174 -39 -82 -100 -135 -180 -157 -33 -10 -63 -16 -65 -14
-2 2 4 27 13 54 54 169 -112 319 -272 245 -124 -57 -153 -209 -61 -318 l28
-33 -59 -2 c-72 -2 -135 1 -190 8 l-43 5 0 47 c1 81 19 179 44 234 52 117 176
214 309 243 78 17 115 18 197 4z"/>
<path fill="#ffffff" stroke="none" d="M4034 8266 c44 -18 83 -71 92 -123 9
-59 -23 -123 -73 -147 -62 -29 -126 -32 -167 -7 -37 24 -76 91 -76 134 0 111
119 187 224 143z"/>
<path fill="#000000" stroke="none" d="M3907 8190 c-64 -50 -31 -149 50 -150
45 0 62 9 79 42 43 83 -56 165 -129 108z"/>
<path fill="#000000" stroke="none" d="M2869 8035 c-32 -17 -52 -66 -40 -98
25 -64 105 -82 147 -33 33 38 31 80 -5 117 -32 32 -62 36 -102 14z"/>
<path fill="#000000" stroke="none" d="M3355 6559 c-22 -10 -48 -18 -57 -19
-10 0 -18 -7 -18 -15 0 -19 45 -20 80 -2 22 12 29 11 55 -9 74 -55 282 -71
356 -28 53 31 47 43 -13 27 -116 -32 -273 -14 -332 37 l-32 28 -39 -19z"/>
<path fill="#000000" stroke="none" d="M3640 6419 c-14 -6 -50 -8 -81 -5 -49
6 -57 4 -76 -16 -33 -37 -35 -46 -18 -76 16 -27 16 -29 -19 -81 -63 -93 -48
-179 46 -267 l50 -47 61 6 c74 7 215 73 242 113 28 43 30 95 6 148 -23 52 -20
64 26 119 l23 29 -21 29 c-18 26 -26 29 -72 29 -29 0 -65 7 -81 15 -32 17 -51
18 -86 4z"/>
<path fill="#ffffff" stroke="none" d="M3793 6367 c60 1 66 -12 33 -62 -29
-42 -32 -78 -11 -115 8 -14 14 -44 15 -68 0 -34 -6 -48 -26 -67 -36 -33 -124
-74 -190 -88 l-54 -11 -50 49 c-85 84 -91 157 -19 239 l40 45 -22 30 c-21 29
-22 32 -5 50 14 16 23 17 54 9 26 -6 50 -5 82 5 39 12 49 12 75 -1 17 -9 52
-15 78 -15z"/>
<path fill="#000000" stroke="none" d="M6511 3474 c31 -68 149 -418 187 -554
86 -305 95 -400 48 -510 -16 -36 -37 -98 -48 -138 -22 -83 -16 -118 28 -147
30 -19 31 -59 3 -100 -44 -65 -73 -132 -79 -182 -3 -29 -4 -53 -1 -53 4 0 17
28 30 63 13 34 44 95 68 135 53 87 53 126 1 165 -28 21 -30 25 -25 73 3 29 19
83 36 122 79 180 66 294 -93 793 -73 230 -94 283 -138 352 -43 68 -52 58 -17
-19z"/>
<path fill="#000000" stroke="none" d="M3770 4340 c-11 -11 -20 -29 -20 -40 0
-11 9 -29 20 -40 11 -11 29 -20 40 -20 27 0 60 35 60 63 0 51 -63 74 -100 37z"/>
<path fill="#ffffff" stroke="none" d="M3840 4330 c24 -24 24 -30 7 -54 -9
-12 -23 -17 -42 -14 -25 2 -31 8 -33 33 -3 19 2 33 14 42 24 17 30 17 54 -7z"/>
<path fill="#000000" stroke="none" d="M2600 4211 c-5 -11 -10 -26 -10 -34 0
-18 32 -47 52 -47 19 0 48 32 48 53 0 42 -70 64 -90 28z"/>
<path fill="#ffffff" stroke="none" d="M2670 4199 c14 -26 -3 -49 -35 -49 -27
0 -39 24 -25 51 14 25 46 24 60 -2z"/>
<path fill="#000000" stroke="none" d="M3253 4109 c-27 -10 -38 -42 -23 -69 8
-14 21 -20 45 -20 29 0 36 4 41 25 12 47 -21 80 -63 64z"/>
<path fill="#ffffff" stroke="none" d="M3300 4085 c20 -24 3 -57 -28 -53 -27
3 -39 26 -28 54 7 18 40 18 56 -1z"/>
<path fill="#000000" stroke="none" d="M4039 2811 c-47 -15 -78 -42 -100 -87
-18 -39 -21 -58 -17 -148 3 -95 6 -108 41 -177 43 -86 60 -108 112 -143 29
-20 50 -26 92 -26 126 0 184 76 191 251 4 81 1 104 -16 142 -54 123 -208 218
-303 188z"/>
<path fill="#ffffff" stroke="none" d="M4166 2761 c48 -22 116 -89 141 -140
28 -56 25 -200 -6 -269 -54 -120 -188 -122 -269 -4 -61 91 -77 139 -77 237 0
56 5 103 14 124 29 67 114 90 197 52z"/>
</g>
</svg>
