<?xml version="1.0" standalone="no"?>
<!DOCTYPE svg PUBLIC "-//W3C//DTD SVG 20010904//EN"
 "http://www.w3.org/TR/2001/REC-SVG-20010904/DTD/svg10.dtd">
<svg version="1.0" xmlns="http://www.w3.org/2000/svg"
 width="610.000000pt" height="491.000000pt" viewBox="0 0 610.000000 491.000000"
 preserveAspectRatio="xMidYMid meet">
<metadata>
Created by potrace 1.16, written by Peter Selinger 2001-2019
</metadata>
<g transform="translate(0.000000,491.000000) scale(0.100000,-0.100000)"
fill="#000000" stroke="none">
<path fill="#000000" stroke="none" d="M0 2455 l0 -2455 3050 0 3050 0 0 2455
0 2455 -3050 0 -3050 0 0 -2455z"/>
<path fill="#ffffff" stroke="none" d="M6090 2455 l0 -2445 -3040 0 -3040 0 0
2445 0 2445 3040 0 3040 0 0 -2445z"/>
<path fill="#000000" stroke="none" d="M2650 4800 c-253 -32 -459 -127 -603
-279 l-65 -69 -12 44 c-23 81 -94 132 -120 85 -13 -25 -13 -82 0 -116 l10 -27
-32 22 c-118 78 -268 113 -317 73 -29 -23 -31 -65 -5 -94 27 -30 87 -59 174
-85 41 -12 68 -24 60 -27 -8 -2 -40 -12 -71 -21 -81 -24 -123 -54 -127 -94 -4
-44 34 -82 83 -82 l36 0 -40 -52 c-138 -185 -199 -404 -157 -568 9 -36 42
-121 72 -190 69 -154 89 -242 75 -321 -12 -70 -55 -158 -110 -224 -23 -28 -37
-51 -32 -53 6 -2 47 13 92 32 45 20 83 36 84 36 2 0 8 -28 14 -62 28 -147 99
-316 187 -450 43 -64 183 -223 190 -215 2 2 -5 50 -17 108 -11 57 -19 122 -17
144 3 40 3 40 55 -65 71 -142 94 -219 100 -320 4 -77 2 -90 -21 -135 -14 -27
-23 -51 -21 -53 9 -9 94 49 129 89 34 37 56 78 93 169 9 22 11 17 22 -44 15
-86 16 -184 2 -255 -11 -52 -50 -133 -71 -146 -21 -13 -8 -24 22 -18 29 6 31
5 24 -18 -4 -13 -10 -60 -13 -104 -6 -82 -13 -95 -48 -95 -14 0 -35 -23 -68
-75 -26 -42 -53 -73 -58 -69 -6 3 -17 -3 -25 -15 -15 -21 -20 -21 -383 -21
-283 0 -371 -3 -379 -12 -9 -12 -352 -636 -352 -641 0 -2 -25 -48 -55 -102
l-55 -100 0 -93 0 -92 2178 2 2177 3 3 90 3 90 -226 329 c-124 181 -223 331
-220 334 3 4 41 19 83 34 105 39 235 117 221 134 -8 10 -15 10 -29 2 -14 -9
-22 -9 -32 0 -11 9 -33 2 -101 -32 -47 -24 -127 -54 -177 -66 -121 -30 -326
-25 -435 10 -106 34 -165 61 -165 76 0 8 5 14 10 14 6 0 10 6 10 13 1 30 16
38 46 22 16 -8 35 -15 42 -15 6 0 12 -4 12 -8 0 -5 45 -19 100 -31 139 -32
299 -27 415 13 227 78 408 256 489 484 29 83 31 94 31 242 -1 144 -3 161 -28
235 -52 147 -157 292 -278 380 l-48 36 20 34 21 35 46 -32 c67 -45 161 -142
211 -217 98 -144 141 -288 141 -471 0 -179 -43 -326 -136 -465 -27 -42 -34
-59 -25 -64 7 -5 11 -17 9 -27 -7 -42 30 -15 78 58 58 85 108 206 131 313 20
92 20 279 -1 372 -48 218 -173 415 -347 544 -58 43 -67 54 -59 70 14 24 12 63
-2 77 -18 18 -63 15 -80 -5 -8 -10 -32 -47 -52 -83 -19 -36 -39 -70 -44 -77
-6 -9 -27 -6 -87 13 -104 34 -267 43 -372 21 -156 -34 -273 -98 -388 -212
-161 -162 -232 -343 -222 -570 9 -196 80 -358 218 -499 l78 -80 -22 -40 -22
-41 -129 -3 -128 -3 -32 35 c-17 18 -39 48 -48 65 -11 19 -25 31 -38 31 -19 0
-20 6 -20 93 0 101 -24 216 -59 286 -21 40 -21 40 -1 51 29 15 25 35 -22 114
-60 101 -178 215 -270 260 -78 38 -167 66 -234 73 -37 4 -43 8 -48 35 -9 44
-8 48 12 48 10 0 54 9 97 21 546 143 829 534 801 1108 -3 75 -9 150 -12 166
l-7 30 31 -29 c44 -41 122 -48 172 -14 33 22 78 93 67 104 -3 3 -17 -2 -31
-11 -37 -25 -85 -13 -130 32 -44 44 -66 111 -66 199 0 117 -39 257 -109 391
-152 290 -432 490 -784 558 -99 20 -334 27 -437 15z"/>
<path fill="#ffffff" stroke="none" d="M3145 4757 c408 -104 700 -381 796
-754 10 -42 23 -124 27 -183 7 -83 14 -116 33 -150 32 -59 80 -90 137 -90 44
0 44 0 30 -22 -8 -13 -31 -31 -52 -42 -49 -24 -96 -15 -145 30 -31 27 -44 51
-65 118 -47 152 -180 316 -303 374 -47 22 -72 27 -133 27 -94 -1 -129 -18
-240 -120 -54 -50 -107 -87 -155 -111 -80 -38 -226 -79 -324 -90 -33 -3 -61
-10 -61 -14 0 -12 132 -32 245 -37 103 -5 203 8 270 33 41 15 -14 -33 -74 -65
-90 -47 -176 -64 -311 -58 -205 8 -365 80 -515 233 -46 46 -86 84 -89 84 -3 0
-6 -30 -6 -67 0 -90 -14 -185 -46 -315 -26 -106 -37 -126 -48 -90 -6 18 -29
33 -68 45 -9 3 -33 1 -53 -4 -40 -11 -71 -52 -81 -107 l-7 -33 -31 29 c-62 59
-120 69 -161 27 -42 -41 -29 -100 32 -148 28 -22 24 -32 -16 -40 -43 -9 -71
-41 -71 -80 0 -45 22 -72 73 -92 40 -15 47 -15 80 -1 l37 15 0 -49 c0 -45 -3
-50 -47 -88 -27 -21 -67 -51 -90 -67 l-42 -27 15 -37 c19 -45 78 -107 126
-132 51 -26 126 -40 167 -31 33 7 37 4 140 -99 59 -59 140 -129 183 -157 144
-93 311 -148 481 -159 71 -4 97 -10 98 -20 1 -7 2 -21 3 -30 1 -11 -10 -21
-29 -26 -16 -5 -59 -23 -95 -40 -36 -16 -79 -37 -96 -44 -71 -33 -187 -143
-256 -243 l-17 -25 0 46 c-1 75 -35 239 -49 239 -4 0 -12 -22 -19 -48 -18 -77
-54 -143 -105 -194 -26 -27 -51 -48 -57 -48 -5 0 -2 21 6 48 19 61 11 161 -22
258 -28 85 -112 257 -144 294 l-20 25 0 -45 c-1 -25 3 -72 8 -105 5 -33 12
-80 16 -105 l6 -45 -51 55 c-141 152 -254 382 -290 593 l-12 65 -71 -34 c-39
-18 -72 -32 -74 -30 -2 1 17 33 42 70 59 89 79 157 73 255 -5 76 -13 100 -108
319 -68 158 -73 265 -18 422 35 100 73 169 140 256 26 35 48 66 48 68 0 3 -13
3 -28 0 -37 -8 -98 19 -107 46 -16 50 58 95 199 121 36 7 66 15 66 19 0 3 -27
12 -61 19 -92 19 -196 60 -229 91 -92 86 40 129 185 61 38 -17 90 -47 118 -67
27 -19 50 -34 52 -32 2 2 -5 30 -16 62 -23 68 -18 116 11 116 30 0 60 -40 77
-102 9 -32 20 -58 25 -58 4 0 8 4 8 8 0 18 115 135 175 177 118 85 283 148
454 175 31 5 139 7 241 5 158 -2 199 -6 285 -28z"/>
<path fill="#ffffff" stroke="none" d="M3560 4038 c101 -29 226 -151 289 -280
132 -268 126 -687 -13 -972 -114 -235 -294 -388 -569 -485 -252 -89 -523 -97
-737 -23 -168 58 -356 190 -462 324 l-31 40 26 21 c32 28 47 58 46 94 -1 27
-1 26 -11 -7 -38 -135 -221 -148 -344 -26 -76 77 -75 85 11 150 73 55 104 66
59 21 -25 -25 -31 -60 -13 -85 8 -11 12 -12 16 -3 2 7 13 23 23 35 16 20 20
21 35 8 23 -19 45 -71 45 -105 0 -39 18 -30 30 15 11 40 5 110 -10 110 -4 0
-5 -24 -4 -52 4 -51 3 -52 -8 -23 -33 78 -60 94 -100 58 -17 -15 -18 -15 -18
3 0 10 12 28 27 40 24 19 26 24 14 38 -8 10 -9 16 -3 16 6 0 16 -8 21 -19 14
-25 65 -45 97 -37 15 4 43 23 62 42 32 32 34 38 30 89 -4 49 -3 53 13 44 10
-5 40 -9 67 -9 40 0 54 5 76 26 22 22 26 36 26 80 0 73 -35 114 -102 121 -46
5 -46 5 -32 32 36 72 97 342 109 488 l8 82 43 -49 c92 -101 255 -200 389 -235
205 -54 450 -8 559 104 22 22 38 43 35 45 -2 3 -30 -4 -61 -15 -86 -29 -211
-39 -324 -28 -54 6 -100 12 -102 14 -2 2 23 8 55 15 178 35 315 98 414 191
131 123 192 144 319 107z"/>
<path fill="#ffffff" stroke="none" d="M2085 3458 c36 -32 43 -87 18 -130 -27
-45 -20 -58 32 -58 61 0 95 -31 102 -92 5 -42 3 -50 -25 -78 -34 -34 -78 -40
-123 -16 -38 20 -51 8 -39 -35 14 -47 4 -84 -32 -114 -43 -36 -89 -34 -123 7
-23 27 -26 39 -23 85 3 60 -5 68 -44 40 -62 -46 -171 18 -153 90 7 28 57 53
105 53 16 0 30 2 30 5 0 2 -25 29 -55 58 -31 30 -55 62 -55 73 0 24 31 60 59
69 26 8 80 -18 116 -55 16 -17 32 -30 37 -30 4 0 11 19 14 43 15 88 101 135
159 85z"/>
<path fill="#ffffff" stroke="none" d="M4590 2580 c0 -5 -4 -10 -10 -10 -16 0
-40 -56 -40 -93 0 -63 86 -164 170 -200 14 -5 61 -13 105 -16 l80 -6 0 -65 c0
-83 19 -113 88 -146 29 -13 58 -24 65 -24 22 0 13 -22 -33 -76 -25 -28 -45
-61 -45 -71 0 -24 28 -50 105 -98 73 -46 115 -84 115 -104 0 -8 -23 -55 -51
-103 l-50 -88 19 -76 19 -75 -53 -47 c-220 -196 -533 -243 -800 -122 -351 159
-521 551 -399 918 73 218 249 394 469 467 104 35 246 55 246 35z"/>
<path fill="#ffffff" stroke="none" d="M4820 2545 c374 -128 584 -526 479
-906 -11 -39 -31 -94 -46 -122 -39 -79 -104 -170 -113 -160 -5 4 -14 35 -21
68 l-12 61 42 66 c49 78 64 123 51 148 -5 10 -54 47 -109 83 -54 36 -102 71
-106 77 -4 7 2 24 14 38 61 77 79 105 75 117 -3 8 -27 21 -52 30 -88 30 -117
70 -107 150 8 66 -1 74 -96 81 -41 3 -92 13 -115 24 -76 33 -154 129 -154 189
0 11 14 37 32 57 l32 37 66 -6 c36 -3 99 -17 140 -32z"/>
<path fill="#ffffff" stroke="none" d="M3030 2180 c0 -23 5 -40 11 -40 25 0
-15 -30 -52 -40 -28 -8 -51 -8 -81 1 -38 10 -41 12 -25 24 11 7 17 26 17 48 0
38 5 41 98 45 31 2 32 1 32 -38z"/>
<path fill="#ffffff" stroke="none" d="M3195 2108 l80 -23 22 -108 c23 -113
83 -308 114 -367 10 -19 30 -93 45 -165 14 -71 28 -135 31 -140 2 -7 -30 -16
-81 -23 -105 -15 -217 -52 -316 -103 -104 -53 -138 -53 -228 5 -73 48 -145 82
-230 110 -36 12 -52 23 -52 35 0 9 5 77 11 149 8 109 17 154 49 252 22 65 49
165 60 222 12 57 24 106 28 109 4 4 29 18 56 32 l48 26 39 -21 c55 -28 135
-22 181 15 18 15 40 25 48 23 8 -2 51 -15 95 -28z"/>
<path fill="#ffffff" stroke="none" d="M3369 2034 c30 -20 81 -65 115 -99 58
-60 136 -175 136 -202 0 -31 -181 -126 -201 -106 -22 24 -119 368 -119 424 0
26 7 24 69 -17z"/>
<path fill="#ffffff" stroke="none" d="M2695 2003 c-11 -73 -50 -218 -85 -315
l-31 -86 -40 10 c-56 15 -164 83 -163 102 3 34 72 134 139 202 64 65 156 134
178 134 5 0 6 -20 2 -47z"/>
<path fill="#ffffff" stroke="none" d="M2390 1671 c0 -26 -44 -110 -60 -114
-17 -4 -16 -1 5 32 13 20 27 48 30 64 7 25 25 39 25 18z"/>
<path fill="#ffffff" stroke="none" d="M3619 1614 c35 -93 44 -144 43 -269 0
-66 3 -125 9 -131 15 -18 39 -94 29 -94 -5 0 -12 9 -15 20 -12 36 -23 21 -17
-25 5 -50 -13 -64 -24 -17 -12 55 -16 57 -28 12 -14 -56 -32 -50 -28 10 l3 45
-22 -32 c-11 -18 -25 -33 -30 -33 -13 0 -12 6 11 50 25 50 25 50 -7 51 -27 1
-27 2 9 17 33 15 38 22 44 61 12 81 -2 191 -35 276 l-31 80 23 17 c35 27 44
22 66 -38z"/>
<path fill="#ffffff" stroke="none" d="M2450 1632 c21 -17 22 -20 7 -48 -47
-92 -70 -239 -52 -336 6 -30 12 -38 36 -43 33 -7 39 -25 9 -25 -11 0 -20 -2
-20 -5 0 -3 9 -23 20 -45 23 -44 24 -50 11 -50 -6 0 -18 14 -28 30 -24 42 -33
37 -22 -12 12 -50 -4 -77 -21 -34 -5 15 -10 36 -10 47 0 10 -4 19 -10 19 -5 0
-10 -11 -10 -24 0 -32 -10 -56 -22 -56 -6 0 -8 19 -6 45 2 25 2 45 0 45 -2 0
-13 -10 -23 -22 l-20 -23 7 25 c4 14 15 42 26 64 17 33 19 51 13 120 -7 95 11
215 45 294 24 56 36 62 70 34z"/>
<path fill="#ffffff" stroke="none" d="M3536 1576 c41 -91 66 -241 45 -274 -5
-8 -22 -12 -42 -10 l-34 3 -32 140 c-18 77 -32 148 -33 157 0 14 34 34 63 37
4 1 19 -23 33 -53z"/>
<path fill="#ffffff" stroke="none" d="M2510 1606 c0 -2 -7 -7 -16 -10 -8 -3
-12 -2 -9 4 6 10 25 14 25 6z"/>
<path fill="#ffffff" stroke="none" d="M2574 1463 c-3 -71 -9 -131 -13 -135
-3 -4 -39 -4 -80 -1 l-73 6 6 51 c8 62 43 171 59 184 15 12 43 19 80 21 l28 1
-7 -127z"/>
<path fill="#ffffff" stroke="none" d="M2610 1283 c124 -35 341 -157 352 -197
2 -6 2 -100 0 -209 l-3 -199 -49 46 c-187 175 -534 309 -757 293 -40 -3 -73
-4 -73 -1 0 10 173 270 188 282 53 41 77 -38 35 -118 -24 -45 -28 -97 -7 -93
7 1 15 -9 18 -22 7 -27 41 -35 49 -12 3 8 9 6 19 -7 19 -24 48 -15 48 15 0 18
3 19 15 9 32 -27 42 8 20 78 -6 16 -3 22 9 22 29 0 17 31 -19 46 -19 8 -35 20
-35 28 0 7 -3 28 -6 46 l-7 32 59 -7 c32 -4 97 -18 144 -32z"/>
<path fill="#ffffff" stroke="none" d="M3577 1263 c3 -7 -12 -19 -31 -27 -38
-16 -47 -39 -20 -54 13 -7 14 -13 5 -30 -25 -48 -5 -92 27 -60 9 9 12 6 12
-14 0 -33 26 -44 42 -18 11 17 14 18 30 4 18 -17 38 -11 38 11 0 8 9 19 20 25
27 14 25 40 -6 101 -14 28 -23 53 -20 56 19 19 51 -25 138 -189 53 -101 96
-184 94 -185 -1 -1 -40 5 -86 13 -99 18 -252 13 -370 -11 -151 -32 -345 -110
-427 -171 -17 -13 -35 -24 -40 -24 -8 0 -6 374 2 397 12 35 198 128 319 159
123 32 266 41 273 17z"/>
<path fill="#ffffff" stroke="none" d="M2141 1143 c-5 -10 -17 -27 -26 -38
-16 -19 -17 -19 -3 5 26 46 29 50 34 50 3 0 0 -8 -5 -17z"/>
<path fill="#ffffff" stroke="none" d="M1989 937 l-110 -183 13 -40 13 -39
490 -97 c342 -68 512 -97 563 -98 81 0 74 -1 652 115 l405 81 14 40 14 41
-106 177 c-59 97 -107 179 -107 182 0 2 51 4 114 4 l115 0 -24 -42 c-29 -51
-31 -65 -8 -90 25 -27 58 -22 86 13 l25 32 90 -37 c82 -33 191 -61 267 -68 30
-3 30 -3 33 -73 l3 -71 -78 -11 c-160 -23 -273 -91 -273 -163 0 -24 10 -42 38
-70 134 -133 577 -135 723 -3 102 92 0 198 -229 236 l-77 13 0 69 0 70 55 7
c30 4 65 8 77 10 18 3 56 -48 241 -317 121 -176 219 -321 218 -322 -4 -5
-4289 -3 -4293 1 -2 2 96 187 218 410 l222 406 363 0 363 0 -110 -183z"/>
<path fill="#ffffff" stroke="none" d="M2990 1116 c0 -11 -19 -15 -25 -6 -3 5
1 10 9 10 9 0 16 -2 16 -4z"/>
<path fill="#ffffff" stroke="none" d="M3824 1094 c3 -8 2 -12 -4 -9 -6 3 -10
10 -10 16 0 14 7 11 14 -7z"/>
<path fill="#ffffff" stroke="none" d="M3931 914 c72 -121 87 -153 84 -181 -2
-19 -5 -36 -7 -39 -7 -6 -901 -186 -948 -190 -25 -2 -55 -6 -67 -9 -12 -3 -57
0 -100 6 -64 9 -886 168 -959 185 -22 6 -41 54 -22 54 6 0 7 7 4 17 -4 10 14
51 50 112 76 128 78 131 91 123 8 -5 1 -25 -22 -62 -19 -30 -35 -66 -35 -80 0
-14 -5 -42 -11 -62 -7 -29 -15 -38 -32 -39 -21 0 -21 -1 -2 -9 11 -5 219 -48
463 -96 364 -71 442 -89 443 -103 0 -10 2 -11 6 -3 2 7 22 12 44 12 24 0 38 4
34 10 -3 6 -19 10 -36 10 -34 0 -38 17 -9 48 43 46 112 38 143 -16 l19 -32
-35 0 c-20 0 -39 -5 -43 -12 -5 -8 5 -9 34 -5 34 4 42 2 43 -11 1 -15 2 -15 6
1 2 9 7 17 10 17 6 0 859 169 891 177 12 3 22 9 22 13 0 5 -8 6 -19 3 -20 -5
-31 19 -31 73 0 17 -24 77 -57 140 -31 60 -52 106 -48 102 4 -4 48 -74 96
-154z"/>
<path fill="#ffffff" stroke="none" d="M2435 965 c166 -49 405 -177 405 -216
0 -10 4 -19 8 -19 5 0 28 -14 52 -31 l43 -32 -26 -14 c-15 -7 -35 -28 -44 -46
l-18 -33 -427 84 -428 85 6 56 c4 31 8 57 9 59 2 2 43 10 92 19 184 32 419 0
617 -83 91 -38 86 -37 86 -25 0 13 -160 78 -246 101 -156 40 -328 47 -478 19
-27 -5 -51 -7 -53 -5 -2 2 11 29 29 60 l33 58 125 -5 c96 -4 146 -11 215 -32z"/>
<path fill="#ffffff" stroke="none" d="M3849 874 l69 -15 5 -42 c2 -23 6 -48
8 -56 3 -11 -91 -33 -426 -101 l-430 -87 -12 28 c-6 16 -26 37 -43 48 l-32 19
34 25 c108 80 323 163 483 187 92 14 273 11 344 -6z"/>
<path fill="#ffffff" stroke="none" d="M4530 707 c0 -59 12 -77 50 -77 39 0
50 18 50 78 l0 55 64 -6 c85 -8 173 -40 211 -77 17 -16 36 -30 43 -30 17 0 25
-45 13 -69 -58 -107 -371 -160 -593 -100 -96 25 -178 85 -178 128 0 10 7 26
15 37 14 18 14 18 8 -4 -9 -37 58 -95 142 -122 135 -42 351 -37 477 10 58 22
108 62 108 87 0 11 -6 8 -21 -11 -49 -62 -169 -96 -339 -96 -353 0 -479 160
-185 236 28 7 69 13 93 13 l42 1 0 -53z"/>
<path fill="#ffffff" stroke="none" d="M5240 200 l0 -80 -2160 0 -2160 0 0 80
0 80 2160 0 2160 0 0 -80z"/>
<path fill="#000000" stroke="none" d="M3390 3780 c-11 -11 -20 -31 -20 -45 0
-42 34 -54 200 -68 56 -5 19 83 -51 118 -41 22 -105 19 -129 -5z"/>
<path fill="#000000" stroke="none" d="M3421 3588 c-113 -56 -143 -218 -58
-315 118 -135 329 -44 330 142 0 147 -142 238 -272 173z"/>
<path fill="#ffffff" stroke="none" d="M3601 3565 c44 -28 79 -96 79 -151 -1
-117 -114 -213 -219 -184 -137 37 -177 213 -72 314 61 59 142 67 212 21z"/>
<path fill="#000000" stroke="none" d="M3410 3463 c-57 -51 -37 -149 36 -173
68 -23 124 23 124 100 0 89 -95 131 -160 73z"/>
<path fill="#000000" stroke="none" d="M2342 3575 c-36 -30 -62 -82 -62 -124
0 -41 17 -40 93 6 34 20 72 43 85 50 26 16 29 54 6 77 -24 25 -87 20 -122 -9z"/>
<path fill="#000000" stroke="none" d="M2515 3471 c-112 -28 -180 -135 -155
-247 40 -180 271 -248 384 -113 37 44 47 73 47 137 0 101 -65 187 -165 217
-54 16 -65 17 -111 6z"/>
<path fill="#ffffff" stroke="none" d="M2661 3432 c130 -68 157 -240 53 -331
-155 -136 -410 50 -330 241 46 109 166 148 277 90z"/>
<path fill="#000000" stroke="none" d="M2503 3328 c-35 -17 -57 -69 -50 -119
12 -90 108 -130 176 -73 78 65 32 205 -66 203 -21 0 -48 -5 -60 -11z"/>
<path fill="#000000" stroke="none" d="M3056 3189 c-14 -17 -26 -37 -26 -45 0
-22 8 -17 25 16 21 40 47 53 78 39 50 -23 61 -86 21 -126 -14 -14 -23 -28 -19
-31 9 -9 53 41 55 63 5 45 -1 67 -25 90 -35 35 -76 33 -109 -6z"/>
<path fill="#000000" stroke="none" d="M3307 2959 c-20 -11 -86 -36 -145 -56
-91 -31 -124 -37 -224 -41 l-118 -5 0 -49 c0 -128 58 -267 132 -315 37 -25 51
-28 122 -28 71 0 88 4 135 30 68 37 115 99 141 185 31 106 36 301 6 300 -6 -1
-28 -10 -49 -21z"/>
<path fill="#ffffff" stroke="none" d="M3360 2861 c0 -71 -6 -117 -20 -162
-30 -96 -30 -96 -82 -57 -83 64 -227 88 -276 46 -9 -8 -34 -15 -55 -15 -21 -1
-44 -6 -51 -12 -11 -9 -16 -3 -24 31 -6 24 -14 67 -18 96 l-7 52 64 0 c120 1
335 54 414 102 52 31 55 27 55 -81z"/>
<path fill="#ffffff" stroke="none" d="M3179 2669 c49 -21 111 -65 111 -78 0
-17 -66 -74 -105 -91 -124 -55 -239 -19 -297 93 -20 40 -20 41 -2 55 12 8 33
12 57 9 20 -3 37 -1 37 4 0 6 15 17 33 24 39 18 103 12 166 -16z"/>
<path fill="#000000" stroke="none" d="M1918 3313 c-35 -5 -85 -52 -94 -86 -9
-39 2 -73 40 -114 28 -31 39 -36 78 -36 109 0 186 108 133 189 -24 36 -94 58
-157 47z"/>
<path fill="#ffffff" stroke="none" d="M2030 3285 c53 -27 64 -75 30 -130 -55
-89 -177 -83 -216 11 -38 91 86 171 186 119z"/>
<path fill="#000000" stroke="none" d="M4184 2256 c-110 -36 -224 -157 -224
-239 0 -26 30 -57 74 -75 24 -11 27 -16 20 -40 -16 -57 -11 -77 19 -80 15 -2
27 -4 27 -6 0 -1 -7 -26 -16 -55 -19 -64 -13 -94 21 -109 28 -13 32 -37 14
-87 -15 -39 8 -160 45 -240 20 -45 29 -55 49 -55 20 0 29 9 47 55 26 63 66
103 148 144 91 46 234 144 270 185 27 31 32 43 27 68 -6 27 -1 35 49 82 31 28
56 56 56 62 0 6 -14 30 -31 53 -33 47 -89 76 -126 66 -69 -17 -182 64 -202
145 -16 64 -35 92 -73 112 -46 24 -143 31 -194 14z"/>
<path fill="#ffffff" stroke="none" d="M4360 2234 c44 -18 63 -45 74 -107 9
-47 67 -114 121 -138 22 -10 63 -19 90 -19 61 0 103 -24 129 -72 l20 -36 -54
-49 c-45 -42 -53 -54 -52 -83 0 -18 -4 -42 -9 -52 -16 -29 -136 -115 -252
-180 -111 -63 -169 -116 -182 -166 -18 -74 -52 -56 -87 47 -22 67 -28 164 -13
227 6 28 3 34 -25 54 -30 21 -32 26 -25 64 4 23 8 57 9 76 1 31 -2 35 -26 38
-25 3 -26 5 -16 32 16 48 7 73 -37 96 -52 26 -58 65 -21 129 73 123 236 187
356 139z"/>
<path fill="#000000" stroke="none" d="M4655 1471 c-42 -19 -100 -76 -108
-108 -3 -10 -8 -35 -11 -55 -5 -26 -13 -39 -29 -44 -146 -44 -101 -89 89 -89
98 0 115 3 134 20 30 27 23 84 -19 151 -32 53 -39 92 -20 111 24 24 4 32 -36
14z"/>
<path fill="#ffffff" stroke="none" d="M4665 1439 c-5 -15 6 -47 36 -105 50
-98 47 -123 -17 -144 -64 -21 -256 2 -239 29 3 5 22 15 43 21 43 14 62 34 62
67 0 36 35 98 72 127 40 31 51 33 43 5z"/>
<path fill="#000000" stroke="none" d="M3109 2084 c-68 -75 -224 -86 -295 -22
-13 12 -24 15 -28 10 -10 -16 57 -51 117 -62 88 -17 199 18 228 72 16 30 5 31
-22 2z"/>
<path fill="#000000" stroke="none" d="M1780 1020 c-25 -5 -131 -49 -237 -99
-106 -50 -198 -91 -205 -91 -23 0 -132 -56 -152 -78 -33 -38 -7 -121 49 -158
24 -15 29 -15 82 1 62 20 227 109 388 210 90 57 104 70 142 131 23 38 43 75
43 82 0 13 -39 14 -110 2z"/>
<path fill="#ffffff" stroke="none" d="M1760 972 c22 -20 43 -70 34 -83 -10
-17 -152 -109 -261 -169 l-106 -59 -20 57 c-10 31 -26 65 -34 75 -9 9 -14 19
-12 21 9 10 355 174 367 175 7 1 21 -7 32 -17z"/>
<path fill="#ffffff" stroke="none" d="M1353 792 c23 -25 47 -86 47 -120 0
-30 -30 -52 -70 -52 -10 0 -22 -4 -25 -10 -10 -16 -61 -11 -78 8 -9 10 -23 35
-32 56 -15 34 -15 40 0 62 8 13 26 26 40 30 14 3 25 10 25 14 0 8 44 28 66 29
6 1 18 -7 27 -17z"/>
<path fill="#000000" stroke="none" d="M1697 943 c-21 -13 -96 -55 -168 -92
-72 -38 -127 -71 -122 -74 9 -6 303 149 325 171 22 22 3 20 -35 -5z"/>
<path fill="#000000" stroke="none" d="M1593 821 c-95 -53 -168 -98 -162 -100
9 -3 312 160 333 180 31 28 -19 5 -171 -80z"/>
<path fill="#000000" stroke="none" d="M1269 755 c-7 -6 43 -114 53 -114 10
-1 -9 57 -30 90 -10 16 -21 27 -23 24z"/>
<path fill="#000000" stroke="none" d="M2340 835 c164 -20 397 -83 446 -120
22 -17 34 -19 34 -6 0 12 -102 55 -200 85 -119 35 -241 56 -319 55 -64 -1 -63
-2 39 -14z"/>
<path fill="#000000" stroke="none" d="M2030 760 c0 -6 38 -10 93 -10 89 0
233 -26 279 -51 11 -6 22 -8 25 -5 12 11 -85 46 -171 61 -101 17 -226 20 -226
5z"/>
<path fill="#000000" stroke="none" d="M2466 742 c-3 -5 28 -12 69 -15 86 -8
251 -58 290 -89 18 -14 26 -17 23 -7 -7 22 -75 55 -168 82 -96 28 -206 42
-214 29z"/>
<path fill="#000000" stroke="none" d="M3401 820 c-104 -27 -170 -54 -158 -66
3 -3 22 3 44 14 55 28 193 60 303 70 l95 9 -85 1 c-63 1 -114 -6 -199 -28z"/>
<path fill="#000000" stroke="none" d="M3385 743 c-96 -12 -240 -56 -291 -89
-43 -29 -20 -26 47 6 80 37 207 70 271 70 30 0 47 4 43 10 -6 10 -13 10 -70 3z"/>
<path fill="#000000" stroke="none" d="M3301 679 c-95 -18 -231 -72 -217 -86
2 -2 22 5 43 15 58 30 147 54 253 67 93 12 94 13 30 13 -36 0 -85 -4 -109 -9z"/>
<path fill="#000000" stroke="none" d="M5175 1244 c-33 -33 -73 -69 -89 -81
-17 -12 -26 -25 -22 -32 5 -8 12 -7 23 4 14 14 17 14 34 -1 17 -15 20 -15 46
4 15 11 48 41 72 66 38 39 42 46 27 52 -11 4 -16 14 -13 25 10 36 -20 23 -78
-37z"/>
</g>
</svg>
