<?xml version="1.0" standalone="no"?>
<!DOCTYPE svg PUBLIC "-//W3C//DTD SVG 20010904//EN"
 "http://www.w3.org/TR/2001/REC-SVG-20010904/DTD/svg10.dtd">
<svg version="1.0" xmlns="http://www.w3.org/2000/svg"
 width="621.000000pt" height="511.000000pt" viewBox="0 0 621.000000 511.000000"
 preserveAspectRatio="xMidYMid meet">
<metadata>
Created by potrace 1.16, written by Peter Selinger 2001-2019
</metadata>
<g transform="translate(0.000000,511.000000) scale(0.100000,-0.100000)"
fill="#000000" stroke="none">
<path fill="#000000" stroke="none" d="M0 2555 l0 -2555 3105 0 3105 0 0 2555
0 2555 -3105 0 -3105 0 0 -2555z"/>
<path fill="#ffffff" stroke="none" d="M6200 2555 l0 -2545 -3095 0 -3095 0 0
2545 0 2545 3095 0 3095 0 0 -2545z"/>
<path fill="#000000" stroke="none" d="M4175 4804 c-87 -13 -239 -49 -307 -74
-165 -60 -269 -148 -370 -313 -62 -101 -115 -161 -150 -173 -26 -8 -56 21 -64
62 -7 38 -19 44 -27 14 -9 -34 14 -98 51 -141 33 -38 34 -41 11 -34 -57 18
-132 61 -183 107 l-55 49 -7 -27 c-4 -14 -2 -75 4 -134 18 -172 65 -271 149
-310 26 -13 49 -24 51 -25 1 -1 -5 -31 -14 -66 -13 -52 -14 -73 -5 -112 22
-95 11 -131 -44 -151 -29 -11 0 -26 51 -26 l41 0 7 -112 c27 -467 254 -773
647 -872 61 -16 94 -29 94 -37 0 -21 -91 -23 -247 -4 -76 9 -146 14 -156 11
-21 -7 -90 34 -152 90 -38 35 -130 153 -130 168 0 3 16 -2 35 -11 19 -9 38
-13 42 -9 10 9 -80 92 -144 133 -32 20 -150 111 -174 133 -12 11 -46 189 -128
660 -141 821 -151 873 -154 876 -1 1 -414 15 -917 31 -911 29 -915 29 -967 10
-38 -14 -53 -25 -53 -38 0 -27 249 -1921 255 -1940 3 -9 -109 -337 -249 -730
-382 -1074 -396 -1115 -396 -1121 0 -3 15 -15 34 -26 30 -18 46 -20 129 -15
l95 6 30 81 c16 45 118 334 228 644 126 356 201 556 205 545 14 -39 21 -136
10 -142 -7 -5 -8 -27 -3 -67 l7 -59 80 -12 c83 -13 274 -18 306 -8 11 4 19 2
19 -4 0 -35 201 -1386 207 -1392 27 -24 82 -29 176 -16 53 8 99 16 102 18 2 3
-7 81 -20 174 -105 733 -175 1239 -172 1241 2 2 86 11 188 19 101 8 258 21
349 29 91 8 168 11 171 7 4 -3 37 -181 74 -396 122 -712 155 -900 161 -927 10
-48 90 -58 256 -31 32 5 37 9 33 27 -30 143 -228 1347 -222 1352 3 3 92 12
199 21 106 9 195 17 197 19 4 4 -18 150 -26 171 -3 7 -14 11 -26 10 -19 -2
-24 17 -83 358 -35 198 -63 368 -63 378 -1 17 1 17 28 -2 16 -12 42 -21 58
-21 24 0 33 -7 47 -37 53 -112 169 -235 274 -291 58 -31 61 -34 64 -75 l3 -42
84 -7 c46 -4 85 -8 87 -10 2 -2 -10 -39 -27 -81 -93 -240 -149 -634 -134 -942
9 -179 13 -202 35 -208 24 -6 24 -10 6 -242 -7 -93 -19 -183 -25 -198 -6 -16
-11 -45 -11 -66 0 -41 10 -50 89 -71 28 -7 39 -15 35 -24 -10 -26 -35 -26 -76
2 -31 20 -54 27 -89 27 -81 0 -132 -52 -151 -153 -15 -82 -9 -88 108 -103 101
-12 211 -3 275 24 l37 15 -6 88 c-6 97 3 114 60 114 37 0 48 24 48 107 0 64
36 403 44 410 2 2 14 -1 28 -7 22 -10 27 -28 61 -194 20 -100 37 -198 37 -217
0 -19 5 -50 10 -70 11 -40 28 -49 98 -49 35 0 42 -3 42 -19 0 -11 -13 -32 -29
-48 -24 -25 -61 -116 -61 -152 0 -42 157 -65 252 -37 78 22 84 33 65 103 -18
60 -55 108 -92 117 -14 4 -24 15 -27 30 -4 20 0 26 21 31 71 17 86 56 55 140
-12 32 -54 307 -54 352 0 6 13 16 29 21 24 8 30 17 35 54 7 47 -8 299 -24 393
-9 54 -33 316 -31 340 15 172 20 228 26 244 4 13 -17 79 -60 188 -64 161 -69
169 -110 196 -23 15 -49 27 -56 27 -24 1 -72 47 -66 63 4 11 33 15 124 20 124
6 209 25 308 71 120 55 249 160 334 273 l45 58 55 1 c37 0 70 8 97 22 44 22
98 78 109 111 3 11 26 29 50 41 79 38 122 111 72 124 -42 10 -78 60 -102 143
-12 43 -26 86 -30 95 -7 17 -5 17 31 2 91 -38 200 0 244 86 29 57 26 66 -21
74 -70 11 -82 22 -76 69 2 23 14 65 27 93 29 66 24 85 -45 169 -58 71 -67 90
-37 81 56 -18 124 -25 150 -15 l27 11 -30 12 c-59 26 -85 74 -116 220 -27 121
-48 166 -106 223 -57 57 -114 87 -213 112 -42 10 -68 21 -61 26 7 4 47 13 89
19 l77 12 -43 29 c-45 29 -121 40 -168 22 -19 -7 -22 -3 -27 27 -13 79 -51
126 -113 142 -24 6 -26 5 -19 -12 26 -63 39 -104 33 -110 -4 -3 -21 6 -39 20
-45 38 -115 72 -201 97 -58 17 -105 22 -233 24 -88 2 -173 1 -190 -1z"/>
<path fill="#ffffff" stroke="none" d="M4573 4771 c100 -26 174 -62 232 -113
l48 -42 -5 59 c-3 33 -9 69 -14 80 -8 19 -7 19 16 4 42 -28 63 -65 68 -123 l4
-54 34 14 c45 19 108 18 147 -3 l32 -17 -53 -8 c-58 -9 -122 -32 -122 -45 0
-5 32 -14 71 -20 127 -20 252 -100 300 -194 10 -21 30 -85 44 -143 26 -113 52
-173 87 -206 21 -19 21 -20 2 -20 -11 0 -46 7 -78 15 -33 9 -61 13 -64 11 -12
-13 12 -56 63 -114 64 -73 67 -94 30 -174 -43 -93 -26 -144 53 -155 30 -4 42
-10 42 -22 0 -31 -49 -89 -95 -111 -57 -27 -107 -22 -182 19 -29 16 -53 27
-53 24 0 -2 11 -24 25 -48 14 -24 35 -75 46 -115 24 -87 39 -111 84 -136 19
-10 35 -25 35 -33 0 -18 -67 -81 -86 -81 -10 0 -14 13 -14 45 0 92 -49 139
-142 139 -32 1 -58 1 -58 2 0 1 7 21 15 44 18 50 10 66 -14 30 -23 -36 -92
-110 -102 -110 -4 0 4 24 19 53 23 45 27 64 27 137 -1 64 -6 96 -22 131 -48
105 -105 141 -358 229 -340 118 -435 189 -422 317 6 62 -5 62 -34 -1 -48 -107
-9 -236 108 -357 36 -38 61 -69 55 -69 -6 0 -37 10 -69 21 -128 48 -225 136
-264 238 -17 45 -20 71 -16 136 2 44 8 90 12 103 14 41 -13 23 -36 -25 -59
-122 -18 -390 77 -501 43 -50 27 -55 -39 -11 -57 38 -128 130 -158 207 -19 46
-23 77 -24 162 0 96 2 110 28 157 15 29 27 55 27 59 0 4 -44 -35 -97 -87 -111
-108 -227 -188 -319 -221 -44 -16 -64 -28 -67 -43 -3 -11 -19 -59 -36 -106
-17 -47 -34 -116 -38 -154 -7 -64 -10 -70 -35 -79 -28 -10 -52 -1 -31 12 26
16 33 61 21 132 -10 58 -10 80 2 128 13 48 19 57 40 60 44 6 47 22 5 22 -139
1 -220 124 -232 350 l-6 104 49 -43 c61 -54 153 -99 219 -106 43 -5 47 -4 31
7 -46 32 -78 62 -91 89 -19 36 -19 44 1 25 32 -33 94 -10 141 51 16 21 54 78
83 126 65 105 159 198 248 245 216 115 576 161 805 103z"/>
<path fill="#ffffff" stroke="none" d="M1985 4490 c391 -11 742 -23 781 -26
l71 -5 22 -122 c12 -67 64 -369 116 -672 52 -302 101 -585 108 -627 8 -43 12
-78 10 -78 -17 0 -63 34 -63 46 0 9 -13 28 -29 43 -28 26 -31 42 -131 581 -56
305 -109 596 -118 645 -8 50 -18 94 -22 98 -7 8 -1570 61 -1577 53 -3 -3 97
-779 193 -1486 13 -102 34 -255 45 -340 11 -85 37 -281 57 -434 l37 -280 60 3
c33 1 238 13 455 27 217 13 472 29 565 35 463 27 596 36 600 41 3 3 -34 221
-83 484 -48 263 -84 481 -80 482 14 6 106 -82 102 -96 -2 -7 3 -29 11 -50 13
-34 159 -852 153 -857 -5 -5 -1889 -127 -1893 -123 -1 2 -17 111 -34 243 -18
132 -45 339 -62 460 -41 308 -259 1969 -259 1979 0 5 57 6 128 2 70 -3 447
-15 837 -26z"/>
<path fill="#ffffff" stroke="none" d="M1076 3959 c40 -299 120 -906 178
-1349 58 -443 106 -813 106 -822 0 -10 -8 -18 -17 -18 -15 0 -16 -2 -3 -10 8
-5 25 -10 38 -10 21 0 23 4 20 33 -3 30 -1 32 30 35 29 3 32 1 32 -22 0 -14 5
-26 10 -26 6 0 10 11 10 25 0 14 6 25 13 25 6 0 212 14 457 30 245 17 553 37
685 45 132 9 338 22 459 30 120 9 220 14 222 12 2 -2 10 -36 17 -75 l14 -71
-41 -6 c-38 -5 -694 -58 -1121 -91 -104 -8 -300 -23 -434 -34 -135 -11 -246
-18 -249 -15 -2 2 -7 24 -9 50 -3 25 -10 45 -15 45 -5 0 -6 -22 -2 -51 7 -51
7 -52 -17 -46 -13 3 -56 9 -95 13 -40 3 -76 9 -82 13 -6 4 -14 26 -18 49 -6
39 -5 42 16 42 19 0 20 2 10 15 -13 15 -40 212 -244 1775 -64 487 -118 895
-121 908 -5 18 1 25 27 37 18 8 37 13 43 11 5 -1 42 -247 81 -547z"/>
<path fill="#ffffff" stroke="none" d="M1985 4389 c402 -12 731 -23 732 -23 3
-3 37 -179 62 -321 11 -60 53 -295 95 -522 42 -227 76 -422 76 -434 0 -22 -7
-22 -67 -4 -14 4 -23 3 -23 -3 0 -10 13 -14 91 -27 41 -6 53 -17 63 -57 7 -30
4 -31 -32 -21 -20 5 -23 10 -18 36 5 26 4 28 -10 16 -9 -7 -14 -22 -11 -36 3
-14 0 -20 -7 -16 -25 14 -49 40 -57 62 -5 13 -12 21 -16 18 -10 -11 18 -65 43
-82 13 -8 35 -15 49 -15 14 0 25 -4 25 -9 0 -5 13 -80 29 -168 69 -367 141
-763 141 -772 0 -5 -46 -12 -102 -15 -638 -41 -1543 -95 -1546 -92 -3 4 -91
649 -133 971 -5 44 -53 402 -105 794 -51 393 -94 721 -94 728 0 17 -40 17 815
-8z"/>
<path fill="#ffffff" stroke="none" d="M3807 4002 c-15 -85 2 -175 49 -271 48
-98 133 -184 201 -204 70 -21 81 -11 34 30 -23 19 -53 61 -70 96 -51 105 -67
189 -61 332 3 50 3 49 11 -19 24 -182 147 -310 353 -366 83 -23 105 -20 65 7
-142 99 -238 265 -212 369 l10 39 12 -44 c27 -97 136 -164 431 -266 262 -90
309 -121 350 -232 33 -88 30 -168 -9 -247 -17 -35 -31 -66 -31 -70 0 -18 36
-1 75 35 53 49 60 36 10 -20 -46 -51 -44 -59 4 -20 66 52 168 50 204 -5 37
-57 23 -150 -33 -218 -82 -99 -248 -105 -282 -11 -10 28 -28 45 -28 28 0 -21
32 -75 49 -85 12 -6 21 -16 21 -22 0 -23 -118 -154 -190 -211 -85 -68 -222
-136 -325 -162 -38 -9 -119 -19 -180 -21 -86 -3 -109 -7 -107 -18 5 -26 -17
-66 -37 -66 -49 0 -66 34 -41 81 9 16 7 19 -13 19 -53 0 -188 43 -283 90 -214
105 -350 282 -421 548 -24 87 -27 115 -27 282 -1 201 8 254 61 373 26 57 30
61 99 92 86 39 169 95 255 169 35 31 64 54 65 53 1 -1 -3 -30 -9 -65z"/>
<path fill="#ffffff" stroke="none" d="M3145 2850 c3 -5 47 -36 98 -69 80 -52
97 -69 132 -127 46 -76 161 -189 226 -221 43 -21 44 -24 41 -63 -2 -22 -9 -40
-16 -40 -28 0 -127 69 -187 130 -62 62 -149 190 -149 218 0 7 -14 12 -33 12
-40 0 -107 44 -107 70 0 17 2 18 28 4 15 -7 33 -14 40 -14 22 0 12 15 -20 30
-32 15 -89 80 -70 80 6 0 14 -4 17 -10z"/>
<path fill="#ffffff" stroke="none" d="M1180 2411 c0 -23 -111 -358 -290 -876
-249 -721 -298 -869 -276 -844 2 2 131 374 287 826 156 452 285 821 286 819 5
-4 43 -300 43 -331 0 -26 -451 -1319 -464 -1333 -3 -3 -46 -6 -95 -8 -74 -2
-94 0 -112 15 l-21 17 247 695 c135 382 276 778 313 881 36 103 70 184 74 182
4 -3 8 -22 8 -43z"/>
<path fill="#ffffff" stroke="none" d="M3891 2399 l76 -12 -38 -72 c-39 -75
-76 -181 -68 -190 11 -10 241 -66 261 -63 17 2 25 17 40 71 21 77 73 197 85
197 4 0 14 -4 22 -9 12 -8 11 -17 -8 -56 -57 -121 -65 -252 -21 -353 30 -69
38 -59 11 13 -36 97 -22 257 32 353 13 22 14 22 29 5 28 -32 137 -317 126
-330 -8 -10 -108 -53 -122 -53 -2 0 -12 19 -22 42 -27 60 -27 238 -1 287 12
22 14 32 6 29 -24 -8 -37 -73 -38 -184 -1 -100 1 -116 24 -158 30 -56 33 -119
8 -171 -17 -35 -18 -36 -58 -28 -124 25 -286 -4 -395 -69 -219 -132 -50 -344
229 -286 161 33 269 113 326 242 l23 51 5 -35 c4 -19 8 -66 11 -105 3 -38 12
-115 21 -170 8 -55 18 -170 22 -256 l6 -156 -49 -16 c-101 -33 -174 -47 -240
-47 -56 0 -74 4 -103 25 -44 29 -114 48 -262 70 -168 25 -156 15 -164 142 -10
139 0 440 19 568 35 240 94 437 181 602 61 118 56 141 -6 27 l-41 -75 -72 2
c-102 2 -108 5 -102 42 3 18 8 59 11 91 l7 59 76 -7 c43 -3 111 -11 153 -17z"/>
<path fill="#ffffff" stroke="none" d="M4095 2348 c20 -5 36 -3 52 7 24 16 53
10 53 -10 0 -7 5 -15 10 -17 7 -2 -2 -31 -19 -70 -17 -36 -38 -93 -47 -126
l-16 -59 -46 9 c-26 4 -82 18 -125 29 l-79 22 6 31 c3 17 27 73 53 125 38 75
53 95 70 96 13 1 26 5 30 8 3 4 11 -3 17 -15 6 -12 24 -25 41 -30z"/>
<path fill="#ffffff" stroke="none" d="M4433 1833 c-5 -90 -20 -152 -52 -212
l-19 -35 -7 32 c-3 17 -20 43 -36 56 l-29 25 22 42 c15 29 21 58 20 93 l-1 51
47 16 c26 9 50 17 53 18 4 0 5 -38 2 -86z"/>
<path fill="#ffffff" stroke="none" d="M2944 1713 c5 -26 140 -826 200 -1187
14 -83 24 -151 23 -151 -1 -1 -40 -7 -87 -12 -59 -8 -87 -8 -91 -1 -4 6 -12 8
-17 4 -6 -4 -22 -4 -36 0 -20 5 -26 14 -31 47 -10 66 -215 1249 -221 1280 -5
25 -3 27 24 27 25 0 31 -5 36 -27 3 -16 53 -305 111 -643 58 -338 110 -626
115 -640 16 -46 11 6 -15 153 -13 78 -63 364 -110 634 -47 271 -85 501 -85
512 0 17 8 21 63 24 34 2 74 4 89 5 21 2 27 -3 32 -25z"/>
<path fill="#ffffff" stroke="none" d="M4242 1698 c113 -34 116 -126 8 -199
-51 -34 -135 -67 -193 -74 l-42 -6 33 15 c66 31 17 81 -51 52 -45 -18 -49 -47
-9 -63 25 -10 24 -11 -23 -12 -28 -1 -75 5 -104 13 -49 12 -52 12 -37 -3 24
-24 183 -28 267 -7 98 24 188 74 226 124 35 47 42 48 19 3 -36 -69 -148 -139
-256 -162 -78 -16 -187 -7 -244 21 -26 12 -45 24 -42 27 2 3 -7 21 -20 40 -28
42 -29 45 -8 88 26 55 121 114 229 141 64 16 197 17 247 2z"/>
<path fill="#ffffff" stroke="none" d="M1961 1465 c15 -104 59 -419 98 -699
40 -279 71 -510 68 -512 -8 -8 -155 -24 -187 -20 -66 9 -63 2 -94 214 -15 108
-59 410 -97 670 -38 260 -69 484 -69 497 0 34 47 36 55 3 2 -13 48 -322 101
-688 53 -366 98 -667 100 -669 2 -2 6 -2 8 0 3 2 -40 310 -95 684 -54 374 -97
685 -94 692 4 11 87 21 155 19 25 -1 25 -3 51 -191z"/>
<path fill="#ffffff" stroke="none" d="M3969 925 c24 -5 31 -12 31 -31 0 -47
-31 -309 -40 -337 -6 -19 -6 -34 2 -46 16 -26 2 -88 -24 -102 -27 -15 -168 -6
-223 14 -38 13 -40 16 -43 58 -3 65 2 69 78 53 36 -7 94 -13 130 -13 64 2 64
2 -35 15 -119 15 -155 27 -155 51 0 10 7 97 15 193 8 96 15 178 15 181 0 5
179 -20 249 -36z"/>
<path fill="#ffffff" stroke="none" d="M4415 868 c7 -33 35 -258 35 -284 0
-19 -10 -25 -57 -39 -32 -9 -90 -19 -130 -22 -40 -3 -73 -10 -73 -16 0 -13
124 0 205 22 63 18 66 18 75 0 6 -10 10 -35 10 -57 0 -34 -4 -41 -27 -51 -51
-20 -117 -31 -191 -31 -69 0 -73 1 -82 26 -6 14 -10 42 -10 62 0 21 -13 98
-29 172 -16 74 -32 151 -35 170 l-6 35 93 1 c50 1 115 8 142 17 69 20 74 20
80 -5z"/>
<path fill="#ffffff" stroke="none" d="M3699 356 c15 -14 32 -26 39 -26 7 0
12 -11 12 -25 0 -14 5 -25 11 -25 7 0 9 11 6 30 -6 26 -4 30 16 30 13 0 28 -5
35 -12 9 -9 12 -9 12 -1 0 7 -5 15 -11 19 -8 4 -7 9 2 15 7 4 10 11 6 15 -3 4
-13 1 -22 -6 -13 -11 -14 -10 -9 4 7 17 31 21 52 7 10 -6 12 -23 6 -69 l-7
-62 -41 -12 c-48 -14 -210 -17 -278 -5 -44 8 -48 11 -48 36 0 34 37 91 70 109
40 21 116 10 149 -22z"/>
<path fill="#ffffff" stroke="none" d="M4390 370 c0 -5 -11 -10 -24 -10 -14 0
-28 -5 -32 -11 -4 -7 4 -10 25 -7 18 1 35 -2 39 -7 4 -6 20 -15 37 -20 31 -11
75 -66 75 -96 0 -13 -12 -20 -47 -26 -60 -10 -209 -11 -219 -1 -14 15 16 87
46 108 22 15 30 30 30 51 0 27 3 29 35 29 19 0 35 -4 35 -10z"/>
<path fill="#000000" stroke="none" d="M2014 3936 c-100 -25 -177 -87 -201
-161 -8 -24 -17 -31 -45 -36 -20 -3 -47 -13 -61 -22 -51 -33 -74 -138 -41
-185 15 -22 14 -24 -24 -63 -23 -22 -47 -60 -56 -86 -20 -59 -21 -163 0 -211
19 -45 67 -97 106 -113 25 -10 28 -16 23 -37 -23 -93 -19 -117 31 -172 38 -42
112 -74 161 -69 16 2 48 -8 73 -22 38 -20 59 -24 132 -24 l86 0 8 -40 c4 -22
8 -116 9 -210 l2 -169 33 -14 c65 -26 202 15 184 56 -28 65 -94 334 -94 383 0
14 7 19 30 19 66 0 134 22 167 55 28 28 33 40 33 83 0 46 2 51 39 75 82 54
128 150 117 240 -10 92 -75 197 -144 233 -1 0 5 18 14 40 44 106 -49 244 -187
277 -43 10 -54 18 -80 58 -30 47 -81 89 -130 107 -46 18 -133 21 -185 8z"/>
<path fill="#ffffff" stroke="none" d="M2215 3902 c47 -24 96 -73 119 -119 14
-28 22 -33 52 -33 66 0 160 -68 190 -137 18 -42 18 -101 -1 -137 -19 -35 -19
-46 -1 -46 24 0 103 -97 120 -147 40 -117 4 -232 -94 -296 l-50 -32 6 -47 c6
-43 4 -50 -23 -77 -46 -46 -161 -67 -229 -41 -22 9 -36 6 -77 -15 -71 -35
-173 -35 -243 0 -27 14 -67 25 -89 25 -53 1 -114 29 -148 69 -21 26 -27 43
-27 79 1 26 7 58 15 72 20 35 20 35 -24 49 -109 32 -160 188 -105 321 17 40
71 100 91 100 18 0 16 6 -9 41 -58 78 7 199 106 199 18 0 26 5 26 17 0 30 48
99 88 125 93 62 222 74 307 30z"/>
<path fill="#ffffff" stroke="none" d="M2316 2767 c1 -1 13 -62 28 -136 15
-74 38 -168 51 -208 14 -40 25 -75 25 -77 0 -13 -76 -36 -117 -36 -73 0 -77 5
-71 96 5 76 -6 290 -17 323 -7 22 43 51 75 44 14 -2 25 -5 26 -6z"/>
<path fill="#000000" stroke="none" d="M3630 3694 c-26 -24 -40 -45 -40 -61 0
-24 2 -25 38 -19 147 24 152 26 152 61 0 35 -26 55 -71 55 -31 0 -47 -8 -79
-36z"/>
<path fill="#000000" stroke="none" d="M4516 3611 c-29 -32 -16 -54 59 -93 87
-45 105 -47 105 -10 0 83 -116 156 -164 103z"/>
<path fill="#000000" stroke="none" d="M3632 3560 c-122 -75 -94 -269 46 -311
130 -38 244 108 182 236 -43 88 -148 123 -228 75z"/>
<path fill="#ffffff" stroke="none" d="M3789 3542 c14 -10 37 -34 49 -53 20
-28 23 -43 20 -92 -4 -51 -9 -63 -40 -94 -30 -29 -45 -37 -87 -41 -43 -4 -57
0 -90 21 -129 85 -66 300 83 283 22 -2 51 -13 65 -24z"/>
<path fill="#000000" stroke="none" d="M3685 3455 c-52 -51 -18 -145 51 -145
49 0 84 37 84 88 0 75 -83 110 -135 57z"/>
<path fill="#000000" stroke="none" d="M4452 3479 c-50 -15 -116 -87 -130
-140 -25 -98 31 -193 129 -219 110 -30 240 74 239 192 -1 115 -124 202 -238
167z"/>
<path fill="#ffffff" stroke="none" d="M4595 3445 c56 -32 79 -80 73 -151 -13
-153 -204 -220 -301 -105 -119 142 67 351 228 256z"/>
<path fill="#000000" stroke="none" d="M4467 3359 c-22 -13 -47 -61 -47 -93 0
-13 12 -38 26 -55 33 -40 89 -43 131 -7 23 20 28 32 28 71 0 39 -5 51 -28 71
-30 25 -78 31 -110 13z"/>
<path fill="#000000" stroke="none" d="M3989 3240 c-26 -26 -30 -36 -25 -63 3
-18 16 -40 27 -49 32 -27 45 -21 15 7 -31 29 -35 74 -8 98 26 23 41 21 74 -10
31 -29 39 -18 11 15 -32 36 -60 37 -94 2z"/>
<path fill="#000000" stroke="none" d="M5078 3121 c-18 -17 -28 -31 -21 -31 6
0 15 5 18 10 3 6 21 17 38 26 l32 17 -27 -26 c-28 -26 -36 -47 -19 -47 13 0
41 -29 41 -42 0 -6 -9 -3 -21 8 -25 23 -46 12 -72 -37 l-18 -34 5 48 c6 50 -8
58 -17 10 -6 -32 11 -113 24 -113 5 0 9 11 9 25 0 38 27 95 44 95 9 0 21 -9
28 -20 19 -29 28 -24 28 14 0 24 -7 39 -20 49 -19 13 -19 15 -3 29 10 9 26 18
36 19 32 7 23 24 -15 27 -29 2 -43 -3 -70 -27z"/>
<path fill="#000000" stroke="none" d="M3824 3036 c-12 -31 16 -199 42 -256
42 -92 89 -131 183 -151 65 -14 120 1 172 48 49 44 79 133 79 233 l0 67 -73
-5 c-109 -7 -239 18 -379 73 -12 5 -20 1 -24 -9z"/>
<path fill="#ffffff" stroke="none" d="M3878 3016 c55 -28 212 -57 314 -58
l100 -1 -7 -66 c-4 -36 -9 -69 -11 -72 -6 -10 -87 -4 -111 9 -52 28 -157 0
-230 -62 l-32 -27 -16 30 c-22 44 -45 148 -45 209 0 28 2 52 5 52 4 0 18 -6
33 -14z"/>
<path fill="#ffffff" stroke="none" d="M4148 2814 c20 -10 45 -16 56 -15 10 2
29 0 42 -3 24 -6 24 -7 9 -44 -31 -74 -88 -112 -167 -112 -65 1 -168 53 -168
85 0 28 100 83 188 104 1 1 19 -6 40 -15z"/>
<path fill="#000000" stroke="none" d="M3716 2402 c-3 -5 -8 -29 -11 -53 -4
-24 -8 -54 -11 -66 -2 -13 0 -23 5 -23 5 0 13 32 19 72 11 70 10 89 -2 70z"/>
<path fill="#000000" stroke="none" d="M3832 1988 c-50 -54 -83 -194 -50 -214
17 -10 53 36 76 98 42 111 28 172 -26 116z"/>
<path fill="#000000" stroke="none" d="M4127 1959 c-25 -15 -47 -63 -47 -104
0 -71 72 -99 113 -43 16 21 18 35 13 73 -7 42 -34 85 -53 85 -5 0 -16 -5 -26
-11z"/>
<path fill="#000000" stroke="none" d="M3826 1291 c-21 -23 -46 -102 -46 -146
0 -17 6 -40 14 -50 44 -60 110 102 76 189 -11 31 -21 32 -44 7z"/>
<path fill="#000000" stroke="none" d="M4283 1285 c-28 -19 -28 -35 -5 -100
13 -36 24 -51 39 -53 18 -3 24 4 33 38 15 56 2 124 -25 128 -11 1 -30 -5 -42
-13z"/>
<path fill="#000000" stroke="none" d="M4000 2361 c0 -5 14 -21 31 -35 26 -22
40 -26 94 -26 35 0 67 5 70 10 5 8 -9 9 -42 4 -54 -7 -119 13 -129 41 -7 16
-24 21 -24 6z"/>
<path fill="#000000" stroke="none" d="M4056 1668 c-8 -39 11 -58 58 -58 37 0
95 28 110 53 17 27 -8 37 -90 37 l-71 0 -7 -32z"/>
<path fill="#000000" stroke="none" d="M3928 1656 c-41 -31 -7 -64 52 -51 34
8 54 29 46 50 -7 19 -74 20 -98 1z"/>
<path fill="#000000" stroke="none" d="M4207 1618 c-23 -13 -21 -45 3 -53 46
-15 109 18 97 49 -7 17 -73 19 -100 4z"/>
<path fill="#000000" stroke="none" d="M3845 1603 c-46 -11 -62 -56 -25 -68
43 -14 119 32 93 56 -13 11 -46 17 -68 12z"/>
<path fill="#000000" stroke="none" d="M4143 1535 c-65 -28 -25 -81 43 -58 33
11 53 38 39 52 -19 17 -50 20 -82 6z"/>
<path fill="#000000" stroke="none" d="M3832 1504 c-39 -27 -23 -54 32 -54 30
0 70 35 62 55 -7 20 -65 20 -94 -1z"/>
<path fill="#000000" stroke="none" d="M4335 321 c3 -6 10 -9 15 -6 5 3 19 1
31 -6 17 -9 20 -8 17 3 -3 7 -19 14 -37 16 -22 2 -31 0 -26 -7z"/>
<path fill="#000000" stroke="none" d="M4328 286 c-10 -7 -15 -16 -11 -19 3
-4 12 -2 20 4 7 7 27 9 46 5 30 -5 31 -5 13 9 -24 18 -45 19 -68 1z"/>
</g>
</svg>
