<?xml version="1.0" standalone="no"?>
<!DOCTYPE svg PUBLIC "-//W3C//DTD SVG 20010904//EN"
 "http://www.w3.org/TR/2001/REC-SVG-20010904/DTD/svg10.dtd">
<svg version="1.0" xmlns="http://www.w3.org/2000/svg"
 width="628.000000pt" height="499.000000pt" viewBox="0 0 628.000000 499.000000"
 preserveAspectRatio="xMidYMid meet">
<metadata>
Created by potrace 1.16, written by Peter Selinger 2001-2019
</metadata>
<g transform="translate(0.000000,499.000000) scale(0.100000,-0.100000)"
fill="#000000" stroke="none">
<path fill="#000000" stroke="none" d="M0 2495 l0 -2495 3140 0 3140 0 0 2495
0 2495 -3140 0 -3140 0 0 -2495z"/>
<path fill="#ffffff" stroke="none" d="M6270 2495 l0 -2485 -3130 0 -3130 0 0
2485 0 2485 3130 0 3130 0 0 -2485z"/>
<path fill="#000000" stroke="none" d="M3556 4854 c-215 -52 -375 -208 -433
-424 -14 -50 -18 -101 -17 -215 1 -132 4 -160 27 -238 71 -233 227 -427 417
-520 84 -41 120 -64 120 -77 0 -4 -16 -23 -36 -44 -46 -47 -42 -72 9 -68 l37
3 0 -173 c0 -165 -12 -401 -26 -516 -5 -42 -11 -56 -29 -64 -25 -11 -65 -76
-65 -105 0 -29 29 -63 54 -63 18 0 25 -10 39 -53 33 -103 154 -282 265 -391
l51 -49 -67 -77 c-144 -166 -300 -410 -467 -727 l-59 -111 41 -54 c23 -29 58
-68 77 -87 32 -31 35 -38 30 -75 -12 -85 35 -176 123 -241 49 -35 173 -90 231
-101 31 -6 32 -8 33 -58 1 -64 19 -126 41 -139 27 -18 66 7 88 56 26 56 25 91
-3 114 -37 30 -87 96 -87 116 0 11 -13 23 -37 33 -97 39 -170 77 -195 101 -43
41 -33 44 29 10 31 -17 88 -43 127 -58 68 -26 70 -28 90 -83 43 -115 130 -160
306 -159 58 0 124 5 148 11 42 10 43 9 59 -22 22 -43 71 -104 94 -117 15 -8
24 -5 44 15 35 35 33 93 -4 171 -41 87 -58 99 -128 91 -32 -3 -106 -9 -164
-12 -97 -6 -109 -5 -155 17 l-49 23 110 7 c61 3 131 11 157 17 59 15 156 51
162 61 3 4 -2 30 -10 57 -63 209 -68 565 -12 809 l20 91 72 -13 c112 -19 338
-16 453 6 54 11 119 26 144 34 31 9 52 11 63 5 20 -11 176 -1 197 13 11 7 12
12 2 28 -11 17 -10 20 10 23 23 3 39 48 17 48 -8 0 -8 6 0 20 14 26 5 40 -25
40 -18 0 -22 4 -18 20 8 31 -19 33 -80 6 l-55 -24 -6 24 c-9 34 -42 31 -61 -6
-8 -16 -15 -36 -15 -44 0 -33 -218 -76 -387 -76 -168 0 -244 14 -333 62 -141
77 -180 137 -52 82 169 -73 330 -73 514 1 60 24 66 25 94 10 16 -8 54 -15 84
-15 66 0 128 34 156 85 11 21 45 49 94 78 42 25 83 53 90 62 16 19 44 19 59 1
10 -12 9 -20 -4 -40 -17 -26 -17 -36 1 -139 3 -20 10 -40 15 -43 5 -3 9 -22 9
-42 0 -84 45 -156 113 -181 46 -18 51 -13 23 23 -30 40 -33 59 -8 52 47 -13
78 -15 92 -5 8 6 11 12 5 15 -35 15 -77 47 -101 79 -31 41 -39 115 -17 150 20
30 15 63 -13 92 -18 18 -22 29 -15 36 19 19 13 74 -9 90 -19 14 -19 14 5 37
14 13 25 28 25 33 0 5 18 39 41 75 97 153 117 281 65 416 -30 80 -83 169 -142
241 l-41 51 52 -4 c47 -4 54 -2 60 17 3 11 3 26 -1 32 -11 18 -71 39 -114 39
-42 0 -50 9 -25 30 33 27 5 110 -32 96 -8 -3 -16 -6 -19 -6 -2 0 -13 -18 -24
-41 -15 -28 -25 -38 -33 -31 -7 5 -41 33 -77 61 -126 101 -281 183 -440 233
-60 18 -98 23 -185 23 -99 0 -116 -3 -168 -27 -114 -53 -218 -177 -314 -373
-27 -55 -66 -122 -86 -149 -96 -125 -157 -305 -157 -461 0 -176 53 -298 187
-433 87 -88 92 -114 13 -70 -119 65 -133 70 -158 59 -22 -10 -30 -5 -98 61
-96 93 -142 152 -199 260 -44 84 -46 88 -39 150 5 55 4 67 -12 83 -22 21 -22
38 -5 220 6 66 11 177 11 246 0 69 3 166 6 215 l7 89 30 0 c17 0 34 7 40 17 9
13 3 25 -31 62 -23 25 -42 48 -42 51 0 2 26 18 58 34 225 113 399 347 458 614
23 102 23 303 1 387 -45 169 -147 295 -298 369 -46 22 -111 48 -144 56 -73 18
-190 18 -269 -1z"/>
<path fill="#ffffff" stroke="none" d="M3872 4823 c96 -30 215 -107 270 -177
97 -121 134 -253 125 -445 -9 -205 -72 -378 -195 -532 -82 -103 -208 -205
-290 -233 -52 -18 -55 -52 -8 -98 55 -54 46 -76 -20 -53 -29 10 -52 11 -80 5
-52 -13 -54 -12 -54 4 0 8 14 25 31 39 25 19 30 30 27 57 -3 30 -8 34 -63 54
-177 64 -354 247 -435 449 -47 118 -62 198 -62 332 1 297 128 500 368 591 126
47 250 50 386 7z"/>
<path fill="#ffffff" stroke="none" d="M4945 3355 c165 -48 337 -143 480 -265
l60 -51 16 38 c22 51 44 70 64 53 22 -18 19 -36 -14 -72 l-29 -33 80 -11 c84
-12 104 -23 95 -48 -8 -21 -43 -20 -96 4 -24 11 -46 18 -49 15 -3 -2 13 -24
34 -47 131 -142 214 -313 214 -438 0 -60 -32 -153 -77 -227 -20 -32 -44 -73
-54 -92 -10 -19 -31 -47 -46 -63 -24 -26 -25 -28 -7 -28 45 0 58 -49 23 -86
l-21 -22 29 -14 c51 -24 41 -108 -13 -108 -13 0 -24 -4 -24 -10 0 -5 11 -10
24 -10 38 0 43 -20 12 -47 -25 -21 -25 -23 -7 -23 12 0 26 -11 35 -29 9 -16
34 -45 58 -65 45 -39 35 -47 -27 -22 -34 14 -35 14 -35 -7 0 -13 7 -33 16 -45
19 -28 5 -28 -30 -1 -38 30 -56 71 -56 129 0 32 -6 57 -15 66 -11 12 -12 20
-5 34 8 15 6 24 -10 40 -17 17 -20 28 -15 53 4 18 14 40 23 50 14 15 13 19 -3
37 -28 31 -55 24 -145 -35 -46 -30 -86 -55 -90 -55 -3 0 -10 14 -15 32 -13 44
-64 72 -127 71 -34 0 -48 3 -48 13 0 47 89 277 130 334 l21 30 -55 35 c-31 19
-82 51 -113 71 -82 51 -193 136 -193 147 0 11 59 115 114 200 20 31 33 57 28
57 -5 0 -57 -45 -116 -100 l-108 -100 -27 19 c-55 39 -55 42 2 124 29 42 79
104 111 137 32 33 56 63 53 66 -8 8 -107 -38 -164 -77 -26 -18 -71 -55 -99
-81 l-51 -48 -29 22 c-16 12 -70 57 -120 100 -51 43 -95 78 -98 78 -3 0 -41
-29 -83 -65 -43 -35 -79 -63 -81 -61 -6 7 65 149 108 214 149 231 307 291 565
217z"/>
<path fill="#ffffff" stroke="none" d="M4507 2973 c35 -31 90 -76 121 -99 l57
-42 51 48 c52 49 192 146 200 138 2 -3 -17 -29 -43 -59 -53 -61 -123 -166
-123 -184 0 -6 12 -22 28 -36 62 -57 55 -58 135 20 41 39 77 71 80 71 4 0 -3
-17 -17 -38 -13 -20 -35 -61 -50 -90 -22 -43 -25 -56 -15 -68 17 -21 159 -121
252 -178 42 -27 80 -52 82 -57 3 -4 -10 -40 -30 -79 -36 -72 -105 -264 -105
-293 0 -8 -6 -18 -12 -21 -7 -3 13 -3 44 0 104 11 167 -31 154 -101 -8 -40
-58 -88 -111 -105 -90 -30 -187 32 -169 107 5 20 4 24 -6 18 -9 -5 -11 -22 -7
-55 l6 -48 -47 -20 c-185 -79 -379 -75 -553 14 l-47 23 -6 -22 c-5 -17 3 -31
33 -59 29 -28 36 -40 27 -47 -30 -25 -105 -51 -149 -51 -42 0 -54 5 -83 34
-39 39 -44 82 -19 142 16 38 18 39 81 13 28 -11 34 -10 49 5 17 17 15 21 -58
89 -208 197 -259 434 -151 703 43 109 105 204 165 252 30 24 78 64 108 88 29
24 55 44 58 44 3 0 34 -26 70 -57z"/>
<path fill="#ffffff" stroke="none" d="M3710 2507 c0 -9 -11 -12 -35 -9 -22 3
-35 0 -35 -7 0 -7 5 -9 11 -6 13 8 64 -3 55 -13 -4 -3 -25 -7 -47 -8 -23 -1
-46 -7 -51 -12 -7 -7 4 -10 35 -9 57 2 67 -17 12 -21 -22 -2 -44 -8 -50 -13
-7 -7 2 -8 26 -4 39 7 64 -10 38 -26 -7 -4 -10 -11 -6 -15 12 -13 36 18 43 55
10 54 20 69 28 43 8 -23 -1 -63 -15 -72 -13 -9 53 -149 111 -235 29 -44 90
-115 134 -159 l80 -78 -29 -24 c-35 -28 -45 -24 -114 52 -110 121 -185 235
-237 363 -18 43 -28 56 -45 57 -50 3 -53 72 -5 120 35 35 96 49 96 21z"/>
<path fill="#ffffff" stroke="none" d="M4130 1920 c0 -5 8 -10 18 -10 9 0 23
-4 31 -9 12 -8 12 -14 -2 -43 -37 -79 -29 -137 24 -182 56 -47 139 -44 221 10
46 29 62 30 88 4 11 -11 20 -17 20 -14 0 4 6 1 14 -6 13 -10 12 -16 -5 -43
-11 -19 -19 -50 -19 -77 0 -25 -7 -70 -15 -100 -8 -30 -21 -106 -27 -169 l-13
-113 -62 6 c-138 14 -313 81 -448 171 -88 58 -215 170 -215 189 0 18 141 201
210 273 35 36 82 79 104 94 39 29 76 38 76 19z"/>
<path fill="#ffffff" stroke="none" d="M5304 1731 c3 -27 3 -57 -1 -67 -6 -17
-5 -17 10 -5 9 7 17 26 17 41 0 22 8 30 50 50 75 35 78 17 6 -32 -23 -15 4
-17 49 -3 27 8 51 12 53 10 9 -9 -11 -24 -46 -35 -62 -20 -64 -33 -4 -26 67 9
69 -14 4 -27 -45 -9 -57 -27 -19 -27 53 0 33 -15 -35 -27 -54 -9 -80 -10 -100
-2 -22 9 -46 6 -125 -15 -107 -28 -242 -46 -343 -46 -69 0 -279 26 -288 35 -3
3 4 26 17 51 20 43 24 46 52 40 189 -37 385 -30 578 21 45 12 65 22 71 37 35
93 44 98 54 27z"/>
<path fill="#ffffff" stroke="none" d="M3937 1337 c140 -93 318 -160 486 -182
l47 -6 0 -122 c0 -138 25 -326 55 -423 6 -19 -2 -24 -72 -47 -327 -108 -699 0
-969 280 -98 102 -97 91 -21 235 63 120 188 334 237 410 l25 36 70 -66 c38
-37 102 -89 142 -115z"/>
<path fill="#ffffff" stroke="none" d="M3604 709 c31 -23 58 -49 61 -58 12
-39 91 -98 176 -131 82 -33 86 -36 110 -85 19 -38 24 -59 19 -88 -11 -64 -34
-63 -45 2 -6 36 -10 40 -53 52 -26 7 -71 23 -100 35 l-54 24 21 26 c22 28 28
54 11 54 -5 0 -10 -6 -10 -14 0 -8 -8 -24 -19 -37 l-18 -23 -49 35 c-76 54
-107 106 -112 184 -2 36 -2 65 1 65 4 0 31 -19 61 -41z"/>
<path fill="#ffffff" stroke="none" d="M4035 514 c22 -4 58 -19 80 -35 64 -45
117 -53 246 -40 128 14 123 16 159 -78 29 -76 18 -98 -24 -47 l-33 39 -65 -12
c-36 -6 -82 -11 -104 -11 l-40 0 4 40 c2 22 0 40 -5 40 -5 0 -9 -16 -9 -35 0
-19 -3 -38 -7 -41 -13 -13 -128 14 -173 41 -42 25 -83 80 -99 133 -6 20 -4 23
12 19 10 -3 36 -9 58 -13z"/>
<path fill="#ffffff" stroke="none" d="M4564 428 c50 -68 71 -161 46 -209 -15
-27 -34 -24 -65 13 -23 27 -24 33 -11 40 25 14 19 62 -14 128 l-30 60 24 0
c16 0 33 -11 50 -32z"/>
<path fill="#ffffff" stroke="none" d="M4040 302 c0 -38 -31 -96 -57 -106 -21
-8 -39 11 -47 49 -5 25 -3 32 16 40 16 7 26 23 32 51 l9 41 24 -20 c16 -14 23
-31 23 -55z"/>
<path fill="#000000" stroke="none" d="M4392 2864 c-37 -25 -26 -40 42 -58 71
-20 86 -16 86 18 0 50 -79 75 -128 40z"/>
<path fill="#000000" stroke="none" d="M4352 2707 c-34 -36 -26 -50 8 -16 30
31 55 32 88 7 18 -16 29 -69 21 -105 -7 -34 4 -46 15 -17 11 27 7 74 -9 104
-28 54 -86 66 -123 27z"/>
<path fill="#000000" stroke="none" d="M4492 2458 c-34 -17 -45 -85 -14 -96
10 -3 10 2 1 22 -10 22 -9 29 6 46 26 29 59 22 63 -12 4 -32 22 -38 22 -8 0
20 -33 61 -47 59 -5 0 -18 -5 -31 -11z"/>
<path fill="#000000" stroke="none" d="M4942 2458 c-18 -18 -15 -32 16 -71 15
-19 32 -43 38 -53 10 -16 13 -17 28 -5 20 17 21 63 1 100 -20 40 -59 53 -83
29z"/>
<path fill="#000000" stroke="none" d="M4774 2400 c-23 -9 -57 -50 -49 -58 3
-3 14 7 26 21 51 66 139 -5 124 -101 -5 -31 -4 -34 6 -18 6 11 9 37 6 63 -7
68 -63 113 -113 93z"/>
<path fill="#000000" stroke="none" d="M4293 2323 c-64 -147 -33 -273 79 -318
54 -21 98 -13 145 28 37 32 93 112 93 131 0 6 -28 24 -61 40 -36 18 -92 59
-139 103 -43 40 -81 73 -84 73 -4 0 -19 -26 -33 -57z"/>
<path fill="#ffffff" stroke="none" d="M4493 2217 c29 -19 63 -38 75 -41 12
-4 22 -11 22 -15 0 -13 -44 -74 -57 -78 -6 -2 -31 15 -55 38 l-43 43 -84 0
-83 1 6 44 c3 24 17 69 31 98 l24 54 55 -55 c31 -30 80 -70 109 -89z"/>
<path fill="#ffffff" stroke="none" d="M4452 2120 c11 -13 29 -29 40 -34 33
-17 32 -34 -4 -56 -68 -41 -152 -14 -193 63 -26 49 -13 59 74 54 53 -3 67 -7
83 -27z"/>
<path fill="#000000" stroke="none" d="M5193 1973 c-22 -8 -14 -21 10 -16 16
3 18 2 8 -5 -10 -7 -11 -14 -1 -31 10 -20 10 -21 -9 -9 -17 10 -25 10 -41 0
-22 -13 -27 -3 -8 16 8 8 8 12 1 12 -18 0 -34 -26 -40 -67 l-6 -38 35 39 c36
41 58 42 58 4 0 -18 2 -19 16 -7 10 8 14 23 12 41 -4 26 -2 28 31 28 l36 1
-24 19 c-22 19 -52 24 -78 13z"/>
<path fill="#000000" stroke="none" d="M4109 1887 c-18 -10 -24 -21 -25 -45 0
-18 -6 -38 -12 -44 -17 -17 -15 -53 3 -68 11 -9 14 -22 10 -41 -5 -22 -1 -34
19 -54 14 -14 34 -26 46 -26 36 -2 38 -4 59 -30 26 -34 66 -44 95 -25 16 10
27 11 40 4 26 -15 65 -1 78 27 7 16 20 25 33 25 25 0 39 14 49 48 6 16 3 22
-8 22 -10 0 -16 -9 -16 -24 0 -26 -23 -40 -51 -31 -14 5 -18 0 -21 -22 -2 -22
-9 -29 -31 -31 -16 -2 -35 2 -44 9 -12 11 -17 10 -24 -4 -14 -25 -56 -21 -84
8 -14 13 -25 28 -25 33 0 5 -11 7 -23 5 -16 -3 -34 4 -53 21 -26 22 -28 27
-16 46 12 19 10 24 -12 41 -32 25 -33 43 -4 63 17 12 20 18 10 28 -20 20 -14
38 19 52 17 7 27 16 22 19 -5 3 -20 0 -34 -6z"/>
<path fill="#000000" stroke="none" d="M3430 972 c0 -5 37 -46 83 -91 134
-134 284 -225 454 -273 106 -30 350 -33 461 -4 39 10 72 23 72 28 0 6 -8 7
-17 3 -110 -43 -345 -51 -487 -17 -174 43 -348 145 -488 285 -43 42 -78 73
-78 69z"/>
<path fill="#000000" stroke="none" d="M2125 4710 c-130 -27 -238 -86 -329
-176 -70 -69 -114 -145 -147 -254 -42 -138 -31 -362 27 -534 75 -220 243 -419
436 -517 32 -16 58 -35 58 -42 0 -7 -16 -28 -35 -47 -19 -19 -35 -44 -35 -56
0 -27 31 -40 59 -25 11 6 22 11 25 11 3 0 6 -46 6 -102 0 -131 17 -408 31
-516 8 -60 8 -86 0 -96 -6 -7 -8 -16 -4 -19 3 -4 -2 -9 -11 -13 -20 -8 -22
-63 -1 -90 21 -27 19 -60 -10 -158 -55 -190 -137 -301 -243 -332 -117 -34
-139 14 -41 91 119 93 213 236 240 364 6 32 9 102 7 166 -4 92 -10 125 -37
200 -18 50 -46 136 -62 191 -34 121 -66 210 -104 284 -74 146 -206 295 -316
354 -53 29 -53 29 -135 18 -275 -40 -624 -240 -880 -504 -159 -164 -221 -269
-208 -355 17 -113 76 -235 174 -356 64 -80 163 -177 228 -223 29 -20 40 -34
35 -44 -15 -32 -8 -95 15 -127 45 -63 156 -92 223 -58 28 15 34 14 117 -19 48
-19 115 -40 150 -47 94 -18 231 -7 325 26 43 15 82 23 85 20 4 -4 0 -10 -8
-13 -8 -3 -73 -35 -145 -71 l-130 -66 -110 0 c-141 0 -250 30 -266 73 -6 14
-15 32 -20 39 -13 15 -39 6 -39 -14 0 -11 -9 -9 -40 8 -46 26 -70 17 -51 -20
11 -19 9 -20 -19 -15 -26 6 -30 4 -30 -15 0 -11 6 -21 13 -21 7 -1 4 -7 -7
-15 -21 -16 -15 -45 8 -45 10 0 13 -6 10 -15 -4 -8 -2 -15 2 -15 5 0 38 -3 73
-5 35 -2 71 0 80 5 11 6 42 2 91 -11 101 -26 233 -41 296 -33 33 4 54 2 58 -5
4 -6 22 -11 40 -11 l33 0 6 -122 c7 -135 29 -252 77 -400 26 -82 34 -98 51
-98 18 0 16 -6 -19 -47 -57 -69 -120 -169 -127 -204 -5 -20 -1 -38 10 -55 19
-30 135 -107 221 -148 l61 -28 -4 -52 c-5 -64 3 -111 23 -131 24 -24 81 -19
109 10 23 22 25 31 25 125 l0 101 -92 88 -93 89 70 74 c54 56 78 74 105 79 19
3 45 12 58 20 22 13 26 11 92 -57 44 -45 70 -80 70 -94 0 -40 -81 -140 -147
-182 l-43 -28 0 -104 c0 -97 2 -106 22 -120 36 -26 72 -20 102 16 14 17 26 44
26 59 0 15 5 31 11 35 6 3 8 16 5 28 -4 17 3 26 39 45 92 49 225 209 225 271
0 74 -77 248 -178 406 l-53 82 32 50 31 50 -59 59 c-67 66 -120 143 -165 240
-23 49 -28 68 -19 71 19 6 80 62 92 83 7 14 5 26 -7 44 -15 23 -15 26 4 52 35
49 79 146 107 233 15 47 31 93 36 102 5 10 9 24 9 31 0 8 11 31 25 51 41 60
32 108 -29 169 -15 15 -25 41 -29 72 -16 121 -27 303 -27 463 l0 172 30 0 c41
0 40 32 -1 71 -32 29 -35 56 -9 70 8 4 49 23 90 42 225 102 406 339 467 611
24 107 21 310 -5 409 -74 271 -288 442 -567 452 -55 2 -118 0 -140 -5z"/>
<path fill="#ffffff" stroke="none" d="M2394 4684 c102 -26 194 -80 271 -158
81 -82 122 -157 155 -286 31 -118 24 -313 -14 -443 -59 -198 -177 -365 -343
-484 -62 -44 -167 -93 -201 -93 -29 0 -17 -68 20 -106 35 -38 27 -46 -29 -31
-32 8 -51 8 -83 -3 -31 -10 -43 -11 -52 -2 -9 9 -4 21 24 50 41 43 58 92 31
92 -24 0 -119 56 -190 112 -169 134 -296 355 -332 578 -15 92 -13 253 4 333
35 168 156 319 315 395 47 22 110 45 140 51 30 6 64 13 75 15 32 7 144 -4 209
-20z"/>
<path fill="#ffffff" stroke="none" d="M1677 3351 c113 -80 193 -178 268 -330
41 -82 105 -264 105 -297 0 -9 -50 32 -115 94 -109 104 -262 230 -268 221 -2
-2 -37 -56 -79 -119 -158 -239 -511 -599 -667 -680 -21 -11 -23 -16 -17 -60 4
-26 18 -80 31 -121 30 -86 29 -79 8 -79 -10 0 -29 -6 -43 -13 -22 -12 -29 -11
-65 14 -170 115 -357 364 -395 527 -18 77 -8 122 45 207 197 317 764 680 1066
684 51 1 62 -3 126 -48z"/>
<path fill="#ffffff" stroke="none" d="M1800 2921 c119 -100 252 -237 276
-282 35 -69 64 -183 70 -274 14 -195 -70 -376 -238 -511 -40 -32 -75 -59 -77
-61 -2 -1 0 -18 3 -38 5 -26 12 -35 26 -35 21 0 24 -8 14 -35 -8 -20 -56 -45
-87 -45 -43 0 -65 43 -27 55 14 4 20 15 20 36 0 16 -2 29 -4 29 -2 0 -28 -11
-57 -24 -163 -71 -347 -68 -521 11 -45 20 -57 30 -52 42 14 33 16 60 5 78 -9
15 -10 12 -11 -19 -1 -110 -151 -139 -243 -48 -34 35 -38 44 -35 81 2 32 9 47
30 62 29 21 78 27 116 14 32 -12 27 7 -6 19 -24 9 -31 23 -55 100 -43 146 -44
135 8 168 121 75 377 319 511 486 69 86 176 234 193 268 l12 23 37 -27 c20
-15 62 -48 92 -73z"/>
<path fill="#ffffff" stroke="none" d="M2327 2318 c13 -12 25 -36 29 -54 5
-27 1 -40 -20 -65 -14 -17 -26 -39 -26 -49 0 -10 -3 -20 -8 -22 -4 -1 -15 -34
-25 -73 -22 -85 -122 -295 -141 -295 -7 0 -20 8 -30 18 -15 18 -14 23 21 88
45 86 88 202 102 278 9 51 8 62 -9 96 -22 44 -25 60 -10 60 11 0 14 -7 24 -52
7 -30 42 -68 63 -68 21 0 15 16 -12 28 -40 19 -31 35 16 29 30 -4 38 -2 31 5
-6 6 -26 12 -44 13 -47 3 -45 20 2 19 22 0 40 3 40 6 0 10 -37 20 -73 20 -16
0 -26 4 -22 10 3 6 21 10 38 10 24 0 28 3 17 10 -8 5 -26 10 -40 10 -19 0 -21
3 -11 9 18 11 58 -3 88 -31z"/>
<path fill="#ffffff" stroke="none" d="M2119 1745 c22 -24 41 -51 41 -59 0
-14 -45 -57 -89 -86 l-23 -16 42 -84 c52 -104 114 -194 169 -243 47 -42 46
-47 -15 -124 -85 -105 -344 -258 -456 -270 l-56 -6 -30 94 c-49 152 -82 344
-82 478 l0 53 -34 -6 c-32 -6 -35 -4 -45 26 -21 64 -5 87 91 130 l85 40 27
-27 c22 -22 33 -26 59 -21 44 9 78 34 90 67 8 19 19 29 32 29 24 0 120 44 129
59 12 18 22 13 65 -34z"/>
<path fill="#ffffff" stroke="none" d="M1015 1660 c16 -11 30 -25 31 -32 3
-32 4 -38 12 -38 4 0 7 18 5 40 -2 50 14 62 28 20 6 -17 23 -37 38 -44 76 -40
246 -60 349 -42 l42 8 0 -42 0 -43 -117 6 c-76 3 -151 14 -211 29 -51 14 -95
21 -98 16 -3 -4 -38 -8 -77 -7 -69 1 -71 1 -42 14 32 14 25 21 -30 28 -23 3
-20 4 13 6 52 1 54 13 5 34 l-38 16 44 -6 45 -6 -23 31 c-26 37 -19 40 24 12z"/>
<path fill="#ffffff" stroke="none" d="M2303 1022 c104 -167 167 -311 167
-379 0 -47 -33 -107 -94 -171 -94 -100 -170 -139 -206 -107 -31 28 -24 61 26
122 59 73 77 109 70 139 -4 13 -41 58 -82 100 l-76 76 -24 -23 c-14 -13 -37
-22 -58 -23 -29 -1 -45 -13 -113 -86 l-80 -84 75 -71 c66 -62 74 -74 69 -97
-4 -14 -19 -34 -34 -43 -27 -18 -28 -18 -122 31 -135 69 -211 127 -211 159 0
38 41 113 109 198 54 68 65 77 114 91 113 33 325 160 391 234 11 12 20 22 22
22 2 0 27 -40 57 -88z"/>
<path fill="#ffffff" stroke="none" d="M2025 400 c10 -30 -3 -90 -28 -135 -19
-34 -28 -40 -58 -43 -41 -3 -53 13 -43 53 4 17 19 29 50 41 25 9 44 23 44 32
0 12 -3 12 -16 1 -23 -19 -84 -39 -84 -27 0 5 19 18 43 28 25 11 48 30 55 45
14 30 28 32 37 5z"/>
<path fill="#ffffff" stroke="none" d="M2136 395 c3 -14 22 -38 41 -54 20 -16
34 -34 32 -40 -2 -6 -21 5 -43 25 -21 19 -41 32 -45 29 -3 -4 14 -24 39 -45
41 -35 44 -40 35 -67 -8 -22 -17 -28 -40 -28 -24 0 -33 7 -47 35 -10 19 -18
57 -18 83 0 75 32 117 46 62z"/>
<path fill="#000000" stroke="none" d="M1672 2784 c-25 -17 -30 -62 -7 -70 8
-3 40 1 72 9 68 16 80 38 34 61 -38 20 -71 20 -99 0z"/>
<path fill="#000000" stroke="none" d="M1731 2674 c-108 -90 -6 -274 123 -220
65 27 95 111 61 176 -37 72 -125 94 -184 44z"/>
<path fill="#ffffff" stroke="none" d="M1870 2661 c82 -59 41 -201 -59 -201
-115 0 -153 169 -48 216 37 16 71 11 107 -15z"/>
<path fill="#000000" stroke="none" d="M1755 2595 c-30 -29 -31 -45 -4 -79 37
-47 109 -23 109 37 0 22 -43 67 -65 67 -9 0 -27 -11 -40 -25z"/>
<path fill="#000000" stroke="none" d="M1180 2392 c-28 -9 -50 -35 -56 -68 -7
-38 2 -74 20 -74 16 0 86 92 86 113 0 19 -29 36 -50 29z"/>
<path fill="#000000" stroke="none" d="M1610 2360 c-11 -11 -20 -29 -20 -40 0
-30 18 -24 22 8 4 37 41 42 63 8 13 -19 14 -29 5 -45 -6 -13 -7 -21 -1 -21 14
0 24 37 17 64 -3 12 -17 28 -31 34 -33 15 -31 16 -55 -8z"/>
<path fill="#000000" stroke="none" d="M1251 2314 c-108 -90 -6 -274 123 -220
65 27 95 111 61 176 -37 72 -125 94 -184 44z"/>
<path fill="#ffffff" stroke="none" d="M1390 2301 c82 -59 41 -201 -59 -201
-115 0 -153 169 -48 216 37 16 71 11 107 -15z"/>
<path fill="#000000" stroke="none" d="M1275 2235 c-30 -29 -31 -45 -4 -79 37
-47 109 -23 109 37 0 22 -43 67 -65 67 -9 0 -27 -11 -40 -25z"/>
<path fill="#000000" stroke="none" d="M1766 2238 c-58 -57 -158 -125 -198
-133 -36 -8 -36 -29 1 -86 74 -114 150 -145 235 -95 75 44 104 119 86 217 -12
64 -49 149 -64 147 -6 -1 -33 -23 -60 -50z"/>
<path fill="#ffffff" stroke="none" d="M1859 2193 c25 -75 28 -138 7 -130 -64
25 -150 13 -185 -24 -31 -34 -73 -52 -83 -37 -37 55 -43 88 -16 88 18 0 171
106 208 144 19 19 38 32 42 28 3 -4 16 -35 27 -69z"/>
<path fill="#ffffff" stroke="none" d="M1854 2054 c26 -10 18 -41 -20 -84 -58
-64 -131 -73 -186 -23 -24 22 -22 40 5 49 12 4 28 16 36 26 7 11 23 23 35 28
25 10 107 13 130 4z"/>
<path fill="#000000" stroke="none" d="M903 1924 c-27 -12 -13 -31 18 -26 28
4 30 2 24 -17 -8 -28 3 -61 21 -61 8 0 14 9 14 20 0 30 25 24 54 -12 14 -18
28 -29 32 -25 10 9 -19 80 -35 85 -10 3 -11 0 -1 -18 11 -21 11 -21 -14 -5
-21 14 -29 15 -41 5 -18 -15 -20 1 -3 18 9 9 6 14 -13 21 -13 5 -18 10 -11 10
7 1 23 -4 34 -10 16 -9 19 -8 16 3 -5 13 -72 22 -95 12z"/>
<path fill="#000000" stroke="none" d="M5083 4301 c-34 -22 -63 -67 -63 -101
0 -20 0 -20 -31 2 -19 15 -44 23 -71 23 -33 0 -45 -6 -74 -38 -28 -31 -34 -44
-34 -83 0 -39 5 -51 33 -79 113 -113 541 -110 651 4 57 59 29 152 -50 167 -18
3 -56 -1 -87 -10 -69 -20 -67 -20 -67 4 0 28 -23 70 -54 99 -36 33 -110 39
-153 12z"/>
<path fill="#ffffff" stroke="none" d="M5218 4284 c26 -17 61 -87 62 -121 0
-28 -2 -28 51 -3 92 41 179 14 179 -55 0 -52 -39 -91 -116 -115 -176 -54 -380
-45 -513 24 -64 34 -77 117 -26 169 46 46 100 40 147 -16 l27 -32 1 33 c1 109
102 171 188 116z"/>
<path fill="#000000" stroke="none" d="M784 4062 c-44 -28 -74 -70 -74 -103
l0 -28 -36 24 c-43 29 -64 31 -110 9 -66 -31 -88 -117 -48 -181 64 -103 429
-125 621 -38 87 39 119 123 70 180 -31 36 -86 42 -158 17 l-56 -19 -11 41
c-24 91 -127 142 -198 98z"/>
<path fill="#ffffff" stroke="none" d="M925 4027 c21 -21 38 -52 46 -80 6 -26
13 -47 14 -47 2 0 22 9 46 20 24 11 65 20 92 20 61 0 87 -24 87 -81 0 -54 -36
-88 -123 -117 -168 -55 -376 -51 -502 11 -53 26 -75 54 -75 101 0 30 7 45 34
72 48 48 92 47 141 -3 l35 -36 0 32 c0 81 54 141 127 141 38 0 51 -6 78 -33z"/>
<path fill="#000000" stroke="none" d="M2960 3233 c-31 -11 -80 -68 -86 -100
-3 -18 -8 -33 -11 -33 -3 0 -18 11 -35 25 -45 38 -107 35 -154 -8 -31 -28 -37
-42 -41 -84 -10 -96 53 -150 224 -194 143 -36 381 -21 490 32 52 25 73 53 80
108 5 36 2 44 -30 76 -30 30 -42 35 -79 35 -25 0 -67 -7 -94 -15 -27 -8 -50
-15 -51 -15 -2 0 -3 12 -3 27 0 41 -39 113 -74 134 -30 18 -101 25 -136 12z"/>
<path fill="#ffffff" stroke="none" d="M3097 3198 c32 -29 62 -94 63 -132 0
-23 3 -27 18 -21 64 25 135 36 165 26 47 -17 67 -40 67 -78 0 -75 -37 -107
-161 -140 -77 -20 -288 -23 -365 -6 -192 45 -271 119 -230 216 15 38 67 77
101 77 30 0 84 -36 97 -65 16 -37 25 -31 31 21 6 55 31 92 78 117 44 23 102
17 136 -15z"/>
</g>
</svg>
