<?xml version="1.0" standalone="no"?>
<!DOCTYPE svg PUBLIC "-//W3C//DTD SVG 20010904//EN"
 "http://www.w3.org/TR/2001/REC-SVG-20010904/DTD/svg10.dtd">
<svg version="1.0" xmlns="http://www.w3.org/2000/svg"
 width="642.000000pt" height="553.000000pt" viewBox="0 0 642.000000 553.000000"
 preserveAspectRatio="xMidYMid meet">
<metadata>
Created by potrace 1.16, written by Peter Selinger 2001-2019
</metadata>
<g transform="translate(0.000000,553.000000) scale(0.100000,-0.100000)"
fill="#000000" stroke="none">
<path fill="#000000" stroke="none" d="M0 2765 l0 -2765 3210 0 3210 0 0 2765
0 2765 -3210 0 -3210 0 0 -2765z"/>
<path fill="#ffffff" stroke="none" d="M6410 2765 l0 -2755 -3200 0 -3200 0 0
2755 0 2755 3200 0 3200 0 0 -2755z"/>
<path fill="#000000" stroke="none" d="M2025 5196 c-126 -48 -190 -99 -249
-200 -21 -36 -45 -66 -52 -66 -8 0 -14 4 -14 8 0 17 -78 86 -118 104 -50 23
-165 29 -183 11 -10 -10 -3 -22 30 -58 24 -26 57 -76 74 -113 17 -37 42 -85
55 -106 l24 -39 -23 -18 c-13 -10 -28 -19 -32 -19 -24 0 -174 -117 -258 -200
-136 -135 -236 -293 -300 -473 -27 -77 -21 -72 -249 -167 -180 -74 -190 -79
-190 -98 1 -10 69 -65 174 -141 l174 -124 7 -111 c37 -589 337 -1234 761
-1635 275 -260 670 -475 998 -543 32 -7 60 -18 63 -24 2 -6 -7 -58 -21 -115
-13 -57 -30 -141 -36 -186 -11 -71 -18 -90 -52 -135 -121 -161 -196 -364 -142
-385 20 -8 44 21 44 54 0 49 90 241 118 251 8 2 12 -13 12 -53 0 -119 42 -296
74 -308 7 -3 19 -1 27 3 11 8 11 16 0 57 -29 102 -41 171 -41 246 0 47 4 77
10 77 6 0 61 -45 122 -101 60 -55 123 -110 139 -121 25 -19 29 -28 29 -69 0
-88 40 -76 64 18 17 71 85 214 103 220 7 3 14 -18 17 -54 9 -79 25 -156 48
-231 17 -54 23 -62 45 -62 23 0 25 3 20 33 -2 17 -14 67 -25 109 -24 90 -40
248 -25 248 6 0 39 -26 74 -58 205 -188 260 -224 258 -169 0 16 -45 61 -160
162 -88 77 -164 147 -169 156 -6 10 -5 52 1 105 10 87 44 263 54 272 2 3 58
13 124 23 438 67 819 256 1141 566 116 111 133 125 206 153 295 117 538 329
694 605 53 93 200 395 200 409 0 22 -33 20 -122 -4 -117 -32 -247 -42 -362
-30 -187 21 -444 98 -633 191 -234 115 -392 233 -713 534 -63 59 -156 136
-206 171 -71 49 -109 86 -170 161 -196 245 -359 436 -424 496 -137 127 -330
237 -536 308 -164 56 -264 74 -457 83 -37 2 -70 6 -74 9 -8 9 62 177 103 247
18 30 48 71 68 89 20 19 36 41 36 48 0 21 -87 14 -155 -11z"/>
<path fill="#ffffff" stroke="none" d="M2070 5152 c0 -4 -11 -23 -24 -42 -13
-19 -32 -55 -44 -80 -27 -61 -102 -245 -102 -252 0 -3 69 -8 153 -11 177 -7
300 -31 455 -86 259 -92 454 -221 611 -405 122 -143 311 -378 311 -387 0 -12
-3 -12 -68 7 -83 24 -235 15 -325 -19 -150 -58 -297 -189 -362 -321 -56 -113
-77 -218 -78 -376 0 -390 156 -716 471 -978 301 -250 767 -413 1181 -412 68 0
242 20 314 36 16 4 27 2 27 -4 0 -27 -307 -277 -408 -332 -15 -8 -56 -32 -92
-52 -101 -56 -273 -126 -400 -163 -439 -126 -923 -99 -1335 77 -199 85 -441
232 -585 357 -78 68 -88 78 -180 177 -341 366 -586 905 -641 1406 -18 158 -6
418 25 548 33 144 49 188 111 315 63 129 130 221 236 323 97 94 172 149 265
197 41 21 74 42 74 47 0 5 -13 26 -29 46 -35 46 -136 240 -129 248 11 11 87
-17 118 -43 17 -14 48 -51 68 -81 20 -31 41 -56 47 -56 5 -1 28 36 51 82 50
102 118 175 199 213 62 29 85 35 85 21z"/>
<path fill="#ffffff" stroke="none" d="M920 3878 c0 -62 -36 -301 -46 -305 -6
-2 -38 15 -70 40 -33 24 -87 63 -121 87 -35 24 -63 49 -63 55 0 9 265 130 293
134 4 1 7 -5 7 -11z"/>
<path fill="#ffffff" stroke="none" d="M3418 3820 c118 -45 240 -131 413 -291
248 -231 348 -312 506 -412 277 -177 689 -308 963 -306 85 0 195 15 258 34 14
5 22 3 22 -5 0 -18 -157 -322 -203 -393 -189 -293 -472 -487 -832 -569 -128
-29 -401 -36 -551 -14 -578 85 -1076 423 -1252 851 -67 163 -97 340 -89 514
10 207 57 321 182 446 98 99 210 161 320 178 71 12 184 -2 263 -33z"/>
<path fill="#ffffff" stroke="none" d="M3070 1152 c138 -6 165 -9 164 -22 -1
-8 -9 -50 -18 -93 -9 -42 -21 -123 -27 -180 -10 -96 -13 -105 -50 -154 -21
-29 -56 -84 -76 -123 -20 -38 -41 -70 -46 -70 -14 0 -302 262 -306 279 -8 37
61 370 80 382 5 3 33 2 62 -3 29 -5 126 -12 217 -16z"/>
<path fill="#000000" stroke="none" d="M1595 3988 c-118 -25 -186 -163 -136
-274 69 -152 282 -161 356 -14 79 155 -52 325 -220 288z"/>
</g>
</svg>
