<?xml version="1.0" standalone="no"?>
<!DOCTYPE svg PUBLIC "-//W3C//DTD SVG 20010904//EN"
 "http://www.w3.org/TR/2001/REC-SVG-20010904/DTD/svg10.dtd">
<svg version="1.0" xmlns="http://www.w3.org/2000/svg"
 width="642.000000pt" height="553.000000pt" viewBox="0 0 642.000000 553.000000"
 preserveAspectRatio="xMidYMid meet">
<metadata>
Created by potrace 1.16, written by Peter Selinger 2001-2019
</metadata>
<g transform="translate(0.000000,553.000000) scale(0.100000,-0.100000)"
fill="#000000" stroke="none">
<path fill="#000000" stroke="none" d="M0 2765 l0 -2765 3210 0 3210 0 0 2765
0 2765 -3210 0 -3210 0 0 -2765z"/>
<path fill="#ffffff" stroke="none" d="M6410 2765 l0 -2755 -3200 0 -3200 0 0
2755 0 2755 3200 0 3200 0 0 -2755z"/>
<path fill="#000000" stroke="none" d="M2025 5196 c-33 -12 -75 -30 -94 -40
-52 -27 -136 -116 -165 -174 -15 -29 -33 -52 -41 -52 -8 0 -15 4 -15 8 0 18
-78 87 -119 105 -51 22 -163 29 -182 10 -10 -10 -3 -22 30 -58 23 -25 61 -86
85 -135 23 -49 49 -96 56 -105 12 -15 11 -19 -10 -36 -14 -10 -29 -19 -33 -19
-24 0 -174 -117 -258 -200 -136 -135 -236 -293 -300 -473 -27 -76 -11 -65
-239 -161 -196 -83 -200 -85 -200 -104 1 -10 69 -65 174 -141 l174 -124 7
-111 c32 -517 262 -1070 616 -1483 280 -325 682 -577 1094 -683 60 -15 111
-33 113 -38 2 -6 -8 -57 -22 -114 -13 -56 -30 -139 -36 -184 -11 -75 -16 -87
-70 -163 -112 -156 -175 -338 -124 -358 20 -8 44 21 44 54 0 49 90 241 118
251 9 3 12 -15 12 -61 0 -115 43 -288 74 -300 7 -3 19 -1 27 3 11 8 11 16 0
57 -29 102 -41 171 -41 246 0 46 4 77 10 77 6 0 65 -49 132 -110 67 -60 122
-109 123 -107 1 1 5 16 8 33 6 30 0 37 -128 150 -104 92 -134 125 -135 144 -1
64 64 360 81 371 5 3 33 2 62 -3 29 -5 126 -12 217 -16 138 -6 165 -9 164 -22
-1 -8 -9 -50 -18 -93 -9 -42 -21 -123 -27 -180 -9 -95 -13 -105 -48 -152 -58
-78 -99 -157 -112 -213 -6 -29 -15 -52 -20 -52 -12 0 -12 -87 0 -94 22 -14 39
10 55 71 17 71 85 214 103 220 7 3 14 -18 17 -54 9 -84 25 -159 47 -231 18
-54 24 -62 46 -62 23 0 25 3 20 33 -2 17 -14 67 -25 109 -24 89 -40 248 -25
248 6 0 21 -10 34 -23 14 -12 77 -68 141 -124 118 -105 159 -126 157 -80 0 16
-45 61 -160 162 -88 77 -164 147 -169 156 -6 10 -5 52 1 105 10 87 44 263 54
272 2 3 60 13 127 24 436 66 819 257 1141 567 111 108 129 121 202 150 295
119 507 299 676 576 56 92 219 419 219 439 0 22 -33 20 -122 -4 -181 -49 -356
-46 -569 9 -442 115 -703 271 -1124 672 -107 102 -136 126 -231 192 -60 42
-103 83 -160 154 -215 267 -360 437 -423 495 -240 222 -617 374 -969 392 -52
3 -96 7 -99 10 -7 7 66 181 103 246 18 30 48 71 68 89 20 19 36 41 36 48 0 20
-86 14 -155 -11z"/>
<path fill="#ffffff" stroke="none" d="M2070 5153 c0 -5 -9 -21 -20 -38 -31
-46 -150 -314 -150 -337 0 -3 69 -8 153 -11 177 -7 300 -30 456 -86 211 -76
399 -189 534 -323 67 -67 374 -438 384 -465 5 -13 2 -15 -18 -9 -76 23 -114
27 -204 23 -164 -7 -284 -65 -421 -202 -130 -131 -187 -290 -187 -525 0 -202
44 -392 129 -562 205 -407 692 -721 1254 -808 133 -21 319 -23 440 -6 63 9
127 19 143 22 16 4 27 2 27 -4 0 -29 -304 -274 -418 -338 -263 -148 -490 -229
-756 -270 -181 -28 -474 -20 -661 17 -287 57 -554 172 -810 346 -151 104 -218
162 -355 309 -292 314 -518 760 -609 1201 -64 308 -52 652 30 898 34 99 125
276 180 349 106 139 258 270 398 342 39 20 71 41 71 46 0 5 -13 26 -29 46 -35
46 -136 240 -129 248 11 11 87 -17 118 -43 17 -14 48 -51 68 -81 20 -31 41
-56 47 -56 5 -1 28 36 51 82 24 50 61 103 90 133 59 61 194 131 194 102z"/>
<path fill="#ffffff" stroke="none" d="M920 3878 c1 -60 -35 -301 -46 -305 -6
-2 -38 15 -70 40 -33 24 -87 63 -121 87 -35 23 -63 49 -63 56 0 7 17 18 38 25
20 6 42 14 47 18 15 9 199 89 208 90 4 1 7 -5 7 -11z"/>
<path fill="#ffffff" stroke="none" d="M3396 3829 c143 -53 244 -124 437 -303
305 -282 452 -393 669 -502 181 -91 454 -177 647 -205 102 -14 284 -7 365 15
32 9 62 14 65 10 7 -7 -148 -314 -201 -397 -209 -323 -540 -530 -939 -587
-111 -16 -403 -8 -519 15 -557 109 -1011 433 -1178 840 -67 163 -97 340 -89
514 10 208 57 323 181 446 99 99 211 161 321 178 60 10 182 -2 241 -24z"/>
<path fill="#000000" stroke="none" d="M1595 3988 c-118 -25 -186 -163 -136
-274 69 -152 282 -161 356 -14 79 155 -52 325 -220 288z"/>
</g>
</svg>
