<?xml version="1.0" standalone="no"?>
<!DOCTYPE svg PUBLIC "-//W3C//DTD SVG 20010904//EN"
 "http://www.w3.org/TR/2001/REC-SVG-20010904/DTD/svg10.dtd">
<svg version="1.0" xmlns="http://www.w3.org/2000/svg"
 width="587.000000pt" height="500.000000pt" viewBox="0 0 587.000000 500.000000"
 preserveAspectRatio="xMidYMid meet">
<metadata>
Created by potrace 1.16, written by Peter Selinger 2001-2019
</metadata>
<g transform="translate(0.000000,500.000000) scale(0.100000,-0.100000)"
fill="#000000" stroke="none">
<path fill="#000000" stroke="none" d="M0 2500 l0 -2500 2935 0 2935 0 0 2500
0 2500 -2935 0 -2935 0 0 -2500z"/>
<path fill="#ffffff" stroke="none" d="M5860 2500 l0 -2490 -2925 0 -2925 0 0
2490 0 2490 2925 0 2925 0 0 -2490z"/>
<path fill="#000000" stroke="none" d="M3172 4835 c-68 -78 -166 -283 -213
-450 -20 -69 -23 -102 -23 -245 0 -152 3 -175 32 -292 l33 -127 -21 -80 c-51
-200 -115 -342 -205 -455 -30 -38 -55 -74 -55 -81 0 -25 29 -38 68 -30 105 20
95 22 90 -21 -11 -92 25 -277 73 -381 49 -104 109 -129 109 -46 0 19 4 33 9
31 6 -1 33 -31 60 -66 39 -48 51 -72 51 -97 0 -18 -5 -35 -12 -37 -16 -6 -128
21 -373 87 -239 65 -348 85 -464 85 -136 0 -301 -42 -445 -112 l-48 -23 -30
35 c-38 45 -92 158 -114 240 -28 99 -23 300 15 617 47 397 41 563 -27 707 -70
148 -240 271 -423 307 -96 19 -238 7 -343 -30 -219 -75 -344 -202 -354 -359
-5 -70 8 -113 47 -155 59 -64 132 -73 271 -31 276 82 410 12 410 -216 0 -47
-9 -170 -21 -275 -27 -238 -23 -425 11 -525 52 -155 157 -323 281 -449 l68
-69 -31 -48 c-53 -84 -105 -224 -82 -224 3 0 19 8 35 17 15 9 31 14 34 11 3
-3 -3 -45 -14 -94 -22 -100 -37 -217 -47 -348 -12 -170 -40 -239 -137 -337
-54 -54 -75 -87 -135 -209 -39 -80 -78 -169 -86 -199 -17 -59 -21 -242 -7
-340 13 -91 68 -127 247 -160 146 -27 314 59 314 161 0 26 -11 50 -40 89 -22
30 -40 56 -40 60 0 3 9 18 20 32 18 23 24 24 53 16 17 -6 66 -7 107 -3 160 13
338 76 434 153 22 18 46 29 54 26 33 -13 162 -109 162 -121 0 -7 -9 -28 -20
-46 -39 -64 -21 -130 49 -180 114 -82 246 -40 319 102 34 65 34 65 29 175 -3
61 -8 120 -12 133 -6 18 -3 22 13 22 20 0 241 -73 274 -91 10 -6 51 -18 91
-28 l72 -17 6 -115 c9 -152 36 -233 106 -310 45 -50 71 -64 151 -79 49 -10 75
-10 124 -1 134 26 197 97 183 203 l-7 51 28 -22 c16 -12 58 -46 94 -77 139
-117 346 -193 489 -179 189 18 280 106 252 244 -19 92 -78 147 -201 186 -70
22 -92 42 -125 116 -21 48 -65 184 -65 203 0 2 18 14 41 25 96 51 163 131 201
241 21 63 32 73 43 40 3 -11 10 -20 15 -20 12 0 64 77 85 125 43 102 57 310
34 497 l-10 88 43 50 c23 27 57 77 74 110 30 58 34 61 123 105 115 56 165 90
252 173 38 35 69 63 70 61 0 -2 2 -12 4 -23 7 -38 22 -35 89 18 151 121 196
210 196 392 0 50 2 93 5 96 3 3 23 0 45 -5 53 -15 63 -3 68 76 4 70 -17 147
-64 232 -16 27 -88 110 -161 185 -73 74 -133 138 -133 143 0 4 15 38 33 75 81
162 115 289 124 453 9 184 -27 368 -104 526 l-37 75 -39 -5 c-59 -8 -152 -58
-244 -132 -70 -56 -132 -121 -284 -298 l-26 -31 -99 27 c-186 49 -340 59 -516
32 -117 -17 -247 -50 -306 -75 -50 -23 -31 -39 -162 138 -147 198 -357 396
-442 417 -21 5 -32 -1 -66 -40z"/>
<path fill="#ffffff" stroke="none" d="M3337 4691 c43 -32 112 -94 154 -137
85 -87 219 -253 219 -270 0 -6 -35 -21 -77 -33 -43 -13 -127 -43 -187 -67
-186 -76 -287 -145 -362 -247 l-43 -57 -8 47 c-11 73 -8 301 6 363 7 30 22 84
33 120 36 115 153 340 177 340 5 0 45 -26 88 -59z"/>
<path fill="#ffffff" stroke="none" d="M5348 4618 c50 -106 78 -298 67 -457
-9 -123 -87 -401 -113 -401 -4 0 -16 21 -25 48 -24 63 -83 170 -138 244 -47
65 -179 172 -261 211 -26 12 -47 28 -48 36 0 19 162 182 246 247 82 63 200
126 229 122 13 -2 28 -20 43 -50z"/>
<path fill="#ffffff" stroke="none" d="M1307 4315 c181 -61 303 -185 344 -351
22 -87 15 -336 -16 -574 -36 -271 -41 -537 -12 -640 22 -82 68 -180 112 -242
19 -26 35 -51 35 -54 0 -9 -92 -94 -101 -94 -14 0 -150 154 -194 220 -56 84
-118 216 -136 290 -19 76 -17 302 6 480 37 298 24 405 -61 499 -91 101 -194
110 -453 41 -138 -38 -197 -5 -195 108 1 120 95 222 274 297 82 34 125 43 233
44 70 1 104 -4 164 -24z"/>
<path fill="#ffffff" stroke="none" d="M4530 4316 c170 -26 324 -97 465 -213
94 -79 139 -142 219 -308 53 -109 87 -165 124 -206 58 -63 63 -79 27 -79 -16
0 -36 14 -62 46 -47 57 -79 74 -137 74 -59 0 -86 -11 -137 -57 -101 -91 -131
-285 -58 -378 63 -79 212 -75 271 7 13 19 24 57 30 106 9 69 8 83 -12 135 -24
63 -63 100 -119 112 -24 5 -30 10 -20 16 28 17 77 9 110 -18 40 -34 59 -79 59
-141 0 -42 3 -50 29 -65 37 -21 71 -22 116 0 51 25 45 41 -14 35 -62 -6 -93
10 -89 45 2 21 12 29 52 41 l50 16 58 -64 c70 -77 126 -184 135 -257 5 -45 3
-54 -12 -60 -13 -5 -26 2 -45 25 -15 18 -29 32 -32 32 -3 0 -7 -67 -10 -149
-4 -142 -5 -151 -35 -212 -30 -61 -109 -167 -125 -168 -5 -1 -8 12 -8 28 0 65
-8 61 -118 -48 -113 -114 -188 -165 -341 -234 -141 -63 -388 -114 -511 -105
-41 3 -45 5 -51 36 -22 108 -148 125 -376 50 -54 -17 -107 -31 -118 -29 -11 1
-71 18 -134 37 -120 37 -132 46 -196 133 -43 58 -137 127 -201 148 -46 14 -60
15 -87 5 -31 -13 -33 -12 -80 40 -27 29 -62 77 -79 106 -16 28 -34 52 -38 52
-5 0 -10 -24 -12 -52 -2 -39 -7 -54 -19 -56 -44 -8 -81 222 -61 375 6 48 10
89 7 91 -2 3 -18 -7 -35 -22 -48 -39 -76 -34 -47 9 32 46 97 176 126 250 32
83 81 256 81 288 0 41 67 152 127 212 92 93 298 191 513 245 47 12 94 25 105
30 11 5 81 26 155 46 234 62 386 76 560 50z"/>
<path fill="#ffffff" stroke="none" d="M5180 3511 c47 -34 65 -79 65 -161 0
-88 -24 -138 -79 -164 -41 -19 -105 -21 -129 -3 -15 10 -10 12 30 9 116 -7
194 125 133 225 -21 35 -94 93 -117 93 -14 0 -17 12 -6 24 12 11 75 -3 103
-23z"/>
<path fill="#ffffff" stroke="none" d="M5145 3415 c20 -19 25 -34 25 -75 0
-69 -29 -100 -95 -100 -66 0 -95 31 -95 100 0 69 29 100 95 100 35 0 52 -6 70
-25z"/>
<path fill="#ffffff" stroke="none" d="M3355 2572 c34 -17 164 -148 184 -186
12 -22 11 -31 -9 -78 -14 -32 -23 -72 -23 -100 l1 -47 -52 -21 c-69 -28 -154
-50 -192 -50 -17 0 -40 9 -53 21 -28 26 -25 73 8 161 17 47 21 79 21 173 0
103 2 117 21 136 21 21 37 20 94 -9z"/>
<path fill="#ffffff" stroke="none" d="M2496 2540 c33 -5 134 -33 225 -61 190
-58 264 -77 374 -93 96 -14 99 -20 56 -112 -49 -104 -37 -195 30 -230 45 -23
160 -14 263 22 l78 27 38 -22 c22 -12 69 -25 106 -30 56 -6 71 -12 83 -32 9
-13 49 -59 91 -102 93 -97 195 -154 258 -143 l39 6 61 -91 c77 -115 72 -134
-22 -84 -54 29 -78 24 -48 -9 51 -57 111 -259 122 -411 19 -253 121 -471 228
-489 57 -9 124 -47 149 -85 29 -43 31 -109 4 -142 -22 -27 -25 -23 -36 45 -7
43 -60 106 -89 106 -21 0 -21 -1 14 -57 62 -99 45 -163 -41 -163 -41 0 -41 0
-39 37 4 75 -1 93 -29 125 -16 18 -32 31 -34 28 -3 -3 2 -32 11 -65 17 -66 11
-112 -15 -122 -24 -10 -129 15 -199 47 -86 39 -169 97 -309 215 -223 190 -389
379 -458 523 -39 82 -54 68 -26 -24 22 -72 56 -140 96 -187 12 -16 23 -33 23
-39 0 -7 -45 -9 -142 -5 -139 5 -148 6 -318 60 -242 77 -369 107 -508 122
l-64 7 27 28 c15 16 47 39 71 52 49 26 58 44 17 33 -49 -12 -126 -67 -228
-165 -55 -53 -122 -112 -150 -132 -157 -112 -374 -177 -497 -151 l-53 12 -33
-36 c-18 -20 -38 -54 -44 -76 -11 -38 -11 -40 15 -59 61 -44 77 -131 31 -167
-37 -29 -46 -26 -38 13 7 41 -9 97 -36 121 -19 17 -19 16 -13 -61 4 -65 3 -82
-10 -92 -24 -20 -79 -25 -101 -10 -17 13 -17 17 -3 58 16 48 10 90 -19 122
-24 26 -35 10 -24 -36 16 -71 -15 -133 -59 -119 -84 27 -97 45 -113 170 -16
124 -1 207 58 325 69 137 109 196 178 263 90 87 121 179 146 431 26 270 58
411 111 483 34 48 32 62 -5 37 -34 -22 -60 -21 -52 2 33 87 165 231 254 276
75 38 211 82 292 96 41 6 82 13 90 15 36 7 160 4 216 -5z"/>
<path fill="#ffffff" stroke="none" d="M4261 2324 c32 -29 24 -79 -26 -164
-34 -57 -49 -98 -60 -156 -29 -151 -44 -172 -117 -160 -67 11 -151 60 -210
125 -70 75 -96 136 -80 189 25 82 41 95 153 130 211 64 298 74 340 36z"/>
<path fill="#ffffff" stroke="none" d="M3688 2309 c34 -11 62 -24 62 -28 0 -4
-9 -24 -20 -46 -12 -23 -20 -59 -20 -87 0 -47 0 -48 -32 -48 -44 0 -96 33
-104 65 -13 54 13 165 39 165 7 0 41 -9 75 -21z"/>
<path fill="#ffffff" stroke="none" d="M4780 2236 c0 -8 -20 -41 -44 -74 -70
-95 -152 -125 -377 -138 -129 -8 -129 -9 -72 96 l37 67 100 7 c109 7 287 33
320 46 30 12 36 12 36 -4z"/>
<path fill="#ffffff" stroke="none" d="M4663 2006 c3 -8 9 -67 13 -133 7 -124
-4 -228 -32 -318 -27 -84 -41 -86 -52 -9 -7 49 -25 62 -30 22 -11 -105 -63
-241 -119 -314 -15 -21 -50 -55 -77 -76 -56 -45 -66 -40 -66 33 0 71 -36 195
-80 277 -22 41 -39 77 -36 79 2 3 13 0 24 -6 12 -6 32 -11 46 -11 42 0 32 37
-38 140 -62 91 -63 95 -48 118 8 13 25 51 37 85 l21 62 99 6 c115 7 233 26
285 45 46 16 47 16 53 0z"/>
<path fill="#ffffff" stroke="none" d="M2732 1010 c21 -6 42 -19 47 -28 15
-29 32 -191 25 -238 -7 -50 -52 -124 -91 -149 -26 -17 -26 -17 -19 8 3 14 9
32 12 41 10 27 -11 18 -28 -11 -9 -16 -27 -38 -40 -51 -24 -22 -26 -22 -69 -7
-50 18 -89 51 -89 75 0 10 14 34 30 55 17 21 30 43 30 49 -2 36 -71 103 -153
146 -26 14 -47 30 -47 36 0 6 21 31 46 54 l47 43 131 -6 c72 -3 148 -11 168
-17z"/>
<path fill="#ffffff" stroke="none" d="M3604 811 l58 -59 -13 -36 c-13 -36
-12 -38 16 -60 27 -21 72 -25 59 -5 -10 17 16 9 37 -12 26 -26 49 -80 49 -116
0 -33 -31 -88 -58 -102 -27 -14 -34 -3 -16 24 22 34 33 82 27 119 -4 28 -8 32
-29 28 -22 -4 -24 -9 -24 -61 0 -81 -25 -117 -85 -127 -99 -14 -182 21 -231
97 -32 52 -61 163 -65 259 l-4 75 75 7 c41 4 89 11 105 17 17 5 32 10 35 10 3
1 32 -25 64 -58z"/>
<path fill="#000000" stroke="none" d="M3630 3637 c0 -28 32 -106 51 -123 26
-23 24 -34 -12 -68 -28 -26 -32 -28 -55 -15 -24 12 -56 46 -96 101 l-17 23 -1
-28 c0 -36 22 -78 67 -128 31 -34 34 -43 29 -74 -4 -19 -11 -37 -16 -40 -12
-7 -119 33 -152 58 -36 27 -46 16 -19 -21 31 -44 105 -89 168 -103 51 -12 57
-16 73 -54 22 -51 96 -118 148 -133 221 -66 411 157 289 339 -31 46 -92 86
-156 100 -47 11 -51 14 -30 22 36 13 107 0 175 -33 89 -43 140 -123 159 -252
7 -45 25 -63 39 -39 9 14 -20 165 -39 202 -48 92 -119 148 -224 174 -53 14
-74 15 -129 5 -36 -6 -81 -18 -100 -26 -34 -14 -35 -14 -68 23 -19 20 -40 52
-46 70 -12 32 -38 46 -38 20z"/>
<path fill="#ffffff" stroke="none" d="M3973 3434 c138 -70 159 -253 39 -341
-70 -51 -195 -55 -264 -6 -39 26 -52 50 -21 39 9 -4 36 -10 60 -13 60 -8 141
32 171 86 44 77 21 180 -49 219 -65 36 -68 44 -16 38 26 -3 62 -13 80 -22z"/>
<path fill="#ffffff" stroke="none" d="M3896 3366 c29 -29 34 -41 34 -81 0
-40 -5 -52 -34 -81 -31 -31 -39 -34 -96 -34 -57 0 -65 3 -96 34 -29 29 -34 41
-34 81 0 40 5 52 34 81 31 31 39 34 96 34 57 0 65 -3 96 -34z"/>
<path fill="#000000" stroke="none" d="M4662 3046 c-153 -38 -138 -162 23
-188 18 -3 20 -10 17 -68 -3 -75 -21 -106 -73 -132 -42 -21 -80 -14 -114 19
-32 33 -36 93 -5 93 11 0 20 7 20 15 0 28 -52 14 -97 -28 -30 -27 -29 -41 1
-33 19 5 25 1 30 -18 3 -13 22 -38 41 -55 28 -24 45 -31 78 -31 44 0 103 29
113 55 4 8 12 15 19 15 7 0 15 -7 19 -15 9 -24 68 -55 104 -55 24 0 42 9 64
30 27 28 30 35 24 72 -6 34 -4 39 9 34 8 -3 22 -9 30 -12 9 -4 15 -1 15 9 0
29 -128 56 -137 30 -3 -8 4 -13 16 -13 40 0 56 -73 23 -103 -31 -29 -80 -21
-118 17 -29 29 -34 41 -34 79 0 64 13 93 47 101 75 19 144 96 122 137 -23 44
-146 68 -237 45z"/>
<path fill="#ffffff" stroke="none" d="M4815 3019 c59 -15 72 -31 51 -64 -36
-55 -141 -83 -219 -59 -156 50 2 165 168 123z"/>
</g>
</svg>
