<?xml version="1.0" standalone="no"?>
<!DOCTYPE svg PUBLIC "-//W3C//DTD SVG 20010904//EN"
 "http://www.w3.org/TR/2001/REC-SVG-20010904/DTD/svg10.dtd">
<svg version="1.0" xmlns="http://www.w3.org/2000/svg"
 width="618.000000pt" height="702.000000pt" viewBox="0 0 618.000000 702.000000"
 preserveAspectRatio="xMidYMid meet">
<metadata>
Created by potrace 1.16, written by Peter Selinger 2001-2019
</metadata>
<g transform="translate(0.000000,702.000000) scale(0.100000,-0.100000)"
fill="#000000" stroke="none">
<path fill="#000000" stroke="none" d="M0 3510 l0 -3510 3090 0 3090 0 0 3510
0 3510 -3090 0 -3090 0 0 -3510z"/>
<path fill="#ffffff" stroke="none" d="M3174 6978 c-48 -93 -161 -191 -305
-263 -130 -66 -279 -111 -492 -151 -183 -34 -405 -98 -676 -196 -199 -72 -270
-137 -461 -422 -127 -190 -177 -308 -236 -561 -25 -105 -28 -140 -29 -281 l0
-161 -40 14 c-22 8 -76 14 -122 14 -173 0 -339 -93 -462 -259 -180 -245 -242
-569 -157 -820 29 -86 51 -123 122 -212 104 -131 233 -216 384 -253 83 -20
302 -40 350 -32 34 6 40 4 61 -27 36 -52 116 -138 183 -196 111 -97 196 -129
570 -212 l99 -22 -54 -31 c-188 -107 -310 -266 -374 -491 -29 -104 -33 -219
-10 -311 33 -133 180 -363 275 -432 25 -18 53 -38 62 -45 16 -12 16 -21 -3
-143 -17 -105 -19 -155 -14 -259 8 -164 28 -297 58 -385 l23 -69 -63 -6 c-145
-15 -334 -101 -439 -199 -61 -56 -65 -58 -96 -49 -18 6 -116 16 -218 23 -152
10 -211 10 -330 -2 -85 -8 -265 -14 -435 -14 -218 0 -296 -3 -312 -13 l-23
-13 0 3256 0 3255 1590 0 1591 0 -17 -32z"/>
<path fill="#ffffff" stroke="none" d="M6170 3684 l0 -3326 -22 6 c-56 16
-140 26 -226 26 -67 0 -137 9 -245 32 -149 31 -157 32 -382 30 -126 -2 -287
-6 -357 -10 l-128 -7 -11 27 c-26 63 -86 100 -180 113 -38 5 -78 21 -134 55
-100 60 -153 87 -226 114 l-57 21 13 35 c7 19 25 64 40 100 44 103 57 215 59
486 l1 241 42 11 c128 35 335 301 379 488 30 127 4 252 -76 371 -46 69 -288
314 -364 368 -30 22 -56 43 -56 46 0 3 30 11 68 19 145 28 357 112 459 181
116 78 249 218 291 306 l16 33 151 0 c256 0 383 48 535 200 220 219 273 505
163 870 -39 129 -77 196 -157 276 -54 53 -91 80 -156 111 -147 70 -234 78
-364 33 -33 -11 -61 -19 -62 -17 -2 2 -8 61 -14 133 -19 245 -104 512 -252
803 -188 367 -379 519 -753 596 -72 15 -109 27 -107 35 1 7 -5 23 -13 37 -15
22 -23 24 -66 21 -27 -1 -49 -2 -49 0 0 2 7 17 16 33 13 27 14 33 1 53 -29 44
-157 60 -252 31 -27 -8 -51 -12 -53 -10 -10 10 93 138 159 198 63 56 71 68 65
90 -21 86 -269 47 -529 -83 -73 -37 -97 -46 -92 -33 4 10 10 48 12 84 4 53 2
68 -12 82 -15 16 73 17 1454 17 l1471 0 0 -3326z"/>
<path fill="#ffffff" stroke="none" d="M3684 6867 c-72 -91 -122 -161 -156
-220 -39 -66 -40 -68 -23 -93 20 -30 38 -29 168 12 43 13 98 24 122 24 l45 0
-35 -46 c-40 -52 -40 -53 -21 -79 11 -15 25 -18 80 -17 61 2 67 0 75 -21 8
-21 20 -26 88 -36 43 -7 129 -26 191 -42 320 -82 465 -214 647 -592 161 -334
225 -581 225 -864 0 -149 -14 -215 -67 -312 -36 -67 -47 -97 -51 -147 -4 -60
-2 -68 51 -181 47 -98 58 -133 68 -208 15 -112 6 -264 -21 -368 -22 -86 -110
-258 -169 -329 -34 -42 -136 -138 -146 -138 -3 0 15 25 40 56 139 171 221 507
185 766 -29 211 -95 335 -223 420 l-38 26 46 27 c55 32 125 123 154 199 39
105 54 204 54 361 0 162 -15 267 -59 414 -48 157 -103 219 -353 390 -287 197
-362 225 -601 225 -164 -1 -230 -10 -455 -65 -253 -62 -424 -62 -819 1 -277
44 -393 53 -521 40 -359 -37 -676 -260 -832 -586 -70 -149 -86 -223 -87 -404
-1 -168 14 -241 71 -354 34 -68 122 -158 181 -185 l49 -23 -50 -51 c-98 -100
-175 -247 -214 -403 -11 -47 -17 -112 -17 -199 0 -165 24 -267 100 -422 62
-125 139 -218 249 -299 36 -26 63 -49 62 -51 -6 -6 -174 50 -222 74 -30 16
-92 68 -156 132 l-106 106 -32 101 c-74 237 -101 394 -101 583 1 134 18 196
81 292 52 80 54 86 53 148 0 59 -6 77 -51 166 -47 92 -52 110 -67 225 -21 166
-20 242 5 380 43 235 84 355 173 504 130 216 242 354 338 417 83 53 557 210
738 243 216 40 278 55 388 91 125 42 265 113 350 177 34 26 62 44 62 40 0 -4
-5 -25 -10 -46 -5 -25 -5 -46 1 -58 12 -23 62 -24 80 -1 20 23 133 95 204 128
62 29 287 105 294 99 2 -1 -5 -14 -15 -27z"/>
<path fill="#ffffff" stroke="none" d="M2371 5949 c57 -5 185 -25 284 -44 429
-81 578 -82 893 -5 202 48 335 64 472 57 175 -10 267 -48 495 -206 77 -53 159
-109 182 -125 92 -62 150 -194 178 -404 19 -142 19 -249 0 -346 -18 -96 -43
-153 -91 -205 -43 -48 -84 -72 -168 -96 -64 -19 -106 -52 -106 -85 0 -25 34
-60 58 -60 31 0 159 -67 202 -107 57 -51 84 -96 112 -184 20 -65 23 -94 22
-234 0 -152 -2 -166 -33 -265 -45 -146 -90 -235 -155 -306 -69 -76 -207 -180
-304 -228 -74 -37 -74 -37 -229 -42 -101 -2 -190 -11 -256 -25 -150 -30 -206
-32 -393 -15 -131 12 -295 16 -695 16 -288 0 -575 5 -638 10 -266 24 -461 108
-622 269 -96 96 -153 187 -196 316 -24 73 -27 94 -27 230 0 139 2 156 28 230
51 148 125 244 264 347 83 62 92 72 92 101 0 18 -4 37 -8 42 -4 6 -42 16 -85
22 -94 13 -176 52 -224 108 -122 139 -148 418 -62 651 121 328 487 576 875
593 18 0 78 -4 135 -10z"/>
<path fill="#ffffff" stroke="none" d="M939 4857 c43 -21 45 -25 66 -102 11
-44 39 -112 61 -152 36 -66 38 -74 25 -95 -8 -13 -29 -47 -47 -76 l-32 -53
-20 33 c-31 49 -82 94 -132 117 -52 24 -150 28 -212 9 -56 -16 -122 -79 -155
-146 -25 -51 -28 -67 -28 -162 0 -90 3 -111 23 -147 38 -72 49 -58 54 70 4 89
9 121 26 153 55 107 178 142 291 85 53 -27 122 -107 116 -135 -31 -157 2 -487
70 -687 14 -40 22 -75 19 -78 -10 -10 -184 -4 -269 9 -208 32 -371 147 -483
342 -66 116 -85 329 -42 492 39 153 156 349 261 440 123 106 294 141 408 83z"/>
<path fill="#ffffff" stroke="none" d="M5525 4847 c117 -49 217 -132 260 -217
31 -62 71 -190 91 -296 19 -103 15 -270 -10 -344 -67 -207 -202 -352 -387
-417 -62 -22 -96 -27 -216 -31 -151 -4 -151 -5 -133 43 41 108 69 363 52 487
-7 54 -5 79 9 122 47 154 143 238 270 237 56 0 128 -26 144 -51 14 -23 35 -9
35 24 0 80 -88 146 -197 146 -81 0 -125 -19 -187 -78 -47 -45 -106 -148 -106
-184 0 -34 -15 -17 -52 59 l-38 76 46 84 c47 86 74 182 74 265 0 46 2 48 38
64 107 46 214 50 307 11z"/>
<path fill="#ffffff" stroke="none" d="M2179 2860 c-119 -7 -134 -21 -134
-123 1 -39 8 -108 17 -152 9 -44 21 -112 28 -151 14 -87 48 -163 86 -193 25
-20 37 -22 90 -18 l62 5 -24 -47 c-63 -126 -69 -385 -14 -565 11 -36 43 -99
71 -140 90 -135 195 -207 353 -241 103 -23 373 -16 516 14 284 58 486 183 574
358 34 67 58 186 65 317 5 121 7 131 25 128 34 -6 76 20 101 62 13 22 38 93
54 156 18 68 49 151 76 203 43 83 54 129 37 153 -14 20 -167 139 -212 165 -25
15 -63 32 -85 40 l-40 13 60 8 c33 5 92 15 132 24 l71 15 71 -42 c155 -93 398
-338 462 -467 31 -61 34 -75 34 -157 0 -78 -4 -98 -28 -150 -42 -89 -151 -248
-200 -290 -52 -46 -121 -79 -151 -71 -20 5 -21 11 -23 126 -1 76 -10 161 -24
233 -12 61 -25 144 -30 182 -5 42 -6 -66 -4 -276 4 -274 8 -360 21 -415 13
-57 15 -101 10 -249 -8 -211 -22 -299 -67 -415 -37 -96 -50 -155 -42 -187 4
-18 20 -27 77 -44 81 -24 126 -46 257 -124 71 -42 103 -55 133 -55 22 0 60
-10 85 -22 l45 -22 -30 -9 c-16 -5 -34 -14 -41 -19 -8 -6 -38 6 -92 36 -87 50
-102 54 -121 32 -24 -29 -7 -60 50 -93 94 -54 132 -86 157 -136 27 -51 25 -78
-5 -70 -12 3 -24 20 -31 42 -33 111 -234 230 -271 160 -18 -32 -6 -46 62 -77
98 -45 147 -117 117 -171 -23 -40 -49 -33 -86 24 -44 69 -104 120 -157 135
-35 9 -63 9 -134 0 -104 -14 -157 -6 -257 42 -86 40 -119 44 -184 22 -62 -21
-113 -66 -176 -156 -22 -32 -44 -56 -50 -55 -15 5 -18 67 -6 108 12 38 56 89
139 158 81 66 106 110 106 184 -1 97 -52 176 -137 212 -69 29 -141 29 -312 0
-183 -31 -222 -30 -436 12 -120 24 -142 25 -178 14 -87 -25 -153 -115 -155
-206 -1 -68 33 -125 122 -203 72 -64 120 -137 109 -165 -10 -26 -35 -21 -108
23 -103 61 -131 65 -289 47 -157 -18 -213 -38 -267 -98 -83 -91 -92 -99 -112
-99 -36 0 -54 29 -47 74 10 60 38 108 79 135 38 25 48 56 25 79 -21 21 -53 13
-109 -28 -122 -89 -140 -103 -159 -135 -32 -53 -74 -56 -86 -8 -21 84 87 201
208 227 32 7 52 38 43 66 -15 48 -154 7 -240 -72 -38 -35 -60 -48 -72 -44 -12
5 -34 -11 -80 -60 -66 -70 -87 -76 -99 -29 -11 45 6 79 75 146 123 122 339
205 472 183 103 -17 112 8 56 151 -42 108 -63 224 -72 400 -7 146 13 307 60
490 27 107 43 285 31 351 -9 47 -19 34 -35 -48 -7 -31 -21 -74 -31 -96 -10
-21 -27 -77 -36 -124 l-18 -86 -27 13 c-65 34 -197 214 -247 340 -33 79 -41
213 -18 307 42 179 151 337 297 430 69 44 99 55 182 69 38 6 71 17 73 24 4 10
17 8 53 -8 l48 -22 -88 -5z"/>
<path fill="#ffffff" stroke="none" d="M2893 2863 c-7 -2 -19 -2 -25 0 -7 3
-2 5 12 5 14 0 19 -2 13 -5z"/>
<path fill="#ffffff" stroke="none" d="M3220 2825 c0 -33 -43 -63 -65 -45 -22
18 -19 26 18 49 41 27 47 26 47 -4z"/>
<path fill="#ffffff" stroke="none" d="M3318 2819 c4 -36 -123 -192 -169 -208
-50 -17 -64 -13 -80 21 -8 18 -28 42 -46 53 -23 15 -33 30 -38 59 -9 49 10 66
72 66 34 0 46 -5 59 -25 20 -31 54 -41 86 -24 30 16 38 28 38 62 0 26 2 28 38
25 32 -3 37 -7 40 -29z"/>
<path fill="#ffffff" stroke="none" d="M2528 2754 c0 -41 23 -70 63 -79 52
-12 109 39 109 97 0 19 4 20 46 14 26 -3 78 -6 115 -6 39 0 69 -4 69 -10 0
-10 -62 -44 -119 -65 l-36 -14 30 0 c17 0 52 4 78 8 70 12 71 -8 5 -72 -41
-39 -81 -64 -159 -99 -142 -64 -139 -63 -139 -43 0 29 -55 75 -90 75 -22 0
-41 -9 -61 -29 -32 -32 -37 -67 -14 -97 8 -10 15 -22 15 -25 0 -5 -48 -41 -97
-72 -8 -5 -17 3 -27 26 -21 51 -60 77 -117 77 -54 0 -50 -8 -68 128 -7 57 -6
62 11 62 59 0 128 63 128 117 0 19 8 22 73 31 39 5 97 10 129 11 l56 1 0 -36z"/>
<path fill="#ffffff" stroke="none" d="M2678 2764 c6 -44 -84 -84 -116 -52 -7
7 -12 27 -12 45 l0 34 63 -3 c55 -3 62 -6 65 -24z"/>
<path fill="#ffffff" stroke="none" d="M3709 2739 c40 -39 105 -43 153 -8 26
18 29 18 62 2 34 -16 35 -17 29 -64 -7 -57 21 -110 70 -136 18 -8 33 -17 35
-18 1 -1 -7 -22 -17 -46 -11 -24 -34 -93 -51 -153 -17 -59 -36 -119 -42 -132
-15 -33 -50 -40 -87 -18 -25 15 -29 22 -24 46 3 15 0 42 -7 58 -19 46 -90 76
-116 50 -6 -6 -22 -2 -44 14 -19 12 -54 31 -77 41 -33 14 -43 24 -43 41 0 37
-22 74 -51 90 -35 18 -47 18 -82 -1 -27 -14 -29 -13 -87 38 -32 29 -59 54 -59
57 -1 3 16 24 37 48 l37 43 36 -15 c48 -20 139 -32 139 -18 0 16 -17 24 -85
43 -64 17 -78 35 -48 64 15 16 31 17 155 11 135 -7 138 -8 167 -37z"/>
<path fill="#ffffff" stroke="none" d="M3845 2761 c19 -8 19 -8 -2 -19 -40
-22 -123 -9 -123 18 0 12 96 12 125 1z"/>
<path fill="#ffffff" stroke="none" d="M2250 2750 c0 -51 -80 -111 -120 -90
-20 11 -37 71 -25 89 8 14 145 15 145 1z"/>
<path fill="#ffffff" stroke="none" d="M4056 2638 l65 -52 -26 -25 c-25 -25
-25 -25 -58 -8 -50 27 -86 105 -60 130 10 10 9 11 79 -45z"/>
<path fill="#ffffff" stroke="none" d="M3048 2626 c16 -31 9 -46 -22 -46 -39
0 -58 38 -40 85 6 14 9 14 28 2 11 -8 27 -26 34 -41z"/>
<path fill="#ffffff" stroke="none" d="M3082 2504 c38 3 86 13 109 22 l40 17
37 -35 c163 -151 179 -164 257 -198 103 -44 127 -60 224 -153 l81 -77 0 -68
c0 -37 -4 -103 -9 -148 -39 -332 -266 -504 -738 -559 -245 -29 -413 -16 -524
41 -111 56 -227 209 -260 344 -8 33 -14 108 -13 190 0 158 14 217 77 328 34
60 51 79 97 107 30 18 88 43 129 54 40 11 103 34 139 52 37 17 90 42 118 55
27 13 60 35 73 48 l23 24 36 -25 c34 -23 43 -24 104 -19z"/>
<path fill="#ffffff" stroke="none" d="M2544 2519 c28 -22 35 -59 11 -59 -9 0
-34 -9 -56 -19 -39 -19 -39 -19 -54 2 -20 28 -19 39 6 71 25 31 57 33 93 5z"/>
<path fill="#ffffff" stroke="none" d="M3489 2485 c24 -12 40 -39 41 -67 0
-13 -13 -9 -69 23 -51 29 -53 32 -36 45 24 17 29 17 64 -1z"/>
<path fill="#ffffff" stroke="none" d="M2277 2385 c47 -54 16 -101 -50 -76
-29 11 -67 64 -67 95 0 30 87 16 117 -19z"/>
<path fill="#ffffff" stroke="none" d="M3794 2284 c24 -24 36 -74 19 -74 -10
0 -83 80 -83 91 0 19 38 8 64 -17z"/>
<path fill="#ffffff" stroke="none" d="M2792 741 c175 -42 311 -43 543 -7 56
9 121 13 147 10 57 -8 112 -50 128 -98 14 -44 -1 -104 -32 -133 -22 -19 -30
-20 -298 -12 -151 5 -330 11 -397 15 -82 4 -138 3 -169 -5 -46 -12 -48 -11
-82 21 -62 59 -73 116 -34 176 18 27 59 51 89 52 12 0 59 -9 105 -19z"/>
<path fill="#ffffff" stroke="none" d="M275 438 c158 -20 185 -21 390 -10 147
7 263 7 350 1 72 -5 168 -11 215 -12 l85 -2 0 -55 c0 -63 26 -110 75 -135 45
-23 67 -18 115 26 l45 42 0 -29 c0 -67 67 -134 133 -134 35 0 81 23 101 51 14
21 15 21 22 -16 4 -24 20 -51 45 -76 l39 -39 -925 0 -925 0 0 198 c0 109 3
202 7 205 10 11 47 9 228 -15z"/>
<path fill="#ffffff" stroke="none" d="M2943 420 c148 -24 219 -30 337 -30
l149 0 -31 -49 c-56 -91 -48 -224 16 -266 54 -35 138 9 192 101 33 56 75 91
124 104 35 10 48 7 107 -18 117 -51 143 -57 238 -53 50 2 109 4 131 4 23 1 54
-5 69 -13 23 -12 72 -74 109 -138 6 -9 -235 -12 -1192 -12 l-1200 0 76 76 c43
43 95 85 119 96 26 11 90 24 158 31 l114 11 103 -52 c57 -29 113 -52 126 -52
36 0 89 26 102 51 27 50 7 147 -45 215 -20 26 -21 31 -7 28 9 -2 102 -17 205
-34z"/>
<path fill="#ffffff" stroke="none" d="M5655 318 c79 -14 182 -24 300 -27
l180 -6 3 -117 3 -118 -792 0 -791 0 15 23 c12 18 22 21 61 19 61 -5 92 16
106 68 11 42 2 98 -25 150 l-13 25 416 2 c390 3 425 1 537 -19z"/>
<path fill="#000000" stroke="none" d="M2215 5745 c-164 -34 -297 -139 -373
-295 -51 -103 -70 -173 -82 -305 -22 -223 37 -417 161 -529 71 -64 240 -135
340 -143 l77 -6 -131 -67 c-130 -65 -380 -210 -364 -210 4 0 83 36 175 79 173
82 364 149 505 177 104 21 326 14 507 -16 85 -14 209 -23 385 -30 231 -8 271
-12 355 -35 158 -43 270 -104 420 -228 56 -47 70 -50 70 -16 0 29 -129 158
-209 209 -39 25 -71 48 -71 53 0 4 15 7 34 7 47 0 151 34 211 69 79 46 140
106 201 198 80 120 116 227 122 367 8 190 -28 282 -168 430 -100 105 -200 174
-299 206 -59 19 -86 22 -163 18 -117 -5 -195 -39 -283 -125 -73 -70 -114 -130
-154 -227 -125 -301 -129 -583 -11 -748 l39 -56 -132 4 c-73 2 -197 10 -277
17 -80 6 -193 12 -252 12 -60 0 -108 0 -108 0 0 0 26 28 58 61 106 113 172
257 192 421 12 93 8 150 -17 248 -50 200 -235 388 -443 449 -79 23 -230 29
-315 11z"/>
<path fill="#ffffff" stroke="none" d="M2520 5574 c145 -46 258 -143 328 -283
32 -65 37 -84 40 -166 5 -102 -7 -153 -59 -257 -27 -54 -63 -96 -44 -52 4 10
10 69 13 131 4 94 1 122 -17 181 -42 139 -156 250 -297 288 -85 23 -150 11
-229 -42 -235 -156 -312 -478 -164 -686 l22 -30 -24 7 c-66 19 -156 100 -193
173 -66 131 -60 346 14 509 38 84 63 117 121 163 122 96 309 121 489 64z"/>
<path fill="#ffffff" stroke="none" d="M4127 5485 c104 -51 258 -201 300 -290
49 -107 33 -250 -45 -399 -33 -62 -127 -175 -137 -164 -3 2 9 43 25 91 124
356 -20 658 -315 660 -181 1 -325 -143 -387 -385 -26 -106 -22 -248 10 -320
11 -27 17 -48 12 -48 -12 0 -58 57 -83 104 -33 62 -30 233 6 372 49 188 85
257 168 321 106 80 173 104 286 100 71 -3 92 -8 160 -42z"/>
<path fill="#ffffff" stroke="none" d="M2294 5186 c25 -10 36 -22 41 -45 20
-91 -61 -144 -137 -90 -25 19 -29 26 -24 52 8 37 52 97 72 97 8 0 30 -6 48
-14z"/>
<path fill="#ffffff" stroke="none" d="M3818 5134 c47 -33 6 -114 -58 -114
-19 0 -40 9 -55 25 -39 38 -32 64 25 89 45 19 60 20 88 0z"/>
<path fill="#000000" stroke="none" d="M2806 4348 c-19 -27 -20 -48 -4 -83 12
-28 28 -33 28 -10 0 23 16 18 28 -10 20 -44 62 -25 62 27 0 80 -76 130 -114
76z"/>
<path fill="#000000" stroke="none" d="M3121 4315 c-37 -32 -57 -86 -41 -115
15 -28 37 -25 54 9 17 31 42 46 52 30 10 -17 34 11 34 42 0 32 -23 59 -50 59
-10 0 -32 -11 -49 -25z"/>
<path fill="#000000" stroke="none" d="M1517 3849 c-43 -25 -72 -159 -47 -219
16 -39 36 -33 33 11 -4 66 4 66 70 1 73 -72 151 -111 292 -147 113 -29 332
-67 520 -89 72 -9 211 -28 311 -42 178 -25 321 -29 317 -9 -4 16 -38 22 -185
34 -189 16 -288 34 -425 81 -112 37 -171 53 -558 146 -115 28 -183 50 -240 79
-86 44 -89 50 -64 112 15 38 4 58 -24 42z"/>
<path fill="#000000" stroke="none" d="M2180 2602 c0 -40 26 -106 39 -97 10 6
-7 75 -27 111 -10 17 -11 15 -12 -14z"/>
<path fill="#000000" stroke="none" d="M3652 2620 c-19 -32 -15 -103 9 -134
29 -36 63 -34 105 8 41 41 46 89 14 124 -28 30 -109 31 -128 2z"/>
<path fill="#ffffff" stroke="none" d="M3764 2604 c9 -8 16 -27 16 -40 0 -28
-49 -84 -73 -84 -50 0 -64 103 -17 127 34 17 55 16 74 -3z"/>
<path fill="#000000" stroke="none" d="M3926 2469 c-13 -21 -18 -51 -18 -100
0 -39 3 -73 6 -76 3 -4 6 9 6 28 0 30 11 80 35 157 11 32 -8 27 -29 -9z"/>
</g>
</svg>
