<?xml version="1.0" standalone="no"?>
<!DOCTYPE svg PUBLIC "-//W3C//DTD SVG 20010904//EN"
 "http://www.w3.org/TR/2001/REC-SVG-20010904/DTD/svg10.dtd">
<svg version="1.0" xmlns="http://www.w3.org/2000/svg"
 width="1002.000000pt" height="702.000000pt" viewBox="0 0 1002.000000 702.000000"
 preserveAspectRatio="xMidYMid meet">
<metadata>
Created by potrace 1.16, written by Peter Selinger 2001-2019
</metadata>
<g transform="translate(0.000000,702.000000) scale(0.100000,-0.100000)"
fill="#000000" stroke="none">
<path fill="#000000" stroke="none" d="M0 3510 l0 -3510 5010 0 5010 0 0 3510
0 3510 -5010 0 -5010 0 0 -3510z"/>
<path fill="#ffffff" stroke="none" d="M10010 3686 l0 -3324 -42 5 c-24 2 -77
11 -118 18 -367 68 -991 68 -1503 0 -214 -29 -208 -29 -269 -5 -32 12 -58 25
-58 29 0 5 17 27 38 49 33 37 49 45 157 77 274 81 390 138 495 244 104 105
148 197 230 486 37 127 63 348 57 470 -5 94 -51 216 -97 260 -35 34 -115 56
-161 46 -130 -30 -194 -86 -520 -456 -156 -177 -188 -219 -227 -303 -38 -82
-36 -199 7 -518 l34 -251 -28 -39 c-16 -21 -30 -40 -31 -42 -1 -2 -25 11 -54
28 -28 17 -73 35 -100 41 -44 9 -56 19 -159 134 l-111 124 0 119 c0 270 -30
473 -86 584 -79 157 -102 180 -808 800 -17 15 -39 27 -48 28 -26 0 -24 -50 17
-408 45 -397 52 -447 81 -570 52 -226 131 -323 351 -431 95 -47 440 -181 467
-181 12 0 171 -169 164 -174 -2 -2 -41 1 -88 5 -123 11 -365 10 -590 -1 -199
-10 -517 -37 -558 -47 -16 -4 -30 3 -49 22 -34 34 -75 51 -144 60 -38 5 -78
21 -134 55 -100 60 -153 87 -226 114 l-57 21 13 35 c7 19 25 64 40 100 44 103
57 215 59 486 l1 241 42 11 c128 35 335 301 379 488 30 128 5 251 -76 371 -47
70 -286 313 -364 368 -30 22 -56 43 -56 46 0 3 30 11 68 19 145 28 357 112
459 181 116 78 249 218 291 306 l16 33 151 0 c256 0 383 48 535 200 220 219
273 505 163 870 -39 129 -77 196 -157 276 -54 53 -91 80 -156 111 -147 70
-234 78 -364 33 -33 -11 -61 -19 -62 -17 -2 2 -8 61 -14 133 -20 248 -104 513
-258 814 -183 357 -376 508 -747 585 -72 15 -109 27 -107 35 1 7 -5 23 -13 37
-15 22 -23 24 -66 21 -27 -1 -49 -2 -49 0 0 2 7 17 16 33 13 27 14 33 1 53
-29 44 -157 60 -252 31 -27 -8 -51 -12 -53 -10 -10 10 93 138 159 198 63 56
71 68 65 90 -21 85 -267 47 -528 -83 -72 -35 -98 -44 -93 -32 4 9 10 47 12 83
4 53 2 68 -12 82 -26 27 -53 21 -71 -15 -48 -93 -161 -191 -305 -263 -130 -66
-279 -111 -492 -151 -183 -34 -405 -98 -676 -196 -199 -72 -270 -137 -461
-422 -127 -190 -177 -308 -236 -561 -25 -105 -28 -140 -29 -281 l0 -161 -40
14 c-22 8 -76 14 -121 14 -222 0 -424 -149 -552 -406 -75 -151 -105 -277 -104
-435 0 -179 43 -306 150 -441 112 -141 237 -224 394 -262 83 -21 299 -40 349
-32 33 6 39 3 60 -27 36 -52 116 -138 183 -196 111 -98 199 -130 590 -217 l79
-17 -54 -31 c-188 -107 -310 -266 -374 -491 -29 -104 -33 -219 -10 -311 33
-133 180 -363 275 -432 25 -18 53 -38 62 -45 16 -12 16 -21 -3 -143 -17 -105
-19 -155 -14 -259 8 -164 28 -297 58 -385 l23 -69 -63 -6 c-83 -9 -181 -40
-273 -87 -98 -50 -118 -64 -193 -137 l-64 -61 -49 18 c-27 11 -94 27 -149 37
-182 34 -749 22 -1040 -22 -55 -8 -107 -17 -116 -20 -11 -3 -26 21 -57 90 -23
52 -42 100 -42 106 0 7 43 67 95 134 l95 123 88 18 c420 86 716 304 855 631
59 137 107 356 107 484 0 27 4 52 10 55 17 10 11 43 -7 47 -22 4 -351 -79
-486 -122 -300 -96 -461 -209 -548 -384 -64 -131 -72 -184 -73 -471 l-1 -250
-79 -100 c-43 -55 -81 -101 -85 -102 -3 -2 -14 17 -24 42 -18 42 -18 58 -7
285 15 289 9 640 -14 762 -63 344 -217 492 -636 612 -134 39 -575 136 -615
136 -18 0 -26 -7 -31 -27 -8 -29 39 -335 87 -578 86 -431 212 -610 629 -890
132 -88 468 -291 517 -312 18 -7 33 -18 33 -24 0 -6 19 -49 41 -97 63 -134 79
-173 74 -182 -3 -4 -17 -11 -32 -15 -16 -3 -35 -12 -43 -20 -23 -20 -183 -71
-300 -96 -208 -44 -534 -24 -930 57 -96 20 -187 39 -202 41 l-28 5 0 3284 0
3284 5000 0 5000 0 0 -3324z"/>
<path fill="#ffffff" stroke="none" d="M5324 6857 c-72 -91 -122 -161 -156
-220 -39 -66 -40 -68 -23 -93 20 -30 38 -29 168 12 43 13 98 24 122 24 l45 0
-35 -46 c-40 -52 -40 -53 -21 -79 11 -15 25 -18 78 -17 59 2 66 0 76 -22 9
-19 22 -25 89 -35 43 -7 129 -26 191 -42 320 -82 465 -214 647 -592 161 -334
225 -581 225 -864 0 -149 -14 -215 -67 -312 -36 -67 -47 -97 -51 -147 -4 -60
-2 -68 51 -181 47 -98 58 -133 68 -208 15 -112 6 -264 -21 -368 -22 -86 -110
-258 -169 -329 -34 -42 -136 -138 -146 -138 -3 0 15 25 40 56 139 171 221 507
185 766 -29 211 -95 335 -223 420 l-38 26 46 27 c55 32 125 123 154 199 39
105 54 204 54 361 0 162 -15 267 -59 414 -48 157 -103 219 -353 390 -287 197
-362 225 -601 225 -164 -1 -230 -10 -455 -65 -253 -62 -424 -62 -819 1 -277
44 -393 53 -521 40 -359 -37 -676 -260 -832 -586 -70 -149 -86 -223 -87 -404
-1 -136 2 -164 22 -230 48 -152 130 -262 232 -310 l47 -22 -50 -51 c-98 -100
-175 -247 -214 -403 -11 -47 -17 -112 -17 -199 0 -165 24 -267 100 -422 62
-125 139 -218 249 -299 36 -26 63 -49 62 -51 -6 -6 -174 50 -222 74 -30 16
-92 68 -156 132 l-106 106 -32 101 c-74 237 -101 394 -101 583 1 134 18 196
81 292 52 80 54 86 53 148 0 59 -6 77 -51 166 -47 92 -52 110 -67 225 -21 166
-20 242 5 380 43 235 84 355 173 504 130 216 242 354 338 417 83 53 557 210
738 243 216 40 278 55 388 91 125 42 265 113 350 177 34 26 62 44 62 40 0 -4
-5 -25 -10 -46 -5 -25 -5 -46 1 -58 12 -23 62 -24 80 -1 20 23 133 95 204 128
62 29 287 105 294 99 2 -1 -5 -14 -15 -27z"/>
<path fill="#ffffff" stroke="none" d="M4011 5939 c57 -5 185 -25 284 -44 429
-81 578 -82 893 -5 202 48 335 64 472 57 201 -11 274 -48 687 -339 83 -58 142
-198 168 -395 35 -263 4 -448 -91 -553 -43 -47 -85 -71 -168 -95 -64 -19 -106
-52 -106 -85 0 -25 34 -60 58 -60 31 0 159 -67 202 -107 57 -51 84 -96 112
-184 20 -65 23 -94 22 -234 0 -152 -2 -166 -33 -265 -45 -146 -90 -235 -155
-306 -69 -76 -207 -180 -304 -228 -74 -37 -74 -37 -229 -42 -101 -2 -190 -11
-256 -25 -150 -30 -206 -32 -393 -15 -131 12 -295 16 -695 16 -288 0 -575 5
-638 10 -266 24 -461 108 -622 269 -96 96 -153 187 -196 316 -24 73 -27 94
-27 230 0 139 2 156 28 230 51 147 121 240 262 346 84 63 94 74 94 102 0 18
-4 37 -8 42 -4 6 -42 16 -85 22 -94 13 -176 52 -224 108 -122 139 -148 418
-62 651 121 328 487 576 875 593 18 0 78 -4 135 -10z"/>
<path fill="#ffffff" stroke="none" d="M2579 4847 c43 -22 45 -25 66 -102 11
-44 39 -112 61 -152 36 -66 38 -74 25 -95 -8 -13 -29 -47 -47 -76 l-32 -53
-20 33 c-31 49 -82 94 -132 117 -52 24 -150 28 -212 9 -56 -16 -122 -79 -155
-146 -25 -51 -28 -67 -28 -162 0 -90 3 -111 23 -147 38 -72 49 -58 54 70 4 89
9 121 26 153 55 107 178 142 291 85 53 -27 122 -107 116 -135 -31 -157 2 -487
70 -687 14 -40 22 -75 19 -78 -10 -10 -184 -4 -269 9 -178 27 -306 103 -420
250 -95 123 -128 223 -127 389 1 139 23 236 82 357 47 97 139 225 201 278 122
105 293 140 408 83z"/>
<path fill="#ffffff" stroke="none" d="M7165 4837 c117 -49 217 -132 260 -217
66 -131 110 -340 102 -490 -9 -158 -57 -281 -151 -389 -133 -151 -274 -211
-499 -211 -66 0 -117 4 -117 9 0 5 5 22 10 36 41 108 69 363 52 487 -7 54 -5
79 9 122 47 154 143 238 270 237 56 0 128 -26 144 -51 14 -23 35 -9 35 24 0
80 -88 146 -197 146 -81 0 -125 -19 -187 -78 -47 -45 -106 -148 -106 -184 0
-34 -15 -17 -52 59 l-38 76 46 84 c47 86 74 182 74 264 0 42 2 46 38 63 98 47
213 52 307 13z"/>
<path fill="#ffffff" stroke="none" d="M3819 2850 c-119 -7 -134 -21 -134
-123 1 -39 8 -108 17 -152 9 -44 21 -112 28 -151 14 -87 48 -163 86 -193 25
-20 37 -22 90 -18 l62 5 -24 -47 c-63 -126 -69 -385 -14 -565 11 -36 43 -99
71 -140 90 -135 195 -207 353 -241 103 -23 373 -16 516 14 284 58 486 183 574
358 34 67 58 186 65 317 5 121 7 131 25 128 34 -6 76 20 101 62 13 22 38 93
54 156 18 68 49 151 76 203 43 83 54 129 37 153 -14 20 -167 139 -212 165 -25
15 -63 32 -85 40 l-40 13 60 8 c33 5 93 15 132 24 69 15 75 14 100 -3 16 -10
40 -25 55 -33 92 -46 341 -287 419 -406 77 -116 89 -242 35 -360 -40 -86 -150
-247 -199 -289 -52 -46 -121 -79 -151 -71 -20 5 -21 11 -23 126 -1 76 -10 161
-24 233 -12 61 -25 144 -30 182 -5 42 -6 -66 -4 -276 4 -274 8 -360 21 -415
13 -57 15 -101 10 -249 -8 -211 -22 -299 -67 -415 -37 -96 -50 -155 -42 -187
4 -18 20 -27 77 -44 81 -24 126 -46 257 -124 71 -42 103 -55 133 -55 22 0 60
-10 85 -22 l45 -22 -30 -9 c-16 -5 -34 -14 -41 -19 -8 -6 -38 6 -92 36 -44 25
-86 46 -94 46 -36 0 -50 -56 -19 -82 9 -9 40 -27 68 -41 28 -14 64 -37 80 -50
34 -29 78 -111 71 -132 -10 -25 -44 -5 -56 34 -33 111 -234 230 -271 161 -18
-34 -3 -54 52 -74 60 -21 123 -78 134 -121 9 -36 -14 -80 -41 -80 -13 0 -31
18 -52 50 -44 69 -104 120 -157 135 -35 9 -63 9 -134 0 -104 -14 -157 -6 -257
42 -86 40 -119 44 -184 22 -62 -21 -113 -66 -176 -156 -22 -32 -44 -56 -50
-55 -15 5 -18 67 -6 108 12 38 52 83 149 167 78 67 95 100 95 177 0 95 -51
174 -136 210 -69 29 -141 29 -312 0 -183 -31 -222 -30 -436 12 -120 24 -142
25 -178 14 -87 -25 -153 -115 -155 -206 -1 -68 33 -125 122 -203 72 -64 120
-137 109 -165 -10 -26 -35 -21 -108 23 -103 61 -131 65 -289 47 -157 -18 -213
-38 -267 -98 -83 -91 -92 -99 -112 -99 -36 0 -54 29 -47 74 10 60 38 108 79
135 38 25 48 56 25 79 -21 21 -53 13 -109 -28 -122 -89 -140 -103 -159 -135
-32 -53 -74 -56 -86 -8 -21 83 88 202 208 227 32 7 52 38 43 66 -15 48 -154 7
-240 -72 -38 -35 -60 -48 -72 -44 -12 5 -34 -11 -80 -60 -66 -70 -87 -76 -99
-29 -11 45 6 79 75 146 123 122 339 205 472 183 103 -17 112 8 56 151 -42 108
-63 224 -72 400 -7 146 13 308 60 490 28 106 43 284 30 351 -8 47 -18 34 -34
-48 -7 -31 -21 -74 -31 -96 -10 -21 -27 -77 -36 -124 l-18 -86 -26 13 c-55 29
-169 175 -229 292 -127 251 -6 616 260 785 69 44 99 55 182 69 38 6 71 17 73
24 4 10 17 8 53 -8 l48 -22 -88 -5z"/>
<path fill="#ffffff" stroke="none" d="M4533 2853 c-7 -2 -19 -2 -25 0 -7 3
-2 5 12 5 14 0 19 -2 13 -5z"/>
<path fill="#ffffff" stroke="none" d="M4958 2809 c4 -36 -123 -192 -169 -208
-50 -17 -64 -13 -80 21 -8 18 -28 42 -46 53 -23 15 -33 30 -38 59 -9 49 10 66
72 66 34 0 46 -5 59 -25 20 -31 54 -41 86 -24 30 16 38 28 38 62 0 26 2 28 38
25 32 -3 37 -7 40 -29z"/>
<path fill="#ffffff" stroke="none" d="M4168 2744 c0 -41 23 -70 63 -79 51
-11 109 39 109 95 0 18 7 19 108 13 59 -3 111 -9 116 -13 9 -9 -50 -42 -113
-65 l-36 -14 30 0 c17 0 52 4 78 8 70 12 71 -8 5 -72 -41 -39 -81 -64 -159
-99 -142 -64 -139 -63 -139 -43 0 29 -55 75 -90 75 -22 0 -41 -9 -61 -29 -32
-32 -37 -67 -14 -97 8 -10 15 -22 15 -25 0 -5 -48 -41 -97 -72 -8 -5 -17 3
-27 26 -21 51 -60 77 -117 77 -54 0 -48 -11 -67 128 -8 57 -7 62 10 62 59 0
128 63 128 117 0 19 8 22 73 31 39 5 97 10 129 11 l56 1 0 -36z"/>
<path fill="#ffffff" stroke="none" d="M5349 2729 c40 -39 105 -43 153 -8 26
18 29 18 62 2 34 -16 35 -17 29 -64 -7 -57 21 -110 70 -136 18 -8 33 -17 35
-18 1 -1 -7 -22 -17 -46 -11 -24 -34 -93 -51 -153 -17 -59 -36 -119 -42 -132
-15 -33 -50 -40 -86 -19 -26 16 -29 22 -25 59 4 34 1 46 -20 68 -30 32 -73 45
-97 30 -14 -8 -25 -6 -51 12 -19 13 -53 31 -76 41 -33 15 -43 24 -43 42 0 71
-60 113 -129 92 l-41 -12 -54 49 c-30 27 -54 51 -55 54 0 3 16 24 37 48 l37
43 36 -15 c48 -20 139 -32 139 -18 0 16 -17 24 -85 43 -64 17 -78 35 -48 64
15 16 31 17 155 11 135 -7 138 -8 167 -37z"/>
<path fill="#ffffff" stroke="none" d="M4722 2494 c38 3 86 13 109 22 l40 17
37 -35 c163 -151 179 -164 257 -198 103 -44 127 -60 224 -153 l81 -77 0 -68
c0 -37 -4 -103 -9 -148 -39 -332 -266 -504 -738 -559 -245 -29 -413 -16 -524
41 -111 56 -227 209 -260 344 -8 33 -14 108 -13 190 0 158 14 217 77 328 34
60 51 79 97 107 30 18 88 43 129 54 40 11 103 34 139 52 37 17 90 42 118 55
27 13 60 35 73 48 l23 24 36 -25 c34 -23 43 -24 104 -19z"/>
<path fill="#ffffff" stroke="none" d="M442 2480 c594 -126 780 -218 887 -435
77 -159 96 -324 88 -750 -4 -170 -10 -320 -13 -333 -5 -18 -22 12 -84 145
-135 293 -203 415 -303 538 -75 92 -351 365 -369 365 -40 0 -10 -41 145 -199
247 -252 298 -328 471 -702 138 -300 131 -283 103 -265 -12 7 -94 57 -183 109
-591 353 -756 526 -854 898 -24 92 -120 624 -120 668 0 7 9 9 23 6 12 -3 106
-23 209 -45z"/>
<path fill="#ffffff" stroke="none" d="M7015 1880 c334 -288 422 -407 460
-626 19 -109 32 -428 18 -423 -14 5 -239 253 -308 339 -69 85 -108 158 -200
378 -61 145 -81 182 -96 182 -12 0 -19 -7 -19 -19 0 -21 125 -321 176 -422 41
-82 113 -173 287 -365 75 -82 135 -150 133 -151 -6 -6 -317 117 -396 156 -206
103 -278 199 -325 439 -18 89 -105 780 -105 833 0 6 60 -43 133 -108 72 -65
182 -161 242 -213z"/>
<path fill="#ffffff" stroke="none" d="M2710 2061 c0 -66 -34 -260 -61 -346
-98 -321 -330 -550 -664 -658 -101 -33 -206 -59 -212 -54 -8 9 165 207 301
342 88 88 179 167 241 210 55 39 122 90 149 115 62 57 196 235 196 261 0 38
-36 20 -78 -40 -80 -113 -144 -183 -226 -242 -173 -127 -231 -177 -349 -298
-67 -70 -160 -173 -207 -229 l-85 -103 -8 53 c-12 78 -1 372 17 444 58 232
202 363 524 473 87 30 422 120 450 121 8 0 12 -16 12 -49z"/>
<path fill="#ffffff" stroke="none" d="M8844 1980 c29 -11 45 -38 80 -140 41
-117 30 -311 -33 -555 -96 -370 -174 -489 -389 -593 -85 -42 -339 -128 -348
-119 -3 3 31 52 76 109 48 61 102 146 134 208 61 122 152 379 189 530 33 141
66 222 95 235 26 11 29 40 6 49 -24 9 -61 -18 -83 -63 -23 -43 -72 -206 -91
-296 -18 -85 -102 -312 -160 -430 -50 -102 -227 -343 -240 -328 -9 9 -58 369
-67 481 -7 101 9 175 55 251 40 67 325 394 462 532 99 99 169 139 241 139 26
0 59 -4 73 -10z"/>
<path fill="#ffffff" stroke="none" d="M4480 720 c121 -27 297 -29 430 -5 52
10 129 18 172 18 69 1 80 -2 113 -27 70 -53 81 -139 26 -196 l-26 -28 -275 9
c-151 5 -330 12 -398 15 -80 4 -139 2 -169 -5 -45 -12 -47 -11 -81 21 -62 59
-73 116 -34 176 37 57 72 60 242 22z"/>
<path fill="#ffffff" stroke="none" d="M2785 475 c116 -21 189 -52 178 -74
-15 -32 -7 -108 16 -140 25 -34 69 -61 101 -61 11 0 41 19 65 41 l45 42 0 -29
c0 -67 67 -134 133 -134 35 0 81 23 100 51 15 20 15 20 22 -13 4 -18 18 -48
32 -65 23 -32 26 -33 102 -33 l78 0 61 65 c78 84 121 103 267 118 l114 11 103
-52 c57 -29 113 -52 126 -52 36 0 89 26 102 51 27 50 7 147 -45 215 -20 26
-21 31 -7 28 9 -2 102 -17 205 -34 148 -24 219 -30 337 -30 l149 0 -31 -49
c-56 -91 -48 -224 16 -266 54 -35 138 9 192 101 33 56 75 91 124 104 35 10 48
7 107 -18 117 -51 143 -57 238 -53 50 2 109 4 131 4 58 2 90 -18 136 -85 l39
-58 93 0 c70 0 97 4 106 15 9 10 24 13 56 8 104 -14 143 94 78 220 l-15 27 56
0 55 0 0 50 c0 32 5 52 13 55 21 7 343 34 537 45 337 18 670 9 785 -21 22 -6
99 -40 170 -75 106 -52 146 -66 212 -76 72 -11 84 -10 107 6 67 43 776 86
1129 68 221 -12 433 -37 454 -54 7 -5 34 -9 60 -8 103 4 93 19 93 -140 l0
-140 -5000 0 -5000 0 0 176 0 176 23 -4 c395 -85 701 -128 910 -128 138 0 367
52 542 124 48 19 94 32 105 29 13 -3 26 1 33 11 20 27 342 65 551 65 54 0 101
3 105 7 12 13 414 -4 506 -21z"/>
<path fill="#000000" stroke="none" d="M3855 5735 c-105 -22 -190 -68 -265
-144 -111 -111 -172 -256 -190 -450 -22 -231 36 -422 161 -535 71 -64 240
-135 340 -143 l77 -6 -131 -67 c-130 -65 -380 -210 -364 -210 4 0 83 36 175
79 173 82 364 149 505 177 104 21 326 14 507 -16 85 -14 209 -23 385 -30 231
-8 271 -12 355 -35 158 -43 270 -104 420 -228 56 -47 70 -50 70 -16 0 29 -129
158 -209 209 -39 25 -71 48 -71 53 0 4 15 7 34 7 47 0 151 34 211 69 79 46
140 106 201 198 80 120 116 227 122 367 8 190 -28 282 -168 430 -100 105 -200
174 -299 206 -59 19 -86 22 -163 18 -117 -5 -195 -39 -283 -125 -73 -70 -114
-130 -154 -227 -125 -301 -129 -583 -11 -748 l39 -56 -132 4 c-73 2 -197 10
-277 17 -80 6 -193 12 -252 12 -60 0 -108 0 -108 0 0 0 26 28 58 61 106 113
172 257 192 421 12 93 8 150 -17 248 -50 200 -235 388 -443 449 -79 23 -230
29 -315 11z"/>
<path fill="#ffffff" stroke="none" d="M4160 5564 c145 -46 258 -143 328 -283
32 -65 37 -84 40 -166 5 -102 -7 -153 -59 -257 -27 -54 -63 -96 -44 -52 4 10
10 69 13 131 4 94 1 122 -17 181 -42 139 -156 250 -297 288 -85 23 -150 11
-229 -42 -235 -156 -312 -478 -164 -686 l22 -30 -24 7 c-63 18 -156 99 -189
165 -69 135 -65 352 10 517 38 84 63 117 121 163 122 96 309 121 489 64z"/>
<path fill="#ffffff" stroke="none" d="M5767 5475 c104 -51 258 -201 300 -290
49 -107 33 -250 -45 -399 -33 -62 -127 -175 -137 -164 -3 2 9 43 25 91 124
356 -20 658 -315 660 -181 1 -325 -143 -387 -385 -26 -106 -22 -248 10 -321
21 -47 21 -47 1 -36 -27 14 -77 94 -90 144 -24 86 12 324 70 473 32 80 64 124
122 169 106 80 173 104 286 100 71 -3 92 -8 160 -42z"/>
<path fill="#ffffff" stroke="none" d="M4153 5203 c58 -33 110 -100 128 -166
45 -168 -110 -344 -285 -323 -139 16 -249 152 -232 290 11 98 94 196 190 226
54 17 141 5 199 -27z"/>
<path fill="#ffffff" stroke="none" d="M5703 5123 c58 -33 110 -100 128 -166
45 -168 -110 -344 -285 -323 -139 16 -249 152 -232 290 11 98 94 196 190 226
54 17 141 5 199 -27z"/>
<path fill="#000000" stroke="none" d="M4446 4338 c-19 -27 -20 -48 -4 -83 12
-28 28 -33 28 -10 0 23 16 18 28 -10 20 -44 62 -25 62 27 0 80 -76 130 -114
76z"/>
<path fill="#000000" stroke="none" d="M4761 4305 c-37 -32 -57 -86 -41 -115
15 -28 37 -25 54 9 17 31 42 46 52 30 10 -17 34 11 34 42 0 32 -23 59 -50 59
-10 0 -32 -11 -49 -25z"/>
<path fill="#000000" stroke="none" d="M3157 3839 c-43 -25 -72 -159 -47 -219
16 -39 36 -33 33 11 -4 66 4 66 70 1 73 -72 151 -111 292 -147 113 -29 332
-67 520 -89 72 -9 211 -28 311 -42 178 -25 321 -29 317 -9 -4 16 -38 22 -185
34 -189 16 -288 34 -425 81 -65 22 -203 60 -308 85 -344 82 -399 97 -470 131
-110 52 -109 50 -88 107 19 51 11 73 -20 56z"/>
<path fill="#000000" stroke="none" d="M5292 2610 c-19 -32 -15 -103 9 -134
29 -36 63 -34 105 8 41 41 46 89 14 124 -28 30 -109 31 -128 2z"/>
<path fill="#000000" stroke="none" d="M5566 2459 c-13 -21 -18 -51 -18 -100
0 -39 3 -73 6 -76 3 -4 6 9 6 28 0 30 11 80 35 157 11 32 -8 27 -29 -9z"/>
</g>
</svg>
