<?xml version="1.0" standalone="no"?>
<!DOCTYPE svg PUBLIC "-//W3C//DTD SVG 20010904//EN"
 "http://www.w3.org/TR/2001/REC-SVG-20010904/DTD/svg10.dtd">
<svg version="1.0" xmlns="http://www.w3.org/2000/svg"
 width="642.000000pt" height="364.000000pt" viewBox="0 0 642.000000 364.000000"
 preserveAspectRatio="xMidYMid meet">
<metadata>
Created by potrace 1.16, written by Peter Selinger 2001-2019
</metadata>
<g transform="translate(0.000000,364.000000) scale(0.100000,-0.100000)"
fill="#000000" stroke="none">
<path fill="#000000" stroke="none" d="M0 1820 l0 -1820 3210 0 3210 0 0 1820
0 1820 -3210 0 -3210 0 0 -1820z"/>
<path fill="#ffffff" stroke="none" d="M6410 1820 l0 -1810 -3200 0 -3200 0 0
1810 0 1810 3200 0 3200 0 0 -1810z"/>
<path fill="#000000" stroke="none" d="M2350 3441 c-76 -24 -105 -40 -246
-139 -159 -111 -204 -137 -269 -151 -66 -15 -139 -61 -160 -100 -8 -17 -29
-37 -45 -46 -45 -23 -144 -148 -186 -234 -21 -43 -60 -100 -91 -133 -35 -37
-53 -65 -53 -82 0 -31 -20 -51 -67 -66 -21 -7 -46 -19 -55 -28 -14 -11 -21
-12 -32 -3 -7 6 -38 18 -67 27 -86 26 -157 66 -259 148 -52 41 -101 76 -107
76 -19 0 -16 -96 3 -154 15 -42 29 -60 104 -131 12 -11 32 -36 43 -55 15 -23
41 -44 80 -63 l58 -28 -7 -57 c-4 -42 0 -80 15 -143 25 -103 26 -126 6 -218
-15 -71 -77 -233 -112 -293 -18 -31 -22 -33 -76 -33 -40 0 -61 -5 -67 -15 -14
-21 -12 -220 1 -260 11 -31 10 -34 -32 -71 -24 -21 -64 -45 -88 -53 -47 -17
-67 -13 -206 48 -70 30 -88 32 -105 11 -18 -21 -8 -102 18 -157 43 -88 207
-225 337 -281 53 -23 79 -39 76 -48 -20 -66 -6 -135 39 -197 39 -55 66 -67
211 -98 146 -31 194 -29 284 15 69 34 95 66 95 118 0 23 8 32 39 47 54 26 121
97 179 191 27 44 89 137 138 206 92 128 94 132 156 339 7 25 17 44 23 43 5 -1
15 -22 22 -46 9 -33 36 -69 106 -143 59 -63 100 -117 114 -149 20 -47 37 -150
50 -305 6 -78 -8 -102 -91 -149 -91 -52 -155 -135 -144 -187 10 -51 132 -83
193 -50 25 14 40 16 66 8 22 -6 61 -6 104 0 39 6 95 8 125 5 66 -5 108 5 139
34 29 28 23 53 -35 140 -54 81 -56 113 -19 284 27 125 27 139 -11 324 -22 107
-15 134 43 156 45 18 48 18 82 -1 47 -25 76 -84 147 -304 31 -96 70 -204 87
-240 21 -46 30 -81 31 -118 0 -48 -3 -56 -31 -78 -44 -34 -53 -89 -21 -138 30
-45 47 -52 166 -70 97 -15 207 -12 218 5 3 5 19 9 35 9 34 0 95 24 121 47 11
10 18 30 18 55 0 44 -12 71 -46 108 -36 39 -104 181 -104 219 0 18 -6 59 -14
90 -21 83 -29 294 -13 365 l12 58 170 3 c187 3 272 16 474 70 141 37 271 89
347 136 37 24 49 28 61 18 26 -22 63 -107 78 -181 8 -40 31 -105 51 -145 32
-63 35 -75 25 -105 -6 -18 -27 -85 -47 -148 -20 -63 -46 -137 -57 -165 -25
-60 -96 -156 -137 -185 -59 -42 -77 -109 -36 -135 21 -14 36 -14 152 0 84 9
132 11 138 5 29 -29 182 7 200 47 7 15 26 21 94 31 68 9 91 16 110 36 l24 24
-27 58 c-23 48 -28 72 -28 134 0 64 8 97 52 224 55 160 59 189 36 224 -21 29
-11 59 96 290 21 45 53 135 70 200 18 64 40 132 49 151 l17 34 7 -62 c14 -120
102 -330 169 -404 19 -20 31 -40 28 -43 -3 -4 -1 -5 4 -2 6 4 21 -8 34 -25 38
-51 116 -107 193 -139 38 -16 72 -27 75 -24 3 3 -2 8 -11 12 -9 3 -16 12 -16
20 0 8 -9 14 -19 14 -11 0 -23 5 -27 11 -4 8 3 9 26 4 41 -9 156 -9 170 0 7 5
5 11 -6 20 -16 11 -15 13 14 20 54 11 65 39 52 136 -5 46 -10 87 -10 91 0 5
-22 8 -49 8 -28 0 -53 5 -56 10 -3 5 -20 10 -36 10 -27 0 -30 -3 -23 -22 4
-13 22 -36 40 -52 23 -19 34 -37 34 -55 -1 -26 -1 -26 -14 5 -16 36 -46 53
-46 26 0 -10 -16 -33 -35 -52 -44 -43 -88 -45 -160 -10 -110 55 -199 173 -241
325 -19 68 -29 340 -14 379 14 37 40 256 40 334 0 78 -23 213 -45 266 -17 41
-116 152 -322 362 -119 121 -160 155 -208 178 -75 35 -183 59 -255 56 -208 -8
-241 -3 -445 72 -109 40 -111 40 -215 35 -75 -4 -152 -17 -270 -46 -202 -50
-328 -65 -485 -58 -144 6 -251 27 -366 72 -99 39 -205 65 -257 64 -20 0 -62
-9 -92 -18z"/>
<path fill="#ffffff" stroke="none" d="M2625 3400 c249 -89 350 -106 560 -96
77 3 178 15 225 25 47 10 148 33 224 50 185 41 257 41 368 0 212 -79 264 -88
458 -79 81 3 186 -19 264 -56 48 -22 91 -60 222 -193 89 -91 184 -194 211
-227 26 -34 51 -60 55 -58 13 8 47 -82 62 -165 20 -105 20 -190 1 -333 -21
-148 -37 -202 -95 -317 -30 -59 -59 -136 -75 -199 -15 -61 -54 -165 -94 -255
-38 -84 -92 -224 -121 -312 -29 -88 -88 -238 -132 -333 -67 -145 -80 -181 -80
-225 0 -28 1 -56 2 -62 1 -5 2 -19 1 -30 -1 -15 -4 -16 -10 -7 -6 10 -12 7
-24 -11 -11 -17 -33 -29 -67 -37 -46 -11 -53 -10 -71 6 -20 18 -20 26 -3 84 4
14 3 22 -1 18 -4 -4 -16 -3 -25 2 -24 13 -32 -10 -18 -51 13 -39 1 -49 -59
-49 -39 0 -43 2 -43 25 0 29 -35 64 -72 72 l-27 5 49 56 c60 68 79 106 137
286 25 77 63 187 84 242 72 193 89 340 60 504 l-19 105 26 38 c114 161 163
241 227 372 41 83 77 164 81 180 11 50 -11 17 -50 -75 -44 -102 -147 -294
-180 -335 -24 -30 -24 -29 5 54 16 47 44 153 60 235 28 138 31 163 26 291 -7
211 -54 327 -167 410 -56 41 -75 47 -30 8 60 -50 130 -153 153 -227 19 -61 22
-92 21 -226 -1 -179 -25 -315 -94 -522 -46 -138 -78 -187 -200 -309 -92 -90
-188 -156 -307 -209 -92 -41 -300 -101 -437 -127 -93 -17 -426 -30 -426 -17 0
5 11 43 24 84 13 41 27 102 31 135 5 33 14 69 21 81 24 35 54 174 54 243 -1
93 -12 135 -86 308 -35 83 -64 160 -64 169 0 10 -3 14 -6 11 -10 -9 22 -114
66 -220 55 -132 70 -191 70 -270 0 -63 -36 -237 -50 -237 -3 0 -16 25 -29 55
-37 86 -53 85 -19 -2 35 -90 34 -142 -7 -272 -57 -183 -67 -368 -29 -539 8
-35 14 -77 14 -93 0 -35 78 -196 109 -223 21 -20 41 -73 41 -114 0 -18 -12
-28 -55 -48 -62 -29 -85 -26 -85 8 0 13 -5 30 -10 38 -7 11 -10 2 -10 -31 l0
-47 -47 -7 c-55 -8 -236 13 -260 30 -23 17 -9 62 33 102 39 36 32 45 -10 12
-29 -23 -59 -73 -49 -83 4 -3 1 -6 -5 -6 -6 0 -19 11 -27 24 -23 34 -11 94 21
108 29 13 49 76 39 124 -3 18 -21 66 -39 106 -18 40 -36 82 -39 93 -43 150
-99 309 -141 399 -66 138 -75 166 -96 291 -12 71 -18 91 -21 69 -7 -40 18
-187 42 -248 10 -28 17 -52 15 -54 -7 -6 -90 46 -114 71 -12 13 -38 61 -57
108 -50 120 -69 129 -26 13 27 -75 46 -109 79 -143 30 -32 39 -48 32 -55 -15
-15 -184 -13 -246 2 -27 7 -74 27 -104 44 l-53 30 34 26 c58 45 86 80 158 195
38 62 93 138 122 170 28 32 49 60 47 63 -12 11 -128 -129 -183 -221 -100 -167
-196 -247 -267 -223 -26 9 -26 10 -12 43 31 76 72 356 79 540 3 99 12 235 20
302 14 116 58 368 71 409 4 15 4 16 -4 4 -15 -23 -60 -214 -77 -330 -8 -58
-20 -199 -25 -315 -18 -379 -72 -652 -133 -674 -11 -4 -38 -3 -60 2 -33 8 -38
13 -33 31 25 92 28 144 12 222 -21 104 -8 183 40 256 19 27 41 73 50 101 23
73 30 233 13 275 -13 31 -14 23 -14 -95 0 -126 -7 -163 -42 -242 -11 -25 -17
-30 -24 -20 -10 17 -15 6 -32 -81 -13 -61 -14 -62 -20 -31 -4 18 -7 56 -7 83
0 30 -4 47 -10 43 -17 -11 -11 -106 17 -244 26 -131 26 -136 11 -205 -43 -191
-95 -349 -134 -404 -97 -134 -165 -232 -185 -269 -40 -71 -107 -151 -155 -184
-25 -17 -48 -28 -51 -25 -11 10 22 71 60 113 22 24 35 43 30 43 -5 0 -20 -11
-33 -25 -12 -13 -27 -23 -33 -22 -19 4 -39 -52 -46 -128 -8 -83 -21 -105 -86
-137 -61 -32 -145 -34 -276 -8 -135 27 -164 42 -201 102 -29 46 -47 131 -35
162 6 15 10 15 47 0 65 -26 117 -15 225 51 51 31 100 64 107 72 17 21 11 18
-109 -49 -55 -32 -104 -58 -107 -58 -3 0 11 17 32 38 35 35 146 176 167 212
21 36 -30 -18 -91 -95 -34 -45 -84 -101 -109 -124 -51 -47 -69 -49 -140 -15
-30 14 -33 18 -23 39 6 13 22 27 37 31 20 5 22 8 9 11 -22 5 -22 12 -2 62 12
30 13 48 6 74 -8 30 -7 37 6 42 14 5 14 7 2 15 -8 5 -17 7 -21 5 -4 -3 -9 10
-13 28 -4 18 -24 50 -48 74 -35 36 -39 44 -27 56 31 30 59 38 118 31 50 -5 67
-3 113 18 29 14 65 37 81 51 23 22 27 34 27 80 0 44 -5 61 -29 93 -49 66 -70
84 -101 84 -17 0 -30 2 -30 4 0 2 11 23 24 47 46 83 104 244 116 320 9 64 8
87 -6 150 -9 41 -19 118 -21 171 l-5 98 -49 44 c-27 24 -73 58 -102 74 -83 47
-115 88 -131 163 -14 69 -11 105 8 91 6 -5 43 -34 81 -64 91 -73 161 -113 238
-138 92 -30 93 -32 47 -69 -23 -18 -39 -36 -36 -39 3 -3 14 2 25 12 23 21 130
86 142 86 5 0 24 7 43 17 29 13 36 23 41 56 5 29 22 55 60 97 29 32 56 68 60
81 12 35 83 148 128 201 22 27 62 62 89 78 32 20 48 36 46 47 -4 22 64 68 122
83 71 19 143 50 170 75 56 51 293 198 347 216 81 27 172 20 288 -21z"/>
<path fill="#ffffff" stroke="none" d="M968 2331 c32 -28 27 -33 -15 -16 -38
15 -93 66 -93 86 0 10 61 -30 108 -70z"/>
<path fill="#ffffff" stroke="none" d="M5248 1928 c-1 -245 94 -430 263 -517
46 -24 78 -32 132 -36 51 -3 62 -2 37 4 -31 7 -32 9 -8 10 15 0 30 6 34 13 5
7 3 8 -6 3 -9 -6 -11 -4 -6 4 5 7 14 10 21 7 10 -3 15 6 18 32 l3 37 19 -42
c21 -50 35 -47 35 7 0 29 -6 43 -24 57 -27 22 -46 68 -25 60 8 -2 13 -9 12
-14 -1 -6 21 -8 51 -5 l54 4 7 -51 c7 -52 -7 -111 -26 -111 -5 0 -9 -8 -9 -17
1 -15 4 -14 20 6 19 22 20 22 20 3 0 -28 -22 -43 -61 -40 -19 1 -34 -3 -37
-10 -2 -7 -22 -12 -45 -13 -41 -1 -40 -2 18 -14 l60 -12 -70 -1 c-38 -1 -86 5
-105 12 -19 7 -44 17 -55 20 -22 8 -25 12 51 -52 l39 -33 -40 17 c-73 29 -133
75 -189 142 -30 37 -68 83 -85 102 -41 46 -67 104 -95 208 -13 50 -26 80 -29
72 -4 -8 -4 8 -2 35 4 33 2 43 -4 30 -7 -17 -9 -13 -14 20 -9 62 -7 77 15 128
12 26 22 47 24 47 1 0 2 -51 2 -112z"/>
<path fill="#ffffff" stroke="none" d="M4574 1659 c16 -113 13 -195 -9 -304
-16 -78 -54 -185 -65 -185 -14 0 -62 113 -75 179 -17 78 -34 122 -68 170 l-24
35 57 47 c31 26 81 74 111 107 30 33 55 59 56 58 2 -2 9 -50 17 -107z"/>
<path fill="#ffffff" stroke="none" d="M825 1410 c36 -58 39 -49 4 16 -31 59
-37 94 -16 94 6 0 41 -5 77 -10 54 -9 70 -16 93 -43 49 -56 58 -81 51 -140 -6
-50 -9 -55 -52 -82 -36 -23 -61 -30 -112 -33 -93 -6 -101 8 -103 167 -1 124
11 175 25 108 4 -20 19 -55 33 -77z"/>
<path fill="#ffffff" stroke="none" d="M2135 1385 c29 -1 58 -12 99 -37 63
-39 164 -68 240 -68 l44 0 -1 -52 c-1 -29 9 -108 21 -175 l22 -122 -25 -116
c-37 -173 -35 -207 20 -290 58 -90 62 -102 36 -129 -19 -18 -31 -21 -99 -18
-42 1 -108 -3 -145 -9 -59 -10 -75 -9 -114 6 l-45 17 6 42 c4 22 14 47 23 53
19 14 54 17 69 5 5 -4 1 0 -8 10 -20 18 -53 14 -80 -10 -16 -14 -20 -13 -36 1
-10 10 -29 17 -43 16 -17 0 -19 -2 -9 -7 8 -4 27 -15 42 -26 25 -16 27 -22 22
-60 -4 -22 -13 -47 -22 -53 -42 -34 -152 3 -152 50 0 41 55 103 138 156 107
69 112 83 91 251 -28 228 -37 249 -161 378 -72 74 -118 139 -118 164 0 2 17 2
38 0 27 -3 42 2 57 17 12 11 26 17 35 13 8 -3 33 -6 55 -7z"/>
<path fill="#ffffff" stroke="none" d="M4950 1204 c0 -19 -23 -102 -51 -184
-44 -131 -50 -160 -50 -229 0 -66 5 -89 27 -132 l26 -53 -22 -18 c-15 -12 -27
-15 -33 -9 -6 6 -15 5 -24 -5 -9 -8 -34 -14 -63 -14 -54 0 -60 7 -60 76 0 44
7 61 115 289 18 39 52 127 75 198 41 124 60 151 60 81z"/>
<path fill="#ffffff" stroke="none" d="M477 1146 c66 -33 118 -41 172 -26 43
11 44 11 82 -26 30 -29 42 -52 58 -113 19 -70 19 -79 5 -120 -24 -69 -43 -101
-62 -101 -79 0 -317 184 -371 287 -14 27 -31 113 -22 113 3 0 17 -23 31 -51
28 -58 104 -146 148 -171 19 -12 6 6 -38 50 -61 61 -106 129 -124 189 -7 22
-7 22 32 9 21 -8 61 -25 89 -40z"/>
<path fill="#ffffff" stroke="none" d="M4321 559 c9 -5 19 -24 21 -43 l4 -34
-54 -6 c-85 -10 -109 13 -76 75 14 28 18 30 52 24 20 -4 44 -11 53 -16z"/>
<path fill="#ffffff" stroke="none" d="M4481 553 c-8 -15 -10 -15 -11 -2 0 17
10 32 18 25 2 -3 -1 -13 -7 -23z"/>
<path fill="#000000" stroke="none" d="M4490 2869 c116 -114 157 -245 146
-474 -3 -77 -8 -153 -11 -170 -3 -20 1 -14 11 15 25 70 31 308 10 390 -33 131
-92 221 -178 273 -26 16 -22 9 22 -34z"/>
<path fill="#000000" stroke="none" d="M4339 2852 c108 -116 222 -403 223
-564 0 -43 4 -75 9 -72 16 10 9 149 -11 228 -41 163 -137 355 -206 416 -49 42
-58 37 -15 -8z"/>
<path fill="#000000" stroke="none" d="M3950 2773 c71 -26 238 -298 306 -498
4 -13 8 -15 11 -7 8 21 -36 152 -74 222 -48 89 -157 244 -189 269 -15 12 -36
21 -48 20 -14 0 -16 -2 -6 -6z"/>
<path fill="#000000" stroke="none" d="M4331 2678 c53 -58 128 -177 144 -230
8 -29 15 -80 15 -115 0 -40 4 -63 11 -63 8 0 10 26 7 89 -4 66 -12 103 -32
146 -38 85 -138 205 -170 205 -3 0 9 -15 25 -32z"/>
<path fill="#000000" stroke="none" d="M3840 2686 c0 -3 19 -36 41 -73 65
-105 125 -231 149 -310 28 -94 45 -85 19 10 -23 81 -83 209 -138 295 -35 52
-71 93 -71 78z"/>
<path fill="#000000" stroke="none" d="M1445 2641 c-42 -18 -85 -93 -85 -149
0 -27 -3 -29 -42 -29 -24 -1 -61 -10 -83 -22 -25 -14 -32 -21 -20 -21 11 1 31
7 45 15 14 8 41 14 60 15 31 0 38 -5 55 -37 11 -20 19 -41 17 -46 -1 -5 2 -6
7 -3 12 8 21 -18 21 -62 1 -50 39 -122 80 -149 18 -13 37 -23 43 -23 5 0 -5
10 -24 23 -42 28 -75 76 -83 123 -7 36 -1 57 12 39 4 -6 20 -21 37 -35 l29
-25 -27 35 c-83 106 -107 149 -107 190 0 48 20 100 49 129 30 30 49 26 21 -4
-19 -20 -25 -40 -28 -89 -4 -59 -1 -70 38 -147 23 -46 46 -85 51 -87 5 -2 9
-10 9 -19 0 -10 6 -13 20 -9 11 3 29 8 39 11 11 3 26 17 35 30 21 32 36 131
25 169 -17 59 -7 71 12 16 36 -97 4 -185 -83 -232 -18 -9 -26 -17 -18 -18 24
0 76 36 104 73 37 49 43 108 17 182 -12 32 -21 70 -21 83 0 36 -16 59 -51 71
-37 13 -125 14 -154 2z"/>
<path fill="#ffffff" stroke="none" d="M1625 2601 c3 -5 1 -12 -5 -16 -5 -3
-10 1 -10 9 0 18 6 21 15 7z"/>
<path fill="#000000" stroke="none" d="M4810 2627 c0 -2 9 -39 20 -82 11 -43
20 -97 21 -119 l1 -41 8 35 c9 38 -3 125 -25 178 -12 26 -25 42 -25 29z"/>
<path fill="#000000" stroke="none" d="M3810 2604 c0 -3 16 -57 35 -119 69
-221 91 -383 65 -474 -13 -47 -4 -52 15 -8 20 48 20 184 0 279 -22 103 -94
328 -105 328 -6 0 -10 -3 -10 -6z"/>
<path fill="#000000" stroke="none" d="M1847 2476 c63 -57 108 -142 128 -246
l15 -75 -5 73 c-9 122 -75 236 -167 282 -12 7 0 -9 29 -34z"/>
<path fill="#000000" stroke="none" d="M1318 2433 c6 -2 18 -2 25 0 6 3 1 5
-13 5 -14 0 -19 -2 -12 -5z"/>
<path fill="#000000" stroke="none" d="M1733 2378 c19 -24 41 -56 49 -73 18
-36 52 -142 66 -205 10 -45 10 -45 11 -10 3 81 -52 229 -109 293 -45 51 -59
47 -17 -5z"/>
<path fill="#000000" stroke="none" d="M3694 2355 c4 -27 11 -75 16 -105 5
-30 9 -77 10 -105 1 -44 2 -47 11 -25 12 29 4 146 -16 221 -18 68 -29 76 -21
14z"/>
<path fill="#000000" stroke="none" d="M1700 2356 c0 -2 11 -26 24 -53 26 -50
49 -131 72 -248 l14 -70 -5 70 c-5 79 -44 220 -76 271 -19 31 -29 41 -29 30z"/>
<path fill="#000000" stroke="none" d="M1381 2299 c-1 -72 36 -150 90 -186 21
-14 44 -23 51 -20 9 4 7 6 -4 6 -26 1 -77 49 -99 93 -11 22 -24 68 -28 102
l-8 61 -2 -56z"/>
<path fill="#000000" stroke="none" d="M1341 2214 c0 -11 3 -14 6 -6 3 7 2 16
-1 19 -3 4 -6 -2 -5 -13z"/>
<path fill="#000000" stroke="none" d="M1350 2180 c0 -30 62 -106 115 -142 17
-12 7 0 -21 25 -29 26 -61 66 -73 89 -11 24 -21 36 -21 28z"/>
<path fill="#000000" stroke="none" d="M1665 2070 c-16 -7 -17 -9 -3 -9 9 -1
20 4 23 9 7 11 7 11 -20 0z"/>
<path fill="#000000" stroke="none" d="M1608 2053 c6 -2 18 -2 25 0 6 3 1 5
-13 5 -14 0 -19 -2 -12 -5z"/>
<path fill="#000000" stroke="none" d="M5022 1763 c-5 -10 -12 -45 -15 -78 -5
-58 -5 -59 8 -25 15 43 29 120 21 120 -3 0 -9 -8 -14 -17z"/>
<path fill="#000000" stroke="none" d="M2995 1733 c-49 -6 -122 -12 -160 -12
-171 -2 -311 -33 -340 -74 -25 -35 -17 -40 14 -9 38 37 101 50 309 62 86 6
194 13 239 16 l81 7 52 -57 c82 -87 93 -67 13 23 -47 53 -83 61 -208 44z"/>
<path fill="#000000" stroke="none" d="M3496 1613 c-14 -56 -28 -84 -59 -120
-26 -29 -34 -42 -20 -35 53 29 108 137 101 199 -2 21 -8 9 -22 -44z"/>
<path fill="#000000" stroke="none" d="M1353 1429 c-33 -21 -56 -61 -68 -118
-10 -49 10 -30 23 22 6 24 24 55 41 71 25 24 34 27 63 21 18 -4 42 -15 53 -24
l20 -16 -20 24 c-19 23 -19 24 -1 17 16 -5 17 -4 6 9 -18 21 -79 18 -117 -6z"/>
<path fill="#000000" stroke="none" d="M1090 1411 c0 -11 5 -23 10 -26 6 -4
10 5 10 19 0 14 -4 26 -10 26 -5 0 -10 -9 -10 -19z"/>
<path fill="#000000" stroke="none" d="M1414 1340 c-21 -8 -74 -69 -74 -84 0
-4 9 -4 20 -1 14 4 20 2 20 -9 0 -19 38 -46 67 -46 22 0 88 49 67 50 -6 0 -17
-7 -24 -15 -22 -27 -100 -14 -100 16 0 4 15 10 34 13 41 8 59 27 54 58 -3 25
-29 33 -64 18z"/>
<path fill="#000000" stroke="none" d="M1058 1205 c-30 -28 -46 -35 -80 -36
-24 -1 -56 -5 -73 -9 -28 -7 -28 -8 -5 -9 49 -2 143 19 162 36 18 16 43 53 36
53 -2 0 -20 -16 -40 -35z"/>
<path fill="#000000" stroke="none" d="M1323 1216 c0 -8 12 -17 26 -21 14 -3
35 -8 46 -11 11 -3 2 6 -20 20 -47 30 -52 31 -52 12z"/>
<path fill="#000000" stroke="none" d="M784 1176 c11 -9 27 -16 35 -15 14 0
14 1 1 6 -8 3 -24 10 -35 15 -20 9 -20 9 -1 -6z"/>
<path fill="#000000" stroke="none" d="M1104 1099 c-17 -6 -17 -8 -2 -14 9 -3
28 -5 42 -3 l26 3 -23 11 c-13 6 -32 7 -43 3z"/>
<path fill="#000000" stroke="none" d="M924 783 c-21 -27 -28 -39 -15 -28 24
21 66 75 58 75 -3 0 -22 -21 -43 -47z"/>
<path fill="#000000" stroke="none" d="M1278 605 c-9 -19 -19 -25 -44 -25 -26
0 -39 -9 -71 -47 -38 -47 -46 -83 -17 -83 8 0 14 7 14 15 0 19 19 19 44 0 28
-21 33 -19 40 16 5 27 8 30 21 19 13 -10 15 -9 15 9 0 11 -5 21 -11 21 -5 0
-7 5 -4 10 10 15 35 12 35 -5 0 -8 5 -15 11 -15 7 0 9 10 5 24 -3 14 -1 28 4
31 6 4 8 11 4 16 -3 5 -10 6 -16 3 -6 -4 -6 2 1 15 10 17 9 21 -4 21 -8 0 -21
-11 -27 -25z"/>
<path fill="#000000" stroke="none" d="M5211 1894 c0 -11 3 -14 6 -6 3 7 2 16
-1 19 -3 4 -6 -2 -5 -13z"/>
<path fill="#000000" stroke="none" d="M2325 435 c31 -27 75 -49 82 -42 5 5
-90 67 -103 67 -5 0 5 -11 21 -25z"/>
<path fill="#000000" stroke="none" d="M674 865 c11 -8 25 -15 30 -15 6 0 2 7
-8 15 -11 8 -25 15 -30 15 -6 0 -2 -7 8 -15z"/>
</g>
</svg>
