<?xml version="1.0" standalone="no"?>
<!DOCTYPE svg PUBLIC "-//W3C//DTD SVG 20010904//EN"
 "http://www.w3.org/TR/2001/REC-SVG-20010904/DTD/svg10.dtd">
<svg version="1.0" xmlns="http://www.w3.org/2000/svg"
 width="642.000000pt" height="364.000000pt" viewBox="0 0 642.000000 364.000000"
 preserveAspectRatio="xMidYMid meet">
<metadata>
Created by potrace 1.16, written by Peter Selinger 2001-2019
</metadata>
<g transform="translate(0.000000,364.000000) scale(0.100000,-0.100000)"
fill="#000000" stroke="none">
<path fill="#000000" stroke="none" d="M0 1820 l0 -1820 3210 0 3210 0 0 1820
0 1820 -3210 0 -3210 0 0 -1820z"/>
<path fill="#ffffff" stroke="none" d="M6410 1820 l0 -1810 -3200 0 -3200 0 0
1810 0 1810 3200 0 3200 0 0 -1810z"/>
<path fill="#000000" stroke="none" d="M2405 3455 c-5 -2 -36 -11 -67 -19 -52
-15 -187 -98 -378 -234 -25 -17 -71 -38 -103 -46 -103 -27 -187 -81 -187 -120
0 -6 -16 -20 -36 -31 -58 -31 -184 -197 -209 -275 -4 -13 -30 -47 -57 -76 -28
-30 -57 -73 -66 -99 -15 -41 -23 -49 -62 -64 -53 -20 -149 -80 -170 -106 -13
-17 -13 -18 0 -10 19 11 55 35 97 63 18 12 57 31 86 42 51 19 55 23 61 61 5
30 19 55 55 92 27 29 57 70 68 92 61 128 149 240 216 277 27 15 42 30 42 43 0
28 66 68 164 99 46 14 100 39 120 55 50 39 232 160 288 192 60 35 149 53 217
46 30 -3 101 -22 158 -42 261 -92 392 -110 639 -84 57 5 147 21 199 34 333 82
406 84 585 15 141 -55 237 -72 332 -60 127 16 289 -22 388 -92 22 -15 109
-101 193 -191 84 -89 175 -186 203 -215 58 -61 71 -88 93 -194 20 -96 20 -192
1 -337 -20 -151 -27 -177 -90 -311 -30 -63 -68 -166 -85 -228 -16 -62 -41
-134 -54 -160 -47 -93 -108 -247 -165 -415 -51 -150 -83 -226 -183 -435 -17
-36 -20 -56 -15 -111 3 -37 1 -74 -4 -82 -7 -11 -9 -11 -9 0 0 7 -12 0 -28
-16 -36 -39 -119 -55 -139 -27 -16 22 -17 49 -2 76 6 11 8 22 5 25 -3 3 -13
-9 -21 -28 l-16 -34 5 33 c3 17 1 32 -4 32 -17 0 -20 -18 -9 -50 14 -40 3 -50
-57 -50 -39 0 -42 2 -48 31 -7 36 -31 58 -62 59 -37 0 -34 12 12 63 59 66 81
111 139 287 26 80 65 192 86 250 52 141 69 225 69 349 0 101 -17 231 -30 231
-4 0 0 -48 8 -107 17 -136 4 -266 -40 -402 -29 -86 -33 -92 -46 -75 -24 33
-53 106 -69 179 -16 70 -40 128 -73 175 l-18 25 56 45 c163 130 378 443 495
718 53 125 24 84 -57 -83 -71 -144 -193 -352 -171 -290 124 343 149 669 65
857 -21 49 -108 151 -144 170 -11 6 3 -15 32 -46 71 -79 99 -129 123 -226 41
-160 11 -438 -76 -705 -40 -124 -57 -154 -155 -264 -179 -203 -410 -316 -793
-387 -98 -19 -427 -31 -427 -17 0 5 9 35 19 65 11 31 25 91 32 134 7 44 18 88
26 100 21 33 53 173 53 235 0 88 -16 146 -86 312 -78 183 -75 145 3 -50 51
-126 56 -147 61 -233 4 -78 0 -110 -18 -178 -20 -74 -40 -114 -40 -80 0 19
-49 122 -55 116 -3 -3 6 -36 21 -74 31 -82 28 -147 -11 -272 -56 -181 -66
-353 -29 -520 8 -35 14 -78 14 -96 0 -41 72 -191 112 -233 25 -26 30 -40 32
-84 1 -48 -1 -54 -29 -70 -16 -10 -47 -21 -67 -24 -37 -7 -38 -6 -38 21 0 16
-5 36 -11 44 -8 12 -9 8 -8 -15 4 -59 1 -62 -47 -70 -60 -9 -250 14 -265 31
-17 21 -1 64 37 101 20 18 31 33 25 33 -22 0 -81 -68 -81 -94 0 -33 -10 -33
-34 0 -27 37 -16 91 26 125 29 24 32 32 32 80 0 38 -8 72 -28 114 -15 33 -56
146 -91 252 -35 106 -83 232 -107 280 -49 98 -75 179 -93 298 -13 80 -13 80
-14 25 -1 -59 17 -157 43 -230 8 -24 13 -46 11 -48 -8 -8 -93 48 -117 77 -14
16 -40 65 -57 109 -18 45 -39 86 -47 93 -13 10 7 -44 59 -165 12 -26 38 -63
59 -81 l38 -32 -26 -11 c-34 -16 -134 -15 -215 2 -63 14 -161 56 -173 74 -2 4
15 24 39 43 27 21 72 77 117 147 40 63 96 141 123 174 77 92 84 110 18 42 -33
-34 -92 -113 -131 -176 -105 -169 -197 -245 -265 -219 -26 10 -26 10 -11 53
35 99 72 360 79 548 3 102 12 237 21 300 14 114 59 364 71 397 3 10 3 15 -1
12 -12 -11 -53 -178 -70 -284 -25 -157 -34 -257 -41 -440 -6 -174 -11 -222
-47 -405 -22 -118 -49 -184 -78 -200 -19 -10 -100 3 -100 16 0 3 7 37 16 76
15 65 15 77 0 159 -19 104 -9 202 26 241 72 83 114 316 73 403 l-15 30 7 -35
c11 -58 5 -170 -12 -245 -17 -75 -64 -167 -65 -130 -2 27 -29 -72 -31 -110 -1
-30 -1 -30 -9 -5 -4 14 -9 54 -9 90 -1 46 -4 61 -11 50 -16 -25 -11 -97 15
-230 14 -69 25 -137 25 -151 0 -51 -91 -374 -121 -431 -7 -13 -43 -63 -80
-113 -37 -49 -91 -129 -120 -177 -67 -109 -120 -172 -170 -203 -49 -31 -53
-31 -44 2 7 29 42 80 78 113 11 11 16 20 11 20 -6 0 -21 -11 -34 -25 -13 -14
-29 -25 -36 -25 -17 0 -44 -91 -44 -145 0 -69 -44 -110 -149 -140 -25 -8 -59
-13 -76 -11 -58 6 -250 49 -278 63 -56 28 -116 166 -96 221 10 26 10 26 56 7
41 -17 81 -19 117 -6 37 15 208 122 202 128 -2 3 -48 -20 -102 -51 -53 -31
-101 -56 -107 -56 -5 0 9 18 31 40 50 50 165 200 158 207 -2 3 -26 -24 -53
-59 -72 -95 -176 -198 -200 -198 -27 0 -113 37 -113 48 0 13 39 52 53 52 8 0
8 3 -2 9 -11 7 -11 16 2 55 11 33 13 55 7 77 -8 26 -6 35 8 46 16 13 16 13 -2
11 -14 -2 -22 7 -33 39 -8 23 -31 57 -53 76 l-38 35 27 26 c24 23 31 25 100
21 63 -4 83 -1 125 19 82 38 106 66 106 126 0 36 -7 61 -24 89 -32 50 -82 91
-112 91 -13 0 -24 2 -24 4 0 3 16 36 35 74 97 194 126 346 91 483 -9 36 -16
94 -17 130 l-1 64 -10 -44 c-6 -29 -6 -62 1 -100 37 -188 36 -178 18 -264 -16
-78 -55 -184 -108 -290 l-24 -48 -54 3 c-50 3 -56 1 -68 -22 -16 -31 -17 -190
-2 -244 11 -39 10 -41 -27 -74 -41 -37 -107 -71 -137 -72 -10 0 -51 15 -90 33
-40 18 -92 39 -116 47 -40 13 -44 13 -57 -5 -33 -44 -4 -148 62 -223 45 -51
217 -192 234 -192 4 0 38 -13 73 -29 l66 -30 -11 -29 c-24 -64 30 -194 97
-234 46 -26 271 -71 327 -65 109 13 208 84 208 150 0 27 6 35 33 46 51 23 137
118 200 221 32 52 91 140 132 195 63 85 79 116 109 205 19 58 37 120 41 138 5
26 11 32 23 27 10 -4 34 -9 55 -12 30 -5 43 -1 61 16 21 19 27 21 46 11 12 -7
36 -10 53 -7 23 3 45 -4 84 -30 58 -37 181 -73 250 -73 l43 0 -2 -48 c-1 -26
8 -105 21 -175 l22 -129 -27 -125 c-34 -163 -31 -205 25 -284 82 -116 65 -143
-89 -145 -52 -1 -120 -5 -150 -9 -72 -9 -130 13 -130 49 0 66 48 105 94 76 19
-12 20 -12 7 3 -17 22 -55 22 -93 0 -28 -17 -30 -17 -42 -1 -7 10 -24 18 -37
18 -23 0 -22 -1 6 -16 45 -23 50 -31 50 -79 1 -39 -3 -46 -27 -56 -36 -15
-104 -6 -129 17 -46 41 1 122 111 189 32 20 71 50 86 68 29 35 29 45 4 256
-18 148 -38 190 -146 302 -51 54 -102 115 -114 136 -19 35 -20 36 -15 9 9 -41
36 -77 126 -171 95 -98 113 -141 134 -307 23 -186 22 -200 -20 -237 -20 -17
-53 -40 -73 -50 -47 -24 -119 -101 -128 -136 -9 -38 11 -74 51 -91 41 -17 116
-19 132 -3 8 8 77 13 197 15 148 2 192 6 221 19 52 26 51 64 -6 144 -60 84
-64 109 -34 252 31 148 31 193 4 332 -27 138 -22 167 32 191 36 16 46 17 80 6
34 -12 43 -22 71 -79 17 -36 59 -149 93 -251 34 -102 75 -214 90 -249 33 -79
30 -135 -9 -164 -14 -10 -30 -36 -36 -58 -9 -34 -8 -45 7 -72 10 -17 32 -39
49 -49 61 -35 302 -55 339 -28 6 4 31 11 57 14 25 4 61 17 80 29 28 19 33 29
36 68 3 40 -1 51 -34 90 -49 59 -114 194 -114 238 0 20 -6 57 -14 82 -21 68
-30 312 -14 378 l13 54 160 2 c178 3 279 17 484 71 138 37 287 96 354 140 22
14 45 23 52 20 20 -7 62 -105 80 -187 9 -41 32 -105 52 -144 l34 -69 -16 -61
c-35 -128 -108 -322 -140 -371 -19 -29 -56 -71 -84 -94 -72 -61 -90 -120 -43
-143 23 -12 45 -12 151 -1 84 9 128 11 135 4 32 -32 184 11 205 57 6 13 16 21
21 18 21 -13 150 16 178 40 l26 22 -30 58 c-25 50 -29 69 -28 134 1 64 9 100
52 226 56 162 60 189 36 223 -20 29 -12 54 98 295 22 48 52 136 68 195 16 59
36 125 46 147 l17 40 13 -78 c19 -110 115 -347 140 -347 3 0 -3 15 -15 33 -23
37 -71 166 -71 191 0 9 -5 16 -10 16 -6 0 -8 12 -4 28 4 22 3 24 -6 12 -9 -12
-10 -5 -6 30 3 26 2 37 -3 25 -7 -16 -9 -14 -14 14 -12 59 -7 105 18 151 l24
45 1 -116 c0 -202 54 -346 167 -449 68 -62 143 -98 221 -103 31 -3 44 -2 27 0
l-30 5 25 15 c16 9 18 12 5 7 -45 -15 -63 -15 -116 5 -87 33 -170 114 -219
214 -21 45 -46 117 -55 159 -17 87 -20 294 -5 349 15 53 40 264 40 334 0 73
-31 229 -55 276 -9 19 -39 57 -65 84 -27 28 -110 115 -186 195 -174 184 -209
214 -287 250 -81 36 -226 61 -277 47 -79 -22 -220 5 -430 82 -118 42 -190 42
-391 -5 -85 -19 -185 -42 -224 -51 -50 -12 -123 -17 -255 -17 -208 -1 -277 9
-415 60 -164 60 -276 84 -320 69z"/>
<path fill="#ffffff" stroke="none" d="M897 1509 c60 -11 67 -15 104 -61 34
-44 39 -56 39 -104 0 -60 -15 -80 -85 -116 -54 -28 -167 -28 -171 0 0 4 -5 16
-9 27 -11 24 -13 223 -3 248 9 20 36 21 125 6z"/>
<path fill="#ffffff" stroke="none" d="M4950 1202 c0 -21 -22 -103 -50 -184
-43 -126 -50 -158 -50 -224 0 -62 5 -88 26 -132 l26 -56 -22 -18 c-15 -12 -27
-15 -33 -9 -6 6 -15 5 -24 -5 -9 -8 -35 -14 -67 -14 -58 0 -55 -4 -56 78 -1
34 17 82 78 215 44 95 92 210 107 257 38 121 46 140 56 134 5 -3 9 -22 9 -42z"/>
<path fill="#ffffff" stroke="none" d="M452 1158 c96 -43 144 -51 218 -35 33
7 37 5 68 -33 21 -25 41 -67 54 -112 l20 -70 -22 -62 c-35 -97 -40 -100 -113
-68 -69 29 -202 127 -261 192 -42 46 -71 104 -81 163 -9 47 7 49 23 2 18 -49
92 -145 138 -179 37 -28 37 -27 -10 20 -61 61 -103 122 -121 175 -17 46 -17
49 -10 49 3 0 47 -19 97 -42z"/>
<path fill="#ffffff" stroke="none" d="M4321 559 c9 -5 19 -24 21 -43 l4 -35
-58 -6 c-65 -8 -88 3 -88 39 0 12 7 32 16 45 14 19 22 22 53 16 19 -4 43 -11
52 -16z"/>
<path fill="#000000" stroke="none" d="M791 1497 c-1 -18 45 -117 54 -117 3 0
-2 14 -11 32 -9 17 -22 47 -29 67 -8 20 -14 28 -14 18z"/>
<path fill="#000000" stroke="none" d="M664 871 c3 -5 16 -11 28 -14 22 -6 22
-5 4 8 -22 17 -40 20 -32 6z"/>
<path fill="#000000" stroke="none" d="M4498 2863 c56 -54 103 -140 126 -230
17 -66 21 -265 7 -363 -5 -30 -7 -57 -5 -58 10 -12 26 92 31 203 9 215 -36
359 -140 450 -68 59 -82 58 -19 -2z"/>
<path fill="#000000" stroke="none" d="M4337 2858 c109 -119 227 -419 226
-576 0 -42 4 -67 8 -60 5 7 9 42 9 78 0 109 -71 328 -147 454 -42 68 -90 126
-106 126 -6 0 -1 -10 10 -22z"/>
<path fill="#000000" stroke="none" d="M3956 2770 c69 -28 267 -347 290 -467
3 -18 11 -33 16 -33 25 0 -34 161 -100 270 -100 165 -166 241 -209 239 -15 0
-15 -1 3 -9z"/>
<path fill="#000000" stroke="none" d="M700 2662 c0 -88 24 -143 87 -204 32
-30 67 -70 78 -88 12 -20 41 -44 75 -61 63 -33 70 -34 70 -15 0 19 -68 78
-149 131 -106 67 -123 90 -142 189 -16 84 -3 85 88 12 91 -73 185 -128 253
-147 25 -7 49 -16 54 -21 13 -11 29 -10 21 1 -3 5 -29 17 -58 27 -90 29 -162
71 -259 149 -51 41 -99 75 -105 75 -9 0 -13 -16 -13 -48z"/>
<path fill="#ffffff" stroke="none" d="M957 2341 c23 -19 41 -36 39 -38 -2 -3
-21 3 -42 12 -45 19 -94 62 -94 83 0 17 29 0 97 -57z"/>
<path fill="#000000" stroke="none" d="M4326 2687 c10 -14 38 -49 61 -79 56
-73 81 -124 94 -194 26 -144 26 -146 28 -79 1 61 -16 141 -39 185 -23 45 -114
160 -139 177 l-25 16 20 -26z"/>
<path fill="#000000" stroke="none" d="M3840 2686 c0 -3 23 -42 51 -88 64
-105 104 -189 139 -292 18 -50 29 -71 29 -55 1 37 -39 150 -89 248 -49 98
-130 214 -130 187z"/>
<path fill="#000000" stroke="none" d="M1452 2643 c-25 -5 -62 -51 -82 -101
-17 -44 -8 -113 21 -153 13 -18 26 -56 30 -86 8 -61 49 -137 82 -154 17 -9 15
-4 -10 22 -37 39 -63 96 -63 136 l0 27 37 -35 37 -34 -35 45 c-76 99 -89 124
-89 174 0 71 43 146 84 146 19 -1 19 -2 3 -11 -28 -16 -47 -64 -47 -117 0 -38
9 -68 40 -128 56 -111 68 -123 107 -113 59 17 92 138 64 237 -16 53 5 36 22
-19 36 -109 11 -172 -89 -236 -11 -6 -14 -12 -8 -12 19 -1 78 43 100 76 35 52
37 102 9 190 -14 43 -25 88 -25 99 0 39 -99 64 -188 47z"/>
<path fill="#ffffff" stroke="none" d="M1614 2607 c11 -8 17 -19 15 -25 -2 -6
-14 0 -26 13 -23 27 -18 33 11 12z"/>
<path fill="#000000" stroke="none" d="M4810 2623 c0 -6 7 -30 15 -54 9 -24
20 -75 24 -114 l8 -70 2 67 c0 39 -6 88 -15 115 -16 48 -34 78 -34 56z"/>
<path fill="#000000" stroke="none" d="M3814 2593 c3 -10 19 -63 36 -118 17
-55 40 -138 50 -185 21 -93 26 -243 10 -286 -13 -34 -6 -43 11 -12 23 42 23
193 0 298 -26 116 -92 320 -104 320 -4 0 -6 -8 -3 -17z"/>
<path fill="#000000" stroke="none" d="M1843 2480 c76 -67 110 -133 136 -265
l10 -50 -4 62 c-9 117 -57 207 -143 264 l-47 31 48 -42z"/>
<path fill="#000000" stroke="none" d="M1240 2440 c-19 -11 -31 -19 -27 -20 5
0 18 5 30 12 12 7 42 15 67 19 l45 6 -40 1 c-22 1 -56 -7 -75 -18z"/>
<path fill="#000000" stroke="none" d="M1727 2386 c50 -56 89 -147 123 -281 8
-36 9 -34 4 20 -10 110 -81 256 -137 287 -17 9 -15 4 10 -26z"/>
<path fill="#000000" stroke="none" d="M3695 2355 c3 -22 10 -67 15 -100 5
-33 10 -82 11 -110 1 -49 1 -50 11 -16 12 42 -4 185 -27 232 l-15 34 5 -40z"/>
<path fill="#000000" stroke="none" d="M1702 2355 c2 -5 14 -32 27 -60 12 -27
33 -95 46 -150 34 -143 35 -146 30 -84 -7 79 -51 224 -81 267 -14 20 -24 33
-22 27z"/>
<path fill="#000000" stroke="none" d="M1381 2309 c-2 -86 46 -176 112 -210
12 -6 5 3 -16 21 -49 42 -79 101 -87 175 -7 57 -7 58 -9 14z"/>
<path fill="#000000" stroke="none" d="M1360 2151 c0 -6 4 -13 10 -16 6 -3 7
1 4 9 -7 18 -14 21 -14 7z"/>
<path fill="#000000" stroke="none" d="M1410 2085 c19 -19 36 -35 39 -35 3 0
-10 16 -29 35 -19 19 -36 35 -39 35 -3 0 10 -16 29 -35z"/>
<path fill="#000000" stroke="none" d="M5027 1773 c-7 -12 -20 -113 -14 -113
8 0 30 110 24 116 -3 3 -7 2 -10 -3z"/>
<path fill="#000000" stroke="none" d="M2925 1728 c-49 -4 -142 -12 -205 -18
-63 -5 -132 -15 -153 -22 -38 -12 -87 -49 -87 -67 0 -5 14 4 30 19 40 37 96
48 295 60 88 6 200 13 248 16 l88 7 55 -59 c30 -33 54 -52 54 -44 0 9 -22 39
-48 68 l-48 52 -70 -2 c-38 0 -109 -5 -159 -10z"/>
<path fill="#000000" stroke="none" d="M3497 1612 c-14 -54 -28 -82 -60 -118
-27 -31 -34 -43 -20 -35 50 26 109 146 101 204 -2 11 -11 -11 -21 -51z"/>
<path fill="#000000" stroke="none" d="M5340 1486 c0 -2 8 -10 18 -17 15 -13
16 -12 3 4 -13 16 -21 21 -21 13z"/>
<path fill="#000000" stroke="none" d="M5717 1453 c-3 -15 -1 -36 3 -47 7 -16
9 -9 9 27 1 52 -4 61 -12 20z"/>
<path fill="#000000" stroke="none" d="M5871 1444 c0 -11 3 -14 6 -6 3 7 2 16
-1 19 -3 4 -6 -2 -5 -13z"/>
<path fill="#000000" stroke="none" d="M1340 1412 c-23 -23 -43 -55 -50 -81
-16 -60 -5 -63 14 -3 22 67 62 103 115 105 53 2 53 17 0 17 -34 0 -48 -6 -79
-38z"/>
<path fill="#000000" stroke="none" d="M1090 1413 c0 -12 5 -25 10 -28 13 -8
13 15 0 35 -8 12 -10 11 -10 -7z"/>
<path fill="#000000" stroke="none" d="M5842 1389 c-13 -16 -17 -27 -10 -24
13 5 42 45 36 50 -2 1 -13 -11 -26 -26z"/>
<path fill="#000000" stroke="none" d="M5877 1381 c-7 -30 -49 -51 -119 -61
l-63 -9 61 3 c69 4 120 26 129 57 4 11 5 23 2 25 -2 3 -7 -4 -10 -15z"/>
<path fill="#000000" stroke="none" d="M5495 1326 c44 -41 182 -112 194 -100
9 8 -33 32 -48 26 -9 -3 -12 -1 -7 6 3 6 1 14 -5 18 -8 4 -9 3 -5 -4 20 -33
-57 3 -129 60 l-50 40 50 -46z"/>
<path fill="#000000" stroke="none" d="M1405 1331 c-28 -16 -65 -61 -65 -76 0
-4 9 -4 19 0 14 4 21 0 25 -13 6 -19 45 -42 71 -42 8 0 27 12 42 26 l28 25
-41 -22 c-40 -22 -42 -22 -68 -6 -29 19 -34 37 -11 37 9 0 29 7 45 15 44 23
38 75 -8 75 -4 0 -21 -8 -37 -19z"/>
<path fill="#000000" stroke="none" d="M5581 1311 c13 -11 28 -17 32 -14 5 3
-4 11 -18 19 -37 19 -42 18 -14 -5z"/>
<path fill="#000000" stroke="none" d="M5735 1290 l-80 -6 77 -2 c43 -1 80 2
83 8 3 6 5 9 3 8 -2 -1 -39 -5 -83 -8z"/>
<path fill="#000000" stroke="none" d="M1080 1223 c0 -17 -52 -47 -95 -54 -39
-6 -39 -7 -7 -8 49 -2 128 46 108 66 -3 3 -6 2 -6 -4z"/>
<path fill="#000000" stroke="none" d="M1323 1216 c0 -8 12 -17 26 -21 14 -3
35 -8 46 -11 11 -3 0 6 -24 20 -51 30 -48 30 -48 12z"/>
<path fill="#000000" stroke="none" d="M893 1153 c9 -2 25 -2 35 0 9 3 1 5
-18 5 -19 0 -27 -2 -17 -5z"/>
<path fill="#000000" stroke="none" d="M1100 1090 c8 -5 24 -10 35 -10 17 0
17 2 5 10 -8 5 -24 10 -35 10 -17 0 -17 -2 -5 -10z"/>
<path fill="#000000" stroke="none" d="M919 773 l-24 -28 28 24 c15 14 27 26
27 28 0 8 -8 1 -31 -24z"/>
<path fill="#000000" stroke="none" d="M1281 601 c-16 -22 -26 -27 -46 -23
-21 4 -34 -4 -70 -43 -38 -42 -42 -51 -33 -69 11 -20 11 -20 26 2 l14 22 29
-21 c25 -18 30 -18 34 -5 3 9 7 23 10 32 4 12 9 13 18 6 10 -8 13 -6 14 9 1
11 -5 19 -15 20 -12 0 -11 3 7 12 19 9 26 8 37 -8 12 -16 14 -16 14 -3 0 9 -5
20 -11 23 -6 5 -4 12 8 21 17 13 17 13 0 14 -15 0 -16 3 -7 20 17 31 -6 24
-29 -9z"/>
<path fill="#000000" stroke="none" d="M2333 432 c16 -16 40 -32 53 -35 13 -2
24 -3 24 -2 0 3 -37 27 -90 59 -8 5 -2 -5 13 -22z"/>
</g>
</svg>
