<?xml version="1.0" standalone="no"?>
<!DOCTYPE svg PUBLIC "-//W3C//DTD SVG 20010904//EN"
 "http://www.w3.org/TR/2001/REC-SVG-20010904/DTD/svg10.dtd">
<svg version="1.0" xmlns="http://www.w3.org/2000/svg"
 width="1026.000000pt" height="1202.000000pt" viewBox="0 0 1026.000000 1202.000000"
 preserveAspectRatio="xMidYMid meet">
<metadata>
Created by potrace 1.16, written by Peter Selinger 2001-2019
</metadata>
<g transform="translate(0.000000,1202.000000) scale(0.100000,-0.100000)"
fill="#000000" stroke="none">
<path fill="#000000" stroke="none" d="M0 6010 l0 -6010 5130 0 5130 0 0 6010
0 6010 -5130 0 -5130 0 0 -6010z"/>
<path fill="#ffffff" stroke="none" d="M10250 6010 l0 -6000 -5120 0 -5120 0
0 6000 0 6000 5120 0 5120 0 0 -6000z"/>
<path fill="#000000" stroke="none" d="M4455 11913 c-315 -37 -502 -90 -750
-213 -343 -171 -571 -388 -715 -683 -109 -223 -158 -421 -167 -672 -14 -394
74 -858 223 -1174 232 -493 544 -832 973 -1057 l69 -36 13 -67 c7 -36 13 -95
13 -130 l1 -63 -61 -57 c-34 -31 -75 -63 -90 -71 -16 -8 -31 -18 -34 -22 -17
-22 -190 -119 -254 -142 -199 -70 -321 -190 -387 -378 -22 -63 -48 -106 -141
-230 -152 -203 -232 -324 -276 -417 -33 -69 -37 -86 -40 -176 -11 -297 214
-919 475 -1314 82 -123 82 -125 64 -145 -80 -88 -44 -205 126 -416 l61 -75 11
-165 c6 -91 16 -250 22 -355 5 -104 17 -242 26 -305 8 -63 19 -187 23 -275 4
-88 13 -176 20 -195 6 -19 11 -53 11 -75 -1 -50 -141 -891 -180 -1080 -35
-169 -60 -240 -110 -303 -51 -64 -82 -86 -272 -193 -275 -154 -365 -220 -441
-321 -95 -126 -162 -306 -162 -437 l-1 -85 33 -23 c48 -32 125 -59 239 -84 78
-17 145 -22 323 -26 297 -7 501 16 945 107 83 17 220 44 305 60 201 39 386 86
424 108 29 17 31 22 34 89 2 38 -11 184 -27 324 -16 140 -37 362 -46 494 -74
1135 -85 1265 -115 1393 -25 105 -69 215 -123 311 -23 41 -41 77 -40 80 14 54
39 202 57 341 l23 175 71 -140 c90 -177 179 -326 320 -538 62 -92 117 -180
123 -194 5 -15 57 -228 114 -473 57 -245 136 -571 175 -724 l71 -280 -13 -275
c-7 -152 -13 -392 -13 -533 l0 -257 33 -34 c20 -20 62 -46 103 -62 64 -25 74
-33 126 -102 32 -42 77 -89 101 -104 91 -58 281 -106 532 -135 325 -37 797 7
928 86 42 26 47 55 33 167 -37 283 -166 555 -404 857 -61 77 -79 109 -106 187
-183 525 -388 1034 -537 1331 -85 169 -213 388 -339 578 -93 140 -103 161
-109 215 -24 202 -77 480 -133 695 -49 185 -48 180 -30 180 9 0 38 -14 64 -30
60 -37 133 -48 183 -28 23 10 55 13 92 10 48 -4 67 0 120 25 88 42 160 110
200 190 30 61 31 68 21 117 -9 43 -31 103 -50 137 -2 3 39 38 92 78 289 217
765 693 912 911 156 232 146 429 -36 687 -96 136 -239 266 -558 507 -79 59
-146 113 -150 119 -4 7 -26 53 -49 103 -59 131 -145 273 -204 337 -102 112
-209 158 -455 197 -171 27 -273 54 -348 92 -74 37 -125 76 -105 82 7 2 58 16
113 30 246 67 429 193 554 382 54 82 211 387 211 411 0 7 11 13 26 13 95 0
250 396 316 810 20 126 23 181 22 415 0 297 -13 412 -74 641 -61 229 -157 458
-205 490 -15 10 -37 34 -50 54 -76 121 -277 308 -465 431 -256 170 -561 279
-890 319 -78 9 -346 12 -415 3z"/>
<path fill="#ffffff" stroke="none" d="M4820 11860 c58 -5 138 -15 179 -21
l73 -12 60 -76 60 -75 -39 -17 c-111 -47 -333 -79 -548 -79 l-136 0 -77 54
c-81 57 -191 115 -257 136 -37 12 -38 13 -16 22 53 19 278 59 379 67 150 12
202 12 322 1z"/>
<path fill="#ffffff" stroke="none" d="M5290 11763 c193 -64 465 -209 575
-307 l40 -35 -45 13 c-276 86 -587 203 -633 239 -18 15 -107 124 -107 133 0 9
55 -5 170 -43z"/>
<path fill="#ffffff" stroke="none" d="M4170 11729 c68 -29 190 -99 239 -138
l24 -19 -28 -48 c-34 -60 -118 -170 -184 -244 l-49 -54 -58 18 c-92 29 -195
81 -280 142 -43 31 -83 58 -89 61 -14 5 -130 -112 -185 -187 -62 -84 -129
-203 -171 -304 l-38 -91 -51 3 c-28 2 -73 -2 -101 -8 -27 -7 -53 -10 -56 -7
-3 3 33 84 79 179 84 172 208 370 288 461 65 74 233 168 435 243 103 38 120
38 225 -7z"/>
<path fill="#ffffff" stroke="none" d="M5240 11603 c157 -250 260 -559 305
-919 l6 -51 -53 -21 c-92 -37 -190 -50 -305 -43 -17 1 -36 29 -94 139 -94 179
-241 424 -321 537 -34 49 -114 141 -175 205 -62 63 -113 115 -113 115 0 0 93
0 208 1 217 0 311 14 432 64 68 27 77 25 110 -27z"/>
<path fill="#ffffff" stroke="none" d="M5550 11507 c52 -19 159 -52 237 -73
l143 -37 10 -36 c34 -118 45 -222 45 -421 0 -194 -2 -211 -30 -327 -19 -80
-35 -123 -43 -123 -54 0 -315 118 -332 150 -4 8 -10 46 -14 84 -12 124 -56
319 -102 456 -45 133 -137 331 -188 406 -14 21 -26 42 -26 46 0 3 46 -15 103
-42 56 -26 145 -64 197 -83z"/>
<path fill="#ffffff" stroke="none" d="M4567 11448 c107 -109 133 -139 200
-233 54 -75 201 -318 273 -449 l43 -80 -89 90 c-186 189 -379 304 -670 400
-66 21 -121 40 -123 41 -2 1 21 30 52 63 68 73 137 169 168 232 18 37 26 45
38 38 9 -5 57 -50 108 -102z"/>
<path fill="#ffffff" stroke="none" d="M3396 11377 c-99 -131 -182 -285 -263
-485 -19 -46 -33 -67 -55 -78 -17 -9 -50 -34 -74 -56 -51 -47 -54 -39 -20 58
52 151 109 257 212 390 59 76 252 269 261 261 2 -3 -25 -43 -61 -90z"/>
<path fill="#ffffff" stroke="none" d="M6001 11308 c61 -97 141 -202 196 -259
l55 -57 -40 -58 c-22 -33 -78 -96 -124 -142 l-84 -82 9 87 c13 143 -8 414 -42
531 -5 17 -8 32 -6 32 1 0 18 -24 36 -52z"/>
<path fill="#ffffff" stroke="none" d="M6177 11132 c30 -40 53 -75 51 -78 -8
-7 -171 194 -192 236 -13 26 83 -81 141 -158z"/>
<path fill="#ffffff" stroke="none" d="M3334 10825 c-1 -11 -12 -67 -25 -125
-30 -136 -32 -402 -5 -550 35 -190 87 -364 158 -528 l41 -93 -32 -44 c-18 -25
-42 -63 -55 -85 l-23 -41 -12 132 c-30 331 -93 670 -217 1161 -19 75 -34 144
-34 152 0 18 106 46 165 43 33 -2 40 -5 39 -22z"/>
<path fill="#ffffff" stroke="none" d="M4313 10799 c244 -57 487 -201 620
-366 196 -244 347 -616 349 -863 1 -86 -7 -107 -66 -168 -165 -173 -662 -296
-915 -228 -298 80 -565 410 -637 784 -58 301 10 700 133 785 54 37 122 65 184
76 77 14 224 5 332 -20z"/>
<path fill="#ffffff" stroke="none" d="M3130 10713 c101 -406 178 -813 230
-1217 21 -165 22 -170 4 -230 -24 -80 -25 -274 -1 -362 10 -34 17 -68 16 -75
0 -8 -49 83 -108 201 -59 119 -140 269 -181 335 -40 66 -81 134 -92 152 -25
41 -71 228 -93 379 -39 262 -10 699 53 783 19 27 131 121 143 121 3 0 16 -39
29 -87z"/>
<path fill="#ffffff" stroke="none" d="M6400 10612 c57 -58 96 -248 106 -527
14 -351 -41 -722 -137 -933 l-29 -65 -45 5 c-97 11 -267 166 -342 313 -30 59
-29 100 12 339 55 329 139 655 190 741 46 80 142 154 198 155 10 0 31 -13 47
-28z"/>
<path fill="#ffffff" stroke="none" d="M5569 10483 c24 -264 31 -384 31 -600
0 -182 -3 -223 -14 -223 -8 0 -36 57 -71 143 -69 170 -240 557 -289 656 -20
39 -36 73 -36 76 0 3 33 5 73 5 76 0 205 28 254 54 15 8 31 15 34 16 3 0 11
-57 18 -127z"/>
<path fill="#ffffff" stroke="none" d="M5633 10580 c63 -42 141 -77 219 -97
52 -13 67 -21 63 -33 -2 -8 -11 -52 -19 -98 -19 -101 -96 -332 -170 -511 -57
-138 -80 -181 -95 -181 -5 0 -10 107 -10 243 0 262 -14 513 -37 670 -3 20 -3
37 0 37 3 0 25 -13 49 -30z"/>
<path fill="#ffffff" stroke="none" d="M5820 9900 c-16 -96 -32 -205 -36 -243
-6 -60 -10 -70 -31 -78 -102 -39 -109 26 -24 221 32 74 71 168 86 208 15 40
29 72 30 70 2 -2 -9 -82 -25 -178z"/>
<path fill="#ffffff" stroke="none" d="M5482 9830 c66 -160 76 -197 59 -229
-12 -21 -63 -29 -87 -13 -7 4 -17 64 -23 142 -6 74 -20 175 -31 224 -11 50
-20 95 -20 100 1 14 27 -45 102 -224z"/>
<path fill="#ffffff" stroke="none" d="M5624 9630 c32 0 46 -53 26 -102 -13
-34 -19 -38 -51 -38 -32 0 -37 3 -46 35 -9 29 -8 43 5 75 11 25 22 38 30 35 8
-3 24 -5 36 -5z"/>
<path fill="#ffffff" stroke="none" d="M5524 9538 c24 -33 20 -62 -23 -178
-49 -131 -129 -322 -140 -333 -4 -4 -11 7 -14 26 -8 48 -42 117 -78 155 l-31
33 77 80 c83 87 114 142 115 202 0 36 1 37 39 37 30 0 44 -6 55 -22z"/>
<path fill="#ffffff" stroke="none" d="M5770 9499 c0 -52 32 -130 96 -230 l25
-40 -44 -43 c-24 -23 -57 -64 -73 -91 l-28 -49 -8 34 c-15 74 -60 298 -71 357
-16 88 -3 113 58 113 l45 0 0 -51z"/>
<path fill="#ffffff" stroke="none" d="M3563 9427 c82 -144 234 -320 365 -420
74 -57 205 -128 282 -152 30 -10 56 -19 58 -20 1 -1 -16 -40 -38 -86 -22 -45
-40 -89 -40 -96 0 -7 -4 -13 -10 -13 -5 0 -10 4 -10 9 0 6 -31 56 -69 113
-174 258 -359 415 -606 515 -44 18 -81 36 -83 42 -8 24 91 186 108 176 5 -3
24 -33 43 -68z"/>
<path fill="#ffffff" stroke="none" d="M5654 9400 c23 -105 68 -361 63 -366
-2 -2 -25 5 -52 17 -63 28 -149 23 -222 -13 -29 -14 -53 -23 -53 -20 0 2 26
70 59 151 32 80 62 157 66 171 4 14 16 49 27 78 19 50 21 52 58 52 l38 0 16
-70z"/>
<path fill="#ffffff" stroke="none" d="M3105 9290 c79 -138 258 -490 252 -496
-8 -9 -152 222 -213 341 -70 139 -134 298 -110 274 3 -2 35 -56 71 -119z"/>
<path fill="#ffffff" stroke="none" d="M3544 9234 c50 -25 122 -66 161 -92
128 -84 332 -308 433 -476 l34 -55 -26 -101 c-14 -56 -31 -152 -38 -214 -6
-61 -13 -113 -15 -115 -1 -2 -24 17 -51 43 -26 26 -70 62 -96 81 -50 36 -182
95 -211 95 -10 0 -77 60 -149 133 l-132 132 -27 91 c-46 154 -60 246 -54 369
3 61 10 123 16 139 14 35 29 32 155 -30z"/>
<path fill="#ffffff" stroke="none" d="M5263 9178 c35 -51 77 -159 77 -195 0
-25 -182 -385 -254 -502 -31 -52 -77 -120 -102 -153 l-46 -59 -71 74 c-90 93
-160 145 -262 196 -105 52 -178 71 -302 78 l-102 6 23 62 c13 34 33 80 45 103
l21 42 79 0 c79 0 222 30 306 65 150 63 363 189 485 289 30 24 58 45 61 45 4
1 23 -23 42 -51z"/>
<path fill="#ffffff" stroke="none" d="M6025 9012 c63 -101 115 -189 115 -196
0 -18 -50 -154 -91 -251 -34 -78 -36 -80 -105 -120 -83 -47 -120 -73 -191
-133 -29 -25 -53 -43 -53 -41 0 2 9 33 20 68 47 148 61 353 39 563 l-11 107
32 53 c34 56 109 140 122 136 4 -2 59 -85 123 -186z"/>
<path fill="#ffffff" stroke="none" d="M5680 9017 c44 -22 45 -23 53 -82 4
-33 8 -130 8 -215 1 -166 -13 -279 -53 -407 l-23 -72 -46 28 c-133 84 -322 93
-550 27 -46 -13 -85 -23 -87 -21 -2 2 18 32 43 67 71 95 143 223 250 438 88
179 99 197 137 219 91 54 183 61 268 18z"/>
<path fill="#ffffff" stroke="none" d="M4394 8585 c97 -20 184 -55 270 -109
83 -52 183 -135 227 -189 l32 -39 -64 -65 c-65 -65 -157 -137 -216 -167 -31
-16 -33 -15 -95 18 -110 60 -239 101 -382 121 l-49 7 7 73 c8 85 28 200 53
298 l17 67 63 0 c35 0 97 -7 137 -15z"/>
<path fill="#ffffff" stroke="none" d="M5963 8399 c-35 -60 -125 -160 -185
-207 -64 -50 -158 -108 -158 -97 0 23 69 131 108 167 74 69 218 168 244 168 5
0 1 -14 -9 -31z"/>
<path fill="#ffffff" stroke="none" d="M3973 8252 c31 -25 55 -47 53 -49 -6
-6 -181 104 -214 133 -25 23 -22 22 38 -7 36 -17 91 -52 123 -77z"/>
<path fill="#ffffff" stroke="none" d="M5525 8288 c72 -24 125 -55 125 -73 0
-20 -59 -128 -78 -143 -44 -34 -262 -84 -447 -103 -147 -15 -476 -1 -475 20 0
3 33 26 72 51 39 25 109 82 156 126 l84 82 101 26 c186 49 342 53 462 14z"/>
<path fill="#ffffff" stroke="none" d="M4312 8100 c80 -21 222 -79 214 -87 -6
-7 -168 42 -257 77 -87 34 -69 38 43 10z"/>
<path fill="#ffffff" stroke="none" d="M4257 8009 c32 -12 69 -26 81 -31 l24
-8 -28 -48 c-32 -56 -122 -172 -134 -172 -15 0 -19 43 -9 94 7 33 7 75 2 119
-5 37 -6 67 -2 67 5 0 34 -10 66 -21z"/>
<path fill="#ffffff" stroke="none" d="M4578 7914 c5 -3 -50 -75 -104 -137
-36 -41 -42 -44 -56 -31 -22 23 -86 27 -140 11 l-47 -15 45 56 c25 31 58 81
74 112 l28 56 99 -24 c54 -13 100 -26 101 -28z"/>
<path fill="#ffffff" stroke="none" d="M4763 7893 c37 -3 67 -9 67 -12 0 -4
-10 -35 -21 -70 -17 -50 -25 -61 -38 -56 -9 4 -42 12 -74 18 -57 10 -150 2
-201 -18 -10 -5 9 27 45 74 l64 82 45 -6 c25 -3 75 -8 113 -12z"/>
<path fill="#ffffff" stroke="none" d="M5160 7863 c-26 -21 -33 -24 -41 -12
-18 29 -10 39 32 39 l41 0 -32 -27z"/>
<path fill="#ffffff" stroke="none" d="M5090 7860 c0 -17 -7 -20 -43 -20 -59
0 -133 -24 -187 -59 -24 -17 -45 -29 -47 -27 -2 1 7 30 18 64 l21 62 119 0
c112 0 119 -1 119 -20z"/>
<path fill="#ffffff" stroke="none" d="M5269 7836 c31 -19 81 -44 111 -56 30
-12 56 -23 58 -25 2 -2 -9 -23 -24 -47 -16 -23 -29 -44 -29 -45 -1 -2 -24 19
-51 45 -27 26 -79 63 -116 82 -38 19 -68 38 -68 42 0 9 41 38 53 38 5 0 35
-15 66 -34z"/>
<path fill="#ffffff" stroke="none" d="M5200 7779 c60 -35 150 -112 150 -127
0 -4 -55 -7 -123 -8 -157 0 -242 -25 -360 -106 -33 -22 -62 -37 -65 -33 -3 3
-6 51 -7 106 0 95 1 102 25 121 38 32 144 79 197 88 70 11 110 3 183 -41z"/>
<path fill="#ffffff" stroke="none" d="M4170 7746 c0 -15 -11 -33 -27 -45 -16
-12 -32 -24 -38 -29 -5 -4 -62 -43 -125 -86 -63 -43 -128 -89 -144 -102 l-30
-23 -11 22 c-10 20 -3 27 95 89 58 36 115 76 127 87 12 12 26 21 30 21 4 0 31
20 58 45 28 24 53 44 58 45 4 0 7 -11 7 -24z"/>
<path fill="#ffffff" stroke="none" d="M4739 7746 l35 -12 1 -117 c0 -64 1
-117 0 -117 -171 48 -315 39 -460 -30 -33 -16 -61 -28 -62 -26 -5 4 115 175
158 227 33 40 52 52 102 68 71 23 175 26 226 7z"/>
<path fill="#ffffff" stroke="none" d="M4409 7726 c8 -9 5 -18 -7 -32 -29 -31
-117 -155 -152 -211 -17 -29 -33 -53 -35 -53 -1 0 -24 9 -50 21 -67 30 -173
28 -285 -5 -47 -13 -86 -23 -87 -22 -8 8 377 273 427 294 70 29 168 33 189 8z"/>
<path fill="#ffffff" stroke="none" d="M5565 7724 c39 -9 115 -24 170 -34 162
-30 304 -77 369 -123 26 -18 116 -131 116 -146 0 -3 -22 -6 -48 -7 -54 0 -104
-25 -123 -61 -7 -13 -15 -23 -18 -22 -3 0 -31 34 -61 76 -134 184 -311 269
-507 243 -63 -8 -66 0 -27 60 18 27 32 39 43 35 9 -2 48 -12 86 -21z"/>
<path fill="#ffffff" stroke="none" d="M5353 7624 c12 -4 12 -14 -5 -67 -21
-65 -27 -233 -13 -335 l7 -50 -50 25 c-123 61 -306 24 -414 -81 -22 -21 -38
-31 -38 -23 0 12 -25 284 -32 356 -5 46 153 134 297 166 61 14 221 20 248 9z"/>
<path fill="#ffffff" stroke="none" d="M5662 7610 c110 -34 211 -112 308 -238
18 -24 30 -45 27 -48 -2 -3 -33 0 -68 6 -186 30 -335 -2 -485 -102 -41 -28
-78 -48 -81 -44 -3 3 -6 74 -7 158 -1 158 12 244 41 273 23 23 185 20 265 -5z"/>
<path fill="#ffffff" stroke="none" d="M4713 7496 c32 -7 61 -16 64 -20 15
-15 60 -567 83 -1019 l10 -197 -44 -103 c-24 -56 -47 -113 -51 -125 -6 -20
-12 -23 -33 -18 -284 58 -578 5 -736 -135 l-34 -29 -5 37 c-7 63 -8 291 -1
364 5 49 11 69 21 69 7 0 33 18 58 41 68 63 110 165 124 299 7 74 15 79 66 40
61 -45 64 -63 25 -136 -19 -36 -60 -99 -92 -142 -61 -81 -60 -99 2 -67 74 38
179 161 215 253 16 38 15 42 -4 80 -11 22 -39 56 -62 76 -24 20 -39 36 -36 36
4 0 35 -11 69 -25 74 -30 154 -80 162 -101 9 -23 -55 -138 -181 -327 -62 -93
-113 -175 -113 -183 0 -43 84 8 196 120 132 133 246 309 260 404 5 37 3 47
-17 69 -49 52 -182 102 -330 124 -80 12 -82 13 -49 22 179 49 391 141 411 179
27 50 -15 304 -56 338 -8 7 -22 10 -30 6 -12 -4 -15 -27 -15 -120 0 -123 -9
-161 -43 -185 -49 -36 -187 -107 -187 -96 0 1 23 17 50 35 74 48 90 72 90 139
0 66 -34 151 -52 133 -6 -6 -17 -50 -24 -98 -8 -51 -19 -93 -30 -105 -17 -19
-194 -114 -194 -104 0 3 9 22 20 42 28 53 26 89 -9 124 -16 16 -37 29 -45 29
-24 0 -20 18 23 107 l39 81 75 36 c129 61 287 81 410 52z"/>
<path fill="#ffffff" stroke="none" d="M3760 7443 c-12 -21 -39 -53 -60 -71
-55 -46 -130 -145 -178 -231 l-40 -73 -16 25 c-16 24 -15 28 23 111 22 47 37
86 33 86 -10 0 -65 -85 -95 -145 -29 -58 -77 -199 -78 -230 0 -12 -5 -6 -11
15 -15 51 -2 185 22 235 24 50 116 146 193 203 76 57 178 112 205 112 l24 0
-22 -37z"/>
<path fill="#ffffff" stroke="none" d="M3620 7445 c0 -2 -21 -19 -47 -37 -27
-18 -70 -53 -97 -78 -27 -25 -44 -36 -38 -25 14 28 57 66 122 109 57 37 60 39
60 31z"/>
<path fill="#ffffff" stroke="none" d="M4173 7430 c15 -7 27 -17 27 -23 0 -5
-13 -37 -29 -71 -16 -33 -34 -73 -40 -88 -6 -16 -18 -28 -28 -28 -29 0 -82
-37 -103 -72 -13 -21 -20 -51 -20 -81 l0 -47 -42 21 c-64 33 -98 61 -98 81 0
10 20 45 45 79 44 60 53 79 37 79 -25 0 -132 -97 -164 -148 -20 -32 -20 -33
-2 -54 11 -11 43 -34 72 -50 28 -17 52 -32 52 -34 0 -4 -126 43 -161 62 -19 9
-29 22 -29 37 0 39 55 140 115 210 31 38 55 70 53 72 -10 10 -98 -56 -157
-116 -65 -67 -117 -158 -128 -222 l-6 -37 67 -30 c37 -17 104 -43 149 -57 l82
-27 -61 -12 c-147 -30 -263 -86 -297 -142 -43 -74 -7 -256 88 -442 56 -109 95
-158 115 -145 16 10 7 51 -40 200 -38 119 -67 288 -56 322 7 23 111 91 183
121 73 31 75 28 7 -16 -89 -58 -124 -103 -124 -158 0 -74 29 -180 63 -231 34
-49 61 -72 73 -60 4 4 -5 55 -19 114 -15 60 -27 127 -27 150 0 37 5 46 46 82
68 60 73 57 49 -24 -34 -112 -12 -260 46 -309 l29 -25 0 -221 0 -222 -37 32
c-109 91 -201 135 -309 147 l-51 6 -13 71 c-7 39 -32 118 -57 175 -64 151 -76
213 -69 347 13 241 117 501 267 667 61 68 86 81 219 117 85 23 235 23 283 0z"/>
<path fill="#ffffff" stroke="none" d="M6218 7394 c24 -7 25 -8 99 -189 24
-60 56 -129 69 -152 l25 -43 -45 0 c-36 0 -50 -6 -74 -30 -23 -22 -32 -27 -40
-17 -5 6 -55 88 -111 180 l-101 169 20 28 c18 26 49 43 95 53 31 7 38 7 63 1z"/>
<path fill="#ffffff" stroke="none" d="M6369 7200 c81 -155 106 -226 57 -167
-24 30 -41 65 -121 247 -62 143 -34 107 64 -80z"/>
<path fill="#ffffff" stroke="none" d="M5997 7301 c23 -6 46 -37 125 -167 l97
-159 -37 -5 c-20 -3 -42 -9 -48 -13 -7 -4 -41 7 -77 23 -121 55 -210 74 -337
74 -101 0 -123 -4 -179 -27 -35 -15 -79 -38 -97 -52 -18 -14 -35 -22 -37 -18
-3 5 -13 49 -22 98 l-17 90 37 32 c70 60 198 118 299 134 55 8 248 2 293 -10z"/>
<path fill="#ffffff" stroke="none" d="M5288 7174 c29 -12 54 -29 56 -36 2 -7
13 -54 25 -105 l22 -92 -114 -113 c-128 -128 -242 -275 -325 -419 -31 -54 -60
-99 -64 -99 -5 0 -8 38 -8 84 0 95 -27 585 -35 632 -5 27 1 37 41 73 109 102
274 132 402 75z"/>
<path fill="#ffffff" stroke="none" d="M3460 7059 c9 -16 6 -35 -13 -92 -33
-94 -57 -213 -57 -279 -1 -44 -3 -50 -12 -34 -22 39 10 291 51 399 13 32 17
33 31 6z"/>
<path fill="#ffffff" stroke="none" d="M6573 6973 c156 -112 187 -141 187
-174 0 -16 -2 -29 -5 -29 -8 0 -201 139 -245 177 -30 26 -40 42 -40 64 0 16 2
29 5 29 3 0 47 -30 98 -67z"/>
<path fill="#ffffff" stroke="none" d="M3325 6831 c3 -7 3 -45 0 -86 l-7 -75
-33 29 c-18 16 -39 31 -45 33 -9 3 -7 23 8 78 12 41 24 100 28 130 4 30 12 64
18 75 9 16 12 2 17 -77 4 -53 10 -101 14 -107z"/>
<path fill="#ffffff" stroke="none" d="M5821 7015 c131 -23 315 -91 474 -176
170 -91 446 -294 476 -351 16 -30 3 -38 -162 -101 -81 -31 -188 -74 -240 -97
l-93 -40 -137 90 c-76 50 -180 113 -231 140 -92 48 -227 104 -234 97 -2 -2 16
-18 41 -36 25 -18 45 -36 45 -40 0 -11 -116 -198 -152 -244 -18 -23 -86 -105
-152 -181 -234 -274 -291 -367 -304 -497 l-7 -74 -90 -8 c-137 -11 -326 10
-356 40 -12 12 17 198 47 313 126 469 516 1020 810 1145 85 36 148 41 265 20z"/>
<path fill="#ffffff" stroke="none" d="M6472 6947 c29 -24 98 -75 153 -113
l100 -69 -40 -6 c-47 -6 -80 -23 -94 -46 -8 -15 -15 -13 -63 18 -29 20 -83 52
-120 73 -66 37 -128 97 -128 124 0 28 52 62 96 62 35 0 51 -7 96 -43z"/>
<path fill="#ffffff" stroke="none" d="M3252 6898 c-9 -43 -19 -78 -23 -78 -4
0 -9 21 -11 48 -4 38 0 53 20 80 13 18 25 32 27 30 2 -2 -4 -38 -13 -80z"/>
<path fill="#ffffff" stroke="none" d="M6237 6930 c17 -10 37 -28 43 -40 10
-18 4 -17 -55 12 -36 18 -65 36 -65 40 0 15 45 8 77 -12z"/>
<path fill="#ffffff" stroke="none" d="M3205 6836 c4 -30 4 -69 0 -87 -8 -35
-64 -127 -92 -150 -14 -12 -15 -10 -9 18 4 18 2 57 -4 87 l-11 55 48 65 c26
36 51 65 55 66 4 0 10 -24 13 -54z"/>
<path fill="#ffffff" stroke="none" d="M6897 6712 c45 -41 107 -105 138 -143
l57 -68 -20 -26 -20 -25 -35 62 c-35 63 -99 130 -189 203 -38 30 -48 44 -48
67 0 36 -5 39 117 -70z"/>
<path fill="#ffffff" stroke="none" d="M6809 6703 c84 -66 152 -137 182 -189
16 -28 29 -54 29 -56 0 -3 -19 4 -41 15 -37 18 -48 19 -93 9 -48 -10 -52 -9
-66 11 -22 34 -99 104 -162 149 -32 23 -58 45 -58 50 0 20 67 48 114 48 41 0
56 -6 95 -37z"/>
<path fill="#ffffff" stroke="none" d="M3084 6614 c-7 -56 -13 -68 -94 -168
l-55 -68 -8 45 c-8 39 -5 52 23 108 18 35 53 96 78 134 l46 70 8 -35 c4 -19 5
-58 2 -86z"/>
<path fill="#ffffff" stroke="none" d="M3255 6700 c40 -24 65 -61 65 -93 0
-26 -39 -90 -92 -153 l-35 -42 -12 34 c-7 19 -28 47 -47 62 -19 15 -34 30 -34
34 0 4 22 36 49 72 27 36 52 74 56 85 8 26 10 26 50 1z"/>
<path fill="#ffffff" stroke="none" d="M3345 6455 c8 -44 22 -102 31 -128 13
-39 14 -51 4 -57 -40 -24 -232 -21 -267 5 -16 12 -10 20 57 83 41 38 93 94
115 124 22 31 41 55 42 54 2 -1 9 -38 18 -81z"/>
<path fill="#ffffff" stroke="none" d="M3134 6480 c48 -53 48 -85 -1 -125 -71
-57 -64 -56 -125 -26 l-56 27 59 82 c33 45 66 82 74 82 7 0 29 -18 49 -40z"/>
<path fill="#ffffff" stroke="none" d="M7144 6427 c43 -62 55 -128 36 -197 -9
-35 -28 -60 -83 -112 -65 -63 -97 -82 -97 -58 0 5 -16 28 -36 49 -33 37 -58
50 -127 66 -27 6 -25 8 55 56 107 65 145 102 163 160 16 56 33 89 44 89 5 0
25 -24 45 -53z"/>
<path fill="#ffffff" stroke="none" d="M6991 6447 c19 -12 35 -32 37 -44 5
-34 -61 -98 -162 -158 l-91 -54 -14 27 c-23 45 -62 81 -108 98 l-44 17 53 22
c76 31 155 73 163 86 22 34 118 38 166 6z"/>
<path fill="#ffffff" stroke="none" d="M6038 6318 c78 -54 142 -103 142 -108
0 -5 -15 -13 -32 -19 -52 -17 -282 -146 -382 -213 -180 -121 -350 -280 -471
-442 l-60 -80 -3 66 c-2 36 4 96 13 133 23 102 57 147 342 455 76 83 158 184
195 241 l63 97 25 -15 c14 -9 89 -61 168 -115z"/>
<path fill="#ffffff" stroke="none" d="M2913 6320 c-5 -69 10 -124 44 -163 15
-16 15 -19 3 -28 -31 -20 -45 -5 -56 61 -14 77 -17 155 -7 201 11 56 23 4 16
-71z"/>
<path fill="#ffffff" stroke="none" d="M2995 6316 c36 -15 49 -30 18 -20 -10
3 -5 -5 12 -20 17 -14 33 -26 38 -26 16 0 6 -17 -16 -27 -13 -6 -31 -25 -39
-43 l-16 -32 -25 43 c-29 52 -40 93 -32 120 8 23 15 23 60 5z"/>
<path fill="#ffffff" stroke="none" d="M7271 6172 c23 -103 -13 -216 -111
-346 -37 -49 -45 -55 -53 -40 -17 30 1 161 34 252 45 125 69 211 70 252 l1 35
24 -53 c13 -29 29 -74 35 -100z"/>
<path fill="#ffffff" stroke="none" d="M6671 6287 c36 -24 82 -84 76 -100 -1
-5 -70 -40 -152 -78 l-150 -67 -16 48 c-19 60 -32 76 -78 100 l-36 18 35 15
c19 9 71 31 115 51 98 42 157 46 206 13z"/>
<path fill="#ffffff" stroke="none" d="M3170 6210 c19 -5 71 -10 116 -10 78 0
82 -1 122 -36 56 -48 54 -61 -11 -66 -66 -5 -105 -31 -148 -98 l-32 -49 -43
29 c-23 17 -70 56 -103 88 -60 57 -61 58 -50 91 14 38 65 74 94 66 11 -4 36
-10 55 -15z"/>
<path fill="#ffffff" stroke="none" d="M3430 6189 c0 -6 -4 -7 -10 -4 -5 3
-10 11 -10 16 0 6 5 7 10 4 6 -3 10 -11 10 -16z"/>
<path fill="#ffffff" stroke="none" d="M6378 6135 c31 -35 47 -74 40 -95 -3
-9 -109 -59 -305 -146 l-33 -14 6 28 c9 45 -19 98 -63 120 l-38 20 154 76
c173 85 175 85 239 11z"/>
<path fill="#ffffff" stroke="none" d="M6871 6145 c24 -9 54 -26 67 -38 30
-28 56 -78 45 -86 -62 -46 -316 -201 -329 -201 -2 0 -4 11 -4 25 0 57 -63 130
-140 163 l-45 20 50 21 c28 12 93 41 145 65 104 48 145 54 211 31z"/>
<path fill="#ffffff" stroke="none" d="M7125 6073 c-14 -37 -27 -68 -29 -70
-3 -3 -52 15 -65 23 -3 3 110 113 116 114 2 0 -9 -30 -22 -67z"/>
<path fill="#ffffff" stroke="none" d="M3040 6063 c25 -25 66 -63 92 -84 l48
-37 -29 -7 c-29 -6 -70 -44 -90 -83 -15 -28 -19 -25 -65 41 -23 33 -44 82 -56
126 -17 66 -17 72 -2 81 33 19 58 10 102 -37z"/>
<path fill="#ffffff" stroke="none" d="M3469 6003 c7 -43 15 -108 18 -146 l6
-67 -84 46 c-123 68 -169 98 -169 111 0 21 65 96 100 114 19 11 53 19 76 19
l42 0 11 -77z"/>
<path fill="#ffffff" stroke="none" d="M3649 6015 c84 -20 167 -65 237 -129
l57 -52 8 -164 c4 -91 11 -203 15 -250 l7 -85 -66 62 c-76 71 -168 119 -247
131 l-55 7 -21 150 c-12 83 -25 194 -29 248 -8 112 -13 107 94 82z"/>
<path fill="#ffffff" stroke="none" d="M6017 6010 c21 -12 35 -31 42 -56 19
-69 11 -78 -139 -154 -155 -79 -256 -143 -378 -237 -77 -60 -82 -63 -75 -36 4
15 7 49 6 75 -1 47 0 49 75 120 143 133 382 308 422 308 8 0 29 -9 47 -20z"/>
<path fill="#ffffff" stroke="none" d="M4651 6009 c47 -6 91 -14 97 -18 7 -4
0 -41 -19 -106 -27 -95 -49 -202 -64 -307 -6 -46 -6 -47 -40 -41 -46 7 -225
-14 -313 -38 -89 -24 -167 -62 -250 -124 -35 -25 -65 -45 -67 -43 -1 2 -8 113
-15 247 l-13 245 39 33 c21 19 80 54 129 78 149 74 324 98 516 74z"/>
<path fill="#ffffff" stroke="none" d="M6486 5995 c75 -22 144 -100 144 -163
0 -28 -8 -33 -182 -116 -101 -49 -189 -90 -195 -93 -10 -4 -13 10 -13 49 0 66
-29 113 -95 154 -25 16 -45 31 -45 34 0 6 311 149 326 149 6 1 33 -6 60 -14z"/>
<path fill="#ffffff" stroke="none" d="M7061 5984 c24 -23 26 -30 18 -57 -5
-18 -12 -76 -16 -131 l-6 -99 -61 -67 -60 -68 -31 61 c-35 72 -88 116 -176
148 -71 26 -73 22 61 101 52 31 120 74 150 96 65 48 85 50 121 16z"/>
<path fill="#ffffff" stroke="none" d="M3286 5879 c49 -29 117 -65 152 -81 67
-32 82 -58 33 -58 -67 0 -126 -42 -157 -113 -10 -23 -19 -44 -20 -46 -5 -7
-126 104 -180 166 l-55 63 23 41 c15 28 36 48 63 60 22 10 43 19 46 19 3 0 46
-23 95 -51z"/>
<path fill="#ffffff" stroke="none" d="M3027 5800 c-4 -28 -22 -12 -35 32
l-12 43 25 -30 c13 -16 23 -37 22 -45z"/>
<path fill="#ffffff" stroke="none" d="M6187 5763 c24 -31 28 -46 28 -97 l0
-61 -90 -45 c-183 -91 -332 -173 -428 -236 l-98 -64 7 34 c3 19 1 51 -6 70
-14 43 -72 96 -105 96 -14 0 -25 4 -25 10 0 13 121 109 223 175 49 32 152 90
230 130 l141 73 47 -24 c26 -13 60 -40 76 -61z"/>
<path fill="#ffffff" stroke="none" d="M3159 5668 c67 -69 99 -108 87 -108
-30 0 -76 -30 -95 -62 l-19 -30 -19 43 c-11 24 -37 88 -57 142 -36 93 -41 132
-14 125 7 -2 60 -51 117 -110z"/>
<path fill="#ffffff" stroke="none" d="M6729 5750 c35 -17 76 -40 92 -51 34
-24 89 -114 89 -146 0 -15 -51 -70 -167 -182 -93 -88 -179 -168 -193 -179
l-25 -20 0 82 c0 72 -4 89 -33 148 -37 76 -83 119 -176 165 l-59 30 184 91
c101 49 193 91 204 91 11 1 49 -13 84 -29z"/>
<path fill="#ffffff" stroke="none" d="M3503 5698 c3 -13 8 -72 12 -133 3 -60
8 -132 11 -159 5 -58 14 -62 -122 62 -87 80 -91 85 -84 116 18 79 79 134 151
135 20 1 28 -5 32 -21z"/>
<path fill="#ffffff" stroke="none" d="M5445 5522 c-6 -38 -18 -57 -85 -127
-81 -87 -126 -146 -172 -230 -32 -58 -33 -57 -12 16 32 109 113 247 217 371
47 57 52 61 55 39 2 -13 1 -44 -3 -69z"/>
<path fill="#ffffff" stroke="none" d="M6323 5543 c117 -58 180 -161 180 -290
0 -42 -5 -78 -12 -87 -15 -18 -110 -58 -348 -146 -99 -38 -201 -80 -226 -94
l-45 -27 10 43 c11 48 3 120 -17 158 -35 67 -128 119 -212 120 -29 0 -53 3
-53 8 0 7 145 106 222 151 20 12 117 62 215 111 196 99 196 99 286 53z"/>
<path fill="#ffffff" stroke="none" d="M3392 5449 c57 -51 111 -100 122 -109
17 -17 17 -19 -27 -49 -62 -43 -92 -104 -84 -177 4 -35 2 -52 -4 -48 -6 3 -46
51 -90 106 -77 97 -159 239 -159 276 0 42 62 91 117 92 14 0 60 -34 125 -91z"/>
<path fill="#ffffff" stroke="none" d="M4653 5408 c-10 -143 -8 -356 5 -431 9
-57 8 -58 -17 -71 -75 -39 -569 -181 -583 -168 -7 8 -32 222 -49 422 l-11 135
45 41 c56 50 180 115 264 138 82 22 224 44 296 45 l58 1 -8 -112z"/>
<path fill="#ffffff" stroke="none" d="M3609 5280 c11 -124 23 -245 25 -269 4
-42 3 -43 -15 -24 -17 16 -20 44 -29 238 -5 121 -10 235 -10 254 0 80 10 12
29 -199z"/>
<path fill="#ffffff" stroke="none" d="M3769 5469 c38 -19 93 -60 136 -100
l72 -69 7 -97 c4 -54 16 -174 27 -268 10 -93 19 -176 19 -184 0 -45 -219 67
-348 178 -21 18 -24 35 -42 248 -11 125 -22 252 -26 282 l-7 54 49 -6 c27 -4
78 -21 113 -38z"/>
<path fill="#ffffff" stroke="none" d="M4810 5483 c57 -10 127 -14 212 -11
l126 4 7 -77 c6 -65 4 -82 -13 -115 -11 -21 -32 -76 -47 -121 l-28 -82 -146
-62 c-80 -34 -165 -70 -188 -80 -24 -10 -45 -14 -47 -10 -15 23 -24 261 -15
391 11 178 14 194 37 185 9 -4 55 -14 102 -22z"/>
<path fill="#ffffff" stroke="none" d="M5527 5425 c43 -28 65 -75 60 -127 -4
-42 -11 -55 -65 -113 -73 -78 -133 -194 -159 -309 l-18 -79 -29 42 c-31 44
-82 81 -112 81 -11 0 -30 -7 -43 -17 l-24 -16 5 65 c10 120 84 261 219 418 69
79 73 82 107 77 19 -4 45 -13 59 -22z"/>
<path fill="#ffffff" stroke="none" d="M3530 5242 c0 -27 3 -111 6 -188 l6
-139 -50 49 c-72 70 -91 158 -53 242 17 38 62 84 82 84 5 0 9 -22 9 -48z"/>
<path fill="#ffffff" stroke="none" d="M5707 5194 c105 -35 154 -98 154 -196
0 -79 -12 -112 -53 -145 -18 -15 -59 -53 -91 -86 l-58 -59 -43 40 c-83 76
-155 99 -216 67 -29 -15 -30 -15 -30 5 0 32 48 168 81 231 16 30 50 79 75 107
42 48 49 52 89 52 25 0 66 -7 92 -16z"/>
<path fill="#ffffff" stroke="none" d="M6389 5049 c-46 -39 -114 -96 -152
-126 l-69 -55 -55 17 c-41 13 -75 16 -129 12 -41 -3 -74 -3 -74 -1 0 8 103 51
284 119 94 35 191 73 216 84 25 11 49 21 53 21 5 0 -29 -32 -74 -71z"/>
<path fill="#ffffff" stroke="none" d="M3420 5000 c0 -20 -15 -9 -40 27 -43
64 -43 69 -1 26 23 -23 41 -47 41 -53z"/>
<path fill="#ffffff" stroke="none" d="M5052 4940 c-5 -118 8 -163 67 -238 57
-71 180 -188 262 -248 41 -30 79 -59 86 -64 16 -13 65 -168 119 -375 47 -183
53 -209 120 -534 24 -118 46 -216 49 -219 3 -3 5 21 5 54 l0 59 29 -46 c16
-25 69 -118 119 -208 l91 -163 -21 -42 c-11 -22 -56 -76 -98 -118 -63 -62 -96
-85 -171 -121 -116 -56 -180 -71 -289 -71 -81 0 -175 18 -185 35 -3 4 -21 70
-41 146 -19 76 -38 147 -41 158 -4 16 0 15 26 -9 42 -40 39 -28 -13 52 -46 70
-423 727 -471 822 -16 30 -63 132 -106 225 l-77 170 -119 6 c-193 10 -275 43
-382 152 -34 33 -61 57 -61 51 0 -18 72 -117 118 -161 85 -81 215 -126 338
-116 l44 3 0 -40 c0 -37 -23 -314 -51 -600 -6 -63 -17 -153 -25 -200 -20 -121
-17 -125 26 -35 l38 80 21 -47 c11 -26 34 -103 50 -170 49 -202 51 -177 -19
-246 -63 -62 -152 -115 -250 -148 -44 -15 -84 -19 -200 -19 -159 1 -217 15
-307 77 -36 24 -42 33 -38 56 2 15 7 49 10 75 l6 48 39 -35 c35 -31 90 -66
105 -66 3 0 -18 28 -48 63 -94 111 -123 200 -112 347 4 54 1 126 -9 200 -29
220 -51 542 -62 895 -3 110 -10 283 -15 385 -5 102 -9 189 -9 193 0 5 32 -19
71 -52 139 -121 302 -211 380 -211 93 0 578 167 914 314 44 20 82 36 85 36 3
0 4 -45 2 -100z"/>
<path fill="#ffffff" stroke="none" d="M3542 4854 c2 -19 1 -34 -3 -34 -13 0
-109 137 -109 156 0 13 14 4 54 -35 40 -39 55 -62 58 -87z"/>
<path fill="#ffffff" stroke="none" d="M5276 4848 c25 -23 52 -55 60 -71 l15
-28 35 30 c61 54 124 40 221 -51 l53 -50 34 16 c38 18 103 21 126 6 11 -7 5
-10 -23 -10 -22 0 -36 -4 -32 -10 11 -18 -97 -63 -165 -67 -62 -4 -68 -3 -133
37 -70 43 -99 49 -51 11 33 -26 26 -36 -20 -27 -23 5 -60 28 -105 66 -82 71
-103 78 -41 14 l45 -45 -29 3 c-22 2 -42 17 -72 55 -51 62 -65 114 -39 143 30
33 70 25 121 -22z"/>
<path fill="#ffffff" stroke="none" d="M6095 4868 c25 -7 45 -15 45 -18 0 -9
-211 -147 -237 -154 -14 -5 -37 1 -64 15 -42 21 -106 27 -131 13 -21 -12 54
65 96 99 66 52 191 72 291 45z"/>
<path fill="#ffffff" stroke="none" d="M3469 4790 l42 -49 -31 -16 c-16 -8
-30 -20 -30 -26 0 -6 8 -6 21 1 31 17 31 9 -1 -27 l-28 -32 -18 37 c-22 47
-29 113 -15 141 7 11 13 21 15 21 1 0 22 -22 45 -50z"/>
<path fill="#ffffff" stroke="none" d="M6163 4723 c24 -63 29 -101 17 -138 -6
-19 -18 -35 -26 -35 -24 0 -67 26 -97 58 l-29 30 41 7 c62 10 60 25 -3 25 -31
0 -56 3 -56 8 0 7 119 81 131 82 4 0 14 -17 22 -37z"/>
<path fill="#ffffff" stroke="none" d="M3520 4658 c-10 -54 -5 -60 13 -17 13
34 14 33 20 -50 4 -47 5 -86 3 -89 -6 -6 -96 111 -96 124 0 12 53 74 63 74 2
0 1 -19 -3 -42z"/>
<path fill="#ffffff" stroke="none" d="M5925 4648 c6 -5 10 -42 10 -82 0 -65
-3 -77 -29 -110 -21 -29 -34 -37 -51 -34 -12 3 -82 40 -155 84 l-132 78 64 11
c61 11 140 44 153 65 8 13 125 3 140 -12z"/>
<path fill="#ffffff" stroke="none" d="M6017 4613 c32 -31 74 -63 93 -71 l35
-14 -45 -39 c-59 -51 -135 -89 -179 -89 l-34 0 20 23 c42 45 55 86 51 151 -3
34 -8 69 -13 79 -14 32 14 17 72 -40z"/>
<path fill="#ffffff" stroke="none" d="M5369 4588 c74 -69 80 -78 54 -78 -10
0 -50 32 -88 70 -89 90 -61 97 34 8z"/>
<path fill="#ffffff" stroke="none" d="M5556 4554 c47 -37 82 -70 77 -75 -4
-4 -20 -10 -34 -14 -22 -5 -37 3 -89 47 -34 29 -74 62 -88 73 l-26 19 25 7
c43 12 49 10 135 -57z"/>
<path fill="#ffffff" stroke="none" d="M5501 4464 c29 -31 31 -35 9 -24 -48
25 -70 42 -64 51 9 15 19 10 55 -27z"/>
<path fill="#ffffff" stroke="none" d="M5722 4433 l53 -38 -48 -3 c-35 -2 -58
3 -87 19 -22 13 -40 26 -40 29 0 4 15 12 33 18 17 5 33 10 34 11 2 1 27 -16
55 -36z"/>
<path fill="#ffffff" stroke="none" d="M6090 2779 c39 -78 70 -153 69 -168 0
-32 1 -34 -90 134 -50 93 -69 136 -64 152 3 13 8 23 10 23 3 0 37 -64 75 -141z"/>
<path fill="#ffffff" stroke="none" d="M4563 2850 c4 -16 9 -59 13 -94 6 -62
5 -68 -22 -103 -16 -21 -45 -69 -65 -107 l-37 -69 5 159 5 159 42 41 c22 23
44 42 47 42 4 1 9 -11 12 -28z"/>
<path fill="#ffffff" stroke="none" d="M6060 2720 c38 -77 70 -144 70 -149 0
-5 -14 -11 -32 -15 -54 -11 -118 -55 -149 -104 l-29 -45 -14 34 c-8 19 -35 81
-60 139 l-45 105 22 14 c12 8 54 47 92 87 39 40 71 73 72 74 2 0 34 -63 73
-140z"/>
<path fill="#ffffff" stroke="none" d="M3690 2673 c-12 -90 -29 -156 -30 -111
0 20 18 164 26 197 3 13 7 21 10 18 3 -3 0 -50 -6 -104z"/>
<path fill="#ffffff" stroke="none" d="M4435 2513 c-7 -71 -7 -72 -28 -58 -46
29 -139 48 -204 42 -64 -6 -172 -47 -194 -73 -24 -29 -29 -10 -29 116 l0 130
83 0 c111 0 207 22 297 67 l75 38 3 -95 c2 -52 0 -127 -3 -167z"/>
<path fill="#ffffff" stroke="none" d="M3780 2724 c30 -14 81 -32 115 -38 l60
-13 3 -126 c1 -70 0 -127 -4 -127 -4 0 -22 16 -41 35 -47 49 -87 67 -161 73
l-64 5 6 31 c3 17 8 58 11 91 6 58 14 95 19 95 1 0 27 -12 56 -26z"/>
<path fill="#ffffff" stroke="none" d="M5828 2573 c22 -54 47 -115 56 -135
l16 -37 -88 6 c-76 5 -94 3 -140 -17 -32 -14 -68 -40 -92 -68 -39 -44 -40 -44
-49 -21 -16 43 -91 261 -91 265 0 2 17 4 38 4 56 0 148 26 227 65 39 18 73 34
76 34 3 1 24 -43 47 -96z"/>
<path fill="#ffffff" stroke="none" d="M4604 2485 l14 -149 -57 -57 c-31 -31
-67 -75 -81 -97 -14 -23 -28 -42 -32 -42 -4 0 -4 64 -1 143 6 137 7 145 41
212 40 82 94 163 99 149 1 -5 9 -76 17 -159z"/>
<path fill="#ffffff" stroke="none" d="M5357 2573 l61 -6 44 -126 c25 -69 43
-128 42 -130 -2 -2 -18 9 -36 24 -43 37 -89 55 -136 55 l-38 0 -22 93 c-27
112 -27 111 1 103 12 -3 50 -9 84 -13z"/>
<path fill="#ffffff" stroke="none" d="M6258 2422 c66 -146 84 -202 64 -202
-4 0 -18 28 -31 63 -13 34 -46 109 -73 166 -26 57 -48 110 -48 117 0 38 23 0
88 -144z"/>
<path fill="#ffffff" stroke="none" d="M6164 2513 c15 -29 136 -312 136 -318
0 -2 -15 -7 -32 -10 -79 -17 -141 -69 -168 -139 -6 -16 -12 -27 -14 -25 -2 2
-37 84 -79 181 l-75 178 20 40 c22 44 63 80 118 104 53 23 77 20 94 -11z"/>
<path fill="#ffffff" stroke="none" d="M3666 2493 c-7 -34 -36 -249 -36 -265
0 -6 -3 -9 -6 -5 -9 9 29 297 39 297 5 0 6 -12 3 -27z"/>
<path fill="#ffffff" stroke="none" d="M3831 2485 c19 -10 53 -36 77 -58 l42
-41 -1 -116 c-1 -63 -4 -125 -8 -138 l-6 -23 -30 31 c-55 58 -147 89 -213 71
-20 -6 -38 -9 -40 -7 -3 4 24 230 34 280 6 28 7 28 59 23 29 -3 68 -13 86 -22z"/>
<path fill="#ffffff" stroke="none" d="M4325 2464 c98 -25 105 -32 105 -117 0
-39 -3 -109 -6 -154 l-7 -82 -51 21 c-80 33 -238 31 -331 -5 -38 -14 -70 -25
-71 -24 -1 1 1 64 6 140 9 154 5 147 94 193 84 44 167 53 261 28z"/>
<path fill="#ffffff" stroke="none" d="M5880 2380 c34 -10 37 -15 108 -186 41
-97 72 -178 69 -180 -2 -2 -24 3 -48 11 -112 40 -223 27 -317 -36 l-43 -29 -8
23 c-5 12 -29 79 -52 149 l-44 127 40 41 c78 80 189 110 295 80z"/>
<path fill="#ffffff" stroke="none" d="M5405 2350 c23 -11 60 -37 82 -58 35
-32 46 -54 86 -176 26 -77 45 -141 43 -143 -2 -2 -20 6 -39 17 -44 26 -117 29
-152 6 -13 -9 -26 -12 -29 -7 -3 4 -24 84 -46 177 -23 93 -44 177 -46 187 -7
24 47 23 101 -3z"/>
<path fill="#ffffff" stroke="none" d="M4624 2228 c3 -40 8 -109 11 -153 l5
-80 -42 -30 c-38 -27 -98 -93 -140 -155 -16 -24 -17 -19 -17 125 l-1 150 39
61 c44 66 118 154 131 154 4 0 10 -33 14 -72z"/>
<path fill="#ffffff" stroke="none" d="M6445 1981 c69 -173 86 -226 80 -248
l-7 -28 -13 25 c-7 14 -47 116 -89 227 -69 184 -91 263 -68 249 5 -3 48 -104
97 -225z"/>
<path fill="#ffffff" stroke="none" d="M3596 2002 c-14 -90 -27 -166 -30 -169
-19 -19 -13 65 13 195 17 84 32 156 32 160 1 4 3 0 5 -8 3 -8 -7 -89 -20 -178z"/>
<path fill="#ffffff" stroke="none" d="M3825 2166 c28 -13 65 -39 83 -58 l33
-35 -21 -169 c-12 -93 -24 -172 -26 -176 -3 -4 -25 8 -50 27 -55 42 -99 55
-187 55 -65 0 -67 1 -62 23 8 39 23 140 35 237 7 52 17 101 22 108 18 21 117
15 173 -12z"/>
<path fill="#ffffff" stroke="none" d="M6377 1988 c39 -101 80 -206 91 -235
l21 -51 -49 -7 c-65 -9 -110 -40 -135 -92 -11 -23 -22 -42 -25 -42 -3 0 -45
96 -94 215 -98 238 -97 233 -39 312 29 39 99 77 149 81 6 1 43 -81 81 -181z"/>
<path fill="#ffffff" stroke="none" d="M4383 2107 l37 -16 0 -74 c0 -41 -3
-114 -6 -164 l-7 -90 -66 19 c-99 28 -244 21 -331 -16 -104 -44 -100 -44 -89
3 8 35 39 278 39 304 0 8 34 23 100 43 63 19 272 13 323 -9z"/>
<path fill="#ffffff" stroke="none" d="M6021 2001 l57 -22 90 -217 c50 -119
89 -218 88 -220 -2 -1 -27 9 -57 22 -123 56 -203 55 -347 -2 -35 -13 -64 -23
-66 -21 -5 6 -126 386 -126 396 0 14 68 55 123 75 65 23 158 19 238 -11z"/>
<path fill="#ffffff" stroke="none" d="M5598 1958 c35 -24 40 -34 94 -199 78
-240 75 -228 52 -208 -50 43 -108 63 -186 63 l-78 1 -6 35 c-6 32 -59 254 -70
291 -7 24 60 50 114 45 23 -2 59 -15 80 -28z"/>
<path fill="#ffffff" stroke="none" d="M4659 1729 l10 -185 -58 -60 c-32 -33
-78 -90 -103 -127 l-45 -68 -7 38 c-3 21 -9 124 -12 228 l-7 190 48 64 c26 36
70 87 98 115 l51 51 7 -30 c4 -17 12 -114 18 -216z"/>
<path fill="#ffffff" stroke="none" d="M3556 1805 c9 -36 -32 -155 -77 -225
-38 -58 -114 -127 -190 -169 -38 -22 -39 -22 -39 -2 0 13 28 41 83 83 99 77
138 133 175 249 15 49 30 89 34 89 4 0 10 -11 14 -25z"/>
<path fill="#ffffff" stroke="none" d="M3790 1766 c50 -26 90 -66 90 -91 0
-44 -87 -322 -131 -417 l-12 -28 -63 59 c-85 80 -149 105 -271 105 -51 1 -93
1 -93 2 0 0 24 17 53 37 29 20 67 51 84 69 45 47 100 143 120 208 9 30 21 61
27 69 15 19 150 10 196 -13z"/>
<path fill="#ffffff" stroke="none" d="M4360 1758 c43 -13 45 -16 47 -53 1
-22 8 -124 14 -228 7 -103 9 -190 7 -193 -3 -3 -22 6 -43 20 -158 107 -409 90
-582 -41 -18 -13 -33 -23 -33 -21 0 2 14 39 30 83 27 71 70 213 100 333 9 36
17 45 61 67 85 44 144 55 254 51 55 -3 120 -11 145 -18z"/>
<path fill="#ffffff" stroke="none" d="M6608 1541 c33 -95 56 -169 51 -164
-16 16 -129 286 -129 308 0 20 10 39 16 32 2 -2 30 -81 62 -176z"/>
<path fill="#ffffff" stroke="none" d="M6550 1558 c69 -159 115 -253 152 -305
l29 -43 -61 0 c-74 0 -126 -20 -161 -62 l-27 -32 -45 89 c-91 183 -140 306
-134 341 11 63 56 106 132 125 60 14 60 15 115 -113z"/>
<path fill="#ffffff" stroke="none" d="M5638 1585 c28 -9 70 -30 93 -48 62
-47 79 -114 85 -332 l5 -170 -23 30 c-47 62 -124 134 -151 140 -43 11 -94 -3
-134 -38 l-36 -32 7 71 c4 38 7 140 7 226 0 138 2 157 17 161 35 9 80 7 130
-8z"/>
<path fill="#ffffff" stroke="none" d="M6198 1544 l74 -30 43 -100 c23 -54 65
-148 93 -207 33 -70 46 -107 36 -103 -188 72 -357 69 -497 -10 -24 -13 -54
-35 -67 -49 -13 -14 -27 -25 -32 -25 -4 0 -8 55 -8 123 0 139 -14 266 -35 326
-14 40 -13 42 11 58 91 59 259 67 382 17z"/>
<path fill="#ffffff" stroke="none" d="M4679 1429 c1 -20 12 -127 26 -239 14
-111 28 -242 32 -290 l6 -87 -69 -25 c-83 -30 -242 -73 -249 -66 -2 2 0 20 5
39 16 61 30 225 30 358 l0 129 49 74 c27 40 73 98 102 127 47 49 53 53 60 35
4 -10 8 -35 8 -55z"/>
<path fill="#ffffff" stroke="none" d="M3225 1391 c-3 -11 -39 -38 -83 -62
-106 -58 -208 -123 -265 -171 -52 -43 -51 -43 -61 -12 -5 16 1 27 27 46 42 33
380 228 385 223 2 -2 1 -13 -3 -24z"/>
<path fill="#ffffff" stroke="none" d="M3519 1361 c91 -28 201 -117 201 -163
0 -13 -161 -337 -173 -348 -3 -3 -24 23 -47 57 -55 83 -130 149 -215 189 -110
52 -217 60 -380 29 l-40 -8 30 25 c80 67 339 222 386 231 63 12 180 6 238 -12z"/>
<path fill="#ffffff" stroke="none" d="M4317 1316 c31 -15 73 -39 91 -53 l34
-26 -5 -196 c-3 -108 -10 -216 -16 -241 -6 -25 -13 -55 -16 -67 -7 -30 -35
-33 -70 -7 -47 34 -144 79 -215 99 -79 23 -316 26 -453 6 -48 -7 -90 -11 -93
-8 -3 2 36 87 86 188 101 205 115 222 229 277 105 51 160 62 273 58 78 -3 108
-9 155 -30z"/>
<path fill="#ffffff" stroke="none" d="M5658 1176 c39 -21 85 -72 126 -140
l36 -60 0 -203 c0 -112 -3 -203 -6 -203 -3 0 -28 7 -55 16 -59 20 -147 14
-186 -11 -13 -9 -26 -15 -29 -13 -17 18 -65 390 -64 502 1 46 19 74 71 105 40
25 70 26 107 7z"/>
<path fill="#ffffff" stroke="none" d="M6776 1146 c35 -40 180 -254 189 -278
5 -12 -6 -16 -50 -21 -67 -7 -127 -40 -179 -97 -21 -23 -39 -40 -41 -38 -1 1
-19 39 -39 83 -20 44 -64 129 -98 188 l-61 109 20 26 c34 47 99 74 167 69 54
-3 63 -7 92 -41z"/>
<path fill="#ffffff" stroke="none" d="M2788 1080 c-104 -142 -131 -206 -174
-418 -9 -46 -29 -16 -27 41 3 103 89 306 171 407 l37 45 3 -28 c2 -16 -2 -37
-10 -47z"/>
<path fill="#ffffff" stroke="none" d="M6402 1095 l77 -27 44 -76 c62 -108
139 -263 133 -269 -2 -3 -24 7 -48 20 -105 62 -248 87 -370 67 -128 -22 -231
-74 -333 -171 -65 -61 -63 -67 -65 169 l-1 177 33 31 c47 44 77 60 160 89 65
23 84 25 183 21 86 -3 127 -10 187 -31z"/>
<path fill="#ffffff" stroke="none" d="M3187 1106 c120 -32 228 -110 305 -221
l49 -70 -16 -45 c-9 -25 -25 -81 -35 -124 -11 -44 -23 -83 -27 -87 -11 -9
-265 -29 -379 -29 -157 0 -335 29 -414 68 -32 16 -35 20 -32 57 8 114 89 314
159 393 32 37 47 46 98 57 81 17 228 18 292 1z"/>
<path fill="#ffffff" stroke="none" d="M7029 753 c48 -97 87 -203 112 -310 18
-76 27 -178 17 -188 -8 -8 -221 -54 -284 -61 l-61 -6 -6 98 c-6 100 -37 233
-76 333 -12 29 -19 62 -16 72 10 29 102 106 148 122 23 9 61 16 84 16 l43 1
39 -77z"/>
<path fill="#ffffff" stroke="none" d="M4155 788 c91 -33 177 -76 171 -87 -3
-4 -30 -11 -60 -15 -31 -3 -142 -22 -248 -42 -207 -39 -482 -84 -510 -84 -10
0 -18 5 -18 11 0 17 58 202 69 218 14 21 121 30 336 27 174 -3 196 -5 260 -28z"/>
<path fill="#ffffff" stroke="none" d="M5500 680 c10 -58 22 -115 26 -127 10
-35 -13 -28 -36 9 -17 28 -20 50 -19 143 1 61 3 103 5 95 2 -8 13 -62 24 -120z"/>
<path fill="#ffffff" stroke="none" d="M6522 760 c108 -37 156 -74 185 -145
43 -109 74 -237 80 -337 l6 -96 -79 -8 c-252 -24 -756 19 -811 70 -13 12 -53
224 -53 281 0 70 198 215 342 251 81 20 248 13 330 -16z"/>
<path fill="#ffffff" stroke="none" d="M5786 559 c33 -10 44 -30 44 -84 0 -16
9 -73 20 -125 10 -52 18 -96 16 -97 -5 -5 -57 18 -89 40 -15 11 -40 38 -54 61
-36 58 -82 105 -124 126 -67 35 -57 69 26 89 43 10 110 6 161 -10z"/>
<path fill="#000000" stroke="none" d="M5236 3041 c72 -124 205 -185 322 -147
53 18 113 67 62 52 -39 -12 -146 -19 -184 -12 -33 6 -117 57 -185 113 l-35 28
20 -34z"/>
<path fill="#000000" stroke="none" d="M7669 3511 c-92 -30 -149 -103 -149
-192 0 -30 11 -62 41 -116 23 -41 39 -77 36 -80 -3 -2 -32 14 -65 37 -43 30
-65 40 -80 36 -30 -10 -172 -164 -172 -187 0 -11 7 -33 15 -49 l15 -30 -80 3
c-56 1 -80 6 -80 15 0 14 -36 16 -45 2 -8 -12 -68 -13 -80 -1 -6 5 -33 12 -62
16 l-51 7 -82 -83 c-79 -82 -94 -113 -55 -115 11 -1 27 -4 35 -7 8 -3 34 -8
58 -10 24 -3 47 -8 50 -12 4 -4 -17 -28 -46 -54 -28 -25 -52 -52 -52 -59 0 -7
19 -33 41 -57 38 -41 46 -45 89 -45 39 0 51 -5 73 -30 25 -28 30 -29 91 -26
36 2 74 10 85 18 33 23 83 11 108 -27 28 -42 59 -48 178 -32 40 5 55 -1 66
-29 6 -17 17 -24 36 -25 90 -3 239 -27 274 -45 27 -14 45 -17 137 -29 50 -7
53 -9 48 -30 -11 -45 8 -60 89 -70 6 -1 24 6 42 16 31 17 32 17 47 -7 23 -33
74 -57 121 -56 43 2 96 20 107 36 4 6 10 8 13 4 3 -3 -8 -28 -24 -56 -45 -73
-42 -88 23 -107 47 -14 104 -14 127 0 4 3 9 0 11 -6 2 -6 19 -14 37 -18 22 -4
35 -13 37 -25 4 -26 7 -28 92 -56 55 -18 80 -31 87 -47 6 -14 52 -44 126 -82
113 -59 116 -61 111 -91 -6 -44 34 -82 100 -94 13 -2 41 -16 62 -30 22 -14 56
-31 77 -36 32 -9 39 -15 39 -35 0 -75 49 -127 151 -160 101 -33 131 -32 170 3
26 23 32 38 37 83 3 30 11 59 19 64 17 13 27 74 19 119 -11 55 -49 94 -114
112 -80 23 -86 34 -20 34 37 0 62 5 72 15 8 8 27 67 42 130 l27 116 81 67
c128 106 128 106 124 138 -2 23 -16 37 -73 72 -61 37 -75 42 -110 37 -39 -5
-41 -4 -53 29 -10 27 -29 44 -91 80 -43 25 -85 46 -94 46 -9 0 -20 6 -24 13
-12 20 -286 177 -309 177 -10 0 -28 -7 -38 -15 -28 -21 -33 -19 -55 23 -11 20
-39 55 -63 78 -45 43 -264 174 -290 174 -9 0 -21 7 -29 16 -16 19 -176 115
-201 119 -10 2 -31 -7 -46 -20 l-29 -24 -12 38 c-16 55 -71 103 -207 182 -94
55 -125 69 -147 64 -25 -4 -39 4 -98 58 -89 81 -178 127 -256 133 -32 2 -70 0
-84 -5z"/>
<path fill="#ffffff" stroke="none" d="M7837 3460 c68 -30 203 -135 203 -158
0 -4 -29 -42 -65 -84 -40 -48 -71 -75 -79 -72 -8 3 -22 26 -31 50 -21 56 -86
127 -112 122 -31 -6 -25 -33 21 -95 74 -98 82 -139 41 -209 -30 -51 -107 -94
-169 -94 -80 0 -301 51 -325 75 -12 12 -4 25 59 89 40 42 81 76 90 76 9 0 25
-9 36 -21 25 -28 87 -59 118 -59 49 0 44 46 -14 120 -63 82 -73 126 -40 190
47 92 154 120 267 70z"/>
<path fill="#ffffff" stroke="none" d="M8283 3206 c120 -70 152 -111 152 -195
0 -46 -5 -63 -28 -93 -31 -40 -89 -68 -141 -68 -20 0 -63 15 -100 34 l-66 35
-42 -60 c-33 -46 -48 -59 -67 -59 -36 0 -214 55 -218 67 -2 5 34 57 79 115 46
57 119 150 163 205 44 56 87 103 95 106 16 4 20 2 173 -87z"/>
<path fill="#ffffff" stroke="none" d="M8636 3003 c62 -36 84 -53 83 -68 0
-33 -172 -329 -192 -333 -18 -4 -214 75 -223 90 -7 10 6 32 120 207 55 83 106
151 114 151 8 0 52 -21 98 -47z"/>
<path fill="#ffffff" stroke="none" d="M6953 2944 c-1 -5 15 -9 35 -9 25 0 36
-4 34 -13 -2 -10 2 -10 19 -2 11 7 28 9 36 6 9 -4 25 2 36 11 15 13 19 14 15
4 -2 -8 -25 -33 -51 -55 -45 -38 -48 -38 -66 -22 -16 14 -23 15 -40 6 -23 -12
-20 -30 5 -30 8 0 14 -5 14 -10 0 -6 -11 -8 -27 -4 -25 7 -27 6 -14 -9 17 -21
7 -47 -18 -47 -31 0 -51 11 -44 24 4 7 1 6 -9 -2 -10 -8 -23 -9 -38 -4 -19 7
-20 9 -6 21 18 15 21 31 7 31 -5 0 -24 -12 -41 -26 -47 -40 -47 -21 0 23 44
39 68 54 56 34 -4 -6 0 -18 8 -27 14 -14 18 -13 40 3 30 22 42 45 19 36 -11
-4 -14 -2 -9 5 5 8 2 10 -8 6 -9 -3 -24 -3 -33 1 -15 5 -13 11 17 36 33 27 67
34 63 13z"/>
<path fill="#ffffff" stroke="none" d="M7298 2894 c38 -5 52 -10 48 -20 -3 -7
-50 -81 -106 -163 l-100 -151 -65 0 c-36 0 -65 4 -65 8 0 4 13 23 30 42 16 19
29 38 30 43 0 16 -58 6 -75 -13 -14 -16 -31 -20 -77 -20 -32 0 -58 4 -58 9 0
5 28 33 63 62 34 30 64 56 67 59 3 3 32 27 65 55 33 27 62 52 65 55 28 31 67
50 94 46 17 -3 55 -8 84 -12z"/>
<path fill="#ffffff" stroke="none" d="M8901 2849 c118 -66 177 -118 208 -183
28 -57 27 -108 -4 -165 -33 -59 -82 -93 -145 -99 -47 -4 -60 1 -215 79 -90 46
-167 89 -169 95 -7 18 184 334 202 334 8 0 64 -27 123 -61z"/>
<path fill="#ffffff" stroke="none" d="M7458 2821 c11 -7 10 -16 -7 -49 -12
-23 -21 -44 -21 -47 0 -4 29 16 65 45 62 49 66 51 110 45 25 -4 45 -10 45 -13
0 -8 -210 -285 -226 -298 -15 -12 -96 -4 -101 11 -2 6 13 28 32 50 35 39 60
75 52 75 -2 0 -17 -11 -33 -25 -30 -26 -52 -28 -45 -4 2 8 6 23 9 34 2 12 -9
2 -29 -22 -27 -34 -39 -43 -64 -42 -75 1 -73 7 40 132 86 95 111 117 133 117
15 0 33 -4 40 -9z"/>
<path fill="#ffffff" stroke="none" d="M7827 2752 c8 -5 -14 -53 -74 -160
l-86 -152 -36 0 c-61 0 -69 13 -37 54 41 54 21 75 -31 33 -22 -18 -37 -23 -68
-19 -22 2 -41 5 -42 5 -3 4 67 80 155 171 l87 88 60 -7 c33 -3 65 -10 72 -13z"/>
<path fill="#ffffff" stroke="none" d="M8059 2674 c2 -2 -15 -26 -38 -53 -34
-40 -55 -55 -114 -77 l-72 -28 48 -9 c26 -5 47 -14 47 -21 0 -25 -51 -87 -68
-82 -9 2 -50 10 -90 17 -40 7 -75 16 -78 21 -3 5 8 31 26 58 28 44 39 52 118
83 l87 35 -48 7 -48 7 28 37 c15 20 31 39 35 42 7 5 157 -28 167 -37z"/>
<path fill="#ffffff" stroke="none" d="M9369 2579 c77 -44 142 -86 144 -93 10
-25 -5 -96 -20 -96 -7 0 -36 12 -64 26 -83 42 -109 12 -36 -41 45 -33 54 -56
37 -99 l-10 -27 -55 31 c-52 30 -55 30 -55 11 0 -14 21 -36 64 -67 36 -26 67
-53 70 -61 9 -23 -15 -103 -31 -103 -15 0 -315 219 -328 239 -4 7 7 48 24 92
17 43 45 116 63 162 29 76 45 107 54 107 2 0 67 -36 143 -81z"/>
<path fill="#ffffff" stroke="none" d="M8148 2615 c3 -3 -8 -25 -25 -49 -17
-24 -54 -78 -83 -120 -47 -68 -55 -76 -83 -75 -74 1 -73 5 26 137 91 122 93
124 126 118 18 -3 36 -8 39 -11z"/>
<path fill="#ffffff" stroke="none" d="M8213 2569 c12 -7 23 -13 25 -14 1 -1
-6 -27 -17 -58 -22 -69 -13 -65 35 13 38 63 55 71 97 48 12 -7 23 -14 25 -14
3 -2 -173 -252 -195 -276 -15 -16 -66 -16 -85 1 -4 3 4 37 17 74 26 71 26 87
0 37 -12 -24 -22 -30 -48 -30 -54 0 -64 13 -36 49 13 16 48 64 78 105 55 78
66 84 104 65z"/>
<path fill="#ffffff" stroke="none" d="M8490 2495 c45 -23 64 -77 41 -114 -12
-19 -50 -4 -63 25 -23 50 -82 22 -115 -54 -12 -30 -12 -37 2 -58 16 -25 39
-31 50 -14 3 6 -1 13 -9 16 -20 8 -21 48 -1 64 20 17 115 -16 115 -40 0 -23
-49 -85 -84 -105 -38 -23 -101 -15 -134 19 -35 35 -35 101 0 153 35 52 77 93
113 109 39 17 50 17 85 -1z"/>
<path fill="#ffffff" stroke="none" d="M9635 2426 l70 -42 10 -73 10 -73 40
36 c22 19 46 36 54 36 21 0 131 -63 131 -76 0 -6 -47 -50 -104 -98 l-103 -86
-28 -120 c-16 -66 -34 -120 -40 -120 -6 0 -44 34 -85 75 l-75 75 34 98 34 98
-20 152 c-10 84 -17 154 -15 157 8 8 13 6 87 -39z"/>
<path fill="#ffffff" stroke="none" d="M8765 2373 c41 -21 75 -41 75 -46 0 -7
-16 -34 -46 -75 -1 -2 -25 5 -53 15 -46 16 -53 16 -61 3 -7 -12 -2 -18 23 -28
42 -18 42 -16 20 -52 -16 -28 -22 -31 -50 -25 -31 6 -35 3 -69 -51 -35 -55
-37 -56 -72 -49 -21 4 -40 10 -43 13 -7 9 180 332 192 332 5 0 42 -17 84 -37z"/>
<path fill="#ffffff" stroke="none" d="M8928 2256 c41 -21 66 -59 58 -89 -10
-41 -44 -76 -78 -79 -30 -3 -33 -6 -46 -63 -8 -33 -16 -62 -18 -64 -2 -2 -19
0 -40 3 -39 8 -39 5 -17 106 4 22 2 21 -16 -8 -15 -23 -27 -32 -37 -28 -9 3
-25 6 -36 6 -26 0 -24 4 66 137 84 123 81 122 164 79z"/>
<path fill="#ffffff" stroke="none" d="M9090 2138 c0 -9 -74 -126 -137 -217
-6 -8 -83 20 -83 30 0 10 41 69 122 176 40 52 40 52 69 37 16 -8 29 -20 29
-26z"/>
<path fill="#ffffff" stroke="none" d="M9198 2072 c28 -19 52 -37 52 -42 0 -4
-8 -18 -18 -30 -17 -22 -19 -22 -50 -6 -46 24 -61 19 -27 -8 29 -23 29 -24 11
-50 -17 -27 -18 -27 -43 -11 -18 12 -28 14 -36 6 -7 -7 3 -17 36 -31 26 -12
47 -26 47 -32 0 -14 -40 -78 -48 -78 -7 0 -153 78 -161 86 -3 2 17 37 44 77
94 139 116 167 128 160 7 -5 36 -23 65 -41z"/>
<path fill="#ffffff" stroke="none" d="M9320 1935 c0 -11 -5 -37 -11 -58 -16
-60 -3 -55 30 12 17 34 35 61 41 61 5 0 21 -10 35 -22 l26 -23 -76 -135 c-41
-74 -79 -136 -84 -138 -13 -4 -71 26 -71 38 0 5 4 19 9 32 4 13 11 41 15 63
l6 40 -15 -27 c-9 -16 -18 -28 -21 -28 -8 0 -64 30 -64 35 0 5 53 96 92 157
l30 48 29 -17 c17 -10 29 -26 29 -38z"/>
<path fill="#ffffff" stroke="none" d="M9497 1828 c54 -57 63 -77 63 -142 0
-50 -4 -60 -34 -93 -45 -49 -92 -51 -159 -4 -26 17 -47 35 -47 38 0 11 124
243 130 243 3 0 24 -19 47 -42z"/>
<path fill="#ffffff" stroke="none" d="M9703 1674 c14 -14 29 -39 32 -55 7
-32 -2 -89 -14 -89 -17 0 -46 43 -43 64 2 13 -4 28 -12 35 -31 26 -28 -15 4
-80 27 -52 31 -71 27 -108 -6 -52 -33 -81 -77 -81 -58 0 -120 98 -104 167 12
56 12 56 44 36 23 -13 30 -24 30 -48 0 -33 15 -55 37 -55 21 0 15 37 -13 79
-36 56 -43 112 -15 140 29 29 72 27 104 -5z"/>
<path fill="#000000" stroke="none" d="M8196 3058 c-22 -30 -20 -35 12 -46 51
-18 85 24 45 54 -26 19 -40 17 -57 -8z"/>
<path fill="#000000" stroke="none" d="M6920 2940 c-13 -8 -12 -10 3 -10 9 0
17 5 17 10 0 12 -1 12 -20 0z"/>
<path fill="#000000" stroke="none" d="M6970 2920 c-12 -8 -11 -10 8 -10 12 0
22 5 22 10 0 13 -11 13 -30 0z"/>
<path fill="#000000" stroke="none" d="M7040 2894 c0 -14 3 -14 15 -4 8 7 15
14 15 16 0 2 -7 4 -15 4 -8 0 -15 -7 -15 -16z"/>
<path fill="#000000" stroke="none" d="M7143 2779 c-49 -45 -50 -49 -24 -49
10 0 35 20 55 45 46 56 26 59 -31 4z"/>
<path fill="#000000" stroke="none" d="M8855 2650 c-14 -27 -14 -30 5 -40 52
-28 90 10 51 49 -28 28 -38 26 -56 -9z"/>
<path fill="#000000" stroke="none" d="M7685 2669 c-14 -17 -23 -34 -20 -38 7
-7 55 45 55 60 0 15 -7 11 -35 -22z"/>
<path fill="#000000" stroke="none" d="M8851 2197 c-19 -19 -12 -28 22 -25 17
2 31 7 30 13 -3 15 -40 24 -52 12z"/>
<path fill="#000000" stroke="none" d="M9440 1710 c-28 -59 -19 -82 24 -62 28
13 41 49 32 87 -10 39 -30 30 -56 -25z"/>
<path fill="#000000" stroke="none" d="M8589 3295 l-76 -134 340 -197 c259
-149 342 -193 348 -182 35 54 151 260 148 262 -14 12 -670 386 -676 386 -5 -1
-42 -61 -84 -135z"/>
<path fill="#ffffff" stroke="none" d="M8710 3382 l22 -17 -22 -55 -21 -55 43
47 c43 48 43 48 67 30 l23 -19 -24 -39 c-45 -73 -79 -134 -74 -134 3 0 32 36
66 80 l62 79 29 -15 c16 -8 29 -16 29 -18 0 -3 -16 -42 -35 -87 -38 -89 -40
-118 -4 -47 12 23 33 60 46 81 l24 38 30 -18 c17 -10 37 -29 44 -43 8 -14 14
-19 15 -12 0 16 12 15 34 -1 17 -12 16 -16 -8 -71 -15 -33 -25 -61 -23 -62 2
-2 20 19 40 46 21 28 42 50 48 50 6 0 33 -12 60 -27 37 -21 49 -33 45 -46 -3
-14 -1 -16 9 -7 14 11 45 4 45 -12 0 -5 -23 -48 -51 -96 -46 -78 -49 -87 -34
-98 13 -10 14 -16 5 -34 l-11 -21 -39 22 -40 23 36 65 c19 36 29 58 21 49 -11
-14 -16 -15 -26 -5 -10 9 -17 7 -32 -13 -19 -22 -19 -25 -5 -36 18 -13 20 -23
7 -43 -7 -11 -15 -10 -45 8 -20 13 -36 27 -36 33 0 6 15 36 34 67 73 121 70
125 -13 19 -55 -71 -60 -74 -91 -58 -18 10 -18 12 5 75 30 80 30 79 2 60 -13
-8 -28 -33 -35 -60 -12 -47 -17 -51 -41 -36 -12 8 -13 16 -2 51 15 51 8 63
-13 22 -22 -43 -32 -46 -71 -22 -28 17 -34 26 -29 44 7 29 -21 43 -35 19 -7
-14 -13 -15 -40 -4 -46 20 -56 36 -37 63 27 38 18 44 -13 8 -24 -29 -30 -32
-36 -18 -4 9 -2 25 4 37 20 36 11 47 -10 14 -12 -18 -24 -33 -27 -33 -14 0
-34 18 -31 27 11 28 125 223 130 223 4 0 17 -8 29 -18z"/>
<path fill="#000000" stroke="none" d="M8806 3166 c-17 -22 -22 -37 -15 -41 6
-4 11 -5 12 -4 10 15 36 79 33 79 -2 0 -15 -15 -30 -34z"/>
<path fill="#000000" stroke="none" d="M8937 3149 c-20 -35 -15 -49 11 -33 17
11 30 64 15 64 -4 0 -16 -14 -26 -31z"/>
<path fill="#000000" stroke="none" d="M9160 3029 c-7 -11 -10 -22 -8 -23 2
-1 11 -7 20 -15 14 -11 19 -8 32 17 14 27 14 31 0 36 -25 10 -33 7 -44 -15z"/>
</g>
</svg>
