<?xml version="1.0" standalone="no"?>
<!DOCTYPE svg PUBLIC "-//W3C//DTD SVG 20010904//EN"
 "http://www.w3.org/TR/2001/REC-SVG-20010904/DTD/svg10.dtd">
<svg version="1.0" xmlns="http://www.w3.org/2000/svg"
 width="740.000000pt" height="956.000000pt" viewBox="0 0 740.000000 956.000000"
 preserveAspectRatio="xMidYMid meet">
<metadata>
Created by potrace 1.16, written by Peter Selinger 2001-2019
</metadata>
<g transform="translate(0.000000,956.000000) scale(0.100000,-0.100000)"
fill="#000000" stroke="none">
<path fill="#000000" stroke="none" d="M0 4780 l0 -4780 3700 0 3700 0 0 4780
0 4780 -3700 0 -3700 0 0 -4780z"/>
<path fill="#ffffff" stroke="none" d="M4063 9338 c5 -233 20 -339 82 -573
162 -617 546 -1391 1143 -2305 l115 -175 1 -90 c1 -66 6 -99 20 -124 16 -30
17 -40 6 -91 -8 -40 -9 -67 -2 -93 6 -20 7 -37 3 -37 -4 0 -72 23 -152 51
-163 57 -430 145 -564 185 -71 21 -111 27 -190 27 -115 1 -172 -13 -234 -55
l-44 -29 6 93 c61 871 1 1440 -185 1761 -48 83 -150 193 -234 253 -102 73
-256 135 -372 150 l-53 7 8 46 c13 77 7 241 -11 310 -33 123 -93 213 -170 254
-31 16 -59 21 -111 22 -103 0 -184 -42 -292 -150 -65 -66 -89 -99 -121 -166
-22 -46 -47 -116 -56 -155 l-17 -71 -61 -7 c-34 -3 -62 -5 -63 -4 -67 124
-181 245 -274 291 -83 41 -180 44 -252 9 -101 -49 -191 -179 -224 -322 -23
-102 -22 -100 -40 -100 -32 0 -313 -73 -408 -107 -138 -48 -262 -111 -319
-162 -86 -77 -160 -263 -199 -496 -17 -102 -17 -471 0 -580 60 -389 198 -924
302 -1177 35 -84 35 -88 9 -88 -12 0 -37 -9 -58 -19 -180 -92 -157 -383 40
-499 l56 -33 6 -92 c36 -486 174 -984 399 -1442 125 -253 285 -514 397 -645
25 -30 55 -65 66 -78 27 -33 132 -116 173 -137 19 -10 62 -25 95 -35 34 -10
95 -34 136 -53 77 -36 93 -53 144 -154 30 -59 41 -56 -229 -73 -709 -45 -1307
-146 -1538 -262 -169 -84 -196 -176 -102 -339 287 -493 751 -1012 1290 -1441
128 -101 241 -180 315 -219 65 -34 223 -34 330 -1 82 26 200 82 218 104 36 44
143 343 186 518 72 296 91 486 91 887 l0 332 80 10 c134 18 245 30 345 36 114
8 99 16 309 -160 192 -159 243 -207 581 -540 401 -395 723 -685 809 -729 51
-27 126 -31 206 -11 95 24 158 57 174 92 88 192 178 565 223 931 l23 191 60 6
c220 23 563 119 623 175 12 12 22 22 22 23 0 1 -7 23 -14 49 -8 25 -18 82 -21
126 l-7 80 58 30 c33 16 81 37 107 47 26 10 50 22 53 26 2 5 -2 32 -10 61 -21
77 -39 234 -61 538 -9 121 -50 407 -75 525 -42 198 -49 242 -60 390 -27 369
-42 536 -66 768 l-27 247 21 23 c33 36 45 102 33 189 -19 135 -79 256 -175
350 -25 25 -46 48 -46 50 0 3 21 19 46 37 62 45 167 170 218 261 87 156 127
294 129 450 2 91 -1 111 -20 146 -24 46 -57 64 -113 64 -22 0 -40 2 -40 4 0 2
22 36 49 77 54 83 112 193 141 272 30 81 216 830 260 1047 67 336 74 412 74
795 -1 194 -8 457 -17 612 -10 150 -17 280 -17 288 0 13 28 15 195 15 l195 0
0 -4770 0 -4770 -3690 0 -3690 0 0 4770 0 4770 2024 0 2024 0 5 -212z"/>
<path fill="#ffffff" stroke="none" d="M6970 9523 c0 -16 7 -138 15 -273 23
-379 29 -734 16 -905 -21 -282 -50 -438 -181 -980 -49 -203 -97 -406 -106
-450 -29 -140 -116 -317 -229 -467 -56 -74 -71 -106 -35 -73 19 18 20 17 20
-2 0 -29 -53 -97 -102 -131 -59 -40 -149 -84 -234 -115 l-71 -26 38 122 c125
392 199 790 251 1332 13 147 17 772 5 940 -17 241 -35 385 -48 385 -5 0 -7
-17 -4 -37 43 -317 58 -824 35 -1178 -34 -520 -123 -1011 -261 -1447 l-40
-127 -47 -9 c-150 -32 -263 -22 -377 32 -113 53 -148 98 -430 543 -502 793
-820 1434 -990 1998 -79 261 -114 469 -120 728 l-4 167 1449 0 1450 0 0 -27z"/>
<path fill="#ffffff" stroke="none" d="M3216 8889 c24 -11 59 -38 80 -61 109
-121 146 -384 79 -563 -32 -85 -40 -94 -30 -37 11 65 -3 118 -40 157 -26 29
-40 35 -72 35 -142 0 -222 -247 -112 -346 29 -26 97 -24 138 5 32 23 33 23 22
3 -18 -34 -134 -145 -172 -166 l-35 -19 -44 32 c-84 61 -158 64 -263 10 -33
-16 -61 -28 -63 -26 -17 17 -47 181 -51 283 -11 242 62 446 207 582 125 117
258 159 356 111z"/>
<path fill="#ffffff" stroke="none" d="M2227 8647 c73 -35 123 -77 184 -153
50 -63 134 -213 124 -222 -2 -3 -18 7 -35 21 -60 51 -133 44 -171 -15 -16 -27
-19 -45 -16 -94 7 -103 74 -182 162 -192 39 -4 48 -1 75 26 16 17 30 39 30 49
0 15 2 16 10 3 18 -28 12 -202 -10 -273 -37 -120 -95 -159 -235 -160 -230 0
-485 200 -557 436 -31 102 -22 254 20 355 52 124 135 212 231 243 44 14 133 3
188 -24z"/>
<path fill="#ffffff" stroke="none" d="M3290 8380 c16 -16 18 -24 9 -50 -14
-38 -63 -80 -95 -80 -29 0 -61 30 -70 66 -16 63 107 113 156 64z"/>
<path fill="#ffffff" stroke="none" d="M2630 8256 c0 -109 19 -242 45 -316 15
-43 15 -44 -12 -72 -40 -42 -22 -44 28 -2 110 92 230 115 311 59 95 -66 113
-182 39 -256 -73 -73 -187 -77 -265 -8 -38 32 -59 25 -23 -8 31 -29 58 -41
115 -54 149 -32 277 100 230 237 l-15 41 43 27 c48 31 143 125 181 180 14 21
41 72 60 114 l35 75 56 -7 c167 -20 346 -110 475 -241 115 -116 185 -251 238
-463 88 -349 107 -770 65 -1437 -9 -126 -20 -340 -26 -475 -12 -265 -21 -354
-50 -471 -97 -397 -388 -587 -937 -612 l-92 -4 -24 36 c-76 112 -186 184 -722
471 -115 62 -266 143 -335 180 -69 37 -163 86 -210 110 -47 23 -89 46 -95 50
-5 4 -93 50 -195 103 -191 98 -248 120 -344 132 l-55 7 -39 102 c-128 329
-263 884 -303 1236 -16 140 -5 423 20 555 39 201 103 347 185 423 52 48 165
107 291 152 97 34 387 110 421 110 19 0 22 -7 27 -68 11 -128 76 -254 191
-365 125 -120 252 -176 399 -177 138 0 207 42 248 149 27 70 36 213 20 306
-10 56 -55 209 -77 262 -6 13 15 20 64 22 l32 1 0 -104z"/>
<path fill="#ffffff" stroke="none" d="M2416 8284 c12 -46 -2 -117 -27 -137
-37 -29 -54 -19 -57 37 -4 58 11 100 41 114 32 16 36 14 43 -14z"/>
<path fill="#ffffff" stroke="none" d="M6625 6396 c94 -94 29 -437 -125 -667
-49 -72 -186 -213 -217 -223 -14 -5 -35 3 -67 24 -71 48 -176 93 -475 205
-275 102 -276 103 -290 139 -13 35 -8 126 8 126 4 0 22 -16 41 -35 18 -19 37
-32 42 -29 5 3 -10 24 -32 47 -59 60 -82 110 -88 190 -3 37 -2 67 1 67 4 0 26
-21 49 -46 140 -152 366 -188 626 -100 250 85 391 190 392 294 l0 32 55 0 c46
0 60 -4 80 -24z"/>
<path fill="#ffffff" stroke="none" d="M4731 6061 c58 -17 206 -65 330 -107
123 -41 235 -79 249 -84 209 -69 704 -256 795 -300 212 -102 339 -254 381
-451 20 -95 14 -157 -19 -208 -50 -76 -190 -119 -326 -100 -226 31 -371 149
-371 302 0 59 -176 200 -379 301 -343 173 -746 279 -1041 275 l-115 -1 3 148
c3 104 8 156 18 171 16 26 104 70 164 83 77 16 196 5 311 -29z"/>
<path fill="#ffffff" stroke="none" d="M4672 5641 c220 -45 442 -118 652 -216
87 -40 98 -48 93 -68 -3 -12 -30 -125 -60 -252 -70 -288 -103 -455 -125 -622
l-17 -130 -75 24 c-94 29 -360 98 -779 199 -312 76 -324 80 -338 108 -8 15
-17 51 -20 80 -5 47 -2 55 29 96 81 106 129 218 159 373 17 87 39 314 39 406
l0 34 173 -6 c109 -4 208 -13 269 -26z"/>
<path fill="#ffffff" stroke="none" d="M1320 5599 c36 -12 144 -63 240 -114
96 -51 231 -121 300 -157 554 -289 1017 -546 1117 -621 128 -95 223 -289 210
-428 -5 -59 -32 -122 -64 -152 -31 -28 -155 -50 -278 -49 -132 0 -226 22 -341
80 -75 38 -80 42 -97 90 -24 65 -69 116 -153 173 -360 243 -881 568 -1124 702
-117 64 -172 144 -178 260 -7 113 42 199 134 233 51 19 151 12 234 -17z"/>
<path fill="#ffffff" stroke="none" d="M5535 5311 c93 -57 189 -141 210 -182
8 -15 15 -42 15 -59 0 -44 26 -100 65 -140 58 -60 95 -209 95 -385 0 -162 -53
-322 -140 -424 l-29 -34 -79 52 c-93 61 -223 125 -346 172 l-89 33 6 76 c12
142 54 358 143 730 50 208 50 210 62 210 4 0 44 -22 87 -49z"/>
<path fill="#ffffff" stroke="none" d="M1231 5043 c12 -10 17 -34 18 -91 6
-296 151 -790 384 -1312 272 -610 492 -928 629 -908 49 7 154 188 202 348 42
141 57 246 63 435 6 185 -12 423 -41 563 -8 34 -10 62 -6 62 4 0 23 -7 42 -15
32 -13 37 -21 51 -78 98 -387 56 -922 -94 -1207 -87 -164 -149 -193 -279 -129
-166 84 -410 411 -619 829 -177 356 -303 740 -366 1114 -23 140 -45 329 -45
393 0 32 1 33 23 22 12 -6 29 -18 38 -26z"/>
<path fill="#ffffff" stroke="none" d="M1324 4990 l52 -29 23 -108 c27 -127
184 -616 275 -858 238 -630 480 -1066 634 -1138 30 -14 28 -30 -9 -72 -38 -43
-61 -44 -121 -6 -84 53 -182 188 -308 421 -291 539 -527 1173 -584 1570 -20
138 -29 250 -20 250 3 0 30 -13 58 -30z"/>
<path fill="#ffffff" stroke="none" d="M1643 4794 c347 -219 670 -433 690
-457 10 -12 32 -50 49 -85 16 -34 38 -68 47 -75 55 -38 100 -542 72 -808 -7
-62 -14 -115 -17 -118 -13 -13 -77 68 -302 384 -110 156 -273 355 -290 355 -4
0 -23 15 -42 33 -38 35 -121 97 -187 140 -36 23 -43 32 -43 60 1 83 93 128
308 149 67 7 122 16 122 20 0 4 -37 8 -82 8 -104 0 -203 21 -282 59 -147 69
-203 141 -246 312 -39 160 -41 169 -35 169 3 0 110 -66 238 -146z"/>
<path fill="#ffffff" stroke="none" d="M5957 4841 l61 -30 7 -95 c17 -225 -32
-449 -124 -571 -57 -75 -131 -116 -131 -73 0 5 15 28 34 50 42 48 88 141 113
223 34 115 21 393 -23 509 -8 21 -8 21 63 -13z"/>
<path fill="#ffffff" stroke="none" d="M6454 4720 c22 -177 53 -526 66 -720
15 -231 28 -335 60 -485 16 -72 38 -193 49 -270 21 -142 28 -214 57 -543 9
-100 23 -220 33 -267 l17 -84 -36 -15 c-84 -34 -230 -108 -292 -150 -62 -40
-68 -42 -68 -23 0 46 -31 548 -41 667 -10 128 -20 205 -64 535 -14 105 -28
240 -31 300 l-6 110 39 65 c132 215 168 505 117 920 -6 45 -6 45 37 66 24 12
45 21 46 20 1 -1 9 -58 17 -126z"/>
<path fill="#ffffff" stroke="none" d="M6216 4795 l112 0 11 -80 c30 -223 23
-467 -20 -635 -27 -105 -98 -245 -156 -306 -43 -46 -118 -104 -134 -104 -3 0
-12 19 -18 43 -28 94 -93 204 -173 290 l-26 30 59 55 c120 110 171 277 171
554 l0 167 32 -7 c17 -4 81 -7 142 -7z"/>
<path fill="#ffffff" stroke="none" d="M3998 4674 c-4 -4 -105 23 -120 33 -4
2 16 23 45 47 l52 43 14 -59 c7 -33 11 -61 9 -64z"/>
<path fill="#ffffff" stroke="none" d="M4285 4575 c143 -35 362 -89 487 -119
442 -109 679 -197 883 -331 139 -90 229 -185 288 -300 33 -67 82 -221 102
-325 76 -402 -25 -605 -371 -743 -360 -144 -1237 -257 -1984 -257 -528 0 -972
37 -1180 97 -92 26 -136 53 -88 53 37 0 136 37 174 65 39 29 124 156 166 246
37 80 22 77 162 35 358 -106 826 -130 1346 -70 496 57 1053 211 1327 365 98
56 196 152 231 227 50 108 29 233 -56 332 -41 47 -50 33 -11 -16 51 -63 73
-121 73 -194 1 -193 -190 -345 -609 -485 -788 -263 -1732 -318 -2321 -134 -78
25 -95 34 -91 47 3 9 17 58 31 107 61 206 86 514 63 786 l-8 96 53 6 c106 11
161 28 193 60 30 30 31 31 145 31 127 1 206 -16 273 -60 44 -29 65 -23 27 7
-64 49 -239 86 -349 73 l-60 -6 15 48 c21 66 12 165 -21 246 -14 35 -27 68
-28 73 -1 6 26 11 63 12 211 8 426 51 556 112 l79 37 90 -28 c49 -16 207 -57
350 -93z"/>
<path fill="#ffffff" stroke="none" d="M1663 4446 c32 -15 88 -34 124 -43 l66
-17 -70 -16 c-81 -19 -159 -61 -168 -91 -4 -12 -10 -17 -15 -13 -8 9 -100 283
-100 298 0 5 24 -13 53 -41 28 -27 78 -62 110 -77z"/>
<path fill="#ffffff" stroke="none" d="M1800 4040 c139 -109 238 -227 478
-570 56 -80 124 -171 153 -203 l51 -57 -26 -93 c-27 -94 -99 -257 -113 -257
-13 0 -54 29 -97 69 -149 139 -371 575 -577 1134 -16 43 -29 81 -29 83 0 10
83 -45 160 -106z"/>
<path fill="#ffffff" stroke="none" d="M2652 4079 c24 -6 83 -15 133 -18 l90
-6 9 -45 c5 -25 9 -151 9 -280 0 -255 -13 -366 -68 -555 -52 -179 -183 -409
-259 -456 -37 -23 -148 -59 -181 -59 -21 0 -18 6 29 53 212 212 299 913 170
1366 -6 20 -4 23 9 18 9 -3 35 -11 59 -18z"/>
<path fill="#ffffff" stroke="none" d="M6229 3265 c51 -386 69 -595 87 -1020
9 -191 11 -196 120 -214 82 -14 126 -30 121 -44 -9 -29 -196 -99 -379 -141
-118 -28 -285 -52 -294 -43 -4 3 -1 81 6 174 7 92 14 329 16 527 l3 358 47 47
c96 95 143 250 130 426 -6 79 -37 260 -51 297 -3 8 12 24 37 40 24 15 57 41
73 58 l30 31 12 -133 c6 -73 25 -236 42 -363z"/>
<path fill="#ffffff" stroke="none" d="M5887 2478 c-7 -474 -27 -743 -83
-1087 -41 -259 -91 -456 -161 -648 -37 -99 -39 -102 -83 -122 -60 -28 -155
-51 -207 -51 -50 0 -126 28 -120 44 2 6 23 67 45 136 114 350 199 727 248
1100 20 147 26 590 11 750 l-8 85 110 38 c60 21 138 56 173 77 35 22 67 39 71
40 5 0 6 -163 4 -362z"/>
<path fill="#ffffff" stroke="none" d="M5512 2634 c4 -21 12 -107 17 -190 30
-438 -67 -1049 -266 -1677 -26 -81 -50 -146 -54 -145 -10 4 -208 177 -328 287
-138 125 -250 233 -492 473 -281 279 -454 435 -657 593 l-63 49 -102 -2 c-88
-2 -237 -16 -409 -38 l-48 -7 0 42 c0 36 3 41 23 41 12 0 76 7 142 15 186 22
414 37 449 31 34 -6 81 -50 413 -376 567 -557 1005 -970 1029 -970 26 0 136
373 193 658 65 326 90 568 98 952 4 200 9 297 17 302 20 13 31 2 38 -38z"/>
<path fill="#ffffff" stroke="none" d="M5446 2443 c-6 -206 -25 -514 -31 -521
-2 -2 -36 5 -77 17 -40 11 -111 27 -158 36 -127 24 -119 19 -109 71 5 25 13
145 19 267 6 122 13 236 16 253 l6 31 146 30 c81 17 158 31 171 32 l24 1 -7
-217z"/>
<path fill="#ffffff" stroke="none" d="M5085 2548 c-3 -24 -10 -138 -15 -254
-5 -117 -14 -233 -20 -259 -6 -26 -9 -49 -8 -50 2 -1 53 -12 113 -24 173 -34
255 -60 255 -83 0 -115 -127 -778 -149 -778 -14 0 -82 50 -171 123 -47 39
-299 285 -560 547 -261 262 -501 495 -532 518 -31 23 -87 59 -125 79 l-68 38
-376 4 -377 3 -6 40 c-4 23 -5 42 -3 45 3 2 125 -1 273 -8 516 -22 1165 10
1607 81 62 9 125 18 140 19 28 1 28 0 22 -41z"/>
<path fill="#ffffff" stroke="none" d="M2604 2554 c32 -6 41 -13 53 -42 37
-89 78 -260 105 -437 20 -134 17 -534 -5 -710 -49 -390 -158 -762 -299 -1025
-52 -96 -124 -210 -134 -210 -40 0 -320 208 -539 400 -463 406 -885 904 -1079
1273 -66 126 -62 178 19 250 99 88 419 174 875 236 312 43 977 98 992 83 17
-17 78 -316 67 -326 -2 -2 -139 -9 -304 -15 -580 -23 -947 -60 -1077 -110 -36
-13 -37 -46 -4 -136 99 -274 493 -689 1031 -1086 97 -72 154 -121 154 -132 2
-40 -100 -217 -153 -266 l-26 -24 -39 27 c-236 164 -675 574 -926 866 -248
287 -474 600 -548 758 -16 34 -33 62 -38 62 -13 0 -12 -5 27 -82 121 -240 444
-659 764 -992 197 -204 456 -435 674 -600 l88 -67 31 28 c67 63 150 216 210
389 109 312 166 688 167 1086 0 341 -37 557 -124 731 -41 81 -43 88 -23 83 12
-3 39 -9 61 -12z"/>
<path fill="#ffffff" stroke="none" d="M2885 2516 l130 -11 12 -55 c22 -95 62
-389 74 -545 16 -207 6 -626 -20 -810 -43 -306 -109 -545 -224 -815 -20 -47
-40 -64 -122 -101 -93 -42 -205 -69 -284 -68 -106 1 -107 3 -55 84 303 467
467 1298 378 1920 -14 96 -60 292 -92 393 l-11 34 42 -8 c23 -4 100 -12 172
-18z"/>
<path fill="#ffffff" stroke="none" d="M3865 2351 c124 -71 201 -141 608 -553
230 -233 462 -462 515 -511 86 -77 209 -174 256 -202 15 -9 14 -19 -18 -121
-20 -61 -43 -128 -51 -148 l-16 -37 -46 43 c-251 230 -728 689 -1213 1167
l-135 133 -190 -7 c-104 -3 -251 -14 -325 -24 -74 -10 -138 -15 -141 -12 -3 3
-14 62 -23 131 -10 69 -20 138 -23 153 l-6 29 374 -4 374 -3 60 -34z"/>
<path fill="#ffffff" stroke="none" d="M6538 2035 c-10 -10 -166 29 -183 46
-19 19 -19 19 10 49 17 16 57 45 90 65 l60 36 13 -97 c7 -53 12 -98 10 -99z"/>
<path fill="#ffffff" stroke="none" d="M2668 1993 c3 -19 -1 -23 -25 -23 -141
0 -710 -42 -898 -66 -132 -16 -332 -55 -410 -78 -27 -9 -51 -14 -53 -11 -2 2
-6 21 -9 44 l-5 40 54 16 c71 20 142 32 308 50 278 30 694 53 910 51 122 -1
125 -2 128 -23z"/>
<path fill="#ffffff" stroke="none" d="M2675 1864 c15 -172 -22 -578 -75 -842
-33 -164 -108 -413 -126 -419 -12 -4 -285 202 -434 326 -319 267 -519 476
-657 688 -60 92 -95 165 -85 175 11 11 198 55 307 72 240 39 721 80 977 85
l86 1 7 -86z"/>
<path fill="#000000" stroke="none" d="M2999 9196 c-50 -19 -119 -64 -125 -81
-5 -12 21 -111 32 -124 1 -2 17 13 35 33 40 47 103 83 155 92 48 7 139 -10
207 -38 26 -12 50 -18 54 -14 11 11 -52 80 -101 110 -42 26 -59 30 -134 33
-57 2 -100 -2 -123 -11z"/>
<path fill="#000000" stroke="none" d="M1814 9021 c-51 -31 -111 -111 -169
-224 -53 -103 -64 -137 -47 -137 4 0 16 16 26 35 30 55 110 129 179 166 54 29
74 34 160 38 l98 6 -28 42 c-60 89 -146 118 -219 74z"/>
<path fill="#000000" stroke="none" d="M5593 9083 c-95 -214 -148 -644 -159
-1278 -5 -297 -3 -387 10 -515 42 -389 154 -765 304 -1014 20 -33 38 -54 40
-48 2 7 -5 27 -16 44 -140 233 -235 523 -295 898 -20 122 -22 174 -22 550 0
427 10 608 46 880 29 226 83 443 125 507 17 27 18 33 3 33 -5 0 -22 -26 -36
-57z"/>
<path fill="#000000" stroke="none" d="M1745 7866 c-142 -95 -262 -305 -300
-523 -29 -164 -17 -528 31 -963 35 -321 99 -718 118 -737 13 -13 15 4 5 47
-67 293 -130 834 -148 1260 -14 318 9 466 101 650 43 86 67 119 133 186 44 45
90 84 103 88 12 4 22 12 22 17 0 15 -13 10 -65 -25z"/>
<path fill="#000000" stroke="none" d="M3380 7691 c0 -8 7 -22 16 -32 38 -42
-22 -157 -112 -215 -179 -114 -446 -124 -644 -24 -54 28 -100 64 -100 78 0 4
12 20 26 35 35 38 21 48 -17 11 -54 -51 -149 -208 -149 -245 0 -24 17 -3 39
47 30 68 80 139 91 128 4 -5 10 -49 12 -99 13 -257 165 -416 308 -321 55 36
94 93 132 194 18 46 37 85 43 87 5 1 39 8 75 14 149 28 280 121 315 225 14 42
22 53 31 45 7 -6 21 -9 31 -7 14 3 11 8 -14 21 -18 9 -44 29 -58 44 -15 17
-25 22 -25 14z"/>
<path fill="#ffffff" stroke="none" d="M2606 7415 c57 -39 186 -75 291 -82 51
-3 93 -7 93 -9 0 -18 -50 -130 -75 -169 -56 -87 -111 -121 -175 -109 -93 19
-180 182 -180 336 0 32 2 58 5 58 2 0 21 -11 41 -25z"/>
<path fill="#000000" stroke="none" d="M4340 5881 c0 -6 13 -11 29 -11 43 0
254 -38 363 -66 131 -33 239 -69 513 -174 440 -167 545 -222 618 -320 71 -95
118 -145 157 -169 38 -23 50 -26 50 -12 0 5 -13 14 -30 21 -33 14 -91 75 -155
165 -59 82 -105 113 -300 200 -149 66 -583 230 -730 275 -183 57 -515 115
-515 91z"/>
<path fill="#000000" stroke="none" d="M1072 5418 c-7 -7 -12 -25 -12 -41 0
-36 80 -116 178 -178 37 -23 78 -49 92 -59 40 -27 524 -311 770 -453 124 -71
240 -141 259 -155 92 -69 161 -171 161 -239 0 -18 5 -33 11 -33 18 0 5 81 -22
134 -30 61 -127 153 -214 203 -393 225 -933 544 -1048 620 -84 55 -144 108
-163 144 -12 24 -12 30 1 43 8 8 11 17 7 20 -5 3 -14 0 -20 -6z"/>
<path fill="#000000" stroke="none" d="M3889 4416 c-94 -38 -139 -82 -159
-155 -10 -40 -9 -62 6 -113 4 -14 -1 -18 -21 -18 -27 0 -75 -40 -75 -62 0 -8
7 -24 16 -36 12 -17 25 -22 57 -22 52 1 77 19 86 62 6 29 11 33 51 41 63 12
264 2 330 -16 93 -26 163 -55 234 -98 37 -22 70 -38 74 -35 9 9 -25 32 -108
75 -175 89 -358 120 -540 90 -75 -12 -85 -5 -96 66 -13 91 57 176 175 212 31
9 60 20 66 25 19 17 -42 7 -96 -16z"/>
<path fill="#ffffff" stroke="none" d="M3775 4076 c0 -38 -47 -62 -85 -43 -32
16 -35 32 -10 57 15 15 31 20 58 18 34 -3 37 -6 37 -32z"/>
<path fill="#000000" stroke="none" d="M3550 4023 c-56 -10 -191 -86 -255
-146 -60 -55 -165 -187 -165 -209 0 -19 17 -5 44 38 89 140 257 271 384 299
17 3 32 11 32 16 0 5 -3 8 -7 8 -5 -1 -19 -4 -33 -6z"/>
<path fill="#000000" stroke="none" d="M3740 3995 c0 -3 24 -16 54 -30 104
-48 199 -136 263 -244 44 -75 56 -67 17 11 -38 75 -163 197 -243 236 -60 30
-91 39 -91 27z"/>
</g>
</svg>
